<svg width="244" height="158" viewBox="0 0 244 158" fill="none" xmlns="http://www.w3.org/2000/svg">
<path fill-rule="evenodd" clip-rule="evenodd" d="M53.2408 85.2031C80.714 71.3967 99.9143 73.0093 116.347 76.1762V76.1762C136.528 80.0658 144.461 103.425 134.665 121.493L132.432 125.611C130.537 129.106 129.346 132.99 127.326 136.413C123.056 143.649 111.308 153.373 80.9683 134.879C76.3554 132.067 72.0984 129.665 68.1741 127.617C51.8309 119.089 36.7693 93.4807 53.2408 85.2031V85.2031Z" fill="#FCDD8C"/>
<path fill-rule="evenodd" clip-rule="evenodd" d="M243.967 147.356C243.645 146.334 241.418 147.02 240.331 146.98C237.292 146.868 233.886 147.122 230.318 147.151C229.011 147.161 227.642 147.231 226.279 147.237C224.466 147.246 222.544 147.498 220.963 147.309C219.722 147.16 218.466 147.374 216.968 147.476C215.878 147.55 214.74 147.334 213.71 147.421C213.554 147.434 212.901 147.68 212.764 147.524C212.564 147.296 213.031 146.908 213.039 146.9C213.293 146.666 213.316 146.236 213.476 146.15C214.04 145.848 214.95 146.245 215.662 146.185C216.945 146.081 218.674 146.288 220.359 146.045C221.157 145.93 222.024 146.122 223.038 146.029C224.994 145.85 226.964 145.565 229.052 145.82C230.096 145.947 231.778 145.945 232.43 145.706C232.879 145.542 233.213 146.076 233.875 145.799C233.895 145.791 233.93 145.644 233.995 145.632C234.781 145.499 235.843 145.697 236.513 145.743C236.827 145.765 238.077 145.42 238.227 144.925C238.307 144.658 237.884 144.178 237.551 144.198C235.553 144.322 232.729 144.247 231.041 144.336C229.709 144.407 227.803 144.446 226.345 144.518C222.654 144.702 218.658 144.486 214.933 144.843C214.628 144.872 213.749 144.861 213.653 144.746C213.469 144.529 213.985 144.18 214.007 143.956C214.068 143.343 213.702 143.143 214.771 143.035C216.595 142.851 217.755 142.957 219.3 142.816C221.075 142.653 222.489 142.841 223.999 142.757C225.537 142.672 227.247 142.874 228.53 142.579C228.843 142.506 229.264 142.056 229.129 141.66C228.781 140.645 226.699 141.215 225.369 141.287C224.312 141.344 223.128 141.445 222.199 141.478C221.429 141.505 219.845 141.377 219.191 141.541C218.542 141.705 216.831 141.912 216.269 141.768C215.958 141.689 214.463 142.089 214.124 141.732C213.846 141.437 214.466 139.566 214.602 139.004C214.647 138.821 214.534 138.443 214.543 138.141C214.59 136.602 215.219 135.554 215.242 134.175C215.262 132.919 215.406 131.725 215.535 130.545C215.602 129.935 215.862 129.078 215.821 128.481C215.81 128.321 215.647 128.132 215.647 128.033C215.647 127.921 216.137 126.866 215.74 126.589C216.239 126.253 215.949 124.858 216.017 124.113C216.075 123.479 216.376 122.623 216.503 121.797C217.168 117.485 217.119 113.516 217.593 109.054C217.705 107.996 217.787 106.262 218.044 105.093C218.207 104.355 218.115 103.499 218.245 102.865C218.304 102.574 218.516 102.511 218.437 102.243C218.255 101.623 217.588 101.839 217.066 101.738C215.184 101.37 213.405 100.237 211.62 99.5892C210.827 99.3011 209.914 99.0776 209.376 98.7725C208.308 98.1652 206.871 98.0892 205.763 97.5318C205.054 97.1741 204.082 96.5219 202.984 96.7266C202.514 96.8136 202.093 97.3046 201.643 97.6605C200.777 98.3466 199.731 98.8889 198.919 99.4467C197.509 100.419 196.271 101.496 194.776 102.334C194.467 102.508 193.766 102.951 193.558 103.184C192.682 104.16 193.465 105.684 192.605 106.867C192.919 107.691 192.714 108.224 192.573 109.215C192.361 110.707 192.414 112.24 192.294 113.585C192.064 116.183 191.589 119.561 191.744 122.57C191.878 125.191 190.977 128.009 191.324 129.948C191.573 131.346 190.959 133.949 190.612 135.232C190.514 135.592 190.642 136.258 190.348 136.431C189.931 136.679 188.407 136.209 187.951 136.112C186.854 135.88 185.74 135.457 184.675 135.234C182.912 134.868 181.044 133.717 179.285 133.744C178.234 133.759 177.151 133.274 176.259 132.985C175.814 132.841 175.173 132.778 174.644 132.648C170.978 131.749 167.129 131.196 163.581 130.001C165.544 130.142 167.877 129.448 169.961 129.578C170.576 129.616 172.442 129.989 172.85 129.722C173.33 129.41 172.766 128.273 172.447 128.208C172.254 128.168 172.106 128.377 171.915 128.384C170.355 128.437 168.923 128.263 167.301 128.523C165.559 128.802 163.637 128.505 161.617 128.767C160.924 128.857 160.212 129.082 159.521 129.1C158.803 129.119 157.912 128.754 157.204 128.655C154.782 128.314 152.312 127.677 150.042 127.243C151.681 127.282 153.298 127.311 154.948 127.262C155.863 127.234 156.813 127.439 157.712 127.368C159.025 127.264 160.14 127.15 161.46 127.206C161.884 127.224 162.312 127.043 162.696 127.18C162.852 127.235 162.988 127.492 163.157 127.54C163.912 127.754 164.596 127.323 165.089 127.293C165.613 127.262 166.398 127.109 167.025 127.17C168.138 127.279 169.378 127.072 170.609 127.053C172.927 127.017 175.485 127.35 177.247 127.118C177.355 127.047 177.09 126.893 177.199 126.831C177.913 126.936 177.414 125.907 177.219 125.801C177.12 125.747 176.927 125.858 176.767 125.852C173.446 125.704 169.402 125.92 165.76 125.879C163.585 125.855 161.547 126.012 159.583 126.175C158.35 126.278 156.474 125.875 155.376 126.1C155 126.177 155.029 126.171 154.635 126.115C152.601 125.831 149.848 126.456 147.997 126.092C147.342 125.962 146.594 125.488 146.184 126.131C146.232 126.143 146.381 126.254 146.27 126.294C144.676 125.922 142.943 125.508 141.213 125.042C140.539 124.86 141.335 124.864 141.747 124.908C142.299 124.965 143.242 124.659 143.679 124.661C144.801 124.663 146.001 124.629 147.183 124.628C149.209 124.625 151.664 125.033 153.699 124.777C154.487 124.678 155.649 125.182 156.423 124.885C156.574 124.826 156.6 124.647 156.788 124.63C157.279 124.583 158.084 124.951 158.814 124.916C159.495 124.884 160.211 124.558 160.786 124.627C161.509 124.713 162.283 124.76 163.139 124.741C164.147 124.72 166.229 124.356 167.135 124.615C167.554 124.736 167.654 125.045 168.174 125.005C169.296 124.92 170.242 124.63 171.378 124.444C172.595 124.244 173.743 124.529 174.757 124.413C175.076 124.375 175.879 124.319 176.486 124.253C177.781 124.109 179.358 124.698 179.611 123.898C180.453 123.475 179.358 122.826 178.805 122.845C177.516 122.888 176.178 122.942 175.017 123.049C174.584 123.088 173.898 123.164 173.494 123.163C172.187 123.162 170.455 123.645 169.005 123.382C167.657 123.136 166.026 123.068 164.674 123.268C164.028 123.364 163.064 123.508 162.452 123.439C161.457 123.327 159.732 123.5 158.371 123.484C152.806 123.422 146.643 123.638 141.227 123.724C140.467 123.737 139.225 123.627 138.673 123.82C138.483 123.887 138.327 124.135 138.103 124.161C137.406 124.243 135.875 123.611 135.119 123.401C134.923 123.347 133.128 122.804 133.909 122.728C134.581 122.662 135.354 122.841 136.012 122.765C138.121 122.524 140.353 122.536 142.028 122.637C143.83 122.746 145.644 122.473 147.548 122.438C147.758 122.433 148 122.542 148.25 122.505C148.895 122.409 149.494 122.555 149.899 122.47C149.969 122.456 150.181 122.258 150.183 122.258C150.759 122.177 151.28 122.32 151.705 122.102C152.109 121.896 152.813 122.007 153.351 121.985C154.286 121.946 155.307 121.764 156.232 121.76C157.019 121.755 157.886 122.034 158.628 121.997C159.604 121.947 161.263 121.974 161.962 121.72C162.798 121.417 164.652 121.713 165.341 121.69C167.614 121.616 170.258 121.85 172.593 121.495C172.62 121.382 172.399 121.528 172.426 121.416C173.282 120.83 174.836 121.53 176.048 121.133C176.91 120.851 178.636 121.393 179.8 121.178C180.13 121.116 181.013 121.18 181.241 121.064C181.747 120.805 181.879 120.006 181.543 119.74C181.35 119.588 180.889 119.724 180.429 119.723C179.713 119.721 178.382 119.692 177.667 119.74C175.47 119.888 173.228 120.355 171.291 120.37C171.102 120.371 170.752 120.191 170.546 120.22C169.354 120.394 167.489 120.388 166.219 120.312C164.293 120.197 162.608 120.444 160.783 120.592C159.341 120.709 157.625 120.589 156.085 120.651C154.3 120.723 152.403 120.645 150.693 121.054C150.15 121.183 149.693 121.286 149.213 121.25C146.551 121.05 143.62 121.604 140.889 121.426C139.178 121.315 137.641 121.549 135.988 121.612C134.816 121.658 133.628 121.431 132.48 121.44C131.686 121.447 130.736 122.074 130.145 122.107C129.604 122.138 128.401 121.772 127.949 121.619C127.458 121.453 126.768 121.188 126.328 120.994C127.375 120.641 128.988 121.18 129.911 120.836C130.472 120.627 131.536 120.785 132.381 120.66C133.711 120.464 135.304 120.796 136.667 120.61C137.445 120.505 138.532 120.629 139.386 120.512C140.899 120.303 142.611 120.318 144.077 120.082C147.392 119.55 150.228 119.487 153.584 119.388C153.734 119.029 155.127 119.118 155.764 119.135C156.768 119.16 158.516 119.064 159.35 119.1C161.01 119.172 162.861 119.419 164.589 119.276C165.64 119.191 166.657 118.933 167.672 118.841C169.383 118.685 171.324 119.192 172.941 118.482C173.559 118.211 174.909 118.608 175.368 118.225C175.596 118.034 175.42 117.211 175.136 117.036C174.789 116.821 172.399 117.42 172.054 117.471C170.617 117.689 168.405 117.591 166.742 117.749C166.015 117.819 164.758 118.03 164.191 118.009C163.844 117.996 162.95 117.936 162.335 117.966C161.569 118.004 160.794 117.918 159.985 117.975C158.522 118.078 156.928 118.117 155.452 118.071C152.221 117.969 148.807 118.603 145.491 118.735C145.361 118.74 145.25 118.686 145.119 118.702C139.623 119.376 133.677 119.501 128.36 119.635C126.761 119.674 125.027 119.618 123.87 119.771C123.769 119.784 123.674 119.861 123.583 119.859C123.107 119.851 123.02 120.124 122.765 120.165C121.817 120.317 120.32 119.498 119.49 119.287C119.302 119.24 118.546 119.093 118.372 119.064C116.941 118.826 119.067 118.393 119.757 118.293C120.776 118.146 120.824 118.244 121.652 118.253C123.956 118.282 126.274 117.896 128.365 117.905C129.996 117.911 131.969 118.102 133.639 117.793C133.818 117.759 134.287 117.768 134.546 117.774C136.732 117.819 138.315 117.711 140.355 117.609C142.778 117.488 145.901 116.742 148.174 116.991C148.108 117.004 148.062 116.937 148.131 116.909C149.29 117.053 150.661 116.728 151.631 116.711C152.401 116.698 153.189 116.362 153.726 116.337C154.469 116.303 155.27 116.7 155.998 116.578C156.309 116.525 156.639 116.394 157.067 116.431C157.919 116.505 158.765 116.224 159.537 116.256C161.133 116.32 162.768 116.025 164.233 116.073C164.466 116.081 164.928 116.11 165.098 116.055C165.387 115.962 167.165 116.018 167.07 115.725C167.357 115.957 167.964 115.674 168.098 115.62C168.302 115.538 169.325 115.807 169.914 115.706C170.299 115.639 171.602 115.474 171.674 115.133C171.838 114.355 170.791 114.208 170.46 114.254C166.936 114.738 163.521 114.587 160.166 114.842C159.273 114.91 158.363 115.261 157.455 115.271C156.339 115.282 155.216 115.111 154.072 115.178C151.695 115.316 149.26 115.758 146.83 115.784C146.003 115.792 145.162 115.759 144.357 115.836C139.171 116.333 134.912 116.58 129.782 116.681C127.585 116.724 124.473 116.811 121.916 117.095C120.745 117.224 119.639 117.467 118.628 117.576C118.064 117.638 116.265 117.444 115.875 117.964C115.751 118.129 115.829 118.478 115.722 118.544C115.302 118.804 113.559 118.06 113.029 117.901C112.682 117.797 112.359 117.787 112.159 117.672C113.341 117.006 114.584 117.276 115.605 116.9C117.125 116.339 118.961 116.011 120.571 115.848C121.527 115.75 122.582 115.935 123.537 115.743C127.33 114.982 131.243 115.6 135.269 114.96C136.233 114.806 137.29 114.76 137.987 114.819C138.758 114.885 140.035 114.849 141.117 114.671C142.854 114.382 144.565 114.499 146.263 114.355C147.207 114.276 148.196 114.024 149.142 114.006C149.99 113.99 150.914 113.681 151.69 113.664C155.206 113.585 157.725 113.575 160.625 113.144C161.823 112.966 163.737 113.401 164.116 112.535C164.213 112.547 164.272 112.597 164.405 112.571C164.667 112.075 164.323 111.389 163.475 111.479C162.335 111.6 161.052 111.724 159.856 111.885C157.726 112.172 155.03 112.274 152.984 112.443C148.589 112.804 144.443 113.231 140.267 113.494C134.441 113.862 128.363 114.086 122.564 114.612C123.992 113.739 125.619 113.516 127.395 113.027C128.022 112.854 128.431 112.874 129.041 112.869C130.076 112.857 130.962 112.202 131.951 112.065C134.032 111.777 136.468 112.037 138.497 111.679C139.425 111.516 140.463 111.71 141.423 111.617C142.303 111.532 143.321 111.25 144.258 111.146C145.265 111.033 146.331 111.049 147.386 110.914C150.571 110.506 152.745 110.757 155.458 110.579C155.702 110.563 155.918 110.347 156.196 110.357C156.644 110.373 157.036 110.498 157.474 110.371C157.419 110.387 157.429 110.267 157.472 110.248C157.997 110.015 159.182 110.555 159.946 110.319C160.307 110.208 161.659 110.365 161.875 109.907C162.167 109.291 161.359 108.711 161.231 108.686C161.14 108.669 160.93 108.8 160.78 108.819C160.159 108.895 159.492 108.776 159.048 108.815C157.614 108.942 155.979 109.329 154.279 109.41C152.417 109.498 150.447 109.446 148.677 109.611C147.548 109.716 146.463 110.027 145.513 110.09C144.065 110.186 142.527 110.454 140.987 110.515C139.736 110.565 138.685 110.631 137.653 110.75C137.121 110.812 134.121 111.153 135.92 110.705C136.722 110.505 137.726 110.059 138.5 109.91C139.443 109.727 139.818 109.453 140.632 109.329C142.655 109.021 144.881 107.816 146.996 108.123C146.857 107.834 147.373 108.016 147.612 107.987C149.714 107.731 152.368 107.756 154.609 107.468C155.027 107.414 155.555 107.495 156.052 107.478C156.325 107.47 156.726 107.177 156.951 107.13C157.504 107.016 158.158 107.253 158.85 107.213C159.388 107.182 160.702 107.121 160.987 106.921C161.458 106.591 161.005 105.763 160.63 105.652C160.105 105.498 159.103 105.624 158.528 105.656C156.038 105.793 153.322 106.676 150.176 106.45C153.132 105.342 156.224 104.651 159.223 103.459C160.236 103.057 161.404 102.845 162.374 102.363C162.551 102.275 162.636 102.05 162.82 101.983C165.034 101.18 167.356 100.567 169.493 99.8246C169.898 99.684 170.387 99.6547 170.723 99.5104C170.968 99.406 171.212 99.0222 171.535 98.9164C172.456 98.6159 174.074 98.1203 175.016 97.8135C175.424 97.6811 175.468 97.2185 175.657 96.9771C175.874 96.7014 176.637 96.4394 176.917 96.1266C176.99 96.0451 176.938 95.8774 176.994 95.8367C177.486 95.4767 178.149 95.2229 178.746 94.8533C179.193 94.5753 179.577 94.1814 180.001 93.8379C180.629 93.3309 181.543 93.0749 182.244 92.6787C182.703 92.4204 183.01 91.8648 183.418 91.6248C183.537 91.5552 183.689 91.6221 183.787 91.5346C184.113 91.2428 183.783 90.4129 183.47 90.2242C183.03 89.9586 181.455 89.5628 180.896 89.3732C176.459 87.865 171.351 86.3348 167.029 84.7693C164.818 83.9678 162.933 83.2565 160.19 83.0201C160.108 83.0133 159.637 83.0229 159.571 82.9927C159.329 82.88 158.875 81.7107 158.835 81.3608C158.802 81.0745 158.894 80.5386 158.848 80.044C158.793 79.4399 159.133 78.7309 158.973 78.1474C158.944 78.0429 158.737 77.9669 158.72 77.8643C158.679 77.6142 158.906 77.0554 158.901 76.7078C158.895 76.2658 158.884 75.9457 158.917 75.5138C159.046 73.821 158.757 71.7618 159.087 69.9526C159.23 69.1722 159.247 67.909 159.231 67.0268C159.227 66.801 159.05 66.5629 159.092 66.3302C159.564 63.7232 159.321 61.5673 159.144 59.084C159.1 58.4469 159.33 57.7727 159.268 57.1461C159.122 55.6539 159.037 54.2007 159.089 52.6214C159.128 51.4581 158.926 50.1427 159.011 48.9596C159.068 48.1691 159.395 47.4125 158.841 46.7813C159.308 46.7484 159.047 46.2317 159.025 45.7485C158.918 43.3201 159.083 39.9913 159.179 37.4709C159.217 36.4619 158.982 35.0594 159.114 34.426C159.325 33.4133 158.993 32.0778 159.037 30.8045C159.083 29.4882 159.098 27.9204 159.191 26.3966C159.253 25.3757 158.821 24.3282 158.878 23.3156C158.893 23.0453 159.012 22.7563 159.021 22.3249C159.054 20.856 159.028 19.3876 159.093 17.9183C159.127 17.1388 158.776 16.3803 158.797 15.6608C158.814 15.1107 159.19 14.1855 159.088 13.8017C159.023 13.5594 158.099 13.2576 157.959 13.0849C157.878 12.9842 157.909 12.7263 157.703 12.6375C156.111 11.9504 153.669 11.5914 151.859 11.197C151.02 11.0143 149.74 10.6827 148.838 10.6437C147.281 10.576 145.429 10.019 143.955 9.80054C137.868 8.8978 132.282 7.76193 126.09 7.1743C124.271 7.00209 122.444 6.55644 120.586 6.17996C120.12 6.08515 119.586 6.18317 119.1 6.0879C117.324 5.74027 115.493 5.5305 113.6 5.25798C109.348 4.64562 104.501 3.51616 99.7431 3.08197C97.9052 2.91388 96.155 2.84838 94.3758 2.70182C89.975 2.33907 85.9117 1.16519 81.3916 0.836794C80.0771 0.741069 78.6543 0.676032 77.4242 0.385652C76.8114 0.241379 75.906 -0.237244 75.1932 0.144738C73.4953 1.05618 71.1263 1.92091 69.9773 3.01372C68.6706 4.25723 66.0829 4.76241 64.5601 6.09248C63.9703 6.6082 64.5555 6.79507 64.7055 7.11888C64.8124 7.34926 64.8908 8.61796 64.9119 9.0494C65.0825 12.5697 65.2431 16.804 65.277 20.4035C65.2889 21.6878 65.3939 23.1214 65.4861 24.4336C65.6283 26.4424 65.3531 28.4164 65.3678 30.4871C65.4031 35.5523 65.3151 40.8588 65.2885 46.1323C65.2807 47.6887 65.599 49.457 65.6788 50.8989C65.7636 52.4346 65.759 54.7984 65.8801 56.4935C65.9347 57.2533 65.976 58.5861 66.0246 59.4133C66.0462 59.7765 66.2255 60.8107 66.0159 60.9366C65.882 61.0173 65.1609 60.6023 64.9357 60.5478C64.556 60.4557 64.0574 60.3284 63.568 60.2066C60.4285 59.4247 56.4643 58.6374 53.4614 57.9509C52.8762 57.8171 51.6772 57.3445 51.3456 57.3371C50.8654 57.3266 50.8016 57.8524 50.6585 57.9696C50.3058 58.2573 49.4913 58.3461 49.0207 58.4982C48.5964 58.6351 47.907 58.9649 47.5511 59.188C46.5512 59.8145 45.9045 60.2038 44.945 60.6838C43.9084 61.2023 42.4728 61.8774 41.1899 62.4517C40.3286 62.8365 40.3777 63.5487 40.69 64.1501C41.272 64.2151 41.9536 64.7936 42.5283 65.3047C43.8006 66.4355 45.4844 67.4335 46.8402 68.383C48.3675 69.4529 49.7398 70.5439 51.2351 71.5007C52.1799 72.1062 52.8422 73.1857 53.8426 73.9153C54.3618 74.2946 54.9695 74.5176 55.5116 74.868C57.238 75.9828 58.5044 77.4864 59.9634 78.7254C60.6353 79.296 61.7104 79.7719 62.3888 80.3206C65.41 82.7655 67.7533 85.2058 70.7841 87.3873C71.7226 88.0638 69.97 87.5009 69.5935 87.619C69.1784 87.7477 68.1959 87.8087 67.4951 87.8283C66.5681 87.8535 65.5646 87.4464 64.8504 87.5137C64.7766 87.5206 64.5436 87.7097 64.4014 87.729C62.5773 87.9859 60.7913 87.3795 58.9553 87.5155C58.1049 87.5778 57.3908 87.876 57.6595 88.6129C57.9334 89.3645 59.6607 88.7723 60.9197 88.7911C61.7701 88.8035 62.5507 88.8154 63.3116 88.8222C65.0596 88.841 66.9575 89.0998 68.55 88.9583C69.7687 88.8502 71.1781 89.5262 72.1849 89.2931C72.7137 89.1703 72.5041 88.8859 72.9265 89.2766C72.9999 89.3448 74.0608 90.0167 73.9769 90.2018C73.8517 90.477 73.4687 90.1757 73.399 90.1729C73.0063 90.1523 72.55 90.3241 72.1243 90.3236C71.8097 90.3227 71.5253 90.1532 71.1722 90.1372C69.5246 90.0657 67.7781 90.1688 65.8549 90.1688C64.8119 90.1679 63.6776 90.2714 62.6392 90.1541C61.1866 89.9897 59.7423 90.3593 58.398 90.4083C57.8609 90.4289 57.2114 90.276 56.6221 90.2411C55.6602 90.1839 54.5911 90.1303 53.5279 90.1418C52.873 90.1491 51.4052 90.0199 51.2259 90.4381C50.7824 91.4677 51.7965 91.3495 52.2331 91.2804C53.4023 91.0972 55.1456 91.6967 56.4432 91.5204C57.316 91.4022 58.9144 92.0471 60.0767 91.7727C60.5991 91.6491 61.4586 91.5703 62.2127 91.4389C62.7805 91.3404 63.247 91.301 63.8194 91.3637C65 91.4934 66.4934 91.6614 67.8625 91.525C68.9931 91.4118 70.3406 91.7457 71.4079 91.5318C71.806 91.4521 71.8317 91.4897 72.1918 91.557C73.3036 91.7627 74.702 91.4773 75.5744 91.65C75.884 91.7109 76.6853 92.5569 77.0008 92.8129C77.8659 93.515 76.738 93.2072 75.9776 93.1646C73.5448 93.0268 71.1006 93.1422 68.9261 93.0671C66.8984 92.9961 65.1183 92.915 62.9048 92.948C61.2293 92.9723 59.4768 92.6617 57.8283 92.6851C57.194 92.6938 55.6479 92.6929 55.1525 92.8656C54.3572 93.1422 55.6547 94.1091 55.7153 94.1297C56.4579 94.3775 58.3058 93.7729 59.6662 93.7985C60.278 93.8104 60.8257 93.815 61.2756 93.8883C63.0447 94.1764 65.0009 94.0706 66.8507 94.3463C67.4396 94.4338 68.8513 94.4402 69.571 94.3294C70.2801 94.2199 71.3611 94.3875 72.2523 94.3962C73.5719 94.4095 74.2626 94.5341 75.5125 94.5744C76.6178 94.6092 78.0796 95.0457 78.8988 94.8309C79.3666 94.7086 79.2418 94.7906 79.6065 95.146C80.0257 95.5536 80.7297 95.9663 80.9944 96.4339C78.5534 96.4683 75.7611 95.9915 73.2343 95.9805C72.8064 95.9787 72.2995 96.1683 71.8771 96.1326C71.8349 96.1289 71.595 95.9448 71.5019 95.9347C70.5566 95.8367 69.6361 95.9947 68.6991 95.9539C65.82 95.8266 62.7011 95.6494 60.0771 95.6837C59.4249 95.6915 57.1697 95.4034 56.956 96.2434C56.8624 96.613 57.299 97.3367 57.5554 97.3019C58.398 97.1846 60.2363 97.1182 61.1766 96.9781C63.0717 96.6945 65.2146 97.2025 67.0759 97.1819C67.2557 97.18 67.4483 97.0211 67.6496 97.0046C68.5683 96.9313 69.61 97.4022 70.5837 97.3545C70.8529 97.3412 71.2052 97.2158 71.5712 97.251C72.6513 97.3536 73.8283 97.3293 74.9946 97.3431C76.3826 97.36 78.1333 98.0631 79.2492 97.7466C79.6459 97.6335 79.6711 97.9261 80.0784 97.9765C80.5513 98.0338 81.3769 98.0567 81.8507 97.9385C82.0557 97.8867 82.2493 97.5771 82.4616 97.5959C83.0895 97.6518 83.3753 98.8147 84.017 99.0043C82.8295 99.029 81.6801 98.8513 80.4247 98.751C77.4356 98.5106 74.1636 99.0812 71.1965 99.029C69.66 99.0025 68.1257 99.1096 66.7034 99.0418C65.8503 99.0015 64.9064 99.0075 64.3152 99.1751C63.9391 99.2814 62.7924 99.0588 62.4241 99.4211C62.0719 99.7673 62.4076 100.587 62.7388 100.649C63.6478 100.822 64.6234 100.249 65.7398 100.256C66.0865 100.258 66.4732 100.411 66.7736 100.399C67.0447 100.388 67.6776 100.147 67.9221 100.128C69.615 99.9954 71.4501 100.209 73.4462 100.134C75.0107 100.075 76.4284 100.206 77.8168 100.164C79.1469 100.125 80.4688 100.191 81.6516 100.207C83.046 100.226 84.4041 100.756 85.62 100.74C85.7906 100.738 85.9498 100.579 86.1121 100.606C86.8432 100.725 87.783 102.358 88.5852 102.53C83.5689 102.886 78.5924 102.433 74.2406 102.587C73.2733 102.622 72.1679 102.547 70.409 102.71C69.3861 102.804 66.7387 102.6 67.5088 103.965C67.9684 104.779 69.6856 103.873 70.3103 103.864C70.4388 103.862 70.5149 103.989 70.6011 103.982C74.8135 103.589 79.778 103.845 83.7133 104.115C83.5574 103.773 84.7797 104.181 84.9513 104.171C85.7984 104.124 87.1904 104.01 88.2041 103.979C88.6944 103.963 89.681 103.91 90.1424 104.02C90.6529 104.141 91.2711 105.089 91.5729 105.389C92.2788 106.089 90.5639 105.753 90.0548 105.709C87.7656 105.515 85.6067 105.635 83.2102 105.649C80.0523 105.667 76.7752 105.307 73.5677 105.854C73.0187 105.947 72.5417 106.371 72.8087 106.981C73.0834 107.61 74.7263 107.288 75.4941 107.254C77.2811 107.174 79.4079 106.776 81.0476 106.683C81.6828 106.646 82.3887 107.029 83.1969 106.966C84.9613 106.83 86.8056 107.019 88.1862 107.025C88.3054 106.605 88.9077 107.063 89.2613 107.167C89.902 107.357 91.1377 107.362 91.8596 107.236C93.47 106.954 94.2616 107.652 95.0661 108.732C94.0392 108.774 92.687 108.691 91.9298 108.593C89.4241 108.266 86.9739 108.921 84.5591 108.996C83.0918 109.041 81.3375 108.569 79.8143 108.808C79.5524 108.85 79.2299 109.078 78.9144 109.116C77.9347 109.234 76.4229 108.785 75.3152 108.533C73.593 108.143 71.7111 107.619 70.3039 107.446C68.5569 107.231 66.4383 107.002 64.5982 106.661C62.8787 106.344 61.1105 105.908 59.3809 105.578C55.4479 104.828 52.5207 103.609 48.6024 102.76C45.7793 102.15 42.9306 101.555 40.1928 100.84C38.3628 100.361 36.4758 99.8539 34.6838 99.5983C32.208 99.2448 29.8729 97.9967 27.8741 97.3133C25.8931 96.6373 24.5924 96.1147 23.687 94.2739C23.2678 93.422 22.8733 91.4677 23.2407 90.744C22.7655 89.8564 23.2191 88.6015 23.3366 87.4885C23.4971 85.9652 23.7076 84.1794 23.8897 82.4962C24.0324 81.1794 23.9883 79.9625 24.3039 78.7006C24.4254 78.2128 24.4117 77.813 24.4791 77.2556C24.7222 75.2472 25.2368 72.6718 25.5767 70.728C25.6565 70.2723 25.7519 69.4648 25.8725 69.1163C26.0463 68.6134 26.4467 68.2424 26.5009 67.6621C26.6027 66.5734 26.7109 65.0771 27.1618 63.8606C27.4755 63.0151 27.32 61.9397 27.5567 61.0942C27.8296 60.1186 28.0571 58.3608 28.2502 56.8805C28.297 56.5223 28.4493 56.2269 28.3543 55.9727C28.286 55.7881 28.0044 55.6462 27.9314 55.4465C27.4925 54.252 26.1454 53.9588 24.8387 53.4949C23.9585 53.182 22.9669 53.041 22.1413 52.6466C21.2845 52.2372 19.9411 51.7425 19.0297 51.7247C18.4385 51.7132 17.9707 51.7045 17.5024 51.6335C16.3778 51.4636 15.1742 50.8265 14.2262 50.7152C13.8822 50.6749 13.8726 50.6813 13.6469 50.6039C13.0052 50.3841 13.0213 51.045 12.6709 51.2424C12.4158 51.3857 12.2012 51.3308 11.9347 51.5048C10.933 52.1579 9.13229 52.8111 7.98289 53.7294C7.32471 54.2552 6.26566 55.2019 5.66436 55.1781C5.25752 55.5477 4.68144 56.3945 4.12738 56.569C3.2839 56.8347 3.56323 58.0896 3.39582 59.0135C2.81011 62.2456 2.35053 65.3574 2.02947 68.4283C1.6052 72.4987 1.00665 76.526 0.797503 80.2693C0.642934 83.0362 0.254448 85.6949 0.104925 88.394C0.00998179 90.1088 0.108594 91.7672 0.129234 93.4156C0.17831 97.3115 -0.281727 101.189 0.28793 104.733C0.477357 105.914 0.642934 106.822 1.06032 108.093C1.40248 109.135 1.63089 110.174 2.15147 110.951C2.34181 111.234 2.86973 111.923 3.20914 112.204C3.89346 112.771 4.75942 113.052 5.46346 113.556C6.94127 114.616 8.50989 115.653 10.2225 116.337C11.9434 117.025 13.7872 117.711 15.6618 118.157C16.1035 118.261 16.4823 118.457 16.9084 118.624C18.4523 119.227 20.5612 119.395 21.8812 119.836C23.3778 120.336 24.9011 120.562 26.4789 120.849C27.2168 120.984 28.2007 121.45 29.0097 121.619C30.4953 121.931 32.3768 122.333 34.0624 122.705C35.9832 123.13 37.6894 123.782 39.4938 124.155C41.9582 124.664 44.6616 125.994 47.0746 125.887C47.4231 125.872 47.6387 126.146 47.9479 126.24C48.3845 126.372 48.8817 126.269 49.311 126.376C51.464 126.907 54.1164 127.204 56.3826 127.419C57.9719 127.57 59.8685 128.334 61.6834 128.541C62.4856 128.633 63.3052 128.502 63.9937 128.616C64.4115 128.685 65.0247 129.151 65.6146 129.24C67.5368 129.532 69.2187 130.113 70.8722 130.281C71.7221 130.367 73.5191 131.302 74.1434 130.953C75.0102 131.552 76.083 131.528 77.0866 131.714C79.8532 132.224 83.1487 133.546 86.0011 134.118C86.8611 134.29 87.972 135.105 88.7003 135.049C88.8256 135.04 88.9581 134.895 89.0687 134.917C89.4824 134.999 89.7415 135.571 90.2355 135.51C90.6891 135.454 90.8285 135.596 91.478 135.772C92.3187 135.999 92.9453 136.098 93.7153 136.301C93.9185 136.354 94.086 136.56 94.2579 136.619C94.8377 136.816 95.3454 136.737 96.0353 136.828C96.6948 136.914 97.3466 137.295 97.9864 137.486C100.228 138.156 102.522 138.519 104.821 139.029C105.275 139.129 105.695 139.458 106.152 139.578C107.126 139.831 108.171 139.806 109.171 140.007C109.487 140.071 109.776 140.296 110.085 140.359C111.504 140.643 112.816 140.957 114.229 141.382C114.488 141.459 114.833 141.552 115.1 141.61C116.533 141.923 117.999 142.284 119.367 142.591C119.857 142.7 120.375 142.646 120.855 142.764C121.167 142.841 121.357 143.148 121.73 143.199C122.004 143.235 122.345 143.145 122.555 143.222C123.975 143.745 125.392 143.808 126.904 144.2C127.443 144.339 128.001 144.766 128.609 144.864C129.281 144.972 130.114 145.067 130.926 145.267C131.625 145.44 132.714 146.118 133.293 146.082C133.372 146.076 133.501 145.9 133.578 145.911C133.978 145.967 134.519 146.453 134.995 146.622C135.928 146.954 137.277 147.064 138.184 147.336C138.316 147.376 138.43 147.539 138.56 147.575C141.303 148.341 144.508 148.735 147.298 149.407C148.93 149.801 150.693 150.63 152.318 150.906C154.997 151.361 157.744 151.728 160.465 152.133C161.433 152.277 162.29 152.757 163.284 152.855C165.966 153.117 168.781 153.904 171.479 154.369C172.293 154.509 173.144 154.974 173.965 154.975C175.035 154.977 176.716 155.61 177.528 155.805C178.952 156.147 180.486 156.717 181.92 156.864C182.205 156.893 182.498 156.745 182.785 156.805C184.056 157.071 185.003 157.366 186.179 157.474C186.752 157.526 187.332 157.733 187.794 157.81C188.337 157.9 188.707 157.588 189.315 157.614C189.576 157.623 189.851 157.843 190.104 157.884C190.935 158.022 191.837 157.899 192.784 157.868C193.327 157.851 193.867 158.01 194.395 157.999C194.81 157.991 195.238 157.713 195.832 157.763C196.288 157.802 196.925 157.965 197.234 157.775C198.449 157.027 201.216 157.906 203.127 157.649C205.307 157.356 208.157 157.632 210.417 157.371C211.305 157.268 212.273 157.427 213.014 157.316C213.208 157.286 213.37 157.079 213.544 157.058C214.832 156.893 217.092 157.266 218.654 156.991C218.949 156.939 219.152 156.782 219.434 156.809C223.349 157.189 227.234 156.38 230.892 156.689C231.917 156.776 232.769 156.466 233.402 156.472C233.802 156.476 234.247 156.755 234.685 156.733C235.798 156.673 236.937 156.464 237.984 156.745C237.529 156.284 238.425 156.562 238.505 156.075C238.572 155.674 238.177 155.29 237.87 155.266C235.086 155.042 231.924 155.236 228.676 155.255C224.464 155.278 220.019 155.44 215.905 155.649C211.287 155.884 206.526 156.406 202.559 156.18C204.421 154.547 207.146 155.163 209.995 154.951C210.526 154.912 211.004 154.73 211.472 154.632C212.513 154.414 213.605 154.624 214.357 154.57C215.264 154.506 216.167 154.387 217.114 154.347C219.095 154.264 221.092 153.982 223.002 154.017C223.722 154.03 224.439 153.946 225.144 153.93C226.861 153.892 229.2 153.842 231.043 154.093C232.091 154.236 233.306 153.834 234.132 153.986C234.573 154.067 234.597 154.091 235.081 154.007C236.628 153.74 238.667 154.415 239.864 154.07C239.892 153.909 239.707 153.86 239.816 153.742C240.665 153.781 240.092 152.765 239.752 152.673C239.464 152.595 239.033 152.795 238.642 152.82C237.438 152.896 235.908 152.571 234.558 152.701C233.879 152.766 232.919 152.742 232.25 152.709C227.863 152.491 222.415 152.767 218.484 152.837C217.207 152.859 215.18 153.265 213.793 153.265C213.02 153.265 212.176 153.154 211.031 153.282C210.257 153.37 209.243 153.642 208.112 153.633C206.973 153.624 208.836 152.306 209.031 152.255C209.4 152.157 210.084 152.161 210.552 152.098C214.23 151.612 218.422 152.439 222.375 151.683C223.147 151.536 223.853 151.415 224.515 151.514C225.33 151.636 225.818 151.437 226.696 151.344C228.086 151.198 229.685 151.48 230.74 151.507C231.209 151.517 231.881 151.522 232.472 151.51C233.468 151.489 235.549 151.559 236.303 151.388C236.455 151.353 236.556 151.108 236.75 151.089C237.083 151.058 237.8 151.247 238.237 151.223C239.089 151.176 242.674 151.862 242.426 150.476C242.317 149.867 241.765 149.889 241.218 149.925C240.571 149.967 239.791 149.833 239.073 149.847C235.138 149.924 230.92 150.168 227.371 150.096C226.822 150.084 225.797 150.208 225.597 150.051C221.264 150.596 215.887 150.817 210.812 150.694C211.462 149.442 212.311 149.081 213.904 148.816C214.64 148.695 216.158 149.221 216.333 148.642C217.897 148.456 219.433 148.477 221.03 148.542C223.852 148.656 226.648 148.525 229.685 148.441C230.435 148.419 231.249 148.652 231.831 148.519C231.955 148.49 232.16 148.278 232.361 148.26C232.611 148.239 232.928 148.486 233.232 148.489C234.425 148.501 236.901 148.555 237.969 148.306C239.365 147.98 241.862 148.632 243.287 148.358C243.739 148.271 244.115 147.824 243.967 147.356ZM211.592 140.88C210.583 141.796 208.974 142.556 207.849 143.223C207.743 141.304 209.617 141.04 210.661 139.747C211.32 138.929 212.523 138.279 213.171 137.595C213.189 138.991 212.623 139.942 211.592 140.88ZM213.464 135.859C213.179 136.354 212.279 136.575 211.675 137.049C210.64 137.863 209.77 138.705 208.637 139.542C208.205 139.861 208.476 139.284 208.503 139.093C208.581 138.549 208.397 137.786 208.8 137.563C209.113 137.39 209.262 137.033 209.525 136.765C210.671 135.6 212.426 134.553 213.664 133.673C213.553 134.247 213.825 135.23 213.464 135.859ZM213.707 131.819C213.58 131.907 213.598 132.013 213.468 132.154C212.163 133.554 209.925 134.274 208.72 135.753C208.887 134.618 208.793 133.558 209.567 132.895C210.028 132.5 210.434 132.207 210.862 131.756C210.977 131.635 211.267 131.609 211.391 131.457C211.514 131.305 211.475 131.056 211.587 130.958C211.778 130.79 212.404 130.49 212.687 130.359C213.261 130.095 213.734 129.762 214.235 129.502C214.088 130.312 214.293 131.416 213.707 131.819ZM214.362 127.689C214.229 127.842 213.777 127.987 213.588 128.158C212.756 128.912 211.219 129.879 210.301 130.616C210.063 130.807 209.41 131.477 209.247 131.42C209.163 131.391 209.109 130.01 209.253 129.773C209.418 129.501 210.004 129.188 210.307 128.927C211.049 128.287 212.042 127.614 212.742 127.147C212.989 126.698 213.823 126.147 214.487 125.834C214.312 126.174 214.711 127.286 214.362 127.689ZM214.737 124.017C214.549 124.255 213.874 124.5 213.597 124.699C212.213 125.7 210.705 127.136 209.172 127.922C209.37 127.309 209.133 126.718 209.38 126.065C209.525 125.682 211.212 124.639 211.691 124.246C212.631 123.474 213.85 122.981 214.869 122.491C214.763 122.866 214.97 123.721 214.737 124.017ZM214.92 120.967C214.64 121.147 214.142 121.393 213.901 121.524C213.188 121.91 212.488 122.26 211.782 122.68C210.949 123.175 210.155 123.7 209.376 123.966C209.506 123.072 209.491 122.437 210.197 121.849C211.657 120.633 213.72 119.671 215.365 118.652C215.202 119.258 215.565 120.551 214.92 120.967ZM215.247 116.967C214.021 118.476 211.379 119.136 209.708 120.212C209.297 118.266 210.865 118.003 212.032 116.994C212.911 116.232 214.585 115.592 215.7 115.022C215.547 115.567 215.913 116.748 215.247 116.967ZM215.828 113.291C215.458 113.59 214.896 113.63 214.644 113.81C213.272 114.786 211.582 115.833 209.841 116.711C209.455 115.284 211.132 115.41 211.318 114.457C211.54 114.244 211.969 114.28 212.176 114.067C212.39 113.847 212.113 113.82 212.539 113.731C213.155 113.602 214.017 112.94 214.578 112.659C214.958 112.467 215.334 112.494 215.601 112.307C215.699 112.239 215.829 111.833 216.009 112.092C216.146 112.291 215.973 113.173 215.828 113.291ZM216.04 109.705C216.01 110.333 216.204 110.195 215.602 110.413C215.482 110.457 215.554 110.539 215.441 110.623C214.03 111.672 211.486 112.574 210.512 113.404C210.43 113.474 210.375 113.89 210.107 113.741C209.852 113.601 210.261 112.385 210.116 112.217C210.843 112.396 211.277 111.834 211.787 111.317C213.049 110.042 214.652 108.744 216.164 107.767C216.418 108.079 216.064 109.205 216.04 109.705ZM216.41 105.786C216.285 106.008 215.778 106.14 215.516 106.381C215.182 106.689 215.172 107.124 214.795 107.343C214.504 107.511 214.046 107.674 213.732 107.777C212.738 108.104 211.064 109.978 210.372 110.689C210.329 110.733 210.213 111.075 210.05 111.026C209.92 110.987 209.847 109.217 209.965 109.01C210.152 108.684 211.035 108.494 211.47 108.031C211.982 107.484 212.495 107.205 212.847 106.891C212.981 106.771 213.082 106.661 212.921 106.518C214.052 105.746 215.291 105.077 216.588 104.465C216.414 104.76 216.593 105.46 216.41 105.786ZM201.151 99.6876C201.766 99.302 203.071 98.2554 203.884 98.3539C205.311 98.5266 206.765 99.3386 208.12 99.787C209.627 100.285 211.191 100.908 212.526 101.463C213.145 101.721 213.49 102.213 214.151 102.293C214.383 102.322 214.684 102.23 214.809 102.238C214.97 102.25 215.997 102.802 216.018 102.871C216.047 102.968 215.297 103.553 215.372 103.503C214.816 103.878 214.215 104.045 213.781 104.319C212.654 105.031 211.478 106.156 210.292 106.945C210.034 107.116 209.654 107.631 209.274 107.543C209.059 107.494 208.733 107.055 208.314 106.987C204.144 106.305 200.026 104.239 195.752 103.631C197.343 102.347 199.356 100.812 201.151 99.6876ZM159.066 84.4436C159.229 84.4175 160.484 84.6429 160.472 84.6195C160.547 84.7546 159.78 85.3244 159.663 85.4197C159.371 85.6546 159.005 85.8346 158.687 86.016C157.751 86.5509 156.678 87.5164 155.72 88.0138C155.483 88.137 154.789 88.1888 154.697 88.3651C154.598 88.5548 154.881 89.2445 155.005 89.3054C155.482 89.539 155.885 88.994 156.152 88.9509C156.931 88.8286 157.755 87.9726 158.473 87.5851C159.259 87.1601 159.694 86.9636 160.343 86.3517C160.734 85.9821 161.301 85.8882 161.647 85.6244C161.858 85.4623 162.146 84.7743 162.411 84.7432C162.765 84.702 163.249 85.2502 163.702 85.3336C162.925 85.6771 162.243 86.2139 161.465 86.7387C160.77 87.2077 159.072 87.5851 159.232 88.3922C159.284 88.6486 159.731 89.0531 160.07 89.0325C160.878 88.9862 161.778 87.7633 162.466 87.3355C163.342 86.7919 164.095 86.3929 164.707 86.0939C164.899 86.0009 165.172 85.7229 165.4 85.7091C165.608 85.6968 166.672 86.0439 166.689 86.2166C166.703 86.3595 165.904 86.8738 165.797 86.9357C165.277 87.2371 164.75 87.5833 164.333 87.8723C164.042 88.0743 163.8 87.9886 163.764 88.2552C163.595 89.5038 165.392 88.7169 165.789 88.459C166.332 88.105 166.871 87.7999 167.374 87.4377C167.639 87.2471 167.756 86.8116 168.225 86.719C168.451 86.6746 169.266 86.9471 169.304 87.0662C169.431 87.4583 167.902 87.8828 168.018 88.6175C168.066 88.9198 168.512 89.223 168.852 89.0934C169.492 88.8502 170.136 87.7203 170.883 87.6516C171.032 87.6369 171.722 87.9575 172.088 88.078C172.802 88.3143 173.909 88.798 174.537 88.8905C175.335 89.0073 175.859 89.1918 176.611 89.5056C177.659 89.9434 178.915 90.1972 179.851 90.6305C180.154 90.7706 180.343 90.7482 180.638 90.7789C181.108 90.826 181.712 91.0963 181.106 91.5094C179.62 92.523 177.926 93.5365 176.391 94.6559C175.954 94.9742 175.258 95.6407 174.847 95.6764C174.523 95.7052 173.203 95.2289 173.104 95.1368C172.525 94.6046 171.073 94.4668 170.157 94.2121C169.14 93.9286 168.17 93.3007 167.251 93.2439C165.879 93.161 163.078 91.8941 161.447 91.7205C161.388 91.7146 161.257 91.786 161.201 91.7672C158.136 90.7724 154.907 90.1321 151.788 89.2088C152.509 88.5163 153.462 88.2973 154.188 87.6763C154.662 87.2705 155.581 87.0351 156.018 86.5253C156.4 86.0806 157.394 85.4508 158.007 85.0427C158.233 84.8916 158.907 84.4693 159.066 84.4436ZM150.282 45.563C150.622 45.3624 151.419 44.7468 151.251 44.5962C152.404 44.3401 153.221 43.4223 153.93 42.6455C154.413 42.1165 155.627 41.9969 156.292 41.2779C156.667 40.8716 156.997 40.3701 157.672 40.2606C157.549 40.6005 157.855 41.7762 157.628 42.073C157.507 42.231 157.077 42.4201 156.897 42.5823C156.183 43.2272 155.083 43.8409 154.259 44.5325C153.117 45.4897 151.964 46.468 151.097 47.0694C151.268 46.9508 150.072 47.6502 150.038 47.6268C149.81 47.4738 149.84 46.6164 149.845 46.3549C149.855 45.9074 149.947 45.7613 150.282 45.563ZM149.913 41.784C149.965 41.6887 150.437 41.3044 150.56 41.1936C151.259 40.5675 152.399 39.9959 153.078 39.4115C153.225 39.2851 153.589 38.8092 153.803 38.6141C154.537 37.9445 156.226 37.3358 157.101 36.6913C157.258 36.5759 157.396 36.2832 157.505 36.2713C157.686 36.2512 157.941 37.8121 157.755 38.3241C157.543 38.9031 156.11 39.5626 155.563 39.9762C153.988 41.1675 152.14 42.8149 150.243 43.753C149.798 43.9728 149.721 42.1375 149.913 41.784ZM157.788 57.3422C157.325 57.2693 157.228 57.513 156.973 57.7713C156.425 58.3246 155.292 59.0501 154.622 59.6734C154.41 59.8709 153.783 60.3939 153.733 60.5157C153.617 60.7974 153.725 60.6591 153.328 60.8125C152.367 61.1826 151.679 62.274 150.479 62.5608C150.635 62.1348 150.329 61.4427 150.444 60.9563C150.63 60.1809 152.922 59.0341 153.933 58.2884C154.972 57.5235 155.487 56.9959 156.61 56.2145C156.756 56.1124 157.527 55.3173 157.707 55.4501C158.121 55.757 157.553 56.9973 157.788 57.3422ZM157.663 45.6537C157.585 45.8671 157.128 46.0238 156.933 46.2042C156.031 47.0406 154.924 47.6767 153.685 48.5786C152.771 49.245 152.01 50.1665 150.971 50.8182C150.597 51.0523 150.01 51.8108 149.979 50.6744C149.969 50.3387 149.949 49.4804 149.993 49.398C150.14 49.1131 151.126 48.6972 151.537 48.3775C153.454 46.8858 155.631 45.0075 157.625 43.8432C157.583 44.4194 157.883 45.051 157.663 45.6537ZM150.354 68.3267C150.73 68.4604 151.422 67.7862 151.859 67.3891C152.891 66.4516 154.028 65.5548 155.143 64.767C155.417 64.5733 156.196 64.3117 156.283 64.0841C156.379 63.8331 156.233 63.9696 156.565 63.7901C156.8 63.6636 157.554 62.9189 157.786 63.0641C157.981 63.1869 157.907 64.3694 157.858 64.4624C157.475 65.1792 155.623 65.9679 154.855 66.7493C153.773 67.8508 152.505 68.2364 151.239 69.2138C151.072 69.3425 150.556 69.9265 150.471 69.9297C150.195 69.9407 150.461 68.7686 150.354 68.3267ZM157.789 61.2531C157.672 61.4221 157.128 61.6145 156.852 61.8082C155.5 62.7591 153.915 64.1936 152.718 65.1068C152.388 65.3583 151.755 65.4462 151.495 65.7503C151.468 65.7819 150.636 66.698 150.44 66.5551C150.288 66.4433 150.301 65.1114 150.405 64.909C150.45 64.822 150.711 64.6268 150.848 64.4056C151.056 64.0676 151.708 63.7585 152.065 63.474C153.725 62.1522 154.953 61.3356 156.567 60.0028C156.838 59.7788 157.383 59.0931 157.578 59.0757C157.894 59.0473 157.878 61.1244 157.789 61.2531ZM156.246 54.617C155.234 55.2884 154.324 56.5759 153.251 57.2327C152.31 57.8089 151.285 58.2261 150.399 58.7753C150.601 58.4785 150.138 57.4127 150.362 57.0472C150.489 56.8388 150.984 56.6863 151.092 56.4967C151.562 55.6663 152.849 55.4007 153.526 54.6335C153.696 54.4397 153.826 54.3862 154.094 54.2098C155.166 53.504 155.734 52.7717 156.562 52.0169C156.752 51.8428 157.702 51.1228 157.79 51.6202C158.138 53.5856 157.309 53.9121 156.246 54.617ZM157.744 49.4804C157.579 49.7992 155.831 50.7509 155.434 51.3408C154.591 52.5949 152.291 53.9272 150.89 54.7718C149.848 55.3997 150.35 53.6089 150.107 52.8532C151.153 52.9352 151.909 51.8337 152.67 51.2346C153.403 50.6589 154.341 49.9801 154.571 49.5065C155.632 48.8071 156.721 48.3207 157.703 47.5054C157.6 47.9964 158.012 48.9647 157.744 49.4804ZM150.626 71.4086C150.762 71.3912 150.848 71.4906 150.958 71.4837C151.591 71.4439 151.941 70.4986 152.534 70.0506C153.797 69.0984 155.124 68.2873 156.518 67.3726C156.688 67.2609 156.989 66.7039 157.49 66.5697C158.041 66.4223 157.517 67.7551 157.686 68.0065C156.431 68.274 155.753 69.3412 154.885 70.0831C153.524 71.2465 151.848 71.9871 150.373 73.1014C150.39 72.7538 150.193 71.4631 150.626 71.4086ZM150.412 74.9532C150.498 74.7759 150.715 74.8616 150.862 74.7379C152.821 73.074 155.302 71.1476 157.556 69.697C157.63 70.6566 157.676 71.4343 156.945 71.9743C156.215 72.5138 155.179 73.1798 154.263 73.7601C153.399 74.3065 152.782 74.813 152.025 75.1662C151.681 75.3265 150.727 76.2347 150.479 76.1046C150.387 76.057 150.391 74.9985 150.412 74.9532ZM151.089 77.6559C153.041 76.3579 155.183 74.4581 157.385 73.2823C157.546 73.1967 157.5 74.9404 157.425 75.1749C156.765 74.862 156.369 75.4373 155.953 75.7002C154.225 76.7893 152.907 78.5124 150.754 79.351C150.607 78.7831 150.295 77.5267 151.257 77.8171C151.353 77.7681 151.148 77.6816 151.089 77.6559ZM152.053 80.3527C152.489 80.131 152.705 79.6574 153.104 79.3831C153.757 78.9338 154.847 78.5948 155.258 77.8973C155.602 77.3119 156.655 76.8425 157.33 76.4944C157.198 76.8164 157.649 77.8487 157.325 78.2238C157.306 78.2458 156.897 78.2614 156.873 78.2747C156.299 78.577 155.628 79.3153 154.887 79.8805C153.512 80.9316 152.046 81.7363 150.745 82.809C150.208 81.4322 151.08 80.8473 152.053 80.3527ZM150.746 84.7853C150.763 84.4656 151.752 84.1455 152.205 83.643C152.552 83.2574 152.736 82.8727 153.009 82.6372C154.249 81.5664 156.118 80.9147 157.028 79.7522C157.041 79.7367 157.21 79.7463 157.234 79.7486C157.412 79.766 157.465 80.5638 157.378 80.6925C157.266 80.8597 157.045 80.7608 156.887 80.867C156.684 81.004 156.662 81.4134 156.408 81.6186C155.885 82.04 155.01 82.0835 154.573 82.563C153.874 83.3298 152.272 83.9023 151.32 84.6493C151.247 84.7075 150.714 85.3656 150.746 84.7853ZM151.97 86.1584C152.373 85.8534 152.51 85.5213 152.817 85.2763C153.26 84.9223 153.965 84.7995 154.323 84.38C154.782 83.8441 156.088 83.1543 157.009 82.7179C157.099 82.6739 157.215 82.4343 157.291 82.4229C157.537 82.3863 158.253 83.0192 158.255 83.1438C158.263 83.5812 156.675 84.2325 156.224 84.5453C154.578 85.6844 153.013 87.0259 150.976 87.8265C150.598 86.698 151.21 86.7364 151.97 86.1584ZM157.712 34.4141C157.585 34.6239 157.08 34.6784 156.938 34.8011C156.83 34.8927 156.67 35.2055 156.414 35.3887C155.991 35.691 155.5 36.0203 155.032 36.3235C153.282 37.4576 151.755 38.898 149.872 39.8498C149.937 39.2832 149.957 38.4327 149.911 37.7906C150.094 37.8309 150.227 37.7026 150.322 37.7819C151.231 36.5319 153.103 35.6388 154.419 34.6491C155.359 33.9419 156.035 33.411 157.097 32.6159C157.827 32.07 157.76 32.5871 157.774 33.4252C157.777 33.6543 157.84 34.2052 157.712 34.4141ZM157.667 30.3396C157.533 30.5737 157.109 30.8228 156.816 31.0166C155.574 31.8355 154.301 33.1743 152.964 34.0623C152.452 34.4017 151.73 34.8126 151.133 35.2124C150.87 35.3897 150.158 35.8898 150.076 35.8523C150.081 35.855 149.887 34.7173 149.886 34.704C149.868 33.7197 152.084 32.1346 152.99 31.4269C153.59 30.9593 154.317 30.6593 154.781 30.3186C155.239 29.9819 155.834 29.5587 156.449 29.2954C156.851 29.1227 157.389 28.8126 157.552 28.819C157.788 28.8282 157.849 30.0222 157.667 30.3396ZM157.003 20.4328C156.355 20.8913 155.697 21.3562 154.928 21.7528C153.854 22.3066 153.423 23.0632 152.656 23.4475C152.465 23.5436 152.304 23.7795 152.169 23.8285C151.714 23.9934 150.338 25.4526 150.016 25.3152C149.955 25.2891 149.888 23.9545 149.904 23.9178C149.986 23.7305 150.09 23.8743 150.145 23.6247C150.238 23.2006 152.628 21.5023 153.265 21.0882C154.821 20.0774 156.151 19.3318 157.492 18.2403C157.453 18.9131 157.831 19.8461 157.003 20.4328ZM150.013 27.1267C150.017 27.1207 150.362 27.0488 150.382 27.0364C150.926 26.7048 151.561 25.8543 152.122 25.4765C153.535 24.5242 154.533 23.649 156.145 22.7563C156.378 22.6276 157.194 21.7258 157.529 21.9035C157.621 21.9525 157.639 23.4053 157.563 23.5084C157.507 23.5826 156.488 24.1505 156.383 24.233C155.544 24.8934 154.401 25.2891 153.744 26.1827C152.308 26.479 151.388 27.9552 149.961 28.5273C150.097 28.1902 149.761 27.5027 150.013 27.1267ZM157.716 26.8395C157.478 27.4519 155.885 27.9603 155.44 28.3697C154.155 29.5528 151.929 30.6011 150.768 31.5978C150.68 31.6724 150.203 32.0114 150.075 31.9417C150.035 31.9202 149.99 30.4019 150 30.379C150.074 30.205 150.444 30.1088 150.61 29.9957C151.514 29.3769 152.335 28.6835 153.121 27.8838C153.761 27.2343 155.015 26.8629 155.769 26.387C156.131 26.158 157.012 25.2566 157.52 25.362C157.784 25.4165 157.723 26.8212 157.716 26.8395ZM157.496 16.4706C155.353 18.1139 152.883 19.6615 151.047 21.4647C151.04 21.5119 151.006 21.4885 151.006 21.4656C150.675 21.5426 150.386 21.9979 149.989 22.1458C149.624 20.769 150.531 20.2267 151.296 19.607C151.839 19.1678 152.333 18.4258 152.789 18.0933C153.838 17.3303 155.323 16.9208 156.29 16.002C156.562 15.7428 156.936 15.3324 157.386 15.1964C157.434 15.7487 157.435 15.997 157.496 16.4706ZM72.0789 2.9693C73.8517 2.61113 74.9135 1.28107 76.9949 1.50641C81.5562 1.99969 86.6079 2.6006 91.0111 3.43189C95.1904 4.22104 99.5504 4.04104 103.779 4.80776C105.341 5.09081 106.914 5.63218 108.454 5.61386C109.433 5.60241 110.502 6.06866 111.518 6.24912C112.156 6.36179 112.811 6.33294 113.458 6.37232C114.76 6.4511 116.136 6.93293 117.554 7.06759C120.044 7.30346 122.06 7.94651 124.297 8.15949C133.044 8.99215 141.153 10.8421 149.567 11.9459C150.288 12.0402 151.142 12.4011 151.724 12.5995C152.918 13.0071 154.688 13.2878 155.992 13.6616C156.884 13.9172 156.129 14.2854 155.725 14.6555C154.081 16.1605 151.474 17.4077 149.673 18.9003C149.469 19.0698 149.192 19.4976 149.027 19.5319C148.845 19.569 147.963 19.389 147.58 19.3153C146.327 19.0748 144.764 18.7217 143.355 18.4171C140.677 17.8373 138.98 17.8304 136.613 17.3664C135.904 17.2267 135.598 17.3371 135.209 17.1901C134.898 17.0738 134.477 17.17 134.094 17.1315C132.778 17.0005 131.184 16.6139 129.916 16.438C123.723 15.5807 117.477 14.1443 111.299 13.3753C108.572 13.0359 106.147 12.3572 103.192 12.1066C101.407 11.955 99.455 11.225 97.6461 11.0715C93.3259 10.7051 88.2568 9.26009 83.7844 8.64864C81.3471 8.31567 78.6534 8.36559 76.1803 7.78071C72.9036 7.00667 69.5439 7.09919 66.4668 6.58759C68.0271 5.05691 70.9396 4.67722 72.0789 2.9693ZM48.9748 60.2281C49.1684 60.1557 49.5857 60.2762 49.4229 59.9716C50.5072 59.9579 50.9558 58.9896 52.0859 59.1738C53.4096 59.3895 54.8181 60.0357 56.3528 60.1539C57.777 60.2634 59.7414 60.9797 61.3247 61.3246C62.631 61.609 63.6932 61.6195 64.7211 62.0753C64.889 62.1504 66.1205 62.5209 66.1324 62.5397C66.2017 62.6478 66.1897 63.458 66.1957 63.5675C66.2714 64.9841 66.2058 66.7433 66.3351 68.1755C66.3379 68.2062 66.6227 68.7178 66.4324 68.8731C66.3003 68.9807 64.6147 68.3876 64.4835 68.3381C63.5465 67.9859 62.1448 67.7157 61.3316 67.4578C58.0329 66.414 53.8183 65.192 50.016 64.5696C47.9139 64.2252 45.605 63.769 43.7176 63.0563C45.588 62.3331 47.114 60.9238 48.9748 60.2281ZM92.166 104.183C90.9359 103.152 89.9759 101.681 88.4655 100.762C88.2371 100.623 88.0908 100.315 87.8752 100.157C85.1544 98.1652 82.5818 96.0254 80.1954 93.7747C79.7542 93.3584 79.1345 93.0607 78.7726 92.7753C77.4081 91.6999 76.0766 90.4111 74.8204 89.1543C73.8292 88.1632 72.6321 87.4161 71.5483 86.5074C69.6622 84.9255 67.8083 83.2931 65.8402 81.7295C65.3458 81.3365 64.7133 80.6307 64.1987 80.1585C62.5796 78.6718 60.5262 77.6958 58.9603 76.1532C57.4564 74.6706 55.6203 73.7724 54.1003 72.4694C53.7128 72.1369 53.4357 71.6541 53.0445 71.2978C51.5034 69.8926 49.4436 69.0389 48.1024 67.6566C47.7323 67.2746 47.1475 66.7699 46.6751 66.4516C46.4783 66.3192 46.1623 66.3453 45.9697 66.2198C45.1941 65.7142 44.5556 65.0707 43.8314 64.5362C47.1892 65.8122 51.1466 66.0371 54.5585 66.9018C57.8201 67.729 61.3265 68.8355 64.5537 69.6947C65.038 69.8239 66.3558 70.6227 66.9607 70.4674C67.3043 70.379 67.4254 69.5935 67.7203 69.3393C67.8294 69.2454 67.9482 69.4213 68.0069 69.2509C68.1331 68.8854 67.6047 68.1512 67.5212 67.7386C67.468 67.4752 67.6643 67.352 67.674 67.1587C67.7363 65.879 67.4405 64.7913 67.3488 63.502C67.2318 61.8609 67.3249 60.0541 67.3231 58.4391C67.3222 57.5093 66.8575 56.5365 66.936 55.73C66.9447 55.6365 67.0919 55.5179 67.0947 55.4387C67.1011 55.2092 66.8332 54.8579 66.8314 54.7031C66.8291 54.4704 67.0392 53.6268 66.9612 53.0538C66.7328 51.3711 66.7942 49.4868 66.558 47.6699C66.3929 46.3948 66.5236 44.7304 66.5493 43.3884C66.5571 42.9707 66.3507 42.5374 66.398 42.0743C66.4608 41.4533 66.5837 40.8537 66.5635 40.1773C66.5333 39.1669 66.3603 38.1556 66.6277 37.3765C66.6722 37.246 66.6516 36.7614 66.6521 36.5938C66.6539 35.8399 66.6667 34.8726 66.6846 34.2465C66.7676 31.3505 66.7296 28.6496 66.6741 26.0137C66.6406 24.4097 66.7369 22.3459 66.6025 20.7044C66.5672 20.2716 66.5383 20.2148 66.6255 19.8397C66.7924 19.1211 66.4548 18.4203 66.4195 17.9092C66.3214 16.5035 66.1613 14.5446 66.2241 12.6031C66.2544 11.6605 66.0526 10.7431 66.0462 10.0543C66.0393 9.35902 65.7306 8.18147 65.9228 8.12193C66.1764 8.04361 66.6709 8.10682 67.1176 8.09674C69.9966 8.03308 73.3834 8.74757 75.7945 9.02421C79.0575 9.39841 82.4483 9.7923 85.881 10.3332C89.6232 10.9231 93.342 11.6019 96.8838 12.0755C98.0846 12.2362 99.6885 12.7506 100.902 12.9787C102.468 13.2732 104.101 13.3401 105.697 13.5764C107.302 13.8141 108.891 14.333 110.5 14.5446C112.237 14.7736 113.914 15.0233 115.588 15.3837C119.301 16.1829 123.073 16.5177 126.756 17.164C128.816 17.5254 131.209 17.9948 133.378 18.3406C137.725 19.0341 141.727 19.2452 145.541 20.3879C146.036 20.5363 146.96 20.7044 147.363 20.7608C147.739 20.8134 148.22 20.7063 148.356 20.9046C148.576 21.227 148.553 22.9546 148.568 23.164C148.672 24.5907 148.731 26.0801 148.537 27.5283C148.315 29.2015 148.646 31.0276 148.689 32.7121C148.839 38.4826 148.365 44.0159 148.73 50.1244C148.894 52.8637 149.102 55.8083 149.156 58.5133C149.316 66.5171 148.924 76.7605 149.308 85.0212C149.366 86.2638 149.072 87.6603 149.429 88.765C149.477 88.9134 149.742 89.0906 149.769 89.2519C149.813 89.5102 149.47 89.9906 149.831 90.2384C150.028 90.3744 150.45 90.2874 150.616 90.3048C152.686 90.5141 154.884 91.5364 156.918 91.9821C157.247 92.0535 157.543 91.9317 157.783 91.9633C158.153 92.0123 158.571 92.3494 158.948 92.4327C159.832 92.6278 160.709 92.6054 161.555 92.9535C165.193 94.4471 169.844 94.95 173.387 96.8187C172.996 96.6826 172.439 96.908 172.406 97.2107C171.423 97.2148 169.861 98.1286 168.56 98.5683C166.848 99.1463 165.187 99.7298 163.65 100.319C163.38 100.422 163.092 100.786 162.877 100.829C162.502 100.905 162.026 100.838 161.358 101.108C158.031 102.457 154.729 103.635 151.334 104.656C151.231 104.686 151.115 104.644 151.003 104.663C149.269 104.951 147.253 105.927 145.682 106.423C144.438 106.814 143.446 107.042 141.955 107.531C140.724 107.934 139.108 108.542 138.023 108.808C137.632 108.904 137.202 108.865 136.875 109.038C136.27 109.359 136.047 109.223 135.234 109.444C132.094 110.298 127.985 111.648 124.745 112.465C124.216 112.599 123.622 112.638 123.186 112.828C120.776 113.88 117.235 114.599 114.257 115.57C113.251 115.898 111.6 116.212 110.365 116.681C110.012 116.815 109.829 116.963 109.424 117.03C108.367 117.207 107.551 117.896 106.645 118.201C106.268 118.328 105.488 118.444 105.455 118.432C105.342 118.395 105.363 118.168 105.239 117.984C104.584 117.011 103.607 116.308 102.789 115.195C99.6834 110.971 96.193 107.556 92.166 104.183ZM100.423 114.423C99.2835 113.978 98.013 113.804 96.6911 113.432C96.6645 113.423 95.7284 113.18 95.7761 113.039C95.8032 112.959 97.4979 112.889 97.5865 112.877C98.019 112.818 98.3671 113.017 98.7437 113.017C98.8487 113.017 98.945 112.865 99.0294 112.888C99.6426 113.051 100.049 113.967 100.423 114.423ZM92.4155 110.106C92.8829 110.152 93.4452 110.197 93.9841 110.195C94.5877 110.194 96.3187 110.02 96.5398 110.183C96.904 110.448 96.9746 111.312 97.392 111.481C95.9 111.716 94.5107 111.489 93.065 111.574C92.6935 111.595 92.3728 111.884 92.0009 111.925C91.5179 111.98 90.6749 111.572 90.0942 111.431C88.0757 110.941 86.2603 110.797 84.3357 110.112C87.1221 109.947 89.6291 109.823 92.4155 110.106ZM24.2603 97.9674C24.3011 97.9513 25.4143 97.7241 25.4588 98.1061C25.4744 98.2412 24.4218 98.9012 24.2823 98.9951C23.6842 99.4014 22.782 99.8658 21.9202 100.363C21.3414 100.697 20.1796 101.56 20.846 102.197C21.3125 102.643 22.2385 101.347 22.5963 101.13C23.2155 100.757 24.0062 100.551 24.4309 100.187C24.9359 99.7527 25.9904 99.558 26.6765 99.1509C26.9059 99.0148 27.0783 98.5669 27.1989 98.522C27.6434 98.3576 28.0947 99.0615 28.4089 99.1967C29.1661 99.5196 28.2933 99.5443 28.2236 100.189C27.9181 100.039 27.5182 100.518 27.2035 100.663C26.3362 101.062 24.5525 101.154 24.5107 101.996C24.4892 102.428 24.8772 102.977 25.5987 102.755C25.9546 102.646 26.3761 102.33 26.7807 102.112C27.3067 101.83 27.8649 101.611 28.3727 101.378C28.8877 101.144 29.185 100.518 29.5037 100.284C30.2234 99.7545 31.1797 100.174 31.7764 100.525C31.3631 101.118 29.0015 101.265 29.8 102.583C30.1816 103.213 30.943 102.515 31.3196 102.304C31.8259 102.021 32.4859 101.655 33.0327 101.445C33.328 101.331 33.7477 101.115 33.6376 100.814C35.1677 101.647 37.079 101.21 38.7279 101.735C39.1003 101.854 39.4213 102.267 39.9782 102.367C41.2711 102.602 42.5774 102.807 43.7461 103.152C44.673 103.425 45.4793 103.852 46.2389 104.046C46.8929 104.213 47.885 104.159 48.6368 104.365C50.0398 104.751 51.4369 105.136 52.5299 105.23C53.4435 105.308 54.581 106.007 55.6818 106.109C56.0845 106.147 56.29 106.152 56.5895 106.131C56.9894 106.103 57.7802 106.892 58.5452 106.996C59.336 107.102 60.0473 107.025 60.7757 107.195C61.849 107.447 63.0805 107.984 64.095 108.195C64.5762 108.296 65.277 108.075 65.7834 108.118C66.7502 108.201 67.8588 108.73 68.7642 108.714C69.2903 108.705 70.1594 108.716 70.6222 108.839C70.9442 108.925 71.2295 109.219 71.5795 109.272C72.2418 109.37 72.9362 109.262 73.5613 109.436C74.3273 109.647 75.0873 110.007 75.8445 110.169C76.993 110.414 77.6095 110.292 78.7382 110.519C80.0018 110.774 81.2535 111.101 82.4254 111.388C82.6699 111.448 82.9542 111.399 83.2102 111.454C83.9243 111.604 84.604 112.074 85.1214 112.154C85.2494 112.174 85.4893 112.042 85.6553 112.06C86.3529 112.134 86.8717 112.517 87.1868 112.357C87.3106 112.294 88.4871 112.447 88.7563 112.488C89.7456 112.637 90.857 113.506 92.199 113.486C92.9861 113.474 93.5062 114.12 93.9447 114.148C94.0768 114.157 94.2419 114.002 94.313 114.017C94.7694 114.11 95.3633 114.805 95.7715 114.768C95.8633 114.76 95.716 114.665 95.7674 114.562C96.6141 114.395 97.4828 115.291 98.179 115.541C98.596 115.689 99.1431 115.755 99.5055 115.882C99.7532 115.97 100.798 116.016 100.833 116.266C100.862 116.478 100.032 116.706 99.8545 116.781C99.4138 116.967 98.1575 117.519 98.1442 117.764C98.1414 117.811 98.5767 118.302 98.6918 118.329C99.4894 118.514 101.128 116.963 102.124 116.897C102.396 116.88 103.321 118.016 103.268 118.355C103.245 118.507 102.285 118.929 101.964 119.041C101.172 119.321 98.6781 119.946 99.5738 121.027C100.011 121.555 101.48 120.566 102.113 120.233C102.747 119.898 103.491 119.305 104.032 119.368C104.509 119.424 104.543 120.261 105.16 120.085C105.296 120.047 105.245 119.879 105.32 119.835C105.54 119.707 105.407 119.935 105.694 119.95C106.054 119.97 106.715 119.642 107.085 119.468C107.733 119.163 108.327 118.613 109.335 118.638C108.217 119.597 105.72 120.15 104.403 121.296C104.173 121.495 104.121 122.087 104.384 122.366C105.055 123.074 106.7 121.424 106.998 121.199C107.855 120.551 109.219 119.958 110.301 119.482C110.653 119.327 111.331 119.013 111.734 119.04C111.967 119.056 113.006 119.415 113.021 119.465C113.119 119.785 110.838 120.686 110.575 120.753C110.129 120.866 108.404 121.752 108.294 122.035C108.2 122.277 108.803 122.996 108.974 123.01C109.26 123.033 109.752 122.389 109.867 122.331C109.965 122.282 110.124 122.347 110.237 122.324C111.01 122.166 112.11 121.32 112.724 120.995C113.888 120.38 114.961 119.482 116.253 120.262C115.505 121.021 113.126 121.354 112.628 122.314C112.326 122.897 112.763 123.679 113.436 123.491C113.954 123.348 114.565 122.606 115.06 122.304C115.325 122.143 115.758 122.177 116.043 121.954C117.108 121.115 118.551 120.142 120.227 121C119.673 121.244 119.088 121.76 118.518 122.066C118.145 122.266 117.532 122.202 117.378 122.708C116.856 124.411 119.067 123.225 119.65 122.948C120.343 122.618 121.051 122.267 121.527 122.043C121.713 121.956 122.092 121.562 122.3 121.533C122.937 121.443 124.514 122.221 125.286 122.375C126.767 122.671 128.181 123.119 129.469 123.316C131.806 123.673 134.125 124.659 136.684 125.262C137.212 125.385 137.808 125.508 138.342 125.68C139.725 126.123 140.951 126.114 142.111 126.545C142.726 126.774 143.41 127.237 144.191 127.367C145.194 127.533 146.222 127.668 147.21 127.838C148.241 128.015 149.023 128.502 150.156 128.722C151.847 129.05 153.638 129.392 155.331 129.765C157.657 130.278 160.174 130.684 162.125 131.35C163.309 131.754 164.978 131.989 166.473 132.246C167.187 132.368 167.866 132.667 168.504 132.778C169.061 132.876 169.931 133.226 170.455 133.396C170.794 133.505 171.358 133.404 171.819 133.573C172.368 133.773 172.264 133.762 172.689 133.76C173.387 133.757 174.314 134.235 174.888 134.454C176.212 134.96 177.859 134.795 179.107 135.106C179.475 135.197 179.494 135.357 179.812 135.296C180.678 135.133 182.205 136.16 183.133 136.379C183.576 136.483 184.213 136.31 184.411 136.352C184.599 136.391 184.818 136.674 185.08 136.79C185.543 136.997 186.252 136.98 186.736 137.167C187.886 137.611 188.5 137.793 189.557 137.972C188.744 139.638 187.39 140.345 185.905 140.725C185.427 140.848 184.794 141.226 183.977 141.137C182.823 141.009 181.491 140.631 180.333 140.39C179.267 140.169 178.128 139.981 176.981 139.762C175.722 139.522 174.384 139.174 173.293 138.893C171.576 138.451 169.725 138.145 167.911 137.813C166.021 137.469 164.412 136.604 162.524 136.528C161.531 136.489 159.991 136 158.838 135.701C157.439 135.337 155.958 135.27 154.453 134.971C153.945 134.869 153.396 134.455 152.749 134.348C149.229 133.764 144.949 132.686 141.115 132.002C140.624 131.914 140.144 131.647 139.704 131.579C139.374 131.526 139.033 131.662 138.715 131.599C135.44 130.95 132.345 129.86 129.186 129.373C129.08 129.356 128.96 129.404 128.856 129.381C126.719 128.896 124.476 128.383 122.433 127.828C119.052 126.91 114.183 125.825 110.414 124.832C110.104 124.75 109.882 124.536 109.664 124.435C108.23 123.776 106.296 123.704 104.819 123.427C104.278 123.325 103.36 122.809 102.741 122.647C102.59 122.608 102.311 122.704 102.206 122.659C102.077 122.604 102.069 122.448 101.953 122.417C101.542 122.309 101.283 122.362 100.959 122.191C100.224 121.805 98.5451 121.555 97.5603 121.317C97.1434 121.216 96.7232 121.189 96.36 121.095C94.8326 120.701 92.8522 120.082 90.7198 119.527C89.4732 119.203 88.4724 119.057 87.2822 118.778C86.7286 118.647 86.0176 118.202 85.4939 118.032C84.6857 117.772 83.5574 117.725 82.3066 117.442C78.23 116.519 73.975 115.479 69.8705 114.206C67.1236 113.356 64.2854 112.706 61.4573 112.121C60.8454 111.994 60.0409 111.539 59.1754 111.429C58.8438 111.386 58.6163 111.334 58.348 111.281C53.7215 110.382 48.4111 109.109 43.4048 108.428C42.4765 108.302 41.4684 108.115 40.7161 107.992C35.9319 107.205 30.7306 105.471 26.2495 104.264C24.8859 103.897 23.199 103.67 21.6904 103.126C20.8969 102.84 18.5321 101.929 18.4867 101.753C18.4105 101.455 19.2127 100.976 19.4568 100.827C19.8145 100.607 20.3346 100.371 20.8827 100.055C21.9152 99.4614 22.8242 98.6686 23.6521 98.4327C23.9984 98.3333 24.2277 97.9788 24.2603 97.9674ZM23.5764 96.8287C22.4009 97.3367 21.4886 98.4029 20.3245 98.997C19.7728 99.2786 19.0164 99.4614 18.4046 99.82C18.1303 99.9808 17.4033 100.723 17.1868 100.711C16.8717 100.692 16.0356 99.8209 16.2888 99.2063C16.3346 99.0964 17.9042 98.0809 18.2408 97.9298C19.2701 97.4663 20.7419 96.9529 21.9165 96.3286C22.1326 96.2141 22.5032 95.8857 22.6495 95.9017C23.049 95.9448 23.1939 96.8045 23.5764 96.8287ZM16.4447 85.2067C16.6199 84.8971 17.4212 84.838 17.7088 84.5627C18.5798 83.7278 20.5286 83.1113 21.4909 82.1357C21.728 81.8948 22.228 81.4789 22.6701 81.3699C22.5614 82.4325 22.6169 83.5148 21.7803 84.1052C21.2221 84.4981 20.4452 84.6562 19.7796 85.0125C18.522 85.6853 17.4579 86.7378 16.364 87.2256C16.6672 86.6783 16.1906 85.6555 16.4447 85.2067ZM18.3917 87.5943C19.1031 86.9251 21.0359 85.5905 21.7689 85.5053C22.2156 85.4536 21.9312 85.9849 21.9931 86.365C22.2569 87.9754 20.22 89.0297 18.9697 89.5578C18.5009 89.7552 17.346 90.0254 16.7594 90.3048C16.8373 90.2668 16.3429 90.5915 16.2691 90.5201C16.0714 90.3314 16.1654 89.1873 16.2383 89.081C16.5112 88.6821 17.9358 88.0235 18.3917 87.5943ZM19.4471 90.7001C19.8856 90.3671 20.3346 90.0845 20.5438 89.9361C20.7222 89.8097 21.3721 89.4424 21.5258 89.5853C21.723 89.7699 21.5198 91.5327 21.4854 91.5625C21.4391 91.6033 21.2336 91.5428 21.1148 91.5703C20.5369 91.7063 19.5916 92.5518 19.0375 92.7671C17.9785 93.1798 16.9979 93.6199 16.0163 94.1485C15.51 91.7746 18.0129 91.7897 19.4471 90.7001ZM16.4204 95.7052C17.085 95.2257 18.5665 94.4123 19.3123 94.0376C19.6416 93.8723 21.262 92.8898 21.6028 93.2068C21.7409 93.3355 21.7418 94.2226 21.8326 94.3129C22.2752 94.7539 20.6727 95.4964 20.0906 95.7497C18.5041 96.4403 17.3882 96.7435 16.0856 97.3994C16.0411 96.7999 15.9223 96.0639 16.4204 95.7052ZM22.7123 79.4751C22.3913 79.6244 22.1624 80.0641 21.784 80.4003C20.8066 81.2678 19.4379 81.7579 18.4032 82.3244C18.0395 82.5237 16.8341 83.5436 16.5709 83.3925C16.6309 83.4264 16.5002 81.7991 16.6566 81.6205C17.3584 80.8199 18.4303 80.1342 19.2095 79.5493C20.0498 78.9186 21.1882 78.4757 21.9418 78.1327C22.194 78.0177 22.6628 77.475 22.9577 77.4525C23.3627 77.4214 23.0256 79.329 22.7123 79.4751ZM23.3256 75.3452C23.2146 75.4895 23.0017 75.5193 22.8784 75.6429C22.6316 75.8894 22.5142 76.21 22.2766 76.4381C21.5051 77.1773 20.2773 77.4819 19.2994 77.9417C18.9981 78.0837 18.3422 78.7029 17.879 79.0011C17.6684 79.1371 16.8529 79.6157 16.8199 79.5997C16.6296 79.509 16.8754 78.7061 16.8749 78.3228C16.8754 78.1043 16.7098 77.7915 16.9419 77.5803C17.4336 77.1333 18.1175 77.0806 18.8197 76.717C20.0163 76.0973 21.6336 75.1941 22.6486 74.5364C22.9265 74.3559 23.2613 73.8975 23.4586 73.8604C23.8186 73.793 23.6191 74.9614 23.3256 75.3452ZM24.247 70.221C24.1851 70.6103 24.2832 71.6495 24.0356 71.9134C23.8117 72.152 23.2788 72.1662 23.0967 72.3448C21.5735 73.8416 19.4512 75.1025 17.0708 75.8894C16.8016 73.9877 18.2807 73.592 19.3581 72.9595C20.2328 72.4456 21.1969 71.7434 22.0803 71.0903C22.4353 70.8283 23.5154 70.2416 23.8296 69.9828C23.7682 70.0337 24.2016 69.419 24.403 69.806C24.4892 69.9718 24.2589 70.1459 24.247 70.221ZM24.9726 67.5297C24.7914 67.865 23.015 69.0673 22.4986 69.435C21.9468 69.828 21.3483 70.3598 20.7525 70.6657C19.7333 71.1883 18.5486 71.3024 17.8556 72.0856C17.8647 71.4796 17.6707 70.3428 18.345 69.8935C19.0683 69.4117 19.7109 68.781 20.4103 68.1618C20.8181 67.8009 21.5969 67.6964 22.0821 67.303C22.7518 66.7607 23.3756 66.3055 24.0727 65.9024C24.4442 65.6871 24.2663 65.5392 25.0501 65.3464C25.3056 65.2836 25.0575 67.3745 24.9726 67.5297ZM25.8253 63.0247C25.6115 63.7864 23.376 64.7752 22.4954 65.4004C21.207 66.3151 19.7425 67.1303 18.3477 68.0821C18.0487 66.6911 19.3595 65.6349 20.1374 65.0391C21.3753 64.0919 22.8288 63.5995 24.2085 62.6061C24.6878 62.2612 25.0928 61.5192 25.5808 61.2183C26.5339 60.6311 26.0372 62.2681 25.8253 63.0247ZM26.4844 59.1412C26.2931 59.4412 25.617 59.6267 25.3047 59.8658C24.6988 60.3289 23.8989 61.2027 23.2407 61.68C22.616 62.1321 21.8812 62.1824 21.4464 62.6235C21.0401 63.0366 20.0457 63.583 19.5783 63.9394C19.3641 64.1029 18.9036 64.5998 19.0866 64.0731C19.1522 63.8844 19.0467 63.458 19.1916 63.2065C19.2288 63.1424 19.4182 63.0792 19.4357 63.0366C19.554 62.7472 19.393 62.3079 19.4577 62.1307C19.6774 61.5247 21.8789 60.6018 22.5889 60.1292C24.2236 59.0423 25.2822 58.0956 26.7307 57.1599C26.6614 57.7072 26.8013 58.6438 26.4844 59.1412ZM6.23126 56.6483C6.48169 56.3657 7.21876 56.0836 7.65586 55.7941C8.38376 55.3132 8.86031 54.9765 9.48317 54.4796C9.87991 54.1626 10.6404 54.0825 11.0339 53.7468C11.0926 53.6969 11.1132 53.5297 11.1926 53.455C11.5228 53.1468 12.4351 53.0034 12.9089 52.719C13.1277 52.5871 13.235 52.3421 13.3942 52.2972C13.5703 52.2472 13.8336 52.283 14.0959 52.3233C15.1889 52.4914 16.7364 53.0588 17.906 53.1482C19.1577 53.2439 20.314 53.3456 21.4226 53.7321C21.9863 53.9286 22.5646 54.3807 23.0889 54.5611C23.2155 54.6046 23.6549 54.5332 23.9149 54.6262C24.3883 54.7947 25.0758 55.2889 25.5404 55.4561C25.7133 55.5179 26.1702 55.4781 26.2032 55.6068C26.2633 55.8403 24.957 56.5512 25.0267 56.4962C23.2613 57.895 21.0249 59.2333 19.1329 60.4493C18.6357 60.7695 18.9609 60.6692 18.5142 60.4218C17.6877 59.9634 16.4745 59.9391 15.4036 59.5411C15.1898 59.4614 14.8376 59.2557 14.4885 59.1486C12.4553 58.5243 9.99182 58.2637 8.6429 57.6261C8.30349 57.4654 8.39614 57.4287 7.93656 57.3532C7.63155 57.3023 5.94827 56.9671 6.23126 56.6483ZM201.337 154.929C200.809 155.311 200.245 155.708 199.626 155.871C199.157 155.994 198.606 155.858 198.102 155.944C197.619 156.028 197.149 156.273 196.668 156.345C195.656 156.499 194.307 156.462 193.497 156.495C186.835 156.764 180.565 154.748 174.267 153.652C172.123 153.278 168.819 152.599 166.775 152.245C163.639 151.705 160.399 150.866 157.172 150.391C154.003 149.926 150.988 148.943 148.014 148.198C146.871 147.911 145.53 147.959 144.333 147.659C139.664 146.485 134.84 144.741 130.28 143.964C128.613 143.68 126.984 142.999 125.223 142.672C124.497 142.537 123.794 142.268 123.066 142.059C120.46 141.31 117.489 140.692 115.027 140.088C105.414 137.732 95.7064 135.942 86.4272 132.833C86.0869 132.718 85.7154 132.766 85.3521 132.69C84.349 132.485 83.2519 132.023 82.1576 131.73C81.3008 131.5 80.4678 131.096 79.6239 130.837C79.3492 130.752 79.0254 130.849 78.7566 130.772C75.8872 129.948 73.0105 129.432 70.2246 128.896C68.8688 128.634 68.3363 128.599 66.7878 128.187C65.5825 127.865 64.5257 127.671 63.3933 127.517C61.2866 127.231 59.1534 126.4 56.9757 126.213C53.5674 125.919 49.832 124.903 46.51 124.541C46.3031 124.519 46.2614 124.374 46.0504 124.263C45.6046 124.027 44.8505 124.055 44.3121 123.929C42.033 123.393 39.109 122.584 36.6432 121.951C35.7507 121.722 34.8636 121.493 34.6481 121.17C33.1317 120.991 30.0468 120.231 27.8998 119.831C26.4848 119.568 25.0336 119.337 23.8824 118.97C23.2407 118.765 22.6316 118.338 22.0551 118.309C21.7643 118.293 21.4162 118.106 20.8942 118.004C16.7731 117.199 12.8933 115.879 9.55885 114.21C7.55954 113.21 5.27862 112.032 3.95859 110.625C3.42334 110.054 3.24584 109.391 2.92661 108.628C1.74739 105.814 1.1493 102.311 1.5231 98.8609C1.674 97.4727 1.63594 95.5779 1.6286 94.1242C1.62814 94.0266 1.55613 93.9355 1.54008 93.8388C1.31579 92.4982 1.56805 91.0303 1.61759 89.7204C1.6263 89.4818 1.37771 89.2202 1.43642 88.9835C1.85976 87.2737 1.68593 85.0294 1.89095 83.2098C2.07854 81.5458 2.17303 79.8131 2.23632 78.1396C2.31705 76.0162 2.83533 73.9643 3.09494 71.9876C3.16098 71.4856 3.08393 71.1613 3.27657 70.8306C3.63707 70.2118 3.4637 68.6038 3.6279 67.9827C3.8742 67.0529 3.70862 65.7925 3.76504 64.7281C3.88521 62.4522 4.79749 60.1534 4.90298 58.1583C5.58455 58.5156 6.49086 58.2609 7.21738 58.4382C7.60495 58.533 7.9251 58.8916 8.30211 59.0327C9.69369 59.5544 11.7279 59.7325 12.9451 60.2515C13.463 60.4722 14.1698 60.376 14.6417 60.5446C14.9921 60.6701 15.5944 61.255 16.1837 61.3356C16.5328 61.3837 17.0158 61.7954 17.2244 61.8078C17.4203 61.8188 17.6299 61.6919 17.7661 62.0844C17.9519 62.6175 17.6157 64.9333 17.5065 65.383C17.2946 66.2597 16.9126 67.1248 16.7818 68.1155C16.5608 69.7831 16.3039 71.3766 16.0214 73.0717C15.3848 76.8906 15.1628 81.1675 15.0453 85.3184C14.9683 88.0349 14.96 90.8242 14.6408 93.4372C14.4161 95.2738 14.4991 97.36 14.8862 99.1536C14.9981 99.6725 15.0779 100.416 15.2504 100.752C15.5031 101.246 16.6704 102.154 17.1446 102.606C17.4075 102.855 17.9276 103.131 18.2729 103.322C19.7026 104.117 21.4051 104.454 23.1297 104.906C25.1111 105.427 27.4031 106.033 29.4285 106.42C29.9083 106.511 30.3509 106.742 30.8802 106.841C32.2557 107.101 33.978 107.637 35.2338 108.026C36.0828 108.288 36.9602 108.868 38.0146 108.913C38.5201 108.935 39.0223 108.759 39.4553 108.8C40.1043 108.862 40.8203 109.398 41.4509 109.581C41.9463 109.726 42.6586 109.582 43.225 109.667C45.0982 109.947 46.8127 110.558 48.7716 110.702C49.2931 110.741 49.8311 110.956 50.3457 111.081C50.3517 111.032 50.3356 111.007 50.3031 110.999C52.567 111.359 54.7315 111.727 56.8445 112.301C57.7655 112.551 58.709 112.914 59.6639 113.065C61.1922 113.306 62.6521 113.642 64.1326 113.834C64.9908 113.946 65.8278 114.389 66.5805 114.565C68.1363 114.927 70.2599 115.431 71.8056 116.018C72.9921 116.469 74.4864 116.999 75.6666 117.294C76.6119 117.531 78.0814 117.997 79.3152 118.287C80.4357 118.55 81.6136 119.016 82.7556 119.161C83.3143 119.232 83.9638 119.249 84.4082 119.332C85.3003 119.498 86.1984 119.982 87.0629 120.098C87.3157 120.133 87.5606 119.974 87.7619 120.001C88.1472 120.054 88.3637 120.384 88.7614 120.475C91.1322 121.015 93.6796 121.84 96.1027 122.583C96.1949 122.575 96.0472 122.481 96.0986 122.377C97.0434 122.904 98.3075 122.947 99.4133 123.171C100.583 123.409 101.829 124.206 103.147 124.286C103.802 124.325 104.988 124.699 105.758 124.93C106.095 125.031 106.657 125.37 106.839 125.361C106.905 125.356 107.028 125.161 107.082 125.149C107.564 125.039 108.809 125.961 109.574 126.002C110.099 126.03 110.809 126.414 111.482 126.538C111.774 126.591 112.089 126.51 112.348 126.56C112.614 126.613 112.835 126.825 113.097 126.874C114.016 127.046 114.951 127.099 115.704 127.396C116.679 127.777 117.656 127.873 118.524 128.159C119.579 128.504 120.744 128.761 121.756 128.912C122.035 128.955 122.321 129.172 122.628 129.224C122.864 129.264 123.163 129.081 123.368 129.125C123.786 129.219 124.147 129.61 124.575 129.676C124.993 129.741 125.542 129.696 126.104 129.85C126.77 130.032 127.587 130.601 128.098 130.549C128.415 130.516 128.264 130.55 128.596 130.703C129.586 131.161 130.919 131.165 132.194 131.244C133.056 131.297 134.282 132.05 135.47 132.163C136.824 132.29 138.194 132.909 139.655 133.144C142.356 133.579 145.126 134.009 147.891 134.656C148.289 134.75 148.724 134.801 149.217 134.958C149.928 135.186 150.376 135.582 151.086 135.618C152.073 135.669 152.755 136.108 153.862 136.301C155.146 136.523 156.491 136.853 157.711 137.001C158.651 137.114 159.645 137.771 160.488 137.683C161.222 137.605 161.826 138.211 162.35 138.055C162.312 138.067 162.519 137.849 162.428 137.847C162.644 137.852 162.653 138.043 162.889 138.167C163.429 138.451 164.248 138.51 165 138.576C166.578 138.712 168.012 139.274 169.472 139.509C169.886 139.576 170.201 139.974 170.596 140.021C171.688 140.151 173.138 139.912 174.4 140.557C175.235 140.984 176.539 141.342 177.593 141.436C178.02 141.474 178.514 141.354 178.872 141.451C179.388 141.59 180.035 142.01 180.658 142.113C180.895 142.151 181.171 142.04 181.482 142.095C182.378 142.252 183.018 142.832 184.175 142.696C188.635 142.173 191.622 139.732 192.025 135.779C192.886 133.3 192.736 130.541 192.932 128.02C193.037 126.664 193.125 125.13 193.047 123.737C193.407 120.032 193.467 116.317 193.626 112.197C193.643 111.743 193.774 111.195 193.76 110.753C193.699 108.852 194.23 106.744 194.627 105.013C195.447 105.358 196.815 105.327 197.978 105.559C200.049 105.974 201.861 107.012 204.081 107.57C204.577 107.696 205.07 107.685 205.488 107.829C205.898 107.97 206.226 108.37 206.615 108.505C207.34 108.757 208.528 108.061 208.571 109.37C208.578 109.572 208.566 109.898 208.59 110.232C208.783 112.95 208.437 114.992 208.379 117.771C208.356 118.86 208.486 120.14 208.445 120.898C208.436 121.085 208.188 121.243 208.169 121.44C208.077 122.358 208.209 123.488 208.191 124.403C208.174 125.233 207.841 126.127 207.793 127.004C207.638 129.77 208.186 132.763 207.389 135.165C207.074 136.112 207.121 138.206 206.904 139.497C206.796 140.143 206.749 140.96 206.742 141.559C206.734 142.118 206.362 142.875 206.285 143.339C206.057 144.718 205.947 146.263 205.673 147.51C205.448 148.53 205.044 149.468 204.621 150.372C203.836 152.046 202.853 153.832 201.337 154.929ZM210.839 148.1C210.258 149.056 209.245 149.745 208.457 150.496C207.361 151.543 206.576 152.669 204.968 153.123C205.038 152.476 205.708 151.92 205.919 151.333C206.014 151.069 205.855 150.616 206.065 150.424C206.128 150.366 206.391 150.399 206.516 150.332C206.791 150.185 207.273 149.591 207.771 149.235C209.022 148.34 209.953 147.232 211.213 146.321C211.156 146.363 211.492 145.804 211.699 145.94C211.813 146.016 210.986 147.857 210.839 148.1ZM212.271 143.747C212.139 143.96 211.319 144.55 210.855 145.012C209.831 146.029 208.044 146.961 207.039 147.81C206.97 144.939 209.956 143.839 211.828 142.316C211.821 142.268 211.752 142.283 211.704 142.277C212.536 141.133 212.649 143.134 212.271 143.747V143.747Z" fill="#3A3A3A"/>
</svg>
