<svg width="33" height="29" viewBox="0 0 33 29" fill="none" xmlns="http://www.w3.org/2000/svg">
<path d="M26.25 15.0991C24.3678 15.5959 23.6024 16.7424 23.6024 18.7668V25.4928C21.1085 27.2142 17.3473 28.2857 13.7022 28.2857C5.3736 28.2857 0 22.8061 0 14.4087C0 5.62393 5.96021 0.000651842 15.1985 0.000651842C18.1684 -0.0233767 21.1058 0.617196 23.7938 1.87508L21.8363 9.86012H21.6073C21.2622 4.23685 18.9597 1.49082 14.6621 1.49082C9.82493 1.49082 7.06128 5.55207 7.06128 12.956C7.06128 21.1754 10.4021 27.2891 14.9664 27.2891C16.1177 27.2891 17.1623 26.908 17.5763 26.3738V19.3416C17.5763 16.6268 16.7325 15.5927 13.7022 15.0991V14.868H26.25V15.0991Z" fill="#989898"/>
<path d="M26.25 24.1718C26.2611 22.3262 27.7743 20.8372 29.6339 20.8421C31.4935 20.847 32.9988 22.3439 33 24.1895C33.0012 26.0351 31.498 27.534 29.6384 27.5414C27.7682 27.5322 26.2555 26.0279 26.25 24.1718Z" fill="#A48224"/>
</svg>
