<svg width="127" height="46" viewBox="0 0 127 46" fill="none" xmlns="http://www.w3.org/2000/svg">
<path d="M32 18.1495C29.7055 18.7465 28.7725 20.1247 28.7725 22.558V30.6429C25.7323 32.712 21.1472 34 16.7036 34C6.55067 34 0 27.4134 0 17.3196C0 6.76007 7.26577 0.000783527 18.5277 0.000783527C22.1481 -0.0280993 25.7289 0.741882 29.0057 2.25388L26.6195 11.8521H26.3403C25.9197 5.09278 23.1128 1.79199 17.8738 1.79199C11.9771 1.79199 8.60803 6.6737 8.60803 15.5734C8.60803 25.4533 12.6807 32.8021 18.2447 32.8021C19.6482 32.8021 20.9216 32.344 21.4264 31.7018V23.249C21.4264 19.9857 20.3977 18.7428 16.7036 18.1495V17.8716H32V18.1495Z" fill="#423E37"/>
<path fill-rule="evenodd" clip-rule="evenodd" d="M51.5134 35C54.7548 35 57.2124 33.0579 58 29.3013L57.5759 29.2487C57.0609 30.9504 56.0461 31.4538 55.1676 31.4538C54.1452 31.4538 53.3575 30.6273 53.3575 29.0195V19.7896C53.3575 13.9068 50.6728 10 44.5118 10C39.0439 10 35.5374 13.3095 34.7801 18.595L35.1587 18.6852C36.1773 15.1014 38.2903 13.6777 41.3197 13.6777C45.2124 13.6777 46.5112 16.1119 46.5112 19.6506V20.6086L42.6639 21.3899C37.3361 22.4869 34 25.1578 34 29.2487C34 32.284 36.2266 34.9925 40.2102 34.9925C43.6825 34.9925 45.9546 32.8813 46.6021 30.5823L46.6967 30.9579C47.0186 33.3922 48.6393 35 51.5134 35ZM46.5112 21.7656V29.8084C46.0736 30.9082 44.9658 31.5977 43.7772 31.5101C41.5544 31.5101 40.3957 29.6694 40.3957 27.3253C40.3957 25.0902 41.0887 22.8362 44.7012 22.0849L46.5112 21.7656Z" fill="#423E37"/>
<path d="M94 10V10.2886C92.9681 10.6785 91.8482 11.3843 90.7245 14.1881L82.167 35H81.9338L74.5917 18.1579L67.112 35H66.8789L58.4589 14.2115C57.5264 11.9225 56.4027 10.6317 55 10.312V10H67.2496V10.2886C66.0839 10.6785 65.5679 11.2401 65.5679 12.3397C65.6334 13.1339 65.8393 13.9094 66.1756 14.6288L70.2423 25.3174L73.9382 16.5863L72.5355 13.3887C71.9278 11.8601 71.1328 10.62 70.1047 10.2886V10H82.3466V10.2886C80.6649 10.429 79.9158 11.3375 79.9158 12.3397C79.9476 13.099 80.1242 13.8448 80.4356 14.5352L84.7392 25.3642L89.0428 14.6288C89.3562 13.9229 89.5302 13.161 89.555 12.3865C89.555 11.3843 88.7906 10.4367 87.1242 10.2886V10H94Z" fill="#423E37"/>
<path fill-rule="evenodd" clip-rule="evenodd" d="M115.759 45.649C119.418 44.4073 120 40.4048 120 40.4048L119.575 40.3567C119.575 40.3567 118.839 43.0435 116.717 42.4781C115.368 42.1196 115.311 40.5637 115.311 39.7063V12.125C112.683 10.7321 109.733 10.0012 106.734 10C98.4858 10 93 15.1075 93 23.9255C93 29.3952 96.1451 34.5951 101.535 34.5951C104.548 34.5885 107.256 32.8176 108.377 30.1196V39.7063C108.331 40.905 108.498 42.1025 108.871 43.2468C109.237 44.2451 109.997 45.0633 110.986 45.5234C112.511 46.1124 114.203 46.1569 115.759 45.649ZM108.377 12.3061V29.3952C107.83 30.4251 106.718 31.0595 105.519 31.025C102.42 31.025 100.505 27.4993 100.505 20.3998C100.505 14.9264 102.615 11.0828 105.803 11.0828C107.021 11.0828 107.818 11.4931 108.377 12.3061Z" fill="#423E37"/>
<path d="M119 29.9762C119.013 27.7723 120.807 25.9942 123.011 26C125.215 26.0058 126.999 27.7934 127 29.9973C127.001 32.2013 125.22 33.9912 123.016 34C120.799 33.9891 119.007 32.1927 119 29.9762Z" fill="#F9C035"/>
</svg>
