<svg width="44" height="44" viewBox="0 0 44 44" fill="none" xmlns="http://www.w3.org/2000/svg">
<path fill-rule="evenodd" clip-rule="evenodd" d="M22.0002 43C10.3939 43 1 33.5945 1 22.0002C1 10.3936 10.3923 1 22.0002 1C33.6067 1 43 10.3923 43 22.0002C43 33.6057 33.5936 43 22.0002 43Z" fill="#F6F1E3" stroke="#F2EDE1" stroke-width="1.23529"/>
<path d="M21.9432 23.2354C17.3037 23.2354 12.88 25.2876 9.64697 29.725C16.085 37.5994 28.0017 37.5322 34.3529 29.5844C32.7845 28.0058 29.252 23.2354 21.9432 23.2354Z" fill="#121212"/>
<path d="M14.0735 16.1766C14.0735 20.2764 17.2746 23.7501 21.3823 23.7501C25.4897 23.7501 28.6911 20.2765 28.6911 16.1766V14.2354C28.6911 10.1355 25.4897 6.66187 21.3823 6.66187C17.2746 6.66187 14.0735 10.1355 14.0735 14.2354V16.1766Z" fill="#121212" stroke="#F6F1E2" stroke-width="3.5"/>
</svg>
