<svg width="30" height="30" viewBox="0 0 30 30" fill="none" xmlns="http://www.w3.org/2000/svg">
<path opacity="0.2" d="M15.0001 30C6.70995 30 0 23.2818 0 15.0001C0 6.70972 6.70881 0 15.0001 0C23.2905 0 30 6.70881 30 15.0001C30 23.2898 23.2811 30 15.0001 30Z" fill="#272727"/>
<path opacity="0.8" d="M14.9474 18.5294C10.6392 18.5294 6.53149 20.4351 3.52942 24.5555C9.50758 31.8675 20.5731 31.8051 26.4706 24.425C25.0143 22.9591 21.7341 18.5294 14.9474 18.5294Z" fill="#272727"/>
<path opacity="0.8" d="M15 17.6471C12.0806 17.6471 9.70587 15.2721 9.70587 12.353V10.5882C9.70587 7.66913 12.0806 5.29413 15 5.29413C17.9191 5.29413 20.2941 7.66913 20.2941 10.5882V12.353C20.2941 15.2721 17.9191 17.6471 15 17.6471Z" fill="#272727"/>
</svg>
