<svg width="42" height="42" viewBox="0 0 42 42" fill="none" xmlns="http://www.w3.org/2000/svg">
<path d="M21 0C9.42219 0 0 9.42219 0 21C0 32.5778 9.42219 42 21 42C32.5778 42 42 32.5778 42 21C42 9.42219 32.5778 0 21 0Z" fill="#272727"/>
<path d="M27.4499 14.5499C27.4499 18.112 24.5624 20.9995 21.0004 20.9995C17.4384 20.9995 14.5508 18.1119 14.5508 14.5499C14.5508 10.9882 17.4384 8.10068 21.0004 8.10068C24.5624 8.10068 27.4499 10.9883 27.4499 14.5499Z" fill="#F6F1E3"/>
<path d="M21.0002 23.9881C15.8878 23.9881 11.5148 27.1341 9.70557 31.5859C12.5372 34.6061 16.5482 36.4936 21.0002 36.4936C25.4523 36.4936 29.4634 34.6061 32.2949 31.5859C30.4857 27.1344 26.113 23.9881 21.0002 23.9881V23.9881Z" fill="#F6F1E3"/>
</svg>
