<svg width="68" height="68" viewBox="0 0 68 68" fill="none" xmlns="http://www.w3.org/2000/svg">
<path d="M34.0003 67C15.2092 67 0 51.996 0 33.5003C0 14.985 15.2066 0 34.0003 0C52.7918 0 68 14.983 68 33.5003C68 52.0139 52.7705 67 34.0003 67Z" fill="#272727"/>
<path d="M33.8807 42C24.1156 42 14.8047 46.3195 8 55.6591C21.5505 72.233 46.6323 72.0915 60 55.3632C56.699 52.0407 49.264 42 33.8807 42Z" fill="#FDF9ED"/>
<path d="M34 41C27.3828 41 22 35.6167 22 29V25C22 18.3833 27.3828 13 34 13C40.6167 13 46 18.3833 46 25V29C46 35.6167 40.6167 41 34 41Z" fill="#FDF9ED"/>
</svg>
