<svg width="768" height="5" viewBox="0 0 768 5" fill="none" xmlns="http://www.w3.org/2000/svg">
<path fill-rule="evenodd" clip-rule="evenodd" d="M24 0L32 5H16L24 0Z" fill="#FDF9EC"/>
<path fill-rule="evenodd" clip-rule="evenodd" d="M40 0L48 5H32L40 0Z" fill="#FDF9EC"/>
<path fill-rule="evenodd" clip-rule="evenodd" d="M56 0L64 5H48L56 0Z" fill="#FDF9EC"/>
<path fill-rule="evenodd" clip-rule="evenodd" d="M72 0L80 5H64L72 0Z" fill="#FDF9EC"/>
<path fill-rule="evenodd" clip-rule="evenodd" d="M88 0L96 5H80L88 0Z" fill="#FDF9EC"/>
<path fill-rule="evenodd" clip-rule="evenodd" d="M104 0L112 5H96L104 0Z" fill="#FDF9EC"/>
<path fill-rule="evenodd" clip-rule="evenodd" d="M120 0L128 5H112L120 0Z" fill="#FDF9EC"/>
<path fill-rule="evenodd" clip-rule="evenodd" d="M136 0L144 5H128L136 0Z" fill="#FDF9EC"/>
<path fill-rule="evenodd" clip-rule="evenodd" d="M152 0L160 5H144L152 0Z" fill="#FDF9EC"/>
<path fill-rule="evenodd" clip-rule="evenodd" d="M168 0L176 5H160L168 0Z" fill="#FDF9EC"/>
<path fill-rule="evenodd" clip-rule="evenodd" d="M184 0L192 5H176L184 0Z" fill="#FDF9EC"/>
<path fill-rule="evenodd" clip-rule="evenodd" d="M200 0L208 5H192L200 0Z" fill="#FDF9EC"/>
<path fill-rule="evenodd" clip-rule="evenodd" d="M216 0L224 5H208L216 0Z" fill="#FDF9EC"/>
<path fill-rule="evenodd" clip-rule="evenodd" d="M232 0L240 5H224L232 0Z" fill="#FDF9EC"/>
<path fill-rule="evenodd" clip-rule="evenodd" d="M248 0L256 5H240L248 0Z" fill="#FDF9EC"/>
<path fill-rule="evenodd" clip-rule="evenodd" d="M264 0L272 5H256L264 0Z" fill="#FDF9EC"/>
<path fill-rule="evenodd" clip-rule="evenodd" d="M280 0L288 5H272L280 0Z" fill="#FDF9EC"/>
<path fill-rule="evenodd" clip-rule="evenodd" d="M296 0L304 5H288L296 0Z" fill="#FDF9EC"/>
<path fill-rule="evenodd" clip-rule="evenodd" d="M312 0L320 5H304L312 0Z" fill="#FDF9EC"/>
<path fill-rule="evenodd" clip-rule="evenodd" d="M328 0L336 5H320L328 0Z" fill="#FDF9EC"/>
<path fill-rule="evenodd" clip-rule="evenodd" d="M344 0L352 5H336L344 0Z" fill="#FDF9EC"/>
<path fill-rule="evenodd" clip-rule="evenodd" d="M360 0L368 5H352L360 0Z" fill="#FDF9EC"/>
<path fill-rule="evenodd" clip-rule="evenodd" d="M376 0L384 5H368L376 0Z" fill="#FDF9EC"/>
<path fill-rule="evenodd" clip-rule="evenodd" d="M392 0L400 5H384L392 0Z" fill="#FDF9EC"/>
<path fill-rule="evenodd" clip-rule="evenodd" d="M408 0L416 5H400L408 0Z" fill="#FDF9EC"/>
<path fill-rule="evenodd" clip-rule="evenodd" d="M424 0L432 5H416L424 0Z" fill="#FDF9EC"/>
<path fill-rule="evenodd" clip-rule="evenodd" d="M440 0L448 5H432L440 0Z" fill="#FDF9EC"/>
<path fill-rule="evenodd" clip-rule="evenodd" d="M456 0L464 5H448L456 0Z" fill="#FDF9EC"/>
<path fill-rule="evenodd" clip-rule="evenodd" d="M472 0L480 5H464L472 0Z" fill="#FDF9EC"/>
<path fill-rule="evenodd" clip-rule="evenodd" d="M488 0L496 5H480L488 0Z" fill="#FDF9EC"/>
<path fill-rule="evenodd" clip-rule="evenodd" d="M504 0L512 5H496L504 0Z" fill="#FDF9EC"/>
<path fill-rule="evenodd" clip-rule="evenodd" d="M520 0L528 5H512L520 0Z" fill="#FDF9EC"/>
<path fill-rule="evenodd" clip-rule="evenodd" d="M536 0L544 5H528L536 0Z" fill="#FDF9EC"/>
<path fill-rule="evenodd" clip-rule="evenodd" d="M552 0L560 5H544L552 0Z" fill="#FDF9EC"/>
<path fill-rule="evenodd" clip-rule="evenodd" d="M568 0L576 5H560L568 0Z" fill="#FDF9EC"/>
<path fill-rule="evenodd" clip-rule="evenodd" d="M584 0L592 5H576L584 0Z" fill="#FDF9EC"/>
<path fill-rule="evenodd" clip-rule="evenodd" d="M600 0L608 5H592L600 0Z" fill="#FDF9EC"/>
<path fill-rule="evenodd" clip-rule="evenodd" d="M616 0L624 5H608L616 0Z" fill="#FDF9EC"/>
<path fill-rule="evenodd" clip-rule="evenodd" d="M632 0L640 5H624L632 0Z" fill="#FDF9EC"/>
<path fill-rule="evenodd" clip-rule="evenodd" d="M648 0L656 5H640L648 0Z" fill="#FDF9EC"/>
<path fill-rule="evenodd" clip-rule="evenodd" d="M664 0L672 5H656L664 0Z" fill="#FDF9EC"/>
<path fill-rule="evenodd" clip-rule="evenodd" d="M680 0L688 5H672L680 0Z" fill="#FDF9EC"/>
<path fill-rule="evenodd" clip-rule="evenodd" d="M8 0L16 5H0L8 0Z" fill="#FDF9EC"/>
<path fill-rule="evenodd" clip-rule="evenodd" d="M696 0L704 5H688L696 0Z" fill="#FDF9EC"/>
<path fill-rule="evenodd" clip-rule="evenodd" d="M712 0L720 5H704L712 0Z" fill="#FDF9EC"/>
<path fill-rule="evenodd" clip-rule="evenodd" d="M728 0L736 5H720L728 0Z" fill="#FDF9EC"/>
<path fill-rule="evenodd" clip-rule="evenodd" d="M744 0L752 5H736L744 0Z" fill="#FDF9EC"/>
<path fill-rule="evenodd" clip-rule="evenodd" d="M760 0L768 5H752L760 0Z" fill="#FDF9EC"/>
</svg>
