<svg width="31" height="26" viewBox="0 0 31 26" fill="none" xmlns="http://www.w3.org/2000/svg">
<g opacity="0.55">
<path fill-rule="evenodd" clip-rule="evenodd" d="M27.2 0C29.2987 0 31 1.70132 31 3.8V22.2C31 24.2987 29.2987 26 27.2 26H3.8C1.70132 26 0 24.2987 0 22.2V3.8C0 1.70132 1.70132 0 3.8 0H27.2ZM27.0297 23.2523C28.2447 23.2523 29.2297 22.2673 29.2297 21.0523V7.03563C29.2297 5.8206 28.2447 4.83563 27.0297 4.83563H3.98876C2.76544 4.83563 1.77706 5.83358 1.78886 7.05685L1.92405 21.0735C1.93569 22.2802 2.91721 23.2523 4.12395 23.2523H27.0297Z" fill="#272727"/>
<path d="M10.4858 17.8601C10.7145 18.0786 11.0085 18.2035 11.3351 18.2035C11.5964 18.2035 11.8904 18.1099 12.1191 17.9225C12.5764 17.5166 12.6091 16.8297 12.1844 16.3925L9.99581 14.1444L12.1844 11.8963C12.6091 11.4592 12.5764 10.7722 12.1191 10.3663C11.6618 9.96043 10.9431 9.99165 10.5185 10.4288L7.61119 13.3951C7.2192 13.801 7.2192 14.4567 7.61119 14.8626L10.4858 17.8601Z" fill="#272727" stroke="#F6F1E3" stroke-width="0.55"/>
<path d="M18.9463 17.9225C19.1749 18.1099 19.4363 18.2035 19.7302 18.2035C20.0242 18.2035 20.3509 18.0786 20.5796 17.8601L23.4542 14.8626C23.8462 14.4567 23.8462 13.801 23.4542 13.395L20.5796 10.3976C20.1549 9.96042 19.4363 9.92919 18.9789 10.3351C18.5216 10.741 18.4889 11.4279 18.9136 11.8651L21.1022 14.1132L18.9136 16.3613C18.4563 16.8297 18.4563 17.5166 18.9463 17.9225Z" fill="#272727" stroke="#F6F1E3" stroke-width="0.55"/>
<path d="M14.471 19.5774C14.5363 19.5774 14.6017 19.6086 14.6997 19.6086C15.2223 19.6086 15.7123 19.2339 15.8103 18.7343L17.4763 10.3039C17.6069 9.71063 17.1823 9.1486 16.5616 9.0237C15.941 8.89881 15.353 9.30472 15.2223 9.89797L13.5564 18.2972C13.4584 18.8905 13.8503 19.4525 14.471 19.5774Z" fill="#272727" stroke="#F6F1E3" stroke-width="0.55"/>
</g>
</svg>
