<?xml version="1.0" encoding="utf-8"?>
<!-- Generator: Adobe Illustrator 24.0.1, SVG Export Plug-In . SVG Version: 6.00 Build 0)  -->
<svg version="1.1" id="Layer_1" xmlns="http://www.w3.org/2000/svg" xmlns:xlink="http://www.w3.org/1999/xlink" x="0px" y="0px"
	 width="26px" height="26px" viewBox="0 0 26 26" style="enable-background:new 0 0 26 26;" xml:space="preserve">
<style type="text/css">
	.st0{fill:#737373;}
	.st1{fill:#272727;}
</style>
<path class="st0" d="M1,7.8C0.6,7.8,0.3,7.4,0.3,7V3.7c0-1.9,1.5-3.4,3.4-3.4H7c0.4,0,0.8,0.3,0.8,0.8S7.4,1.8,7,1.8H3.7
	c-1.1,0-1.9,0.9-1.9,1.9V7C1.8,7.4,1.4,7.8,1,7.8z"/>
<path class="st0" d="M7,25.8H3.7c-1.9,0-3.4-1.5-3.4-3.4V19c0-0.4,0.3-0.8,0.8-0.8s0.8,0.3,0.8,0.8v3.3c0,1.1,0.9,1.9,1.9,1.9H7
	c0.4,0,0.8,0.3,0.8,0.8S7.4,25.8,7,25.8z"/>
<path class="st0" d="M22.3,25.8H19c-0.4,0-0.8-0.3-0.8-0.8s0.3-0.8,0.8-0.8h3.3c1.1,0,1.9-0.9,1.9-1.9V19c0-0.4,0.3-0.8,0.8-0.8
	s0.8,0.3,0.8,0.8v3.3C25.8,24.2,24.2,25.8,22.3,25.8z"/>
<path class="st1" d="M17.8,9.2h-1.6V7.6c0-1.1-0.9-2.1-2.1-2.1H8.2c-0.5,0-1.1,0.2-1.5,0.6C6.3,6.6,6.1,7.1,6.1,7.6v7.1
	c0,1.1,0.9,2.1,2.1,2.1h1.6v1.6c0,1.1,0.9,2.1,2.1,2.1h5.9c1.1,0,2.1-0.9,2.1-2.1v-7.1C19.9,10.2,18.9,9.2,17.8,9.2z M8.2,15.3
	c-0.3,0-0.6-0.3-0.6-0.6V7.6c0-0.2,0.1-0.3,0.2-0.4C7.9,7.1,8,7.1,8.2,7.1h5.9c0.3,0,0.6,0.3,0.6,0.6v1.6h-2.8
	c-1.1,0-2.1,0.9-2.1,2.1v4H8.2z M18.4,18.4c0,0.3-0.3,0.6-0.6,0.6h-5.9c-0.3,0-0.6-0.3-0.6-0.6V16c0,0,0,0,0,0s0,0,0,0v-4.7
	c0-0.3,0.3-0.6,0.6-0.6h5.9c0.3,0,0.6,0.3,0.6,0.6V18.4z"/>
<path class="st0" d="M25,7.8c-0.4,0-0.8-0.3-0.8-0.8V3.7c0-1.1-0.9-1.9-1.9-1.9H19c-0.4,0-0.8-0.3-0.8-0.8s0.3-0.8,0.8-0.8h3.3
	c1.9,0,3.4,1.5,3.4,3.4V7C25.8,7.4,25.4,7.8,25,7.8z"/>
</svg>
