<?xml version="1.0" encoding="UTF-8"?>
<svg width="22px" height="22px" viewBox="0 0 22 22" version="1.1" xmlns="http://www.w3.org/2000/svg" xmlns:xlink="http://www.w3.org/1999/xlink">
    <title>Crypto Icon</title>
    <g id="Business-Solutions" stroke="none" stroke-width="1" fill="none" fill-rule="evenodd" stroke-linecap="round" stroke-linejoin="round">
        <g id="Business---Desktop---Landing" transform="translate(-953.000000, -5306.000000)" stroke="#272727" stroke-width="2">
            <g id="Group-7" transform="translate(0.000000, 4825.000000)">
                <g id="Group-6" transform="translate(156.000000, 282.000000)">
                    <g id="Group-3" transform="translate(798.000000, 198.000000)">
                        <g id="Crypto-Icon" transform="translate(0.000000, 2.000000)">
                            <path d="M15.2888889,17.7777778 L4.71111111,17.7777778 C3.33666667,17.7777778 2.22222222,16.6633333 2.22222222,15.2888889 L2.22222222,4.71111111 C2.22222222,3.33666667 3.33666667,2.22222222 4.71111111,2.22222222 L15.2888889,2.22222222 C16.6633333,2.22222222 17.7777778,3.33666667 17.7777778,4.71111111 L17.7777778,15.2888889 C17.7777778,16.6633333 16.6633333,17.7777778 15.2888889,17.7777778 L15.2888889,17.7777778 Z" id="Path"></path>
                            <line x1="20" y1="6" x2="17.7777778" y2="6" id="Path"></line>
                            <line x1="20" y1="10" x2="17.7777778" y2="10" id="Path"></line>
                            <line x1="20" y1="14" x2="17.7777778" y2="14" id="Path"></line>
                            <line x1="0" y1="14" x2="2.22222222" y2="14" id="Path"></line>
                            <line x1="0" y1="10" x2="2.22222222" y2="10" id="Path"></line>
                            <line x1="0" y1="6" x2="2.22222222" y2="6" id="Path"></line>
                            <line x1="6" y1="0" x2="6" y2="2.22222222" id="Path"></line>
                            <line x1="10" y1="0" x2="10" y2="2.22222222" id="Path"></line>
                            <line x1="14" y1="0" x2="14" y2="2.22222222" id="Path"></line>
                            <line x1="14" y1="20" x2="14" y2="17.7777778" id="Path"></line>
                            <line x1="10" y1="20" x2="10" y2="17.7777778" id="Path"></line>
                            <line x1="6" y1="20" x2="6" y2="17.7777778" id="Path"></line>
                            <path d="M11.7044444,13.3333333 L8.89666667,13.3333333 C8.27888889,13.3333333 7.77777778,12.8322222 7.77777778,12.2133333 L7.77777778,10.0511111 L11.7044444,10.0511111 C12.6033333,10.0511111 13.3333333,10.78 13.3333333,11.68 L13.3333333,11.7044444 C13.3333333,12.6044444 12.6044444,13.3333333 11.7044444,13.3333333 L11.7044444,13.3333333 Z" id="Path"></path>
                            <path d="M11.31,10.0511111 L7.77777778,10.0511111 L7.77777778,7.80333333 C7.77777778,7.17555556 8.28666667,6.66666667 8.91444444,6.66666667 L11.31,6.66666667 C12.2233333,6.66666667 12.9633346,7.40666667 12.9633346,8.32 L12.9633346,8.39666667 C12.9644444,9.31111111 12.2233333,10.0511111 11.31,10.0511111 L11.31,10.0511111 Z" id="Path"></path>
                            <line x1="8.88888889" y1="6.66666667" x2="6.66666667" y2="6.66666667" id="Path"></line>
                            <line x1="8.9" y1="13.3333333" x2="6.66666667" y2="13.3333333" id="Path"></line>
                        </g>
                    </g>
                </g>
            </g>
        </g>
    </g>
</svg>