<svg width="367" height="238" viewBox="0 0 367 238" fill="none" xmlns="http://www.w3.org/2000/svg">
<path d="M35.5502 178.764L34.4963 176.921C34.9202 178.329 32.3885 179.416 38.311 182.529L74.7046 203.35C76.547 204.416 78.819 204.416 80.6614 203.35L122.279 179.37C122.691 179.117 122.949 178.673 122.965 178.19C122.981 177.706 122.753 177.247 122.359 176.967L117.444 173.533L35.5502 178.764Z" fill="#C2BEB5"/>
<path d="M121.316 177.791L119.025 179.13L79.825 201.919C78.5307 202.663 76.9381 202.663 75.6438 201.919L34.4046 178.397C33.259 177.733 33.1789 173.258 34.3129 172.571L72.8144 152.437L75.4262 150.881C76.7363 150.119 78.3545 150.119 79.6646 150.881L121.328 172.628C122.473 173.304 122.462 177.127 121.316 177.791Z" fill="#E3DDD1"/>
<path d="M121.316 174.998L119.025 176.337L79.8252 199.058C78.5309 199.802 76.9383 199.802 75.644 199.058L34.4048 175.524C33.872 175.218 33.5437 174.651 33.5437 174.036C33.5437 173.422 33.872 172.855 34.4048 172.548L72.8947 149.656L75.5065 148.099C76.8154 147.333 78.4362 147.333 79.745 148.099L121.397 172.056C121.899 172.385 122.195 172.95 122.178 173.549C122.162 174.149 121.836 174.697 121.316 174.998Z" fill="#F8F2E4"/>
<path d="M121.316 174.998L119.025 176.337L72.8145 149.645L75.4263 148.088C76.7351 147.322 78.3559 147.322 79.6648 148.088L121.316 172.045C121.832 172.358 122.147 172.918 122.147 173.521C122.147 174.125 121.832 174.684 121.316 174.998Z" fill="#D9D5CA"/>
<path d="M111.637 176.669C111.491 176.672 111.347 176.632 111.224 176.555C109.597 175.593 107.971 174.666 106.401 173.773C104.649 172.766 102.839 171.724 101.029 170.648C100.694 170.398 100.603 169.935 100.819 169.577C101.035 169.219 101.487 169.084 101.865 169.263C103.652 170.339 105.462 171.37 107.203 172.365C108.945 173.361 110.411 174.197 112.049 175.17C112.242 175.281 112.38 175.467 112.432 175.683C112.484 175.899 112.445 176.128 112.324 176.314C112.172 176.544 111.912 176.679 111.637 176.669Z" fill="#D9D5CA"/>
<path d="M98.0163 168.725C97.8744 168.727 97.7351 168.687 97.6154 168.611L94.0986 166.573C93.9021 166.466 93.7588 166.282 93.7024 166.065C93.6461 165.849 93.6816 165.618 93.8007 165.429C93.9108 165.235 94.0947 165.094 94.3105 165.038C94.5263 164.982 94.7557 165.016 94.9463 165.131L98.463 167.18C98.6602 167.287 98.8033 167.472 98.8578 167.69C98.9122 167.907 98.8729 168.137 98.7494 168.325C98.5958 168.581 98.3153 168.735 98.0163 168.725Z" fill="#D9D5CA"/>
<path d="M106.356 180C106.215 180 106.078 179.964 105.955 179.897L103.125 178.248C102.931 178.139 102.79 177.954 102.736 177.738C102.682 177.521 102.719 177.292 102.839 177.104C102.946 176.907 103.131 176.764 103.349 176.709C103.566 176.655 103.797 176.694 103.984 176.818L106.814 178.466C107.014 178.571 107.159 178.755 107.214 178.974C107.269 179.193 107.227 179.424 107.1 179.611C106.949 179.874 106.659 180.026 106.356 180Z" fill="#D9D5CA"/>
<path d="M100.044 176.337C99.902 176.338 99.7627 176.299 99.643 176.223L97.2603 174.849L96.3782 174.334L88.7719 169.927C88.4381 169.681 88.3434 169.223 88.5521 168.865C88.7608 168.506 89.206 168.362 89.5852 168.531L97.1915 172.938L98.0621 173.453L100.456 174.826C100.651 174.936 100.792 175.12 100.846 175.337C100.9 175.553 100.863 175.783 100.743 175.971C100.589 176.205 100.324 176.344 100.044 176.337Z" fill="#D9D5CA"/>
<path d="M101.086 183.17C100.986 183.175 100.887 183.151 100.8 183.102L100.17 182.77L99.62 182.461C99.574 182.441 99.5314 182.414 99.494 182.381C98.8871 181.907 98.216 181.522 97.5007 181.236H97.432C96.4239 180.652 95.4617 180.091 94.5223 179.508C92.9873 178.581 91.544 177.711 90.0433 176.887C89.8387 176.776 89.7085 176.565 89.7019 176.333C89.6953 176.1 89.8132 175.882 90.0112 175.76C90.2092 175.639 90.4573 175.632 90.6619 175.742C92.1855 176.577 93.6403 177.459 95.1868 178.386L98.0162 180.172C98.8306 180.442 99.6021 180.828 100.307 181.316C100.513 181.419 100.685 181.522 100.857 181.625L101.418 181.934C101.683 182.068 101.822 182.365 101.754 182.654C101.686 182.942 101.429 183.146 101.132 183.148L101.086 183.17Z" fill="#D9D5CA"/>
<path d="M87.0192 175.17C86.8826 175.169 86.7484 175.134 86.6297 175.067C85.3352 174.357 84.0752 173.636 82.9067 172.915C82.5271 172.681 82.4092 172.184 82.6432 171.804C82.8773 171.425 83.3748 171.307 83.7544 171.541C84.8999 172.239 86.1257 172.96 87.4087 173.659C87.5959 173.76 87.7344 173.933 87.7926 174.137C87.8508 174.342 87.8239 174.561 87.718 174.746C87.5859 175.01 87.3142 175.174 87.0192 175.17Z" fill="#D9D5CA"/>
<path d="M95.8168 186.673C95.6714 186.673 95.5289 186.633 95.4044 186.558L93.2049 185.276L87.1794 181.762L85.4955 180.79C85.1617 180.543 85.067 180.085 85.2757 179.727C85.4844 179.369 85.9296 179.225 86.3088 179.393L87.9927 180.377L94.0183 183.88L96.2177 185.162C96.5299 185.348 96.681 185.718 96.5879 186.069C96.4948 186.419 96.18 186.666 95.8168 186.673Z" fill="#D9D5CA"/>
<path d="M82.4713 178.901C82.3312 178.901 82.1933 178.865 82.0704 178.798L79.4242 177.253C79.1746 177.11 79.0203 176.844 79.0195 176.557C79.0188 176.269 79.1716 176.003 79.4205 175.858C79.6693 175.714 79.9764 175.713 80.2261 175.856L82.8837 177.402C83.2048 177.582 83.3616 177.957 83.264 178.312C83.1664 178.667 82.8395 178.91 82.4713 178.901Z" fill="#D9D5CA"/>
<path d="M76.3312 175.33C76.191 175.33 76.0532 175.294 75.9303 175.227C72.9519 173.498 70.2828 171.965 67.7741 170.534C67.4245 170.295 67.3166 169.829 67.526 169.461C67.7354 169.093 68.1921 168.948 68.5759 169.126C71.0961 170.568 73.7652 172.102 76.7436 173.83C76.9407 173.938 77.0839 174.122 77.1383 174.34C77.1927 174.557 77.1535 174.788 77.03 174.975C76.8779 175.21 76.6111 175.346 76.3312 175.33Z" fill="#D9D5CA"/>
<path d="M64.9101 168.725C64.7909 168.726 64.6731 168.699 64.5665 168.645C64.1999 168.462 63.8792 168.279 63.5813 168.096C63.2579 167.89 62.9212 167.707 62.5733 167.546C62.4727 167.511 62.3823 167.452 62.3098 167.375L62.0807 167.146C60.8004 166.514 59.5609 165.803 58.3691 165.017C58.1973 164.914 58.0026 164.822 57.8078 164.731C57.3705 164.531 56.9557 164.286 56.5707 163.998C56.3456 163.818 56.2336 163.532 56.277 163.247C56.3204 162.962 56.5126 162.722 56.7811 162.618C57.0496 162.513 57.3536 162.559 57.5787 162.739C57.8711 162.952 58.1861 163.133 58.5181 163.277L59.2168 163.643C60.398 164.423 61.6303 165.123 62.9055 165.738C62.9816 165.781 63.051 165.835 63.1117 165.898L63.3293 166.104C63.6945 166.28 64.0501 166.475 64.3947 166.688C64.6696 166.86 64.9445 167.02 65.2424 167.169C65.5948 167.324 65.787 167.707 65.7002 168.082C65.6134 168.457 65.2721 168.718 64.8872 168.702L64.9101 168.725Z" fill="#D9D5CA"/>
<path d="M89.8944 189.466C89.7542 189.466 89.6163 189.43 89.4934 189.363L86.5609 187.68L76.4573 181.82C76.2633 181.71 76.1222 181.526 76.0661 181.31C76.01 181.095 76.0436 180.866 76.1594 180.675C76.2667 180.478 76.4516 180.335 76.6693 180.281C76.887 180.226 77.1176 180.266 77.305 180.389L87.4086 186.249L90.3297 187.921C90.5261 188.028 90.6694 188.212 90.7258 188.429C90.7822 188.645 90.7466 188.876 90.6275 189.065C90.4739 189.322 90.1934 189.475 89.8944 189.466Z" fill="#D9D5CA"/>
<path d="M73.4445 179.931C73.3043 179.931 73.1665 179.896 73.0436 179.828L70.2027 178.18C67.2128 176.44 64.0397 174.632 60.1907 172.457C59.8048 172.239 59.6688 171.749 59.8871 171.364C60.1054 170.978 60.5952 170.842 60.9811 171.06C64.8301 173.212 68.0261 175.032 71.016 176.783L73.8569 178.432C74.1779 178.612 74.3348 178.988 74.2372 179.342C74.1396 179.697 73.8127 179.94 73.4445 179.931Z" fill="#D9D5CA"/>
<path d="M57.006 170.511H56.7769C56.3393 170.41 55.9409 170.183 55.6313 169.859L54.165 169.046C53.0195 168.393 51.874 167.775 50.7284 167.1C50.4829 166.951 50.3357 166.682 50.3423 166.395C50.3488 166.108 50.5082 165.846 50.7604 165.708C51.0125 165.57 51.3191 165.577 51.5647 165.726C52.7102 166.379 53.7641 166.986 54.9211 167.627L56.4905 168.508C56.5559 168.543 56.6173 168.585 56.6738 168.634C56.857 168.828 56.9487 168.909 57.0632 168.931C57.4843 168.999 57.7785 169.385 57.7327 169.808C57.687 170.232 57.3173 170.546 56.8914 170.522L57.006 170.511Z" fill="#D9D5CA"/>
<path d="M84.6248 192.762C84.4846 192.762 84.3468 192.727 84.2239 192.659L80.4436 190.485L80.1343 190.301L76.4801 188.207L75.2543 187.543C74.4066 187.085 73.536 186.616 72.7227 186.066C71.1648 185.002 69.4808 184.063 67.8427 183.148L65.7006 181.923C65.5015 181.818 65.3559 181.634 65.2992 181.416C65.2426 181.198 65.2801 180.967 65.4027 180.778C65.5128 180.584 65.6967 180.443 65.9125 180.387C66.1283 180.331 66.3577 180.365 66.5483 180.481C67.247 180.893 67.9687 181.293 68.6675 181.694C70.3285 182.621 72.1041 183.594 73.662 184.693C74.4312 185.193 75.2266 185.651 76.0447 186.066C76.4686 186.295 76.9039 186.524 77.3163 186.765L80.9705 188.859L81.2913 189.042L85.0601 191.217C85.2591 191.322 85.4048 191.506 85.4614 191.724C85.5181 191.942 85.4805 192.173 85.3579 192.362C85.2044 192.618 84.9238 192.772 84.6248 192.762Z" fill="#D9D5CA"/>
<path d="M62.6422 180.172C62.5057 180.171 62.3715 180.136 62.2527 180.069C60.1106 178.924 57.8424 177.596 55.6315 176.257C55.4408 176.143 55.3048 175.957 55.2551 175.741C55.2053 175.525 55.2461 175.298 55.3681 175.112C55.4793 174.919 55.666 174.781 55.8834 174.731C56.1007 174.681 56.3291 174.724 56.5136 174.849C58.6901 176.177 60.9468 177.447 63.0661 178.626C63.396 178.799 63.5636 179.176 63.4707 179.536C63.3778 179.896 63.0489 180.145 62.6766 180.137L62.6422 180.172Z" fill="#D9D5CA"/>
<path d="M52.4697 174.277C52.3244 174.277 52.1819 174.237 52.0574 174.162L49.6403 172.777C48.3115 172.022 46.9368 171.243 45.5736 170.488C45.294 170.355 45.1144 170.075 45.1102 169.765C45.106 169.456 45.278 169.171 45.5539 169.03C45.8298 168.89 46.1617 168.918 46.4099 169.103C47.7501 169.904 49.1133 170.683 50.4421 171.392L52.8707 172.777C53.1829 172.963 53.334 173.333 53.2409 173.684C53.1478 174.035 52.833 174.281 52.4697 174.288V174.277Z" fill="#D9D5CA"/>
<path d="M79.3439 196.127C79.2037 196.127 79.0659 196.092 78.943 196.024L76.7894 194.777C74.4296 193.403 72.0125 192.03 69.6871 190.702L69.057 190.347C68.8553 190.245 68.7071 190.061 68.6502 189.842C68.5932 189.623 68.6329 189.39 68.7592 189.202C68.8649 189.004 69.0479 188.859 69.265 188.8C69.482 188.742 69.7135 188.775 69.9047 188.893L70.5347 189.26C72.8258 190.587 75.2773 191.961 77.6485 193.335L79.8021 194.582C79.9992 194.689 80.1424 194.874 80.1968 195.092C80.2513 195.309 80.212 195.54 80.0885 195.727C79.9367 195.991 79.6481 196.146 79.3439 196.127Z" fill="#D9D5CA"/>
<path d="M66.1244 188.55C65.9842 188.55 65.8464 188.514 65.7235 188.447C63.5355 187.188 60.6602 185.54 57.7047 183.869C57.322 183.641 57.1963 183.146 57.4241 182.764C57.6518 182.382 58.1468 182.256 58.5295 182.484C61.4277 184.2 64.2572 185.849 66.4795 187.062C66.7918 187.248 66.9429 187.618 66.8497 187.969C66.7566 188.32 66.4419 188.566 66.0786 188.573L66.1244 188.55Z" fill="#D9D5CA"/>
<path d="M54.4859 181.808C54.3448 181.804 54.2069 181.765 54.0849 181.694C51.9428 180.423 49.709 179.164 47.5439 177.928C45.1612 176.577 42.6869 175.169 40.3156 173.762C40.123 173.65 39.9846 173.464 39.9326 173.248C39.8807 173.032 39.9197 172.804 40.0407 172.617C40.1499 172.422 40.3357 172.281 40.5533 172.229C40.7708 172.177 41.0003 172.218 41.1862 172.342C43.546 173.75 46.0089 175.147 48.3916 176.497C50.5567 177.722 52.8019 179.004 54.9441 180.263C55.1412 180.37 55.2844 180.555 55.3388 180.772C55.3932 180.99 55.3539 181.22 55.2305 181.408C55.0749 181.668 54.7889 181.822 54.4859 181.808Z" fill="#D9D5CA"/>
<path d="M89.263 162.458C89.9418 162.842 89.939 163.821 89.2581 164.202L78.3875 170.273C78.0849 170.442 77.7163 170.443 77.4135 170.274L61.4901 161.411C60.8067 161.031 60.8049 160.049 61.4868 159.666L72.4604 153.503C72.7656 153.332 73.138 153.333 73.4426 153.505L89.263 162.458Z" fill="#D9D5CA"/>
<path d="M66.2275 161.675L72.4592 160.484V162.853H78.5993L76.5488 167.581L66.2275 161.675Z" fill="#F8F2E4"/>
<ellipse cx="75.5294" cy="160.278" rx="1.67248" ry="0.972923" fill="#F8F2E4"/>
<path d="M147.068 191.297L134.467 195.464C134.971 197.146 131.935 198.474 139.049 202.205L182.786 227.215C184.995 228.498 187.724 228.498 189.934 227.215L251.22 192.03C251.722 191.729 252.037 191.194 252.058 190.61C252.078 190.025 251.802 189.47 251.323 189.134L245.424 184.979L147.068 191.297Z" fill="#C2BEB5"/>
<path d="M249.227 189.168L246.535 190.725L188.972 224.136C187.462 225.007 185.601 225.007 184.092 224.136L135.865 196.665C134.524 195.899 134.352 190.656 135.67 189.798L192.614 159.568L195.661 157.748C197.19 156.856 199.082 156.856 200.61 157.748L249.227 183.148C250.613 183.914 250.613 188.39 249.227 189.168Z" fill="#E3DDD1"/>
<path d="M249.227 185.895L246.535 187.451L188.972 220.863C187.462 221.734 185.601 221.734 184.092 220.863L135.865 193.392C135.246 193.028 134.866 192.364 134.866 191.646C134.866 190.929 135.246 190.265 135.865 189.901L192.603 156.261L195.65 154.441C197.179 153.548 199.07 153.548 200.599 154.441L249.227 182.461C249.824 182.827 250.188 183.477 250.188 184.178C250.188 184.878 249.824 185.528 249.227 185.895Z" fill="#F8F2E4"/>
<path d="M249.227 185.895L246.535 187.451L192.569 156.284L195.616 154.464C197.144 153.571 199.036 153.571 200.564 154.464L249.227 182.461C249.824 182.827 250.188 183.477 250.188 184.178C250.188 184.878 249.824 185.528 249.227 185.895Z" fill="#D9D5CA"/>
<path d="M237.966 187.852C237.798 187.851 237.632 187.807 237.485 187.726C235.583 186.581 233.693 185.517 231.86 184.464C229.81 183.319 227.691 182.083 225.583 180.824C225.178 180.537 225.062 179.987 225.317 179.561C225.572 179.136 226.112 178.978 226.557 179.199C228.641 180.458 230.749 181.66 232.8 182.827C234.633 183.88 236.534 184.967 238.447 186.101C238.662 186.229 238.817 186.438 238.877 186.681C238.937 186.923 238.898 187.18 238.768 187.394C238.603 187.68 238.296 187.855 237.966 187.852Z" fill="#D9D5CA"/>
<path d="M222.009 178.603C221.844 178.601 221.683 178.558 221.539 178.477L217.427 176.085C216.978 175.823 216.826 175.246 217.089 174.798C217.351 174.349 217.928 174.198 218.378 174.46L222.479 176.852C222.697 176.974 222.856 177.179 222.921 177.421C222.985 177.662 222.95 177.919 222.822 178.134C222.653 178.423 222.344 178.601 222.009 178.603Z" fill="#D9D5CA"/>
<path d="M231.803 191.744C231.638 191.746 231.475 191.703 231.334 191.618L228.034 189.695C227.595 189.431 227.448 188.864 227.705 188.421C227.961 187.977 228.526 187.821 228.974 188.069L232.284 189.992C232.731 190.26 232.879 190.836 232.617 191.286C232.446 191.572 232.136 191.746 231.803 191.744Z" fill="#D9D5CA"/>
<path d="M224.437 187.463C224.273 187.46 224.111 187.417 223.968 187.337L221.173 185.723L220.142 185.128L211.275 179.988C210.873 179.705 210.754 179.161 211.001 178.735C211.249 178.31 211.78 178.143 212.226 178.352C215.17 180.08 218.183 181.785 221.092 183.502L222.112 184.086L224.907 185.711C225.356 185.971 225.51 186.545 225.251 186.993C225.081 187.282 224.772 187.46 224.437 187.463Z" fill="#D9D5CA"/>
<path d="M225.652 195.452C225.532 195.453 225.415 195.425 225.308 195.372C225.044 195.235 224.804 195.109 224.586 194.971L223.933 194.617C223.88 194.593 223.83 194.562 223.784 194.525C223.085 193.995 222.313 193.568 221.493 193.254H221.402C220.256 192.579 219.111 191.892 217.965 191.24C216.178 190.164 214.528 189.145 212.741 188.184C212.472 188.074 212.289 187.82 212.271 187.53C212.254 187.24 212.404 186.965 212.659 186.824C212.913 186.682 213.226 186.699 213.463 186.868C215.239 187.84 216.9 188.859 218.744 189.947C219.821 190.599 220.943 191.274 222.078 191.938C223.005 192.282 223.878 192.76 224.666 193.357C224.907 193.472 225.113 193.598 225.319 193.712L225.972 194.067C226.285 194.224 226.449 194.573 226.37 194.913C226.291 195.253 225.989 195.495 225.64 195.498L225.652 195.452Z" fill="#D9D5CA"/>
<path d="M209.213 186.101C209.057 186.102 208.903 186.063 208.766 185.986C207.243 185.151 205.788 184.304 204.413 183.468C204.127 183.292 203.956 182.977 203.965 182.641C203.974 182.305 204.162 182 204.458 181.84C204.753 181.68 205.112 181.69 205.399 181.866C206.75 182.69 208.182 183.514 209.671 184.338C210.05 184.544 210.239 184.981 210.131 185.398C210.023 185.815 209.644 186.105 209.213 186.101Z" fill="#D9D5CA"/>
<path d="M219.443 199.527C219.278 199.53 219.115 199.486 218.973 199.401L216.396 197.902C214.043 196.543 211.699 195.177 209.362 193.804L207.403 192.659C207.185 192.537 207.026 192.332 206.961 192.091C206.896 191.849 206.932 191.592 207.06 191.377C207.319 190.928 207.893 190.775 208.343 191.034L210.301 192.178L217.335 196.276L219.912 197.776C220.28 197.988 220.46 198.421 220.35 198.831C220.24 199.241 219.868 199.527 219.443 199.527Z" fill="#D9D5CA"/>
<path d="M203.909 190.473C203.745 190.47 203.584 190.427 203.44 190.347L200.347 188.539C200.129 188.416 199.969 188.211 199.905 187.97C199.84 187.729 199.875 187.471 200.003 187.257C200.263 186.808 200.837 186.654 201.286 186.913L204.391 188.722C204.834 188.985 204.987 189.554 204.734 190.004C204.561 190.294 204.248 190.472 203.909 190.473Z" fill="#D9D5CA"/>
<path d="M196.738 186.295C196.574 186.293 196.412 186.249 196.269 186.169C192.832 184.155 189.682 182.358 186.749 180.687C186.532 180.564 186.372 180.36 186.305 180.119C186.239 179.879 186.271 179.622 186.394 179.405C186.515 179.185 186.719 179.023 186.961 178.956C187.202 178.889 187.461 178.923 187.677 179.05L197.22 184.533C197.583 184.752 197.756 185.186 197.644 185.595C197.533 186.005 197.163 186.29 196.738 186.295Z" fill="#D9D5CA"/>
<path d="M183.404 178.603C183.266 178.602 183.129 178.57 183.004 178.512C182.568 178.306 182.202 178.077 181.858 177.871C181.492 177.63 181.109 177.415 180.712 177.23C180.603 177.183 180.502 177.117 180.415 177.035L180.151 176.76C178.652 176.027 177.202 175.197 175.81 174.277L175.145 173.933C174.637 173.706 174.157 173.422 173.713 173.086C173.362 172.755 173.32 172.211 173.616 171.829C173.912 171.447 174.45 171.352 174.859 171.61C175.216 171.861 175.601 172.072 176.004 172.239C176.268 172.377 176.543 172.503 176.818 172.674C178.196 173.581 179.631 174.399 181.113 175.124C181.204 175.17 181.289 175.228 181.365 175.295L181.617 175.547C182.041 175.755 182.454 175.984 182.855 176.234C183.177 176.435 183.509 176.618 183.851 176.783C184.077 176.892 184.249 177.086 184.331 177.322C184.413 177.559 184.397 177.818 184.287 178.042C184.136 178.393 183.786 178.615 183.404 178.603Z" fill="#D9D5CA"/>
<path d="M212.57 202.8C212.405 202.798 212.244 202.755 212.1 202.675L208.664 200.706C204.849 198.508 201.057 196.311 196.853 193.838C196.404 193.576 196.253 192.999 196.515 192.55C196.778 192.102 197.355 191.95 197.804 192.213L209.603 199.08L213.039 201.038C213.401 201.256 213.575 201.687 213.466 202.095C213.358 202.503 212.992 202.791 212.57 202.8Z" fill="#D9D5CA"/>
<path d="M193.371 191.618C193.202 191.621 193.035 191.577 192.889 191.492L189.59 189.569C186.096 187.543 182.373 185.425 177.883 182.907C177.665 182.784 177.505 182.58 177.439 182.34C177.372 182.099 177.404 181.842 177.528 181.625C177.648 181.405 177.853 181.244 178.094 181.177C178.336 181.11 178.594 181.144 178.811 181.27C183.313 183.788 187.036 185.906 190.53 187.943L193.84 189.866C194.289 190.126 194.443 190.699 194.184 191.148C194.018 191.44 193.707 191.62 193.371 191.618Z" fill="#D9D5CA"/>
<path d="M174.171 180.664C174.103 180.675 174.033 180.675 173.965 180.664C173.47 180.542 173.02 180.28 172.671 179.908L170.964 178.958C169.589 178.203 168.295 177.482 166.977 176.669C166.531 176.4 166.388 175.821 166.657 175.376C166.925 174.93 167.505 174.786 167.951 175.055C169.245 175.833 170.517 176.532 171.869 177.287L173.713 178.306C173.785 178.349 173.851 178.403 173.908 178.466C174.137 178.684 174.24 178.775 174.377 178.809C174.844 178.914 175.158 179.353 175.105 179.829C175.052 180.304 174.65 180.664 174.171 180.664Z" fill="#D9D5CA"/>
<path d="M206.418 206.692C206.254 206.69 206.092 206.646 205.949 206.566L201.538 204.025L201.172 203.819L196.91 201.37C196.452 201.106 195.96 200.843 195.478 200.591C194.465 200.066 193.478 199.489 192.523 198.863C190.713 197.627 188.731 196.517 186.795 195.429C185.97 194.971 185.111 194.491 184.287 194.01C183.996 193.84 183.818 193.528 183.82 193.192C183.822 192.856 184.003 192.546 184.295 192.379C184.588 192.213 184.947 192.215 185.237 192.385C186.051 192.854 186.898 193.335 187.712 193.781C189.659 194.926 191.675 196.001 193.554 197.283C194.45 197.875 195.379 198.414 196.338 198.897L197.815 199.71L202.077 202.16L202.455 202.377L206.854 204.907C207.234 205.114 207.424 205.554 207.312 205.972C207.201 206.391 206.817 206.679 206.384 206.669L206.418 206.692Z" fill="#D9D5CA"/>
<path d="M180.747 191.904C180.587 191.904 180.43 191.865 180.289 191.789C177.791 190.393 175.145 188.905 172.568 187.325C172.352 187.197 172.198 186.988 172.139 186.744C172.081 186.5 172.124 186.244 172.258 186.032C172.389 185.819 172.598 185.667 172.841 185.609C173.084 185.551 173.34 185.592 173.553 185.723C176.096 187.28 178.731 188.756 181.216 190.141C181.597 190.348 181.786 190.789 181.675 191.207C181.563 191.625 181.18 191.913 180.747 191.904Z" fill="#D9D5CA"/>
<path d="M168.867 185.059C168.701 185.058 168.539 185.01 168.398 184.922L165.603 183.308C164.045 182.426 162.441 181.511 160.86 180.561C160.414 180.295 160.268 179.719 160.534 179.273C160.799 178.827 161.376 178.681 161.822 178.947C163.392 179.885 164.984 180.79 166.531 181.671L169.383 183.296C169.829 183.564 169.977 184.14 169.715 184.59C169.543 184.893 169.216 185.074 168.867 185.059Z" fill="#D9D5CA"/>
<path d="M187.746 218.711C187.586 218.711 187.429 218.672 187.288 218.596L182.877 216.055L182.499 215.849C181.136 215.06 179.681 214.212 178.249 213.4L176.806 212.61C175.792 212.088 174.806 211.515 173.851 210.893C172.041 209.657 170.07 208.547 168.123 207.459L165.603 206.063C165.201 205.779 165.082 205.235 165.329 204.81C165.576 204.384 166.107 204.218 166.554 204.426C167.367 204.907 168.215 205.376 169.028 205.834C170.975 206.979 172.991 208.054 174.87 209.336C175.766 209.928 176.695 210.467 177.654 210.95L179.132 211.763L183.404 214.212L183.771 214.43L188.17 216.96C188.387 217.082 188.547 217.286 188.614 217.527C188.681 217.767 188.649 218.025 188.525 218.242C188.365 218.523 188.07 218.701 187.746 218.711Z" fill="#D9D5CA"/>
<path d="M162.086 203.934C161.924 203.938 161.765 203.894 161.628 203.808C159.131 202.423 156.473 200.935 153.895 199.355C153.682 199.225 153.53 199.015 153.472 198.773C153.414 198.53 153.455 198.274 153.586 198.062C153.716 197.849 153.926 197.697 154.169 197.639C154.412 197.581 154.668 197.622 154.881 197.753C157.424 199.309 160.058 200.786 162.544 202.171C162.923 202.377 163.112 202.814 163.004 203.231C162.896 203.648 162.517 203.938 162.086 203.934Z" fill="#D9D5CA"/>
<path d="M150.195 197.078C150.03 197.08 149.867 197.037 149.726 196.952C148.786 196.402 147.824 195.864 146.896 195.338C145.338 194.456 143.734 193.541 142.154 192.591C141.939 192.462 141.784 192.254 141.724 192.011C141.663 191.768 141.703 191.511 141.833 191.297C142.104 190.855 142.681 190.713 143.127 190.977C144.685 191.915 146.289 192.82 147.835 193.701L150.676 195.326C151.046 195.54 151.225 195.976 151.112 196.388C150.999 196.799 150.622 197.083 150.195 197.078Z" fill="#D9D5CA"/>
<path d="M200.267 210.584C200.097 210.583 199.93 210.536 199.786 210.447L197.277 208.993C194.516 207.402 191.698 205.788 188.972 204.243L188.25 203.819C188.03 203.699 187.868 203.495 187.801 203.253C187.734 203.012 187.768 202.753 187.895 202.537C188.155 202.09 188.725 201.932 189.178 202.182L189.911 202.606C192.637 204.163 195.455 205.765 198.216 207.368L200.736 208.821C201.098 209.04 201.272 209.471 201.163 209.879C201.054 210.287 200.689 210.574 200.267 210.584Z" fill="#D9D5CA"/>
<path d="M184.813 201.725C184.648 201.727 184.485 201.684 184.344 201.599C181.801 200.145 178.444 198.165 175.042 196.196C174.751 196.024 174.575 195.711 174.578 195.373C174.582 195.036 174.765 194.726 175.059 194.561C175.353 194.395 175.714 194.399 176.004 194.571C179.441 196.585 182.74 198.508 185.283 199.962C185.664 200.169 185.853 200.609 185.742 201.028C185.63 201.446 185.247 201.734 184.813 201.725Z" fill="#D9D5CA"/>
<path d="M171.216 193.907C171.049 193.906 170.887 193.858 170.746 193.77C168.237 192.304 165.637 190.816 163.117 189.386C160.322 187.806 157.389 186.169 154.663 184.51C154.449 184.383 154.294 184.177 154.234 183.936C154.173 183.695 154.212 183.44 154.342 183.228C154.61 182.782 155.187 182.634 155.637 182.896C158.386 184.532 161.261 186.169 164.045 187.749C166.576 189.191 169.188 190.668 171.697 192.156C172.142 192.419 172.29 192.992 172.029 193.438C171.86 193.726 171.551 193.905 171.216 193.907Z" fill="#D9D5CA"/>
<path d="M193.096 214.018C192.927 214.015 192.762 213.972 192.615 213.892L190.106 212.427L181.858 207.642L181.125 207.23C180.832 207.065 180.65 206.756 180.647 206.42C180.645 206.083 180.822 205.772 181.111 205.601C181.401 205.431 181.76 205.428 182.053 205.593L182.786 206.005C185.512 207.562 188.33 209.165 191.091 210.767C191.939 211.248 192.775 211.74 193.611 212.232C193.829 212.354 193.989 212.559 194.053 212.801C194.118 213.042 194.083 213.299 193.955 213.514C193.786 213.83 193.454 214.025 193.096 214.018Z" fill="#D9D5CA"/>
<path d="M177.688 205.158C177.526 205.163 177.367 205.119 177.23 205.033C174.675 203.579 171.319 201.599 167.917 199.63C167.47 199.362 167.322 198.786 167.585 198.337C167.713 198.122 167.922 197.967 168.165 197.907C168.408 197.847 168.665 197.886 168.879 198.016C172.316 200.019 175.615 201.954 178.158 203.407C178.375 203.53 178.535 203.734 178.602 203.974C178.668 204.215 178.636 204.472 178.513 204.689C178.341 204.981 178.027 205.16 177.688 205.158Z" fill="#D9D5CA"/>
<path d="M164.091 197.341C163.926 197.338 163.765 197.295 163.621 197.215C161.124 195.738 158.512 194.25 155.992 192.82C153.197 191.24 150.264 189.603 147.549 187.955C147.258 187.783 147.082 187.47 147.085 187.132C147.089 186.795 147.272 186.485 147.566 186.32C147.861 186.154 148.221 186.158 148.511 186.33C151.261 187.978 154.136 189.603 156.92 191.183C159.451 192.625 162.063 194.101 164.572 195.589C165.018 195.857 165.166 196.434 164.904 196.883C164.735 197.171 164.424 197.345 164.091 197.341Z" fill="#D9D5CA"/>
<path d="M212.097 171.409C212.776 171.793 212.774 172.772 212.092 173.152L199.058 180.427C198.755 180.595 198.387 180.596 198.084 180.427L179.148 169.893C178.465 169.512 178.463 168.53 179.145 168.147L192.295 160.76C192.6 160.589 192.972 160.589 193.277 160.762L212.097 171.409Z" fill="#D9D5CA"/>
<path fill-rule="evenodd" clip-rule="evenodd" d="M196.717 164.391C197.091 163.979 197.436 163.937 197.822 164.328C198.207 164.719 197.999 165.383 197.624 165.796L197.943 165.545L198.429 165.974L199.247 166.977L199.923 166.423C200.297 166.011 200.707 165.582 201.093 165.974C201.207 166.091 201.348 166.19 201.481 166.283C201.793 166.503 202.055 166.687 201.792 166.977L201.14 167.695C203.694 169.037 203.136 170.661 202.263 171.622C201.576 172.377 199.786 172.351 199.247 172.17L199.069 172.103L198.919 172.035L198.8 171.974L198.667 171.894L198.62 171.946L198.674 172.028L198.732 172.126L198.804 172.258L198.882 172.421C199.176 173.069 199.565 175.179 197.678 175.722C196.766 176.488 195.127 176.555 193.444 175.142L192.944 175.69C192.57 176.1 191.954 176.115 191.568 175.722C191.183 175.33 191.174 174.679 191.549 174.269L192.04 173.73L191.828 173.492L191.284 172.86L190.744 173.451C190.37 173.861 188.787 173.931 188.401 173.539C188.016 173.147 188.007 172.498 188.381 172.088L189.182 171.466L189.182 171.015C188.561 170.253 188.042 169.244 188.996 169.007L189.996 168.758L196.386 165.634L195.292 164.796C195.076 164.614 195.176 164.388 195.456 164.355L196.023 164.288C196.175 164.27 196.329 164.287 196.473 164.338L196.729 164.428L196.717 164.391ZM195.537 167.314C194.896 167.713 194.911 168.652 195.565 169.03L196.559 169.604C196.811 169.881 197.695 170.224 198.494 170.491C199.408 170.797 200.608 170.866 201.108 170.042C201.202 169.887 201.219 169.731 201.093 169.593L197.326 166.924C196.997 166.691 196.562 166.678 196.22 166.89L195.537 167.314ZM191.815 171.865C191.224 171.461 191.235 170.586 191.837 170.198L192.759 169.603C193.123 169.368 193.597 169.395 193.933 169.669L197.28 172.402C197.771 172.971 197.74 173.601 197.326 174.118C196.911 174.636 195.783 174.806 195.292 174.237L191.815 171.865Z" fill="#F8F2E4"/>
<path d="M270.201 212.221L261.564 215.082C261.919 216.227 259.834 217.143 264.714 219.661L294.739 236.83C296.254 237.712 298.127 237.712 299.642 236.83L341.74 212.679C342.106 212.488 342.342 212.115 342.356 211.703C342.37 211.29 342.161 210.902 341.809 210.687L337.754 207.825L270.201 212.221Z" fill="#C2BEB5"/>
<path d="M340.377 210.698L338.533 211.763L299.012 234.712C297.969 235.295 296.698 235.295 295.655 234.712L262.538 215.849C261.622 215.323 261.496 211.717 262.412 211.179L301.475 190.359L303.571 189.111C304.628 188.475 305.95 188.475 307.008 189.111L340.423 206.589C341.305 207.093 341.293 210.16 340.377 210.698Z" fill="#E3DDD1"/>
<path d="M340.377 208.455L338.533 209.531L299.012 232.423C297.974 233.025 296.693 233.025 295.655 232.423L262.538 213.56C262.112 213.312 261.851 212.856 261.851 212.364C261.851 211.871 262.112 211.416 262.538 211.168L301.486 188.069L303.582 186.822C304.64 186.186 305.962 186.186 307.019 186.822L340.434 206.017C340.871 206.274 341.134 206.747 341.122 207.253C341.11 207.759 340.825 208.219 340.377 208.455Z" fill="#F8F2E4"/>
<path d="M340.377 208.455L338.533 209.531L301.475 188.184L303.571 186.936C304.628 186.301 305.95 186.301 307.008 186.936L340.423 206.131C340.806 206.398 341.031 206.838 341.022 207.305C341.013 207.772 340.771 208.204 340.377 208.455Z" fill="#D9D5CA"/>
<path d="M332.61 209.794C332.493 209.798 332.377 209.766 332.278 209.703C330.984 208.936 329.678 208.192 328.418 207.413C327.158 206.635 325.565 205.777 324.11 204.907C323.794 204.723 323.686 204.318 323.87 204.002C324.053 203.686 324.459 203.579 324.775 203.762C326.218 204.62 327.662 205.456 329.059 206.257C330.457 207.059 331.637 207.722 332.943 208.547C333.09 208.632 333.198 208.774 333.241 208.939C333.284 209.105 333.259 209.281 333.172 209.428C333.064 209.642 332.85 209.782 332.61 209.794Z" fill="#D9D5CA"/>
<path d="M321.659 203.442C321.545 203.445 321.433 203.413 321.338 203.35L318.509 201.713C318.304 201.597 318.177 201.38 318.176 201.145C318.175 200.909 318.299 200.691 318.502 200.572C318.706 200.453 318.957 200.452 319.162 200.569L321.98 202.205C322.13 202.289 322.239 202.43 322.285 202.596C322.33 202.761 322.307 202.938 322.22 203.087C322.11 203.297 321.896 203.432 321.659 203.442Z" fill="#D9D5CA"/>
<path d="M328.383 212.473C328.27 212.47 328.16 212.439 328.062 212.381L325.771 211.065C325.463 210.881 325.356 210.486 325.531 210.172C325.715 209.863 326.114 209.76 326.424 209.943L328.715 211.259C328.968 211.409 329.089 211.709 329.012 211.992C328.934 212.275 328.677 212.472 328.383 212.473Z" fill="#D9D5CA"/>
<path d="M323.32 209.531C323.207 209.527 323.097 209.496 322.999 209.439L321.086 208.295L320.376 207.894L314.282 204.357C314.134 204.271 314.026 204.13 313.983 203.964C313.94 203.799 313.965 203.623 314.053 203.476C314.232 203.169 314.624 203.062 314.935 203.235L321.029 206.772L321.728 207.173L323.652 208.318C323.8 208.404 323.908 208.545 323.951 208.711C323.994 208.876 323.969 209.052 323.881 209.199C323.772 209.407 323.555 209.536 323.32 209.531Z" fill="#D9D5CA"/>
<path d="M324.156 215.014C324.077 215.012 323.998 214.992 323.927 214.956L323.423 214.682L322.976 214.441L322.873 214.373C322.386 214.009 321.85 213.716 321.281 213.503L318.99 212.106C317.764 211.374 316.607 210.675 315.404 210.012C315.155 209.876 315.062 209.563 315.198 209.313C315.339 209.062 315.655 208.971 315.908 209.107C317.123 209.771 318.291 210.481 319.528 211.225L321.819 212.587C322.452 212.83 323.05 213.157 323.595 213.56L324.042 213.812L324.488 214.052C324.615 214.111 324.711 214.219 324.754 214.352C324.798 214.484 324.784 214.628 324.718 214.75C324.616 214.959 324.382 215.069 324.156 215.014Z" fill="#D9D5CA"/>
<path d="M312.873 208.592C312.764 208.594 312.657 208.567 312.563 208.512C311.521 207.94 310.524 207.368 309.574 206.784C309.426 206.694 309.321 206.549 309.283 206.381C309.244 206.213 309.274 206.036 309.367 205.891C309.455 205.745 309.598 205.64 309.765 205.601C309.931 205.562 310.106 205.593 310.249 205.685C311.177 206.246 312.162 206.83 313.182 207.379C313.336 207.459 313.451 207.598 313.5 207.764C313.55 207.93 313.53 208.109 313.445 208.26C313.326 208.463 313.108 208.589 312.873 208.592Z" fill="#D9D5CA"/>
<path d="M319.929 217.818C319.816 217.817 319.705 217.786 319.609 217.726L317.833 216.696L312.999 213.881L311.659 213.102C311.349 212.919 311.246 212.519 311.429 212.209C311.515 212.062 311.657 211.954 311.823 211.911C311.988 211.868 312.164 211.893 312.311 211.98L313.652 212.77L318.486 215.575L320.25 216.605C320.501 216.754 320.622 217.051 320.548 217.332C320.473 217.614 320.221 217.812 319.929 217.818Z" fill="#D9D5CA"/>
<path d="M309.23 211.58C309.118 211.581 309.008 211.553 308.909 211.5L306.778 210.264C306.469 210.08 306.366 209.681 306.549 209.371C306.635 209.223 306.777 209.116 306.943 209.073C307.108 209.03 307.284 209.055 307.431 209.142L309.562 210.378C309.822 210.521 309.95 210.824 309.871 211.11C309.791 211.396 309.526 211.59 309.23 211.58Z" fill="#D9D5CA"/>
<path d="M304.304 208.787C304.191 208.783 304.081 208.752 303.983 208.695C301.601 207.31 299.458 206.086 297.442 204.93C297.135 204.75 297.028 204.358 297.202 204.048C297.286 203.899 297.427 203.789 297.592 203.744C297.758 203.698 297.935 203.722 298.084 203.808L304.636 207.574C304.889 207.724 305.01 208.024 304.932 208.307C304.855 208.59 304.598 208.786 304.304 208.787Z" fill="#D9D5CA"/>
<path d="M295.151 203.441C295.055 203.442 294.961 203.418 294.876 203.373C294.604 203.244 294.34 203.099 294.086 202.938C293.823 202.777 293.552 202.632 293.273 202.503C293.196 202.471 293.126 202.424 293.066 202.366L292.883 202.182C291.856 201.672 290.861 201.098 289.905 200.465L289.446 200.237C289.096 200.083 288.765 199.887 288.461 199.653C288.187 199.429 288.142 199.028 288.358 198.749C288.462 198.612 288.618 198.523 288.789 198.504C288.96 198.484 289.131 198.536 289.263 198.646C289.498 198.816 289.751 198.958 290.019 199.069C290.203 199.161 290.397 199.252 290.581 199.367C291.532 199.985 292.519 200.547 293.536 201.049C293.596 201.077 293.651 201.116 293.696 201.164L293.868 201.335C294.163 201.475 294.45 201.632 294.727 201.805C294.956 201.942 295.163 202.068 295.403 202.194C295.559 202.266 295.679 202.397 295.737 202.558C295.796 202.72 295.787 202.898 295.713 203.052C295.614 203.277 295.397 203.428 295.151 203.441Z" fill="#D9D5CA"/>
<path d="M315.187 220.05C315.074 220.053 314.963 220.026 314.866 219.97L312.518 218.619L304.407 213.926C304.098 213.743 303.995 213.343 304.178 213.033C304.264 212.886 304.406 212.778 304.571 212.735C304.737 212.692 304.913 212.717 305.06 212.804C307.947 214.487 310.547 215.998 313.159 217.497L315.507 218.848C315.814 219.027 315.921 219.419 315.748 219.729C315.629 219.926 315.417 220.047 315.187 220.05Z" fill="#D9D5CA"/>
<path d="M301.99 212.415C301.877 212.413 301.767 212.381 301.669 212.324L299.378 211.007C296.973 209.611 294.418 208.157 291.36 206.429C291.048 206.253 290.936 205.861 291.108 205.548C291.192 205.398 291.332 205.288 291.498 205.243C291.664 205.198 291.841 205.221 291.99 205.307C295.083 207.036 297.637 208.489 300.008 209.886L302.299 211.202C302.552 211.352 302.673 211.652 302.596 211.935C302.518 212.218 302.261 212.415 301.967 212.415H301.99Z" fill="#D9D5CA"/>
<path d="M288.805 204.861H288.668C288.328 204.783 288.02 204.603 287.786 204.346L286.64 203.693C285.701 203.178 284.807 202.686 283.902 202.137C283.586 201.95 283.481 201.543 283.667 201.227C283.854 200.911 284.262 200.806 284.578 200.992C285.46 201.53 286.331 202.011 287.27 202.526L288.53 203.224L288.668 203.339C288.816 203.487 288.885 203.545 288.988 203.568C289.301 203.652 289.504 203.952 289.467 204.273C289.429 204.594 289.163 204.839 288.839 204.85L288.805 204.861Z" fill="#D9D5CA"/>
<path d="M310.96 222.728C310.847 222.732 310.736 222.704 310.639 222.648L307.649 220.897L307.397 220.76L304.43 219.088L303.445 218.55C302.758 218.184 302.059 217.806 301.406 217.406C300.169 216.547 298.806 215.792 297.5 215.059L295.781 214.086C295.473 213.903 295.366 213.507 295.541 213.194C295.725 212.884 296.124 212.782 296.434 212.965C296.996 213.297 297.58 213.617 298.13 213.926C299.47 214.682 300.845 215.449 302.139 216.33C302.753 216.75 303.392 217.132 304.052 217.475L305.072 218.035L307.993 219.718L308.256 219.867L311.28 221.595C311.531 221.744 311.653 222.041 311.578 222.323C311.504 222.605 311.251 222.803 310.96 222.808V222.728Z" fill="#D9D5CA"/>
<path d="M293.33 212.576C293.218 212.576 293.108 212.549 293.009 212.496C291.302 211.534 289.481 210.515 287.705 209.439C287.404 209.248 287.312 208.851 287.499 208.547C287.587 208.401 287.729 208.296 287.895 208.255C288.06 208.214 288.235 208.241 288.381 208.329C290.134 209.394 291.944 210.412 293.639 211.362C293.791 211.444 293.903 211.584 293.951 211.75C293.998 211.916 293.977 212.094 293.891 212.244C293.782 212.452 293.565 212.581 293.33 212.576Z" fill="#D9D5CA"/>
<path d="M285.174 207.871C285.058 207.873 284.944 207.846 284.842 207.791L282.906 206.646C281.84 206.04 280.729 205.422 279.641 204.769C279.341 204.578 279.245 204.184 279.423 203.876C279.511 203.731 279.654 203.626 279.819 203.585C279.985 203.544 280.159 203.571 280.305 203.659C281.382 204.3 282.482 204.93 283.547 205.525L285.495 206.669C285.802 206.849 285.908 207.24 285.735 207.551C285.616 207.747 285.404 207.869 285.174 207.871Z" fill="#D9D5CA"/>
<path d="M298.13 230.992C298.017 230.989 297.907 230.957 297.809 230.901L294.785 229.161L294.533 229.012L291.611 227.341L290.615 226.792C289.918 226.449 289.241 226.067 288.587 225.647C287.35 224.8 285.987 224.045 284.681 223.358C284.108 223.049 283.535 222.717 282.963 222.385C282.656 222.206 282.549 221.814 282.722 221.504C282.808 221.356 282.95 221.248 283.115 221.205C283.281 221.162 283.457 221.187 283.604 221.275L285.311 222.236C286.651 222.98 288.026 223.758 289.32 224.64C289.937 225.055 290.576 225.437 291.233 225.784L292.253 226.334L295.174 228.016L295.426 228.165L298.45 229.905C298.603 229.987 298.715 230.127 298.76 230.294C298.806 230.461 298.781 230.639 298.691 230.786C298.549 230.943 298.339 231.02 298.13 230.992Z" fill="#D9D5CA"/>
<path d="M280.511 220.84C280.398 220.838 280.288 220.806 280.19 220.748C278.484 219.798 276.651 218.78 274.887 217.692C274.682 217.571 274.557 217.351 274.56 217.114C274.562 216.876 274.691 216.658 274.898 216.541C275.104 216.424 275.358 216.427 275.563 216.548C277.315 217.612 279.125 218.631 280.821 219.581C281.07 219.728 281.192 220.022 281.12 220.303C281.049 220.584 280.801 220.784 280.511 220.794V220.84Z" fill="#D9D5CA"/>
<path d="M272.344 216.135C272.231 216.132 272.121 216.1 272.023 216.044L270.087 214.899C269.01 214.293 267.91 213.663 266.822 213.011C266.506 212.827 266.398 212.422 266.582 212.106C266.765 211.79 267.17 211.683 267.487 211.866C268.563 212.518 269.663 213.137 270.717 213.743L272.676 214.888C272.986 215.071 273.088 215.471 272.905 215.781C272.801 215.996 272.583 216.133 272.344 216.135Z" fill="#D9D5CA"/>
<path d="M306.721 225.407C306.608 225.403 306.498 225.372 306.4 225.315L304.671 224.308L298.943 221.046L298.439 220.76C298.289 220.676 298.179 220.535 298.134 220.369C298.089 220.204 298.112 220.027 298.198 219.878C298.378 219.571 298.77 219.465 299.08 219.638L299.584 219.924L305.312 223.186L307.042 224.193C307.294 224.343 307.416 224.643 307.338 224.926C307.261 225.21 307.003 225.406 306.71 225.407H306.721Z" fill="#D9D5CA"/>
<path d="M296.113 219.317C296.002 219.318 295.891 219.291 295.793 219.237C294.052 218.23 291.738 216.948 289.401 215.517C289.255 215.429 289.15 215.287 289.109 215.122C289.068 214.956 289.095 214.782 289.183 214.636C289.269 214.488 289.411 214.381 289.576 214.338C289.742 214.295 289.918 214.32 290.065 214.407C292.356 215.792 294.647 217.108 296.446 218.116C296.753 218.295 296.86 218.687 296.686 218.997C296.565 219.197 296.348 219.319 296.113 219.317Z" fill="#D9D5CA"/>
<path d="M286.777 213.915C286.664 213.911 286.554 213.88 286.457 213.823C284.738 212.805 282.951 211.797 281.221 210.813C279.297 209.668 277.327 208.592 275.414 207.459C275.268 207.371 275.163 207.229 275.122 207.064C275.081 206.898 275.108 206.723 275.196 206.578C275.282 206.43 275.424 206.323 275.589 206.28C275.755 206.237 275.931 206.262 276.078 206.349C277.968 207.493 279.95 208.638 281.806 209.68C283.661 210.721 285.345 211.694 287.064 212.713C287.272 212.874 287.36 213.146 287.287 213.398C287.213 213.65 286.993 213.833 286.731 213.858L286.777 213.915Z" fill="#D9D5CA"/>
<path d="M301.83 227.765C301.717 227.761 301.607 227.729 301.509 227.673L299.779 226.666L294.052 223.404L293.548 223.117C293.398 223.033 293.288 222.893 293.243 222.727C293.197 222.561 293.221 222.385 293.307 222.236C293.486 221.929 293.879 221.823 294.189 221.996L294.693 222.282L300.421 225.556L302.151 226.551C302.46 226.735 302.563 227.134 302.38 227.444C302.268 227.642 302.058 227.765 301.83 227.765Z" fill="#D9D5CA"/>
<path d="M291.222 221.675C291.11 221.676 291 221.648 290.901 221.595C289.16 220.588 286.846 219.306 284.509 217.887C284.209 217.695 284.113 217.302 284.292 216.994C284.378 216.846 284.519 216.739 284.685 216.696C284.851 216.653 285.027 216.678 285.174 216.765C287.465 218.15 289.756 219.478 291.554 220.473C291.861 220.653 291.968 221.045 291.795 221.355C291.674 221.555 291.456 221.677 291.222 221.675Z" fill="#D9D5CA"/>
<path d="M281.886 216.273C281.773 216.269 281.663 216.237 281.565 216.181C279.847 215.174 278.06 214.155 276.33 213.171C274.406 212.026 272.435 210.95 270.522 209.817C270.206 209.634 270.098 209.229 270.282 208.913C270.465 208.597 270.87 208.489 271.187 208.672C273.077 209.817 275.058 210.962 276.914 212.015C278.77 213.068 280.454 214.018 282.172 215.036C282.38 215.198 282.469 215.469 282.395 215.722C282.322 215.974 282.102 216.156 281.84 216.181L281.886 216.273Z" fill="#D9D5CA"/>
<path d="M314.37 198.227C315.05 198.611 315.047 199.591 314.366 199.971L306.051 204.612C305.748 204.781 305.38 204.781 305.077 204.613L292.716 197.73C292.033 197.349 292.031 196.367 292.713 195.984L301.098 191.275C301.403 191.104 301.775 191.105 302.08 191.277L314.37 198.227Z" fill="#D9D5CA"/>
<path d="M297 196.19L303.232 195V197.369H309.372L307.321 202.097L297 196.19Z" fill="#F8F2E4"/>
<path d="M58.5754 173.785C58.5754 177.573 56.2042 180.973 51.9084 183.376C43.3321 187.634 33.2554 187.634 24.6791 183.376C20.3833 180.973 18.0121 177.573 18.0121 173.785C17.9153 171.878 17.9153 169.968 18.0121 168.062L18.1152 168.405C18.098 168.679 18.098 168.955 18.1152 169.229C18.116 170.002 18.2161 170.771 18.413 171.518C19.1805 174.368 21.3685 176.909 24.7822 178.809C33.3585 183.067 43.4352 183.067 52.0115 178.809C55.4481 176.909 57.6132 174.368 58.3807 171.518C58.5776 170.771 58.6777 170.002 58.6785 169.229C58.6956 168.905 58.6956 168.58 58.6785 168.256C58.6785 168.199 58.6785 168.13 58.6785 168.062C58.7412 169.97 58.7068 171.88 58.5754 173.785Z" fill="#4D4C4A"/>
<path d="M26.6607 163.266L22.9378 165.292C22.2802 165.663 21.4761 165.663 20.8185 165.292L1.14969 154.017C0.441552 153.609 0.00498909 152.854 0.00415039 152.037V148.809C0.00498909 149.626 0.441552 150.381 1.14969 150.789L20.8185 162.064C21.4761 162.435 22.2802 162.435 22.9378 162.064L25.0341 160.919L26.6722 161.869C26.9234 162.013 27.0774 162.281 27.075 162.571C27.0727 162.86 26.9143 163.126 26.6607 163.266Z" fill="#4D4C4A"/>
<path opacity="0.32" d="M29.2841 159.74L20.6926 166.734L21.3341 173.739L25.9163 177.436L39.9491 179.931C39.9491 179.931 48.4146 178.718 48.4948 178.684C48.5749 178.649 54.2224 175.17 54.2224 175.17L56.3531 171.427V167.993L55.368 165.04C54.4718 163.864 53.4543 162.786 52.3323 161.823C51.108 161.257 49.8399 160.79 48.5406 160.427L44.325 158.264C44.325 158.264 39.5023 158.744 39.1816 158.79C38.8608 158.836 31.3346 158.928 29.2841 159.74Z" fill="url(#paint0_linear_0_6800)"/>
<path fill-rule="evenodd" clip-rule="evenodd" d="M51.9086 159.637C55.8377 161.823 58.1517 164.811 58.5183 168.245C58.5698 168.567 58.6042 168.892 58.6214 169.218C58.6205 169.99 58.5204 170.76 58.3235 171.507C57.556 174.357 55.391 176.898 51.9544 178.798C43.3781 183.056 33.3013 183.056 24.725 178.798C21.3113 176.898 19.1233 174.357 18.3558 171.507C18.159 170.76 18.0589 169.99 18.058 169.218C18.0409 168.943 18.0409 168.668 18.058 168.393C18.3673 164.937 20.6927 161.858 24.6792 159.637C33.2517 155.363 43.336 155.363 51.9086 159.637ZM23.4076 173.739C26.2486 176.68 31.8502 178.683 38.2996 178.683C47.6701 178.683 55.265 174.448 55.2764 169.218C55.2746 168.482 55.1266 167.755 54.8411 167.077C51.9887 164.135 46.3871 162.132 39.9492 162.132C30.5787 162.132 22.9723 166.367 22.9723 171.598C22.9742 172.334 23.1221 173.061 23.4076 173.739Z" fill="#272727"/>
<path d="M58.5183 168.245L58.0211 168.298L58.0225 168.311L58.0246 168.324L58.5183 168.245ZM51.9086 159.637L52.1517 159.2L52.1418 159.195L52.1316 159.19L51.9086 159.637ZM58.6214 169.218L59.1214 169.218L59.1214 169.205L59.1207 169.191L58.6214 169.218ZM58.3235 171.507L58.8064 171.637L58.807 171.634L58.3235 171.507ZM51.9544 178.798L52.1767 179.246L52.1866 179.241L52.1963 179.236L51.9544 178.798ZM24.725 178.798L24.4818 179.235L24.4921 179.241L24.5027 179.246L24.725 178.798ZM18.3558 171.507L17.8723 171.634L17.873 171.637L18.3558 171.507ZM18.058 169.218L18.558 169.217L18.558 169.202L18.557 169.186L18.058 169.218ZM18.058 168.393L17.5598 168.349L17.559 168.362L18.058 168.393ZM24.6792 159.637L24.4561 159.19L24.4459 159.195L24.4359 159.2L24.6792 159.637ZM23.4076 173.739L22.9469 173.933L22.9831 174.019L23.048 174.086L23.4076 173.739ZM55.2764 169.218L55.7764 169.219L55.7764 169.216L55.2764 169.218ZM54.8411 167.077L55.3019 166.883L55.2654 166.796L55.2001 166.729L54.8411 167.077ZM22.9723 171.598H22.4723L22.4723 171.6L22.9723 171.598ZM59.0155 168.192C58.6264 164.547 56.173 161.438 52.1517 159.2L51.6654 160.074C55.5025 162.209 57.6771 165.075 58.0211 168.298L59.0155 168.192ZM59.1207 169.191C59.1026 168.848 59.0663 168.505 59.012 168.166L58.0246 168.324C58.0733 168.628 58.1058 168.936 58.1221 169.244L59.1207 169.191ZM58.807 171.634C59.0148 170.846 59.1205 170.034 59.1214 169.218L58.1214 169.217C58.1206 169.947 58.026 170.674 57.84 171.379L58.807 171.634ZM52.1963 179.236C55.7177 177.289 57.9946 174.651 58.8063 171.637L57.8407 171.377C57.1174 174.063 55.0642 176.507 51.7124 178.36L52.1963 179.236ZM24.5027 179.246C33.219 183.573 43.4603 183.573 52.1767 179.246L51.732 178.35C43.2958 182.538 33.3836 182.538 24.9474 178.35L24.5027 179.246ZM17.873 171.637C18.6851 174.652 20.9858 177.289 24.4818 179.235L24.9682 178.361C21.6368 176.507 19.5616 174.062 18.8386 171.377L17.873 171.637ZM17.558 169.218C17.5589 170.034 17.6646 170.846 17.8723 171.634L18.8393 171.379C18.6534 170.674 18.5588 169.947 18.558 169.217L17.558 169.218ZM17.559 168.362C17.5406 168.657 17.5406 168.953 17.559 169.249L18.557 169.186C18.5412 168.933 18.5412 168.678 18.557 168.424L17.559 168.362ZM24.4359 159.2C20.355 161.473 17.8885 164.677 17.56 168.349L18.556 168.438C18.8461 165.196 21.0305 162.242 24.9225 160.074L24.4359 159.2ZM52.1316 159.19C43.4186 154.846 33.1691 154.846 24.4561 159.19L24.9023 160.085C33.3343 155.881 43.2534 155.881 51.6855 160.085L52.1316 159.19ZM38.2996 178.183C31.9272 178.183 26.4798 176.2 23.7673 173.391L23.048 174.086C26.0173 177.161 31.7733 179.183 38.2996 179.183V178.183ZM54.7764 169.216C54.7713 171.57 53.0545 173.802 50.0541 175.475C47.0702 177.139 42.9159 178.183 38.2996 178.183V179.183C43.0537 179.183 47.3822 178.11 50.5411 176.349C53.6837 174.596 55.7701 172.096 55.7764 169.219L54.7764 169.216ZM54.3804 167.271C54.6401 167.888 54.7748 168.55 54.7764 169.219L55.7764 169.216C55.7744 168.415 55.6131 167.622 55.3019 166.883L54.3804 167.271ZM39.9492 162.632C46.3096 162.632 51.7578 164.615 54.4822 167.425L55.2001 166.729C52.2197 163.655 46.4645 161.632 39.9492 161.632V162.632ZM23.4723 171.598C23.4723 169.246 25.1883 167.014 28.1902 165.34C31.1757 163.677 35.3328 162.632 39.9492 162.632V161.632C35.195 161.632 30.8638 162.706 27.7034 164.467C24.5596 166.219 22.4723 168.72 22.4723 171.598H23.4723ZM23.8684 173.545C23.6086 172.928 23.474 172.266 23.4723 171.597L22.4723 171.6C22.4743 172.401 22.6356 173.194 22.9469 173.933L23.8684 173.545Z" fill="#272727"/>
<path d="M54.8294 167.077C51.9541 164.136 46.3525 162.132 39.9375 162.132C30.567 162.132 22.9607 166.368 22.9607 171.598C22.9625 172.334 23.1104 173.061 23.396 173.739C22.143 172.561 21.4061 170.936 21.3455 169.218C21.3455 163.987 28.9404 159.74 38.3223 159.74C46.3525 159.74 53.0997 162.876 54.8294 167.077Z" fill="#4D4C4A"/>
<path d="M26.6609 160.038L25.0342 160.93L22.9379 162.075C22.2803 162.446 21.4762 162.446 20.8186 162.075L1.1498 150.801C0.441666 150.392 0.00510263 149.637 0.00426393 148.82C-0.00142131 148.717 -0.00142131 148.614 0.00426393 148.511C0.108616 147.811 0.531575 147.198 1.1498 146.852L1.72257 146.531C2.94407 145.821 4.45316 145.821 5.67466 146.531L26.6838 158.641C26.9339 158.787 27.0857 159.057 27.081 159.346C27.0762 159.636 26.9156 159.9 26.6609 160.038Z" fill="#272727" stroke="#272727"/>
<ellipse cx="45.1269" cy="174.987" rx="1.75267" ry="0.709662" fill="url(#paint1_linear_0_6800)"/>
<path d="M155.293 169.767C155.185 169.769 155.078 169.741 154.984 169.687L148.317 166.013C144.323 163.829 139.479 163.881 135.533 166.15L132.291 168.039C132.086 168.157 131.834 168.158 131.629 168.04C131.423 167.922 131.297 167.704 131.296 167.468C131.296 167.231 131.422 167.013 131.626 166.894L134.868 165.005C139.21 162.496 144.549 162.435 148.947 164.845L155.614 168.508C155.932 168.688 156.049 169.089 155.877 169.412C155.765 169.631 155.539 169.768 155.293 169.767Z" fill="#E2DED0"/>
<path d="M128.946 187.634C128.828 187.638 128.712 187.606 128.613 187.543L124.123 184.956C123.839 184.759 123.754 184.377 123.928 184.078C124.101 183.779 124.475 183.663 124.787 183.811L129.266 186.398C129.586 186.578 129.699 186.983 129.518 187.303C129.402 187.509 129.183 187.636 128.946 187.634Z" fill="#E2DED0"/>
<path d="M120.698 208.638C120.581 208.636 120.467 208.605 120.366 208.546L102.701 198.359C102.418 198.162 102.333 197.78 102.506 197.482C102.68 197.183 103.054 197.067 103.366 197.215L120.698 207.219L125.612 204.437C125.818 204.283 126.094 204.262 126.322 204.382C126.549 204.503 126.686 204.743 126.674 205C126.662 205.257 126.503 205.483 126.265 205.582L121.03 208.558C120.928 208.613 120.814 208.64 120.698 208.638Z" fill="#E2DED0"/>
<path d="M256.604 205.891C256.487 205.889 256.373 205.858 256.272 205.8L251.793 203.213C251.479 203.028 251.367 202.628 251.541 202.308C251.725 201.993 252.129 201.886 252.446 202.068L256.936 204.655C257.09 204.741 257.202 204.886 257.248 205.056C257.293 205.227 257.267 205.408 257.177 205.559C257.057 205.762 256.84 205.888 256.604 205.891Z" fill="#E2DED0"/>
<path d="M248.459 229.253C248.342 229.256 248.226 229.224 248.127 229.161L223.292 214.83C223.139 214.746 223.027 214.604 222.981 214.435C222.936 214.267 222.961 214.087 223.051 213.938C223.232 213.619 223.637 213.506 223.956 213.686L248.471 227.833L253.374 225.052C253.693 224.872 254.098 224.985 254.279 225.304C254.365 225.455 254.386 225.635 254.339 225.803C254.292 225.97 254.179 226.112 254.027 226.197L248.792 229.173C248.689 229.227 248.575 229.255 248.459 229.253Z" fill="#E2DED0"/>
<path d="M281.485 191.137C281.364 191.141 281.244 191.109 281.141 191.045L274.91 187.2C272.285 185.587 268.997 185.504 266.295 186.982L263.832 188.321C263.679 188.406 263.498 188.426 263.33 188.377C263.162 188.327 263.021 188.212 262.939 188.058C262.854 187.905 262.834 187.724 262.883 187.556C262.933 187.389 263.048 187.248 263.202 187.165L265.654 185.815C268.779 184.111 272.578 184.212 275.608 186.078L281.829 189.912C281.979 190.005 282.087 190.153 282.128 190.325C282.169 190.497 282.139 190.678 282.046 190.828C281.926 191.022 281.713 191.139 281.485 191.137Z" fill="#E2DED0"/>
<path d="M126.964 47.6646C121.586 58.5855 110.774 64.5647 101.718 61.8345C100.924 61.6054 100.151 61.3086 99.4094 60.9472L99.0084 60.7561C89.9664 56.0737 87.2704 43.0096 93.0357 31.3106C98.801 19.6115 111.23 13.4685 120.59 17.9734C121.24 18.2793 121.864 18.6354 122.457 19.0382C130.324 24.4167 132.397 36.6482 126.964 47.6646Z" fill="#272727" stroke="#272727" stroke-width="3"/>
<path d="M122 19.1689C121.405 18.7603 120.779 18.3991 120.127 18.0887C110.735 13.5185 98.3461 19.5844 92.4777 31.6192C86.6093 43.6541 89.4672 56.7415 98.4709 61.4917C96.0431 60.4807 92.8245 59.1374 92.4638 58.9573C83.0577 54.401 80.1721 40.538 86.0405 28.4893C91.9089 16.4407 104.395 10.7764 113.676 14.7511C116.613 15.8961 119.407 17.3787 122 19.1689Z" fill="#4D4C4A"/>
<path d="M104.784 26.5327L103 55.4917L120 45.0001V39.8165L107.735 46.7971L109.603 23.4917L104.784 26.5327Z" fill="white"/>
<path d="M100.184 40.0285L112 28.4917V32.9955L100 44.4917L100.184 40.0285Z" fill="white"/>
<path d="M180.421 68.8899C175.85 78.1649 166.61 83.194 158.958 80.968C158.286 80.7628 157.629 80.5103 156.993 80.2123L156.659 80.0474C148.966 76.0763 146.68 64.9326 151.586 55.053C156.491 45.1734 167.042 39.9382 175.014 43.7307C175.561 43.9928 176.088 44.296 176.589 44.6376C183.278 49.1583 185.034 59.5325 180.421 68.8899Z" fill="#272727" stroke="#272727" stroke-width="2"/>
<path d="M177 44.2089C176.5 43.8687 175.974 43.5667 175.427 43.3056C167.466 39.5008 156.999 44.551 152.03 54.5829C147.061 64.6149 149.413 75.5227 157.096 79.4917C155.036 78.6568 152.308 77.5346 152.002 77.384C144.054 73.5793 141.604 62.0145 146.573 51.9826C151.542 41.9507 162.107 37.2289 169.957 40.541C172.442 41.49 174.805 42.7209 177 44.2089Z" fill="#4D4C4A"/>
<path d="M166.913 65.5429L172 59.4917L166.507 74.4917L161 65.0577L166.087 65.9742C166.232 65.9853 166.377 65.9573 166.507 65.8933C166.665 65.8033 166.803 65.6842 166.913 65.5429Z" fill="white"/>
<path d="M172 57.3309L166.507 64.4917L161 63.4148L166.547 46.4917L172 57.3309Z" fill="white"/>
<path d="M80.4291 106.569C75.8493 116.078 66.6073 121.236 58.9606 118.956C58.2856 118.75 57.6279 118.489 56.9939 118.177L56.6639 118.01C48.9622 113.937 46.6792 102.565 51.589 92.3888C56.4988 82.2123 67.0474 76.86 74.9691 80.7804C75.5204 81.0472 76.0493 81.3587 76.5507 81.7119C83.276 86.3413 85.0364 96.9765 80.4291 106.569Z" fill="#272727" stroke="#272727" stroke-width="3"/>
<path d="M77 81.3444C76.4986 80.9927 75.9697 80.6825 75.4185 80.4169C67.456 76.5128 56.963 81.6905 52.0397 91.9768C47.1164 102.263 49.413 113.435 57.1143 117.492C55.0514 116.633 52.3148 115.484 52.0122 115.332C44.0497 111.428 41.6018 99.5911 46.5801 89.3049C51.5584 79.0186 62.1338 74.1731 69.9589 77.565C72.4458 78.5407 74.8093 79.8094 77 81.3444Z" fill="#4D4C4A"/>
<path d="M58.0415 98.4918L70.3373 91.7634C70.6122 91.5984 70.9568 91.6036 71.2266 91.7768C71.4964 91.95 71.6449 92.2613 71.6097 92.5802L71.5406 99.9178L58.0277 107.338V111.492L73.3524 103.06C74.4076 102.421 75.0367 101.262 74.9983 100.029L74.8324 90.5589C74.9187 89.4924 74.3984 88.4679 73.4866 87.9093C72.5749 87.3506 71.4268 87.3527 70.5171 87.9147L58 94.74L58.0415 98.4918Z" fill="white"/>
<path d="M62.8853 102.216L55 106.492L55.129 102.754L63 98.4917L62.8853 102.216Z" fill="white"/>
<path d="M143.657 119.695C137.744 132.118 125.782 138.757 115.887 135.789C115.015 135.526 114.165 135.193 113.345 134.796L112.91 134.561C102.96 129.274 99.9963 114.491 106.344 101.254C112.692 88.0168 126.299 81.0738 136.657 86.1672C137.367 86.521 138.052 86.9222 138.71 87.368C147.355 93.4 149.638 107.231 143.657 119.695Z" fill="#272727" stroke="#272727" stroke-width="4.12062"/>
<path d="M139 87.7016C138.339 87.2595 137.65 86.8618 136.936 86.511C126.575 81.4611 112.921 88.1532 106.456 101.469C99.9906 114.785 103.052 129.25 113.057 134.492C110.324 133.383 106.825 131.891 106.428 131.755C96.0677 126.705 92.883 111.377 99.3481 98.0614C105.813 84.7455 119.591 78.4914 129.815 82.8843C133.056 84.1216 136.139 85.7386 139 87.7016Z" fill="#4D4C4A"/>
<path fill-rule="evenodd" clip-rule="evenodd" d="M130.736 106.801C131.549 105.873 132.281 104.877 132.922 103.826C134.027 102.1 134.709 100.143 134.914 98.1107C135.165 94.2683 132.727 92.6019 129.496 94.4611L127.894 95.3838L128.006 92.4917L125.638 93.8689L125.541 96.7472L123.368 98.0005L122.616 98.4274L122.685 95.5766L120.346 96.9538V99.7909L119.078 100.521L116 102.297V105.768L119.036 104.033L118.8 123.988L116.014 125.544V128.492L119.969 126.329V128.437L122.073 127.294V125.09L124.719 123.616V125.847L126.836 124.691L126.933 122.446L128.786 121.427C132.159 119.32 134.406 115.836 134.914 111.924L134.984 110.877C135.193 107.834 133.368 106.057 130.736 106.801ZM127.101 99.3502C129.287 98.1107 130.959 98.9645 130.847 101.237C130.724 102.497 130.278 103.706 129.552 104.749C128.861 105.875 127.906 106.82 126.766 107.503L123.034 109.61L123.256 101.609L127.101 99.3502ZM126.878 119.471C129.37 117.977 131.041 115.443 131.418 112.585L131.432 112.613C131.557 110.079 129.691 109.087 127.254 110.464L122.853 112.943L122.616 121.826L126.878 119.471Z" fill="white"/>
<path d="M166.5 153.771L139.385 138.333C138.887 137.928 138.749 137.225 139.059 136.663C139.368 136.101 140.036 135.84 140.645 136.044L168.023 151.63C168.203 151.724 168.36 151.857 168.482 152.02L166.5 153.771Z" fill="#272727"/>
<ellipse cx="141.941" cy="137.88" rx="4.34158" ry="4.33809" fill="#272727"/>
<ellipse cx="168.533" cy="154.062" rx="4.34158" ry="4.33809" fill="#272727"/>
<ellipse cx="323.332" cy="108.558" rx="4.26139" ry="4.25797" fill="#272727"/>
<ellipse cx="259.3" cy="163.243" rx="4.26139" ry="4.25797" fill="#272727"/>
<path d="M261.002 161.316C260.967 160.733 261.324 160.199 261.876 160.007L298.176 139.705L322.37 107.722C322.86 107.195 323.686 107.164 324.214 107.654C324.467 107.887 324.616 108.212 324.629 108.555C324.642 108.899 324.517 109.234 324.283 109.485L299.86 141.708C299.709 141.866 299.525 141.987 299.321 142.063L262.724 162.513C262.495 162.576 262.254 162.576 262.025 162.513C261.455 162.388 261.037 161.899 261.002 161.316Z" fill="#272727"/>
<path d="M367 62.6475V105.857C366.998 106.33 366.744 106.767 366.333 107.003C365.923 107.239 365.417 107.238 365.007 107.001L303.801 71.6785C303.031 71.2399 302.555 70.4235 302.552 69.5381V26.3289C302.554 25.8554 302.808 25.4188 303.219 25.1829C303.63 24.947 304.135 24.9475 304.545 25.1842L365.751 60.5071C366.521 60.9457 366.997 61.7621 367 62.6475Z" fill="#F8BF30"/>
<path d="M367 62.6475V67.6609L302.552 30.4838V26.3289C302.554 25.8554 302.808 25.4188 303.219 25.1829C303.63 24.947 304.135 24.9475 304.545 25.1842L365.751 60.5071C366.521 60.9457 366.997 61.7621 367 62.6475Z" fill="#121212"/>
<path d="M362.189 73.8417C361.995 73.8441 361.805 73.7925 361.639 73.6929C359.795 72.5483 357.756 71.4037 355.212 70.0187C354.877 69.8306 354.667 69.4779 354.662 69.0934C354.658 68.7089 354.859 68.3512 355.189 68.1548C355.52 67.9585 355.931 67.9534 356.266 68.1415C358.821 69.5608 360.848 70.7398 362.739 71.8501C363.165 72.09 363.373 72.5893 363.243 73.0606C363.113 73.5319 362.678 73.8541 362.189 73.8417Z" fill="white"/>
<path d="M350.424 67.2144C350.243 67.2136 350.066 67.1663 349.909 67.0771C348.305 66.1957 346.758 65.3258 345.223 64.433L341.959 62.5444C337.64 60.0377 333.184 57.4509 328.831 54.8183C328.322 54.5022 328.165 53.8334 328.481 53.3245C328.798 52.8157 329.467 52.6594 329.976 52.9754C334.295 55.5966 338.751 58.1834 343.07 60.6787C344.147 61.3197 345.235 61.9492 346.323 62.5788C347.835 63.4601 349.382 64.3186 350.974 65.1999C351.401 65.4393 351.613 65.9369 351.489 66.4106C351.365 66.8843 350.937 67.2147 350.447 67.2144H350.424Z" fill="white"/>
<path d="M324.546 52.243C324.362 52.2402 324.182 52.1931 324.02 52.1056C322.026 50.961 319.77 49.6791 317.639 48.317C317.27 48.1343 317.038 47.7577 317.041 47.3465C317.043 46.9354 317.28 46.5616 317.651 46.3834C318.021 46.2052 318.461 46.2537 318.784 46.5085C320.858 47.8362 323.092 49.1182 325.062 50.2399C325.479 50.4854 325.681 50.9789 325.556 51.4462C325.43 51.9134 325.008 52.2394 324.524 52.243H324.546Z" fill="white"/>
<path d="M313.297 45.6385C313.121 45.6418 312.947 45.5984 312.793 45.5126C311.121 44.6313 309.494 43.6698 307.925 42.7312L306.195 41.7125C305.708 41.3914 305.54 40.7554 305.806 40.2359C305.947 39.988 306.182 39.8079 306.459 39.7367C306.735 39.6655 307.028 39.7094 307.272 39.8582C307.852 40.194 308.436 40.5374 309.025 40.8884C310.571 41.8041 312.186 42.7541 313.801 43.624C314.326 43.9024 314.526 44.5529 314.248 45.0777C314.048 45.415 313.69 45.6266 313.297 45.6385Z" fill="white"/>
<path d="M349.256 75.7076C349.069 75.7101 348.886 75.6584 348.729 75.5588L344.926 73.3955C340.183 70.6713 335.578 68.0043 331.695 65.7495C331.326 65.5765 331.087 65.2109 331.076 64.8043C331.065 64.3978 331.285 64.0199 331.643 63.8276C332.002 63.6353 332.438 63.6615 332.771 63.8952C336.655 66.1844 341.26 68.8056 346.002 71.5298L349.794 73.6931C350.223 73.9335 350.435 74.4342 350.308 74.9093C350.181 75.3845 349.748 75.7131 349.256 75.7076Z" fill="white"/>
<path d="M326.861 62.7847C326.673 62.7838 326.488 62.7366 326.322 62.6474L321.9 60.0834C317.227 57.3707 311.705 54.1772 306.195 51.0295C305.862 50.8373 305.656 50.4819 305.656 50.0972C305.656 49.7125 305.861 49.3568 306.194 49.1643C306.528 48.9718 306.938 48.9716 307.272 49.1638C312.77 52.3115 318.303 55.505 322.977 58.2177L327.399 60.7816C327.647 60.9251 327.828 61.1617 327.901 61.4389C327.974 61.7161 327.934 62.011 327.788 62.2582C327.596 62.587 327.242 62.7878 326.861 62.7847Z" fill="white"/>
<path d="M345.945 81.8769C345.755 81.8777 345.569 81.8262 345.407 81.7281L340.034 78.5918C339.577 78.271 339.441 77.6542 339.722 77.1714C340.002 76.6886 340.605 76.5002 341.111 76.7376L346.495 79.8738C346.914 80.1204 347.116 80.6169 346.987 81.0855C346.858 81.5541 346.431 81.8784 345.945 81.8769Z" fill="white"/>
<path d="M335.658 75.8791C335.468 75.8799 335.282 75.8284 335.12 75.7303L331.981 73.9103C327.834 71.5181 324.191 69.4349 320.846 67.5692C320.328 67.2784 320.143 66.6224 320.434 66.1041C320.725 65.5857 321.382 65.4012 321.9 65.692C325.245 67.5692 328.9 69.6524 333.058 72.0561L336.208 73.876C336.719 74.1746 336.893 74.8287 336.598 75.3411C336.394 75.6663 336.042 75.8682 335.658 75.8791Z" fill="white"/>
<path d="M315.898 64.5474C315.708 64.5483 315.522 64.4968 315.359 64.3986L312.587 62.7733C310.525 61.56 308.394 60.3124 306.218 59.1334C305.72 58.8275 305.532 58.1961 305.783 57.6683C306.092 57.175 306.723 56.9927 307.249 57.2448C309.46 58.3894 311.602 59.7057 313.675 60.9305L316.436 62.5444C316.684 62.6856 316.864 62.9202 316.937 63.1955C317.011 63.4709 316.97 63.7641 316.826 64.0095C316.638 64.3444 316.282 64.5506 315.898 64.5474Z" fill="white"/>
<path d="M335.658 83.2277C335.468 83.2285 335.282 83.1771 335.12 83.0789L331.981 81.259C327.834 78.8667 324.191 76.795 320.846 74.9178C320.473 74.7512 320.226 74.3877 320.21 73.9795C320.193 73.5713 320.409 73.1888 320.767 72.9921C321.126 72.7955 321.565 72.8187 321.9 73.0521C325.245 74.9178 328.9 77.001 333.058 79.4047L336.208 81.2246C336.627 81.4712 336.829 81.9678 336.7 82.4364C336.572 82.905 336.145 83.2293 335.658 83.2277Z" fill="white"/>
<path d="M315.898 71.896C315.71 71.8951 315.525 71.8479 315.359 71.7587L312.587 70.1562C310.525 69.0116 308.395 67.6953 306.218 66.5163C305.871 66.3374 305.648 65.9846 305.635 65.5945C305.623 65.2043 305.823 64.838 306.158 64.6373C306.493 64.4366 306.91 64.4329 307.249 64.6277C309.46 65.7723 311.602 67.0886 313.675 68.3134L316.436 69.9273C316.685 70.0708 316.865 70.3073 316.938 70.5846C317.012 70.8618 316.971 71.1567 316.826 71.4038C316.628 71.723 316.273 71.9111 315.898 71.896Z" fill="white"/>
<path fill-rule="evenodd" clip-rule="evenodd" d="M357.893 103.27L360.791 105.376C361.177 105.664 361.403 106.119 361.398 106.601L361.043 109.554C360.997 109.943 360.642 110.034 360.253 109.748L357.355 107.642C357.152 108.048 356.876 108.412 356.541 108.718L358.351 112.301C358.58 112.782 358.534 113.228 358.225 113.308L355.934 113.903C355.625 113.983 355.178 113.651 354.937 113.182L353.139 109.599C352.595 109.512 352.065 109.358 351.558 109.142L351.203 112.083C351.157 112.484 350.802 112.575 350.413 112.289L347.503 110.172C347.119 109.887 346.893 109.436 346.896 108.958L347.251 106.005C346.734 105.464 346.255 104.886 345.819 104.277L343.528 104.861C343.219 104.941 342.772 104.62 342.531 104.14L340.733 100.557C340.492 100.088 340.538 99.6299 340.847 99.5497L343.138 98.966C342.938 98.3148 342.788 97.6489 342.692 96.9744L339.794 94.8683C339.404 94.5813 339.175 94.1267 339.175 93.6435L339.53 90.6904C339.576 90.2898 339.931 90.1982 340.32 90.4844L343.219 92.5905C343.424 92.1869 343.7 91.8227 344.032 91.5145L342.234 87.9433C341.993 87.4626 342.039 87.0048 342.348 86.9361L344.639 86.3409C344.948 86.2608 345.395 86.5813 345.636 87.062L347.434 90.6332C347.978 90.7257 348.509 90.8832 349.015 91.1025L349.37 88.1494C349.416 87.7602 349.771 87.6686 350.161 87.9433L353.082 90.0265C353.466 90.316 353.692 90.7701 353.689 91.2513L353.334 94.1929C353.846 94.7553 354.324 95.3477 354.766 95.9671L357.057 95.3719C357.366 95.2918 357.813 95.6123 358.053 96.093L359.852 99.6757C360.092 100.156 360.047 100.603 359.737 100.683L357.446 101.278C357.647 101.929 357.796 102.595 357.893 103.27ZM353.723 102.617C353.741 100.254 352.62 98.0262 350.71 96.631C348.82 95.246 347.091 95.6924 346.861 97.6153C346.844 99.9819 347.965 102.213 349.874 103.613C351.764 104.987 353.494 104.54 353.723 102.617Z" fill="#272727"/>
<path d="M169.12 22.1343L166.153 27.9375C165.997 28.2453 166.033 28.6151 166.244 28.8876L168.948 32.3214C169.132 32.5534 169.42 32.6777 169.715 32.6524C170.01 32.627 170.273 32.4554 170.414 32.1955L173.461 26.7128C173.623 26.4093 173.597 26.0398 173.392 25.7628L170.62 22.0084C170.439 21.7604 170.141 21.6249 169.835 21.6506C169.528 21.6763 169.257 21.8596 169.12 22.1343Z" fill="#F8BF30"/>
<path d="M138.03 1.10709L134.128 8.51919C133.919 8.91117 133.969 9.38277 134.255 9.72768L137.846 14.0648C138.092 14.3591 138.476 14.5178 138.87 14.4882C139.264 14.4585 139.617 14.2444 139.811 13.9171L143.855 6.96157C144.076 6.57726 144.043 6.1061 143.77 5.75308L140.08 0.99967C139.847 0.664117 139.445 0.47129 139.022 0.493418C138.6 0.515545 138.222 0.749287 138.03 1.10709Z" fill="#F8BF30"/>
<path d="M62.0776 36.108L58.1334 43.503C57.917 43.8956 57.967 44.3736 58.2607 44.7175L61.8373 49.0627C62.0831 49.3584 62.467 49.5179 62.8612 49.4882C63.2554 49.4584 63.6083 49.2432 63.8023 48.9143L67.8595 41.9376C68.0738 41.55 68.041 41.0802 67.7747 40.7231L64.085 35.9461C63.8396 35.633 63.4424 35.4628 63.0343 35.4957C62.6261 35.5287 62.2645 35.7601 62.0776 36.108Z" fill="#F8BF30"/>
<path d="M84.4646 60.17L81.2571 66.4425C81.0926 66.7736 81.1327 67.1696 81.3602 67.4612L84.2698 71.1583C84.469 71.4091 84.7801 71.5444 85.0996 71.5192C85.419 71.4939 85.7049 71.3114 85.8621 71.0324L89.1384 65.1147C89.3225 64.7842 89.2956 64.3766 89.0696 64.0731L86.0798 59.9868C85.8765 59.7243 85.5507 59.5868 85.2206 59.6242C84.8905 59.6617 84.6038 59.8686 84.4646 60.17Z" fill="#F8BF30"/>
<path d="M77.6371 114.356L73.5705 122.369C73.3514 122.794 73.4006 123.308 73.6965 123.685L77.3965 128.389C77.6503 128.708 78.0463 128.881 78.453 128.848C78.8597 128.816 79.2238 128.584 79.4241 128.229L83.6053 120.686C83.8346 120.268 83.8034 119.756 83.5251 119.37L79.6876 114.185C79.4334 113.856 79.0298 113.679 78.6156 113.713C78.2015 113.748 77.8331 113.99 77.6371 114.356Z" fill="#F8BF30"/>
<path d="M159.303 104.334L154.172 114.371C153.896 114.898 153.956 115.537 154.326 116.004L158.995 121.908C159.313 122.309 159.811 122.526 160.323 122.487C160.835 122.448 161.293 122.158 161.546 121.713L166.803 112.249C167.097 111.723 167.059 111.075 166.705 110.588L161.911 104.124C161.598 103.692 161.081 103.454 160.548 103.497C160.014 103.539 159.542 103.857 159.303 104.334Z" fill="#F8BF30"/>
<path d="M289.115 28.0686L293.216 36.0809C293.435 36.5065 293.386 37.0207 293.09 37.3972L289.356 42.1359C289.102 42.4602 288.703 42.6359 288.293 42.6037C287.883 42.5714 287.516 42.3355 287.317 41.9756L283.112 34.3868C282.882 33.9642 282.917 33.4461 283.204 33.0591L287.03 27.874C287.286 27.5312 287.701 27.3462 288.127 27.3859C288.553 27.4257 288.928 27.6844 289.115 28.0686Z" fill="#F8BF30"/>
<path d="M307.776 86.5356L313.985 98.7716C314.315 99.4165 314.238 100.194 313.79 100.763L308.142 107.928C307.757 108.416 307.154 108.679 306.534 108.628C305.914 108.578 305.361 108.22 305.061 107.677L298.692 96.2305C298.34 95.5952 298.389 94.8138 298.818 94.2274L304.626 86.3754C304.991 85.8479 305.604 85.5469 306.245 85.5796C306.887 85.6122 307.466 85.9738 307.776 86.5356Z" fill="#F8BF30"/>
<path d="M347.686 27.7251L351.982 36.1609C352.213 36.6078 352.164 37.148 351.856 37.5459L347.938 42.5135C347.67 42.8508 347.251 43.0325 346.821 42.998C346.392 42.9636 346.007 42.7175 345.796 42.3418L341.386 34.3295C341.145 33.8892 341.181 33.3493 341.477 32.9445L345.498 27.4962C345.773 27.1426 346.211 26.9558 346.656 27.0024C347.101 27.049 347.491 27.3223 347.686 27.7251Z" fill="#F8BF30"/>
<defs>
<linearGradient id="paint0_linear_0_6800" x1="20.6812" y1="179.939" x2="56.2729" y2="179.939" gradientUnits="userSpaceOnUse">
<stop stop-color="white"/>
<stop offset="1" stop-color="#F8BF30" stop-opacity="0.8"/>
</linearGradient>
<linearGradient id="paint1_linear_0_6800" x1="43.3743" y1="175.696" x2="46.8796" y2="175.696" gradientUnits="userSpaceOnUse">
<stop stop-color="white"/>
<stop offset="1" stop-color="white"/>
</linearGradient>
</defs>
</svg>
