<?xml version="1.0" encoding="utf-8"?>
<!-- Generator: Adobe Illustrator 24.0.1, SVG Export Plug-In . SVG Version: 6.00 Build 0)  -->
<svg version="1.1" id="Layer_1" xmlns="http://www.w3.org/2000/svg" xmlns:xlink="http://www.w3.org/1999/xlink" x="0px" y="0px"
	 width="26.8px" height="26.8px" viewBox="0 0 26.8 26.8" style="enable-background:new 0 0 26.8 26.8;" xml:space="preserve">
<style type="text/css">
	.st0{opacity:0.5024;}
	.st1{fill:none;stroke:#121212;stroke-width:1.8;stroke-linecap:round;stroke-linejoin:round;}
	
		.st2{fill-rule:evenodd;clip-rule:evenodd;fill:#121212;stroke:#121212;stroke-width:1.8;stroke-linecap:round;stroke-linejoin:round;}
</style>
<g class="st0">
	<path class="st1" d="M23.9,2.9c0.9,0.9,0.9,2.4,0,3.3c-0.9,0.9-2.4,0.9-3.3,0c-0.9-0.9-0.9-2.4,0-3.3C21.5,1.9,23,1.9,23.9,2.9"/>
	<path class="st1" d="M2.9,23.9C2,23,2,21.5,2.9,20.6c0.9-0.9,2.4-0.9,3.3,0s0.9,2.4,0,3.3C5.3,24.9,3.8,24.9,2.9,23.9"/>
	<path class="st1" d="M6.4,23.7c4.9,3.3,11.6,2.8,15.9-1.5c2.4-2.4,3.7-5.6,3.7-8.8c0-0.7,0-1.5-0.2-2.2"/>
	<path class="st1" d="M1.1,15.6c-0.1-0.7-0.2-1.5-0.2-2.2c0-3.2,1.2-6.4,3.7-8.8c4.3-4.3,11-4.8,15.9-1.5"/>
	<path class="st2" d="M13.4,9.2l4.2,4.2l-4.2,4.2l-4.2-4.2L13.4,9.2z"/>
</g>
</svg>
