<svg width="195" height="126" viewBox="0 0 195 126" fill="none" xmlns="http://www.w3.org/2000/svg">
<path fill-rule="evenodd" clip-rule="evenodd" d="M194.974 117.511C194.716 116.697 192.937 117.243 192.068 117.212C189.639 117.123 186.917 117.325 184.066 117.348C183.021 117.357 181.927 117.412 180.838 117.417C179.389 117.424 177.853 117.625 176.589 117.474C175.598 117.355 174.594 117.526 173.396 117.607C172.526 117.666 171.616 117.494 170.793 117.564C170.668 117.574 170.146 117.77 170.036 117.646C169.877 117.464 170.25 117.154 170.257 117.148C170.46 116.961 170.478 116.618 170.606 116.55C171.057 116.309 171.784 116.625 172.353 116.578C173.378 116.495 174.76 116.66 176.107 116.467C176.744 116.374 177.438 116.528 178.248 116.454C179.811 116.311 181.385 116.083 183.054 116.287C183.889 116.388 185.233 116.387 185.754 116.196C186.112 116.065 186.379 116.491 186.909 116.27C186.924 116.264 186.953 116.146 187.005 116.137C187.632 116.031 188.481 116.189 189.016 116.226C189.268 116.243 190.266 115.968 190.386 115.573C190.451 115.36 190.112 114.977 189.846 114.993C188.249 115.092 185.992 115.033 184.643 115.104C183.579 115.16 182.055 115.191 180.89 115.249C177.941 115.396 174.747 115.223 171.77 115.508C171.527 115.531 170.824 115.522 170.747 115.431C170.601 115.257 171.013 114.979 171.03 114.801C171.079 114.311 170.787 114.152 171.641 114.066C173.098 113.919 174.026 114.004 175.261 113.891C176.678 113.761 177.809 113.911 179.016 113.844C180.245 113.776 181.611 113.938 182.637 113.702C182.887 113.644 183.224 113.285 183.115 112.969C182.837 112.16 181.173 112.614 180.111 112.672C179.266 112.718 178.32 112.798 177.577 112.824C176.961 112.845 175.696 112.744 175.173 112.875C174.654 113.005 173.287 113.17 172.838 113.056C172.59 112.992 171.395 113.312 171.124 113.027C170.902 112.792 171.397 111.299 171.506 110.852C171.542 110.705 171.451 110.404 171.458 110.163C171.496 108.935 171.999 108.1 172.017 107C172.033 105.998 172.149 105.047 172.252 104.106C172.305 103.619 172.513 102.936 172.48 102.46C172.471 102.332 172.341 102.182 172.341 102.102C172.341 102.013 172.733 101.172 172.415 100.95C172.814 100.683 172.583 99.57 172.636 98.9765C172.683 98.4706 172.924 97.788 173.025 97.1294C173.556 93.6903 173.518 90.5257 173.896 86.9675C173.986 86.123 174.051 84.7409 174.257 83.8081C174.386 83.22 174.313 82.5374 174.417 82.0315C174.464 81.7999 174.634 81.7491 174.571 81.5358C174.425 81.0409 173.892 81.2133 173.475 81.133C171.971 80.8397 170.549 79.9357 169.122 79.4192C168.489 79.1895 167.759 79.0112 167.329 78.768C166.475 78.2837 165.327 78.223 164.442 77.7785C163.875 77.4932 163.098 76.9731 162.221 77.1364C161.845 77.2058 161.509 77.5974 161.149 77.8811C160.457 78.4283 159.621 78.8607 158.972 79.3056C157.845 80.0807 156.856 80.9401 155.661 81.6085C155.414 81.7469 154.854 82.1002 154.687 82.2857C153.987 83.0644 154.613 84.2796 153.926 85.2234C154.177 85.8801 154.013 86.3049 153.9 87.0953C153.731 88.2857 153.774 89.5078 153.678 90.5802C153.494 92.6522 153.115 95.3459 153.238 97.746C153.345 99.836 152.625 102.083 152.902 103.629C153.102 104.744 152.611 106.82 152.333 107.843C152.255 108.13 152.358 108.661 152.123 108.8C151.789 108.997 150.571 108.622 150.207 108.545C149.33 108.36 148.44 108.022 147.589 107.845C146.18 107.553 144.687 106.635 143.281 106.657C142.441 106.669 141.575 106.282 140.863 106.051C140.507 105.936 139.995 105.886 139.572 105.783C136.642 105.066 133.566 104.624 130.731 103.672C132.3 103.784 134.164 103.231 135.83 103.335C136.321 103.365 137.812 103.662 138.139 103.449C138.522 103.2 138.071 102.294 137.816 102.241C137.662 102.21 137.543 102.377 137.391 102.382C136.145 102.424 135 102.286 133.703 102.493C132.312 102.715 130.775 102.479 129.161 102.687C128.607 102.759 128.039 102.939 127.486 102.953C126.913 102.968 126.2 102.678 125.634 102.598C123.699 102.327 121.725 101.819 119.91 101.472C121.22 101.503 122.513 101.526 123.831 101.488C124.563 101.465 125.322 101.628 126.04 101.572C127.089 101.489 127.981 101.398 129.036 101.443C129.375 101.457 129.716 101.313 130.024 101.422C130.148 101.466 130.257 101.671 130.392 101.709C130.995 101.88 131.542 101.536 131.936 101.512C132.355 101.488 132.982 101.366 133.483 101.414C134.372 101.501 135.363 101.336 136.347 101.321C138.2 101.292 140.244 101.557 141.652 101.373C141.739 101.316 141.527 101.193 141.614 101.144C142.184 101.227 141.786 100.407 141.63 100.322C141.551 100.279 141.397 100.368 141.269 100.363C138.614 100.245 135.383 100.417 132.472 100.385C130.734 100.366 129.105 100.49 127.535 100.621C126.55 100.703 125.051 100.381 124.174 100.561C123.873 100.622 123.896 100.617 123.581 100.573C121.956 100.346 119.755 100.845 118.277 100.554C117.752 100.451 117.155 100.073 116.827 100.585C116.866 100.595 116.985 100.684 116.896 100.715C115.622 100.419 114.238 100.089 112.855 99.7169C112.316 99.5722 112.952 99.5752 113.281 99.6099C113.722 99.6555 114.476 99.4115 114.825 99.413C115.722 99.4152 116.681 99.3874 117.626 99.3867C119.245 99.3845 121.207 99.7099 122.833 99.5058C123.463 99.4265 124.391 99.829 125.01 99.5916C125.131 99.5445 125.152 99.4024 125.302 99.3882C125.694 99.3509 126.338 99.6442 126.921 99.6164C127.465 99.5909 128.038 99.3312 128.497 99.386C129.075 99.4546 129.693 99.4923 130.377 99.4773C131.183 99.4601 132.847 99.1697 133.571 99.3768C133.906 99.4729 133.986 99.7191 134.401 99.6877C135.298 99.6201 136.054 99.3882 136.962 99.2399C137.935 99.0806 138.852 99.3082 139.662 99.2154C139.917 99.1854 140.559 99.1405 141.044 99.0879C142.079 98.9729 143.34 99.4429 143.541 98.8045C144.215 98.4677 143.34 97.9498 142.898 97.9651C141.868 97.9991 140.798 98.0426 139.87 98.1277C139.524 98.1591 138.976 98.2197 138.653 98.219C137.608 98.2175 136.224 98.6032 135.065 98.3929C133.989 98.1974 132.685 98.1427 131.604 98.3023C131.088 98.3786 130.318 98.4937 129.828 98.4385C129.033 98.3494 127.655 98.4871 126.567 98.4743C122.12 98.425 117.195 98.5978 112.866 98.6661C112.258 98.6763 111.266 98.5883 110.825 98.7424C110.672 98.7961 110.548 98.9937 110.369 99.0141C109.812 99.0799 108.588 98.5755 107.984 98.4086C107.828 98.3651 106.393 97.9323 107.018 97.8716C107.555 97.8187 108.173 97.9615 108.698 97.9016C110.384 97.7087 112.168 97.719 113.506 97.7993C114.946 97.8859 116.395 97.6682 117.918 97.6404C118.085 97.6368 118.279 97.7237 118.479 97.6938C118.994 97.6174 119.473 97.7339 119.796 97.666C119.852 97.6547 120.022 97.4969 120.023 97.4969C120.484 97.4326 120.9 97.5462 121.24 97.3727C121.562 97.208 122.125 97.2971 122.555 97.2792C123.302 97.2482 124.118 97.1032 124.858 97.0995C125.486 97.0958 126.18 97.3179 126.773 97.2887C127.552 97.2493 128.878 97.2701 129.437 97.0681C130.105 96.8263 131.587 97.0619 132.137 97.044C133.954 96.9848 136.067 97.1718 137.933 96.8884C137.954 96.7985 137.778 96.9147 137.8 96.8256C138.484 96.3584 139.726 96.9161 140.694 96.5995C141.383 96.3748 142.763 96.8069 143.693 96.6353C143.956 96.586 144.662 96.6375 144.844 96.5447C145.249 96.3383 145.354 95.7013 145.085 95.4887C144.931 95.3675 144.563 95.476 144.195 95.4752C143.623 95.4738 142.559 95.4504 141.988 95.4887C140.232 95.6071 138.44 95.9789 136.892 95.991C136.741 95.9917 136.462 95.8482 136.297 95.8719C135.344 96.0103 133.854 96.0059 132.839 95.9453C131.3 95.8533 129.953 96.0501 128.495 96.1685C127.342 96.262 125.971 96.1659 124.74 96.2156C123.314 96.2729 121.797 96.2108 120.431 96.5367C119.997 96.6393 119.631 96.7215 119.248 96.693C117.121 96.5337 114.778 96.9753 112.596 96.8336C111.229 96.7452 110 96.9311 108.679 96.9819C107.743 97.0184 106.793 96.8373 105.875 96.8449C105.241 96.85 104.482 97.3501 104.009 97.3764C103.577 97.4012 102.616 97.109 102.255 96.987C101.862 96.8548 101.31 96.6437 100.959 96.4888C101.796 96.2072 103.084 96.6375 103.823 96.3628C104.27 96.1966 105.121 96.3219 105.797 96.2229C106.859 96.0666 108.132 96.3307 109.221 96.1827C109.843 96.0987 110.712 96.1981 111.395 96.1046C112.604 95.9376 113.972 95.9497 115.143 95.762C117.793 95.3375 120.059 95.2875 122.742 95.2079C122.861 94.9215 123.974 94.9931 124.483 95.0066C125.286 95.0263 126.683 94.9496 127.349 94.9789C128.676 95.0358 130.156 95.2327 131.536 95.1191C132.376 95.0508 133.189 94.8452 134 94.7718C135.368 94.6476 136.918 95.0515 138.211 94.4858C138.705 94.2695 139.784 94.5862 140.15 94.2805C140.333 94.1282 140.192 93.4722 139.965 93.3323C139.688 93.161 137.778 93.6384 137.502 93.6797C136.354 93.8532 134.586 93.7754 133.257 93.9014C132.676 93.9565 131.671 94.1249 131.219 94.1085C130.941 94.0982 130.227 94.05 129.735 94.0741C129.123 94.1048 128.503 94.0358 127.857 94.0814C126.688 94.1633 125.414 94.1947 124.235 94.1578C121.652 94.0763 118.924 94.5822 116.273 94.6878C116.169 94.6918 116.081 94.6483 115.976 94.6611C111.584 95.1984 106.832 95.2985 102.583 95.4047C101.305 95.4361 99.9193 95.3912 98.9941 95.5132C98.9138 95.5238 98.838 95.5852 98.765 95.5837C98.3845 95.5771 98.3149 95.7948 98.1115 95.8277C97.3534 95.949 96.1577 95.2963 95.4939 95.1279C95.3436 95.0899 94.7399 94.973 94.6006 94.9496C93.457 94.7597 95.1563 94.4146 95.7076 94.3353C96.5217 94.2177 96.5602 94.2955 97.2222 94.3031C99.0634 94.3262 100.916 94.0186 102.587 94.0256C103.89 94.0307 105.467 94.1826 106.802 93.9364C106.945 93.9094 107.32 93.9164 107.526 93.9207C109.274 93.9573 110.539 93.8711 112.169 93.7896C114.105 93.6932 116.601 93.0982 118.418 93.2965C118.365 93.3071 118.328 93.2538 118.384 93.2311C119.31 93.3458 120.406 93.0869 121.181 93.0733C121.796 93.0628 122.426 92.795 122.855 92.7753C123.449 92.7479 124.089 93.0646 124.671 92.9671C124.919 92.9251 125.183 92.8206 125.525 92.8498C126.206 92.9093 126.882 92.6851 127.499 92.7103C128.775 92.7614 130.081 92.5262 131.252 92.5646C131.438 92.5711 131.808 92.5938 131.943 92.5503C132.174 92.4762 133.595 92.5204 133.519 92.287C133.748 92.4718 134.234 92.2464 134.34 92.2037C134.504 92.1379 135.321 92.3527 135.792 92.2716C136.1 92.2187 137.141 92.0868 137.199 91.8151C137.329 91.1949 136.493 91.0773 136.228 91.1138C133.412 91.5002 130.683 91.3797 128.002 91.5831C127.288 91.6372 126.56 91.917 125.835 91.9246C124.943 91.9334 124.045 91.7972 123.132 91.8505C121.232 91.9612 119.285 92.3136 117.343 92.3341C116.682 92.3407 116.011 92.3144 115.368 92.3757C111.222 92.7717 107.819 92.9693 103.719 93.0492C101.964 93.0839 99.4765 93.1533 97.433 93.3794C96.4968 93.4828 95.613 93.676 94.8055 93.7629C94.3543 93.8122 92.9163 93.6581 92.6047 94.0727C92.5061 94.2042 92.5681 94.4821 92.483 94.5351C92.1469 94.7425 90.754 94.149 90.3306 94.0226C90.0532 93.9394 89.7955 93.9313 89.6349 93.84C90.5795 93.3082 91.5732 93.5241 92.3892 93.2238C93.6043 92.7764 95.0713 92.5149 96.3579 92.3849C97.1218 92.3071 97.9648 92.4542 98.728 92.3016C101.76 91.6949 104.886 92.1873 108.104 91.6766C108.875 91.5539 109.72 91.5174 110.276 91.5645C110.892 91.6171 111.913 91.5886 112.778 91.4462C114.166 91.2164 115.534 91.3092 116.89 91.1949C117.645 91.1317 118.435 90.9304 119.191 90.9162C119.869 90.903 120.608 90.6572 121.228 90.6433C124.037 90.5802 126.05 90.5728 128.368 90.2291C129.326 90.0871 130.856 90.4337 131.158 89.7434C131.236 89.7525 131.283 89.7923 131.389 89.7719C131.599 89.3759 131.323 88.8295 130.646 88.9007C129.735 88.9972 128.709 89.0961 127.754 89.2247C126.051 89.4537 123.897 89.5348 122.261 89.67C118.749 89.9574 115.436 90.2982 112.099 90.5078C107.443 90.8011 102.585 90.9797 97.9509 91.399C99.0924 90.7029 100.392 90.5257 101.812 90.1356C102.313 89.9972 102.64 90.0136 103.127 90.0093C103.954 90.0001 104.662 89.4778 105.452 89.3686C107.116 89.1389 109.063 89.346 110.684 89.0603C111.426 88.9307 112.255 89.0855 113.022 89.0114C113.726 88.9435 114.54 88.7181 115.288 88.6352C116.093 88.5453 116.945 88.5581 117.788 88.4507C120.333 88.1253 122.071 88.3251 124.239 88.183C124.434 88.1702 124.607 87.9982 124.829 88.0062C125.187 88.019 125.5 88.1184 125.85 88.0176C125.806 88.0303 125.814 87.9343 125.848 87.9189C126.268 87.7338 127.215 88.1644 127.826 87.9756C128.114 87.8872 129.194 88.0125 129.367 87.6472C129.601 87.1559 128.955 86.6935 128.852 86.6734C128.78 86.6599 128.612 86.7648 128.492 86.7797C127.996 86.8404 127.463 86.745 127.108 86.7764C125.962 86.8776 124.655 87.1866 123.297 87.2513C121.809 87.3214 120.234 87.2794 118.82 87.4112C117.917 87.4953 117.05 87.7429 116.291 87.7937C115.134 87.87 113.905 88.0833 112.674 88.1322C111.675 88.1724 110.834 88.225 110.01 88.32C109.584 88.3693 107.187 88.641 108.625 88.2838C109.265 88.1246 110.068 87.7685 110.687 87.6494C111.44 87.504 111.74 87.2856 112.39 87.1866C114.007 86.9412 115.786 85.9802 117.476 86.2249C117.365 85.9944 117.777 86.1391 117.968 86.1164C119.649 85.9119 121.77 85.9324 123.56 85.7026C123.895 85.6591 124.316 85.7242 124.714 85.7106C124.932 85.7041 125.252 85.4699 125.432 85.4331C125.874 85.3417 126.397 85.5306 126.95 85.4992C127.38 85.4743 128.43 85.4258 128.658 85.2661C129.034 85.0028 128.672 84.3424 128.372 84.2544C127.953 84.1317 127.152 84.2318 126.692 84.2573C124.703 84.3665 122.532 85.0707 120.018 84.8907C122.38 84.0071 124.851 83.4556 127.248 82.5052C128.057 82.1849 128.991 82.0158 129.766 81.6315C129.907 81.5614 129.975 81.3817 130.122 81.3284C131.892 80.6877 133.747 80.199 135.456 79.6069C135.78 79.4948 136.17 79.4714 136.439 79.3564C136.634 79.2731 136.829 78.967 137.087 78.8827C137.823 78.6431 139.117 78.2479 139.869 78.0031C140.195 77.8976 140.23 77.5287 140.382 77.3362C140.555 77.1163 141.165 76.9074 141.389 76.6579C141.447 76.5929 141.406 76.4592 141.45 76.4267C141.843 76.1396 142.373 75.9373 142.85 75.6425C143.207 75.4208 143.515 75.1067 143.854 74.8328C144.355 74.4284 145.086 74.2243 145.646 73.9083C146.013 73.7023 146.258 73.2593 146.584 73.0679C146.679 73.0124 146.8 73.0657 146.879 72.9959C147.139 72.7633 146.875 72.1014 146.625 71.951C146.274 71.7391 145.016 71.4235 144.569 71.2723C141.022 70.0695 136.94 68.8492 133.486 67.6008C131.72 66.9616 130.213 66.3944 128.021 66.2059C127.955 66.2005 127.579 66.2081 127.526 66.184C127.332 66.0942 126.97 65.1617 126.938 64.8826C126.912 64.6544 126.985 64.227 126.949 63.8325C126.904 63.3508 127.176 62.7854 127.048 62.32C127.025 62.2368 126.859 62.1761 126.846 62.0943C126.813 61.8949 126.994 61.4493 126.991 61.1721C126.986 60.8196 126.977 60.5643 127.003 60.2199C127.107 58.8699 126.876 57.2277 127.139 55.785C127.253 55.1626 127.267 54.1552 127.254 53.4518C127.251 53.2717 127.11 53.0818 127.144 52.8962C127.52 50.8172 127.326 49.098 127.185 47.1176C127.149 46.6095 127.333 46.0719 127.284 45.5722C127.167 44.3823 127.099 43.2233 127.141 41.9639C127.172 41.0362 127.01 39.9872 127.079 39.0438C127.124 38.4133 127.385 37.8099 126.943 37.3066C127.316 37.2803 127.107 36.8683 127.09 36.483C127.004 34.5464 127.136 31.8918 127.212 29.8818C127.243 29.0772 127.056 27.9588 127.161 27.4536C127.329 26.6461 127.064 25.581 127.099 24.5656C127.136 23.5159 127.148 22.2656 127.222 21.0505C127.272 20.2363 126.927 19.401 126.972 18.5934C126.984 18.3779 127.079 18.1474 127.087 17.8034C127.113 16.632 127.092 15.461 127.144 14.2893C127.171 13.6677 126.891 13.0628 126.907 12.489C126.921 12.0503 127.222 11.3125 127.14 11.0064C127.088 10.8132 126.35 10.5725 126.238 10.4348C126.173 10.3545 126.197 10.1488 126.033 10.078C124.761 9.53011 122.809 9.24375 121.363 8.92927C120.693 8.78354 119.669 8.51909 118.948 8.48805C117.704 8.43399 116.224 7.98985 115.046 7.81562C110.181 7.09571 105.717 6.1899 100.769 5.72128C99.3148 5.58395 97.8545 5.22856 96.3703 4.92832C95.9972 4.85272 95.5709 4.93088 95.1827 4.85491C93.763 4.57768 92.2998 4.4104 90.7866 4.19307C87.3887 3.70473 83.5153 2.80403 79.7127 2.45777C78.2439 2.32372 76.8452 2.27149 75.4233 2.15461C71.9062 1.86534 68.6589 0.929201 65.0466 0.667317C63.996 0.590979 62.859 0.539114 61.8759 0.307545C61.3862 0.192492 60.6626 -0.189194 60.093 0.115424C58.736 0.842271 56.8427 1.53186 55.9245 2.40335C54.8802 3.395 52.8121 3.79787 51.5952 4.85856C51.1238 5.26983 51.5915 5.41885 51.7114 5.67708C51.7968 5.86081 51.8594 6.87255 51.8763 7.21661C52.0127 10.0239 52.141 13.4007 52.1681 16.2712C52.1776 17.2953 52.2616 18.4386 52.3352 19.485C52.4489 21.087 52.2289 22.6612 52.2407 24.3125C52.2689 28.3518 52.1985 32.5836 52.1772 36.7891C52.171 38.0302 52.4254 39.4404 52.4892 40.5902C52.557 41.8149 52.5533 43.7 52.6501 45.0518C52.6937 45.6577 52.7267 46.7206 52.7656 47.3802C52.7828 47.6699 52.9261 48.4946 52.7586 48.595C52.6516 48.6593 52.0753 48.3284 51.8954 48.2849C51.5919 48.2115 51.1934 48.11 50.8023 48.0128C48.2933 47.3894 45.1251 46.7615 42.7253 46.214C42.2576 46.1073 41.2994 45.7304 41.0344 45.7245C40.6506 45.7161 40.5997 46.1354 40.4853 46.229C40.2034 46.4583 39.5524 46.5292 39.1764 46.6505C38.8373 46.7597 38.2864 47.0226 38.0019 47.2005C37.2028 47.7002 36.686 48.0106 35.9192 48.3934C35.0908 48.8069 33.9434 49.3453 32.9182 49.8033C32.2298 50.1101 32.269 50.6781 32.5187 51.1576C32.9838 51.2095 33.5285 51.6708 33.9878 52.0784C35.0046 52.9802 36.3502 53.7761 37.4338 54.5333C38.6544 55.3865 39.7511 56.2565 40.9461 57.0195C41.7012 57.5024 42.2305 58.3633 43.0299 58.9451C43.4449 59.2476 43.9305 59.4254 44.3638 59.7048C45.7435 60.5939 46.7556 61.793 47.9216 62.781C48.4586 63.2361 49.3178 63.6156 49.8599 64.0532C52.2744 66.0029 54.1471 67.9489 56.5693 69.6886C57.3193 70.2281 55.9187 69.7792 55.6177 69.8734C55.286 69.976 54.5008 70.0246 53.9407 70.0403C53.1999 70.0604 52.3979 69.7357 51.8272 69.7894C51.7682 69.7949 51.582 69.9457 51.4683 69.9611C50.0106 70.166 48.5832 69.6824 47.1159 69.7909C46.4363 69.8405 45.8656 70.0783 46.0804 70.666C46.2992 71.2654 47.6796 70.7931 48.6858 70.8081C49.3654 70.8179 49.9893 70.8274 50.5974 70.8329C51.9943 70.8479 53.5111 71.0543 54.7838 70.9414C55.7577 70.8552 56.8842 71.3943 57.6887 71.2084C58.1114 71.1105 57.9439 70.8837 58.2815 71.1952C58.3401 71.2497 59.1879 71.7855 59.1209 71.9331C59.0208 72.1526 58.7147 71.9122 58.659 71.91C58.3452 71.8936 57.9805 72.0306 57.6404 72.0302C57.3889 72.0295 57.1616 71.8943 56.8794 71.8816C55.5627 71.8246 54.1669 71.9068 52.6299 71.9068C51.7964 71.906 50.8899 71.9886 50.06 71.8951C48.8992 71.7639 47.7449 72.0587 46.6705 72.0978C46.2413 72.1142 45.7223 71.9922 45.2512 71.9645C44.4826 71.9188 43.6281 71.8761 42.7785 71.8852C42.255 71.891 41.0821 71.788 40.9387 72.1215C40.5843 72.9426 41.3947 72.8484 41.7437 72.7932C42.678 72.6471 44.0713 73.1252 45.1083 72.9846C45.8058 72.8904 47.0833 73.4046 48.0121 73.1859C48.4296 73.0872 49.1165 73.0244 49.7191 72.9196C50.1729 72.8411 50.5457 72.8096 51.0032 72.8597C51.9467 72.9631 53.1402 73.0971 54.2343 72.9883C55.1379 72.898 56.2148 73.1643 57.0678 72.9937C57.386 72.9302 57.4065 72.9601 57.6942 73.0138C58.5828 73.1778 59.7004 72.9503 60.3976 73.088C60.645 73.1366 61.2854 73.8112 61.5375 74.0153C62.2289 74.5753 61.3275 74.3298 60.7198 74.2959C58.7756 74.1859 56.8222 74.278 55.0844 74.2181C53.4639 74.1614 52.0413 74.0968 50.2723 74.1231C48.9333 74.1424 47.5327 73.8948 46.2153 73.9134C45.7083 73.9204 44.4727 73.9196 44.0768 74.0573C43.4412 74.278 44.4782 75.049 44.5266 75.0654C45.12 75.263 46.5968 74.7809 47.684 74.8014C48.173 74.8109 48.6107 74.8145 48.9703 74.8729C50.3841 75.1027 51.9474 75.0183 53.4257 75.2382C53.8964 75.308 55.0246 75.3131 55.5998 75.2247C56.1664 75.1374 57.0304 75.2711 57.7426 75.278C58.7972 75.2886 59.3492 75.3879 60.3481 75.4201C61.2315 75.4478 62.3997 75.7959 63.0543 75.6246C63.4282 75.5271 63.3285 75.5925 63.6199 75.8759C63.955 76.201 64.5176 76.5301 64.7291 76.903C62.7783 76.9304 60.5468 76.5502 58.5274 76.5414C58.1854 76.54 57.7804 76.6912 57.4428 76.6627C57.4091 76.6598 57.2174 76.5129 57.1429 76.5049C56.3875 76.4267 55.6518 76.5527 54.9029 76.5202C52.6021 76.4187 50.1095 76.2773 48.0125 76.3047C47.4912 76.3109 45.6889 76.0812 45.5181 76.7511C45.4433 77.0458 45.7923 77.6229 45.9972 77.5952C46.6705 77.5016 48.1397 77.4487 48.8911 77.3369C50.4057 77.1108 52.1182 77.5159 53.6057 77.4995C53.7494 77.498 53.9033 77.3713 54.0643 77.3581C54.7985 77.2997 55.6309 77.6751 56.4091 77.6372C56.6243 77.6266 56.9058 77.5265 57.1983 77.5546C58.0615 77.6364 59.0021 77.6171 59.9342 77.628C61.0434 77.6415 62.4426 78.2022 63.3344 77.9498C63.6515 77.8596 63.6716 78.093 63.9971 78.1332C64.375 78.1788 65.0348 78.1971 65.4135 78.1029C65.5773 78.0616 65.732 77.8147 65.9017 77.8296C66.4035 77.8742 66.6319 78.8016 67.1447 78.9528C66.1957 78.9725 65.2771 78.8308 64.2739 78.7508C61.885 78.5591 59.2701 79.0142 56.8988 78.9725C55.6709 78.9513 54.4447 79.0368 53.3081 78.9827C52.6263 78.9506 51.8719 78.9553 51.3994 79.089C51.0989 79.1738 50.1825 78.9963 49.8881 79.2852C49.6066 79.5613 49.8749 80.2147 50.1396 80.2644C50.8661 80.4021 51.6457 79.9455 52.5379 79.9514C52.8151 79.9528 53.1241 80.0748 53.3641 80.065C53.5808 80.0562 54.0866 79.8637 54.282 79.8487C55.6349 79.7432 57.1015 79.9138 58.6968 79.8535C59.9471 79.8067 61.0801 79.9108 62.1896 79.878C63.2526 79.8466 64.309 79.8988 65.2544 79.9116C66.3687 79.9273 67.4541 80.3495 68.4258 80.3367C68.5622 80.3353 68.6894 80.2089 68.8191 80.2304C69.4034 80.325 70.1545 81.6271 70.7956 81.7641C66.7866 82.0486 62.8095 81.687 59.3316 81.8098C58.5586 81.8375 57.6752 81.7776 56.2694 81.9077C55.452 81.9833 53.3363 81.8204 53.9517 82.9084C54.319 83.5582 55.6914 82.835 56.1906 82.8285C56.2933 82.827 56.3541 82.9282 56.423 82.922C59.7895 82.6093 63.757 82.8128 66.902 83.0283C66.7774 82.7558 67.7543 83.0808 67.8914 83.0732C68.5684 83.0359 69.6809 82.9446 70.491 82.9198C70.8828 82.907 71.6713 82.865 72.04 82.9526C72.448 83.0491 72.9421 83.8051 73.1833 84.044C73.7474 84.6025 72.3769 84.3344 71.97 84.2993C70.1405 84.1452 68.4152 84.2409 66.4999 84.2515C63.9762 84.2661 61.3572 83.979 58.7939 84.4151C58.3551 84.4892 57.9739 84.8275 58.1873 85.314C58.4068 85.8155 59.7198 85.5587 60.3334 85.5313C61.7615 85.4681 63.4612 85.1503 64.7716 85.0762C65.2793 85.047 65.8434 85.3523 66.4893 85.3023C67.8994 85.1935 69.3733 85.3447 70.4767 85.3494C70.572 85.0141 71.0533 85.3794 71.3359 85.4623C71.8479 85.6135 72.8354 85.6179 73.4124 85.5171C74.6994 85.2924 75.332 85.8494 75.975 86.71C75.1543 86.7436 74.0737 86.6778 73.4685 86.5993C71.466 86.3389 69.5079 86.8612 67.578 86.9211C66.4054 86.9569 65.0033 86.5807 63.786 86.7713C63.5767 86.8042 63.319 86.9861 63.0668 87.0168C62.2838 87.1103 61.0757 86.7527 60.1905 86.5514C58.8141 86.2406 57.3101 85.8231 56.1855 85.6847C54.7893 85.513 53.0962 85.3304 51.6256 85.059C50.2514 84.8059 48.8383 84.4586 47.456 84.1952C44.3129 83.5969 41.9735 82.6246 38.8421 81.9482C36.5859 81.4617 34.3093 80.9872 32.1213 80.4163C30.6588 80.035 29.1508 79.6303 27.7186 79.4265C25.74 79.1445 23.8739 78.1492 22.2764 77.6043C20.6933 77.0652 19.6537 76.6484 18.9302 75.1805C18.5951 74.5011 18.2799 72.9426 18.5735 72.3655C18.1938 71.6577 18.5563 70.6569 18.6501 69.7693C18.7784 68.5545 18.9467 67.1304 19.0922 65.7881C19.2062 64.738 19.171 63.7675 19.4232 62.7613C19.5203 62.3723 19.5093 62.0534 19.5632 61.6089C19.7575 60.0073 20.1688 57.9535 20.4404 56.4034C20.5041 56.0399 20.5804 55.396 20.6768 55.118C20.8157 54.717 21.1357 54.4211 21.179 53.9584C21.2603 53.0902 21.3469 51.8969 21.7072 50.9268C21.9579 50.2525 21.8336 49.3949 22.0228 48.7207C22.2409 47.9427 22.4227 46.5409 22.577 45.3604C22.6144 45.0748 22.7361 44.8392 22.6602 44.6365C22.6056 44.4893 22.3805 44.376 22.3223 44.2168C21.9715 43.2642 20.8949 43.0305 19.8506 42.6605C19.1472 42.411 18.3547 42.2985 17.6949 41.984C17.0102 41.6575 15.9365 41.263 15.2082 41.2488C14.7357 41.2396 14.3618 41.2327 13.9876 41.1761C13.0888 41.0406 12.1269 40.5325 11.3693 40.4438C11.0944 40.4116 11.0867 40.4167 10.9063 40.355C10.3935 40.1797 10.4063 40.7067 10.1263 40.8642C9.9225 40.9785 9.75095 40.9347 9.53799 41.0735C8.73743 41.5943 7.29835 42.1151 6.37977 42.8475C5.85376 43.2668 5.00739 44.0218 4.52684 44.0028C4.20171 44.2975 3.74132 44.9729 3.29852 45.112C2.62443 45.3239 2.84766 46.3246 2.71387 47.0614C2.24578 49.6389 1.8785 52.1204 1.62191 54.5694C1.28285 57.8154 0.804497 61.0271 0.637349 64.0122C0.51382 66.2187 0.20335 68.339 0.0838537 70.4914C0.00797725 71.8589 0.0867861 73.1815 0.103281 74.496C0.142502 77.6028 -0.22515 80.6947 0.230108 83.521C0.381495 84.463 0.51382 85.1869 0.847383 86.2008C1.12083 87.0317 1.30338 87.8605 1.71941 88.48C1.87153 88.7053 2.29343 89.2554 2.56468 89.4793C3.11158 89.9315 3.80363 90.155 4.36629 90.5571C5.54732 91.4027 6.80093 92.2293 8.16964 92.7753C9.54495 93.3235 11.0185 93.8711 12.5166 94.2261C12.8696 94.3097 13.1724 94.4657 13.5129 94.5986C14.7467 95.08 16.4321 95.2133 17.4871 95.5651C18.6831 95.9639 19.9004 96.1444 21.1614 96.3734C21.7512 96.4811 22.5374 96.8522 23.184 96.987C24.3713 97.2357 25.8749 97.5568 27.222 97.8537C28.7571 98.1923 30.1207 98.7124 31.5627 99.0094C33.5322 99.4159 35.6926 100.476 37.6211 100.391C37.8996 100.379 38.0719 100.597 38.319 100.672C38.6679 100.778 39.0653 100.696 39.4084 100.78C41.129 101.205 43.2488 101.441 45.0599 101.613C46.33 101.733 47.8457 102.342 49.2961 102.508C49.9372 102.58 50.5923 102.476 51.1425 102.567C51.4764 102.622 51.9665 102.994 52.4379 103.065C53.9741 103.297 55.3182 103.761 56.6397 103.895C57.3189 103.964 58.755 104.709 59.2539 104.431C59.9467 104.908 60.8041 104.89 61.6061 105.037C63.8171 105.445 66.4508 106.498 68.7304 106.955C69.4177 107.092 70.3055 107.742 70.8876 107.698C70.9876 107.69 71.0936 107.575 71.1819 107.592C71.5125 107.658 71.7197 108.114 72.1144 108.065C72.4769 108.02 72.5884 108.133 73.1074 108.274C73.7793 108.455 74.28 108.534 74.8955 108.695C75.0578 108.738 75.1916 108.903 75.3291 108.949C75.7924 109.106 76.1982 109.044 76.7495 109.116C77.2766 109.185 77.7975 109.488 78.3088 109.641C80.1002 110.175 81.9336 110.465 83.7712 110.871C84.1333 110.951 84.4695 111.213 84.8349 111.309C85.6131 111.51 86.4481 111.491 87.2472 111.651C87.4998 111.702 87.731 111.882 87.9781 111.932C89.1119 112.158 90.1602 112.409 91.2899 112.748C91.4963 112.809 91.7727 112.883 91.9856 112.929C93.1307 113.179 94.3022 113.467 95.396 113.711C95.7871 113.798 96.2017 113.756 96.5851 113.85C96.8344 113.911 96.9861 114.156 97.2841 114.196C97.5033 114.226 97.7757 114.154 97.9436 114.215C99.0781 114.632 100.211 114.682 101.419 114.995C101.85 115.106 102.296 115.446 102.782 115.524C103.319 115.61 103.984 115.686 104.634 115.846C105.192 115.984 106.063 116.524 106.525 116.496C106.588 116.491 106.691 116.351 106.753 116.359C107.073 116.404 107.505 116.792 107.885 116.927C108.631 117.191 109.709 117.279 110.434 117.496C110.54 117.528 110.631 117.658 110.734 117.686C112.927 118.298 115.488 118.612 117.718 119.147C119.022 119.461 120.431 120.123 121.73 120.343C123.871 120.705 126.066 120.999 128.241 121.321C129.014 121.436 129.699 121.819 130.493 121.897C132.637 122.106 134.887 122.733 137.042 123.105C137.693 123.216 138.374 123.587 139.03 123.587C139.885 123.589 141.228 124.094 141.877 124.249C143.015 124.522 144.241 124.976 145.387 125.094C145.615 125.117 145.849 124.999 146.078 125.047C147.094 125.259 147.85 125.495 148.791 125.581C149.249 125.622 149.712 125.787 150.081 125.849C150.515 125.92 150.811 125.671 151.297 125.692C151.505 125.7 151.725 125.875 151.928 125.908C152.591 126.018 153.312 125.92 154.069 125.895C154.503 125.882 154.935 126.008 155.356 125.999C155.688 125.993 156.03 125.771 156.505 125.811C156.87 125.842 157.378 125.972 157.626 125.82C158.596 125.224 160.808 125.925 162.335 125.72C164.077 125.486 166.355 125.706 168.161 125.498C168.871 125.417 169.645 125.543 170.236 125.454C170.392 125.431 170.521 125.266 170.66 125.249C171.69 125.117 173.496 125.414 174.744 125.195C174.98 125.154 175.142 125.028 175.367 125.051C178.497 125.353 181.601 124.708 184.524 124.955C185.343 125.024 186.025 124.777 186.53 124.781C186.85 124.784 187.206 125.008 187.555 124.989C188.445 124.942 189.355 124.775 190.192 124.999C189.828 124.632 190.544 124.853 190.609 124.465C190.662 124.145 190.346 123.839 190.101 123.819C187.876 123.641 185.349 123.796 182.754 123.811C179.387 123.829 175.835 123.958 172.547 124.125C168.856 124.313 165.052 124.729 161.881 124.548C163.369 123.246 165.547 123.738 167.824 123.569C168.248 123.537 168.63 123.392 169.004 123.314C169.836 123.14 170.709 123.308 171.31 123.265C172.035 123.213 172.757 123.119 173.513 123.087C175.097 123.021 176.692 122.796 178.219 122.823C178.795 122.834 179.367 122.767 179.93 122.754C181.303 122.724 183.172 122.684 184.645 122.884C185.482 122.998 186.453 122.678 187.113 122.799C187.466 122.864 187.485 122.882 187.872 122.816C189.108 122.603 190.738 123.141 191.695 122.866C191.717 122.738 191.569 122.698 191.656 122.604C192.335 122.636 191.877 121.825 191.605 121.752C191.375 121.69 191.031 121.85 190.718 121.869C189.756 121.93 188.533 121.671 187.454 121.774C186.911 121.826 186.145 121.807 185.609 121.781C182.104 121.607 177.75 121.827 174.608 121.882C173.588 121.9 171.967 122.224 170.859 122.224C170.241 122.224 169.567 122.136 168.652 122.237C168.033 122.308 167.223 122.525 166.319 122.517C165.409 122.51 166.897 121.459 167.053 121.419C167.349 121.34 167.895 121.344 168.269 121.294C171.208 120.906 174.558 121.565 177.718 120.963C178.334 120.845 178.899 120.749 179.428 120.828C180.079 120.925 180.47 120.767 181.171 120.692C182.282 120.576 183.559 120.8 184.403 120.822C184.778 120.83 185.315 120.834 185.787 120.824C186.583 120.808 188.246 120.864 188.849 120.728C188.97 120.699 189.051 120.504 189.206 120.489C189.472 120.464 190.045 120.615 190.394 120.595C191.076 120.558 193.94 121.105 193.742 120C193.655 119.515 193.214 119.532 192.777 119.56C192.259 119.594 191.636 119.487 191.063 119.498C187.918 119.559 184.547 119.754 181.71 119.696C181.271 119.687 180.452 119.786 180.293 119.661C176.83 120.095 172.533 120.272 168.476 120.174C168.996 119.175 169.675 118.888 170.948 118.676C171.536 118.579 172.749 118.999 172.889 118.537C174.139 118.389 175.367 118.406 176.643 118.457C178.898 118.549 181.133 118.444 183.56 118.377C184.159 118.36 184.81 118.545 185.274 118.439C185.374 118.416 185.538 118.247 185.699 118.233C185.898 118.216 186.152 118.413 186.395 118.415C187.348 118.425 189.327 118.468 190.18 118.269C191.295 118.009 193.291 118.529 194.431 118.311C194.792 118.241 195.092 117.885 194.974 117.511ZM169.1 112.347C168.294 113.078 167.008 113.684 166.109 114.216C166.024 112.685 167.522 112.475 168.356 111.444C168.883 110.792 169.844 110.273 170.362 109.727C170.376 110.841 169.924 111.6 169.1 112.347ZM170.596 108.343C170.369 108.738 169.649 108.914 169.167 109.293C168.34 109.942 167.644 110.613 166.738 111.281C166.394 111.535 166.61 111.075 166.632 110.922C166.694 110.488 166.547 109.88 166.869 109.702C167.119 109.564 167.238 109.28 167.449 109.066C168.364 108.137 169.767 107.302 170.756 106.6C170.667 107.058 170.885 107.842 170.596 108.343ZM170.791 105.121C170.689 105.192 170.703 105.276 170.599 105.388C169.557 106.505 167.768 107.08 166.805 108.259C166.938 107.354 166.864 106.508 167.482 105.98C167.85 105.664 168.175 105.431 168.516 105.071C168.609 104.975 168.841 104.954 168.939 104.833C169.038 104.711 169.007 104.513 169.096 104.435C169.249 104.301 169.749 104.062 169.975 103.957C170.434 103.746 170.812 103.481 171.212 103.274C171.095 103.919 171.259 104.8 170.791 105.121ZM171.314 101.828C171.208 101.95 170.847 102.065 170.696 102.202C170.03 102.803 168.802 103.574 168.069 104.162C167.878 104.315 167.356 104.849 167.226 104.803C167.159 104.78 167.116 103.679 167.23 103.49C167.362 103.273 167.831 103.023 168.073 102.815C168.666 102.305 169.46 101.768 170.02 101.396C170.217 101.038 170.883 100.599 171.414 100.348C171.274 100.62 171.593 101.506 171.314 101.828ZM171.613 98.8995C171.463 99.0894 170.924 99.2848 170.703 99.4437C169.596 100.241 168.391 101.387 167.166 102.014C167.325 101.525 167.135 101.054 167.332 100.533C167.449 100.227 168.797 99.3958 169.179 99.0821C169.93 98.4663 170.904 98.0733 171.719 97.6824C171.634 97.9819 171.8 98.6639 171.613 98.8995ZM171.76 96.4676C171.536 96.6108 171.138 96.8069 170.945 96.9114C170.376 97.2193 169.816 97.4984 169.252 97.8336C168.586 98.2281 167.952 98.6471 167.329 98.8589C167.433 98.1459 167.421 97.6397 167.986 97.1711C169.152 96.2013 170.801 95.434 172.115 94.6213C171.985 95.1041 172.275 96.1352 171.76 96.4676ZM172.021 93.2772C171.042 94.4807 168.93 95.0073 167.595 95.8653C167.266 94.3137 168.519 94.1034 169.452 93.2987C170.154 92.6917 171.492 92.1807 172.383 91.7263C172.261 92.161 172.554 93.1026 172.021 93.2772ZM172.485 90.346C172.19 90.5842 171.741 90.6163 171.539 90.7599C170.443 91.5382 169.092 92.3728 167.7 93.0733C167.393 91.9356 168.732 92.036 168.881 91.2756C169.059 91.1058 169.402 91.135 169.567 90.9651C169.738 90.7891 169.517 90.7675 169.857 90.697C170.349 90.5944 171.038 90.0662 171.486 89.8416C171.79 89.6889 172.091 89.7105 172.304 89.5615C172.382 89.507 172.486 89.1831 172.63 89.3902C172.739 89.5483 172.601 90.2518 172.485 90.346ZM172.655 87.4861C172.631 87.9869 172.786 87.8769 172.305 88.0512C172.209 88.0862 172.266 88.1516 172.176 88.2181C171.049 89.0549 169.016 89.774 168.237 90.4359C168.171 90.4918 168.128 90.8234 167.913 90.7047C167.71 90.5929 168.037 89.6236 167.921 89.4899C168.502 89.632 168.848 89.1838 169.256 88.7722C170.264 87.7549 171.546 86.7198 172.754 85.9408C172.957 86.1898 172.674 87.0873 172.655 87.4861ZM172.951 84.3607C172.85 84.5378 172.445 84.6434 172.236 84.8359C171.969 85.0813 171.962 85.4279 171.66 85.6029C171.427 85.7369 171.061 85.8666 170.81 85.9488C170.016 86.2092 168.678 87.7038 168.125 88.2707C168.091 88.3057 167.998 88.5789 167.868 88.5399C167.764 88.5085 167.706 87.0968 167.8 86.9324C167.949 86.672 168.655 86.5208 169.002 86.1515C169.412 85.7154 169.822 85.493 170.103 85.242C170.211 85.1463 170.291 85.059 170.163 84.9451C171.066 84.3293 172.056 83.7956 173.093 83.3073C172.954 83.5425 173.097 84.101 172.951 84.3607ZM160.756 79.4977C161.248 79.1902 162.29 78.3556 162.94 78.4341C164.081 78.5718 165.243 79.2194 166.325 79.577C167.53 79.9744 168.78 80.4708 169.846 80.9138C170.341 81.1191 170.617 81.5117 171.145 81.5756C171.33 81.5987 171.571 81.5252 171.671 81.5315C171.8 81.5409 172.621 81.9811 172.638 82.0366C172.661 82.1137 172.061 82.5801 172.121 82.5403C171.676 82.8398 171.196 82.9727 170.85 83.1908C169.949 83.7587 169.009 84.6562 168.061 85.2855C167.855 85.4217 167.552 85.8326 167.248 85.7618C167.076 85.7227 166.816 85.3732 166.481 85.3187C163.148 84.7745 159.857 83.1272 156.441 82.6422C157.713 81.6184 159.322 80.3944 160.756 79.4977ZM127.122 67.3411C127.253 67.3203 128.256 67.5 128.246 67.4814C128.306 67.5891 127.693 68.0435 127.6 68.1195C127.366 68.3068 127.074 68.4504 126.82 68.595C126.071 69.0216 125.214 69.7916 124.448 70.1883C124.259 70.2865 123.704 70.3278 123.631 70.4684C123.552 70.6196 123.778 71.1697 123.877 71.2183C124.258 71.4045 124.58 70.9699 124.794 70.9356C125.416 70.838 126.075 70.1554 126.648 69.8464C127.277 69.5074 127.624 69.3507 128.143 68.8628C128.456 68.568 128.909 68.4931 129.185 68.2827C129.353 68.1534 129.584 67.6048 129.796 67.58C130.079 67.5471 130.466 67.9843 130.827 68.0508C130.206 68.3247 129.661 68.7528 129.039 69.1714C128.484 69.5454 127.127 69.8464 127.255 70.4899C127.296 70.6945 127.654 71.017 127.925 71.0006C128.571 70.9637 129.29 69.9885 129.84 69.6473C130.54 69.2138 131.142 68.8956 131.631 68.6571C131.784 68.583 132.003 68.3613 132.185 68.3503C132.35 68.3405 133.201 68.6173 133.214 68.755C133.226 68.869 132.587 69.2791 132.502 69.3285C132.087 69.5688 131.665 69.8449 131.332 70.0754C131.099 70.2365 130.906 70.1682 130.877 70.3807C130.742 71.3764 132.178 70.7489 132.495 70.5433C132.929 70.2609 133.36 70.0177 133.762 69.7288C133.974 69.5768 134.067 69.2295 134.442 69.1557C134.623 69.1203 135.274 69.3376 135.304 69.4325C135.406 69.7452 134.184 70.0838 134.277 70.6697C134.315 70.9107 134.672 71.1525 134.943 71.0491C135.454 70.8552 135.969 69.9541 136.567 69.8993C136.685 69.8876 137.237 70.1433 137.529 70.2394C138.1 70.4279 138.985 70.8136 139.487 70.8873C140.125 70.9805 140.543 71.1277 141.144 71.3779C141.982 71.7271 142.985 71.9294 143.733 72.2749C143.976 72.3867 144.126 72.3688 144.362 72.3933C144.738 72.4309 145.22 72.6464 144.737 72.9758C143.549 73.7841 142.195 74.5924 140.968 75.4851C140.619 75.739 140.063 76.2704 139.734 76.2989C139.475 76.3219 138.42 75.942 138.341 75.8686C137.878 75.4442 136.718 75.3343 135.986 75.1312C135.173 74.9051 134.398 74.4043 133.663 74.359C132.567 74.2929 130.329 73.2826 129.025 73.1442C128.978 73.1395 128.874 73.1964 128.829 73.1815C126.379 72.3882 123.798 71.8775 121.306 71.1412C121.882 70.5889 122.644 70.4143 123.224 69.9191C123.603 69.5955 124.338 69.4077 124.687 69.0012C124.992 68.6465 125.787 68.1443 126.276 67.8189C126.457 67.6983 126.995 67.3616 127.122 67.3411ZM120.102 36.3351C120.374 36.1751 121.011 35.6842 120.877 35.564C121.798 35.3598 122.451 34.6279 123.018 34.0084C123.404 33.5866 124.374 33.4912 124.905 32.9178C125.206 32.5938 125.469 32.1939 126.008 32.1066C125.91 32.3776 126.155 33.3152 125.974 33.5519C125.876 33.6779 125.533 33.8287 125.389 33.958C124.818 34.4723 123.939 34.9617 123.28 35.5133C122.368 36.2766 121.447 37.0568 120.754 37.5364C120.89 37.4418 119.935 37.9995 119.907 37.9809C119.725 37.8589 119.749 37.1751 119.753 36.9666C119.761 36.6097 119.834 36.4932 120.102 36.3351ZM119.807 33.3214C119.849 33.2454 120.226 32.939 120.325 32.8506C120.883 32.3513 121.794 31.8955 122.337 31.4294C122.454 31.3286 122.745 30.9491 122.916 30.7935C123.503 30.2595 124.853 29.7741 125.552 29.2602C125.677 29.1681 125.788 28.9347 125.875 28.9252C126.02 28.9092 126.223 30.1539 126.074 30.5623C125.905 31.024 124.76 31.5499 124.323 31.8797C123.064 32.8298 121.587 34.1436 120.072 34.8916C119.716 35.0669 119.654 33.6034 119.807 33.3214ZM126.101 45.7286C125.731 45.6705 125.654 45.8648 125.449 46.0708C125.012 46.512 124.106 47.0906 123.571 47.5877C123.402 47.7451 122.9 48.1622 122.86 48.2594C122.768 48.484 122.854 48.3737 122.536 48.4961C121.768 48.7912 121.219 49.6616 120.26 49.8902C120.384 49.5505 120.14 48.9986 120.232 48.6108C120.38 47.9924 122.212 47.0778 123.02 46.4832C123.85 45.8732 124.262 45.4524 125.159 44.8293C125.277 44.7479 125.893 44.1138 126.036 44.2197C126.367 44.4644 125.913 45.4535 126.101 45.7286ZM126.001 36.4074C125.939 36.5776 125.573 36.7025 125.418 36.8464C124.697 37.5134 123.812 38.0207 122.822 38.7399C122.091 39.2713 121.483 40.0062 120.653 40.5259C120.354 40.7126 119.885 41.3174 119.86 40.4113C119.852 40.1435 119.837 39.459 119.871 39.3933C119.989 39.1661 120.777 38.8345 121.105 38.5795C122.637 37.3899 124.378 35.892 125.971 34.9636C125.937 35.423 126.177 35.9267 126.001 36.4074ZM120.16 54.4883C120.46 54.595 121.014 54.0574 121.363 53.7407C122.187 52.993 123.096 52.2779 123.988 51.6496C124.206 51.4951 124.829 51.2866 124.898 51.105C124.975 50.9049 124.858 51.0137 125.123 50.8705C125.312 50.7697 125.914 50.1758 126.1 50.2916C126.255 50.3895 126.196 51.3326 126.157 51.4067C125.851 51.9784 124.371 52.6073 123.757 53.2304C122.892 54.1089 121.879 54.4164 120.867 55.1958C120.734 55.2985 120.321 55.7642 120.253 55.7667C120.033 55.7755 120.246 54.8408 120.16 54.4883ZM126.102 48.8474C126.008 48.9822 125.574 49.1356 125.353 49.2901C124.272 50.0484 123.006 51.1923 122.049 51.9206C121.785 52.1212 121.28 52.1913 121.072 52.4338C121.05 52.459 120.385 53.1895 120.229 53.0756C120.107 52.9864 120.117 51.9243 120.201 51.7629C120.237 51.6935 120.446 51.5379 120.554 51.3614C120.721 51.0919 121.242 50.8453 121.527 50.6185C122.854 49.5644 123.835 48.9132 125.125 47.8503C125.342 47.6717 125.777 47.1249 125.933 47.111C126.185 47.0884 126.173 48.7448 126.102 48.8474ZM124.869 43.5553C124.06 44.0908 123.333 45.1175 122.475 45.6413C121.723 46.1007 120.904 46.4335 120.196 46.8714C120.358 46.6347 119.987 45.7848 120.166 45.4933C120.268 45.3272 120.664 45.2055 120.75 45.0543C121.125 44.3921 122.154 44.1803 122.695 43.5685C122.831 43.414 122.935 43.3712 123.149 43.2306C124.005 42.6678 124.459 42.0837 125.121 41.4818C125.273 41.343 126.033 40.7688 126.103 41.1655C126.38 42.7328 125.718 42.9932 124.869 43.5553ZM126.066 39.459C125.934 39.7133 124.537 40.4723 124.22 40.9427C123.546 41.9427 121.708 43.0053 120.588 43.6788C119.755 44.1795 120.157 42.7514 119.963 42.1488C120.799 42.2141 121.403 41.3357 122.011 40.858C122.596 40.3988 123.346 39.8575 123.53 39.4799C124.378 38.9221 125.248 38.5342 126.033 37.8841C125.951 38.2756 126.28 39.0478 126.066 39.459ZM120.377 56.9461C120.486 56.9322 120.554 57.0115 120.642 57.006C121.148 56.9742 121.428 56.2204 121.903 55.8632C122.912 55.1038 123.972 54.4569 125.086 53.7275C125.222 53.6384 125.463 53.1943 125.863 53.0873C126.303 52.9696 125.884 54.0325 126.019 54.233C125.016 54.4463 124.475 55.2974 123.781 55.8891C122.693 56.8168 121.354 57.4074 120.175 58.2961C120.189 58.0189 120.032 56.9896 120.377 56.9461ZM120.207 59.7728C120.275 59.6314 120.449 59.6997 120.566 59.6011C122.131 58.2742 124.114 56.7379 125.916 55.5812C125.975 56.3464 126.012 56.9666 125.427 57.3972C124.844 57.8275 124.016 58.3585 123.284 58.8213C122.594 59.2571 122.1 59.661 121.495 59.9426C121.22 60.0705 120.458 60.7948 120.26 60.691C120.186 60.653 120.189 59.8089 120.207 59.7728ZM120.747 61.9281C122.307 60.893 124.019 59.3779 125.779 58.4404C125.908 58.3721 125.871 59.7626 125.811 59.9496C125.283 59.7001 124.967 60.1589 124.634 60.3685C123.253 61.2371 122.2 62.6111 120.479 63.2799C120.362 62.827 120.113 61.8251 120.882 62.0567C120.958 62.0176 120.795 61.9486 120.747 61.9281ZM121.518 64.0787C121.866 63.9019 122.039 63.5243 122.358 63.3055C122.879 62.9472 123.75 62.6769 124.079 62.1206C124.354 61.6538 125.195 61.2794 125.735 61.0019C125.63 61.2586 125.99 62.0819 125.731 62.381C125.716 62.3986 125.389 62.411 125.37 62.4216C124.911 62.6626 124.375 63.2514 123.783 63.7021C122.684 64.5404 121.513 65.1821 120.473 66.0376C120.043 64.9396 120.74 64.4732 121.518 64.0787ZM120.473 67.6136C120.487 67.3587 121.278 67.1034 121.639 66.7027C121.917 66.3951 122.064 66.0883 122.282 65.9006C123.273 65.0466 124.766 64.5269 125.494 63.5999C125.504 63.5875 125.639 63.5951 125.659 63.597C125.801 63.6108 125.843 64.2471 125.774 64.3497C125.684 64.483 125.508 64.4042 125.381 64.4889C125.219 64.5981 125.201 64.9246 124.998 65.0883C124.581 65.4243 123.881 65.459 123.532 65.8414C122.973 66.4528 121.693 66.9094 120.932 67.5051C120.873 67.5515 120.448 68.0764 120.473 67.6136ZM121.452 68.7086C121.774 68.4654 121.883 68.2006 122.128 68.0052C122.482 67.7228 123.045 67.6249 123.332 67.2904C123.699 66.863 124.742 66.313 125.479 65.9649C125.55 65.9298 125.643 65.7388 125.704 65.7297C125.901 65.7004 126.472 66.2052 126.474 66.3046C126.48 66.6534 125.212 67.1728 124.851 67.4222C123.536 68.3306 122.285 69.4004 120.657 70.0389C120.355 69.1389 120.844 69.1696 121.452 68.7086ZM126.041 27.4442C125.939 27.6114 125.535 27.6549 125.421 27.7528C125.335 27.8258 125.208 28.0753 125.003 28.2214C124.665 28.4625 124.272 28.7251 123.898 28.9669C122.5 29.8712 121.28 31.0199 119.774 31.7789C119.827 31.3271 119.843 30.6489 119.806 30.1368C119.952 30.1689 120.059 30.0666 120.135 30.1298C120.861 29.1331 122.357 28.4208 123.409 27.6315C124.16 27.0676 124.7 26.6443 125.549 26.0102C126.132 25.5748 126.079 25.9872 126.09 26.6556C126.093 26.8382 126.142 27.2776 126.041 27.4442ZM126.005 24.1949C125.898 24.3815 125.559 24.5802 125.324 24.7347C124.332 25.3878 123.315 26.4554 122.246 27.1636C121.837 27.4343 121.259 27.7619 120.783 28.0808C120.572 28.2221 120.003 28.621 119.937 28.591C119.942 28.5932 119.786 27.6859 119.786 27.6754C119.771 26.8904 121.542 25.6263 122.267 25.062C122.746 24.6891 123.327 24.4498 123.698 24.1781C124.064 23.9096 124.54 23.5721 125.031 23.3621C125.352 23.2244 125.782 22.9771 125.913 22.9823C126.101 22.9896 126.149 23.9418 126.005 24.1949ZM125.474 16.2945C124.956 16.6601 124.43 17.0309 123.816 17.3472C122.957 17.7888 122.613 18.3922 122 18.6986C121.847 18.7753 121.718 18.9634 121.61 19.0025C121.247 19.134 120.147 20.2977 119.89 20.1881C119.841 20.1673 119.787 19.1029 119.8 19.0737C119.866 18.9243 119.949 19.039 119.993 18.84C120.068 18.5017 121.977 17.1474 122.486 16.8172C123.73 16.0111 124.793 15.4165 125.865 14.5461C125.833 15.0826 126.135 15.8266 125.474 16.2945ZM119.888 21.6327C119.891 21.6279 120.167 21.5706 120.183 21.5607C120.617 21.2963 121.124 20.618 121.573 20.3167C122.702 19.5573 123.5 18.8593 124.788 18.1474C124.974 18.0448 125.626 17.3256 125.894 17.4674C125.967 17.5064 125.982 18.665 125.921 18.7472C125.877 18.8064 125.062 19.2593 124.978 19.325C124.308 19.8517 123.394 20.1673 122.87 20.8799C121.721 21.1162 120.986 22.2934 119.846 22.7496C119.954 22.4808 119.686 21.9325 119.888 21.6327ZM126.044 21.4037C125.853 21.892 124.58 22.2974 124.225 22.624C123.198 23.5674 121.419 24.4034 120.491 25.1982C120.421 25.2578 120.039 25.5281 119.937 25.4725C119.905 25.4554 119.869 24.2446 119.877 24.2263C119.936 24.0875 120.232 24.0108 120.365 23.9206C121.087 23.4271 121.743 22.8741 122.371 22.2364C122.882 21.7185 123.885 21.4223 124.488 21.0428C124.777 20.8602 125.481 20.1413 125.887 20.2254C126.098 20.2688 126.049 21.389 126.044 21.4037ZM125.868 13.1348C124.155 14.4453 122.181 15.6795 120.714 17.1174C120.708 17.1551 120.681 17.1364 120.681 17.1182C120.417 17.1795 120.185 17.5426 119.869 17.6606C119.576 16.5626 120.301 16.1302 120.913 15.636C121.347 15.2857 121.741 14.694 122.106 14.4288C122.944 13.8203 124.131 13.4938 124.904 12.7611C125.122 12.5544 125.42 12.2271 125.78 12.1186C125.818 12.5591 125.819 12.7571 125.868 13.1348ZM57.6041 2.36792C59.0208 2.08229 59.8694 1.02161 61.5328 1.20131C65.1781 1.59469 69.2154 2.07389 72.7343 2.73682C76.0743 3.36615 79.5587 3.2226 82.938 3.83403C84.1865 4.05976 85.4434 4.49148 86.6746 4.47687C87.4569 4.46774 88.3113 4.83957 89.1232 4.98347C89.6331 5.07333 90.1565 5.05032 90.6737 5.08173C91.714 5.14455 92.8137 5.52879 93.9471 5.63618C95.9367 5.82428 97.5481 6.33709 99.3361 6.50693C106.326 7.17096 112.807 8.6462 119.531 9.52645C120.107 9.6017 120.79 9.88951 121.255 10.0477C122.209 10.3727 123.624 10.5966 124.666 10.8947C125.379 11.0985 124.775 11.3921 124.453 11.6873C123.139 12.8875 121.055 13.8821 119.616 15.0724C119.453 15.2076 119.231 15.5487 119.1 15.5761C118.954 15.6057 118.249 15.4621 117.943 15.4033C116.941 15.2116 115.693 14.93 114.567 14.6871C112.426 14.2247 111.07 14.2192 109.179 13.8492C108.612 13.7378 108.367 13.8258 108.056 13.7086C107.808 13.6158 107.471 13.6925 107.165 13.6618C106.113 13.5574 104.84 13.2491 103.826 13.1088C98.8772 12.4251 93.8855 11.2797 88.948 10.6664C86.7685 10.3957 84.8305 9.85445 82.4692 9.65466C81.0422 9.53376 79.4825 8.95155 78.0368 8.82919C74.5843 8.53699 70.5331 7.38463 66.9589 6.89702C65.011 6.63148 62.8582 6.67129 60.8818 6.20487C58.2631 5.5876 55.5781 5.66138 53.1189 5.25339C54.3659 4.03273 56.6935 3.72994 57.6041 2.36792ZM39.1397 48.03C39.2944 47.9723 39.6279 48.0684 39.4978 47.8255C40.3643 47.8145 40.7228 47.0424 41.626 47.1892C42.6839 47.3612 43.8096 47.8766 45.0361 47.9708C46.1742 48.0581 47.7442 48.6294 49.0095 48.9044C50.0534 49.1312 50.9024 49.1396 51.7238 49.5031C51.858 49.563 52.8422 49.8584 52.8517 49.8734C52.9071 49.9596 52.8975 50.6057 52.9023 50.693C52.9628 51.8228 52.9104 53.2257 53.0137 54.3678C53.0159 54.3923 53.2436 54.8003 53.0914 54.9241C52.9859 55.0099 51.6388 54.5369 51.534 54.4975C50.7851 54.2166 49.6649 54.0011 49.015 53.7955C46.3787 52.9631 43.0105 51.9886 39.9718 51.4922C38.2919 51.2175 36.4466 50.8537 34.9383 50.2854C36.4331 49.7087 37.6526 48.5848 39.1397 48.03ZM73.6572 83.0823C72.6742 82.2605 71.907 81.0877 70.6999 80.3546C70.5174 80.2439 70.4004 79.9978 70.2281 79.8721C68.0538 78.2837 65.9978 76.5772 64.0906 74.7824C63.738 74.4504 63.2428 74.2129 62.9535 73.9854C61.863 73.1278 60.7989 72.1 59.795 71.0977C59.0028 70.3073 58.0461 69.7116 57.18 68.9869C55.6727 67.7254 54.1911 66.4236 52.6182 65.1767C52.2231 64.8633 51.7176 64.3004 51.3063 63.9239C50.0124 62.7383 48.3713 61.9599 47.1199 60.7297C45.918 59.5474 44.4507 58.8312 43.2359 57.792C42.9262 57.5269 42.7048 57.1419 42.3921 56.8577C41.1605 55.7371 39.5143 55.0563 38.4425 53.954C38.1467 53.6494 37.6794 53.2469 37.3018 52.993C37.1446 52.8875 36.892 52.9083 36.738 52.8082C36.1182 52.405 35.608 51.8918 35.0292 51.4655C37.7127 52.4831 40.8753 52.6625 43.6021 53.3521C46.2087 54.0117 49.011 54.8941 51.59 55.5794C51.9771 55.6824 53.0302 56.3194 53.5137 56.1955C53.7883 56.125 53.885 55.4986 54.1207 55.2959C54.208 55.221 54.3029 55.3613 54.3498 55.2254C54.4506 54.934 54.0283 54.3485 53.9616 54.0194C53.9191 53.8094 54.076 53.7111 54.0837 53.557C54.1335 52.5365 53.8971 51.669 53.8238 50.6408C53.7303 49.3321 53.8047 47.8912 53.8033 46.6033C53.8025 45.8619 53.4312 45.0861 53.4939 44.4429C53.5009 44.3684 53.6185 44.2738 53.6207 44.2106C53.6259 44.0276 53.4118 43.7474 53.4103 43.624C53.4085 43.4384 53.5764 42.7657 53.5141 42.3087C53.3315 40.9668 53.3806 39.4642 53.1919 38.0152C53.0599 36.9984 53.1644 35.671 53.1849 34.6009C53.1911 34.2677 53.0262 33.9222 53.0639 33.553C53.1142 33.0577 53.2124 32.5796 53.1963 32.0401C53.1721 31.2344 53.0339 30.4279 53.2476 29.8066C53.2831 29.7025 53.2666 29.3161 53.267 29.1824C53.2685 28.5812 53.2787 27.8098 53.293 27.3105C53.3594 25.001 53.329 22.8471 53.2846 20.7451C53.2579 19.466 53.3348 17.8202 53.2274 16.5111C53.1992 16.166 53.1761 16.1207 53.2458 15.8215C53.3792 15.2485 53.1094 14.6896 53.0812 14.282C53.0027 13.1611 52.8748 11.5989 52.925 10.0506C52.9492 9.2989 52.7879 8.56731 52.7828 8.01797C52.7773 7.46352 52.5306 6.52446 52.6842 6.47698C52.8869 6.41452 53.282 6.46493 53.6391 6.45689C55.9399 6.40612 58.6465 6.97591 60.5735 7.19652C63.1812 7.49493 65.8911 7.80905 68.6344 8.24041C71.6251 8.71085 74.5971 9.25215 77.4276 9.62982C78.3872 9.75802 79.6691 10.1682 80.639 10.3501C81.8904 10.5849 83.1953 10.6383 84.4709 10.8267C85.7539 11.0163 87.0232 11.4301 88.3091 11.5989C89.6976 11.7815 91.0377 11.9806 92.3756 12.268C95.3429 12.9054 98.3574 13.1724 101.301 13.6877C102.947 13.9759 104.859 14.3503 106.593 14.6261C110.067 15.1791 113.265 15.3474 116.314 16.2587C116.709 16.3771 117.448 16.5111 117.77 16.5561C118.07 16.5981 118.454 16.5126 118.563 16.6707C118.739 16.9279 118.721 18.3056 118.733 18.4725C118.816 19.6103 118.863 20.7981 118.708 21.953C118.53 23.2872 118.795 24.7435 118.829 26.0869C118.949 30.6887 118.571 35.1013 118.862 39.9726C118.993 42.1572 119.159 44.5053 119.203 46.6625C119.33 53.0452 119.017 61.2141 119.324 67.8017C119.37 68.7926 119.135 69.9063 119.421 70.7873C119.459 70.9056 119.671 71.047 119.692 71.1755C119.728 71.3815 119.453 71.7647 119.742 71.9623C119.9 72.0707 120.237 72.0014 120.369 72.0152C122.024 72.1822 123.78 72.9974 125.406 73.3528C125.669 73.4098 125.905 73.3126 126.097 73.3378C126.393 73.3769 126.727 73.6457 127.028 73.7122C127.735 73.8678 128.435 73.8499 129.112 74.1275C132.019 75.3186 135.736 75.7196 138.568 77.2098C138.255 77.1013 137.81 77.281 137.783 77.5225C136.998 77.5258 135.749 78.2544 134.71 78.6051C133.342 79.066 132.014 79.5313 130.786 80.0014C130.57 80.0832 130.34 80.3736 130.168 80.4079C129.868 80.4686 129.488 80.4153 128.954 80.6304C126.295 81.7064 123.656 82.6458 120.943 83.46C120.861 83.4841 120.768 83.4505 120.679 83.4655C119.293 83.6952 117.682 84.4735 116.426 84.8687C115.432 85.181 114.639 85.3629 113.447 85.7526C112.464 86.0737 111.172 86.5588 110.306 86.7706C109.993 86.8477 109.649 86.8163 109.388 86.9547C108.904 87.21 108.726 87.1015 108.076 87.2779C105.567 87.9591 102.283 89.0355 99.6939 89.6875C99.2709 89.7938 98.7962 89.8252 98.448 89.9764C96.5221 90.8154 93.6916 91.3888 91.3123 92.1631C90.5081 92.4247 89.1888 92.6752 88.2013 93.0496C87.9198 93.1566 87.7728 93.2746 87.4495 93.3279C86.605 93.4686 85.9525 94.0186 85.229 94.2619C84.9277 94.3631 84.3041 94.4551 84.2774 94.446C84.1876 94.416 84.2041 94.2348 84.1051 94.0884C83.5817 93.313 82.8009 92.7523 82.147 91.8647C79.6651 88.4957 76.8756 85.7727 73.6572 83.0823ZM80.2559 91.2486C79.3454 90.8939 78.3301 90.7555 77.2737 90.4582C77.2524 90.4516 76.5043 90.2576 76.5424 90.1448C76.564 90.0809 77.9184 90.0257 77.9892 90.0158C78.3348 89.9687 78.613 90.1276 78.914 90.1276C78.9979 90.1276 79.0749 90.0063 79.1423 90.0242C79.6324 90.1543 79.9576 90.8848 80.2559 91.2486ZM73.8567 87.8057C74.2302 87.843 74.6796 87.8784 75.1103 87.8769C75.5927 87.8762 76.976 87.7378 77.1527 87.8671C77.4437 88.0789 77.5002 88.7674 77.8338 88.9029C76.6414 89.0899 75.5311 88.9091 74.3757 88.9763C74.0788 88.9935 73.8226 89.224 73.5253 89.2569C73.1393 89.3003 72.4656 88.9749 72.0015 88.8624C70.3883 88.4719 68.9375 88.3572 67.3995 87.8108C69.6263 87.6793 71.6298 87.5804 73.8567 87.8057ZM19.3884 78.1259C19.421 78.1131 20.3106 77.9319 20.3462 78.2365C20.3586 78.3443 19.5174 78.8706 19.406 78.9455C18.928 79.2695 18.207 79.6398 17.5182 80.0361C17.0556 80.3024 16.1271 80.9909 16.6597 81.4986C17.0325 81.8547 17.7726 80.821 18.0585 80.6483C18.5534 80.3502 19.1853 80.1862 19.5247 79.8959C19.9283 79.5496 20.771 79.3944 21.3194 79.0697C21.5026 78.9612 21.6405 78.604 21.7369 78.5682C22.0921 78.437 22.4527 78.9984 22.7038 79.1062C23.309 79.3637 22.6115 79.3834 22.5557 79.8973C22.3116 79.7779 21.992 80.1596 21.7405 80.2754C21.0474 80.5935 19.6219 80.6669 19.5885 81.3382C19.5713 81.6834 19.8814 82.1206 20.458 81.9438C20.7424 81.8569 21.0793 81.6049 21.4026 81.431C21.823 81.2064 22.2691 81.0314 22.6749 80.8459C23.0865 80.6592 23.324 80.1603 23.5788 79.9737C24.1539 79.5511 24.9182 79.8853 25.3951 80.1654C25.0648 80.6384 23.1774 80.756 23.8156 81.8068C24.1206 82.3091 24.729 81.7528 25.03 81.5844C25.4347 81.3583 25.9621 81.0665 26.3991 80.8988C26.6351 80.8083 26.9705 80.6362 26.8825 80.3959C28.1054 81.0599 29.6328 80.7118 30.9505 81.1308C31.2482 81.2254 31.5048 81.5545 31.9498 81.6348C32.9831 81.8218 34.027 81.9851 34.961 82.2605C35.7018 82.4782 36.3462 82.8186 36.9532 82.9731C37.4759 83.1068 38.2688 83.0633 38.8695 83.228C39.9908 83.5356 41.1074 83.8428 41.9808 83.9173C42.711 83.9797 43.6201 84.5371 44.4998 84.6189C44.8216 84.6489 44.9858 84.6532 45.2252 84.6361C45.5448 84.6142 46.1768 85.2431 46.7882 85.326C47.4201 85.4108 47.9887 85.3487 48.5707 85.4849C49.4285 85.6854 50.4127 86.1135 51.2235 86.2819C51.608 86.3626 52.1681 86.1862 52.5728 86.2205C53.3455 86.287 54.2314 86.7085 54.955 86.6957C55.3754 86.6884 56.07 86.6979 56.4399 86.7954C56.6972 86.8641 56.9252 87.0986 57.2049 87.141C57.7342 87.2188 58.2892 87.1329 58.7888 87.2714C59.4009 87.4397 60.0083 87.7272 60.6135 87.8565C61.5313 88.0519 62.024 87.954 62.926 88.1352C63.9359 88.3386 64.9362 88.5998 65.8728 88.828C66.0681 88.8759 66.2954 88.8372 66.4999 88.8806C67.0707 89.0004 67.6139 89.3752 68.0274 89.4395C68.1296 89.4552 68.3213 89.35 68.454 89.3646C69.0116 89.423 69.4261 89.7291 69.6779 89.6013C69.7769 89.5512 70.7171 89.6732 70.9323 89.7054C71.7229 89.8244 72.6111 90.5173 73.6836 90.5016C74.3126 90.4918 74.7283 91.0068 75.0787 91.0294C75.1843 91.0367 75.3163 90.9133 75.3731 90.9253C75.7378 90.9995 76.2125 91.5532 76.5387 91.524C76.612 91.5174 76.4944 91.4418 76.5354 91.3596C77.2121 91.2263 77.9063 91.9411 78.4628 92.1401C78.796 92.2585 79.2332 92.3107 79.5228 92.4126C79.7208 92.4827 80.5561 92.5189 80.5836 92.7187C80.6067 92.8878 79.944 93.0697 79.8018 93.1289C79.4495 93.2772 78.4455 93.718 78.4349 93.9131C78.4327 93.9507 78.7806 94.3422 78.8726 94.3638C79.51 94.5113 80.8193 93.2746 81.6158 93.2216C81.8328 93.2081 82.5722 94.1139 82.53 94.3846C82.5113 94.5059 81.7438 94.8419 81.4876 94.9317C80.8549 95.1549 78.8616 95.6527 79.5774 96.5155C79.9268 96.9362 81.1012 96.1473 81.6067 95.8818C82.1133 95.6151 82.7078 95.1421 83.1403 95.1922C83.5219 95.2371 83.5483 95.904 84.0421 95.7641C84.1502 95.7335 84.1095 95.5994 84.1696 95.5644C84.3452 95.4624 84.2393 95.6443 84.4684 95.6564C84.7565 95.6721 85.2843 95.4109 85.5801 95.2718C86.0981 95.0285 86.5731 94.5899 87.3781 94.61C86.4851 95.3748 84.4896 95.8156 83.4369 96.7295C83.2529 96.8884 83.2114 97.3606 83.4219 97.5827C83.9581 98.1474 85.2726 96.8321 85.5108 96.6524C86.1956 96.1352 87.286 95.663 88.15 95.2835C88.4315 95.1593 88.9737 94.9095 89.2955 94.931C89.4817 94.9431 90.3119 95.2298 90.3244 95.2696C90.4025 95.5245 88.5792 96.243 88.3696 96.2963C88.0129 96.3869 86.6343 97.0933 86.5463 97.3194C86.4716 97.5119 86.9532 98.0853 87.09 98.0963C87.3183 98.1149 87.7113 97.6017 87.8033 97.5553C87.8821 97.5162 88.0093 97.5681 88.0994 97.5491C88.7171 97.4235 89.5961 96.7485 90.0865 96.4895C91.0168 95.999 91.8746 95.2835 92.9075 95.9048C92.3097 96.5103 90.4083 96.7763 90.0103 97.5418C89.7691 98.0064 90.1177 98.6299 90.6561 98.4801C91.07 98.3658 91.5582 97.7745 91.9537 97.5334C92.1652 97.4048 92.5113 97.4326 92.7389 97.2544C93.5904 96.5852 94.7436 95.8091 96.0833 96.4939C95.6402 96.6879 95.1732 97.0995 94.7175 97.3435C94.4188 97.5035 93.9295 97.452 93.8059 97.8559C93.3892 99.2139 95.1563 98.2679 95.6218 98.047C96.1761 97.7836 96.7413 97.5042 97.1221 97.3256C97.2706 97.2558 97.5737 96.9421 97.7394 96.9183C98.2486 96.8471 99.5095 97.4677 100.126 97.5904C101.31 97.826 102.439 98.1832 103.469 98.3403C105.337 98.6255 107.19 99.4115 109.235 99.8926C109.657 99.9908 110.133 100.089 110.56 100.226C111.665 100.579 112.646 100.572 113.573 100.916C114.064 101.099 114.611 101.468 115.234 101.571C116.036 101.704 116.858 101.811 117.647 101.946C118.472 102.088 119.097 102.476 120.002 102.652C121.353 102.914 122.784 103.186 124.137 103.484C125.996 103.892 128.008 104.216 129.567 104.747C130.513 105.07 131.847 105.257 133.042 105.462C133.612 105.559 134.155 105.798 134.665 105.886C135.111 105.964 135.806 106.244 136.224 106.379C136.495 106.466 136.946 106.386 137.315 106.52C137.753 106.68 137.67 106.671 138.01 106.669C138.567 106.667 139.308 107.049 139.767 107.223C140.825 107.626 142.141 107.495 143.139 107.743C143.433 107.815 143.448 107.943 143.703 107.894C144.395 107.764 145.615 108.583 146.356 108.758C146.71 108.841 147.219 108.703 147.377 108.736C147.528 108.768 147.703 108.993 147.912 109.086C148.282 109.251 148.849 109.237 149.236 109.386C150.155 109.74 150.645 109.885 151.49 110.028C150.841 111.357 149.758 111.921 148.572 112.224C148.19 112.322 147.684 112.623 147.031 112.552C146.109 112.45 145.044 112.149 144.119 111.956C143.267 111.78 142.357 111.631 141.439 111.456C140.434 111.265 139.364 110.987 138.492 110.763C137.12 110.41 135.641 110.166 134.191 109.902C132.681 109.627 131.395 108.938 129.886 108.877C129.092 108.846 127.862 108.456 126.94 108.217C125.822 107.927 124.639 107.874 123.436 107.635C123.03 107.554 122.591 107.224 122.074 107.138C119.261 106.672 115.84 105.813 112.776 105.267C112.384 105.197 112 104.985 111.649 104.93C111.385 104.888 111.113 104.997 110.858 104.946C108.241 104.428 105.767 103.559 103.243 103.171C103.159 103.158 103.062 103.196 102.979 103.177C101.271 102.79 99.4791 102.381 97.8464 101.939C95.1442 101.207 91.2529 100.342 88.2409 99.5492C87.9928 99.4838 87.8157 99.3133 87.6412 99.2333C86.4954 98.7077 84.9493 98.6504 83.7693 98.4294C83.3368 98.3479 82.6033 97.9363 82.1089 97.8074C81.9883 97.7759 81.7647 97.8523 81.6811 97.8165C81.5777 97.773 81.5719 97.6481 81.4791 97.624C81.1503 97.5374 80.9432 97.5798 80.6844 97.4436C80.0972 97.1353 78.7553 96.9362 77.9683 96.7463C77.6351 96.6659 77.2993 96.6444 77.009 96.5695C75.7884 96.255 74.2056 95.7612 72.5015 95.3189C71.5052 95.0607 70.7054 94.9445 69.7542 94.7214C69.3118 94.6169 68.7436 94.2626 68.325 94.1271C67.6791 93.9193 66.7774 93.8816 65.7778 93.6563C62.5199 92.9199 59.1194 92.0905 55.8391 91.0758C53.6438 90.3975 51.3756 89.8796 49.1154 89.4128C48.6265 89.3116 47.9835 88.9486 47.2918 88.8609C47.0268 88.8266 46.845 88.7853 46.6306 88.7429C42.9332 88.0263 38.6892 87.0109 34.6883 86.4682C33.9464 86.3674 33.1407 86.2183 32.5395 86.1201C28.716 85.4922 24.5593 84.1097 20.9781 83.1473C19.8883 82.8548 18.5402 82.6736 17.3346 82.24C16.7004 82.0118 14.8105 81.2853 14.7742 81.145C14.7133 80.9072 15.3544 80.5256 15.5495 80.4065C15.8354 80.2312 16.251 80.0427 16.6891 79.791C17.5142 79.3173 18.2407 78.6851 18.9023 78.497C19.1791 78.4177 19.3623 78.135 19.3884 78.1259ZM18.8418 77.2178C17.9024 77.6229 17.1733 78.4732 16.243 78.9469C15.802 79.1716 15.1976 79.3173 14.7086 79.6033C14.4894 79.7315 13.9084 80.3232 13.7354 80.3137C13.4836 80.2987 12.8153 79.604 13.0177 79.1139C13.0543 79.0262 14.3087 78.2164 14.5777 78.0959C15.4003 77.7263 16.5765 77.3168 17.5153 76.819C17.6879 76.7277 17.9841 76.4658 18.101 76.4786C18.4203 76.5129 18.5361 77.1985 18.8418 77.2178ZM13.1423 67.9496C13.2823 67.7027 13.9227 67.6556 14.1525 67.4361C14.8486 66.7702 16.4061 66.2786 17.1751 65.5006C17.3646 65.3085 17.7642 64.9769 18.1175 64.8899C18.0306 65.7373 18.075 66.6004 17.4064 67.0712C16.9603 67.3846 16.3394 67.5106 15.8075 67.7948C14.8024 68.3313 13.952 69.1707 13.0778 69.5597C13.3201 69.1232 12.9392 68.3076 13.1423 67.9496ZM14.6983 69.8537C15.2668 69.3201 16.8115 68.2557 17.3972 68.1878C17.7543 68.1465 17.527 68.5702 17.5765 68.8734C17.7873 70.1576 16.1594 70.9984 15.1602 71.4195C14.7856 71.5769 13.8626 71.7924 13.3938 72.0152C13.4561 71.9849 13.0609 72.2439 13.0019 72.1869C12.8439 72.0364 12.9191 71.124 12.9774 71.0393C13.1955 70.7211 14.334 70.1959 14.6983 69.8537ZM15.5418 72.3304C15.8922 72.0649 16.251 71.8395 16.4182 71.7212C16.5608 71.6204 17.0802 71.3275 17.203 71.4414C17.3606 71.5886 17.1982 72.9945 17.1707 73.0182C17.1337 73.0507 16.9695 73.0025 16.8745 73.0244C16.4127 73.1329 15.6572 73.8072 15.2144 73.9788C14.3681 74.3079 13.5844 74.6589 12.7999 75.0804C12.3953 73.1873 14.3955 73.1994 15.5418 72.3304ZM13.1229 76.3219C13.654 75.9395 14.838 75.2908 15.434 74.992C15.6972 74.8602 16.9922 74.0767 17.2646 74.3295C17.3749 74.4321 17.3756 75.1396 17.4482 75.2115C17.8019 75.5633 16.5212 76.1553 16.056 76.3573C14.7881 76.9081 13.8963 77.1499 12.8553 77.673C12.8197 77.1948 12.7248 76.6079 13.1229 76.3219ZM18.1512 63.3789C17.8947 63.498 17.7117 63.8486 17.4093 64.1167C16.6282 64.8085 15.5344 65.1993 14.7075 65.6511C14.4168 65.81 13.4535 66.6234 13.2431 66.5029C13.2911 66.5299 13.1867 65.2322 13.3116 65.0897C13.8725 64.4513 14.7291 63.9045 15.3519 63.4381C16.0234 62.9351 16.9332 62.5819 17.5354 62.3084C17.737 62.2167 18.1117 61.7839 18.3474 61.766C18.671 61.7411 18.4016 63.2624 18.1512 63.3789ZM18.6413 60.0854C18.5526 60.2005 18.3825 60.2242 18.2839 60.3229C18.0867 60.5194 17.9929 60.775 17.803 60.9569C17.1865 61.5464 16.2052 61.7893 15.4237 62.156C15.1829 62.2693 14.6587 62.7631 14.2885 63.0009C14.1203 63.1093 13.4685 63.491 13.4421 63.4782C13.29 63.4059 13.4865 62.7656 13.4861 62.4599C13.4865 62.2857 13.3542 62.0362 13.5396 61.8679C13.9326 61.5114 14.4791 61.4694 15.0403 61.1794C15.9966 60.6852 17.2891 59.9649 18.1003 59.4404C18.3224 59.2965 18.59 58.9309 18.7476 58.9013C19.0354 58.8476 18.8759 59.7794 18.6413 60.0854ZM19.3777 55.999C19.3282 56.3095 19.4067 57.1382 19.2087 57.3486C19.0299 57.5389 18.6039 57.5502 18.4584 57.6927C17.2411 58.8863 15.5451 59.8919 13.6426 60.5194C13.4275 59.0028 14.6096 58.6873 15.4706 58.1829C16.1697 57.773 16.9402 57.2131 17.6461 56.6923C17.9298 56.4833 18.7931 56.0155 19.0442 55.8091C18.9951 55.8496 19.3414 55.3595 19.5024 55.6681C19.5713 55.8003 19.3873 55.9391 19.3777 55.999ZM19.9576 53.8528C19.8128 54.1202 18.3932 55.079 17.9804 55.3723C17.5395 55.6856 17.0611 56.1097 16.585 56.3537C15.7705 56.7704 14.8237 56.8614 14.2698 57.486C14.2771 57.0027 14.1221 56.0962 14.6609 55.7379C15.239 55.3536 15.7525 54.8507 16.3115 54.3569C16.6374 54.069 17.2598 53.9858 17.6476 53.672C18.1828 53.2396 18.6813 52.8765 19.2384 52.5551C19.5353 52.3834 19.3931 52.2654 20.0196 52.1117C20.2237 52.0616 20.0254 53.729 19.9576 53.8528ZM20.639 50.2602C20.4682 50.8676 18.6816 51.6562 17.9779 52.1548C16.9482 52.8842 15.7778 53.5343 14.6631 54.2933C14.4241 53.184 15.4717 52.3418 16.0934 51.8666C17.0827 51.1113 18.2444 50.7186 19.3469 49.9264C19.73 49.6513 20.0537 49.0596 20.4437 48.8197C21.2054 48.3514 20.8084 49.6568 20.639 50.2602ZM21.1658 47.1633C21.0129 47.4025 20.4726 47.5504 20.223 47.7411C19.7388 48.1104 19.0995 48.8073 18.5735 49.1878C18.0743 49.5483 17.4871 49.5885 17.1396 49.9403C16.8148 50.2697 16.0201 50.7055 15.6466 50.9896C15.4754 51.12 15.1074 51.5163 15.2536 51.0963C15.3061 50.9458 15.2218 50.6057 15.3376 50.4052C15.3673 50.3541 15.5187 50.3037 15.5326 50.2697C15.6272 50.0389 15.4985 49.6886 15.5502 49.5473C15.7258 49.064 17.4852 48.328 18.0526 47.9511C19.359 47.0844 20.205 46.3294 21.3626 45.5832C21.3073 46.0197 21.4191 46.7666 21.1658 47.1633ZM4.9799 45.1752C5.18004 44.9498 5.76909 44.7249 6.11841 44.494C6.70013 44.1105 7.08098 43.842 7.57876 43.4458C7.89583 43.193 8.50357 43.1291 8.81808 42.8614C8.86499 42.8215 8.88149 42.6882 8.9449 42.6287C9.20882 42.3829 9.93789 42.2685 10.3165 42.0417C10.4914 41.9365 10.5772 41.7411 10.7044 41.7053C10.8451 41.6655 11.0555 41.694 11.2652 41.7262C12.1387 41.8602 13.3754 42.3127 14.3101 42.384C15.3105 42.4603 16.2345 42.5414 17.1205 42.8497C17.571 43.0064 18.0332 43.3669 18.4522 43.5108C18.5534 43.5455 18.9045 43.4885 19.1123 43.5626C19.4906 43.697 20.0401 44.0911 20.4114 44.2245C20.5496 44.2738 20.9147 44.242 20.9411 44.3446C20.9891 44.5309 19.9452 45.0978 20.0009 45.0539C18.59 46.1694 16.8027 47.2367 15.2907 48.2064C14.8933 48.4617 15.1532 48.3817 14.7962 48.1845C14.1357 47.8189 13.1661 47.7995 12.3102 47.4821C12.1394 47.4186 11.8579 47.2546 11.579 47.1691C9.95402 46.6713 7.98527 46.4634 6.90724 45.955C6.63599 45.8268 6.71003 45.7976 6.34274 45.7373C6.09899 45.6968 4.75374 45.4294 4.9799 45.1752ZM160.905 123.551C160.483 123.856 160.032 124.172 159.537 124.302C159.163 124.4 158.722 124.292 158.319 124.361C157.933 124.427 157.558 124.623 157.173 124.68C156.364 124.803 155.286 124.774 154.639 124.8C149.315 125.014 144.304 123.407 139.271 122.532C137.557 122.234 134.917 121.693 133.284 121.411C130.777 120.98 128.188 120.311 125.608 119.932C123.076 119.561 120.667 118.777 118.29 118.183C117.376 117.955 116.305 117.993 115.348 117.753C111.616 116.817 107.762 115.426 104.117 114.806C102.785 114.58 101.483 114.037 100.076 113.776C99.4959 113.669 98.934 113.454 98.3523 113.288C96.2692 112.691 93.8946 112.197 91.927 111.716C84.2448 109.837 76.4867 108.409 69.0709 105.93C68.799 105.838 68.502 105.876 68.2117 105.816C67.4101 105.653 66.5333 105.284 65.6587 105.05C64.974 104.867 64.3083 104.545 63.6339 104.338C63.4143 104.27 63.1555 104.348 62.9407 104.287C60.6476 103.629 58.3485 103.218 56.1221 102.79C55.0386 102.581 54.613 102.553 53.3755 102.225C52.4122 101.968 51.5677 101.814 50.6627 101.691C48.9791 101.463 47.2742 100.8 45.5338 100.651C42.81 100.417 39.8248 99.6058 37.1698 99.3177C37.0045 99.2998 36.9712 99.184 36.8026 99.0956C36.4463 98.9079 35.8437 98.9301 35.4133 98.8297C33.5919 98.4023 31.2551 97.7566 29.2846 97.2522C28.5712 97.0695 27.8623 96.8869 27.6901 96.6294C26.4782 96.4862 24.0128 95.8803 22.297 95.5614C21.1661 95.3518 20.0064 95.1677 19.0863 94.8748C18.5735 94.7111 18.0867 94.3711 17.626 94.3473C17.3936 94.3353 17.1154 94.1855 16.6982 94.1048C13.4048 93.4627 10.3041 92.4097 7.63924 91.0787C6.04144 90.281 4.21857 89.3423 3.16363 88.2195C2.73586 87.7644 2.59401 87.2356 2.33889 86.6278C1.39648 84.3837 0.918495 81.5899 1.21724 78.8385C1.33783 77.7314 1.30741 76.2204 1.30154 75.0611C1.30118 74.9833 1.24363 74.9106 1.2308 74.8335C1.05155 73.7644 1.25316 72.5938 1.29275 71.5492C1.29971 71.3589 1.10104 71.1503 1.14796 70.9615C1.48628 69.598 1.34736 67.8083 1.51121 66.3571C1.66113 65.0302 1.73664 63.6485 1.78723 62.3138C1.85174 60.6205 2.26594 58.9842 2.47341 57.4078C2.5262 57.0075 2.46461 56.7489 2.61857 56.4852C2.90668 55.9917 2.76812 54.7093 2.89935 54.214C3.09619 53.4726 2.96386 52.4674 3.00895 51.6186C3.10498 49.8037 3.83406 47.9705 3.91836 46.3794C4.46306 46.6643 5.18737 46.4613 5.76799 46.6026C6.07773 46.6782 6.33358 46.9642 6.63489 47.0767C7.74701 47.4927 9.37267 47.6348 10.3455 48.0486C10.7593 48.2247 11.3242 48.148 11.7014 48.2824C11.9814 48.3825 12.4627 48.8489 12.9337 48.9132C13.2127 48.9515 13.5987 49.2799 13.7654 49.2897C13.922 49.2985 14.0895 49.1973 14.1983 49.5104C14.3468 49.9355 14.0781 51.7822 13.9909 52.1409C13.8215 52.84 13.5162 53.5299 13.4117 54.32C13.235 55.6498 13.0298 56.9205 12.804 58.2723C12.2952 61.3178 12.1178 64.7285 12.0239 68.0388C11.9624 70.2051 11.9558 72.4294 11.7006 74.5132C11.521 75.9778 11.5874 77.6415 11.8968 79.0719C11.9862 79.4857 12.05 80.0785 12.1878 80.3466C12.3898 80.7403 13.3226 81.4646 13.7017 81.8248C13.9117 82.0238 14.3274 82.2433 14.6034 82.396C15.7459 83.0297 17.1066 83.2985 18.4848 83.6594C20.0683 84.0747 21.9 84.5583 23.5187 84.8665C23.9021 84.9392 24.2558 85.1233 24.6788 85.2026C25.7781 85.4093 27.1545 85.8374 28.1581 86.1471C28.8366 86.356 29.5378 86.8184 30.3805 86.8546C30.7845 86.8725 31.1859 86.7319 31.5319 86.7648C32.0506 86.8141 32.6228 87.2414 33.1268 87.3875C33.5226 87.5033 34.0919 87.3882 34.5446 87.4562C36.0416 87.6793 37.4118 88.1666 38.9773 88.2816C39.3941 88.3123 39.8241 88.484 40.2353 88.5833C40.2401 88.5446 40.2273 88.5249 40.2012 88.5183C42.0105 88.805 43.7403 89.0991 45.429 89.5564C46.1651 89.7561 46.919 90.0451 47.6822 90.1656C48.9036 90.3581 50.0703 90.6258 51.2535 90.7792C51.9394 90.8683 52.6083 91.2215 53.2098 91.3618C54.4532 91.6507 56.1503 92.0525 57.3856 92.5204C58.3339 92.8801 59.5281 93.3031 60.4712 93.5383C61.2267 93.7275 62.4011 94.099 63.3872 94.3302C64.2827 94.5398 65.224 94.9117 66.1367 95.0271C66.5831 95.0837 67.1022 95.0972 67.4574 95.1633C68.1703 95.2955 68.888 95.682 69.579 95.7747C69.781 95.8025 69.9767 95.6758 70.1376 95.6969C70.4455 95.7393 70.6185 96.0023 70.9363 96.0746C72.831 96.506 74.8669 97.1638 76.8034 97.7559C76.8771 97.7496 76.759 97.6744 76.8001 97.5919C77.5552 98.0119 78.5654 98.0462 79.4492 98.2252C80.3842 98.4151 81.3798 99.0507 82.4333 99.1142C82.9563 99.1456 83.9042 99.4437 84.52 99.6278C84.7891 99.7085 85.2385 99.9788 85.3836 99.9711C85.4364 99.9674 85.535 99.8118 85.5779 99.8027C85.9628 99.7147 86.9584 100.45 87.5694 100.482C87.9891 100.505 88.5562 100.811 89.0939 100.91C89.3274 100.953 89.5792 100.888 89.7859 100.928C89.9989 100.97 90.1752 101.139 90.3845 101.178C91.1191 101.315 91.8665 101.358 92.4687 101.594C93.2473 101.898 94.0284 101.975 94.7223 102.202C95.565 102.478 96.4964 102.683 97.3047 102.804C97.5283 102.837 97.7566 103.011 98.0022 103.052C98.1906 103.084 98.4293 102.938 98.5931 102.973C98.9274 103.048 99.2155 103.36 99.5579 103.413C99.8918 103.464 100.331 103.429 100.78 103.551C101.312 103.696 101.965 104.15 102.373 104.109C102.627 104.083 102.506 104.109 102.771 104.231C103.563 104.597 104.628 104.6 105.647 104.663C106.335 104.705 107.315 105.306 108.265 105.395C109.347 105.497 110.442 105.99 111.609 106.178C113.768 106.525 115.982 106.868 118.191 107.384C118.509 107.459 118.857 107.499 119.251 107.625C119.819 107.807 120.178 108.122 120.745 108.151C121.533 108.192 122.079 108.542 122.964 108.695C123.99 108.873 125.064 109.136 126.039 109.254C126.791 109.344 127.585 109.868 128.259 109.798C128.845 109.736 129.328 110.219 129.747 110.094C129.717 110.104 129.882 109.93 129.809 109.929C129.982 109.933 129.989 110.085 130.177 110.184C130.609 110.41 131.264 110.457 131.865 110.51C133.126 110.618 134.272 111.066 135.439 111.254C135.769 111.307 136.021 111.625 136.337 111.662C137.21 111.766 138.369 111.575 139.377 112.09C140.044 112.43 141.086 112.716 141.929 112.791C142.27 112.821 142.665 112.726 142.951 112.803C143.364 112.914 143.88 113.248 144.378 113.33C144.568 113.361 144.788 113.273 145.037 113.316C145.753 113.442 146.265 113.904 147.189 113.795C150.754 113.378 153.141 111.432 153.463 108.279C154.151 106.302 154.031 104.102 154.187 102.092C154.272 101.01 154.342 99.787 154.279 98.6763C154.567 95.7214 154.615 92.7592 154.742 89.4734C154.756 89.1111 154.86 88.6746 154.849 88.3222C154.801 86.8057 155.225 85.1248 155.542 83.7445C156.198 84.0199 157.291 83.9947 158.22 84.1802C159.876 84.5112 161.323 85.3388 163.097 85.7841C163.494 85.8838 163.888 85.8754 164.222 85.9901C164.55 86.1029 164.812 86.4218 165.123 86.5295C165.702 86.7301 166.651 86.1749 166.686 87.2188C166.691 87.3798 166.682 87.6403 166.701 87.9069C166.855 90.0743 166.579 91.7022 166.533 93.9185C166.514 94.7875 166.618 95.8076 166.585 96.4125C166.578 96.5611 166.38 96.6871 166.364 96.8442C166.291 97.5769 166.397 98.478 166.382 99.2077C166.368 99.8696 166.103 100.583 166.064 101.282C165.94 103.487 166.378 105.874 165.741 107.79C165.489 108.545 165.527 110.215 165.353 111.245C165.267 111.76 165.23 112.412 165.224 112.889C165.218 113.334 164.92 113.938 164.859 114.308C164.676 115.408 164.589 116.64 164.37 117.634C164.19 118.448 163.867 119.196 163.529 119.917C162.902 121.252 162.116 122.676 160.905 123.551ZM168.498 118.105C168.034 118.868 167.225 119.417 166.595 120.016C165.718 120.851 165.092 121.748 163.806 122.111C163.863 121.595 164.397 121.151 164.567 120.683C164.642 120.473 164.515 120.112 164.683 119.958C164.733 119.912 164.944 119.939 165.044 119.885C165.264 119.768 165.648 119.294 166.046 119.01C167.046 118.296 167.79 117.413 168.797 116.687C168.752 116.72 169.02 116.274 169.186 116.383C169.277 116.443 168.616 117.911 168.498 118.105ZM169.643 114.634C169.538 114.804 168.882 115.274 168.511 115.643C167.693 116.454 166.265 117.197 165.462 117.874C165.406 115.584 167.793 114.707 169.289 113.492C169.283 113.454 169.228 113.466 169.19 113.462C169.854 112.549 169.945 114.145 169.643 114.634Z" fill="#3A3A3A"/>
</svg>
