<svg width="22" height="20" viewBox="0 0 22 20" fill="none" xmlns="http://www.w3.org/2000/svg">
<path d="M12.875 17H2C1.448 17 1 16.552 1 16V15C1 14.448 1.448 14 2 14H12.875" stroke="#272727" stroke-width="2" stroke-linecap="round" stroke-linejoin="round"/>
<path d="M19 3C19 1.895 18.105 1 17 1H4C2.895 1 2 1.895 2 3V14" stroke="#272727" stroke-width="2" stroke-linecap="round" stroke-linejoin="round"/>
<path fill-rule="evenodd" clip-rule="evenodd" d="M14.875 6H19C20.105 6 21 6.895 21 8V17C21 18.105 20.105 19 19 19H14.875C13.77 19 12.875 18.105 12.875 17V8C12.875 6.895 13.77 6 14.875 6Z" stroke="#272727" stroke-width="2" stroke-linecap="round" stroke-linejoin="round"/>
<path d="M19 6V3" stroke="#272727" stroke-width="2" stroke-linecap="round" stroke-linejoin="round"/>
<path d="M16.06 16.75H17.81" stroke="#272727" stroke-width="2" stroke-linecap="round" stroke-linejoin="round"/>
</svg>
