<svg width="22" height="21" viewBox="0 0 22 21" fill="none" xmlns="http://www.w3.org/2000/svg">
<path d="M11 14.1507V10.8633" stroke="#272727" stroke-width="2" stroke-linecap="round" stroke-linejoin="round"/>
<path d="M14.7496 20C19.1863 18.2303 21.7291 13.6087 20.8149 8.97637C19.9007 4.34404 15.7859 1 11 1C6.21411 1 2.09929 4.34404 1.1851 8.97637C0.270913 13.6087 2.81373 18.2303 7.25037 20" stroke="#272727" stroke-width="2" stroke-linecap="round" stroke-linejoin="round"/>
<path d="M14.7506 14.0951C16.5237 12.1126 16.3962 9.10412 14.4615 7.27446C12.5268 5.44481 9.47319 5.44481 7.53851 7.27446C5.60383 9.10412 5.4763 12.1126 7.24938 14.0951" stroke="#272727" stroke-width="2" stroke-linecap="round" stroke-linejoin="round"/>
<path d="M10.9978 17.2357C10.8873 17.2357 10.7978 17.324 10.7978 17.4329V17.4351C10.8 17.5429 10.8892 17.6292 10.9985 17.6294C11.1079 17.6295 11.1973 17.5435 11.1999 17.4358V17.4351C11.2005 17.3256 11.111 17.2364 11 17.2357H10.9978" stroke="#272727" stroke-width="2" stroke-linecap="round" stroke-linejoin="round"/>
</svg>
