<svg width="299" height="90" viewBox="0 0 299 90" fill="none" xmlns="http://www.w3.org/2000/svg">
<g clip-path="url(#clip0)">
<rect x="1.20215" y="0.5" width="143" height="39" rx="19.5" fill="#FEFCF5" stroke="#B5B5B5"/>
<path d="M46.2722 26.288C45.4082 26.288 44.6135 26.1387 43.8882 25.84C43.1629 25.5307 42.5389 25.1093 42.0162 24.576C41.5042 24.0427 41.0989 23.4133 40.8002 22.688C40.5122 21.9627 40.3682 21.1787 40.3682 20.336C40.3682 19.4933 40.5122 18.7093 40.8002 17.984C41.0989 17.2587 41.5042 16.6293 42.0162 16.096C42.5389 15.5627 43.1629 15.1467 43.8882 14.848C44.6135 14.5387 45.4082 14.384 46.2722 14.384C47.1362 14.384 47.9309 14.5387 48.6562 14.848C49.3815 15.1467 50.0002 15.5627 50.5122 16.096C51.0349 16.6293 51.4402 17.2587 51.7282 17.984C52.0269 18.7093 52.1762 19.4933 52.1762 20.336C52.1762 21.1787 52.0269 21.9627 51.7282 22.688C51.4402 23.4133 51.0349 24.0427 50.5122 24.576C50.0002 25.1093 49.3815 25.5307 48.6562 25.84C47.9309 26.1387 47.1362 26.288 46.2722 26.288ZM46.2722 24.848C46.9229 24.848 47.5095 24.7307 48.0322 24.496C48.5549 24.2507 49.0029 23.9253 49.3762 23.52C49.7495 23.1147 50.0375 22.64 50.2402 22.096C50.4429 21.5413 50.5442 20.9547 50.5442 20.336C50.5442 19.7173 50.4429 19.136 50.2402 18.592C50.0375 18.0373 49.7495 17.5573 49.3762 17.152C49.0029 16.7467 48.5549 16.4267 48.0322 16.192C47.5095 15.9467 46.9229 15.824 46.2722 15.824C45.6215 15.824 45.0349 15.9467 44.5122 16.192C43.9895 16.4267 43.5415 16.7467 43.1682 17.152C42.7949 17.5573 42.5069 18.0373 42.3042 18.592C42.1015 19.136 42.0002 19.7173 42.0002 20.336C42.0002 20.9547 42.1015 21.5413 42.3042 22.096C42.5069 22.64 42.7949 23.1147 43.1682 23.52C43.5415 23.9253 43.9895 24.2507 44.5122 24.496C45.0349 24.7307 45.6215 24.848 46.2722 24.848ZM54.0167 18.416H55.4567V19.504H55.4887C55.766 19.0987 56.1447 18.784 56.6247 18.56C57.1154 18.336 57.6167 18.224 58.1287 18.224C58.7154 18.224 59.2434 18.3253 59.7127 18.528C60.1927 18.7307 60.598 19.0133 60.9287 19.376C61.27 19.7387 61.5314 20.1653 61.7127 20.656C61.894 21.136 61.9847 21.6533 61.9847 22.208C61.9847 22.7733 61.894 23.3013 61.7127 23.792C61.5314 24.272 61.27 24.6933 60.9287 25.056C60.598 25.408 60.1927 25.6853 59.7127 25.888C59.2434 26.0907 58.7154 26.192 58.1287 26.192C57.5847 26.192 57.0727 26.08 56.5927 25.856C56.1127 25.6213 55.7447 25.3067 55.4887 24.912H55.4567V30.512H54.0167V18.416ZM57.9527 19.568C57.5687 19.568 57.222 19.6373 56.9127 19.776C56.6034 19.904 56.342 20.0853 56.1287 20.32C55.9154 20.544 55.75 20.8213 55.6327 21.152C55.5154 21.472 55.4567 21.824 55.4567 22.208C55.4567 22.592 55.5154 22.9493 55.6327 23.28C55.75 23.6 55.9154 23.8773 56.1287 24.112C56.342 24.336 56.6034 24.5173 56.9127 24.656C57.222 24.784 57.5687 24.848 57.9527 24.848C58.3367 24.848 58.6834 24.784 58.9927 24.656C59.302 24.5173 59.5634 24.336 59.7767 24.112C59.99 23.8773 60.1554 23.6 60.2727 23.28C60.39 22.9493 60.4487 22.592 60.4487 22.208C60.4487 21.824 60.39 21.472 60.2727 21.152C60.1554 20.8213 59.99 20.544 59.7767 20.32C59.5634 20.0853 59.302 19.904 58.9927 19.776C58.6834 19.6373 58.3367 19.568 57.9527 19.568ZM63.91 18.416H65.35V26H63.91V18.416ZM63.574 15.696C63.574 15.408 63.6753 15.1627 63.878 14.96C64.0913 14.7467 64.342 14.64 64.63 14.64C64.918 14.64 65.1633 14.7467 65.366 14.96C65.5793 15.1627 65.686 15.408 65.686 15.696C65.686 15.984 65.5793 16.2347 65.366 16.448C65.1633 16.6507 64.918 16.752 64.63 16.752C64.342 16.752 64.0913 16.6507 63.878 16.448C63.6753 16.2347 63.574 15.984 63.574 15.696ZM67.6417 18.416H69.0817V19.584H69.1137C69.295 19.1787 69.6097 18.8533 70.0577 18.608C70.5057 18.352 71.023 18.224 71.6097 18.224C71.9724 18.224 72.319 18.2827 72.6497 18.4C72.991 18.5067 73.2844 18.6773 73.5297 18.912C73.7857 19.1467 73.9884 19.4507 74.1377 19.824C74.287 20.1867 74.3617 20.6187 74.3617 21.12V26H72.9217V21.52C72.9217 21.168 72.8737 20.8693 72.7777 20.624C72.6817 20.368 72.5537 20.1653 72.3937 20.016C72.2337 19.856 72.047 19.744 71.8337 19.68C71.631 19.6053 71.4177 19.568 71.1937 19.568C70.895 19.568 70.6177 19.616 70.3617 19.712C70.1057 19.808 69.8817 19.9627 69.6897 20.176C69.4977 20.3787 69.3484 20.64 69.2417 20.96C69.135 21.28 69.0817 21.6587 69.0817 22.096V26H67.6417V18.416ZM76.6443 18.416H78.0843V26H76.6443V18.416ZM76.3083 15.696C76.3083 15.408 76.4097 15.1627 76.6123 14.96C76.8257 14.7467 77.0763 14.64 77.3643 14.64C77.6523 14.64 77.8977 14.7467 78.1003 14.96C78.3137 15.1627 78.4203 15.408 78.4203 15.696C78.4203 15.984 78.3137 16.2347 78.1003 16.448C77.8977 16.6507 77.6523 16.752 77.3643 16.752C77.0763 16.752 76.8257 16.6507 76.6123 16.448C76.4097 16.2347 76.3083 15.984 76.3083 15.696ZM81.5441 22.208C81.5441 22.592 81.6028 22.9493 81.7201 23.28C81.8374 23.6 82.0028 23.8773 82.2161 24.112C82.4294 24.336 82.6908 24.5173 83.0001 24.656C83.3094 24.784 83.6561 24.848 84.0401 24.848C84.4241 24.848 84.7708 24.784 85.0801 24.656C85.3894 24.5173 85.6508 24.336 85.8641 24.112C86.0774 23.8773 86.2428 23.6 86.3601 23.28C86.4774 22.9493 86.5361 22.592 86.5361 22.208C86.5361 21.824 86.4774 21.472 86.3601 21.152C86.2428 20.8213 86.0774 20.544 85.8641 20.32C85.6508 20.0853 85.3894 19.904 85.0801 19.776C84.7708 19.6373 84.4241 19.568 84.0401 19.568C83.6561 19.568 83.3094 19.6373 83.0001 19.776C82.6908 19.904 82.4294 20.0853 82.2161 20.32C82.0028 20.544 81.8374 20.8213 81.7201 21.152C81.6028 21.472 81.5441 21.824 81.5441 22.208ZM80.0081 22.208C80.0081 21.6533 80.1094 21.136 80.3121 20.656C80.5254 20.176 80.8134 19.7547 81.1761 19.392C81.5388 19.0293 81.9654 18.7467 82.4561 18.544C82.9468 18.3307 83.4748 18.224 84.0401 18.224C84.6054 18.224 85.1334 18.3307 85.6241 18.544C86.1148 18.7467 86.5414 19.0293 86.9041 19.392C87.2668 19.7547 87.5494 20.176 87.7521 20.656C87.9654 21.136 88.0721 21.6533 88.0721 22.208C88.0721 22.7627 87.9654 23.2853 87.7521 23.776C87.5494 24.256 87.2668 24.6773 86.9041 25.04C86.5414 25.392 86.1148 25.6747 85.6241 25.888C85.1334 26.0907 84.6054 26.192 84.0401 26.192C83.4748 26.192 82.9468 26.0907 82.4561 25.888C81.9654 25.6747 81.5388 25.392 81.1761 25.04C80.8134 24.6773 80.5254 24.256 80.3121 23.776C80.1094 23.2853 80.0081 22.7627 80.0081 22.208ZM89.8761 18.416H91.3161V19.584H91.3481C91.5294 19.1787 91.8441 18.8533 92.2921 18.608C92.7401 18.352 93.2574 18.224 93.8441 18.224C94.2068 18.224 94.5534 18.2827 94.8841 18.4C95.2254 18.5067 95.5188 18.6773 95.7641 18.912C96.0201 19.1467 96.2228 19.4507 96.3721 19.824C96.5214 20.1867 96.5961 20.6187 96.5961 21.12V26H95.1561V21.52C95.1561 21.168 95.1081 20.8693 95.0121 20.624C94.9161 20.368 94.7881 20.1653 94.6281 20.016C94.4681 19.856 94.2814 19.744 94.0681 19.68C93.8654 19.6053 93.6521 19.568 93.4281 19.568C93.1294 19.568 92.8521 19.616 92.5961 19.712C92.3401 19.808 92.1161 19.9627 91.9241 20.176C91.7321 20.3787 91.5828 20.64 91.4761 20.96C91.3694 21.28 91.3161 21.6587 91.3161 22.096V26H89.8761V18.416ZM102.799 20.32C102.628 20.1067 102.415 19.9307 102.159 19.792C101.913 19.6427 101.609 19.568 101.247 19.568C100.905 19.568 100.607 19.6427 100.351 19.792C100.105 19.9307 99.9827 20.1387 99.9827 20.416C99.9827 20.64 100.052 20.8213 100.191 20.96C100.34 21.0987 100.511 21.2107 100.703 21.296C100.905 21.3813 101.119 21.4453 101.343 21.488C101.567 21.5307 101.759 21.568 101.919 21.6C102.228 21.6747 102.516 21.7653 102.783 21.872C103.06 21.9787 103.295 22.1173 103.487 22.288C103.689 22.4587 103.844 22.6667 103.951 22.912C104.068 23.1573 104.127 23.456 104.127 23.808C104.127 24.2347 104.036 24.6027 103.855 24.912C103.673 25.2107 103.439 25.456 103.151 25.648C102.863 25.84 102.532 25.9787 102.159 26.064C101.796 26.1493 101.428 26.192 101.055 26.192C100.425 26.192 99.8707 26.096 99.3907 25.904C98.9214 25.712 98.5 25.36 98.1267 24.848L99.2147 23.952C99.4494 24.1867 99.7107 24.3947 99.9987 24.576C100.287 24.7573 100.639 24.848 101.055 24.848C101.236 24.848 101.417 24.832 101.599 24.8C101.791 24.7573 101.956 24.6987 102.095 24.624C102.244 24.5387 102.361 24.4373 102.447 24.32C102.543 24.192 102.591 24.048 102.591 23.888C102.591 23.6747 102.521 23.4987 102.383 23.36C102.255 23.2213 102.095 23.1147 101.903 23.04C101.721 22.9547 101.524 22.8907 101.311 22.848C101.108 22.7947 100.927 22.752 100.767 22.72C100.457 22.6453 100.164 22.56 99.8867 22.464C99.6094 22.368 99.364 22.24 99.1507 22.08C98.9374 21.92 98.7667 21.7173 98.6387 21.472C98.5107 21.2267 98.4467 20.9227 98.4467 20.56C98.4467 20.1653 98.5267 19.824 98.6867 19.536C98.8574 19.2373 99.076 18.992 99.3427 18.8C99.62 18.608 99.9294 18.464 100.271 18.368C100.623 18.272 100.975 18.224 101.327 18.224C101.839 18.224 102.329 18.32 102.799 18.512C103.268 18.704 103.641 19.024 103.919 19.472L102.799 20.32Z" fill="#333333"/>
</g>
<g clip-path="url(#clip1)">
<rect x="1.20215" y="50.5" width="143" height="39" rx="19.5" fill="#FEFCF5" stroke="#B5B5B5"/>
<path d="M37.0488 64.672H39.0648L45.3048 73.984H45.3368V64.672H46.8728V76H44.9208L38.6168 66.688H38.5848V76H37.0488V64.672ZM50.5831 72.208C50.5831 72.592 50.6418 72.9493 50.7591 73.28C50.8765 73.6 51.0418 73.8773 51.2551 74.112C51.4685 74.336 51.7298 74.5173 52.0391 74.656C52.3485 74.784 52.6951 74.848 53.0791 74.848C53.4631 74.848 53.8098 74.784 54.1191 74.656C54.4285 74.5173 54.6898 74.336 54.9031 74.112C55.1165 73.8773 55.2818 73.6 55.3991 73.28C55.5165 72.9493 55.5751 72.592 55.5751 72.208C55.5751 71.824 55.5165 71.472 55.3991 71.152C55.2818 70.8213 55.1165 70.544 54.9031 70.32C54.6898 70.0853 54.4285 69.904 54.1191 69.776C53.8098 69.6373 53.4631 69.568 53.0791 69.568C52.6951 69.568 52.3485 69.6373 52.0391 69.776C51.7298 69.904 51.4685 70.0853 51.2551 70.32C51.0418 70.544 50.8765 70.8213 50.7591 71.152C50.6418 71.472 50.5831 71.824 50.5831 72.208ZM49.0471 72.208C49.0471 71.6533 49.1485 71.136 49.3511 70.656C49.5645 70.176 49.8525 69.7547 50.2151 69.392C50.5778 69.0293 51.0045 68.7467 51.4951 68.544C51.9858 68.3307 52.5138 68.224 53.0791 68.224C53.6445 68.224 54.1725 68.3307 54.6631 68.544C55.1538 68.7467 55.5805 69.0293 55.9431 69.392C56.3058 69.7547 56.5885 70.176 56.7911 70.656C57.0045 71.136 57.1111 71.6533 57.1111 72.208C57.1111 72.7627 57.0045 73.2853 56.7911 73.776C56.5885 74.256 56.3058 74.6773 55.9431 75.04C55.5805 75.392 55.1538 75.6747 54.6631 75.888C54.1725 76.0907 53.6445 76.192 53.0791 76.192C52.5138 76.192 51.9858 76.0907 51.4951 75.888C51.0045 75.6747 50.5778 75.392 50.2151 75.04C49.8525 74.6773 49.5645 74.256 49.3511 73.776C49.1485 73.2853 49.0471 72.7627 49.0471 72.208ZM58.9151 68.416H60.3551V69.584H60.3871C60.5685 69.1787 60.8831 68.8533 61.3311 68.608C61.7791 68.352 62.2965 68.224 62.8831 68.224C63.2458 68.224 63.5925 68.2827 63.9231 68.4C64.2645 68.5067 64.5578 68.6773 64.8031 68.912C65.0591 69.1467 65.2618 69.4507 65.4111 69.824C65.5605 70.1867 65.6351 70.6187 65.6351 71.12V76H64.1951V71.52C64.1951 71.168 64.1471 70.8693 64.0511 70.624C63.9551 70.368 63.8271 70.1653 63.6671 70.016C63.5071 69.856 63.3205 69.744 63.1071 69.68C62.9045 69.6053 62.6911 69.568 62.4671 69.568C62.1685 69.568 61.8911 69.616 61.6351 69.712C61.3791 69.808 61.1551 69.9627 60.9631 70.176C60.7711 70.3787 60.6218 70.64 60.5151 70.96C60.4085 71.28 60.3551 71.6587 60.3551 72.096V76H58.9151V68.416ZM71.2138 72.8H67.2778V71.456H71.2138V72.8ZM72.8683 68.416H74.3083V69.584H74.3403C74.5216 69.1787 74.8363 68.8533 75.2843 68.608C75.7323 68.352 76.2496 68.224 76.8363 68.224C77.1989 68.224 77.5456 68.2827 77.8763 68.4C78.2176 68.5067 78.5109 68.6773 78.7563 68.912C79.0123 69.1467 79.2149 69.4507 79.3643 69.824C79.5136 70.1867 79.5883 70.6187 79.5883 71.12V76H78.1483V71.52C78.1483 71.168 78.1003 70.8693 78.0043 70.624C77.9083 70.368 77.7803 70.1653 77.6203 70.016C77.4603 69.856 77.2736 69.744 77.0603 69.68C76.8576 69.6053 76.6443 69.568 76.4203 69.568C76.1216 69.568 75.8443 69.616 75.5883 69.712C75.3323 69.808 75.1083 69.9627 74.9163 70.176C74.7243 70.3787 74.5749 70.64 74.4683 70.96C74.3616 71.28 74.3083 71.6587 74.3083 72.096V76H72.8683V68.416ZM82.8469 72.736C82.8469 73.0667 82.9162 73.3707 83.0549 73.648C83.2042 73.9147 83.3962 74.144 83.6309 74.336C83.8656 74.528 84.1376 74.6773 84.4469 74.784C84.7562 74.8907 85.0762 74.944 85.4069 74.944C85.8549 74.944 86.2442 74.8427 86.5749 74.64C86.9056 74.4267 87.2096 74.1493 87.4869 73.808L88.5749 74.64C87.7749 75.6747 86.6549 76.192 85.2149 76.192C84.6176 76.192 84.0736 76.0907 83.5829 75.888C83.1029 75.6853 82.6922 75.408 82.3509 75.056C82.0202 74.6933 81.7642 74.272 81.5829 73.792C81.4016 73.3013 81.3109 72.7733 81.3109 72.208C81.3109 71.6427 81.4069 71.12 81.5989 70.64C81.8016 70.1493 82.0736 69.728 82.4149 69.376C82.7669 69.0133 83.1829 68.7307 83.6629 68.528C84.1429 68.3253 84.6656 68.224 85.2309 68.224C85.9029 68.224 86.4682 68.3413 86.9269 68.576C87.3962 68.8107 87.7802 69.12 88.0789 69.504C88.3776 69.8773 88.5909 70.304 88.7189 70.784C88.8576 71.2533 88.9269 71.7333 88.9269 72.224V72.736H82.8469ZM87.3909 71.584C87.3802 71.264 87.3269 70.9707 87.2309 70.704C87.1456 70.4373 87.0122 70.208 86.8309 70.016C86.6496 69.8133 86.4202 69.6587 86.1429 69.552C85.8762 69.4347 85.5616 69.376 85.1989 69.376C84.8469 69.376 84.5216 69.4453 84.2229 69.584C83.9349 69.712 83.6896 69.8827 83.4869 70.096C83.2842 70.3093 83.1242 70.5493 83.0069 70.816C82.9002 71.072 82.8469 71.328 82.8469 71.584H87.3909ZM89.7375 68.416H91.3535L93.0655 74.08H93.0975L94.9055 68.416H96.4255L98.3455 74.08H98.3775L100.01 68.416H101.53L99.0815 76H97.6255L95.6255 70.336H95.5935L93.7855 76H92.2335L89.7375 68.416ZM106.822 70.32C106.651 70.1067 106.438 69.9307 106.182 69.792C105.937 69.6427 105.633 69.568 105.27 69.568C104.929 69.568 104.63 69.6427 104.374 69.792C104.129 69.9307 104.006 70.1387 104.006 70.416C104.006 70.64 104.075 70.8213 104.214 70.96C104.363 71.0987 104.534 71.2107 104.726 71.296C104.929 71.3813 105.142 71.4453 105.366 71.488C105.59 71.5307 105.782 71.568 105.942 71.6C106.251 71.6747 106.539 71.7653 106.806 71.872C107.083 71.9787 107.318 72.1173 107.51 72.288C107.713 72.4587 107.867 72.6667 107.974 72.912C108.091 73.1573 108.15 73.456 108.15 73.808C108.15 74.2347 108.059 74.6027 107.878 74.912C107.697 75.2107 107.462 75.456 107.174 75.648C106.886 75.84 106.555 75.9787 106.182 76.064C105.819 76.1493 105.451 76.192 105.078 76.192C104.449 76.192 103.894 76.096 103.414 75.904C102.945 75.712 102.523 75.36 102.15 74.848L103.238 73.952C103.473 74.1867 103.734 74.3947 104.022 74.576C104.31 74.7573 104.662 74.848 105.078 74.848C105.259 74.848 105.441 74.832 105.622 74.8C105.814 74.7573 105.979 74.6987 106.118 74.624C106.267 74.5387 106.385 74.4373 106.47 74.32C106.566 74.192 106.614 74.048 106.614 73.888C106.614 73.6747 106.545 73.4987 106.406 73.36C106.278 73.2213 106.118 73.1147 105.926 73.04C105.745 72.9547 105.547 72.8907 105.334 72.848C105.131 72.7947 104.95 72.752 104.79 72.72C104.481 72.6453 104.187 72.56 103.91 72.464C103.633 72.368 103.387 72.24 103.174 72.08C102.961 71.92 102.79 71.7173 102.662 71.472C102.534 71.2267 102.47 70.9227 102.47 70.56C102.47 70.1653 102.55 69.824 102.71 69.536C102.881 69.2373 103.099 68.992 103.366 68.8C103.643 68.608 103.953 68.464 104.294 68.368C104.646 68.272 104.998 68.224 105.35 68.224C105.862 68.224 106.353 68.32 106.822 68.512C107.291 68.704 107.665 69.024 107.942 69.472L106.822 70.32Z" fill="#333333"/>
</g>
<g clip-path="url(#clip2)">
<rect x="155.202" y="0.5" width="143" height="39" rx="19.5" fill="#FEFCF5" stroke="#B5B5B5"/>
<path d="M188.421 17.12C188.101 16.704 187.696 16.384 187.205 16.16C186.714 15.936 186.208 15.824 185.685 15.824C185.045 15.824 184.464 15.9467 183.941 16.192C183.429 16.4267 182.986 16.752 182.613 17.168C182.25 17.584 181.968 18.0747 181.765 18.64C181.562 19.1947 181.461 19.792 181.461 20.432C181.461 21.0293 181.557 21.5947 181.749 22.128C181.941 22.6613 182.218 23.1307 182.581 23.536C182.944 23.9413 183.386 24.2613 183.909 24.496C184.432 24.7307 185.024 24.848 185.685 24.848C186.336 24.848 186.906 24.7147 187.397 24.448C187.888 24.1813 188.304 23.808 188.645 23.328L189.941 24.304C189.856 24.4213 189.706 24.592 189.493 24.816C189.28 25.0293 188.997 25.248 188.645 25.472C188.293 25.6853 187.866 25.872 187.365 26.032C186.874 26.2027 186.304 26.288 185.653 26.288C184.757 26.288 183.946 26.1173 183.221 25.776C182.506 25.4347 181.893 24.9867 181.381 24.432C180.88 23.8773 180.496 23.2533 180.229 22.56C179.962 21.856 179.829 21.1467 179.829 20.432C179.829 19.5573 179.973 18.752 180.261 18.016C180.549 17.2693 180.949 16.6293 181.461 16.096C181.984 15.552 182.608 15.1307 183.333 14.832C184.058 14.5333 184.858 14.384 185.733 14.384C186.48 14.384 187.21 14.528 187.925 14.816C188.65 15.104 189.242 15.5467 189.701 16.144L188.421 17.12ZM192.519 22.736C192.519 23.0667 192.588 23.3707 192.727 23.648C192.876 23.9147 193.068 24.144 193.303 24.336C193.537 24.528 193.809 24.6773 194.119 24.784C194.428 24.8907 194.748 24.944 195.079 24.944C195.527 24.944 195.916 24.8427 196.247 24.64C196.577 24.4267 196.881 24.1493 197.159 23.808L198.247 24.64C197.447 25.6747 196.327 26.192 194.887 26.192C194.289 26.192 193.745 26.0907 193.255 25.888C192.775 25.6853 192.364 25.408 192.023 25.056C191.692 24.6933 191.436 24.272 191.255 23.792C191.073 23.3013 190.983 22.7733 190.983 22.208C190.983 21.6427 191.079 21.12 191.271 20.64C191.473 20.1493 191.745 19.728 192.087 19.376C192.439 19.0133 192.855 18.7307 193.335 18.528C193.815 18.3253 194.337 18.224 194.903 18.224C195.575 18.224 196.14 18.3413 196.599 18.576C197.068 18.8107 197.452 19.12 197.751 19.504C198.049 19.8773 198.263 20.304 198.391 20.784C198.529 21.2533 198.599 21.7333 198.599 22.224V22.736H192.519ZM197.063 21.584C197.052 21.264 196.999 20.9707 196.903 20.704C196.817 20.4373 196.684 20.208 196.503 20.016C196.321 19.8133 196.092 19.6587 195.815 19.552C195.548 19.4347 195.233 19.376 194.871 19.376C194.519 19.376 194.193 19.4453 193.895 19.584C193.607 19.712 193.361 19.8827 193.159 20.096C192.956 20.3093 192.796 20.5493 192.679 20.816C192.572 21.072 192.519 21.328 192.519 21.584H197.063ZM200.433 13.904H201.873V26H200.433V13.904ZM205.253 22.736C205.253 23.0667 205.322 23.3707 205.461 23.648C205.61 23.9147 205.802 24.144 206.037 24.336C206.272 24.528 206.544 24.6773 206.853 24.784C207.162 24.8907 207.482 24.944 207.813 24.944C208.261 24.944 208.65 24.8427 208.981 24.64C209.312 24.4267 209.616 24.1493 209.893 23.808L210.981 24.64C210.181 25.6747 209.061 26.192 207.621 26.192C207.024 26.192 206.48 26.0907 205.989 25.888C205.509 25.6853 205.098 25.408 204.757 25.056C204.426 24.6933 204.17 24.272 203.989 23.792C203.808 23.3013 203.717 22.7733 203.717 22.208C203.717 21.6427 203.813 21.12 204.005 20.64C204.208 20.1493 204.48 19.728 204.821 19.376C205.173 19.0133 205.589 18.7307 206.069 18.528C206.549 18.3253 207.072 18.224 207.637 18.224C208.309 18.224 208.874 18.3413 209.333 18.576C209.802 18.8107 210.186 19.12 210.485 19.504C210.784 19.8773 210.997 20.304 211.125 20.784C211.264 21.2533 211.333 21.7333 211.333 22.224V22.736H205.253ZM209.797 21.584C209.786 21.264 209.733 20.9707 209.637 20.704C209.552 20.4373 209.418 20.208 209.237 20.016C209.056 19.8133 208.826 19.6587 208.549 19.552C208.282 19.4347 207.968 19.376 207.605 19.376C207.253 19.376 206.928 19.4453 206.629 19.584C206.341 19.712 206.096 19.8827 205.893 20.096C205.69 20.3093 205.53 20.5493 205.413 20.816C205.306 21.072 205.253 21.328 205.253 21.584H209.797ZM213.056 13.904H214.496V19.504H214.528C214.784 19.1093 215.152 18.8 215.632 18.576C216.112 18.3413 216.624 18.224 217.168 18.224C217.754 18.224 218.282 18.3253 218.752 18.528C219.232 18.7307 219.637 19.0133 219.968 19.376C220.309 19.728 220.57 20.1493 220.752 20.64C220.933 21.12 221.024 21.6427 221.024 22.208C221.024 22.7733 220.933 23.296 220.752 23.776C220.57 24.256 220.309 24.6773 219.968 25.04C219.637 25.4027 219.232 25.6853 218.752 25.888C218.282 26.0907 217.754 26.192 217.168 26.192C216.656 26.192 216.154 26.08 215.664 25.856C215.184 25.632 214.805 25.3173 214.528 24.912H214.496V26H213.056V13.904ZM216.992 24.848C217.376 24.848 217.722 24.784 218.032 24.656C218.341 24.5173 218.602 24.336 218.816 24.112C219.029 23.8773 219.194 23.6 219.312 23.28C219.429 22.9493 219.488 22.592 219.488 22.208C219.488 21.824 219.429 21.472 219.312 21.152C219.194 20.8213 219.029 20.544 218.816 20.32C218.602 20.0853 218.341 19.904 218.032 19.776C217.722 19.6373 217.376 19.568 216.992 19.568C216.608 19.568 216.261 19.6373 215.952 19.776C215.642 19.904 215.381 20.0853 215.168 20.32C214.954 20.544 214.789 20.8213 214.672 21.152C214.554 21.472 214.496 21.824 214.496 22.208C214.496 22.592 214.554 22.9493 214.672 23.28C214.789 23.6 214.954 23.8773 215.168 24.112C215.381 24.336 215.642 24.5173 215.952 24.656C216.261 24.784 216.608 24.848 216.992 24.848ZM234.89 25.936C234.89 26.512 234.789 27.0347 234.586 27.504C234.394 27.984 234.117 28.3947 233.754 28.736C233.391 29.088 232.954 29.36 232.442 29.552C231.93 29.744 231.365 29.84 230.746 29.84C230.021 29.84 229.354 29.7387 228.746 29.536C228.149 29.3333 227.578 28.9813 227.034 28.48L228.01 27.264C228.383 27.6693 228.789 27.9733 229.226 28.176C229.663 28.3893 230.159 28.496 230.714 28.496C231.247 28.496 231.69 28.416 232.042 28.256C232.394 28.1067 232.671 27.9093 232.874 27.664C233.087 27.4187 233.237 27.136 233.322 26.816C233.407 26.5067 233.45 26.192 233.45 25.872V24.752H233.402C233.125 25.2107 232.746 25.552 232.266 25.776C231.797 25.9893 231.301 26.096 230.778 26.096C230.223 26.096 229.706 26 229.226 25.808C228.757 25.6053 228.351 25.3333 228.01 24.992C227.669 24.64 227.402 24.2293 227.21 23.76C227.018 23.28 226.922 22.7627 226.922 22.208C226.922 21.6533 227.013 21.136 227.194 20.656C227.375 20.1653 227.631 19.7387 227.962 19.376C228.303 19.0133 228.709 18.7307 229.178 18.528C229.658 18.3253 230.191 18.224 230.778 18.224C231.29 18.224 231.786 18.336 232.266 18.56C232.757 18.784 233.141 19.0987 233.418 19.504H233.45V18.416H234.89V25.936ZM230.954 19.568C230.57 19.568 230.223 19.6373 229.914 19.776C229.605 19.904 229.343 20.0853 229.13 20.32C228.917 20.544 228.751 20.8213 228.634 21.152C228.517 21.472 228.458 21.824 228.458 22.208C228.458 22.976 228.682 23.5947 229.13 24.064C229.578 24.5227 230.186 24.752 230.954 24.752C231.722 24.752 232.33 24.5227 232.778 24.064C233.226 23.5947 233.45 22.976 233.45 22.208C233.45 21.824 233.391 21.472 233.274 21.152C233.157 20.8213 232.991 20.544 232.778 20.32C232.565 20.0853 232.303 19.904 231.994 19.776C231.685 19.6373 231.338 19.568 230.954 19.568ZM238.239 22.208C238.239 22.592 238.298 22.9493 238.415 23.28C238.533 23.6 238.698 23.8773 238.911 24.112C239.125 24.336 239.386 24.5173 239.695 24.656C240.005 24.784 240.351 24.848 240.735 24.848C241.119 24.848 241.466 24.784 241.775 24.656C242.085 24.5173 242.346 24.336 242.559 24.112C242.773 23.8773 242.938 23.6 243.055 23.28C243.173 22.9493 243.231 22.592 243.231 22.208C243.231 21.824 243.173 21.472 243.055 21.152C242.938 20.8213 242.773 20.544 242.559 20.32C242.346 20.0853 242.085 19.904 241.775 19.776C241.466 19.6373 241.119 19.568 240.735 19.568C240.351 19.568 240.005 19.6373 239.695 19.776C239.386 19.904 239.125 20.0853 238.911 20.32C238.698 20.544 238.533 20.8213 238.415 21.152C238.298 21.472 238.239 21.824 238.239 22.208ZM236.703 22.208C236.703 21.6533 236.805 21.136 237.007 20.656C237.221 20.176 237.509 19.7547 237.871 19.392C238.234 19.0293 238.661 18.7467 239.151 18.544C239.642 18.3307 240.17 18.224 240.735 18.224C241.301 18.224 241.829 18.3307 242.319 18.544C242.81 18.7467 243.237 19.0293 243.599 19.392C243.962 19.7547 244.245 20.176 244.447 20.656C244.661 21.136 244.767 21.6533 244.767 22.208C244.767 22.7627 244.661 23.2853 244.447 23.776C244.245 24.256 243.962 24.6773 243.599 25.04C243.237 25.392 242.81 25.6747 242.319 25.888C241.829 26.0907 241.301 26.192 240.735 26.192C240.17 26.192 239.642 26.0907 239.151 25.888C238.661 25.6747 238.234 25.392 237.871 25.04C237.509 24.6773 237.221 24.256 237.007 23.776C236.805 23.2853 236.703 22.7627 236.703 22.208ZM250.603 20.32C250.433 20.1067 250.219 19.9307 249.963 19.792C249.718 19.6427 249.414 19.568 249.051 19.568C248.71 19.568 248.411 19.6427 248.155 19.792C247.91 19.9307 247.787 20.1387 247.787 20.416C247.787 20.64 247.857 20.8213 247.995 20.96C248.145 21.0987 248.315 21.2107 248.507 21.296C248.71 21.3813 248.923 21.4453 249.147 21.488C249.371 21.5307 249.563 21.568 249.723 21.6C250.033 21.6747 250.321 21.7653 250.587 21.872C250.865 21.9787 251.099 22.1173 251.291 22.288C251.494 22.4587 251.649 22.6667 251.755 22.912C251.873 23.1573 251.931 23.456 251.931 23.808C251.931 24.2347 251.841 24.6027 251.659 24.912C251.478 25.2107 251.243 25.456 250.955 25.648C250.667 25.84 250.337 25.9787 249.963 26.064C249.601 26.1493 249.233 26.192 248.859 26.192C248.23 26.192 247.675 26.096 247.195 25.904C246.726 25.712 246.305 25.36 245.931 24.848L247.019 23.952C247.254 24.1867 247.515 24.3947 247.803 24.576C248.091 24.7573 248.443 24.848 248.859 24.848C249.041 24.848 249.222 24.832 249.403 24.8C249.595 24.7573 249.761 24.6987 249.899 24.624C250.049 24.5387 250.166 24.4373 250.251 24.32C250.347 24.192 250.395 24.048 250.395 23.888C250.395 23.6747 250.326 23.4987 250.187 23.36C250.059 23.2213 249.899 23.1147 249.707 23.04C249.526 22.9547 249.329 22.8907 249.115 22.848C248.913 22.7947 248.731 22.752 248.571 22.72C248.262 22.6453 247.969 22.56 247.691 22.464C247.414 22.368 247.169 22.24 246.955 22.08C246.742 21.92 246.571 21.7173 246.443 21.472C246.315 21.2267 246.251 20.9227 246.251 20.56C246.251 20.1653 246.331 19.824 246.491 19.536C246.662 19.2373 246.881 18.992 247.147 18.8C247.425 18.608 247.734 18.464 248.075 18.368C248.427 18.272 248.779 18.224 249.131 18.224C249.643 18.224 250.134 18.32 250.603 18.512C251.073 18.704 251.446 19.024 251.723 19.472L250.603 20.32ZM257.713 20.32C257.542 20.1067 257.329 19.9307 257.073 19.792C256.827 19.6427 256.523 19.568 256.161 19.568C255.819 19.568 255.521 19.6427 255.265 19.792C255.019 19.9307 254.897 20.1387 254.897 20.416C254.897 20.64 254.966 20.8213 255.105 20.96C255.254 21.0987 255.425 21.2107 255.617 21.296C255.819 21.3813 256.033 21.4453 256.257 21.488C256.481 21.5307 256.673 21.568 256.833 21.6C257.142 21.6747 257.43 21.7653 257.697 21.872C257.974 21.9787 258.209 22.1173 258.401 22.288C258.603 22.4587 258.758 22.6667 258.865 22.912C258.982 23.1573 259.041 23.456 259.041 23.808C259.041 24.2347 258.95 24.6027 258.769 24.912C258.587 25.2107 258.353 25.456 258.065 25.648C257.777 25.84 257.446 25.9787 257.073 26.064C256.71 26.1493 256.342 26.192 255.969 26.192C255.339 26.192 254.785 26.096 254.305 25.904C253.835 25.712 253.414 25.36 253.041 24.848L254.129 23.952C254.363 24.1867 254.625 24.3947 254.913 24.576C255.201 24.7573 255.553 24.848 255.969 24.848C256.15 24.848 256.331 24.832 256.513 24.8C256.705 24.7573 256.87 24.6987 257.009 24.624C257.158 24.5387 257.275 24.4373 257.361 24.32C257.457 24.192 257.505 24.048 257.505 23.888C257.505 23.6747 257.435 23.4987 257.297 23.36C257.169 23.2213 257.009 23.1147 256.817 23.04C256.635 22.9547 256.438 22.8907 256.225 22.848C256.022 22.7947 255.841 22.752 255.681 22.72C255.371 22.6453 255.078 22.56 254.801 22.464C254.523 22.368 254.278 22.24 254.065 22.08C253.851 21.92 253.681 21.7173 253.553 21.472C253.425 21.2267 253.361 20.9227 253.361 20.56C253.361 20.1653 253.441 19.824 253.601 19.536C253.771 19.2373 253.99 18.992 254.257 18.8C254.534 18.608 254.843 18.464 255.185 18.368C255.537 18.272 255.889 18.224 256.241 18.224C256.753 18.224 257.243 18.32 257.713 18.512C258.182 18.704 258.555 19.024 258.833 19.472L257.713 20.32ZM260.902 18.416H262.342V26H260.902V18.416ZM260.566 15.696C260.566 15.408 260.667 15.1627 260.87 14.96C261.083 14.7467 261.334 14.64 261.622 14.64C261.91 14.64 262.155 14.7467 262.358 14.96C262.571 15.1627 262.678 15.408 262.678 15.696C262.678 15.984 262.571 16.2347 262.358 16.448C262.155 16.6507 261.91 16.752 261.622 16.752C261.334 16.752 261.083 16.6507 260.87 16.448C260.667 16.2347 260.566 15.984 260.566 15.696ZM264.634 18.416H266.074V19.504H266.106C266.383 19.0987 266.762 18.784 267.242 18.56C267.733 18.336 268.234 18.224 268.746 18.224C269.333 18.224 269.861 18.3253 270.33 18.528C270.81 18.7307 271.215 19.0133 271.546 19.376C271.887 19.7387 272.149 20.1653 272.33 20.656C272.511 21.136 272.602 21.6533 272.602 22.208C272.602 22.7733 272.511 23.3013 272.33 23.792C272.149 24.272 271.887 24.6933 271.546 25.056C271.215 25.408 270.81 25.6853 270.33 25.888C269.861 26.0907 269.333 26.192 268.746 26.192C268.202 26.192 267.69 26.08 267.21 25.856C266.73 25.6213 266.362 25.3067 266.106 24.912H266.074V30.512H264.634V18.416ZM268.57 19.568C268.186 19.568 267.839 19.6373 267.53 19.776C267.221 19.904 266.959 20.0853 266.746 20.32C266.533 20.544 266.367 20.8213 266.25 21.152C266.133 21.472 266.074 21.824 266.074 22.208C266.074 22.592 266.133 22.9493 266.25 23.28C266.367 23.6 266.533 23.8773 266.746 24.112C266.959 24.336 267.221 24.5173 267.53 24.656C267.839 24.784 268.186 24.848 268.57 24.848C268.954 24.848 269.301 24.784 269.61 24.656C269.919 24.5173 270.181 24.336 270.394 24.112C270.607 23.8773 270.773 23.6 270.89 23.28C271.007 22.9493 271.066 22.592 271.066 22.208C271.066 21.824 271.007 21.472 270.89 21.152C270.773 20.8213 270.607 20.544 270.394 20.32C270.181 20.0853 269.919 19.904 269.61 19.776C269.301 19.6373 268.954 19.568 268.57 19.568Z" fill="#333333"/>
</g>
<g clip-path="url(#clip3)">
<rect x="155.202" y="50.5" width="143" height="39" rx="19.5" fill="#FEFCF5" stroke="#B5B5B5"/>
<path d="M191.213 64.672H195.197C195.922 64.672 196.52 64.7733 196.989 64.976C197.458 65.168 197.826 65.4187 198.093 65.728C198.37 66.0267 198.562 66.368 198.669 66.752C198.776 67.1253 198.829 67.488 198.829 67.84C198.829 68.192 198.776 68.56 198.669 68.944C198.562 69.3173 198.37 69.6587 198.093 69.968C197.826 70.2667 197.458 70.5173 196.989 70.72C196.52 70.912 195.922 71.008 195.197 71.008H192.749V76H191.213V64.672ZM192.749 69.664H194.765C195.064 69.664 195.357 69.6427 195.645 69.6C195.944 69.5467 196.205 69.456 196.429 69.328C196.664 69.2 196.85 69.0187 196.989 68.784C197.128 68.5387 197.197 68.224 197.197 67.84C197.197 67.456 197.128 67.1467 196.989 66.912C196.85 66.6667 196.664 66.48 196.429 66.352C196.205 66.224 195.944 66.1387 195.645 66.096C195.357 66.0427 195.064 66.016 194.765 66.016H192.749V69.664ZM200.361 69.344C200.767 68.9707 201.236 68.6933 201.769 68.512C202.303 68.32 202.836 68.224 203.369 68.224C203.924 68.224 204.399 68.2933 204.793 68.432C205.199 68.5707 205.529 68.7573 205.785 68.992C206.041 69.2267 206.228 69.4987 206.345 69.808C206.473 70.1067 206.537 70.4213 206.537 70.752V74.624C206.537 74.8907 206.543 75.136 206.553 75.36C206.564 75.584 206.58 75.7973 206.601 76H205.321C205.289 75.616 205.273 75.232 205.273 74.848H205.241C204.921 75.3387 204.543 75.6853 204.105 75.888C203.668 76.0907 203.161 76.192 202.585 76.192C202.233 76.192 201.897 76.144 201.577 76.048C201.257 75.952 200.975 75.808 200.729 75.616C200.495 75.424 200.308 75.1893 200.169 74.912C200.031 74.624 199.961 74.2933 199.961 73.92C199.961 73.4293 200.068 73.0187 200.281 72.688C200.505 72.3573 200.804 72.0907 201.177 71.888C201.561 71.6747 202.004 71.5253 202.505 71.44C203.017 71.344 203.561 71.296 204.137 71.296H205.193V70.976C205.193 70.784 205.156 70.592 205.081 70.4C205.007 70.208 204.895 70.0373 204.745 69.888C204.596 69.728 204.409 69.6053 204.185 69.52C203.961 69.424 203.695 69.376 203.385 69.376C203.108 69.376 202.863 69.4027 202.649 69.456C202.447 69.5093 202.26 69.5787 202.089 69.664C201.919 69.7387 201.764 69.8293 201.625 69.936C201.487 70.0427 201.353 70.144 201.225 70.24L200.361 69.344ZM204.425 72.352C204.084 72.352 203.732 72.3733 203.369 72.416C203.017 72.448 202.692 72.5173 202.393 72.624C202.105 72.7307 201.865 72.88 201.673 73.072C201.492 73.264 201.401 73.5093 201.401 73.808C201.401 74.2453 201.545 74.56 201.833 74.752C202.132 74.944 202.532 75.04 203.033 75.04C203.428 75.04 203.764 74.976 204.041 74.848C204.319 74.7093 204.543 74.5333 204.713 74.32C204.884 74.1067 205.007 73.872 205.081 73.616C205.156 73.3493 205.193 73.088 205.193 72.832V72.352H204.425ZM208.738 68.416H210.178V76H208.738V68.416ZM208.402 65.696C208.402 65.408 208.503 65.1627 208.706 64.96C208.919 64.7467 209.17 64.64 209.458 64.64C209.746 64.64 209.991 64.7467 210.194 64.96C210.407 65.1627 210.514 65.408 210.514 65.696C210.514 65.984 210.407 66.2347 210.194 66.448C209.991 66.6507 209.746 66.752 209.458 66.752C209.17 66.752 208.919 66.6507 208.706 66.448C208.503 66.2347 208.402 65.984 208.402 65.696ZM220.07 76H218.63V74.912H218.598C218.321 75.3173 217.937 75.632 217.446 75.856C216.966 76.08 216.47 76.192 215.958 76.192C215.371 76.192 214.838 76.0907 214.358 75.888C213.889 75.6853 213.483 75.4027 213.142 75.04C212.811 74.6773 212.555 74.256 212.374 73.776C212.193 73.296 212.102 72.7733 212.102 72.208C212.102 71.6427 212.193 71.12 212.374 70.64C212.555 70.1493 212.811 69.728 213.142 69.376C213.483 69.0133 213.889 68.7307 214.358 68.528C214.838 68.3253 215.371 68.224 215.958 68.224C216.502 68.224 217.014 68.3413 217.494 68.576C217.974 68.8 218.342 69.1093 218.598 69.504H218.63V63.904H220.07V76ZM216.134 74.848C216.518 74.848 216.865 74.784 217.174 74.656C217.483 74.5173 217.745 74.336 217.958 74.112C218.171 73.8773 218.337 73.6 218.454 73.28C218.571 72.9493 218.63 72.592 218.63 72.208C218.63 71.824 218.571 71.472 218.454 71.152C218.337 70.8213 218.171 70.544 217.958 70.32C217.745 70.0853 217.483 69.904 217.174 69.776C216.865 69.6373 216.518 69.568 216.134 69.568C215.75 69.568 215.403 69.6373 215.094 69.776C214.785 69.904 214.523 70.0853 214.31 70.32C214.097 70.544 213.931 70.8213 213.814 71.152C213.697 71.472 213.638 71.824 213.638 72.208C213.638 72.592 213.697 72.9493 213.814 73.28C213.931 73.6 214.097 73.8773 214.31 74.112C214.523 74.336 214.785 74.5173 215.094 74.656C215.403 74.784 215.75 74.848 216.134 74.848ZM226.704 68.416H228.144V69.584H228.176C228.358 69.1787 228.672 68.8533 229.12 68.608C229.568 68.352 230.086 68.224 230.672 68.224C231.035 68.224 231.382 68.2827 231.712 68.4C232.054 68.5067 232.347 68.6773 232.592 68.912C232.848 69.1467 233.051 69.4507 233.2 69.824C233.35 70.1867 233.424 70.6187 233.424 71.12V76H231.984V71.52C231.984 71.168 231.936 70.8693 231.84 70.624C231.744 70.368 231.616 70.1653 231.456 70.016C231.296 69.856 231.11 69.744 230.896 69.68C230.694 69.6053 230.48 69.568 230.256 69.568C229.958 69.568 229.68 69.616 229.424 69.712C229.168 69.808 228.944 69.9627 228.752 70.176C228.56 70.3787 228.411 70.64 228.304 70.96C228.198 71.28 228.144 71.6587 228.144 72.096V76H226.704V68.416ZM236.683 72.736C236.683 73.0667 236.752 73.3707 236.891 73.648C237.04 73.9147 237.232 74.144 237.467 74.336C237.702 74.528 237.974 74.6773 238.283 74.784C238.592 74.8907 238.912 74.944 239.243 74.944C239.691 74.944 240.08 74.8427 240.411 74.64C240.742 74.4267 241.046 74.1493 241.323 73.808L242.411 74.64C241.611 75.6747 240.491 76.192 239.051 76.192C238.454 76.192 237.91 76.0907 237.419 75.888C236.939 75.6853 236.528 75.408 236.187 75.056C235.856 74.6933 235.6 74.272 235.419 73.792C235.238 73.3013 235.147 72.7733 235.147 72.208C235.147 71.6427 235.243 71.12 235.435 70.64C235.638 70.1493 235.91 69.728 236.251 69.376C236.603 69.0133 237.019 68.7307 237.499 68.528C237.979 68.3253 238.502 68.224 239.067 68.224C239.739 68.224 240.304 68.3413 240.763 68.576C241.232 68.8107 241.616 69.12 241.915 69.504C242.214 69.8773 242.427 70.304 242.555 70.784C242.694 71.2533 242.763 71.7333 242.763 72.224V72.736H236.683ZM241.227 71.584C241.216 71.264 241.163 70.9707 241.067 70.704C240.982 70.4373 240.848 70.208 240.667 70.016C240.486 69.8133 240.256 69.6587 239.979 69.552C239.712 69.4347 239.398 69.376 239.035 69.376C238.683 69.376 238.358 69.4453 238.059 69.584C237.771 69.712 237.526 69.8827 237.323 70.096C237.12 70.3093 236.96 70.5493 236.843 70.816C236.736 71.072 236.683 71.328 236.683 71.584H241.227ZM243.573 68.416H245.189L246.901 74.08H246.933L248.741 68.416H250.261L252.181 74.08H252.213L253.845 68.416H255.365L252.917 76H251.461L249.461 70.336H249.429L247.621 76H246.069L243.573 68.416ZM260.658 70.32C260.487 70.1067 260.274 69.9307 260.018 69.792C259.773 69.6427 259.469 69.568 259.106 69.568C258.765 69.568 258.466 69.6427 258.21 69.792C257.965 69.9307 257.842 70.1387 257.842 70.416C257.842 70.64 257.911 70.8213 258.05 70.96C258.199 71.0987 258.37 71.2107 258.562 71.296C258.765 71.3813 258.978 71.4453 259.202 71.488C259.426 71.5307 259.618 71.568 259.778 71.6C260.087 71.6747 260.375 71.7653 260.642 71.872C260.919 71.9787 261.154 72.1173 261.346 72.288C261.549 72.4587 261.703 72.6667 261.81 72.912C261.927 73.1573 261.986 73.456 261.986 73.808C261.986 74.2347 261.895 74.6027 261.714 74.912C261.533 75.2107 261.298 75.456 261.01 75.648C260.722 75.84 260.391 75.9787 260.018 76.064C259.655 76.1493 259.287 76.192 258.914 76.192C258.285 76.192 257.73 76.096 257.25 75.904C256.781 75.712 256.359 75.36 255.986 74.848L257.074 73.952C257.309 74.1867 257.57 74.3947 257.858 74.576C258.146 74.7573 258.498 74.848 258.914 74.848C259.095 74.848 259.277 74.832 259.458 74.8C259.65 74.7573 259.815 74.6987 259.954 74.624C260.103 74.5387 260.221 74.4373 260.306 74.32C260.402 74.192 260.45 74.048 260.45 73.888C260.45 73.6747 260.381 73.4987 260.242 73.36C260.114 73.2213 259.954 73.1147 259.762 73.04C259.581 72.9547 259.383 72.8907 259.17 72.848C258.967 72.7947 258.786 72.752 258.626 72.72C258.317 72.6453 258.023 72.56 257.746 72.464C257.469 72.368 257.223 72.24 257.01 72.08C256.797 71.92 256.626 71.7173 256.498 71.472C256.37 71.2267 256.306 70.9227 256.306 70.56C256.306 70.1653 256.386 69.824 256.546 69.536C256.717 69.2373 256.935 68.992 257.202 68.8C257.479 68.608 257.789 68.464 258.13 68.368C258.482 68.272 258.834 68.224 259.186 68.224C259.698 68.224 260.189 68.32 260.658 68.512C261.127 68.704 261.501 69.024 261.778 69.472L260.658 70.32Z" fill="#333333"/>
</g>
<defs>
<clipPath id="clip0">
<rect width="144" height="40" fill="white" transform="translate(0.702148)"/>
</clipPath>
<clipPath id="clip1">
<rect width="144" height="40" fill="white" transform="translate(0.702148 50)"/>
</clipPath>
<clipPath id="clip2">
<rect width="144" height="40" fill="white" transform="translate(154.702)"/>
</clipPath>
<clipPath id="clip3">
<rect width="144" height="40" fill="white" transform="translate(154.702 50)"/>
</clipPath>
</defs>
</svg>
