<svg width="302" height="244" viewBox="0 0 302 244" fill="none" xmlns="http://www.w3.org/2000/svg">
<path d="M176.849 178.216V179.483L176.743 179.366C176.623 179.235 176.495 179.111 176.361 178.995C176.563 178.762 176.728 178.499 176.849 178.216Z" fill="#C2BEB5"/>
<path d="M176.543 186.13C176.426 186.141 176.31 186.147 176.199 186.147C176.013 186.331 175.805 186.491 175.58 186.623L88.8489 237.697C87.2153 238.659 85.1906 238.671 83.5449 237.73L35.1697 210.064H35.157C34.8064 209.882 27.0955 205.817 33.3134 203.601L34.8191 200.472C34.8492 201.481 34.167 202.532 35.1697 203.098L35.2522 203.145C36.3898 203.061 36.9229 203.503 37.0927 204.197L83.5402 230.764C85.1858 231.705 87.2105 231.692 88.8442 230.73L173.279 181.013C173.573 179.057 174.722 177.602 176.361 179.008C176.495 179.124 176.623 179.248 176.743 179.379L176.849 179.496C180.554 183.634 176.856 186.1 176.543 186.13Z" fill="#D9D5CA"/>
<path d="M176.849 174.32C176.593 174.923 176.147 175.427 175.58 175.756L88.8489 226.822C87.2153 227.784 85.1906 227.797 83.5449 226.856L35.1697 199.19C34.2348 198.662 33.6462 197.682 33.6196 196.61V196.595C33.5821 195.464 34.1744 194.404 35.1586 193.843L124.166 142.429C125.124 141.875 126.305 141.875 127.262 142.429L175.567 170.422C176.144 170.751 176.596 171.259 176.856 171.869C177.19 172.652 177.187 173.539 176.849 174.32Z" fill="#F7BC3C"/>
<path d="M170.558 175.03L145.014 190.069L120.876 204.283L87.2401 224.092C86.5882 224.476 85.78 224.481 85.1236 224.105L40.2515 198.432C39.6087 198.064 39.19 197.403 39.1337 196.665C39.0775 195.927 39.391 195.21 39.9707 194.749C40.0564 194.681 40.1471 194.62 40.242 194.565L61.185 182.464L97.0849 161.727L123.719 146.34C124.949 145.629 126.465 145.629 127.695 146.34L148.273 158.265L170.543 171.17C171.234 171.566 171.662 172.3 171.665 173.096C171.669 173.892 171.247 174.629 170.558 175.03Z" fill="#E4AC33"/>
<path d="M175.58 182.719L88.8489 233.795C87.2152 234.757 85.1905 234.77 83.5449 233.828L35.1697 206.162C34.3427 205.695 33.7803 204.871 33.6481 203.931C33.6272 203.786 33.6166 203.639 33.6164 203.492V203.479V196.609C33.643 197.682 34.2316 198.661 35.1665 199.189L83.537 226.856C85.1826 227.797 87.2073 227.784 88.8409 226.822L175.58 175.747C176.147 175.417 176.593 174.914 176.849 174.311V178.842C177.466 180.269 176.922 181.931 175.58 182.719Z" fill="#CF9321"/>
<path d="M186.513 203.457L172.694 208.04C173.251 209.893 169.911 211.341 177.739 215.453L225.813 242.942C228.242 244.353 231.242 244.353 233.672 242.942L301.078 204.275C301.63 203.943 301.976 203.355 301.999 202.713C302.022 202.07 301.717 201.459 301.191 201.09L294.701 196.514L186.513 203.457Z" fill="#C2BEB5"/>
<path d="M298.904 201.115L295.944 202.831L232.653 239.56C230.995 240.522 228.95 240.53 227.285 239.581L174.249 209.381C172.773 208.541 172.577 202.773 174.036 201.904L236.602 168.568L239.958 166.571C241.63 165.576 243.709 165.56 245.396 166.53L298.914 194.497C300.388 195.346 300.381 200.259 298.904 201.115Z" fill="#E3DDD1"/>
<path d="M298.904 197.527L295.944 199.242L232.653 235.966C230.995 236.927 228.951 236.935 227.285 235.987L174.249 205.793C173.565 205.401 173.14 204.677 173.132 203.889C173.124 203.101 173.536 202.369 174.212 201.964L236.602 164.98L239.958 162.983C241.629 161.988 243.709 161.971 245.396 162.94L298.896 193.684C299.585 194.079 300.01 194.811 300.011 195.603C300.013 196.396 299.591 197.129 298.904 197.527Z" fill="#F8F2E4"/>
<path d="M298.904 197.527L295.944 199.242L236.605 164.98L239.961 162.983C241.633 161.988 243.712 161.971 245.4 162.94L298.9 193.684C299.587 194.08 300.012 194.812 300.013 195.604C300.014 196.397 299.591 197.13 298.904 197.527Z" fill="#D9D5CA"/>
<path d="M286.47 199.676C286.284 199.677 286.101 199.626 285.942 199.53C283.86 198.296 281.774 197.104 279.754 195.95C277.501 194.662 275.172 193.329 272.856 191.943C272.364 191.648 272.205 191.012 272.499 190.522C272.794 190.031 273.431 189.872 273.922 190.166C276.219 191.542 278.54 192.87 280.785 194.153C282.808 195.31 284.901 196.508 286.997 197.751C287.399 197.988 287.592 198.465 287.468 198.916C287.345 199.366 286.934 199.677 286.467 199.676H286.47Z" fill="#D9D5CA"/>
<path d="M268.927 189.504C268.745 189.504 268.566 189.456 268.408 189.364C266.901 188.49 265.396 187.616 263.891 186.741C263.397 186.454 263.229 185.82 263.518 185.325C263.806 184.831 264.441 184.664 264.935 184.952C266.438 185.827 267.943 186.701 269.448 187.573C269.853 187.808 270.051 188.286 269.929 188.738C269.807 189.19 269.396 189.504 268.927 189.504Z" fill="#D9D5CA"/>
<path d="M279.699 203.955C279.515 203.955 279.335 203.906 279.177 203.814C277.968 203.107 276.758 202.402 275.548 201.7C275.076 201.402 274.925 200.785 275.205 200.303C275.486 199.821 276.098 199.647 276.59 199.909C277.803 200.614 279.013 201.319 280.222 202.026C280.627 202.262 280.822 202.739 280.7 203.191C280.577 203.642 280.167 203.955 279.699 203.955Z" fill="#D9D5CA"/>
<path d="M271.594 199.243C271.412 199.243 271.233 199.194 271.075 199.102L268.007 197.327L266.879 196.676C263.679 194.825 260.374 192.912 257.12 191.02C256.625 190.732 256.458 190.098 256.746 189.604C257.034 189.11 257.669 188.943 258.164 189.231C261.412 191.122 264.72 193.034 267.918 194.884L269.046 195.537L272.115 197.312C272.522 197.546 272.721 198.024 272.598 198.477C272.476 198.931 272.064 199.245 271.594 199.243Z" fill="#D9D5CA"/>
<path d="M272.927 208.024C272.799 208.024 272.672 207.994 272.557 207.936C272.261 207.788 272.005 207.641 271.756 207.5C271.507 207.359 271.293 207.235 271.037 207.108C270.981 207.08 270.927 207.045 270.879 207.004C270.143 206.39 269.257 206.012 268.32 205.611L268.228 205.565C266.949 204.818 265.7 204.067 264.494 203.346C262.527 202.161 260.667 201.042 258.749 199.988C258.468 199.859 258.282 199.583 258.268 199.274C258.253 198.965 258.412 198.673 258.681 198.518C258.949 198.363 259.281 198.37 259.543 198.537C261.489 199.608 263.362 200.735 265.343 201.928C266.532 202.643 267.758 203.381 269.013 204.113C269.978 204.525 270.971 204.956 271.859 205.674C272.121 205.807 272.351 205.939 272.575 206.067C272.799 206.195 273.038 206.332 273.294 206.459C273.638 206.63 273.819 207.016 273.731 207.391C273.642 207.765 273.307 208.029 272.922 208.029L272.927 208.024Z" fill="#D9D5CA"/>
<path d="M254.857 197.746C254.683 197.746 254.512 197.702 254.359 197.617C252.695 196.705 251.088 195.774 249.58 194.854C249.116 194.545 248.979 193.925 249.27 193.45C249.561 192.975 250.176 192.815 250.662 193.087C252.143 193.992 253.721 194.906 255.357 195.803C255.773 196.03 255.982 196.51 255.864 196.968C255.746 197.427 255.331 197.747 254.857 197.746Z" fill="#D9D5CA"/>
<path d="M266.155 212.512C265.973 212.513 265.794 212.464 265.637 212.373L262.8 210.725C260.22 209.223 257.641 207.722 255.064 206.219L252.909 204.964C252.575 204.784 252.366 204.437 252.364 204.059C252.362 203.68 252.566 203.33 252.897 203.146C253.228 202.962 253.634 202.973 253.955 203.175L256.109 204.43C258.686 205.932 261.264 207.434 263.844 208.936L266.677 210.582C267.083 210.817 267.281 211.295 267.158 211.747C267.036 212.2 266.625 212.513 266.155 212.512Z" fill="#D9D5CA"/>
<path d="M249.028 202.538C248.845 202.538 248.666 202.489 248.508 202.397L245.101 200.416C244.781 200.23 244.585 199.888 244.586 199.518C244.588 199.148 244.786 198.807 245.108 198.623C245.429 198.44 245.824 198.441 246.144 198.627L249.552 200.608C249.955 200.845 250.15 201.322 250.028 201.773C249.906 202.224 249.496 202.537 249.028 202.538Z" fill="#D9D5CA"/>
<path d="M241.14 197.958C240.958 197.957 240.779 197.909 240.621 197.819C236.802 195.6 233.376 193.635 230.149 191.797C229.828 191.613 229.629 191.272 229.628 190.902C229.626 190.532 229.823 190.19 230.143 190.003C230.463 189.817 230.858 189.816 231.179 190C234.409 191.846 237.843 193.82 241.662 196.033C242.067 196.268 242.263 196.746 242.141 197.198C242.019 197.65 241.608 197.964 241.14 197.964V197.958Z" fill="#D9D5CA"/>
<path d="M226.476 189.5C226.321 189.5 226.167 189.465 226.027 189.397C225.551 189.171 225.155 188.922 224.766 188.697C224.349 188.433 223.913 188.198 223.463 187.995C223.345 187.942 223.237 187.867 223.146 187.775L222.849 187.48C221.203 186.668 219.609 185.754 218.075 184.745C217.86 184.616 217.614 184.497 217.353 184.371C216.791 184.119 216.259 183.805 215.767 183.434C215.478 183.203 215.334 182.836 215.39 182.47C215.446 182.104 215.692 181.796 216.037 181.662C216.382 181.527 216.772 181.587 217.062 181.818C217.435 182.091 217.836 182.323 218.259 182.51C218.556 182.654 218.861 182.803 219.157 182.986L219.199 183.013C220.715 184.01 222.294 184.91 223.925 185.707C224.024 185.756 224.115 185.821 224.193 185.9L224.472 186.179C224.942 186.401 225.398 186.651 225.839 186.925C226.202 187.144 226.546 187.35 226.93 187.535C227.367 187.744 227.601 188.227 227.493 188.699C227.385 189.17 226.965 189.504 226.481 189.504L226.476 189.5Z" fill="#D9D5CA"/>
<path d="M258.556 216.098C258.375 216.098 258.197 216.051 258.04 215.961C256.788 215.243 255.536 214.524 254.286 213.802C250.098 211.389 245.93 208.967 241.308 206.278C240.813 205.99 240.646 205.357 240.933 204.863C241.221 204.369 241.856 204.201 242.35 204.489C246.97 207.183 251.137 209.598 255.322 212.01C256.57 212.729 257.821 213.448 259.073 214.165C259.481 214.398 259.681 214.877 259.56 215.331C259.438 215.785 259.026 216.1 258.556 216.098Z" fill="#D9D5CA"/>
<path d="M237.43 203.863C237.247 203.863 237.068 203.814 236.91 203.722C235.698 203.018 234.485 202.315 233.273 201.611C229.435 199.383 225.34 197.057 220.404 194.285C220.082 194.104 219.88 193.764 219.876 193.394C219.871 193.025 220.065 192.681 220.384 192.492C220.702 192.303 221.097 192.299 221.42 192.48C226.368 195.256 230.463 197.587 234.316 199.82L237.952 201.933C238.358 202.168 238.555 202.646 238.433 203.098C238.311 203.55 237.899 203.864 237.43 203.863Z" fill="#D9D5CA"/>
<path d="M216.317 191.771C216.241 191.771 216.164 191.763 216.089 191.746C215.545 191.613 215.053 191.324 214.672 190.914C214.037 190.556 213.403 190.209 212.79 189.866C211.285 189.034 209.862 188.247 208.413 187.378C208.096 187.188 207.904 186.843 207.91 186.474C207.916 186.104 208.12 185.766 208.443 185.586C208.767 185.407 209.162 185.413 209.479 185.604C210.898 186.453 212.305 187.231 213.795 188.057C214.456 188.423 215.127 188.794 215.811 189.177C215.894 189.224 215.97 189.281 216.037 189.348C216.284 189.595 216.392 189.692 216.546 189.725C217.058 189.844 217.4 190.328 217.342 190.85C217.284 191.372 216.843 191.768 216.317 191.771Z" fill="#D9D5CA"/>
<path d="M251.792 220.377C251.612 220.377 251.436 220.33 251.28 220.241C249.658 219.316 248.016 218.369 246.428 217.454L246.023 217.221C244.517 216.354 242.915 215.431 241.34 214.527C240.825 214.233 240.283 213.943 239.753 213.663C238.637 213.092 237.553 212.461 236.505 211.772C234.511 210.411 232.339 209.196 230.24 208.02C229.334 207.513 228.398 206.988 227.484 206.457C227.164 206.271 226.968 205.928 226.969 205.558C226.971 205.188 227.17 204.847 227.491 204.664C227.813 204.48 228.208 204.482 228.528 204.668C229.426 205.191 230.354 205.711 231.252 206.213C233.392 207.411 235.604 208.65 237.675 210.062C238.662 210.708 239.682 211.3 240.732 211.837C241.27 212.124 241.825 212.422 242.363 212.728C243.949 213.628 245.546 214.552 247.054 215.422L247.459 215.656C249.046 216.571 250.686 217.515 252.303 218.438C252.71 218.671 252.909 219.149 252.789 219.603C252.668 220.056 252.257 220.372 251.787 220.373L251.792 220.377Z" fill="#D9D5CA"/>
<path d="M223.559 204.126C223.382 204.126 223.208 204.08 223.054 203.994C220.308 202.463 217.388 200.825 214.558 199.096C214.242 198.903 214.053 198.556 214.063 198.187C214.073 197.817 214.279 197.48 214.604 197.304C214.929 197.127 215.324 197.137 215.64 197.331C218.437 199.039 221.336 200.658 224.063 202.186C224.476 202.415 224.682 202.894 224.563 203.351C224.444 203.808 224.031 204.127 223.559 204.126Z" fill="#D9D5CA"/>
<path d="M210.491 196.595C210.309 196.595 210.129 196.547 209.971 196.456C208.933 195.854 207.88 195.255 206.86 194.676C205.151 193.705 203.383 192.702 201.641 191.665C201.324 191.475 201.132 191.13 201.139 190.76C201.145 190.39 201.349 190.052 201.673 189.872C201.997 189.693 202.392 189.7 202.709 189.89C204.429 190.92 206.185 191.919 207.885 192.884C208.908 193.465 209.965 194.066 211.012 194.671C211.417 194.907 211.613 195.384 211.491 195.836C211.37 196.288 210.96 196.602 210.491 196.603V196.595Z" fill="#D9D5CA"/>
<path d="M231.254 233.599C231.073 233.598 230.896 233.552 230.74 233.463C229.12 232.537 227.477 231.591 225.889 230.675L225.485 230.442C223.977 229.575 222.377 228.653 220.801 227.748C220.287 227.455 219.744 227.165 219.215 226.884C218.099 226.313 217.014 225.682 215.967 224.994C213.972 223.632 211.8 222.417 209.7 221.241C208.795 220.734 207.859 220.209 206.945 219.679C206.451 219.391 206.283 218.757 206.571 218.263C206.859 217.769 207.493 217.602 207.988 217.889C208.887 218.412 209.816 218.932 210.714 219.435C212.854 220.633 215.066 221.872 217.136 223.285C218.123 223.929 219.144 224.521 220.193 225.059C220.73 225.346 221.285 225.643 221.823 225.949C223.409 226.849 225.007 227.773 226.514 228.643L226.921 228.878C228.507 229.792 230.148 230.737 231.764 231.659C232.172 231.893 232.371 232.371 232.25 232.824C232.129 233.278 231.719 233.593 231.249 233.594L231.254 233.599Z" fill="#D9D5CA"/>
<path d="M203.027 217.347C202.85 217.347 202.677 217.302 202.524 217.216C199.776 215.685 196.858 214.046 194.027 212.317C193.539 212.019 193.386 211.382 193.685 210.894C193.983 210.407 194.621 210.254 195.109 210.552C197.907 212.26 200.804 213.88 203.533 215.408C203.946 215.637 204.152 216.117 204.033 216.574C203.913 217.031 203.499 217.349 203.027 217.347Z" fill="#D9D5CA"/>
<path d="M189.959 209.818C189.777 209.818 189.598 209.77 189.44 209.679C188.401 209.077 187.348 208.478 186.329 207.899C184.62 206.928 182.851 205.925 181.111 204.88C180.793 204.69 180.602 204.345 180.608 203.976C180.614 203.606 180.817 203.268 181.141 203.088C181.465 202.909 181.86 202.915 182.177 203.105C183.897 204.137 185.655 205.134 187.354 206.101C188.376 206.681 189.434 207.281 190.48 207.887C190.887 208.121 191.086 208.599 190.963 209.052C190.841 209.506 190.429 209.82 189.959 209.818Z" fill="#D9D5CA"/>
<path d="M245.012 224.656C244.829 224.656 244.649 224.607 244.491 224.514C243.57 223.978 242.649 223.443 241.727 222.91C238.693 221.155 235.598 219.392 232.602 217.68L231.796 217.222C231.299 216.939 231.126 216.306 231.41 215.809C231.694 215.313 232.327 215.14 232.824 215.424L233.629 215.882C236.626 217.59 239.726 219.355 242.766 221.111C243.691 221.646 244.615 222.182 245.538 222.721C245.942 222.957 246.138 223.435 246.015 223.887C245.892 224.338 245.481 224.651 245.012 224.65V224.656Z" fill="#D9D5CA"/>
<path d="M228.026 214.921C227.846 214.921 227.669 214.874 227.512 214.785C224.71 213.181 221.007 211.057 217.276 208.84C216.808 208.538 216.663 207.92 216.947 207.442C217.232 206.963 217.844 206.794 218.334 207.059C222.061 209.278 225.746 211.389 228.542 212.988C228.95 213.221 229.15 213.699 229.029 214.153C228.908 214.606 228.497 214.922 228.026 214.921Z" fill="#D9D5CA"/>
<path d="M213.079 206.262C212.894 206.263 212.713 206.213 212.554 206.118C209.806 204.497 206.939 202.869 204.167 201.294C201.1 199.551 197.929 197.752 194.879 195.939C194.387 195.647 194.226 195.012 194.518 194.52C194.811 194.029 195.447 193.867 195.939 194.16C198.971 195.963 202.127 197.759 205.191 199.495C207.972 201.08 210.845 202.706 213.6 204.335C214.003 204.572 214.198 205.05 214.074 205.501C213.95 205.952 213.539 206.264 213.071 206.262H213.079Z" fill="#D9D5CA"/>
<path d="M237.179 228.434C236.996 228.434 236.816 228.385 236.657 228.291C235.737 227.755 234.816 227.22 233.894 226.686C230.86 224.933 227.763 223.169 224.768 221.456L223.963 220.998C223.466 220.715 223.293 220.083 223.576 219.586C223.859 219.09 224.492 218.917 224.99 219.2L225.794 219.658C228.793 221.364 231.891 223.13 234.931 224.887C235.856 225.421 236.78 225.957 237.703 226.496C238.107 226.732 238.302 227.21 238.179 227.661C238.057 228.112 237.647 228.425 237.179 228.426V228.434Z" fill="#D9D5CA"/>
<path d="M220.192 218.693C220.011 218.692 219.834 218.645 219.678 218.555C216.876 216.953 213.181 214.829 209.441 212.61C208.949 212.319 208.787 211.684 209.079 211.192C209.372 210.701 210.007 210.539 210.499 210.831C214.226 213.049 217.914 215.16 220.709 216.759C221.118 216.992 221.318 217.471 221.196 217.925C221.075 218.379 220.662 218.694 220.192 218.693Z" fill="#D9D5CA"/>
<path d="M205.241 210.04C205.056 210.04 204.874 209.99 204.715 209.896C201.967 208.275 199.1 206.647 196.328 205.072C193.261 203.329 190.089 201.53 187.04 199.716C186.715 199.53 186.515 199.184 186.518 198.809C186.521 198.435 186.726 198.092 187.054 197.911C187.381 197.731 187.781 197.741 188.1 197.938C191.132 199.739 194.288 201.536 197.353 203.272C200.133 204.857 203.007 206.484 205.762 208.113C206.165 208.35 206.36 208.827 206.236 209.278C206.113 209.729 205.703 210.041 205.235 210.04H205.241Z" fill="#D9D5CA"/>
<path d="M256.706 180.846C258.032 181.596 258.026 183.509 256.696 184.25L244.098 191.275C243.507 191.604 242.789 191.605 242.198 191.276L223.124 180.666C221.79 179.924 221.786 178.006 223.118 177.258L235.833 170.122C236.429 169.788 237.155 169.789 237.75 170.125L256.706 180.846Z" fill="white"/>
<path d="M249.253 185.059H245.35C244.936 185.059 244.6 184.723 244.6 184.309V183.409H238.446C238.031 183.409 237.695 183.073 237.695 182.659V180.71H228.237C227.823 180.71 227.487 180.374 227.487 179.961C227.487 179.547 227.823 179.211 228.237 179.211H238.446C238.86 179.211 239.196 179.547 239.196 179.961V181.91H245.35C245.765 181.91 246.101 182.245 246.101 182.659V183.559H249.253C249.668 183.559 250.004 183.895 250.004 184.309C250.004 184.723 249.668 185.059 249.253 185.059Z" fill="#6F6E69"/>
<path d="M248.103 182.729V185.898C248.103 186.125 248.224 186.335 248.42 186.448C248.617 186.562 248.859 186.562 249.055 186.448L252.228 184.604C252.439 184.483 252.562 184.254 252.546 184.012C252.53 183.771 252.378 183.559 252.154 183.467L248.981 182.135C248.783 182.053 248.558 182.076 248.382 182.196C248.205 182.315 248.1 182.516 248.103 182.729Z" fill="#6F6E69"/>
<path d="M232.444 177.113C232.106 177.114 231.809 176.889 231.718 176.564C231.628 176.238 231.766 175.893 232.056 175.72L235.809 173.471C236.164 173.261 236.622 173.376 236.835 173.73C237.048 174.083 236.934 174.542 236.581 174.756L232.829 177.005C232.713 177.075 232.58 177.113 232.444 177.113Z" fill="#6F6E69"/>
<path d="M236.085 177.273C235.927 177.272 235.773 177.222 235.645 177.128L232.104 174.56C231.768 174.316 231.694 173.847 231.937 173.512C232.181 173.177 232.651 173.102 232.986 173.346L236.527 175.916C236.791 176.107 236.901 176.446 236.801 176.755C236.7 177.065 236.41 177.274 236.085 177.273Z" fill="#6F6E69"/>
<path d="M212.203 158.156C212.204 158.486 212.179 158.815 212.13 159.14C211.277 164.883 203.022 169.389 192.963 169.389C182.904 169.389 174.65 164.883 173.797 159.14C173.747 158.815 173.722 158.486 173.722 158.156C173.722 151.954 182.336 146.924 192.963 146.924C203.59 146.924 212.203 151.954 212.203 158.156Z" fill="#C2BEB5"/>
<path opacity="0.4" d="M145.014 190.069L120.876 204.283L110.755 198.495C106.492 196.256 108.31 195.469 108.007 194.459L115.531 191.963L145.014 190.069Z" fill="#272727"/>
<path d="M176.722 190.689L175.11 191.624L140.65 211.622C139.748 212.146 138.635 212.15 137.729 211.633L108.853 195.19C108.05 194.732 107.942 191.592 108.737 191.118L142.803 172.968L144.629 171.881C145.539 171.339 146.672 171.33 147.591 171.858L176.727 187.085C177.539 187.548 177.527 190.223 176.722 190.689Z" fill="#E3DDD1"/>
<path d="M176.722 188.741L175.11 189.676L140.65 209.674C139.748 210.198 138.635 210.202 137.729 209.685L108.853 193.242C108.479 193.03 108.247 192.635 108.243 192.206C108.239 191.777 108.463 191.378 108.832 191.158L142.803 171.021L144.629 169.934C145.539 169.392 146.672 169.383 147.591 169.91L176.721 186.651C177.094 186.867 177.325 187.265 177.325 187.696C177.325 188.127 177.096 188.525 176.722 188.741Z" fill="#F8F2E4"/>
<path d="M176.722 188.741L175.11 189.676L142.801 171.015L144.627 169.928C145.538 169.385 146.67 169.376 147.589 169.904L176.719 186.645C177.096 186.859 177.329 187.259 177.33 187.692C177.33 188.125 177.099 188.526 176.722 188.741Z" fill="#D9D5CA"/>
<path d="M151.067 201.177C150.969 201.177 150.873 201.151 150.788 201.102C149.906 200.6 149.011 200.083 148.146 199.586L147.926 199.459C147.105 198.983 146.234 198.484 145.376 197.995C145.097 197.836 144.802 197.678 144.515 197.519C143.907 197.209 143.317 196.865 142.747 196.491C141.66 195.749 140.478 195.087 139.334 194.446C138.841 194.171 138.332 193.885 137.835 193.597C137.653 193.499 137.54 193.311 137.538 193.105C137.536 192.899 137.647 192.708 137.828 192.608C138.008 192.507 138.228 192.513 138.403 192.622C138.892 192.906 139.398 193.19 139.886 193.464C141.051 194.117 142.257 194.79 143.377 195.56C143.914 195.912 144.47 196.234 145.041 196.526C145.333 196.684 145.636 196.843 145.93 197.01C146.79 197.502 147.662 198.004 148.484 198.478L148.705 198.605C149.568 199.102 150.461 199.617 151.342 200.12C151.565 200.246 151.675 200.507 151.609 200.754C151.543 201.002 151.317 201.174 151.061 201.172L151.067 201.177Z" fill="#D9D5CA"/>
<path d="M135.698 192.329C135.602 192.329 135.508 192.304 135.425 192.256C133.929 191.424 132.339 190.53 130.798 189.591C130.547 189.422 130.473 189.086 130.631 188.828C130.789 188.569 131.122 188.482 131.387 188.629C132.91 189.559 134.489 190.445 135.974 191.272C136.199 191.397 136.311 191.659 136.246 191.907C136.181 192.156 135.955 192.33 135.698 192.329Z" fill="#D9D5CA"/>
<path d="M128.584 188.228C128.484 188.228 128.387 188.202 128.301 188.152C127.736 187.824 127.162 187.499 126.607 187.183C125.677 186.654 124.714 186.107 123.767 185.54C123.584 185.441 123.471 185.25 123.472 185.043C123.473 184.836 123.587 184.646 123.77 184.548C123.952 184.45 124.174 184.459 124.347 184.573C125.283 185.134 126.24 185.683 127.165 186.204C127.722 186.521 128.298 186.848 128.868 187.177C129.087 187.306 129.193 187.565 129.127 187.811C129.061 188.056 128.838 188.227 128.584 188.228Z" fill="#D9D5CA"/>
<path d="M139.888 208.376C139.79 208.376 139.694 208.35 139.609 208.302C138.727 207.798 137.833 207.283 136.967 206.784L136.747 206.657C135.928 206.181 135.055 205.682 134.197 205.194C133.918 205.036 133.623 204.877 133.337 204.719C132.729 204.408 132.139 204.064 131.568 203.69C130.481 202.949 129.299 202.286 128.155 201.646C127.663 201.37 127.154 201.085 126.656 200.795C126.387 200.638 126.296 200.293 126.453 200.025C126.61 199.756 126.955 199.665 127.224 199.822C127.713 200.106 128.219 200.389 128.707 200.663C129.873 201.315 131.078 201.99 132.198 202.758C132.735 203.109 133.291 203.432 133.862 203.725C134.156 203.884 134.457 204.042 134.751 204.21C135.611 204.7 136.483 205.204 137.305 205.676L137.526 205.803C138.389 206.3 139.282 206.815 140.163 207.318C140.385 207.445 140.494 207.705 140.428 207.952C140.362 208.2 140.138 208.372 139.882 208.371L139.888 208.376Z" fill="#D9D5CA"/>
<path d="M124.52 199.527C124.424 199.527 124.33 199.503 124.246 199.456C122.75 198.622 121.161 197.73 119.619 196.789C119.359 196.624 119.279 196.28 119.44 196.017C119.601 195.754 119.944 195.67 120.21 195.827C121.731 196.757 123.31 197.643 124.795 198.472C125.02 198.596 125.133 198.857 125.068 199.106C125.004 199.355 124.778 199.528 124.52 199.527Z" fill="#D9D5CA"/>
<path d="M117.408 195.427C117.308 195.427 117.211 195.4 117.125 195.351C116.56 195.023 115.986 194.697 115.432 194.383C114.501 193.854 113.538 193.307 112.591 192.74C112.418 192.636 112.313 192.448 112.316 192.246C112.319 192.045 112.43 191.86 112.606 191.762C112.783 191.664 112.998 191.668 113.171 191.771C114.107 192.334 115.064 192.881 115.989 193.402C116.546 193.719 117.122 194.045 117.692 194.375C117.913 194.503 118.02 194.764 117.954 195.01C117.887 195.257 117.663 195.428 117.408 195.427Z" fill="#D9D5CA"/>
<path d="M147.38 203.506C147.28 203.506 147.182 203.48 147.096 203.43C146.595 203.136 146.093 202.845 145.592 202.555C143.94 201.605 142.26 200.641 140.623 199.712L140.185 199.462C139.93 199.301 139.847 198.968 139.996 198.706C140.145 198.444 140.474 198.346 140.743 198.483L141.183 198.733C142.814 199.662 144.502 200.624 146.157 201.586C146.66 201.877 147.164 202.169 147.665 202.463C147.886 202.591 147.993 202.852 147.926 203.098C147.859 203.344 147.635 203.514 147.38 203.513V203.506Z" fill="#D9D5CA"/>
<path d="M138.132 198.207C138.034 198.207 137.937 198.182 137.852 198.133C136.326 197.259 134.314 196.102 132.277 194.895C132.093 194.797 131.979 194.606 131.978 194.398C131.978 194.19 132.092 193.999 132.275 193.901C132.458 193.802 132.681 193.812 132.855 193.927C134.884 195.129 136.891 196.283 138.408 197.153C138.63 197.28 138.739 197.541 138.673 197.788C138.607 198.035 138.383 198.207 138.127 198.207H138.132Z" fill="#D9D5CA"/>
<path d="M129.991 193.495C129.89 193.495 129.791 193.468 129.704 193.416C128.209 192.534 126.648 191.648 125.137 190.79C123.468 189.839 121.742 188.862 120.081 187.874C119.813 187.715 119.725 187.369 119.884 187.101C120.044 186.833 120.39 186.745 120.659 186.905C122.309 187.887 124.032 188.865 125.696 189.809C127.21 190.67 128.774 191.553 130.278 192.446C130.496 192.576 130.601 192.835 130.534 193.08C130.467 193.325 130.245 193.495 129.991 193.495Z" fill="#D9D5CA"/>
<path d="M143.11 205.563C143.011 205.564 142.913 205.538 142.826 205.487C142.325 205.194 141.823 204.902 141.321 204.613C139.669 203.662 137.989 202.698 136.353 201.77L135.914 201.519C135.653 201.36 135.566 201.023 135.717 200.758C135.869 200.492 136.204 200.396 136.474 200.54L136.923 200.785C138.555 201.714 140.243 202.676 141.898 203.638L143.407 204.514C143.627 204.643 143.733 204.903 143.666 205.149C143.599 205.394 143.376 205.565 143.122 205.565L143.11 205.563Z" fill="#D9D5CA"/>
<path d="M133.867 200.264C133.769 200.263 133.672 200.238 133.586 200.189C132.061 199.316 130.048 198.159 128.012 196.952C127.839 196.849 127.734 196.662 127.737 196.461C127.739 196.259 127.849 196.075 128.025 195.977C128.2 195.878 128.415 195.881 128.588 195.984C130.618 197.186 132.625 198.34 134.141 199.21C134.364 199.337 134.473 199.598 134.407 199.845C134.341 200.092 134.117 200.264 133.861 200.264H133.867Z" fill="#D9D5CA"/>
<path d="M125.726 195.556C125.625 195.556 125.526 195.53 125.439 195.478C123.943 194.595 122.382 193.709 120.873 192.852C119.202 191.901 117.476 190.924 115.815 189.935C115.563 189.768 115.487 189.434 115.641 189.175C115.795 188.917 116.126 188.825 116.392 188.966C118.044 189.949 119.765 190.927 121.43 191.871C122.943 192.732 124.509 193.614 126.013 194.507C126.232 194.636 126.336 194.896 126.269 195.14C126.202 195.385 125.98 195.555 125.726 195.556Z" fill="#D9D5CA"/>
<path d="M162.402 194.11C162.3 194.111 162.2 194.083 162.113 194.031C160.98 193.359 159.844 192.709 158.746 192.082C157.52 191.38 156.252 190.656 154.991 189.9C154.724 189.74 154.636 189.394 154.796 189.127C154.956 188.86 155.303 188.773 155.57 188.933C156.822 189.681 158.086 190.404 159.308 191.104C160.409 191.738 161.548 192.385 162.691 193.063C162.91 193.192 163.016 193.452 162.948 193.697C162.88 193.942 162.656 194.112 162.402 194.11Z" fill="#D9D5CA"/>
<path d="M152.85 188.574C152.751 188.574 152.653 188.548 152.566 188.497L150.107 187.071C149.838 186.914 149.747 186.569 149.904 186.299C150.061 186.03 150.407 185.939 150.677 186.097C151.493 186.574 152.312 187.05 153.133 187.523C153.355 187.65 153.463 187.91 153.397 188.157C153.33 188.403 153.106 188.575 152.85 188.574Z" fill="#D9D5CA"/>
<path d="M158.715 196.44C158.615 196.44 158.517 196.413 158.431 196.362L156.455 195.212C156.203 195.048 156.123 194.716 156.274 194.456C156.425 194.196 156.754 194.1 157.022 194.237L159 195.389C159.22 195.518 159.326 195.778 159.259 196.024C159.192 196.269 158.969 196.44 158.715 196.44Z" fill="#D9D5CA"/>
<path d="M154.302 193.876C154.203 193.876 154.105 193.85 154.02 193.8L152.349 192.833L151.735 192.478C149.99 191.472 148.191 190.429 146.422 189.399C146.248 189.298 146.141 189.111 146.142 188.91C146.143 188.709 146.251 188.523 146.426 188.424C146.601 188.324 146.816 188.325 146.99 188.426C148.757 189.455 150.558 190.496 152.3 191.504L152.914 191.859L154.585 192.825C154.806 192.952 154.915 193.213 154.849 193.459C154.782 193.706 154.558 193.877 154.302 193.876Z" fill="#D9D5CA"/>
<path d="M155.027 198.657C154.957 198.656 154.889 198.64 154.826 198.609C154.667 198.529 154.526 198.451 154.391 198.372C154.256 198.292 154.137 198.227 153.999 198.159C153.968 198.144 153.939 198.125 153.912 198.102C153.511 197.768 153.028 197.562 152.517 197.343L152.468 197.318C151.772 196.912 151.093 196.503 150.436 196.107C149.363 195.462 148.352 194.854 147.307 194.28C147.088 194.16 147.008 193.885 147.128 193.667C147.248 193.448 147.523 193.368 147.742 193.488C148.803 194.071 149.822 194.684 150.901 195.334C151.548 195.724 152.216 196.126 152.9 196.524C153.453 196.733 153.974 197.019 154.448 197.373C154.591 197.446 154.716 197.518 154.838 197.587C154.961 197.657 155.091 197.731 155.23 197.801C155.416 197.896 155.513 198.105 155.465 198.308C155.417 198.511 155.236 198.654 155.027 198.655V198.657Z" fill="#D9D5CA"/>
<path d="M145.189 193.061C145.094 193.061 145.001 193.037 144.917 192.992C144.012 192.494 143.136 191.988 142.315 191.486C142.14 191.382 142.034 191.192 142.039 190.989C142.043 190.785 142.157 190.6 142.336 190.504C142.516 190.407 142.734 190.415 142.906 190.524C143.71 191.017 144.57 191.515 145.462 192.004C145.686 192.129 145.798 192.389 145.734 192.638C145.67 192.886 145.446 193.06 145.189 193.061Z" fill="#D9D5CA"/>
<path d="M146.33 183.937C146.993 184.312 146.99 185.268 146.325 185.639L139.289 189.562C138.993 189.727 138.634 189.727 138.339 189.563L127.775 183.687C127.107 183.316 127.105 182.357 127.771 181.983L134.872 177.997C135.17 177.83 135.533 177.83 135.831 177.998L146.33 183.937Z" fill="#D9D5CA"/>
<path d="M144.738 173.905L146.821 175.106L144.951 178.068L144.981 178.086L148.471 176.056L149.952 176.908L144.127 180.3L142.42 179.317L144.678 175.691L144.648 175.674L140.396 178.151L138.915 177.298L144.738 173.905Z" fill="#121212"/>
<path d="M151.338 177.708L155.87 180.32L155.037 180.803L152.167 179.151L150.628 180.048L152.908 181.361L152.076 181.846L149.795 180.531L148.007 181.574L150.885 183.227L150.052 183.711L145.52 181.1L151.338 177.708Z" fill="#121212"/>
<path d="M156.579 180.729L158.18 181.651L154.443 184.684L154.474 184.702L159.735 182.547L161.548 183.591L157.856 186.651L157.886 186.669L163.103 184.488L164.531 185.315L157.632 188.088L155.57 186.897L158.743 184.174L158.713 184.157L154.029 186.009L151.824 184.742L156.579 180.729Z" fill="#121212"/>
<path d="M160.804 188.312L161.137 188.117L162.708 189.024L162.308 189.255C161.893 189.497 162.075 189.776 162.603 190.081C163.132 190.385 163.614 190.489 164.047 190.239C164.523 189.959 164.506 189.588 163.942 188.654C163.227 187.461 163.247 186.924 163.914 186.535C164.829 186.003 166.222 186.188 167.839 187.12C169.456 188.052 169.722 188.822 168.791 189.366L168.55 189.505L166.979 188.6L167.277 188.426C167.695 188.184 167.55 187.917 167.022 187.613C166.494 187.309 166.032 187.226 165.634 187.455C165.208 187.702 165.248 188.081 165.811 189.012C166.527 190.206 166.498 190.73 165.775 191.152C164.823 191.703 163.417 191.51 161.786 190.569C160.155 189.627 159.873 188.854 160.804 188.312Z" fill="#121212"/>
<g opacity="0.4">
<path d="M148.27 158.275C144.995 165.121 134.235 170.143 121.464 170.143C110.963 170.143 101.819 166.747 97.0817 161.733L123.716 146.347C124.946 145.635 126.462 145.635 127.692 146.347L148.27 158.275Z" fill="#272727"/>
</g>
<path d="M149.298 148.987C149.298 149.464 149.263 149.941 149.192 150.413C147.956 158.72 136.023 165.237 121.468 165.237C106.912 165.237 94.9715 158.72 93.7451 150.413C93.6736 149.941 93.6381 149.464 93.6388 148.987C93.6388 140.014 106.097 132.74 121.468 132.74C136.839 132.74 149.298 140.014 149.298 148.987Z" fill="#F8BF30"/>
<path fill-rule="evenodd" clip-rule="evenodd" d="M102.584 160.972C107.747 163.746 114.45 165.273 121.464 165.273C128.48 165.273 135.177 163.746 140.339 160.972C145.465 158.212 148.622 154.462 149.223 150.416C149.295 149.944 149.331 149.468 149.331 148.99C149.331 144.637 146.422 140.542 141.16 137.469C135.899 134.396 128.902 132.704 121.461 132.704C114.02 132.704 107.031 134.393 101.762 137.469C96.4931 140.545 93.5928 144.637 93.5928 148.99C93.5923 149.468 93.6278 149.944 93.6991 150.416C94.2956 154.462 97.4212 158.199 102.584 160.972ZM93.6753 148.993C93.6753 140.057 106.141 132.786 121.464 132.786V132.78C136.788 132.78 149.255 140.051 149.255 148.985C149.256 149.463 149.22 149.94 149.149 150.412C148.551 154.432 145.409 158.159 140.3 160.909C135.157 163.676 128.466 165.2 121.464 165.2C114.463 165.2 107.774 163.676 102.63 160.909C97.5212 158.159 94.3781 154.432 93.7816 150.41C93.7102 149.941 93.6746 149.468 93.6753 148.993Z" fill="#D6A11C"/>
<path d="M140.934 139.263C140.935 139.287 140.935 139.312 140.934 139.336C140.87 139.761 140.259 140.093 139.517 140.093C138.774 140.093 138.163 139.761 138.1 139.336C138.098 139.312 138.098 139.287 138.1 139.263C138.1 138.805 138.735 138.433 139.528 138.433C140.321 138.433 140.934 138.805 140.934 139.263Z" fill="#D6A11C"/>
<path d="M105.553 158.949C105.554 158.973 105.554 158.997 105.553 159.021C105.489 159.446 104.878 159.779 104.136 159.779C103.393 159.779 102.782 159.446 102.719 159.021C102.717 158.997 102.717 158.973 102.719 158.949C102.719 158.491 103.354 158.118 104.147 158.118C104.94 158.118 105.553 158.491 105.553 158.949Z" fill="#D6A11C"/>
<ellipse cx="121.465" cy="148.987" rx="23.3182" ry="11.7397" fill="#B27C15"/>
<path d="M149.298 151.833C149.298 160.806 136.839 168.08 121.468 168.08C106.097 168.08 93.6388 160.806 93.6388 151.833C93.6381 151.356 93.6737 150.879 93.7451 150.407C94.9795 158.714 106.914 165.23 121.468 165.23C136.021 165.23 147.956 158.714 149.192 150.407C149.262 150.879 149.298 151.356 149.298 151.833Z" fill="#D6A11C"/>
<path d="M111.339 147.776L112.343 147.199L116.254 149.429L115.048 150.122C113.792 150.844 114.168 151.575 115.483 152.326C116.798 153.077 118.079 153.289 119.384 152.538C120.841 151.702 120.944 150.697 119.819 148.244C118.391 145.101 118.696 143.635 120.706 142.482C123.468 140.897 127.219 141.193 131.243 143.489C135.266 145.786 135.652 147.844 132.839 149.459L132.111 149.878L128.196 147.648L129.101 147.128C130.356 146.407 130.081 145.702 128.766 144.952C127.451 144.203 126.223 144.052 125.023 144.74C123.743 145.475 123.679 146.502 124.804 148.955C126.232 152.098 125.915 153.527 123.729 154.782C120.873 156.427 117.078 156.107 113.016 153.79C108.954 151.473 108.523 149.393 111.339 147.776Z" fill="#F9C035"/>
<path d="M112.527 155.399L110.498 154.24L132.921 141.36L134.952 142.518L112.527 155.399Z" fill="#F9C035"/>
<path d="M211.456 155.006C211.456 155.324 211.432 155.642 211.385 155.957C210.56 161.503 202.582 165.861 192.861 165.861C183.14 165.861 175.163 161.506 174.338 155.957C174.29 155.642 174.266 155.324 174.266 155.006C174.266 149.011 182.591 144.15 192.861 144.15C203.131 144.15 211.456 149.011 211.456 155.006Z" fill="#F8BF30"/>
<path fill-rule="evenodd" clip-rule="evenodd" d="M180.245 163.026C183.692 164.88 188.173 165.901 192.861 165.901C197.551 165.901 202.043 164.867 205.475 163.02C208.906 161.172 211.018 158.665 211.421 155.956C211.469 155.642 211.493 155.324 211.493 155.006C211.493 148.998 203.136 144.117 192.861 144.117C182.586 144.117 174.227 149.004 174.227 155.012C174.226 155.33 174.251 155.648 174.3 155.963C174.701 158.671 176.797 161.172 180.245 163.026ZM174.298 155.006C174.298 149.042 182.631 144.19 192.861 144.19C203.093 144.19 211.416 149.042 211.409 155.007C211.409 155.325 211.385 155.643 211.339 155.958C210.939 158.639 208.841 161.127 205.432 162.963C201.997 164.81 197.529 165.828 192.853 165.828C188.178 165.828 183.71 164.81 180.275 162.963C176.865 161.127 174.768 158.639 174.369 155.956C174.321 155.642 174.298 155.324 174.298 155.006Z" fill="#D6A11C"/>
<path d="M205.87 148.508C205.871 148.525 205.871 148.541 205.87 148.557C205.827 148.841 205.419 149.063 204.918 149.063C204.416 149.063 204.013 148.841 203.966 148.557C203.964 148.541 203.964 148.525 203.966 148.508C203.966 148.202 204.391 147.954 204.918 147.954C205.444 147.954 205.87 148.202 205.87 148.508Z" fill="#D6A11C"/>
<path d="M182.229 161.662C182.23 161.678 182.23 161.694 182.229 161.711C182.187 161.994 181.779 162.216 181.277 162.216C180.776 162.216 180.373 161.994 180.326 161.711C180.324 161.694 180.324 161.678 180.326 161.662C180.326 161.356 180.751 161.107 181.277 161.107C181.804 161.107 182.229 161.356 182.229 161.662Z" fill="#D6A11C"/>
<ellipse cx="192.861" cy="155.006" rx="15.5803" ry="7.8444" fill="#B27C15"/>
<path d="M211.456 156.907C211.456 162.902 203.131 167.763 192.861 167.763C182.591 167.763 174.266 162.902 174.266 156.907C174.266 156.589 174.29 156.271 174.338 155.957C175.163 161.503 183.14 165.861 192.861 165.861C202.582 165.861 210.56 161.506 211.385 155.957C211.432 156.271 211.456 156.589 211.456 156.907Z" fill="#D6A11C"/>
<path d="M185.53 155.483L186.301 154.191C186.478 154.207 186.65 154.223 186.821 154.235C188.068 154.329 189.164 154.193 190.066 153.744C190.275 153.64 190.332 153.559 190.055 153.418C189.637 153.204 189.261 152.968 188.836 152.73L190.22 151.938L191.316 152.562C191.346 152.54 191.374 152.516 191.4 152.489C192.396 150.923 195.616 150.564 198.064 151.751C198.451 151.93 198.823 152.142 199.174 152.385C200.32 153.205 200.31 154.445 199.157 155.158L196.763 154.096L196.874 153.914C197.078 153.562 196.817 153.136 196.239 152.887C195.688 152.648 195.003 152.617 194.526 152.887C194.181 153.098 193.862 153.348 193.574 153.632C193.531 153.67 193.615 153.79 193.7 153.842C194.313 154.204 194.941 154.557 195.585 154.925L194.173 155.735L192.404 154.727C191.708 155.172 190.818 155.383 189.774 155.495C190.554 156.59 192.062 157.299 193.672 157.979L192.961 159.246C192.355 159.004 191.768 158.787 191.216 158.544C189.804 157.925 188.611 157.199 187.749 156.304C187.256 155.809 186.724 155.63 185.53 155.483Z" fill="#F8BF30"/>
<path d="M189.669 98.0601L191.86 99.2708C192.207 99.462 192.427 99.8212 192.441 100.217C192.454 100.612 192.258 100.985 191.925 101.199L171.458 113.483C171.107 113.708 170.66 113.72 170.297 113.514L151.438 102.897C151.097 102.704 150.881 102.347 150.869 101.955C150.856 101.564 151.048 101.194 151.377 100.979L153.658 99.4879" fill="#C2BEB5"/>
<path d="M152.998 38.2112L171.72 27.5935L189.014 37.5773L171.561 49.9382L167.277 49.4627L152.998 38.2112Z" fill="#EBE7D8"/>
<path d="M169.975 48.3535L189.014 37.5774V98.114L169.975 109.366L169.023 107.305V48.829L169.975 48.3535Z" fill="#D0CBBF"/>
<path d="M152.998 38.2112V99.5401L169.975 109.365V48.3534L152.998 38.2112Z" fill="#E3DDD1"/>
<path d="M214.375 112.213L216.566 113.424C216.913 113.615 217.134 113.975 217.147 114.37C217.161 114.765 216.965 115.139 216.632 115.353L196.164 127.636C195.813 127.861 195.367 127.874 195.003 127.669L176.145 117.052C175.804 116.858 175.588 116.502 175.575 116.11C175.562 115.719 175.755 115.349 176.083 115.134L178.364 113.643" fill="#C2BEB5"/>
<path d="M178.225 22.5225L196.947 11.9048L214.241 21.8886L196.788 34.2494L192.504 33.774L178.225 22.5225Z" fill="#EBE7D8"/>
<path d="M195.201 32.6648L214.241 21.8887V113.011L195.201 124.262L194.249 122.202V33.1402L195.201 32.6648Z" fill="#D0CBBF"/>
<path d="M178.225 22.5225V114.437L195.201 124.262V32.6647L178.225 22.5225Z" fill="#E3DDD1"/>
<path d="M239.459 127.365L241.652 128.576C241.999 128.767 242.219 129.127 242.232 129.522C242.245 129.917 242.049 130.291 241.716 130.504L221.249 142.788C220.897 143.013 220.451 143.025 220.087 142.821L201.229 132.203C200.888 132.01 200.672 131.653 200.659 131.262C200.646 130.87 200.839 130.5 201.167 130.286L203.449 128.794" fill="#C2BEB5"/>
<path d="M203.134 43.5994L221.856 32.9817L239.15 42.9655L221.698 55.3263L217.414 54.8509L203.134 43.5994Z" fill="#EBE7D8"/>
<path d="M220.111 53.7417L239.15 42.9656V127.748L220.111 139L219.159 136.94V54.2171L220.111 53.7417Z" fill="#D0CBBF"/>
<path d="M203.134 43.5994V129.175L220.111 139V53.7416L203.134 43.5994Z" fill="#E3DDD1"/>
<path d="M266.122 142.645L268.315 143.856C268.661 144.047 268.882 144.406 268.895 144.802C268.908 145.197 268.712 145.57 268.378 145.784L247.911 158.067C247.56 158.292 247.113 158.305 246.75 158.101L227.893 147.483C227.552 147.29 227.335 146.934 227.323 146.542C227.31 146.15 227.502 145.78 227.83 145.565L230.111 144.074" fill="#C2BEB5"/>
<path d="M230.106 19.8284L248.828 9.21069L266.122 19.1945L248.67 31.5554L244.386 31.0799L230.106 19.8284Z" fill="#EBE7D8"/>
<path d="M247.083 29.9707L266.122 19.1946V142.645L247.083 153.896L246.131 151.836V30.4461L247.083 29.9707Z" fill="#D0CBBF"/>
<path d="M230.106 19.8284V144.071L247.083 153.896V29.9706L230.106 19.8284Z" fill="#E3DDD1"/>
<path d="M33.7481 204.07L33.5371 203.964V203.489H33.6958C33.6963 203.632 33.7069 203.775 33.7275 203.917L33.7481 204.07Z" fill="#000DA2"/>
<path d="M120.632 179.648C120.5 179.648 120.374 179.602 120.273 179.518C116.66 176.469 112.975 175.119 109.633 175.612C107.111 175.983 105.626 177.276 105.611 177.288C105.382 177.481 105.04 177.457 104.84 177.234C104.64 177.011 104.653 176.67 104.87 176.463C104.939 176.401 106.573 174.96 109.402 174.525C111.977 174.127 116.076 174.525 120.984 178.67C121.161 178.821 121.226 179.066 121.146 179.284C121.066 179.503 120.858 179.648 120.625 179.648H120.632Z" fill="#272727"/>
<ellipse cx="120.909" cy="179.371" rx="1.4676" ry="1.46587" fill="#272727"/>
<ellipse cx="104.726" cy="177.311" rx="1.4676" ry="1.46587" fill="#272727"/>
<path d="M93.6515 208.55C92.1182 208.549 90.5919 208.345 89.1123 207.943C85.1093 206.858 82.6072 204.739 82.5089 204.65C82.2815 204.45 82.2577 204.104 82.4554 203.873C82.6532 203.643 82.9992 203.615 83.2324 203.809C85.0764 205.24 87.1899 206.286 89.447 206.885C94.475 208.232 99.4124 207.202 104.125 203.836C104.286 203.72 104.497 203.7 104.677 203.781C104.858 203.863 104.982 204.035 105.001 204.232C105.021 204.429 104.933 204.622 104.772 204.738C100.706 207.652 96.8596 208.55 93.6515 208.55Z" fill="#272727"/>
<ellipse cx="105.361" cy="203.934" rx="1.4676" ry="1.46587" fill="#272727"/>
<ellipse cx="82.8309" cy="203.934" rx="1.4676" ry="1.46587" fill="#272727"/>
<path opacity="0.4" d="M102.76 184.423L64.6153 206.305C63.2416 207.101 61.5464 207.101 60.1728 206.305L39.9628 194.763C40.0485 194.695 40.1392 194.634 40.2341 194.58L61.1771 182.479L99.1522 180.025L102.825 182.615C103.125 182.824 103.298 183.171 103.285 183.537C103.272 183.902 103.074 184.236 102.76 184.423Z" fill="#272727"/>
<path d="M101.529 182.64L99.8535 183.61L64.0378 204.395C63.1001 204.94 61.9432 204.945 61.001 204.408L30.9874 187.315C30.1529 186.84 30.0355 183.575 30.8685 183.082L66.2733 164.224L68.1772 163.093C69.1236 162.53 70.3007 162.521 71.2552 163.07L101.535 178.896C102.368 179.376 102.365 182.155 101.529 182.64Z" fill="#E3DDD1"/>
<path d="M101.529 180.609L99.8535 181.58L64.0377 202.37C63.0998 202.914 61.9429 202.918 61.001 202.381L30.9874 185.287C30.6001 185.065 30.3595 184.655 30.3553 184.209C30.351 183.764 30.5838 183.349 30.9668 183.12L66.2732 162.191L68.1772 161.061C69.1235 160.498 70.3002 160.489 71.2551 161.037L101.526 178.441C101.913 178.664 102.151 179.077 102.152 179.524C102.153 179.97 101.915 180.384 101.529 180.609Z" fill="#F8F2E4"/>
<path d="M101.529 180.609L99.8535 181.58L66.2733 162.191L68.1772 161.061C69.1235 160.498 70.3002 160.489 71.2552 161.037L101.526 178.441C101.913 178.664 102.151 179.077 102.152 179.524C102.153 179.97 101.915 180.384 101.529 180.609Z" fill="#D9D5CA"/>
<path d="M60.3351 169.658C61.8234 169.208 63.4369 169.56 64.9029 170.081C66.3689 170.603 67.7889 171.299 69.3232 171.557C70.2862 171.715 69.9118 171.252 70.6734 171.87C71.208 172.3 73.2405 173.009 73.8196 173.366C75.0492 174.122 76.3899 173.552 77.7861 173.904C78.6809 174.129 80.9744 175.476 81.82 175.845C82.9005 176.32 84.5151 175.397 88.0517 176.992C91.5882 178.587 92.5065 180.025 90.3329 182.558C89.1332 183.955 83.6914 186.825 81.0124 188.089C80.3949 188.38 72.0331 182.967 68.6298 180.837C65.5376 178.902 62.2914 177.514 59.2039 175.58C58.1329 174.91 54.8952 172.887 54.6329 172.349C54.2884 171.642 59.1864 169.658 60.3351 169.658Z" fill="#272727" stroke="#F8F2E4" stroke-width="3.25333"/>
<path d="M62.54 183.234C62.4405 183.235 62.3427 183.209 62.256 183.16C60.7012 182.293 59.0495 181.366 57.4471 180.388C57.1809 180.215 57.101 179.862 57.2668 179.591C57.4325 179.32 57.7839 179.23 58.0595 179.388C59.6461 180.355 61.2819 181.276 62.8272 182.136C63.0606 182.266 63.1764 182.538 63.1089 182.796C63.0413 183.055 62.8074 183.235 62.54 183.234Z" fill="#D9D5CA"/>
<path d="M55.1465 178.973C55.0433 178.973 54.942 178.946 54.8529 178.894C54.2643 178.553 53.6678 178.214 53.0918 177.888C52.124 177.338 51.1229 176.769 50.1392 176.179C49.9485 176.077 49.8295 175.878 49.8296 175.662C49.8297 175.446 49.9488 175.248 50.1397 175.146C50.3305 175.044 50.562 175.055 50.7421 175.175C51.7147 175.758 52.7095 176.322 53.6709 176.869C54.25 177.197 54.8482 177.537 55.44 177.88C55.6694 178.013 55.781 178.283 55.7123 178.539C55.6436 178.794 55.4117 178.973 55.1465 178.973Z" fill="#D9D5CA"/>
<path d="M50.9293 190.716C50.8298 190.716 50.732 190.69 50.6453 190.642C49.0904 189.776 47.4388 188.848 45.8379 187.87C45.5783 187.694 45.5025 187.346 45.6658 187.079C45.8291 186.812 46.1738 186.72 46.4488 186.87C48.0354 187.837 49.6727 188.759 51.2165 189.619C51.4509 189.749 51.5676 190.02 51.4998 190.279C51.4321 190.538 51.1971 190.718 50.9293 190.716Z" fill="#D9D5CA"/>
<path d="M43.5279 186.455C43.4247 186.455 43.3234 186.427 43.2344 186.375C42.6457 186.035 42.0492 185.697 41.4732 185.369C40.5054 184.819 39.5059 184.25 38.5206 183.661C38.3299 183.559 38.2109 183.36 38.211 183.144C38.2111 182.928 38.3303 182.729 38.5211 182.627C38.7119 182.525 38.9434 182.536 39.1235 182.656C40.0977 183.239 41.0909 183.803 42.0523 184.35C42.6314 184.68 43.2296 185.019 43.823 185.361C44.0526 185.494 44.1642 185.765 44.0951 186.021C44.026 186.277 43.7934 186.455 43.5279 186.455Z" fill="#D9D5CA"/>
<path d="M56.6077 184.444C56.5032 184.443 56.4007 184.415 56.311 184.361C54.7562 183.444 53.1378 182.523 51.5639 181.632C49.8298 180.647 48.0338 179.628 46.3091 178.601C46.1292 178.494 46.02 178.299 46.0228 178.09C46.0256 177.881 46.1399 177.689 46.3227 177.587C46.5054 177.484 46.7289 177.487 46.9089 177.594C48.624 178.615 50.4137 179.631 52.1446 180.605C53.7169 181.499 55.3448 182.423 56.9044 183.345C57.1315 183.48 57.2404 183.75 57.1704 184.005C57.1004 184.259 56.8688 184.436 56.6045 184.436L56.6077 184.444Z" fill="#D9D5CA"/>
<path d="M60.6361 191.481C60.5342 191.481 60.4341 191.454 60.3457 191.404C58.7591 190.497 56.668 189.295 54.5515 188.039C54.2801 187.871 54.1935 187.516 54.3568 187.242C54.5201 186.968 54.8732 186.874 55.1512 187.032C57.2598 188.284 59.3462 189.482 60.928 190.386C61.1588 190.519 61.2718 190.789 61.2033 191.046C61.1349 191.303 60.9021 191.481 60.6361 191.481Z" fill="#D9D5CA"/>
<path d="M52.1748 186.581C52.0698 186.581 51.9668 186.552 51.8765 186.499C50.3233 185.581 48.7034 184.661 47.131 183.77C45.3953 182.784 43.6009 181.765 41.8747 180.738C41.5965 180.573 41.5052 180.214 41.6708 179.936C41.8364 179.658 42.1962 179.567 42.4744 179.732C44.1911 180.753 45.9808 181.769 47.7101 182.743C49.2825 183.637 50.9087 184.561 52.4699 185.483C52.6968 185.618 52.8057 185.887 52.7361 186.142C52.6665 186.396 52.4356 186.573 52.1716 186.573L52.1748 186.581Z" fill="#D9D5CA"/>
<path d="M61.6135 175.438L59.5239 174.26L63.6697 171.87L65.7243 173.048L61.6135 175.438Z" fill="#FDF8EB"/>
<path d="M66.4716 178.434L64.382 177.257L70.3397 173.878L72.3959 175.056L66.4716 178.434Z" fill="#FDF8EB"/>
<path d="M72.4705 181.716L70.3826 180.539L77.8253 176.008L79.8799 177.186L72.4705 181.716Z" fill="#FDF8EB"/>
<path d="M78.6154 185.283L76.5258 184.106L85.617 178.586L87.6716 179.764L78.6154 185.283Z" fill="#FDF8EB"/>
<path d="M81.7362 187.737C81.6387 187.737 81.5429 187.711 81.4586 187.662L56.3555 173.211C56.1835 173.112 56.0773 172.929 56.0769 172.731C56.0765 172.533 56.1821 172.35 56.3538 172.25C56.5254 172.151 56.7372 172.15 56.9092 172.249L82.0139 186.696C82.2314 186.821 82.3373 187.077 82.2723 187.319C82.2073 187.562 81.9874 187.73 81.7362 187.73V187.737Z" fill="#121212"/>
<ellipse cx="69.9891" cy="162.224" rx="0.883732" ry="0.611705" fill="white"/>
<ellipse cx="71.7597" cy="163.177" rx="0.883732" ry="0.611705" fill="white"/>
<ellipse cx="73.5303" cy="164.129" rx="0.883732" ry="0.611705" fill="white"/>
<path d="M122.724 38.1827V93.0745C122.725 94.6646 121.879 96.135 120.503 96.9349L40.1151 143.526C38.7324 144.327 37.027 144.329 35.6421 143.532C34.2572 142.735 33.4038 141.26 33.4038 139.664V84.4662C33.4041 82.8706 34.2569 81.3965 35.6409 80.5995L116.024 34.316C117.407 33.5194 119.11 33.52 120.492 34.3176C121.874 35.1152 122.725 36.5885 122.724 38.1827Z" fill="#D9D5CA"/>
<path fill-rule="evenodd" clip-rule="evenodd" d="M33.0008 139.659C33.006 142.343 35.1813 144.519 37.8685 144.528C38.7258 144.527 39.5677 144.299 40.3086 143.868L120.697 97.2773C122.194 96.4055 123.116 94.8058 123.119 93.0746V38.1828C123.121 36.4459 122.194 34.8405 120.688 33.9717C119.182 33.103 117.327 33.1032 115.821 33.9722L35.4362 80.2557C33.9314 81.1258 33.0037 82.7297 33.0008 84.4664V139.659ZM116.222 34.6584C116.84 34.3002 117.541 34.1106 118.255 34.1085C120.503 34.1175 122.322 35.9377 122.326 38.1828V93.0746C122.321 94.5218 121.55 95.8584 120.298 96.5879L39.9104 143.179C38.6502 143.908 37.0963 143.91 35.8345 143.184C34.5727 142.457 33.7948 141.114 33.7941 139.659V84.4664C33.7985 83.0132 34.5755 81.6718 35.8344 80.9435L116.222 34.6584ZM118.255 34.1085C118.256 34.1085 118.256 34.1085 118.256 34.1085H118.255C118.255 34.1085 118.255 34.1085 118.255 34.1085Z" fill="white"/>
<path d="M185.69 136.07C185.69 136.388 185.666 136.706 185.618 137.021C184.793 142.567 176.818 146.924 167.097 146.924C157.375 146.924 149.4 142.569 148.575 137.021C148.527 136.706 148.503 136.388 148.503 136.07C148.503 130.075 156.828 125.214 167.097 125.214C177.365 125.214 185.69 130.075 185.69 136.07Z" fill="#C2BEB5"/>
<path d="M184.968 132.065C184.968 132.371 184.946 132.676 184.9 132.978C184.106 138.312 176.44 142.497 167.096 142.497C157.753 142.497 150.091 138.312 149.298 132.978C149.252 132.676 149.228 132.371 149.228 132.065C149.228 126.303 157.229 121.631 167.1 121.631C176.97 121.631 184.968 126.303 184.968 132.065Z" fill="#F8BF30"/>
<path d="M179.602 125.828C179.602 125.843 179.602 125.859 179.602 125.875C179.561 126.148 179.169 126.362 178.693 126.362C178.217 126.362 177.823 126.148 177.782 125.875C177.782 125.859 177.782 125.843 177.782 125.828C177.782 125.533 178.192 125.295 178.696 125.295C179.201 125.295 179.602 125.525 179.602 125.828Z" fill="#D6A11C"/>
<path d="M156.879 138.461C156.879 138.477 156.879 138.493 156.879 138.509C156.838 138.781 156.446 138.995 155.968 138.995C155.491 138.995 155.099 138.781 155.059 138.509C155.057 138.493 155.057 138.477 155.059 138.461C155.059 138.166 155.467 137.929 155.971 137.929C156.476 137.929 156.879 138.166 156.879 138.461Z" fill="#D6A11C"/>
<ellipse cx="167.097" cy="132.065" rx="14.9743" ry="7.53855" fill="#D6A11C"/>
<path d="M184.968 133.892C184.968 139.654 176.967 144.325 167.096 144.325C157.226 144.325 149.225 139.654 149.225 133.892C149.225 133.586 149.249 133.281 149.295 132.978C150.088 138.312 157.755 142.497 167.096 142.497C176.438 142.497 184.106 138.312 184.9 132.978C184.945 133.281 184.968 133.586 184.968 133.892Z" fill="#D6A11C"/>
<path d="M160.595 131.287L161.239 130.916L163.75 132.343L162.976 132.788C162.17 133.251 162.411 133.72 163.255 134.202C164.099 134.683 164.923 134.821 165.761 134.339C166.697 133.802 166.762 133.156 166.04 131.58C165.124 129.563 165.32 128.622 166.609 127.88C168.383 126.861 170.792 127.053 173.376 128.528C175.961 130.004 176.207 131.324 174.401 132.362L173.925 132.631L171.414 131.205L171.994 130.87C172.8 130.408 172.629 129.956 171.779 129.474C170.928 128.993 170.144 128.893 169.37 129.336C168.548 129.812 168.507 130.469 169.229 132.045C170.144 134.062 169.941 134.98 168.539 135.786C166.7 136.842 164.268 136.636 161.659 135.152C159.051 133.669 158.788 132.325 160.595 131.287Z" fill="#F8BF30"/>
<path d="M161.358 136.182L160.054 135.437L174.454 127.167L175.758 127.91L161.358 136.182Z" fill="#F8BF30"/>
<path d="M184.968 128.579C184.968 128.884 184.946 129.19 184.9 129.492C184.106 134.826 176.44 139.011 167.096 139.011C157.753 139.011 150.091 134.826 149.298 129.492C149.252 129.19 149.228 128.884 149.228 128.579C149.228 122.817 157.229 118.145 167.1 118.145C176.97 118.145 184.968 122.817 184.968 128.579Z" fill="#F8BF30"/>
<path d="M179.602 122.341C179.602 122.357 179.602 122.373 179.602 122.389C179.561 122.661 179.169 122.875 178.693 122.875C178.217 122.875 177.823 122.661 177.782 122.389C177.782 122.373 177.782 122.357 177.782 122.341C177.782 122.047 178.192 121.809 178.696 121.809C179.201 121.809 179.602 122.039 179.602 122.341Z" fill="#D6A11C"/>
<path d="M156.879 134.975C156.879 134.991 156.879 135.007 156.879 135.022C156.838 135.295 156.446 135.509 155.968 135.509C155.491 135.509 155.099 135.295 155.059 135.022C155.057 135.007 155.057 134.991 155.059 134.975C155.059 134.68 155.467 134.442 155.971 134.442C156.476 134.442 156.879 134.68 156.879 134.975Z" fill="#D6A11C"/>
<ellipse cx="167.097" cy="128.579" rx="14.9743" ry="7.53855" fill="#D6A11C"/>
<path d="M184.968 130.406C184.968 136.168 176.967 140.838 167.096 140.838C157.226 140.838 149.225 136.168 149.225 130.406C149.225 130.1 149.249 129.794 149.295 129.492C150.088 134.826 157.755 139.011 167.096 139.011C176.438 139.011 184.106 134.826 184.9 129.492C184.945 129.794 184.968 130.1 184.968 130.406Z" fill="#D6A11C"/>
<path d="M160.595 127.801L161.239 127.43L163.75 128.856L162.976 129.301C162.17 129.764 162.411 130.233 163.255 130.715C164.099 131.197 164.923 131.335 165.761 130.853C166.697 130.316 166.762 129.669 166.04 128.094C165.124 126.076 165.32 125.135 166.609 124.393C168.383 123.375 170.792 123.566 173.376 125.042C175.961 126.517 176.207 127.837 174.401 128.875L173.925 129.144L171.414 127.718L171.994 127.384C172.8 126.921 172.629 126.469 171.779 125.988C170.928 125.506 170.144 125.406 169.37 125.85C168.548 126.325 168.507 126.983 169.229 128.558C170.144 130.576 169.941 131.493 168.539 132.3C166.7 133.355 164.268 133.149 161.659 131.666C159.051 130.182 158.788 128.839 160.595 127.801Z" fill="#F8BF30"/>
<path d="M161.358 132.696L160.054 131.951L174.454 123.68L175.758 124.424L161.358 132.696Z" fill="#F8BF30"/>
<path d="M184.968 125.726C184.968 126.032 184.946 126.337 184.9 126.639C184.106 131.973 176.44 136.159 167.096 136.159C157.753 136.159 150.091 131.973 149.298 126.639C149.252 126.337 149.228 126.032 149.228 125.726C149.228 119.964 157.229 115.292 167.1 115.292C176.97 115.292 184.968 119.964 184.968 125.726Z" fill="#F8BF30"/>
<path fill-rule="evenodd" clip-rule="evenodd" d="M154.97 133.435C158.283 135.217 162.591 136.198 167.096 136.198C171.604 136.198 175.935 135.209 179.231 133.435C182.526 131.66 184.555 129.248 184.942 126.646C184.988 126.341 185.011 126.034 185.011 125.726C185.011 119.952 176.975 115.253 167.1 115.253C157.225 115.253 149.189 119.952 149.189 125.726C149.189 126.034 149.212 126.341 149.258 126.646C149.642 129.248 151.657 131.652 154.97 133.435ZM149.265 125.726C149.265 119.994 157.26 115.332 167.096 115.332C176.929 115.332 184.928 119.994 184.928 125.726C184.929 126.03 184.906 126.334 184.86 126.634C184.478 129.211 182.463 131.601 179.186 133.365C175.885 135.141 171.59 136.119 167.096 136.119C162.603 136.119 158.31 135.141 155.008 133.365C151.732 131.601 149.717 129.211 149.333 126.633C149.288 126.333 149.265 126.03 149.265 125.726Z" fill="#D6A11C"/>
<path d="M179.602 119.489C179.602 119.505 179.602 119.52 179.602 119.536C179.561 119.809 179.169 120.023 178.693 120.023C178.217 120.023 177.823 119.809 177.782 119.536C177.782 119.52 177.782 119.505 177.782 119.489C177.782 119.194 178.192 118.956 178.696 118.956C179.201 118.956 179.602 119.186 179.602 119.489Z" fill="#D6A11C"/>
<path d="M156.879 132.122C156.879 132.138 156.879 132.154 156.879 132.17C156.838 132.442 156.446 132.656 155.968 132.656C155.491 132.656 155.099 132.442 155.059 132.17C155.057 132.154 155.057 132.138 155.059 132.122C155.059 131.828 155.467 131.59 155.971 131.59C156.476 131.59 156.879 131.828 156.879 132.122Z" fill="#D6A11C"/>
<ellipse cx="167.097" cy="125.726" rx="14.9743" ry="7.53855" fill="#B27C15"/>
<path d="M184.968 127.554C184.968 133.316 176.967 137.986 167.096 137.986C157.226 137.986 149.225 133.316 149.225 127.554C149.225 127.247 149.249 126.942 149.295 126.639C150.088 131.973 157.755 136.159 167.096 136.159C176.438 136.159 184.106 131.973 184.9 126.639C184.945 126.942 184.968 127.247 184.968 127.554Z" fill="#D6A11C"/>
<path d="M160.595 124.948L161.239 124.577L163.75 126.004L162.976 126.449C162.17 126.912 162.411 127.381 163.255 127.862C164.099 128.344 164.923 128.482 165.761 128C166.697 127.463 166.762 126.817 166.04 125.241C165.124 123.224 165.32 122.283 166.609 121.541C168.383 120.522 170.792 120.714 173.376 122.189C175.961 123.664 176.207 124.985 174.401 126.023L173.925 126.292L171.414 124.866L171.994 124.531C172.8 124.069 172.629 123.617 171.779 123.135C170.928 122.653 170.144 122.554 169.37 122.997C168.548 123.473 168.507 124.13 169.229 125.706C170.144 127.723 169.941 128.641 168.539 129.447C166.7 130.503 164.268 130.297 161.659 128.813C159.051 127.33 158.788 125.986 160.595 124.948Z" fill="#F8BF30"/>
<path d="M161.358 129.843L160.054 129.099L174.454 120.828L175.758 121.571L161.358 129.843Z" fill="#F8BF30"/>
<path d="M4.53733 121.758L0.14247 130.377C-0.0894326 130.835 -0.034979 131.385 0.282091 131.788L4.27872 136.859C4.55142 137.206 4.97992 137.393 5.41994 137.357C5.85996 137.322 6.25297 137.069 6.46663 136.683L10.9726 128.55C11.2253 128.098 11.1886 127.539 10.8789 127.124L6.77126 121.574C6.50032 121.207 6.05817 121.006 5.60294 121.044C5.14772 121.081 4.74444 121.351 4.53733 121.758Z" fill="#D9D5CA"/>
<path d="M29.3247 57.7716L24.9298 66.3909C24.6968 66.8483 24.7507 67.3992 25.0679 67.8029L29.0645 72.874C29.3368 73.2223 29.766 73.4108 30.207 73.3757C30.648 73.3406 31.0419 73.0867 31.2556 72.6997L35.7615 64.5669C36.0104 64.1166 35.9745 63.5629 35.6695 63.1485L31.5618 57.5877C31.2911 57.2189 30.8481 57.017 30.3918 57.0545C29.9355 57.092 29.5314 57.3635 29.3247 57.7716Z" fill="#D9D5CA"/>
<path d="M280.962 4.46143L285.356 13.0808C285.59 13.5376 285.536 14.0881 285.218 14.4912L281.22 19.5623C280.947 19.909 280.519 20.0962 280.079 20.0609C279.639 20.0255 279.246 19.7722 279.032 19.3864L274.528 11.252C274.275 10.7999 274.311 10.2416 274.62 9.82573L278.728 4.27919C278.998 3.91175 279.44 3.71065 279.896 3.74778C280.351 3.78492 280.754 4.05499 280.962 4.46143Z" fill="#D9D5CA"/>
<path d="M281.964 58.8238L285.269 65.2911C285.443 65.6343 285.403 66.0472 285.164 66.3497L282.164 70.153C281.959 70.4133 281.637 70.5538 281.307 70.5273C280.977 70.5009 280.681 70.311 280.52 70.0215L277.138 63.914C276.95 63.5765 276.978 63.1607 277.208 62.8506L280.292 58.6749C280.497 58.4022 280.829 58.2548 281.17 58.2852C281.51 58.3155 281.81 58.5192 281.964 58.8238Z" fill="#D9D5CA"/>
<path d="M289.286 104.665L291.914 109.822C292.052 110.095 292.019 110.424 291.831 110.665L289.442 113.698C289.277 113.902 289.022 114.012 288.76 113.991C288.498 113.969 288.264 113.82 288.134 113.592L285.437 108.732C285.29 108.462 285.311 108.132 285.493 107.884L287.947 104.556C288.111 104.338 288.375 104.219 288.647 104.241C288.919 104.263 289.161 104.423 289.286 104.665Z" fill="#D9D5CA"/>
<path d="M212.143 0.429812L214.77 5.58176C214.908 5.85512 214.876 6.18331 214.688 6.42484L212.299 9.458C212.134 9.66214 211.878 9.7716 211.617 9.75035C211.355 9.72909 211.121 9.57988 210.991 9.35183L208.294 4.49147C208.146 4.222 208.168 3.89161 208.35 3.64364L210.804 0.315712C210.968 0.0978696 211.233 -0.0203055 211.505 0.00287419C211.777 0.0260538 212.018 0.187331 212.143 0.429812Z" fill="#D9D5CA"/>
<path d="M138.227 20.8616L135.304 26.5936C135.15 26.8976 135.186 27.2634 135.396 27.5317L138.055 30.9024C138.237 31.1329 138.522 31.2573 138.814 31.2337C139.107 31.2101 139.368 31.0417 139.51 30.7852L142.506 25.3765C142.676 25.0753 142.652 24.7023 142.444 24.4257L139.713 20.7285C139.532 20.4846 139.236 20.3526 138.933 20.3797C138.63 20.4069 138.362 20.5893 138.227 20.8616Z" fill="#D9D5CA"/>
<path d="M40.9036 157.712L37.9811 163.444C37.8261 163.748 37.862 164.114 38.0731 164.383L40.7307 167.756C40.9121 167.987 41.1971 168.111 41.4897 168.088C41.7822 168.064 42.0435 167.896 42.1856 167.639L45.1827 162.23C45.3514 161.929 45.3272 161.557 45.1208 161.28L42.3887 157.582C42.2072 157.339 41.9125 157.207 41.6099 157.234C41.3072 157.26 41.04 157.441 40.9036 157.712Z" fill="#D9D5CA"/>
<path d="M82.2757 18.036L79.2992 23.8742C79.1428 24.1823 79.1793 24.5531 79.3928 24.825L82.0996 28.2607C82.2841 28.4957 82.5744 28.6226 82.8725 28.5987C83.1705 28.5748 83.4368 28.4032 83.5814 28.1418L86.6277 22.6381C86.7969 22.3334 86.7727 21.9582 86.5658 21.6777L83.7877 17.9077C83.6036 17.6595 83.3039 17.5244 82.9958 17.5506C82.6878 17.5767 82.4152 17.7604 82.2757 18.036Z" fill="#D9D5CA"/>
<path d="M134.99 43.1635V98.0553C134.991 99.6454 134.145 101.116 132.769 101.916L52.381 148.507C50.9984 149.307 49.2929 149.31 47.908 148.513C46.5232 147.716 45.6697 146.241 45.6697 144.645V89.4487C45.67 87.853 46.5229 86.3789 47.9068 85.5819L128.29 39.3016C129.672 38.5054 131.374 38.5056 132.755 39.302C134.137 40.0984 134.989 41.5702 134.99 43.1635Z" fill="#272727" stroke="#272727" stroke-width="1.952"/>
<path d="M134.99 43.1635V43.65L45.665 95.1125V89.4487C45.6652 87.853 46.5181 86.3789 47.9021 85.5819L128.29 39.3016C129.672 38.5054 131.374 38.5056 132.755 39.302C134.137 40.0984 134.989 41.5702 134.99 43.1635Z" fill="#121212"/>
<ellipse cx="51.4348" cy="87.9871" rx="1.777" ry="1.41483" transform="rotate(-60 51.4348 87.9871)" fill="#F8BF30"/>
<ellipse cx="55.7712" cy="85.2388" rx="1.777" ry="1.41483" transform="rotate(-60 55.7712 85.2388)" fill="#F8BF30"/>
<ellipse cx="59.8957" cy="82.8433" rx="1.777" ry="1.41483" transform="rotate(-60 59.8957 82.8433)" fill="#F8BF30"/>
<path d="M54.6277 103.291V100.505C54.6277 99.705 55.045 98.9919 55.8303 98.5386C56.6157 98.0854 57.033 98.3199 57.0314 99.1202V99.6685L56.2603 100.114V99.5212C56.2603 99.1804 56.1016 99.1329 55.8525 99.2739C55.5921 99.4176 55.4341 99.6948 55.4432 99.9918V102.887C55.4432 103.228 55.6019 103.267 55.8509 103.126C56.1111 102.987 56.2693 102.713 56.2587 102.418V101.626L57.0298 101.18V101.914C57.0298 102.714 56.6125 103.428 55.8256 103.881C55.0386 104.334 54.6277 104.09 54.6277 103.291Z" fill="white"/>
<path d="M57.593 97.5959L58.4101 97.1205V99.2313L59.2907 98.729V96.6229L60.1062 96.1475V101.333L59.2907 101.808V99.4738L58.4149 99.9777V102.312L57.5978 102.787L57.593 97.5959Z" fill="white"/>
<path fill-rule="evenodd" clip-rule="evenodd" d="M60.7916 95.759L62.0228 95.0506C62.8684 94.5625 63.2317 94.7464 63.2317 95.5466V95.7542C63.2505 96.2482 63.0585 96.7269 62.7034 97.0711V97.087C63.1413 96.9824 63.3111 97.2692 63.3111 97.8176V98.2629C63.3111 99.0632 62.8859 99.7351 62.0704 100.206L60.7852 100.944L60.7916 95.759ZM61.9244 97.2169C62.239 97.0625 62.4316 96.7362 62.4146 96.3865V96.0981C62.4146 95.7273 62.2893 95.637 62.0005 95.8034L61.6071 96.0347V97.4055L61.9244 97.2169ZM62.494 98.7098C62.5192 99.0242 62.3519 99.3228 62.0704 99.4657L61.6039 99.7287V98.1361L61.9688 97.9269C62.3353 97.713 62.494 97.7779 62.494 98.2534V98.7098Z" fill="white"/>
<path d="M66.3669 97.1694C66.3669 96.4294 66.5763 95.8573 67.184 94.87C67.8091 93.851 67.9868 93.3566 67.9884 92.8748C67.99 92.3931 67.8297 92.3756 67.5648 92.5262C67.2897 92.6749 67.1248 92.9685 67.1411 93.2805V93.8352L66.3701 94.2805V93.7765C66.3701 92.9461 66.7873 92.233 67.5886 91.7719C68.3898 91.3107 68.8055 91.5452 68.8039 92.3756C68.8039 92.9905 68.55 93.683 67.7932 94.9191C67.303 95.7115 67.176 96.0522 67.176 96.4151V96.526L68.7261 95.6323V96.3739L66.3669 97.732V97.1694Z" fill="white"/>
<path d="M70.5698 91.3583L69.7162 91.8495V91.2806C70.4064 90.8828 70.6507 90.5928 70.8363 89.9827L71.3853 89.6658V94.851L70.5698 95.3264V91.3583Z" fill="white"/>
<path fill-rule="evenodd" clip-rule="evenodd" d="M72.4293 90.3313V93.0127C72.4293 93.8415 72.864 94.0776 73.6652 93.6165C74.4664 93.1553 74.9059 92.4295 74.9059 91.5991V90.6736C74.9075 89.9114 74.6029 89.6642 74.0016 90.0096C73.6559 90.2036 73.3921 90.516 73.259 90.8892H73.2448V89.8971C73.2448 89.3995 73.4082 89.165 73.6969 88.9986C73.9619 88.8496 74.1206 88.8956 74.1206 89.2664V89.4154L74.8932 88.97V88.8734C74.8932 88.0446 74.4791 87.81 73.6779 88.2712C72.8307 88.7466 72.4293 89.4566 72.4293 90.3313ZM74.0936 91.1966V92.1141C74.1091 92.4247 73.9433 92.7163 73.6684 92.8621C73.386 93.0238 73.2464 92.943 73.2464 92.6022V91.6831C73.2293 91.3709 73.3943 91.077 73.67 90.9288C73.9524 90.7655 74.0936 90.848 74.0936 91.1966Z" fill="white"/>
<path d="M75.4501 91.2885V90.8669L76.2228 90.4216V90.8812C76.2228 91.252 76.3815 91.298 76.6464 91.149C76.9114 91 77.0685 90.7798 77.0701 90.3202V89.8971C77.0701 89.4217 76.9114 89.3329 76.537 89.5468L76.2609 89.7053V88.9652L76.5576 88.7941C76.8721 88.6397 77.0648 88.3134 77.0478 87.9637V87.5865C77.0478 87.2157 76.8781 87.165 76.6401 87.3029C76.3849 87.4452 76.2324 87.7196 76.2466 88.0112V88.352L75.4755 88.7957V88.5215C75.4755 87.6911 75.8912 86.9938 76.6702 86.5438C77.4492 86.0937 77.8649 86.3092 77.8649 87.1381V87.3187C77.8822 87.8405 77.67 88.3436 77.2842 88.6958V88.7117C77.7221 88.6229 77.8856 88.9066 77.884 89.4327V89.8907C77.884 90.7211 77.4667 91.4121 76.6655 91.8732C75.8642 92.3344 75.4486 92.1189 75.4501 91.2885Z" fill="white"/>
<path d="M78.5519 89.9321L79.3452 89.4805V90.2728L78.5519 90.7261V89.9321Z" fill="white"/>
<path d="M80.0052 89.3171C80.0052 88.5771 80.2147 88.005 80.8239 87.0177C81.4475 86.0003 81.6267 85.5043 81.6267 85.0225C81.6267 84.5408 81.4681 84.5249 81.2047 84.6739C80.9288 84.8218 80.7636 85.1159 80.7811 85.4282V85.9845L80.01 86.4282V85.9242C80.01 85.0954 80.4273 84.3807 81.2285 83.9196C82.0297 83.4584 82.4454 83.6929 82.4438 84.5233C82.4438 85.1382 82.1916 85.8323 81.4332 87.0589C80.9429 87.8608 80.8176 88.192 80.816 88.5549V88.6658L82.3677 87.7736V88.5137L80.0084 89.8734L80.0052 89.3171Z" fill="white"/>
<path fill-rule="evenodd" clip-rule="evenodd" d="M82.9674 86.9685V86.509C82.9586 86.0011 83.1507 85.5102 83.5021 85.1429V85.1271C83.1594 85.1382 82.9975 84.9068 82.9975 84.3949V84.181C82.9975 83.3506 83.4513 82.6391 84.2462 82.1811C85.0411 81.7231 85.4917 81.9148 85.4917 82.7452V82.9608C85.497 83.4467 85.3159 83.9162 84.9855 84.2729V84.2872C85.3711 84.265 85.5186 84.5439 85.5186 85.0399V85.4995C85.5186 86.3283 85.0649 87.0414 84.2494 87.5153C83.4339 87.9891 82.9658 87.7942 82.9674 86.9685ZM84.7031 85.9242V85.4282C84.7031 85.0352 84.5445 84.9322 84.243 85.1112C83.9385 85.2821 83.7595 85.6126 83.7829 85.9607V86.4567C83.7829 86.8497 83.9416 86.9527 84.243 86.7736C84.5466 86.6019 84.7253 86.272 84.7031 85.9242ZM84.6762 83.1985V83.601C84.6917 83.9186 84.5249 84.2174 84.2462 84.3712C83.9654 84.5344 83.8162 84.4409 83.8162 84.1002V83.6929C83.8029 83.3771 83.9694 83.0808 84.2462 82.9275C84.5286 82.7643 84.6762 82.8562 84.6762 83.1985Z" fill="white"/>
<path d="M91.0923 82.2841V81.861L91.865 81.4172V81.8768C91.865 82.2461 92.0237 82.2936 92.2886 82.1431C92.5536 81.9925 92.7107 81.7738 92.7123 81.3142V80.8927C92.7123 80.4173 92.5536 80.327 92.1792 80.5409L91.9047 80.6994V79.9577L92.2014 79.7866C92.5157 79.6327 92.7084 79.307 92.6916 78.9577V78.579C92.6916 78.2082 92.5219 78.159 92.2839 78.2953C92.0295 78.4385 91.8773 78.7124 91.8904 79.0037V79.3444L91.1193 79.7881V79.514C91.1193 78.6852 91.535 77.9863 92.3156 77.5378C93.0962 77.0894 93.5087 77.3017 93.5087 78.1321V78.3175C93.5258 78.8392 93.3136 79.3423 92.928 79.6946V79.7121C93.3659 79.6233 93.5294 79.907 93.5278 80.4331V80.8927C93.5278 81.7231 93.1105 82.414 92.3093 82.8752C91.508 83.3364 91.0923 83.1129 91.0923 82.2841Z" fill="white"/>
<path d="M94.1719 80.4949V80.0876L94.9446 79.6439V80.1114C94.9446 80.4806 95.1033 80.5203 95.3682 80.3713C95.6426 80.225 95.8076 79.9336 95.7918 79.6233V78.4601C95.7918 78.0893 95.6332 78.0433 95.3698 78.1923C95.0939 78.341 94.9289 78.6356 94.9462 78.9482V78.9926L94.1751 79.4363L94.3338 76.4539L96.4852 75.2146V75.9563L95.0573 76.7771L94.989 78.0449H95.0033C95.1479 77.7147 95.3956 77.4401 95.7093 77.2621C96.3107 76.915 96.6137 77.1622 96.6137 77.9261V79.0956C96.6137 79.926 96.198 80.6391 95.3952 81.1003C94.5924 81.5614 94.1719 81.3253 94.1719 80.4949Z" fill="white"/>
<path d="M97.2357 79.1766L98.029 78.7234V79.5078L97.2357 79.9611V79.1766Z" fill="white"/>
<path d="M98.6858 77.8977V77.4936L99.4569 77.0499V77.5174C99.4569 77.8867 99.6155 77.9263 99.8789 77.7773C100.155 77.6328 100.321 77.3401 100.303 77.0293V75.8661C100.303 75.4953 100.144 75.4493 99.8805 75.5983C99.6046 75.747 99.4395 76.0416 99.4569 76.3542V76.3986L98.6842 76.8423L98.8429 73.8599L100.994 72.6206V73.3623L99.5663 74.1831L99.4981 75.4509L99.5124 75.443C99.657 75.1128 99.9047 74.8382 100.218 74.6601C100.818 74.3131 101.123 74.5603 101.123 75.3242V76.4937C101.123 77.3241 100.706 78.0372 99.9043 78.4984C99.1031 78.9595 98.6858 78.7281 98.6858 77.8977Z" fill="white"/>
<path d="M101.689 76.183V75.7614L102.462 75.3161V75.7757C102.462 76.1465 102.621 76.1925 102.886 76.0435C103.15 75.8945 103.308 75.6743 103.309 75.2147V74.7995C103.309 74.3241 103.15 74.2337 102.774 74.4477L102.5 74.6061V73.8661L102.797 73.6949C103.111 73.5405 103.304 73.2142 103.287 72.8645V72.4874C103.287 72.1165 103.117 72.0674 102.879 72.2037C102.632 72.3458 102.483 72.6129 102.494 72.8978V73.2385L101.721 73.6823V73.4081C101.721 72.5777 102.137 71.8804 102.916 71.4319C103.695 70.9835 104.11 71.1958 104.11 72.0246V72.21C104.127 72.7322 103.915 73.2358 103.53 73.5888V73.603C103.968 73.5143 104.131 73.7979 104.129 74.3241V74.7836C104.129 75.6125 103.712 76.3034 102.911 76.7645C102.11 77.2257 101.688 77.0181 101.689 76.183Z" fill="white"/>
<path d="M55.3115 109.775L54.4579 110.266V109.526L56.9806 108.073V108.814L56.1286 109.305V113.743L55.3115 114.218V109.775Z" fill="white"/>
<path d="M57.3043 111.841V111.545L58.0769 111.101V111.456C58.0769 111.827 58.2356 111.866 58.499 111.716C58.7785 111.568 58.9445 111.269 58.9226 110.954C58.9226 110.524 58.7639 110.345 58.2261 110.185C57.5438 109.979 57.3217 109.684 57.3217 109.091C57.3217 108.277 57.7469 107.559 58.5402 107.101C59.3335 106.643 59.727 106.892 59.727 107.722V107.936L58.9543 108.382V108.115C58.9543 107.744 58.8068 107.689 58.5466 107.838C58.2795 107.982 58.1204 108.268 58.1388 108.57C58.1388 108.947 58.3086 109.123 58.8417 109.282C59.5239 109.489 59.7397 109.781 59.7381 110.424C59.7381 111.269 59.3065 111.992 58.5053 112.453C57.7041 112.914 57.3043 112.675 57.3043 111.841Z" fill="white"/>
<path d="M60.2902 106.177L61.1073 105.702V110.139L62.4512 109.366V110.107L60.2918 111.35L60.2902 106.177Z" fill="white"/>
<path fill-rule="evenodd" clip-rule="evenodd" d="M64.6819 103.642L63.5713 104.275L62.7161 109.952L63.4729 109.516L63.6221 108.416L64.5597 107.879V107.865L64.7073 108.816L65.5228 108.34L64.6819 103.642ZM64.098 104.879L64.4582 107.229L63.7236 107.657L64.0822 104.889L64.098 104.879Z" fill="white"/>
<path d="M69.6511 102.006L68.7991 102.497V101.919C69.4893 101.523 69.7336 101.233 69.9209 100.623L70.4698 100.306V105.491L69.6527 105.966L69.6511 102.006Z" fill="white"/>
<path fill-rule="evenodd" clip-rule="evenodd" d="M71.3583 104.039L72.9179 103.142L72.9195 104.089L73.7366 103.613V102.672L74.1221 102.45V101.708L73.7366 101.932V98.4263L72.8449 98.9397L71.3583 103.298V104.039ZM72.9179 100.379V102.401L72.1008 102.871L72.9036 100.387L72.9179 100.379Z" fill="white"/>
<path d="M74.5347 101.936V101.515L75.3058 101.07V101.529C75.3058 101.9 75.4644 101.946 75.7278 101.797C75.9912 101.648 76.1562 101.423 76.1562 100.968V100.545C76.1562 100.07 75.9975 99.9808 75.6231 100.195L75.3486 100.353V99.6132L75.6453 99.442C75.9598 99.2876 76.1525 98.9613 76.1355 98.6116V98.2345C76.1355 97.8636 75.9642 97.8129 75.7278 97.9508C75.4728 98.0927 75.3198 98.3663 75.3327 98.6576V98.9983L74.5616 99.4436V99.1695C74.5616 98.3391 74.9789 97.6402 75.7579 97.1917C76.5369 96.7432 76.9495 96.9556 76.9495 97.7781V97.9635C76.9673 98.485 76.7557 98.9882 76.3704 99.3406V99.3565C76.8067 99.2677 76.9701 99.5514 76.9701 100.078V100.535C76.9701 101.366 76.5544 102.057 75.7532 102.518C74.9519 102.979 74.5347 102.767 74.5347 101.936Z" fill="white"/>
<path d="M77.6365 100.58L78.4298 100.128V100.913L77.6444 101.366L77.6365 100.58Z" fill="white"/>
<path fill-rule="evenodd" clip-rule="evenodd" d="M79.039 99.2328V99.3279C79.039 100.155 79.4531 100.393 80.2575 99.9174C81.1032 99.442 81.5046 98.7321 81.5046 97.8573V95.1759C81.5046 94.3455 81.0667 94.1221 80.2654 94.5848C79.4642 95.0476 79.0263 95.7734 79.0263 96.6022V97.5293C79.0263 98.2915 79.3293 98.5387 79.9307 98.1933C80.2764 97.9992 80.5401 97.6868 80.6732 97.3137H80.6875V98.3058C80.6859 98.8018 80.5225 99.0363 80.2337 99.2043C79.9703 99.3533 79.8117 99.3057 79.8117 98.9365V98.7875L79.039 99.2328ZM80.6891 95.5911V96.5103C80.7074 96.8227 80.5419 97.1173 80.2654 97.2646C79.983 97.4262 79.8434 97.3454 79.8434 96.9968V96.0776C79.8259 95.7674 79.9915 95.4755 80.267 95.3312C80.5494 95.168 80.6891 95.2504 80.6891 95.5911Z" fill="white"/>
<path fill-rule="evenodd" clip-rule="evenodd" d="M82.0519 97.6197V97.1601C82.044 96.6516 82.2366 96.1603 82.5882 95.7925V95.7782C82.2471 95.7893 82.0837 95.5579 82.0837 95.0461V94.8321C82.0837 94.0017 82.539 93.2902 83.3323 92.8322C84.1256 92.3742 84.5794 92.566 84.5778 93.3964V93.6119C84.5831 94.0978 84.402 94.5673 84.0717 94.924V94.9383C84.4572 94.9161 84.6064 95.1934 84.6048 95.6911V96.1506C84.6048 96.9794 84.151 97.6926 83.3355 98.1664C82.52 98.6402 82.0519 98.4469 82.0519 97.6197ZM83.7972 96.5753V96.0793C83.7972 95.6863 83.6385 95.5833 83.3371 95.7624C83.0332 95.9338 82.8544 96.2639 82.877 96.6118V97.1078C82.877 97.5008 83.0356 97.6038 83.3355 97.4247C83.6377 97.2508 83.814 96.9197 83.7893 96.5722L83.7972 96.5753ZM83.7686 93.8433V94.2521L83.7607 94.249C83.7764 94.5646 83.6125 94.862 83.3371 95.0175C83.0547 95.1808 82.9071 95.0873 82.9071 94.7466V94.3393C82.8938 94.023 83.061 93.7264 83.3387 93.5739C83.6195 93.4106 83.7686 93.5025 83.7686 93.8433Z" fill="white"/>
<path fill-rule="evenodd" clip-rule="evenodd" d="M90.1705 92.8242V92.9209C90.1689 93.7497 90.5846 93.9858 91.3843 93.5183C92.2299 93.0429 92.6329 92.3313 92.6329 91.4581V88.7768C92.6345 87.9464 92.1966 87.7245 91.3954 88.1857C90.5941 88.6468 90.1547 89.3726 90.1547 90.203V91.1285C90.1547 91.8924 90.4577 92.1396 91.059 91.7925C91.4051 91.5997 91.669 91.2876 91.8015 90.9146L91.8174 90.9051V91.8987C91.8174 92.3947 91.654 92.6372 91.3636 92.7957C91.1003 92.9446 90.9416 92.8987 90.9416 92.5278V92.3805L90.1705 92.8242ZM91.819 89.1872V90.1048C91.8368 90.418 91.6709 90.713 91.3938 90.8607C91.113 91.0223 90.9718 90.9399 90.9718 90.5929V89.6737C90.9572 89.3638 91.1219 89.0729 91.3954 88.9258C91.6778 88.7641 91.819 88.8465 91.819 89.1872Z" fill="white"/>
<path d="M93.2565 91.1429V90.7356L94.0276 90.2919V90.7578C94.0276 91.1286 94.1862 91.1682 94.4496 91.0193C94.7257 90.8747 94.8914 90.5821 94.8732 90.2713V89.1081C94.8732 88.7372 94.7145 88.6913 94.4496 88.8403C94.1748 88.9901 94.0102 89.2839 94.026 89.5962V89.6405L93.2549 90.0843L93.4135 87.1018L95.5665 85.8625V86.6042L94.1386 87.4235L94.0704 88.6992L94.0863 88.6913C94.2307 88.361 94.4777 88.086 94.7907 87.9068C95.392 87.5614 95.6966 87.8086 95.6951 88.5724V89.742C95.6951 90.5724 95.2778 91.2855 94.4766 91.7466C93.6753 92.2078 93.2565 91.9733 93.2565 91.1429Z" fill="white"/>
<path d="M96.3218 89.8243L97.1151 89.3711V90.1555L96.3218 90.6088V89.8243Z" fill="white"/>
<path fill-rule="evenodd" clip-rule="evenodd" d="M97.7545 85.8736V88.5549C97.7529 89.379 98.1908 89.6119 98.992 89.1508C99.7932 88.6896 100.233 87.9638 100.233 87.1334V86.2079C100.234 85.4457 99.9297 85.1985 99.3284 85.5439C98.983 85.7384 98.7194 86.0507 98.5858 86.4235L98.5716 86.4314V85.4394C98.5716 84.9417 98.735 84.7072 99.0237 84.5408C99.2887 84.3918 99.4474 84.4378 99.4474 84.8086V84.9576L100.218 84.5123V84.4156C100.22 83.5868 99.7964 83.3523 99.0031 83.8134C98.1575 84.2888 97.7545 84.9988 97.7545 85.8736ZM99.4156 86.7388V87.6564C99.4314 87.9666 99.2663 88.258 98.992 88.4044C98.7112 88.566 98.57 88.4852 98.57 88.1445V87.2253C98.5517 86.9129 98.7171 86.6183 98.9936 86.471C99.2744 86.3078 99.4156 86.3902 99.4156 86.7388Z" fill="white"/>
<path d="M100.774 86.8307V86.4092L101.546 85.9638V86.4234C101.546 86.7942 101.705 86.8402 101.968 86.6912C102.232 86.5423 102.392 86.322 102.392 85.8624V85.4393C102.392 84.9639 102.233 84.8751 101.859 85.0891L101.584 85.2476V84.5075L101.881 84.3363C102.196 84.1819 102.388 83.8556 102.371 83.5059V83.1288C102.371 82.7579 102.202 82.7072 101.965 82.8451C101.71 82.9873 101.557 83.2616 101.57 83.5535V83.8942L100.799 84.3379V84.0638C100.799 83.2334 101.216 82.5361 101.995 82.086C102.774 81.636 103.189 81.8515 103.189 82.6803V82.8657C103.207 83.3876 102.994 83.8911 102.608 84.2428V84.2587C103.046 84.1699 103.209 84.4536 103.209 84.9797V85.4377C103.209 86.2681 102.793 86.9591 101.991 87.4202C101.188 87.8814 100.774 87.6611 100.774 86.8307Z" fill="white"/>
<path d="M107.702 69.4938L106.274 74.1212C106.236 74.2457 106.278 74.3809 106.38 74.4621C106.482 74.5432 106.623 74.5539 106.736 74.4889L109.576 72.8535C109.719 72.7711 109.775 72.5936 109.705 72.4446L108.288 69.4511C108.23 69.3361 108.109 69.2671 107.981 69.2765C107.852 69.2859 107.742 69.3717 107.702 69.4938Z" fill="#F8BF30"/>
<path d="M107.693 79.4523L106.265 84.0797C106.227 84.2042 106.269 84.3394 106.371 84.4206C106.472 84.5017 106.614 84.5124 106.727 84.4474L109.567 82.812C109.71 82.7295 109.766 82.5509 109.695 82.4015L108.278 79.4096C108.221 79.2946 108.1 79.2256 107.971 79.235C107.843 79.2444 107.733 79.3302 107.693 79.4523Z" fill="#F8BF30"/>
<path d="M121.346 102.789L123.051 101.423C124.259 98.9222 123.657 95.6719 121.636 93.7671C119.615 91.8622 116.33 91.4502 113.9 92.7988C109.237 95.4009 108.7 102.836 103.72 104.751C99.7044 106.291 94.7304 103.304 91.0543 105.535C88.2666 107.226 87.778 110.968 86.358 113.899C84.992 116.692 82.6482 118.888 79.7704 120.07C77.4143 121.021 74.8107 121.257 72.4721 122.241C69.529 123.479 67.1745 125.847 65.4276 128.517C63.6808 131.187 62.4797 134.17 61.2914 137.13L121.346 102.789Z" fill="url(#paint0_linear_0_13040)"/>
<path d="M56.5903 140.645C56.3024 140.646 56.0501 140.453 55.9756 140.175C55.9012 139.897 56.0232 139.604 56.273 139.461L125.932 99.3992C126.236 99.2242 126.624 99.3281 126.799 99.6314C126.975 99.9346 126.871 100.322 126.567 100.497L56.906 140.566C56.8095 140.619 56.7007 140.646 56.5903 140.645Z" fill="#FDF8EB"/>
<path d="M63.127 123.292C62.9641 123.292 62.8179 123.192 62.7583 123.041C62.6988 122.889 62.7381 122.717 62.8573 122.606L73.2606 112.918C73.3372 112.847 73.4386 112.809 73.543 112.812L80.0639 113.033L89.355 99.7351C89.4332 99.6243 89.5621 99.5605 89.6977 99.5655L100.598 100.017L114.84 83.4029C114.933 83.2953 115.075 83.245 115.214 83.2709C115.354 83.2967 115.469 83.3949 115.516 83.5284C115.563 83.6618 115.535 83.8103 115.443 83.9179L101.075 100.672C100.996 100.764 100.879 100.814 100.758 100.809L89.8818 100.359L80.5986 113.654C80.5223 113.764 80.3949 113.828 80.2607 113.823L73.689 113.601L63.4063 123.176C63.332 123.25 63.2317 123.292 63.127 123.292Z" fill="#F6F1E3"/>
<defs>
<linearGradient id="paint0_linear_0_13040" x1="86.6177" y1="138.974" x2="111.209" y2="110.717" gradientUnits="userSpaceOnUse">
<stop stop-color="#F8BF30"/>
<stop offset="1" stop-color="#F8BF30" stop-opacity="0.3"/>
</linearGradient>
</defs>
</svg>
