<svg width="21" height="20" viewBox="0 0 21 20" fill="none" xmlns="http://www.w3.org/2000/svg">
<path d="M12.0058 18.0088V13.4269" stroke="#272727" stroke-width="2" stroke-linecap="round" stroke-linejoin="round"/>
<path d="M15.0071 18.0088V13.4269" stroke="#272727" stroke-width="2" stroke-linecap="round" stroke-linejoin="round"/>
<path d="M18.0083 18.0088V13.4269" stroke="#272727" stroke-width="2" stroke-linecap="round" stroke-linejoin="round"/>
<path d="M11.0054 18.0088H19.0087" stroke="#272727" stroke-width="2" stroke-linecap="round" stroke-linejoin="round"/>
<path fill-rule="evenodd" clip-rule="evenodd" d="M11.0054 13.4269H19.0087V11.6432L15.0071 10.0055L11.0054 11.6432V13.4269Z" stroke="#272727" stroke-width="2" stroke-linecap="round" stroke-linejoin="round"/>
<path d="M15.0071 4.00302H14.0067" stroke="#272727" stroke-width="2" stroke-linecap="round" stroke-linejoin="round"/>
<path d="M4.0025 11.0058H5.00292" stroke="#272727" stroke-width="2" stroke-linecap="round" stroke-linejoin="round"/>
<path d="M8.00417 14.0071H3.50229C2.12101 14.0071 1.00125 12.8874 1.00125 11.5061V3.50275C1.00125 2.83943 1.26475 2.20328 1.73379 1.73425C2.20283 1.26521 2.83898 1.00171 3.50229 1.00171H15.5073C16.8886 1.00171 18.0083 2.12146 18.0083 3.50275V7.00421" stroke="#272727" stroke-width="2" stroke-linecap="round" stroke-linejoin="round"/>
<path d="M7.73629 9.27297C6.75957 8.29625 6.75957 6.71268 7.73629 5.73596C8.713 4.75924 10.2966 4.75924 11.2733 5.73596" stroke="#272727" stroke-width="2" stroke-linecap="round" stroke-linejoin="round"/>
</svg>
