<svg width="26" height="27" viewBox="0 0 26 27" fill="none" xmlns="http://www.w3.org/2000/svg">
<g opacity="0.39931">
<path d="M12.5 1C19.4194 1 25 6.58032 25 13.4995C25 20.4186 19.4194 25.999 12.5 25.999" stroke="#FDF9ED" stroke-width="1.5" stroke-linecap="round" stroke-linejoin="round"/>
<path d="M12.5 25.999C5.58056 25.999 0 20.4186 0 13.4995C0 6.58032 5.58056 1 12.5 1" stroke="#FDF9ED" stroke-width="1.5" stroke-linecap="round" stroke-linejoin="round"/>
<path fill-rule="evenodd" clip-rule="evenodd" d="M9.95555 2.47218C5.94166 9.17329 5.94166 17.8271 9.95555 24.5282C11.1305 26.4906 13.8708 26.4906 15.0458 24.5282C19.0597 17.8271 19.0597 9.17329 15.0458 2.47218C13.8694 0.509762 11.1305 0.509762 9.95555 2.47218Z" stroke="#FDF9ED" stroke-width="1.5" stroke-linecap="round" stroke-linejoin="round"/>
<path d="M1.40277 7.74695C8.19722 9.84547 16.8028 9.84547 23.5958 7.74695" stroke="#FDF9ED" stroke-width="1.5" stroke-linecap="round" stroke-linejoin="round"/>
<path d="M23.5972 19.252C16.8028 17.1535 8.19723 17.1535 1.40417 19.252" stroke="#FDF9ED" stroke-width="1.5" stroke-linecap="round" stroke-linejoin="round"/>
</g>
</svg>
