<?xml version="1.0" encoding="utf-8"?>
<!-- Generator: Adobe Illustrator 24.0.1, SVG Export Plug-In . SVG Version: 6.00 Build 0)  -->
<svg version="1.1" id="Layer_1" xmlns="http://www.w3.org/2000/svg" xmlns:xlink="http://www.w3.org/1999/xlink" x="0px" y="0px"
	 width="25.8px" height="25.7px" viewBox="0 0 25.8 25.7" style="enable-background:new 0 0 25.8 25.7;" xml:space="preserve">
<style type="text/css">
	.st0{opacity:0.5;fill-rule:evenodd;clip-rule:evenodd;fill:#121212;enable-background:new    ;}
</style>
<path class="st0" d="M6,2.5c2.1-1.4,4.5-2.1,7-2.1l0,0c2.2,0,4.3,0.6,6.2,1.7c1.9,1.1,3.5,2.7,4.6,4.6c1.1,1.9,1.7,4,1.7,6.2
	c0,2.5-0.7,4.9-2.1,7c-1.4,2.1-3.3,3.7-5.6,4.6c-2.3,1-4.8,1.2-7.2,0.7c-2.4-0.5-4.7-1.7-6.4-3.4c-1.8-1.7-2.9-4-3.4-6.4
	c-0.5-2.4-0.2-4.9,0.7-7.2C2.3,5.9,3.9,3.9,6,2.5z M9.5,22.5c2.6,1.4,7.7,0.9,10.9-2.3l0,0c3.3-3.4,3.7-8.5,1.8-11.6
	c0,0.1,0,0.2,0,0.3c0,0.5,0,1,0.2,1.5c0.1,0.3,0.2,0.6,0.1,0.9c-0.1,0.3-0.2,0.6-0.5,0.8c-0.1,0.1-0.1,0.2-0.2,0.2
	c-0.1,0.1-0.2,0.2-0.3,0.3c-0.7,0.7-1.3,1.5-1.1,2.5c-0.3,0.4-0.7,0.5-1,0.6c-0.1,0-0.2,0-0.3,0.1l0,0c-0.6,0.1-1.2,0.3-1.6,0.8
	c-0.4,0.3-0.9,0.5-1.3,0.3c-0.8-0.1-1.6-0.3-2.4-0.4l0,0c0,0-0.1,0-0.1-0.1c0,0,0,0-0.1-0.1c-0.2-0.6,0.1-1,0.6-1.2
	c0.2-0.1,0.3-0.1,0.5-0.2c0.1-0.1,0.3-0.1,0.4-0.2c0.8-0.4,1.5-0.9,1.9-1.7c-0.1-0.1-0.2-0.2-0.3-0.2c-2.2-0.8-3.5-2.2-4-4.5
	c-0.1-0.3-0.2-0.6-0.4-1h-1.1c-0.1,0-0.2,0-0.3,0c-0.4,0-0.8,0-1.3-0.1C9.4,7.2,9.2,7.1,9.1,7C8.9,6.8,8.8,6.6,8.8,6.4h0
	c0-0.2,0-0.4-0.1-0.6c0-0.4-0.1-0.7-0.1-1.1c0-0.5,0-1,0.5-1.3c-3.9,1.4-7.1,6.1-6.4,9.5l1.8,0.5c0.2,0.3,0.3,0.7,0.3,1
	c0.1,0.5,0.1,1,0.8,1.2l1-0.8l2.1,1.1l0,2C8.8,18,8.9,18.1,9,18.3c0.2,0.3,0.5,0.5,0.7,0.8c0.8,1,0.8,1.9,0.2,2.9
	c-0.1,0.1-0.2,0.2-0.2,0.4C9.6,22.4,9.5,22.5,9.5,22.5z"/>
</svg>
