<svg width="56" height="37" viewBox="0 0 56 37" fill="none" xmlns="http://www.w3.org/2000/svg">
<circle cx="16" cy="21" r="16" fill="#1A7C9F"/>
<path d="M11.377 19.4208H10.5399C10.2973 19.4208 10.1154 19.7507 10.1154 20.1423V25.8938C10.1154 26.3061 10.3095 26.6153 10.5399 26.6153H11.377C11.6196 26.6153 11.8016 26.2855 11.8016 25.8938V20.1423C11.8016 19.7507 11.6075 19.4208 11.377 19.4208Z" fill="white"/>
<path d="M13.2891 19.5721C12.9666 19.6975 12.765 20.0109 12.765 20.3662V24.9433C12.765 26.6153 14.3775 26.6153 14.3775 26.6153H20.0213C21.6339 26.6153 21.8354 24.9433 21.8354 24.9433L22.6417 20.5543C23.0247 18.7988 21.4524 18.5062 21.2509 18.4644C21.2307 18.4644 21.2307 18.4644 21.2106 18.4644H18.308C18.1266 18.4644 18.0057 18.3181 18.0057 18.1509V15.3294C18.0057 14.0545 16.7157 13.9918 16.0908 14.0336C15.9094 14.0545 15.7885 14.2008 15.8086 14.3889C15.99 18.0464 14.2163 19.2168 13.2891 19.5721Z" fill="white"/>
<circle cx="40" cy="16" r="16" fill="#E6AC00"/>
<path d="M45.623 17.5792H46.4601C46.7027 17.5792 46.8846 17.2493 46.8846 16.8577V11.1062C46.8846 10.6939 46.6905 10.3847 46.4601 10.3847H45.623C45.3804 10.3847 45.1984 10.7145 45.1984 11.1062V16.8577C45.1984 17.2493 45.3925 17.5792 45.623 17.5792Z" fill="white"/>
<path d="M43.7109 17.4279C44.0334 17.3025 44.235 16.9891 44.235 16.6338V12.0567C44.235 10.3847 42.6225 10.3847 42.6225 10.3847H36.9787C35.3661 10.3847 35.1646 12.0567 35.1646 12.0567L34.3583 16.4457C33.9753 18.2012 35.5476 18.4938 35.7491 18.5356C35.7693 18.5356 35.7693 18.5356 35.7894 18.5356H38.692C38.8734 18.5356 38.9943 18.6819 38.9943 18.8491V21.6706C38.9943 22.9455 40.2843 23.0082 40.9092 22.9664C41.0906 22.9455 41.2115 22.7992 41.1914 22.6111C41.01 18.9536 42.7837 17.7832 43.7109 17.4279Z" fill="white"/>
</svg>
