<svg width="21" height="22" viewBox="0 0 21 22" fill="none" xmlns="http://www.w3.org/2000/svg">
<path d="M8.96247 21H3.44371C2.85819 21 2.29661 20.7661 1.88259 20.3493C1.46857 19.9325 1.2362 19.3672 1.2362 18.7778V3.22222C1.2362 2.6328 1.46857 2.06748 1.88259 1.65069C2.29661 1.23391 2.85819 1 3.44371 1H16.6887C17.2743 1 17.8358 1.23391 18.2499 1.65069C18.6639 2.06748 18.8962 2.6328 18.8962 3.22222V8.77778" stroke="#272727" stroke-width="2" stroke-linecap="round" stroke-linejoin="round"/>
<path d="M0.13245 6.55556H2.70419" stroke="#272727" stroke-width="2" stroke-linecap="round" stroke-linejoin="round"/>
<path d="M0.13245 11H2.70419" stroke="#272727" stroke-width="2" stroke-linecap="round" stroke-linejoin="round"/>
<path d="M0 15.4445H2.70419" stroke="#272727" stroke-width="2" stroke-linecap="round" stroke-linejoin="round"/>
<path d="M6.75497 6.55556H14.4812" stroke="#272727" stroke-width="2" stroke-linecap="round" stroke-linejoin="round"/>
<path d="M6.75497 9.88893H10.0662" stroke="#272727" stroke-width="2" stroke-linecap="round" stroke-linejoin="round"/>
<path d="M20 20.9999L18.1909 19.1788" stroke="#272727" stroke-width="2" stroke-linecap="round" stroke-linejoin="round"/>
<path d="M15.2804 12.1111C17.5505 12.1111 19.3907 13.9636 19.3907 16.2489C19.3907 18.5341 17.5505 20.3866 15.2804 20.3866C13.0103 20.3866 11.17 18.5341 11.17 16.2489C11.1701 13.9637 13.0103 12.1112 15.2804 12.1111" stroke="#272727" stroke-width="2" stroke-linecap="round" stroke-linejoin="round"/>
</svg>
