<svg width="22" height="20" viewBox="0 0 22 20" fill="none" xmlns="http://www.w3.org/2000/svg">
<path fill-rule="evenodd" clip-rule="evenodd" d="M0 13.4421C0 14.892 1.15924 16.0646 2.58998 16.0646L12.0783 16.0647L17.0823 19.8677C17.5089 20.1919 18.1176 19.8834 18.1176 19.3431V16.0646H19.4117C20.8396 16.0646 22 14.8899 22 13.4421V2.62247C22 1.17292 20.8429 0 19.4143 0H2.58571C1.15899 0 0 1.17489 0 2.62247V13.4421ZM9 5.49989C9 6.32835 8.55223 7 7.99993 7C7.44762 7 7 6.32835 7 5.49989C7 4.67144 7.44762 4 7.99993 4C8.55223 4 9 4.67144 9 5.49989ZM6.23971 11.4633C6.45207 11.6858 6.82876 11.9816 7.37272 12.2666C8.25035 12.7263 9.2953 13 10.5 13C11.7047 13 12.7496 12.7263 13.6273 12.2666C14.1713 11.9815 14.5479 11.6858 14.7603 11.4633C15.0799 11.1285 15.0799 10.5858 14.7603 10.251C14.4409 9.91634 13.9227 9.91634 13.6033 10.251C13.5914 10.2634 13.5439 10.307 13.4607 10.3722C13.3072 10.493 13.1187 10.6164 12.8955 10.7333C12.2389 11.0772 11.4429 11.2857 10.5 11.2857C9.55709 11.2857 8.7611 11.0772 8.10449 10.7333C7.88134 10.6164 7.69282 10.493 7.53928 10.3722C7.45607 10.307 7.40855 10.2634 7.39672 10.251C7.0773 9.91634 6.5591 9.91634 6.23969 10.251C5.9201 10.5858 5.9201 11.1285 6.23969 11.4633H6.23971ZM14 5.49989C14 6.32835 13.5524 7 13.0001 7C12.4478 7 12 6.32835 12 5.49989C12 4.67144 12.4478 4 13.0001 4C13.5524 4 14 4.67144 14 5.49989Z" fill="#F9C035"/>
</svg>
