<svg width="377" height="163" viewBox="0 0 377 163" fill="none" xmlns="http://www.w3.org/2000/svg">
<path d="M213.589 35.0582L211.702 50.6502L211.61 51.7055L211.491 53.0246C211.491 53.0246 203.208 49.674 193.025 44.5426C182.605 39.2662 170.232 32.1561 162.806 24.8481C158.269 20.3895 156.541 16.5508 156.317 13.3718C155.842 6.77614 161.949 2.99025 162.727 2.54175H162.806L173.596 9.13737L187.248 17.461C196.824 23.186 213.589 35.0582 213.589 35.0582Z" fill="#D2A17F"/>
<path opacity="0.49" d="M215.172 52.985L211.61 51.6659C207.653 50.2149 200.781 47.6294 193.052 44.4635C182.631 39.187 170.259 32.0769 162.833 24.769C158.295 20.3103 156.567 16.4717 156.343 13.2926L211.742 50.6106L215.172 52.985Z" fill="#BC8666"/>
<path d="M303.928 108.626L244.559 144.018L228.006 134.375L208.814 123.176L192.049 113.401L181.813 113.876L154.338 101.766L152.703 70.0942L183.555 46.2312L213.589 35.0582L236.645 69.052L242.291 72.3762L253.331 78.8663L303.928 108.626Z" fill="#D2A17F"/>
<path opacity="0.49" d="M253.331 78.8663C252.355 91.7805 237.832 117.965 228.005 134.375L208.814 123.176C208.814 123.176 207.495 84.9211 242.29 72.3762L253.331 78.8663Z" fill="#A36A53"/>
<path opacity="0.49" d="M158.269 97.5847C158.269 97.5847 168.017 106.95 174.401 103.376C179.795 100.355 217.335 79.6314 228.731 73.4315C229.491 73.0093 230.004 72.2507 230.113 71.3886C230.223 70.5265 229.915 69.6638 229.285 69.0652L224.563 64.6066L158.269 97.5847Z" fill="#BC8666"/>
<path d="M65.8848 38.8177L66.109 32.7498L226.898 61.3088L226.647 68.0627L65.8848 38.8177Z" fill="#2E2E2E"/>
<path d="M224.352 70.5954L170.509 99.3787C167.623 100.881 164.192 100.916 161.276 99.471L67.4016 41.1789C65.0933 39.7411 65.4627 37.3798 68.2326 35.9024L122.075 7.11914C124.962 5.61656 128.392 5.58225 131.308 7.0268L225.209 65.3189C227.491 66.7435 227.122 69.118 224.352 70.5954Z" fill="#2E2E2E"/>
<path d="M224.563 64.6066L170.721 93.403C167.83 94.8951 164.403 94.9245 161.488 93.4822L67.613 35.2033C65.3047 33.7654 65.6872 31.4042 68.4572 29.9268L122.3 1.14351C125.189 -0.35278 128.618 -0.382177 131.533 1.06436L225.394 59.3301C227.716 60.7679 227.333 63.1291 224.563 64.6066Z" fill="#121212"/>
<path d="M219.089 60.504C218.849 59.7652 218.334 59.1466 217.651 58.776L133.234 6.34081C130.319 4.89427 126.89 4.92367 124.001 6.41996L75.2629 32.4595C74.2523 32.9093 73.454 33.7314 73.0338 34.7547C72.704 33.528 73.4823 32.1165 75.3025 31.2063L124.014 5.16679C126.899 3.65993 130.332 3.6256 133.247 5.07445L217.73 57.5096C218.853 58.0422 219.428 59.308 219.089 60.504Z" fill="#FFD368"/>
<path d="M219.089 60.5041C218.66 61.5215 217.865 62.3407 216.86 62.7994L168.149 88.8389C165.258 90.3309 161.831 90.3603 158.916 88.918L74.4983 36.4828C73.8155 36.1122 73.3009 35.4937 73.0605 34.7548C73.4807 33.7314 74.2791 32.9094 75.2897 32.4595L123.975 6.42C126.864 4.92371 130.293 4.89431 133.208 6.34085L217.625 58.776C218.318 59.1414 218.843 59.7606 219.089 60.5041Z" fill="#F9C035"/>
<path d="M219.089 60.5041C218.66 61.5215 217.865 62.3407 216.86 62.7994L168.149 88.8389C165.258 90.3309 161.831 90.3603 158.916 88.918L97.5284 50.7953L90.2342 46.2575L88.0842 44.9384L84.6679 42.8146L74.4983 36.496C73.8155 36.1254 73.3009 35.5068 73.0605 34.768C73.4807 33.7446 74.2791 32.9226 75.2897 32.4727L84.6679 27.46L88.0842 25.6133L90.2606 24.4524L97.5548 20.561L123.935 6.42C126.824 4.92371 130.254 4.89431 133.168 6.34085L217.586 58.776C218.293 59.1334 218.833 59.7537 219.089 60.5041Z" fill="#F9C035"/>
<path d="M101.591 44.6746L144.802 21.6164C147.158 20.3989 149.952 20.3695 152.333 21.5372L188.25 43.8832C190.15 45.0572 189.846 46.9831 187.577 48.1967L144.432 71.3209C142.059 72.5137 139.261 72.5137 136.888 71.3209L100.905 49.0014C99.0185 47.8273 99.3218 45.8882 101.591 44.6746Z" fill="#F9C035"/>
<path d="M132.376 38.6067C126.005 42.0233 116.297 48.4738 120.4 51.0065C120.855 51.2773 121.356 51.4649 121.877 51.5605L124.977 52.4311C126.577 52.9148 131.853 51.5561 140.805 48.3551L142.374 49.3312C138.253 51.1997 133.965 52.6748 129.567 53.7371L131.77 54.3571C133.827 54.5066 138.123 53.3018 144.656 50.7427L146.226 51.7188C142.834 53.2928 139.301 54.5428 135.674 55.4519L137.415 55.94C138.932 56.1643 142.691 55.2541 148.653 53.3018L150.223 54.2779C147.452 55.49 144.584 56.4652 141.649 57.1932L143.548 57.734C147.242 57.9539 151.55 56.7799 156.475 54.212C156.725 54.08 156.765 53.8558 156.554 53.7239L139.248 42.973C138.979 42.8345 138.66 42.8345 138.391 42.973L138.246 43.0786C136.676 44.7934 133.88 46.4159 129.87 47.9197C128.574 48.3729 127.253 48.7517 125.913 49.0542C124.37 49.3972 123.552 49.2916 123.921 48.5002C124.845 47.0491 128.089 44.0679 135.067 40.3216C143.271 35.9421 150.46 34.2932 153.401 36.1136C155.96 37.7097 152.28 41.2186 147.347 44.2921C146.028 45.0045 146.78 45.2287 147.782 45.8619C148.414 46.3412 149.288 46.3412 149.919 45.8619C156.514 41.733 160.748 36.9051 156.646 34.3591C151.99 31.4571 142.691 33.0664 132.376 38.6067Z" fill="#121212"/>
<path d="M88.0574 25.6133V44.9253L84.6411 42.8015V27.4469L88.0574 25.6133Z" fill="#FFD367"/>
<path d="M97.5281 20.561V50.7954L90.2339 46.2708V24.4525L97.5281 20.561Z" fill="#FFD367"/>
<path d="M129.079 93.746L119.094 92.8227L114.161 92.4269C112.757 92.3058 111.4 91.8537 110.204 91.1078C109.28 90.4742 108.487 89.6679 107.869 88.7334L100.483 78.5629L100.971 67.0734L101.578 53.2621V52.8532C101.578 52.8532 113.449 45.3738 117.709 55.9268L117.182 73.4184L120.44 78.9851L129.079 93.746Z" fill="#D2A17F"/>
<path opacity="0.49" d="M120.466 79.0377V88.6146L119.147 92.8094L114.161 92.4268C112.757 92.3057 111.401 91.8536 110.204 91.1077L111.853 61.5857C111.955 59.7719 113.051 58.1631 114.702 57.4041L117.604 56.085L117.076 73.5765L120.466 79.0377Z" fill="#A36A53"/>
<path d="M141.188 101.885L132.403 101.067L126.256 100.5C125.762 100.456 125.273 100.372 124.792 100.249C122.83 99.7246 121.11 98.5359 119.925 96.8856L112.578 86.7151L113.145 75.2783L113.752 61.4671V61.0318C113.752 61.0318 125.412 53.6974 129.752 63.7756C129.792 63.8932 129.84 64.0078 129.897 64.1185L129.356 81.6233L134.25 89.9602L141.188 101.885Z" fill="#D2A17F"/>
<path opacity="0.49" d="M134.25 89.9601V95.5928L132.456 101.067L126.309 100.5C125.815 100.456 125.326 100.372 124.845 100.249L124.001 99.0885L125.703 68.498C125.807 66.688 126.903 65.084 128.552 64.3295L129.752 63.7755C129.792 63.8931 129.841 64.0077 129.897 64.1185L129.356 81.6233L134.25 89.9601Z" fill="#BC8666"/>
<path d="M154.919 109.325L146.477 108.547L140.001 107.953C139.143 107.879 138.303 107.675 137.508 107.346C135.965 106.729 134.629 105.686 133.656 104.339L126.335 94.1681L126.837 82.6785L127.43 68.8673V68.4716C127.43 68.4716 139.301 60.9921 143.562 71.5715V71.8617L143.047 89.0103L147.704 96.9251L154.919 109.325Z" fill="#D2A17F"/>
<path opacity="0.49" d="M147.704 97.0175V104.695L146.477 108.547L140.001 107.953C139.144 107.879 138.303 107.675 137.508 107.346L139.157 76.7689C139.268 74.9824 140.345 73.399 141.966 72.6401L143.562 71.8882L143.048 89.0368L147.704 97.0175Z" fill="#A36A53"/>
<path d="M181.813 113.876L154.496 115.512C151.818 115.433 149.321 114.136 147.717 111.99L140.251 99.7876L140.713 89.4193L141.28 76.9668V76.5974C141.28 76.5974 152.465 69.8567 156.422 79.394L156.198 99.0225L171.802 104.141C171.802 104.141 188.567 98.0332 181.813 113.876Z" fill="#D2A17F"/>
<path opacity="0.36927" d="M147.44 90.4745C147.44 90.4745 144.644 92.2026 140.687 89.4192L141.254 76.9667L141.386 76.7292C141.386 76.7292 146.978 77.9033 147.44 82.5598C147.726 85.1902 147.726 87.844 147.44 90.4745Z" fill="#FFE7D1"/>
<path opacity="0.36927" d="M134.012 83.8394C134.012 83.8394 131.031 85.7521 126.824 82.6786L127.417 68.8673L127.562 68.6035C127.562 68.6035 133.524 69.9226 134.012 75.054C134.324 77.9742 134.324 80.9192 134.012 83.8394Z" fill="#FFE7D1"/>
<path opacity="0.36927" d="M120.281 76.3864C120.281 76.3864 117.287 78.2991 113.146 75.2783L113.752 61.4671C113.831 61.2956 113.884 61.2032 113.884 61.2032C113.884 61.2032 119.846 62.5224 120.347 67.667C120.633 70.5676 120.611 73.4903 120.281 76.3864Z" fill="#FFE7D1"/>
<path opacity="0.36927" d="M108.173 68.2342C108.173 68.2342 105.178 70.1469 100.971 67.0733L101.577 53.2621L101.723 53.0115C101.723 53.0115 107.671 54.3306 108.173 59.462C108.484 62.3778 108.484 65.3184 108.173 68.2342Z" fill="#FFE7D1"/>
<path d="M308.849 106.687C308.572 152.856 265.321 163 265.321 163L213.18 132.66C212.848 130.232 212.645 127.788 212.573 125.339C211.558 94.6034 231.369 79.0245 242.766 72.574C243.623 72.0991 244.428 71.6638 245.179 71.2549C246.916 70.3572 248.71 69.5729 250.548 68.9069L308.73 103.204C308.835 104.497 308.849 105.618 308.849 106.687Z" fill="#121212"/>
<path d="M308.848 106.687L245.245 71.4C246.982 70.5023 248.775 69.718 250.614 69.052L308.796 103.349C308.835 104.497 308.848 105.618 308.848 106.687Z" fill="#272727"/>
<g opacity="0.5">
<path d="M19.9697 61.322L5.46051 62.9445C4.9361 62.9599 4.44867 63.2183 4.14149 63.6436L0.0657203 71.9805C-0.290415 72.7324 0.857133 73.4579 2.14977 73.2996L16.659 71.6375C17.1856 71.6304 17.6765 71.3702 17.978 70.9384L22.1197 62.6675C22.4231 61.9156 21.2756 61.1769 19.9697 61.322Z" fill="#D9D5CA"/>
<path d="M91.0254 140.549L76.7932 142.132C76.2685 142.133 75.7771 142.389 75.4742 142.817L71.5171 150.983C71.161 151.708 72.2821 152.421 73.5616 152.302L87.7015 150.666C88.2273 150.669 88.7207 150.412 89.0205 149.98L93.0831 141.881C93.3601 141.129 92.3049 140.403 91.0254 140.549Z" fill="#D9D5CA"/>
<path d="M191.337 138.082L182.671 139.045C182.36 139.059 182.074 139.215 181.893 139.467L179.479 144.427C179.268 144.875 179.94 145.311 180.719 145.218L189.332 144.216C189.638 144.211 189.923 144.058 190.097 143.807L192.563 138.873C192.788 138.438 192.115 138.003 191.337 138.082Z" fill="#D9D5CA"/>
<path d="M314.151 69.7643L305.498 70.7273C305.188 70.7324 304.9 70.8842 304.72 71.1362L302.306 76.0961C302.095 76.5446 302.767 76.9799 303.546 76.8876L312.146 75.8982C312.455 75.8931 312.744 75.7414 312.924 75.4893L315.391 70.5558C315.615 70.1073 314.955 69.672 314.151 69.7643Z" fill="#D9D5CA"/>
<path d="M374.879 130.945L360.739 132.541C360.213 132.539 359.719 132.795 359.42 133.227L355.463 141.34C355.106 142.065 356.214 142.778 357.481 142.659L371.673 140.971C372.199 140.988 372.698 140.734 372.992 140.298L376.949 132.238C377.253 131.512 376.145 130.8 374.879 130.945Z" fill="#D9D5CA"/>
<path d="M280.766 14.0445L268.499 15.3637C268.057 15.375 267.646 15.5952 267.391 15.9573L263.962 22.9882C263.659 23.6214 264.621 24.3073 265.729 24.1095L277.93 22.698C278.361 22.6816 278.76 22.4674 279.012 22.1176L282.521 15.1262C282.837 14.5986 281.874 13.9258 280.766 14.0445Z" fill="#D9D5CA"/>
</g>
</svg>
