<svg width="26" height="31" viewBox="0 0 26 31" fill="none" xmlns="http://www.w3.org/2000/svg">
<g opacity="0.39931">
<path d="M10.1562 25.2972L14.8438 29.9999" stroke="#FDF9ED" stroke-width="1.5" stroke-linecap="round" stroke-linejoin="round"/>
<path d="M10.1562 29.9999L14.8438 25.2972" stroke="#FDF9ED" stroke-width="1.5" stroke-linecap="round" stroke-linejoin="round"/>
<path d="M18.75 27.6487H25" stroke="#FDF9ED" stroke-width="1.5" stroke-linecap="round" stroke-linejoin="round"/>
<path d="M0 27.6487H6.25" stroke="#FDF9ED" stroke-width="1.5" stroke-linecap="round" stroke-linejoin="round"/>
<path d="M14.1578 6.97874C15.0734 7.89734 15.0734 9.38652 14.1578 10.3036C13.2422 11.2206 11.7578 11.2221 10.8438 10.3036C9.92814 9.38496 9.92814 7.89577 10.8438 6.97874C11.7578 6.06015 13.2422 6.06015 14.1578 6.97874" stroke="#FDF9ED" stroke-width="1.5" stroke-linecap="round" stroke-linejoin="round"/>
<path d="M20.4578 8.83157V8.83157C20.4578 11.0011 19.4969 13.0562 17.8375 14.445L15.2281 16.6271C14.1875 17.4971 13.4109 18.6398 12.9828 19.9299L12.5 21.3784L12.0187 19.9284C11.5906 18.6398 10.8125 17.4955 9.77343 16.6255L7.16405 14.4435C5.50155 13.0546 4.54218 10.9995 4.54218 8.83157V8.83157V8.87232C4.54218 3.89059 8.65311 1 12.5 1C16.3469 1 20.4578 3.89059 20.4578 8.87232" stroke="#FDF9ED" stroke-width="1.5" stroke-linecap="round" stroke-linejoin="round"/>
</g>
</svg>
