<?xml version="1.0" encoding="utf-8"?>
<!-- Generator: Adobe Illustrator 24.0.1, SVG Export Plug-In . SVG Version: 6.00 Build 0)  -->
<svg version="1.1" id="Layer_1" xmlns="http://www.w3.org/2000/svg" xmlns:xlink="http://www.w3.org/1999/xlink" x="0px" y="0px"
	 width="27.1px" height="26px" viewBox="0 0 27.1 26" style="enable-background:new 0 0 27.1 26;" xml:space="preserve">
<style type="text/css">
	.st0{opacity:0.5;}
	.st1{fill-rule:evenodd;clip-rule:evenodd;fill:#121212;}
	.st2{fill-rule:evenodd;clip-rule:evenodd;fill:#FFFFFF;filter:url(#Adobe_OpacityMaskFilter);}
	.st3{mask:url(#mask0_3_487_1_);}
	.st4{fill-rule:evenodd;clip-rule:evenodd;fill:#FDF8EB;}
	.st5{fill:none;stroke:#FDF8EB;stroke-width:1.4134;stroke-linecap:round;stroke-linejoin:round;}
	.st6{fill:none;stroke:#121212;stroke-width:2.1;stroke-linecap:round;stroke-linejoin:round;}
</style>
<g class="st0">
	<path class="st1" d="M21.2,7.5c0,2.1-0.9,4-2.5,5.4l-2.5,2.1c-1,0.8-1.7,1.9-2.1,3.2l-0.5,1.4l-0.5-1.4c-0.4-1.2-1.2-2.3-2.2-3.2
		l-2.5-2.1c-1.6-1.3-2.5-3.3-2.5-5.4v0C5.9,2.8,9.9,0,13.5,0C17.2,0,21.2,2.8,21.2,7.5"/>
	<defs>
		<filter id="Adobe_OpacityMaskFilter" filterUnits="userSpaceOnUse" x="10.3" y="4.1" width="6.4" height="6.4">
			<feColorMatrix  type="matrix" values="1 0 0 0 0  0 1 0 0 0  0 0 1 0 0  0 0 0 1 0"/>
		</filter>
	</defs>
	<mask maskUnits="userSpaceOnUse" x="10.3" y="4.1" width="6.4" height="6.4" id="mask0_3_487_1_">
		<path class="st2" d="M21.2,7.5c0,2.1-0.9,4-2.5,5.4l-2.5,2.1c-1,0.8-1.7,1.9-2.1,3.2l-0.5,1.4l-0.5-1.4c-0.4-1.2-1.2-2.3-2.2-3.2
			l-2.5-2.1c-1.6-1.3-2.5-3.3-2.5-5.4v0C5.9,2.8,9.9,0,13.5,0C17.2,0,21.2,2.8,21.2,7.5"/>
	</mask>
	<g class="st3">
		<path class="st4" d="M15.3,5.5c1,1,1,2.6,0,3.5c-1,1-2.6,1-3.5,0c-1-1-1-2.6,0-3.5C12.8,4.6,14.3,4.6,15.3,5.5z"/>
		<path class="st5" d="M15.3,5.5c1,1,1,2.6,0,3.5c-1,1-2.6,1-3.5,0c-1-1-1-2.6,0-3.5C12.8,4.6,14.3,4.6,15.3,5.5"/>
	</g>
	<path class="st6" d="M6.6,16.1C3.3,17,1,18.5,1,20.1C1,22.8,6.6,25,13.6,25c6.9,0,12.5-2.2,12.5-4.9c0-1.7-2.2-3.2-5.6-4"/>
</g>
</svg>
