<svg width="40" height="40" viewBox="0 0 40 40" fill="none" xmlns="http://www.w3.org/2000/svg">
<rect width="40" height="40" rx="3.18384" fill="#F9C035"/>
<path fill-rule="evenodd" clip-rule="evenodd" d="M20.1696 8.40002C15.2039 8.40002 6.79999 9.42076 6.79999 13.2462C6.79999 13.6341 6.88794 13.9929 7.04847 14.3251L7.75834 16.3687C8.27285 17.9895 17.1516 19.9388 17.1516 19.9388V21.3989C17.1516 21.3989 10.7512 20.5122 8.82172 19.4293L9.32589 20.8808C10.4705 22.401 17.1516 23.5335 17.1516 23.5335V24.9987C17.1516 24.9987 11.8946 24.3374 10.2251 23.4691L10.6212 24.6095C11.3606 25.8615 17.1516 27.2821 17.1516 27.2821V28.7506C17.1516 28.7506 12.8976 28.0899 11.5908 27.4003L12.026 28.6528C13.8657 31.0004 18.4907 31.3419 19.8139 31.3916C20.0136 31.3991 20.1728 31.2381 20.1728 31.0383V14.8918C20.1728 14.6258 19.8912 14.4392 19.639 14.5238C18.6196 14.8657 16.2008 15.456 12.9087 14.8267C11.8777 14.5797 11.0698 14.3002 10.483 14.0329C10.4722 14.0276 10.4628 14.0223 10.451 14.0171C9.57942 13.6184 9.3057 13.1811 9.99756 12.7053C11.3546 11.9337 14.7273 10.9173 20.1696 10.9173C26.5496 10.9173 30.6722 12.6902 30.6722 15.4339C30.6722 17.8289 26.763 19.0762 22.6316 19.4293C21.5925 19.4293 21.7613 19.9388 21.7613 20.8808C21.7613 21.3924 21.7613 21.8316 22.6316 21.8316C28.1809 21.3403 33.2 19.2723 33.2 15.4339C33.2 11.0951 28.2071 8.40002 20.1696 8.40002Z" fill="#121212"/>
</svg>
