<svg width="85" height="25" viewBox="0 0 85 25" fill="none" xmlns="http://www.w3.org/2000/svg">
<path d="M6.96209 2.23193C7.91908 2.23193 8.78436 2.4627 9.55793 2.92422C10.3315 3.38574 10.9495 4.01437 11.4121 4.8101C11.8746 5.60584 12.1059 6.49706 12.1059 7.48376C12.1059 8.48638 11.8746 9.38954 11.4121 10.1932C10.9495 10.9969 10.3315 11.6375 9.55793 12.1149C8.81952 12.5707 7.99756 12.8089 7.09202 12.8296L2.91886 12.8309C2.61113 12.831 2.36283 12.5793 2.36718 12.2716L2.39587 10.2383C2.39799 10.0876 2.52083 9.96645 2.67162 9.96645H6.74677C7.14552 9.96645 7.50838 9.85504 7.83535 9.63224C8.16232 9.40943 8.42549 9.11501 8.62486 8.74898C8.82424 8.38294 8.92392 7.96916 8.92392 7.50763C8.92392 7.04611 8.82424 6.63631 8.62486 6.27823C8.42549 5.92015 8.16232 5.63369 7.83535 5.41884C7.53353 5.22052 7.20113 5.11373 6.83815 5.09847L6.74677 5.09657H3.11021V18.6665C3.11021 18.8188 2.98674 18.9423 2.83443 18.9423H0.275783C0.123472 18.9423 0 18.8188 0 18.6665V2.50772C0 2.3554 0.123472 2.23193 0.275783 2.23193H6.96209Z" fill="#FDF8EB"/>
<path fill-rule="evenodd" clip-rule="evenodd" d="M21.998 18.9422C21.3919 19.1013 20.7938 19.1809 20.2037 19.1809C18.8798 19.1809 17.7115 18.9024 16.6987 18.3454C15.6859 17.7884 14.8964 17.0284 14.3302 16.0656C13.7639 15.1028 13.4808 14.0007 13.4808 12.7593C13.4808 11.7726 13.6403 10.8735 13.9593 10.0618C14.2783 9.25016 14.7209 8.54594 15.2872 7.94914C15.8534 7.35234 16.5312 6.89082 17.3208 6.56457C18.1103 6.23832 18.9755 6.0752 19.9166 6.0752C20.746 6.0752 21.5195 6.23434 22.2373 6.55263C22.955 6.87093 23.5771 7.3046 24.1034 7.85366C24.6298 8.40271 25.0325 9.05521 25.3116 9.81116C25.5907 10.5671 25.7223 11.3907 25.7064 12.2819L25.695 12.7697C25.688 13.0692 25.4432 13.3084 25.1436 13.3084H16.3829L16.385 13.3217C16.4612 13.8168 16.6136 14.2659 16.8423 14.6691C17.1852 15.2739 17.6716 15.7394 18.3017 16.0656C18.9317 16.3919 19.6694 16.555 20.5147 16.555C21.1048 16.555 21.6471 16.4595 22.1416 16.2685C22.4962 16.1316 23.1666 15.6631 23.5175 15.4091C23.6428 15.3183 23.8189 15.3454 23.9092 15.471L25.0509 17.0583C25.1366 17.1776 25.1141 17.3426 24.9975 17.432C24.6939 17.6648 24.1209 18.0892 23.7326 18.2857C23.1823 18.5642 22.6041 18.783 21.998 18.9422ZM16.4459 11.3034H22.8352L22.8354 11.1838C22.7876 10.6904 22.6281 10.2568 22.3569 9.88277C22.0858 9.50878 21.7389 9.21436 21.3162 8.99951C20.8935 8.78466 20.427 8.67724 19.9166 8.67724C19.135 8.67724 18.4771 8.82843 17.9428 9.13081C17.4085 9.43318 17.0057 9.86686 16.7346 10.4318L16.6882 10.533C16.5981 10.7382 16.5249 10.9607 16.4686 11.2006L16.4459 11.3034Z" fill="#FDF8EB"/>
<path d="M30.3236 18.9422C30.4759 18.9422 30.5994 18.8188 30.5994 18.6664V12.2342C30.5994 11.7886 30.6751 11.3868 30.8266 11.0287C30.9782 10.6706 31.1895 10.3563 31.4606 10.0857C31.7318 9.81519 32.0468 9.60432 32.4057 9.45313C32.7645 9.30194 33.1434 9.22635 33.5421 9.22635C33.7973 9.22635 34.0525 9.25818 34.3077 9.32183C34.4126 9.348 34.5404 9.39299 34.6546 9.43691C34.813 9.49788 34.9935 9.41188 35.0374 9.24787L35.7338 6.64728C35.74 6.62401 35.7433 6.60013 35.7406 6.5762C35.7272 6.45947 35.6444 6.09912 35.1334 6.09912C34.5237 6.09912 34.5788 6.09912 34.3077 6.09912C33.6856 6.09912 32.7081 6.09912 31.4606 7.18833C30.7802 7.75987 30.596 7.05822 30.5461 6.63638C30.5282 6.48512 30.4041 6.36171 30.2518 6.36171H27.9085C27.7562 6.36171 27.6327 6.48518 27.6327 6.6375V18.6664C27.6327 18.8188 27.7562 18.9422 27.9085 18.9422H30.3236Z" fill="#FDF8EB"/>
<path fill-rule="evenodd" clip-rule="evenodd" d="M39.5932 3.84146C40.6563 3.84146 41.5182 2.98152 41.5182 1.92073C41.5182 0.859941 40.6563 0 39.5932 0C38.5301 0 37.6682 0.859941 37.6682 1.92073C37.6682 2.98152 38.5301 3.84146 39.5932 3.84146ZM41.0416 18.3907C41.0416 18.6953 40.7947 18.9423 40.49 18.9423H38.6504C38.3458 18.9423 38.0989 18.6953 38.0989 18.3907V6.9133C38.0989 6.60868 38.3458 6.36174 38.6504 6.36174H40.49C40.7947 6.36174 41.0416 6.60868 41.0416 6.9133V18.3907Z" fill="#FDF8EB"/>
<path fill-rule="evenodd" clip-rule="evenodd" d="M50.2621 24.4345C50.1555 24.4336 50.0444 24.4327 49.9267 24.4327C48.9857 24.4327 48.0486 24.2895 47.1156 24.003C46.4092 23.7862 45.4766 23.2546 45.0651 23.0092C44.9444 22.9371 44.9011 22.7853 44.9623 22.6589L45.7732 20.9856C45.8448 20.8378 46.0289 20.7845 46.17 20.8686C46.4145 21.0142 46.7783 21.2223 47.0318 21.3294C47.4465 21.5044 47.8891 21.6397 48.3596 21.7352C48.8302 21.8307 49.2967 21.8784 49.7592 21.8784C50.6046 21.8784 51.3104 21.7471 51.8766 21.4845C52.4428 21.2219 52.8695 20.8241 53.1566 20.2909L53.2031 20.2009C53.4592 19.6836 53.5872 19.0492 53.5872 18.2976L53.587 17.1271L53.583 17.1329C53.4811 17.2768 53.3629 17.4184 53.2283 17.5576C52.7977 18.0032 52.2554 18.3653 51.6014 18.6438C50.9475 18.9223 50.2776 19.0615 49.5918 19.0615C48.3955 19.0615 47.3389 18.783 46.4217 18.226C45.5046 17.669 44.7789 16.9091 44.2446 15.9462C43.7103 14.9834 43.4431 13.8734 43.4431 12.6161C43.4431 11.3589 43.7063 10.2409 44.2326 9.2621C44.759 8.28335 45.4807 7.51149 46.3978 6.94652C47.3149 6.38155 48.1563 6.0752 50.452 6.0752C50.5276 6.0752 50.7257 6.09372 50.9792 6.12135C51.5647 6.18517 52.1015 6.4888 52.6364 6.79136C53.2335 7.12909 53.8283 7.46548 54.4857 7.46548C54.7766 7.46548 55.3383 6.85268 55.7559 6.34208C55.9255 6.13474 56.2789 6.25306 56.2789 6.52092V12.6519V18.0828C56.2789 19.5739 56.1215 20.1371 55.9664 20.6923C55.9289 20.8265 55.8916 20.9602 55.8566 21.1065C55.3451 22.5013 54.3969 23.5036 52.9414 24.003C51.6511 24.4457 51.0941 24.4412 50.2621 24.4345ZM47.8813 16.0537C48.4236 16.3879 49.0536 16.555 49.7713 16.555C50.4891 16.555 51.1231 16.3879 51.6734 16.0537C52.2236 15.7195 52.6503 15.2579 52.9533 14.6691C53.2564 14.0803 53.4079 13.4039 53.4079 12.64C53.4079 11.8602 53.2524 11.1719 52.9414 10.5751C52.6303 9.97826 52.2037 9.51276 51.6614 9.17855C51.1191 8.84434 50.4891 8.67724 49.7713 8.67724C49.0536 8.67724 48.4236 8.84832 47.8813 9.19049C47.339 9.53265 46.9123 10.0021 46.6013 10.5989C46.2903 11.1957 46.1348 11.8761 46.1348 12.64C46.1348 13.388 46.2903 14.0604 46.6013 14.6572C46.9123 15.254 47.339 15.7195 47.8813 16.0537Z" fill="#FDF8EB"/>
<path fill-rule="evenodd" clip-rule="evenodd" d="M68.1326 18.3335C67.1437 18.8985 66.0272 19.181 64.7831 19.181C63.5231 19.181 62.3986 18.8985 61.4097 18.3335C60.4208 17.7685 59.6393 16.9927 59.0651 16.006C58.4909 15.0193 58.2038 13.8973 58.2038 12.64C58.2038 11.3828 58.4909 10.2608 59.0651 9.27409C59.6393 8.28738 60.4208 7.51154 61.4097 6.94658C62.3986 6.38161 63.5231 6.09912 64.7831 6.09912C66.0272 6.09912 67.1437 6.38161 68.1326 6.94658C69.1214 7.51154 69.899 8.28738 70.4652 9.27409C71.0314 10.2608 71.3145 11.3828 71.3145 12.64C71.3145 13.8973 71.0314 15.0193 70.4652 16.006C69.899 16.9927 69.1214 17.7685 68.1326 18.3335ZM62.9289 16.0537C63.4792 16.4038 64.0973 16.5789 64.7831 16.5789C65.4689 16.5789 66.079 16.4038 66.6133 16.0537C67.1477 15.7036 67.5703 15.2341 67.8813 14.6453C68.1924 14.0564 68.3399 13.388 68.324 12.64C68.3399 11.8761 68.1924 11.1998 67.8813 10.6109C67.5703 10.0221 67.1477 9.55658 66.6133 9.21441C66.079 8.87225 65.4689 8.70116 64.7831 8.70116C64.0973 8.70116 63.4792 8.87225 62.9289 9.21441C62.3787 9.55658 61.952 10.0261 61.649 10.6229C61.3459 11.2197 61.1944 11.892 61.1944 12.64C61.1944 13.388 61.3459 14.0564 61.649 14.6453C61.952 15.2341 62.3787 15.7036 62.9289 16.0537Z" fill="#FDF8EB"/>
<path d="M75.9065 18.9422C76.0588 18.9422 76.1823 18.8188 76.1823 18.6664V11.351C76.1823 10.969 76.2581 10.6189 76.4096 10.3006C76.5611 9.98229 76.7685 9.69981 77.0316 9.45313C77.2948 9.20645 77.6058 9.01548 77.9647 8.8802C78.3236 8.74493 78.7183 8.67729 79.149 8.67729C79.6753 8.66138 80.1219 8.75289 80.4888 8.95182C80.8556 9.15075 81.1267 9.46109 81.3022 9.88283C81.4776 10.3046 81.5654 10.8337 81.5654 11.4703V18.6664C81.5654 18.8188 81.6888 18.9422 81.8411 18.9422H84.2323C84.3846 18.9422 84.5081 18.8188 84.5081 18.6664V11.2555C84.5081 10.5459 84.5291 9.70831 84.1457 8.67729C83.7624 7.64628 83.2653 7.08048 82.5383 6.67205C81.8114 6.26362 81.3022 6.09912 80.1917 6.09912C79.9794 6.09912 79.6062 6.13715 79.2253 6.18426C78.3964 6.28678 77.6294 6.64687 76.9294 7.10234C76.5367 7.35783 76.1823 7.54496 76.1823 7.3883C76.1823 7.1822 76.1823 6.86468 76.1823 6.63736C76.1823 6.48505 76.0588 6.36171 75.9065 6.36171H73.5153C73.363 6.36171 73.2396 6.48518 73.2396 6.6375V18.6664C73.2396 18.8188 73.363 18.9422 73.5153 18.9422H75.9065Z" fill="#FDF8EB"/>
</svg>
