<svg width="47" height="47" viewBox="0 0 47 47" fill="none" xmlns="http://www.w3.org/2000/svg">
<rect width="47" height="47" rx="4.2" fill="#121212"/>
<path fill-rule="evenodd" clip-rule="evenodd" d="M23.6996 9.87C17.8648 9.87 7.99023 11.0694 7.99023 15.5642C7.99023 16.0201 8.09358 16.4416 8.2822 16.832L9.1163 19.2332C9.72085 21.1376 20.1534 23.428 20.1534 23.428V25.1437C20.1534 25.1437 12.6329 24.1018 10.3658 22.8293L10.9582 24.5349C12.3031 26.3211 20.1534 27.6518 20.1534 27.6518V29.3734C20.1534 29.3734 13.9764 28.5964 12.0148 27.5762L12.4801 28.9162C13.3489 30.3872 20.1534 32.0565 20.1534 32.0565V33.782C20.1534 33.782 15.155 33.0055 13.6195 32.1954L14.1308 33.667C16.2923 36.4252 21.7256 36.8266 23.2811 36.885C23.516 36.8939 23.7033 36.7046 23.7033 36.4695V17.4986C23.7033 17.1857 23.3721 16.9661 23.0754 17.0656C21.8772 17.4674 19.0354 18.1606 15.1679 17.4214C13.9566 17.1312 13.0073 16.8027 12.3178 16.4886C12.305 16.4824 12.294 16.4762 12.2802 16.47C11.2561 16.0015 10.9344 15.4878 11.7474 14.9287C13.3419 14.0221 17.3049 12.8278 23.6996 12.8278C31.1961 12.8278 36.04 14.911 36.04 18.1348C36.04 20.9489 31.4468 22.4146 26.5924 22.8293C25.3715 22.8293 25.5697 23.428 25.5697 24.5349C25.5697 25.1361 25.5697 25.6522 26.5924 25.6522C33.1128 25.0748 39.0102 22.6449 39.0102 18.1348C39.0102 13.0367 33.1435 9.87 23.6996 9.87Z" fill="white"/>
</svg>
