<svg width="156" height="50" viewBox="0 0 156 50" fill="none" xmlns="http://www.w3.org/2000/svg">
<path d="M69.5914 13.7605C70.6577 13.7605 71.6219 14.0169 72.4839 14.5297C73.3459 15.0425 74.0345 15.741 74.55 16.6251C75.0654 17.5093 75.3231 18.4995 75.3231 19.5959C75.3231 20.7099 75.0654 21.7134 74.55 22.6064C74.0345 23.4994 73.3459 24.2111 72.4839 24.7416C71.6611 25.248 70.7452 25.5127 69.7362 25.5357L65.0843 25.5371C64.7424 25.5372 64.4665 25.2575 64.4713 24.9156L64.5033 22.6565C64.5057 22.489 64.6422 22.3544 64.8097 22.3544H69.3514C69.7958 22.3544 70.2001 22.2306 70.5644 21.9831C70.9288 21.7355 71.222 21.4084 71.4442 21.0017C71.6663 20.5949 71.7774 20.1352 71.7774 19.6224C71.7774 19.1096 71.6663 18.6542 71.4442 18.2564C71.222 17.8585 70.9288 17.5402 70.5644 17.3015C70.2281 17.0811 69.8577 16.9625 69.4533 16.9455L69.3514 16.9434H65.2993V32.0211C65.2993 32.1904 65.1621 32.3276 64.9929 32.3276H62.14C61.9708 32.3276 61.8336 32.1904 61.8336 32.0211V14.0669C61.8336 13.8977 61.9708 13.7605 62.14 13.7605H69.5914Z" fill="#121212"/>
<path fill-rule="evenodd" clip-rule="evenodd" d="M86.3458 32.3274C85.6704 32.5042 85.0039 32.5927 84.3463 32.5927C82.8712 32.5927 81.5694 32.2832 80.4408 31.6643C79.3122 31.0454 78.4325 30.201 77.8016 29.1312C77.1706 28.0614 76.8552 26.8369 76.8552 25.4576C76.8552 24.3612 77.0329 23.3622 77.3883 22.4603C77.7438 21.5585 78.237 20.776 78.8679 20.1129C79.4988 19.4498 80.2542 18.937 81.1339 18.5745C82.0137 18.212 82.9778 18.0308 84.0264 18.0308C84.9506 18.0308 85.8126 18.2076 86.6123 18.5612C87.4121 18.9149 88.1053 19.3968 88.6918 20.0068C89.2782 20.6169 89.727 21.3419 90.038 22.1818C90.3491 23.0218 90.4957 23.9369 90.4779 24.9271L90.4652 25.4691C90.4575 25.8019 90.1854 26.0677 89.8525 26.0677H80.0889L80.0913 26.0824C80.1762 26.6325 80.346 27.1316 80.6008 27.5795C80.9829 28.2515 81.5249 28.7687 82.2269 29.1312C82.929 29.4937 83.751 29.675 84.6929 29.675C85.3505 29.675 85.9548 29.5689 86.5057 29.3567C86.9012 29.2044 87.6493 28.683 88.0399 28.4009C88.1791 28.3005 88.3743 28.3304 88.4747 28.4696L89.7472 30.2338C89.8429 30.3664 89.8178 30.5503 89.6878 30.6496C89.3494 30.9083 88.7111 31.3797 88.2785 31.598C87.6654 31.9074 87.0211 32.1506 86.3458 32.3274ZM80.1591 23.8399H87.2786L87.2788 23.707C87.2255 23.1588 87.0478 22.677 86.7456 22.2614C86.4435 21.8459 86.057 21.5187 85.586 21.28C85.115 21.0413 84.5952 20.9219 84.0264 20.9219C83.1556 20.9219 82.4224 21.0899 81.8271 21.4259C81.2317 21.7619 80.7829 22.2437 80.4808 22.8715L80.429 22.9838C80.3287 23.2118 80.2471 23.4591 80.1844 23.7256L80.1591 23.8399Z" fill="#121212"/>
<path d="M95.6236 32.3275C95.7929 32.3275 95.93 32.1903 95.93 32.0211V24.8741C95.93 24.379 96.0145 23.9325 96.1833 23.5347C96.3521 23.1368 96.5876 22.7876 96.8898 22.4869C97.1919 22.1863 97.5429 21.952 97.9428 21.784C98.3427 21.6161 98.7648 21.5321 99.2091 21.5321C99.4935 21.5321 99.7778 21.5674 100.062 21.6382C100.18 21.6674 100.323 21.7176 100.45 21.7666C100.626 21.8341 100.826 21.7387 100.875 21.5567L101.651 18.6665C101.658 18.6406 101.662 18.614 101.659 18.5874C101.644 18.4575 101.552 18.0574 100.982 18.0574C100.303 18.0574 100.364 18.0574 100.062 18.0574C99.3691 18.0574 98.2798 18.0574 96.8898 19.2676C96.1316 19.9027 95.9263 19.123 95.8707 18.6543C95.8508 18.4863 95.7129 18.3491 95.5436 18.3491H92.9308C92.7615 18.3491 92.6243 18.4863 92.6243 18.6556V32.0211C92.6243 32.1903 92.7615 32.3275 92.9308 32.3275H95.6236Z" fill="#121212"/>
<path fill-rule="evenodd" clip-rule="evenodd" d="M105.952 15.5488C107.136 15.5488 108.097 14.5933 108.097 13.4147C108.097 12.236 107.136 11.2805 105.952 11.2805C104.767 11.2805 103.807 12.236 103.807 13.4147C103.807 14.5933 104.767 15.5488 105.952 15.5488ZM107.566 31.7146C107.566 32.0531 107.291 32.3275 106.953 32.3275H104.899C104.561 32.3275 104.287 32.0531 104.287 31.7146V18.962C104.287 18.6235 104.561 18.3491 104.899 18.3491H106.953C107.291 18.3491 107.566 18.6235 107.566 18.962V31.7146Z" fill="#121212"/>
<path fill-rule="evenodd" clip-rule="evenodd" d="M117.84 38.43C117.721 38.429 117.597 38.428 117.466 38.428C116.418 38.428 115.373 38.2689 114.334 37.9506C113.547 37.7096 112.508 37.1191 112.049 36.8463C111.915 36.7663 111.866 36.5973 111.935 36.4566L112.838 34.597C112.918 34.4331 113.122 34.374 113.279 34.4671C113.551 34.6289 113.958 34.8607 114.24 34.9798C114.703 35.1744 115.196 35.3247 115.72 35.4308C116.244 35.5369 116.764 35.5899 117.28 35.5899C118.222 35.5899 119.008 35.444 119.639 35.1523C120.27 34.8605 120.745 34.4184 121.065 33.826L121.117 33.726C121.402 33.1512 121.545 32.4463 121.545 31.6112L121.545 30.3106L121.54 30.317C121.427 30.477 121.295 30.6343 121.145 30.789C120.665 31.2841 120.061 31.6864 119.332 31.9959C118.604 32.3053 117.857 32.46 117.093 32.46C115.76 32.46 114.583 32.1506 113.561 31.5317C112.539 30.9128 111.73 30.0684 111.135 28.9986C110.539 27.9288 110.242 26.6954 110.242 25.2984C110.242 23.9015 110.535 22.6593 111.121 21.5718C111.708 20.4843 112.512 19.6266 113.534 18.9989C114.556 18.3712 115.493 18.0308 118.052 18.0308C118.136 18.0308 118.358 18.0515 118.641 18.0823C119.293 18.1532 119.891 18.4905 120.487 18.8266C121.152 19.2018 121.814 19.5755 122.546 19.5755C122.871 19.5755 123.498 18.8927 123.964 18.3248C124.152 18.0948 124.544 18.2264 124.544 18.5238V25.3382V31.3725C124.544 33.0294 124.369 33.6551 124.196 34.272C124.154 34.4211 124.113 34.5697 124.074 34.7322C123.504 36.282 122.447 37.3957 120.825 37.9506C119.388 38.4425 118.767 38.4375 117.84 38.43ZM115.187 29.118C115.791 29.4893 116.493 29.675 117.293 29.675C118.093 29.675 118.799 29.4893 119.412 29.118C120.026 28.7466 120.501 28.2338 120.839 27.5795C121.176 26.9253 121.345 26.1737 121.345 25.325C121.345 24.4585 121.172 23.6937 120.825 23.0306C120.479 22.3675 120.003 21.8503 119.399 21.4789C118.795 21.1076 118.093 20.9219 117.293 20.9219C116.493 20.9219 115.791 21.112 115.187 21.4922C114.583 21.8724 114.107 22.394 113.761 23.0571C113.414 23.7202 113.241 24.4762 113.241 25.325C113.241 26.1561 113.414 26.9032 113.761 27.5663C114.107 28.2294 114.583 28.7466 115.187 29.118Z" fill="#121212"/>
<path fill-rule="evenodd" clip-rule="evenodd" d="M137.753 31.6511C136.651 32.2789 135.407 32.5927 134.021 32.5927C132.617 32.5927 131.364 32.2789 130.262 31.6511C129.16 31.0234 128.289 30.1613 127.649 29.065C127.009 27.9687 126.689 26.722 126.689 25.3251C126.689 23.9281 127.009 22.6815 127.649 21.5851C128.289 20.4888 129.16 19.6267 130.262 18.999C131.364 18.3712 132.617 18.0574 134.021 18.0574C135.407 18.0574 136.651 18.3712 137.753 18.999C138.855 19.6267 139.721 20.4888 140.352 21.5851C140.983 22.6815 141.298 23.9281 141.298 25.3251C141.298 26.722 140.983 27.9687 140.352 29.065C139.721 30.1613 138.855 31.0234 137.753 31.6511ZM131.954 29.118C132.568 29.5071 133.256 29.7016 134.021 29.7016C134.785 29.7016 135.465 29.5071 136.06 29.118C136.655 28.729 137.126 28.2074 137.473 27.5531C137.819 26.8988 137.984 26.1562 137.966 25.3251C137.984 24.4763 137.819 23.7248 137.473 23.0705C137.126 22.4162 136.655 21.899 136.06 21.5188C135.465 21.1386 134.785 20.9485 134.021 20.9485C133.256 20.9485 132.568 21.1386 131.954 21.5188C131.341 21.899 130.866 22.4206 130.528 23.0837C130.191 23.7469 130.022 24.494 130.022 25.3251C130.022 26.1562 130.191 26.8988 130.528 27.5531C130.866 28.2074 131.341 28.729 131.954 29.118Z" fill="#121212"/>
<path d="M146.416 32.3275C146.585 32.3275 146.722 32.1903 146.722 32.0211V23.8927C146.722 23.4683 146.807 23.0793 146.976 22.7257C147.145 22.372 147.376 22.0581 147.669 21.784C147.962 21.51 148.309 21.2978 148.709 21.1475C149.108 20.9972 149.548 20.922 150.028 20.922C150.615 20.9043 151.112 21.006 151.521 21.227C151.93 21.4481 152.232 21.7929 152.427 22.2615C152.623 22.7301 152.721 23.318 152.721 24.0254V32.0211C152.721 32.1903 152.858 32.3275 153.027 32.3275H155.693C155.863 32.3275 156 32.1903 156 32.0211V23.7866C156 22.9982 156.023 22.0676 155.596 20.922C155.169 19.7764 154.615 19.1478 153.805 18.694C152.995 18.2401 152.427 18.0574 151.19 18.0574C150.952 18.0574 150.533 18.1001 150.107 18.1528C149.187 18.2664 148.336 18.6646 147.559 19.1691C147.12 19.4545 146.722 19.6645 146.722 19.4898C146.722 19.2608 146.722 18.908 146.722 18.6554C146.722 18.4862 146.585 18.3491 146.416 18.3491H143.75C143.581 18.3491 143.443 18.4863 143.443 18.6556V32.0211C143.443 32.1903 143.581 32.3275 143.75 32.3275H146.416Z" fill="#121212"/>
<rect width="50.2537" height="50" rx="4" fill="#F9C035"/>
<path fill-rule="evenodd" clip-rule="evenodd" d="M25.34 10.5C19.1013 10.5 8.54315 11.7759 8.54315 16.5577C8.54315 17.0427 8.65365 17.4911 8.85533 17.9063L9.74718 20.4609C10.3936 22.4868 21.5483 24.9235 21.5483 24.9235V26.7486C21.5483 26.7486 13.5072 25.6402 11.0831 24.2865L11.7165 26.101C13.1546 28.0012 21.5483 29.4169 21.5483 29.4169V31.2483C21.5483 31.2483 14.9437 30.4217 12.8463 29.3364L13.3439 30.7619C14.2728 32.3268 21.5483 34.1026 21.5483 34.1026V35.9383C21.5483 35.9383 16.2039 35.1123 14.5621 34.2504L15.1088 35.8159C17.4202 38.7505 23.2306 39.1773 24.8931 39.2394C25.144 39.2488 25.344 39.0466 25.344 38.7956V18.6168C25.344 18.283 24.991 18.0486 24.6744 18.1543C23.3943 18.5817 20.3548 19.3202 16.2178 18.5334C14.9226 18.2246 13.9075 17.8752 13.1703 17.5411C13.1567 17.5345 13.1449 17.5279 13.1301 17.5213C12.0351 17.0229 11.6912 16.4763 12.5604 15.8816C14.2653 14.9171 18.5026 13.6466 25.34 13.6466C33.3555 13.6466 38.5348 15.8628 38.5348 19.2923C38.5348 22.2861 33.6236 23.8453 28.4331 24.2865C27.1277 24.2865 27.3396 24.9235 27.3396 26.101C27.3396 26.7405 27.3396 27.2895 28.4331 27.2895C35.4049 26.6754 41.7106 24.0903 41.7106 19.2923C41.7106 13.8689 35.4378 10.5 25.34 10.5Z" fill="#121212"/>
</svg>
