<svg width="87" height="28" viewBox="0 0 87 28" fill="none" xmlns="http://www.w3.org/2000/svg">
<path d="M38.8103 7.70581C39.405 7.70581 39.9427 7.8494 40.4235 8.13657C40.9042 8.42374 41.2882 8.81488 41.5757 9.31001C41.8631 9.80513 42.0068 10.3597 42.0068 10.9736C42.0068 11.5975 41.8631 12.1594 41.5757 12.6595C41.2882 13.1596 40.9042 13.5582 40.4235 13.8552C39.9646 14.1388 39.4538 14.287 38.8911 14.2999L36.299 14.3007C36.1071 14.3008 35.9522 14.1438 35.9549 13.9519L35.9727 12.688C35.9741 12.5939 36.0507 12.5184 36.1447 12.5184H38.6765C38.9243 12.5184 39.1498 12.4491 39.353 12.3104C39.5562 12.1718 39.7197 11.9886 39.8436 11.7609C39.9675 11.5331 40.0295 11.2756 40.0295 10.9885C40.0295 10.7013 39.9675 10.4463 39.8436 10.2235C39.7197 10.0007 39.5562 9.82246 39.353 9.68877C39.1654 9.56537 38.9589 9.49893 38.7333 9.48944L38.6765 9.48825H36.4167V17.9314C36.4167 18.0264 36.3397 18.1034 36.2447 18.1034H34.6559C34.5609 18.1034 34.4839 18.0264 34.4839 17.9314V7.8778C34.4839 7.78281 34.5609 7.70581 34.6559 7.70581H38.8103Z" fill="#121212"/>
<path fill-rule="evenodd" clip-rule="evenodd" d="M48.1542 18.1035C47.7775 18.2026 47.4058 18.2521 47.0391 18.2521C46.2164 18.2521 45.4904 18.0788 44.861 17.7322C44.2316 17.3856 43.741 16.9128 43.3891 16.3137C43.0373 15.7146 42.8613 15.0288 42.8613 14.2564C42.8613 13.6425 42.9604 13.083 43.1587 12.578C43.3569 12.0729 43.632 11.6348 43.9838 11.2634C44.3357 10.8921 44.7569 10.6049 45.2476 10.4019C45.7382 10.1989 46.2759 10.0974 46.8607 10.0974C47.3761 10.0974 47.8568 10.1964 48.3028 10.3945C48.7489 10.5925 49.1354 10.8624 49.4625 11.204C49.7896 11.5456 50.0399 11.9516 50.2133 12.422C50.3868 12.8924 50.4685 13.4048 50.4586 13.9594L50.4516 14.2621C50.4472 14.4489 50.2945 14.5981 50.1077 14.5981H44.6648L44.6661 14.6063C44.7134 14.9144 44.8081 15.1939 44.9502 15.4447C45.1633 15.821 45.4656 16.1107 45.8571 16.3137C46.2486 16.5167 46.7071 16.6182 47.2324 16.6182C47.5991 16.6182 47.9361 16.5588 48.2434 16.4399C48.4635 16.3548 48.8796 16.0638 49.0978 15.9056C49.176 15.8489 49.2859 15.8658 49.3422 15.9442L50.0511 16.9312C50.1045 17.0055 50.0905 17.1083 50.0179 17.164C49.8291 17.3089 49.4733 17.5728 49.2321 17.6951C48.8901 17.8684 48.5308 18.0045 48.1542 18.1035ZM44.7039 13.3505H48.6744L48.6745 13.2761C48.6448 12.9691 48.5457 12.6993 48.3772 12.4666C48.2087 12.2339 47.9931 12.0507 47.7304 11.917C47.4678 11.7833 47.1779 11.7165 46.8607 11.7165C46.375 11.7165 45.9662 11.8105 45.6341 11.9987C45.3021 12.1868 45.0518 12.4567 44.8833 12.8082L44.8544 12.8711C44.7985 12.9988 44.753 13.1373 44.718 13.2865L44.7039 13.3505Z" fill="#121212"/>
<path d="M53.3273 18.1033C53.4223 18.1033 53.4993 18.0263 53.4993 17.9313V13.9295C53.4993 13.6522 53.5464 13.4021 53.6406 13.1793C53.7347 12.9565 53.8661 12.761 54.0346 12.5926C54.2031 12.4243 54.3988 12.2931 54.6218 12.199C54.8448 12.1049 55.0802 12.0579 55.328 12.0579C55.4866 12.0579 55.6452 12.0777 55.8038 12.1173C55.8687 12.1335 55.9478 12.1614 56.0186 12.1886C56.1174 12.2267 56.23 12.173 56.2574 12.0707L56.69 10.4532C56.6939 10.4387 56.6959 10.4238 56.6942 10.4089C56.6859 10.3362 56.6344 10.1121 56.3169 10.1121C55.938 10.1121 55.9723 10.1121 55.8038 10.1121C55.4172 10.1121 54.8098 10.1121 54.0346 10.7898C53.6119 11.1452 53.4974 10.7093 53.4663 10.4467C53.4551 10.3524 53.3777 10.2755 53.2827 10.2755H51.8278C51.7328 10.2755 51.6558 10.3525 51.6558 10.4474V17.9313C51.6558 18.0263 51.7328 18.1033 51.8278 18.1033H53.3273Z" fill="#121212"/>
<path fill-rule="evenodd" clip-rule="evenodd" d="M59.0883 8.70738C59.749 8.70738 60.2846 8.17231 60.2846 7.51226C60.2846 6.85221 59.749 6.31714 59.0883 6.31714C58.4277 6.31714 57.8921 6.85221 57.8921 7.51226C57.8921 8.17231 58.4277 8.70738 59.0883 8.70738ZM59.9884 17.7595C59.9884 17.9494 59.8344 18.1034 59.6444 18.1034H58.5037C58.3137 18.1034 58.1597 17.9494 58.1597 17.7595V10.6195C58.1597 10.4296 58.3137 10.2756 58.5037 10.2756H59.6444C59.8344 10.2756 59.9884 10.4296 59.9884 10.6195V17.7595Z" fill="#121212"/>
<path fill-rule="evenodd" clip-rule="evenodd" d="M65.718 21.521C65.6517 21.5204 65.5827 21.5199 65.5096 21.5199C64.9248 21.5199 64.3425 21.4308 63.7626 21.2525C63.3238 21.1176 62.7446 20.7871 62.4887 20.6343C62.4135 20.5894 62.3865 20.4948 62.4247 20.4159L62.9281 19.3756C62.9728 19.2834 63.0877 19.2501 63.1757 19.3026C63.3277 19.3932 63.5533 19.5224 63.7106 19.5889C63.9683 19.6978 64.2433 19.782 64.5357 19.8414C64.8281 19.9008 65.1181 19.9305 65.4055 19.9305C65.9308 19.9305 66.3694 19.8488 66.7213 19.6854C67.0731 19.5221 67.3383 19.2745 67.5167 18.9428L67.5456 18.8867C67.7047 18.5648 67.7843 18.1701 67.7843 17.7025L67.7841 16.9741L67.7817 16.9777C67.7184 17.0673 67.6449 17.1554 67.5613 17.242C67.2937 17.5193 66.9567 17.7446 66.5503 17.9179C66.1439 18.0912 65.7276 18.1778 65.3014 18.1778C64.558 18.1778 63.9014 18.0045 63.3315 17.6579C62.7616 17.3113 62.3106 16.8385 61.9785 16.2394C61.6465 15.6403 61.4805 14.9496 61.4805 14.1673C61.4805 13.385 61.644 12.6894 61.9711 12.0804C62.2982 11.4714 62.7467 10.9911 63.3166 10.6396C63.8865 10.288 64.4094 10.0974 65.836 10.0974C65.8829 10.0974 66.0058 10.1089 66.1631 10.1261C66.5271 10.1658 66.8607 10.3547 67.1932 10.543C67.5643 10.7532 67.9339 10.9625 68.3427 10.9625C68.5231 10.9625 68.8714 10.5824 69.1307 10.265C69.2365 10.1356 69.457 10.2094 69.457 10.3765V14.1896V17.5688C69.457 18.4966 69.3592 18.847 69.2628 19.1925C69.2395 19.276 69.2163 19.3592 69.1946 19.4502C68.8767 20.3181 68.2874 20.9418 67.383 21.2525C66.5812 21.528 66.235 21.5252 65.718 21.521ZM64.2385 16.3062C64.5755 16.5142 64.967 16.6182 65.413 16.6182C65.859 16.6182 66.253 16.5142 66.595 16.3062C66.9369 16.0983 67.2021 15.8111 67.3904 15.4447C67.5787 15.0783 67.6729 14.6575 67.6729 14.1822C67.6729 13.6969 67.5762 13.2687 67.383 12.8973C67.1897 12.526 66.9245 12.2363 66.5875 12.0284C66.2505 11.8204 65.859 11.7165 65.413 11.7165C64.967 11.7165 64.5755 11.8229 64.2385 12.0358C63.9015 12.2487 63.6363 12.5408 63.4431 12.9122C63.2498 13.2835 63.1531 13.7069 63.1531 14.1822C63.1531 14.6476 63.2498 15.066 63.4431 15.4373C63.6363 15.8086 63.9015 16.0983 64.2385 16.3062Z" fill="#121212"/>
<path fill-rule="evenodd" clip-rule="evenodd" d="M76.8233 17.7246C76.2088 18.0761 75.515 18.2519 74.7419 18.2519C73.9589 18.2519 73.2601 18.0761 72.6456 17.7246C72.031 17.373 71.5454 16.8903 71.1886 16.2763C70.8317 15.6624 70.6533 14.9643 70.6533 14.182C70.6533 13.3997 70.8317 12.7015 71.1886 12.0876C71.5454 11.4736 72.031 10.9909 72.6456 10.6394C73.2601 10.2878 73.9589 10.1121 74.7419 10.1121C75.515 10.1121 76.2088 10.2878 76.8233 10.6394C77.4379 10.9909 77.9211 11.4736 78.2729 12.0876C78.6248 12.7015 78.8007 13.3997 78.8007 14.182C78.8007 14.9643 78.6248 15.6624 78.2729 16.2763C77.9211 16.8903 77.4379 17.373 76.8233 17.7246ZM73.5897 16.306C73.9316 16.5239 74.3157 16.6328 74.7419 16.6328C75.1681 16.6328 75.5472 16.5239 75.8792 16.306C76.2113 16.0882 76.4739 15.7961 76.6672 15.4297C76.8605 15.0633 76.9522 14.6474 76.9423 14.182C76.9522 13.7066 76.8605 13.2858 76.6672 12.9194C76.4739 12.553 76.2113 12.2634 75.8792 12.0505C75.5472 11.8376 75.1681 11.7311 74.7419 11.7311C74.3157 11.7311 73.9316 11.8376 73.5897 12.0505C73.2477 12.2634 72.9826 12.5555 72.7942 12.9268C72.6059 13.2982 72.5118 13.7165 72.5118 14.182C72.5118 14.6474 72.6059 15.0633 72.7942 15.4297C72.9826 15.7961 73.2477 16.0882 73.5897 16.306Z" fill="#121212"/>
<path d="M81.6538 18.1033C81.7488 18.1033 81.8258 18.0263 81.8258 17.9313V13.3799C81.8258 13.1422 81.8729 12.9244 81.967 12.7263C82.0612 12.5283 82.19 12.3525 82.3536 12.199C82.5171 12.0455 82.7104 11.9267 82.9334 11.8425C83.1564 11.7583 83.4017 11.7163 83.6693 11.7163C83.9964 11.7064 84.274 11.7633 84.5019 11.8871C84.7299 12.0109 84.8984 12.204 85.0074 12.4664C85.1164 12.7288 85.171 13.058 85.171 13.4541V17.9313C85.171 18.0263 85.248 18.1033 85.343 18.1033H86.8277C86.9227 18.1033 86.9997 18.0263 86.9997 17.9313V13.3205C86.9997 12.8789 87.0127 12.3578 86.7745 11.7163C86.5363 11.0747 86.2274 10.7227 85.7756 10.4685C85.3238 10.2144 85.0074 10.1121 84.3173 10.1121C84.1861 10.1121 83.9558 10.1355 83.7202 10.1646C83.2029 10.2286 82.7243 10.4537 82.2874 10.738C82.0444 10.8961 81.8258 11.0113 81.8258 10.9142C81.8258 10.7861 81.8258 10.5888 81.8258 10.4474C81.8258 10.3524 81.7488 10.2755 81.6538 10.2755H80.1691C80.0741 10.2755 79.9971 10.3525 79.9971 10.4474V17.9313C79.9971 18.0263 80.0741 18.1033 80.1691 18.1033H81.6538Z" fill="#121212"/>
<rect width="28.0261" height="28" rx="2.24511" fill="#121212"/>
<path fill-rule="evenodd" clip-rule="evenodd" d="M14.1321 5.87988C10.6529 5.87988 4.76465 6.5944 4.76465 9.2722C4.76465 9.54377 4.82627 9.7949 4.93875 10.0274L5.43612 11.458C5.79661 12.5925 12.0175 13.957 12.0175 13.957V14.9791C12.0175 14.9791 7.53305 14.3584 6.18118 13.6003L6.53443 14.6164C7.33639 15.6806 12.0175 16.4733 12.0175 16.4733V17.4989C12.0175 17.4989 8.33418 17.0361 7.16448 16.4283L7.44196 17.2265C7.96005 18.1029 12.0175 19.0973 12.0175 19.0973V20.1253C12.0175 20.1253 9.03697 19.6628 8.12135 19.1801L8.42628 20.0568C9.71451 21.6992 12.9518 21.9389 13.8812 21.9739C14.022 21.9792 14.1343 21.8657 14.1343 21.7248V10.4269C14.1343 10.2394 13.9359 10.1077 13.7581 10.1673C13.0425 10.4067 11.3489 10.8186 9.04472 10.3786C8.32239 10.2057 7.75632 10.01 7.34515 9.82287C7.33757 9.81919 7.331 9.8155 7.32275 9.81182C6.71206 9.53271 6.52028 9.22663 7.00503 8.89358C7.95584 8.35347 10.319 7.64197 14.1321 7.64197C18.6023 7.64197 21.4908 8.88303 21.4908 10.8036C21.4908 12.4801 18.7518 13.3532 15.8571 13.6003C15.1291 13.6003 15.2473 13.957 15.2473 14.6164C15.2473 14.9746 15.2473 15.282 15.8571 15.282C19.7452 14.9381 23.2619 13.4904 23.2619 10.8036C23.2619 7.76644 19.7636 5.87988 14.1321 5.87988Z" fill="#FDF8EB"/>
</svg>
