<svg width="156" height="50" viewBox="0 0 156 50" fill="none" xmlns="http://www.w3.org/2000/svg">
<path d="M69.5913 13.7604C70.6576 13.7604 71.6218 14.0168 72.4838 14.5296C73.3457 15.0424 74.0344 15.7409 74.5498 16.625C75.0652 17.5091 75.3229 18.4994 75.3229 19.5957C75.3229 20.7098 75.0652 21.7133 74.5498 22.6063C74.0344 23.4992 73.3457 24.211 72.4838 24.7415C71.661 25.2478 70.7451 25.5125 69.736 25.5356L65.0856 25.537C64.7429 25.5371 64.4664 25.2567 64.4712 24.9141L64.5032 22.657C64.5055 22.4891 64.6423 22.3543 64.8103 22.3543H69.3513C69.7956 22.3543 70.2 22.2305 70.5643 21.9829C70.9287 21.7354 71.2219 21.4082 71.4441 21.0015C71.6662 20.5948 71.7773 20.1351 71.7773 19.6223C71.7773 19.1095 71.6662 18.6541 71.4441 18.2563C71.2219 17.8584 70.9287 17.5401 70.5643 17.3014C70.228 17.081 69.8576 16.9624 69.4532 16.9454L69.3513 16.9433H65.2992V32.0203C65.2992 32.1899 65.1617 32.3274 64.992 32.3274H62.1406C61.971 32.3274 61.8335 32.1899 61.8335 32.0203V14.0675C61.8335 13.8979 61.971 13.7604 62.1406 13.7604H69.5913Z" fill="#F9C035"/>
<path fill-rule="evenodd" clip-rule="evenodd" d="M86.3456 32.3274C85.6702 32.5043 85.0037 32.5927 84.3462 32.5927C82.871 32.5927 81.5692 32.2832 80.4406 31.6643C79.312 31.0454 78.4323 30.2011 77.8014 29.1312C77.1704 28.0614 76.855 26.8369 76.855 25.4576C76.855 24.3613 77.0327 23.3622 77.3882 22.4604C77.7436 21.5585 78.2368 20.7761 78.8677 20.113C79.4987 19.4498 80.254 18.937 81.1337 18.5745C82.0135 18.212 82.9777 18.0308 84.0262 18.0308C84.9504 18.0308 85.8124 18.2076 86.6122 18.5613C87.4119 18.9149 88.1051 19.3968 88.6916 20.0069C89.2781 20.6169 89.7268 21.3419 90.0378 22.1819C90.3489 23.0218 90.4955 23.9369 90.4777 24.9271L90.4651 25.4678C90.4573 25.8013 90.1846 26.0677 89.851 26.0677H80.0888L80.0911 26.0824C80.176 26.6326 80.3458 27.1316 80.6006 27.5796C80.9827 28.2515 81.5247 28.7687 82.2268 29.1312C82.9288 29.4937 83.7508 29.675 84.6927 29.675C85.3503 29.675 85.9546 29.5689 86.5055 29.3567C86.9008 29.2045 87.6484 28.6835 88.0392 28.4014C88.1786 28.3007 88.3743 28.3307 88.4749 28.4702L89.7466 30.2333C89.8425 30.3662 89.8173 30.5505 89.6871 30.65C89.3486 30.9088 88.7107 31.3798 88.2784 31.598C87.6652 31.9075 87.0209 32.1506 86.3456 32.3274ZM80.1589 23.8399H87.2784L87.2786 23.707C87.2253 23.1588 87.0476 22.677 86.7455 22.2614C86.4433 21.8459 86.0568 21.5187 85.5858 21.28C85.1148 21.0413 84.595 20.922 84.0262 20.922C83.1554 20.922 82.4223 21.0899 81.8269 21.4259C81.2315 21.7619 80.7827 22.2437 80.4806 22.8715L80.4289 22.9839C80.3285 23.2119 80.2469 23.4591 80.1842 23.7256L80.1589 23.8399Z" fill="#F9C035"/>
<path d="M95.6226 32.3274C95.7922 32.3274 95.9297 32.1899 95.9297 32.0203V24.8741C95.9297 24.379 96.0142 23.9325 96.183 23.5346C96.3518 23.1367 96.5873 22.7875 96.8895 22.4869C97.1916 22.1863 97.5426 21.952 97.9425 21.784C98.3424 21.616 98.7645 21.532 99.2088 21.532C99.4932 21.532 99.7775 21.5674 100.062 21.6381C100.179 21.6672 100.322 21.7174 100.449 21.7662C100.625 21.8339 100.826 21.7382 100.875 21.5558L101.651 18.6666C101.658 18.6406 101.662 18.6139 101.659 18.5872C101.644 18.4573 101.551 18.0573 100.982 18.0573C100.303 18.0573 100.364 18.0573 100.062 18.0573C99.3687 18.0573 98.2795 18.0573 96.8895 19.2676C96.1316 19.9023 95.9262 19.1238 95.8705 18.655C95.8505 18.4865 95.7123 18.3491 95.5426 18.3491H92.9311C92.7615 18.3491 92.624 18.4866 92.624 18.6562V32.0203C92.624 32.1899 92.7615 32.3274 92.9311 32.3274H95.6226Z" fill="#F9C035"/>
<path fill-rule="evenodd" clip-rule="evenodd" d="M105.952 15.5488C107.136 15.5488 108.097 14.5933 108.097 13.4146C108.097 12.236 107.136 11.2805 105.952 11.2805C104.767 11.2805 103.807 12.236 103.807 13.4146C103.807 14.5933 104.767 15.5488 105.952 15.5488ZM107.566 31.7132C107.566 32.0524 107.291 32.3274 106.951 32.3274H104.901C104.562 32.3274 104.287 32.0524 104.287 31.7132V18.9633C104.287 18.6241 104.562 18.3491 104.901 18.3491H106.951C107.291 18.3491 107.566 18.6241 107.566 18.9633V31.7132Z" fill="#F9C035"/>
<path fill-rule="evenodd" clip-rule="evenodd" d="M117.84 38.43C117.721 38.429 117.597 38.428 117.466 38.428C116.418 38.428 115.374 38.2689 114.334 37.9506C113.547 37.7098 112.509 37.1196 112.05 36.8467C111.915 36.7665 111.867 36.5971 111.935 36.4561L112.838 34.5977C112.918 34.4335 113.123 34.3742 113.28 34.4675C113.552 34.6293 113.958 34.8609 114.241 34.9799C114.703 35.1744 115.196 35.3247 115.72 35.4308C116.244 35.5369 116.764 35.5899 117.28 35.5899C118.222 35.5899 119.008 35.4441 119.639 35.1523C120.27 34.8605 120.745 34.4184 121.065 33.8261L121.117 33.726C121.402 33.1512 121.545 32.4463 121.545 31.6113L121.545 30.3107L121.54 30.3171C121.427 30.477 121.295 30.6343 121.145 30.789C120.665 31.2841 120.061 31.6864 119.332 31.9959C118.604 32.3053 117.857 32.4601 117.093 32.4601C115.76 32.4601 114.583 32.1506 113.561 31.5317C112.539 30.9128 111.73 30.0684 111.135 28.9986C110.539 27.9288 110.242 26.6954 110.242 25.2985C110.242 23.9015 110.535 22.6593 111.121 21.5718C111.708 20.4843 112.512 19.6267 113.534 18.9989C114.556 18.3712 115.494 18.0308 118.052 18.0308C118.136 18.0308 118.358 18.0515 118.641 18.0823C119.293 18.1532 119.891 18.4905 120.487 18.8266C121.152 19.2018 121.814 19.5756 122.546 19.5756C122.871 19.5756 123.497 18.894 123.962 18.3265C124.151 18.096 124.544 18.2279 124.544 18.526V25.3383V31.3726C124.544 33.0294 124.369 33.6551 124.196 34.272C124.154 34.4211 124.113 34.5697 124.074 34.7322C123.504 36.2821 122.447 37.3957 120.825 37.9506C119.388 38.4425 118.767 38.4375 117.84 38.43ZM115.187 29.118C115.791 29.4893 116.493 29.675 117.293 29.675C118.093 29.675 118.799 29.4893 119.413 29.118C120.026 28.7466 120.501 28.2338 120.839 27.5796C121.176 26.9253 121.345 26.1738 121.345 25.325C121.345 24.4585 121.172 23.6937 120.825 23.0306C120.479 22.3675 120.003 21.8503 119.399 21.479C118.795 21.1076 118.093 20.922 117.293 20.922C116.493 20.922 115.791 21.112 115.187 21.4922C114.583 21.8724 114.107 22.3941 113.761 23.0572C113.414 23.7203 113.241 24.4762 113.241 25.325C113.241 26.1561 113.414 26.9032 113.761 27.5663C114.107 28.2294 114.583 28.7466 115.187 29.118Z" fill="#F9C035"/>
<path fill-rule="evenodd" clip-rule="evenodd" d="M137.752 31.6511C136.651 32.2788 135.406 32.5927 134.02 32.5927C132.616 32.5927 131.363 32.2788 130.261 31.6511C129.159 31.0233 128.289 30.1613 127.649 29.0649C127.009 27.9686 126.689 26.722 126.689 25.325C126.689 23.9281 127.009 22.6814 127.649 21.5851C128.289 20.4887 129.159 19.6267 130.261 18.9989C131.363 18.3712 132.616 18.0573 134.02 18.0573C135.406 18.0573 136.651 18.3712 137.752 18.9989C138.854 19.6267 139.721 20.4887 140.352 21.5851C140.983 22.6814 141.298 23.9281 141.298 25.325C141.298 26.722 140.983 27.9686 140.352 29.0649C139.721 30.1613 138.854 31.0233 137.752 31.6511ZM131.954 29.118C132.567 29.507 133.256 29.7015 134.02 29.7015C134.784 29.7015 135.464 29.507 136.06 29.118C136.655 28.729 137.126 28.2073 137.473 27.5531C137.819 26.8988 137.983 26.1561 137.966 25.325C137.983 24.4762 137.819 23.7247 137.473 23.0704C137.126 22.4162 136.655 21.8989 136.06 21.5188C135.464 21.1386 134.784 20.9485 134.02 20.9485C133.256 20.9485 132.567 21.1386 131.954 21.5188C131.341 21.8989 130.866 22.4206 130.528 23.0837C130.19 23.7468 130.021 24.4939 130.021 25.325C130.021 26.1561 130.19 26.8988 130.528 27.5531C130.866 28.2073 131.341 28.729 131.954 29.118Z" fill="#F9C035"/>
<path d="M146.415 32.3274C146.585 32.3274 146.722 32.1899 146.722 32.0203V23.8927C146.722 23.4683 146.807 23.0793 146.976 22.7256C147.145 22.372 147.376 22.0581 147.669 21.784C147.962 21.5099 148.309 21.2977 148.709 21.1474C149.108 20.9971 149.548 20.922 150.028 20.922C150.615 20.9043 151.112 21.0059 151.521 21.227C151.93 21.448 152.232 21.7928 152.427 22.2614C152.623 22.73 152.721 23.318 152.721 24.0253V32.0203C152.721 32.1899 152.858 32.3274 153.028 32.3274H155.693C155.862 32.3274 156 32.1899 156 32.0203V23.7866C156 22.9981 156.023 22.0675 155.596 20.922C155.169 19.7764 154.615 19.1477 153.805 18.6939C152.995 18.2401 152.427 18.0573 151.19 18.0573C150.953 18.0573 150.535 18.0998 150.11 18.1524C149.188 18.2661 148.335 18.6654 147.557 19.1708C147.118 19.4553 146.722 19.6641 146.722 19.4897C146.722 19.261 146.722 18.9086 146.722 18.6561C146.722 18.4864 146.585 18.3491 146.415 18.3491H143.75C143.581 18.3491 143.443 18.4866 143.443 18.6562V32.0203C143.443 32.1899 143.581 32.3274 143.75 32.3274H146.415Z" fill="#F9C035"/>
<rect width="50.2537" height="50" rx="4.00912" fill="#F9C035"/>
<path fill-rule="evenodd" clip-rule="evenodd" d="M25.3398 10.5C19.1011 10.5 8.54297 11.7759 8.54297 16.5577C8.54297 17.0427 8.65347 17.4911 8.85515 17.9063L9.74699 20.4609C10.3934 22.4868 21.5481 24.9235 21.5481 24.9235V26.7486C21.5481 26.7486 13.507 25.6402 11.083 24.2865L11.7164 26.101C13.1544 28.0012 21.5481 29.4169 21.5481 29.4169V31.2483C21.5481 31.2483 14.9435 30.4217 12.8461 29.3364L13.3437 30.7619C14.2727 32.3268 21.5481 34.1026 21.5481 34.1026V35.9383C21.5481 35.9383 16.2037 35.1123 14.5619 34.2504L15.1086 35.8159C17.4195 38.7499 23.2279 39.1772 24.8919 39.2394C25.1433 39.2488 25.3438 39.0462 25.3438 38.7945V18.6185C25.3438 18.2839 24.99 18.049 24.6727 18.1548C23.3917 18.5822 20.353 19.3199 16.2176 18.5334C14.9224 18.2246 13.9073 17.8752 13.1701 17.5411C13.1565 17.5345 13.1447 17.5279 13.1299 17.5213C12.0349 17.0229 11.691 16.4763 12.5602 15.8816C14.2651 14.9171 18.5024 13.6466 25.3398 13.6466C33.3553 13.6466 38.5346 15.8628 38.5346 19.2923C38.5346 22.2861 33.6234 23.8453 28.4329 24.2865C27.1275 24.2865 27.3395 24.9235 27.3395 26.101C27.3395 26.7405 27.3395 27.2895 28.4329 27.2895C35.4047 26.6754 41.7104 24.0903 41.7104 19.2923C41.7104 13.8689 35.4376 10.5 25.3398 10.5Z" fill="#121212"/>
</svg>
