<svg width="341" height="226" viewBox="0 0 341 226" fill="none" xmlns="http://www.w3.org/2000/svg">
<path d="M68.4612 36.8759C68.4612 36.8759 78.9854 20.9726 99.1282 15.3188V44.5702C99.1282 44.5702 81.1085 50.8073 68.4612 69.2229V36.8759Z" fill="#C6C2B2"/>
<path d="M230.011 36.8759C230.011 36.8759 219.487 20.9726 199.344 15.3188V44.5702C199.344 44.5702 217.363 50.8073 230.011 69.2229V36.8759Z" fill="#C6C2B2"/>
<path d="M126.275 4.17541C126.275 4.17541 145.743 -5.21926 174.181 4.17541V32.0758C174.181 32.0758 148.784 23.1086 126.275 32.0758V4.17541Z" fill="#C6C2B2"/>
<path d="M210.338 83.606C210.16 90.4218 208.785 97.1532 206.275 103.492C205.779 104.747 205.241 105.976 204.662 107.181C204.618 107.276 204.574 107.371 204.528 107.467C204.226 108.089 203.912 108.705 203.587 109.317L203.335 109.784C203.251 109.94 203.165 110.096 203.079 110.251C203.062 110.283 203.044 110.314 203.028 110.346L202.82 110.715C202.746 110.849 202.671 110.975 202.596 111.106C202.406 111.436 202.213 111.766 202.015 112.091C201.944 112.212 201.871 112.33 201.797 112.45C201.686 112.629 201.573 112.811 201.459 112.996C201.365 113.146 201.271 113.295 201.175 113.443C201.08 113.591 201.01 113.701 200.927 113.829L200.868 113.921C200.778 114.055 200.686 114.189 200.599 114.332C200.511 114.474 200.403 114.625 200.303 114.771C200.204 114.918 200.103 115.066 200.001 115.212L199.732 115.606C199.615 115.773 199.496 115.939 199.376 116.105C199.287 116.229 199.199 116.351 199.107 116.473C198.997 116.625 198.886 116.776 198.773 116.926L198.454 117.348C198.34 117.499 198.224 117.648 198.109 117.797C198.027 117.903 197.944 118.008 197.862 118.113C197.503 118.568 197.137 119.019 196.762 119.465C196.663 119.584 196.565 119.701 196.464 119.818C196.363 119.935 196.236 120.086 196.12 120.221C196.005 120.355 195.889 120.49 195.772 120.624C195.655 120.759 195.566 120.858 195.462 120.974L195.303 121.15C195.201 121.263 195.099 121.376 194.995 121.487L194.708 121.798C194.588 121.932 194.467 122.054 194.346 122.182C194.225 122.31 194.123 122.417 194.01 122.534C193.623 122.937 193.228 123.335 192.828 123.727C192.715 123.835 192.602 123.947 192.488 124.056C192.374 124.165 192.234 124.301 192.105 124.421C191.976 124.542 191.86 124.651 191.738 124.766C191.046 125.41 190.338 126.037 189.615 126.648L189.346 126.876L188.914 127.234L188.517 127.535L188.103 127.864C187.969 127.973 187.826 128.082 187.687 128.189C187.547 128.297 187.409 128.404 187.267 128.511C187.149 128.601 187.032 128.689 186.914 128.779C186.796 128.869 186.696 128.942 186.588 129.021C185.951 129.492 185.304 129.948 184.649 130.391C184.514 130.483 184.38 130.571 184.245 130.66L183.802 130.952C183.01 131.468 182.204 131.965 181.383 132.442C180.978 132.68 180.57 132.912 180.159 133.139L179.691 133.394C178.911 133.816 178.12 134.219 177.318 134.604C176.997 134.758 176.676 134.91 176.352 135.06L175.864 135.281L175.375 135.498C175.213 135.569 175.049 135.64 174.884 135.71L174.39 135.919C174.06 136.056 173.728 136.19 173.395 136.322L173.071 136.448C172.845 136.538 172.618 136.624 172.391 136.706L171.887 136.892L171.379 137.073L170.898 137.241L170.847 137.259L170.358 137.423C170.187 137.479 170.016 137.536 169.844 137.589L169.392 137.733L169.294 137.764L168.811 137.911L168.408 138.029C168.193 138.092 167.978 138.153 167.763 138.213C167.59 138.263 167.415 138.31 167.239 138.357C167.063 138.404 166.912 138.446 166.747 138.491L166.691 138.506C166.523 138.55 166.355 138.593 166.185 138.641C166.051 138.677 165.903 138.71 165.761 138.745C165.515 138.805 165.266 138.864 165.019 138.92L164.592 139.016L164.062 139.13H164.048L163.587 139.225L163.439 139.255L162.981 139.344C162.821 139.374 162.662 139.404 162.502 139.432L162.099 139.505L161.717 139.571C161.561 139.598 161.403 139.623 161.246 139.647L160.813 139.715C160.63 139.743 160.449 139.77 160.266 139.795L159.718 139.87C159.537 139.895 159.354 139.919 159.171 139.94C158.988 139.962 158.804 139.985 158.619 140.005L158.12 140.06L157.968 140.075C157.834 140.09 157.7 140.102 157.565 140.115L157.452 140.126L156.955 140.169C156.768 140.185 156.583 140.2 156.396 140.213C156.209 140.227 156.024 140.24 155.837 140.252C155.464 140.278 155.089 140.299 154.713 140.314L154.183 140.337L153.526 140.357L153.017 140.368H152.51H152.004C151.579 140.368 151.157 140.363 150.738 140.354C135.52 140.042 121.031 133.778 110.377 122.904C110.219 122.744 110.064 122.584 109.911 122.423C109.821 122.333 109.731 122.24 109.642 122.144C109.564 122.064 109.486 121.982 109.409 121.898C109.333 121.815 109.249 121.728 109.17 121.642C109.026 121.487 108.883 121.331 108.742 121.174C108.434 120.835 108.131 120.493 107.832 120.147L107.794 120.103C107.701 119.995 107.609 119.887 107.517 119.779C107.456 119.707 107.394 119.635 107.333 119.561C107.253 119.467 107.173 119.373 107.095 119.277C106.757 118.871 106.424 118.46 106.098 118.043C105.98 117.895 105.865 117.748 105.752 117.598C105.639 117.449 105.507 117.281 105.388 117.12C105.3 117.006 105.214 116.891 105.13 116.776C104.869 116.426 104.613 116.073 104.361 115.716C104.264 115.582 104.167 115.448 104.073 115.305C104.048 115.271 104.025 115.238 104.002 115.204L103.947 115.124L103.766 114.855C103.647 114.681 103.529 114.508 103.415 114.333C103.406 114.321 103.397 114.309 103.389 114.296C103.248 114.084 103.109 113.872 102.971 113.658C102.967 113.653 102.963 113.647 102.959 113.641C102.817 113.42 102.676 113.2 102.536 112.977C101.7 111.646 100.918 110.28 100.19 108.88C103.714 110.97 107.393 112.788 111.194 114.317C120.959 118.264 131.546 120.437 142.058 120.974C142.405 120.992 142.752 121.007 143.1 121.021C146.731 121.175 150.367 121.124 153.992 120.87C160.434 120.414 166.821 119.275 172.903 117.301C178.086 115.621 183.047 113.333 187.633 110.348C191.797 107.623 195.6 104.383 198.953 100.704C203.577 95.6649 207.395 89.8471 210.338 83.606Z" fill="#1A1A1A"/>
<path d="M192.683 126.904C192.683 126.994 192.683 127.084 192.683 127.173C192.626 130.176 191.633 133.047 189.869 135.687C183.967 144.513 169.436 150.756 152.443 150.756C152.15 150.756 151.859 150.756 151.569 150.756C147.444 150.712 143.331 150.278 139.287 149.457C133.349 148.248 128.044 146.231 123.739 143.628C121.797 142.473 119.985 141.114 118.332 139.573C114.444 135.904 112.198 131.562 112.198 126.91C112.198 123.27 113.574 119.818 116.037 116.73C121 110.506 130.376 105.759 141.768 103.905C145.298 103.336 148.868 103.053 152.443 103.057C161.764 103.057 170.346 104.939 177.168 108.089C181.324 110.01 184.827 112.403 187.446 115.134C190.779 118.602 192.683 122.622 192.683 126.904Z" fill="#C2BEB5"/>
<mask id="path-6-inside-1_0_8181" fill="white">
<path d="M210.361 81.993C210.361 82.2134 210.361 82.4312 210.361 82.6517C210.361 82.9698 210.355 83.2879 210.342 83.606C210.336 83.8749 210.327 84.1437 210.314 84.4126C210.055 90.9526 208.693 97.4018 206.283 103.487C205.787 104.741 205.249 105.971 204.67 107.175C204.626 107.27 204.582 107.366 204.536 107.462C204.234 108.084 203.921 108.7 203.595 109.311L203.343 109.779C203.259 109.935 203.173 110.091 203.087 110.246L203.035 110.34L202.828 110.709C202.754 110.844 202.679 110.97 202.604 111.1C202.414 111.431 202.221 111.76 202.023 112.086C201.952 112.207 201.879 112.325 201.805 112.445C201.694 112.624 201.582 112.806 201.467 112.99C201.373 113.141 201.279 113.29 201.183 113.438C201.088 113.586 201.018 113.696 200.935 113.824L200.876 113.915C200.786 114.05 200.694 114.184 200.607 114.327C200.52 114.469 200.411 114.62 200.311 114.766C200.212 114.913 200.111 115.061 200.009 115.207L199.74 115.601C199.623 115.768 199.504 115.934 199.384 116.1C199.295 116.223 199.207 116.346 199.115 116.468C199.005 116.62 198.894 116.77 198.781 116.921L198.462 117.343C198.348 117.494 198.232 117.643 198.117 117.792C198.035 117.898 197.952 118.003 197.87 118.108C197.511 118.563 197.145 119.014 196.77 119.46C196.671 119.578 196.573 119.695 196.472 119.812C196.371 119.929 196.244 120.081 196.128 120.216C196.013 120.35 195.897 120.484 195.78 120.619C195.663 120.753 195.575 120.853 195.47 120.968L195.311 121.144C195.209 121.257 195.107 121.37 195.003 121.482L194.716 121.792C194.596 121.927 194.475 122.049 194.354 122.177C194.233 122.304 194.131 122.412 194.018 122.529C193.631 122.932 193.236 123.33 192.836 123.721C192.723 123.83 192.61 123.942 192.496 124.051C192.382 124.159 192.242 124.295 192.113 124.416C191.984 124.537 191.868 124.646 191.746 124.76C191.054 125.405 190.346 126.032 189.623 126.642L189.354 126.871L188.922 127.228L188.517 127.535L188.103 127.864C187.969 127.973 187.826 128.082 187.687 128.189C187.547 128.297 187.409 128.404 187.267 128.511C187.149 128.601 187.032 128.689 186.914 128.78C186.796 128.87 186.696 128.942 186.588 129.021C185.951 129.492 185.304 129.949 184.649 130.391C184.514 130.483 184.38 130.571 184.245 130.66L183.802 130.952C183.01 131.468 182.204 131.965 181.383 132.442C180.978 132.68 180.57 132.912 180.159 133.139L179.691 133.394C178.911 133.816 178.12 134.22 177.318 134.604C176.997 134.759 176.676 134.91 176.352 135.06L175.864 135.281L175.375 135.498C175.213 135.569 175.049 135.64 174.883 135.71L174.39 135.919C174.06 136.056 173.728 136.19 173.395 136.322L173.071 136.448C172.845 136.538 172.618 136.624 172.391 136.706L171.887 136.892L171.379 137.073L170.898 137.241L170.847 137.259L170.358 137.423C170.187 137.479 170.016 137.536 169.844 137.589L169.392 137.733L169.294 137.764L169.214 137.788L168.811 137.911L168.408 138.029C168.193 138.092 167.978 138.153 167.763 138.213C167.59 138.263 167.415 138.31 167.239 138.357C167.063 138.404 166.912 138.446 166.747 138.491L166.691 138.506C166.523 138.551 166.355 138.594 166.185 138.641C166.051 138.677 165.903 138.711 165.761 138.745C165.515 138.805 165.266 138.864 165.019 138.92L164.592 139.016L164.062 139.13H164.048L163.587 139.225L163.439 139.255L162.981 139.344C162.821 139.375 162.662 139.404 162.502 139.432L162.099 139.505L161.717 139.571C161.561 139.598 161.403 139.623 161.246 139.647L160.813 139.715C160.63 139.743 160.449 139.77 160.266 139.795L159.718 139.871C159.537 139.895 159.354 139.919 159.171 139.94C158.988 139.962 158.804 139.985 158.619 140.005L158.12 140.06L157.968 140.075C157.834 140.09 157.7 140.102 157.565 140.115L157.452 140.126L156.955 140.169C156.768 140.185 156.583 140.2 156.396 140.213C156.209 140.227 156.024 140.24 155.837 140.252C155.464 140.277 155.089 140.298 154.712 140.314L154.183 140.337L153.526 140.357L153.017 140.368H152.51H152.004C151.579 140.368 151.157 140.363 150.738 140.354C135.521 140.041 121.032 133.776 110.377 122.904C110.219 122.744 110.064 122.584 109.911 122.423C109.821 122.333 109.731 122.24 109.642 122.145C109.564 122.064 109.486 121.982 109.409 121.899C109.333 121.815 109.249 121.728 109.17 121.642C109.026 121.487 108.883 121.331 108.742 121.174C108.434 120.835 108.131 120.493 107.832 120.147L107.794 120.103C107.701 119.995 107.609 119.888 107.517 119.779C107.456 119.707 107.394 119.635 107.333 119.561C107.253 119.467 107.173 119.373 107.095 119.277C106.757 118.871 106.424 118.46 106.098 118.043C105.98 117.895 105.865 117.748 105.752 117.598C105.639 117.449 105.507 117.281 105.388 117.12C105.3 117.006 105.214 116.891 105.13 116.776C104.869 116.426 104.613 116.073 104.361 115.716C104.264 115.582 104.167 115.448 104.073 115.305C104.048 115.272 104.025 115.238 104.002 115.204L103.947 115.124L103.766 114.855C103.647 114.681 103.529 114.508 103.415 114.333C103.406 114.321 103.397 114.309 103.389 114.296C103.248 114.084 103.109 113.872 102.971 113.659C102.967 113.653 102.962 113.647 102.959 113.641C102.817 113.421 102.676 113.2 102.536 112.977C101.7 111.646 100.918 110.281 100.19 108.88C96.8187 102.4 94.7027 95.3416 93.9536 88.0755C93.9415 87.9613 93.9294 87.8457 93.9187 87.7301C93.8783 87.3201 93.8421 86.9074 93.8112 86.4948C93.7637 85.8764 93.7261 85.2558 93.6983 84.633C93.6598 83.7557 93.6401 82.8726 93.6392 81.9836C93.6392 81.3419 93.6495 80.7034 93.6701 80.0681C93.7131 78.7427 93.7995 77.4299 93.9294 76.1296C93.9509 75.9037 93.9738 75.6806 93.9993 75.4575C94.9706 66.7137 97.9154 58.305 102.611 50.8665C109.386 40.1245 119.468 31.8771 131.338 27.3684C133.029 26.7259 134.758 26.1622 136.524 25.6774C139.972 24.7307 143.501 24.1043 147.065 23.8063C147.613 23.7605 148.164 23.7225 148.717 23.692C149.805 23.6311 150.9 23.6006 152.002 23.6006C154.686 23.6001 157.367 23.7829 160.026 24.1477C170.179 25.5451 179.782 29.6059 187.859 35.9176C188.495 36.4131 189.119 36.9217 189.732 37.4432C190.18 37.8205 190.619 38.2045 191.05 38.5952C198.626 45.4172 204.285 54.1042 207.464 63.7924C207.619 64.2656 207.768 64.741 207.911 65.2186C209.041 68.994 209.783 72.8746 210.127 76.8003C210.282 78.5102 210.36 80.241 210.361 81.993Z"/>
</mask>
<path d="M210.361 81.993C210.361 82.2134 210.361 82.4312 210.361 82.6517C210.361 82.9698 210.355 83.2879 210.342 83.606C210.336 83.8749 210.327 84.1437 210.314 84.4126C210.055 90.9526 208.693 97.4018 206.283 103.487C205.787 104.741 205.249 105.971 204.67 107.175C204.626 107.27 204.582 107.366 204.536 107.462C204.234 108.084 203.921 108.7 203.595 109.311L203.343 109.779C203.259 109.935 203.173 110.091 203.087 110.246L203.035 110.34L202.828 110.709C202.754 110.844 202.679 110.97 202.604 111.1C202.414 111.431 202.221 111.76 202.023 112.086C201.952 112.207 201.879 112.325 201.805 112.445C201.694 112.624 201.582 112.806 201.467 112.99C201.373 113.141 201.279 113.29 201.183 113.438C201.088 113.586 201.018 113.696 200.935 113.824L200.876 113.915C200.786 114.05 200.694 114.184 200.607 114.327C200.52 114.469 200.411 114.62 200.311 114.766C200.212 114.913 200.111 115.061 200.009 115.207L199.74 115.601C199.623 115.768 199.504 115.934 199.384 116.1C199.295 116.223 199.207 116.346 199.115 116.468C199.005 116.62 198.894 116.77 198.781 116.921L198.462 117.343C198.348 117.494 198.232 117.643 198.117 117.792C198.035 117.898 197.952 118.003 197.87 118.108C197.511 118.563 197.145 119.014 196.77 119.46C196.671 119.578 196.573 119.695 196.472 119.812C196.371 119.929 196.244 120.081 196.128 120.216C196.013 120.35 195.897 120.484 195.78 120.619C195.663 120.753 195.575 120.853 195.47 120.968L195.311 121.144C195.209 121.257 195.107 121.37 195.003 121.482L194.716 121.792C194.596 121.927 194.475 122.049 194.354 122.177C194.233 122.304 194.131 122.412 194.018 122.529C193.631 122.932 193.236 123.33 192.836 123.721C192.723 123.83 192.61 123.942 192.496 124.051C192.382 124.159 192.242 124.295 192.113 124.416C191.984 124.537 191.868 124.646 191.746 124.76C191.054 125.405 190.346 126.032 189.623 126.642L189.354 126.871L188.922 127.228L188.517 127.535L188.103 127.864C187.969 127.973 187.826 128.082 187.687 128.189C187.547 128.297 187.409 128.404 187.267 128.511C187.149 128.601 187.032 128.689 186.914 128.78C186.796 128.87 186.696 128.942 186.588 129.021C185.951 129.492 185.304 129.949 184.649 130.391C184.514 130.483 184.38 130.571 184.245 130.66L183.802 130.952C183.01 131.468 182.204 131.965 181.383 132.442C180.978 132.68 180.57 132.912 180.159 133.139L179.691 133.394C178.911 133.816 178.12 134.22 177.318 134.604C176.997 134.759 176.676 134.91 176.352 135.06L175.864 135.281L175.375 135.498C175.213 135.569 175.049 135.64 174.883 135.71L174.39 135.919C174.06 136.056 173.728 136.19 173.395 136.322L173.071 136.448C172.845 136.538 172.618 136.624 172.391 136.706L171.887 136.892L171.379 137.073L170.898 137.241L170.847 137.259L170.358 137.423C170.187 137.479 170.016 137.536 169.844 137.589L169.392 137.733L169.294 137.764L169.214 137.788L168.811 137.911L168.408 138.029C168.193 138.092 167.978 138.153 167.763 138.213C167.59 138.263 167.415 138.31 167.239 138.357C167.063 138.404 166.912 138.446 166.747 138.491L166.691 138.506C166.523 138.551 166.355 138.594 166.185 138.641C166.051 138.677 165.903 138.711 165.761 138.745C165.515 138.805 165.266 138.864 165.019 138.92L164.592 139.016L164.062 139.13H164.048L163.587 139.225L163.439 139.255L162.981 139.344C162.821 139.375 162.662 139.404 162.502 139.432L162.099 139.505L161.717 139.571C161.561 139.598 161.403 139.623 161.246 139.647L160.813 139.715C160.63 139.743 160.449 139.77 160.266 139.795L159.718 139.871C159.537 139.895 159.354 139.919 159.171 139.94C158.988 139.962 158.804 139.985 158.619 140.005L158.12 140.06L157.968 140.075C157.834 140.09 157.7 140.102 157.565 140.115L157.452 140.126L156.955 140.169C156.768 140.185 156.583 140.2 156.396 140.213C156.209 140.227 156.024 140.24 155.837 140.252C155.464 140.277 155.089 140.298 154.712 140.314L154.183 140.337L153.526 140.357L153.017 140.368H152.51H152.004C151.579 140.368 151.157 140.363 150.738 140.354C135.521 140.041 121.032 133.776 110.377 122.904C110.219 122.744 110.064 122.584 109.911 122.423C109.821 122.333 109.731 122.24 109.642 122.145C109.564 122.064 109.486 121.982 109.409 121.899C109.333 121.815 109.249 121.728 109.17 121.642C109.026 121.487 108.883 121.331 108.742 121.174C108.434 120.835 108.131 120.493 107.832 120.147L107.794 120.103C107.701 119.995 107.609 119.888 107.517 119.779C107.456 119.707 107.394 119.635 107.333 119.561C107.253 119.467 107.173 119.373 107.095 119.277C106.757 118.871 106.424 118.46 106.098 118.043C105.98 117.895 105.865 117.748 105.752 117.598C105.639 117.449 105.507 117.281 105.388 117.12C105.3 117.006 105.214 116.891 105.13 116.776C104.869 116.426 104.613 116.073 104.361 115.716C104.264 115.582 104.167 115.448 104.073 115.305C104.048 115.272 104.025 115.238 104.002 115.204L103.947 115.124L103.766 114.855C103.647 114.681 103.529 114.508 103.415 114.333C103.406 114.321 103.397 114.309 103.389 114.296C103.248 114.084 103.109 113.872 102.971 113.659C102.967 113.653 102.962 113.647 102.959 113.641C102.817 113.421 102.676 113.2 102.536 112.977C101.7 111.646 100.918 110.281 100.19 108.88C96.8187 102.4 94.7027 95.3416 93.9536 88.0755C93.9415 87.9613 93.9294 87.8457 93.9187 87.7301C93.8783 87.3201 93.8421 86.9074 93.8112 86.4948C93.7637 85.8764 93.7261 85.2558 93.6983 84.633C93.6598 83.7557 93.6401 82.8726 93.6392 81.9836C93.6392 81.3419 93.6495 80.7034 93.6701 80.0681C93.7131 78.7427 93.7995 77.4299 93.9294 76.1296C93.9509 75.9037 93.9738 75.6806 93.9993 75.4575C94.9706 66.7137 97.9154 58.305 102.611 50.8665C109.386 40.1245 119.468 31.8771 131.338 27.3684C133.029 26.7259 134.758 26.1622 136.524 25.6774C139.972 24.7307 143.501 24.1043 147.065 23.8063C147.613 23.7605 148.164 23.7225 148.717 23.692C149.805 23.6311 150.9 23.6006 152.002 23.6006C154.686 23.6001 157.367 23.7829 160.026 24.1477C170.179 25.5451 179.782 29.6059 187.859 35.9176C188.495 36.4131 189.119 36.9217 189.732 37.4432C190.18 37.8205 190.619 38.2045 191.05 38.5952C198.626 45.4172 204.285 54.1042 207.464 63.7924C207.619 64.2656 207.768 64.741 207.911 65.2186C209.041 68.994 209.783 72.8746 210.127 76.8003C210.282 78.5102 210.36 80.241 210.361 81.993Z" fill="#F6F1E3" stroke="#EBE7D8" stroke-width="4" mask="url(#path-6-inside-1_0_8181)"/>
<path d="M210.31 84.418C210.131 88.8158 209.455 93.1791 208.294 97.4246C206.816 99.2621 204.552 100.651 203.736 99.7621C202.385 98.301 205.107 98.3359 203.89 96.575C202.073 93.9458 198.469 99.2634 195.655 97.6948C194.247 96.9097 193.946 95.4096 192.132 94.9821C191.076 96.407 190.48 97.9622 191.162 99.6869C191.024 99.7977 190.866 99.8799 190.697 99.9288C191.1 100.735 191.829 101.3 192.676 101.676C191.956 102.914 190.095 104.902 188.759 105.296C188.161 104.104 188.94 103.322 189.755 102.53C188.38 103.695 186.395 104.412 185.007 105.576C184.096 106.335 180.058 110.509 180.121 107.104C178.924 108.465 179.44 109.65 179.061 110.966C178.111 114.276 176.386 115.55 178.869 118.812C174.496 119.794 177.794 107.81 176.599 105.331C175.197 106.576 175.344 110.355 174.703 112.072C174.238 113.317 173.993 113.792 173.937 115.05C173.869 116.586 174.655 117.515 173.454 119.082C173.158 118.994 173.005 118.796 172.716 118.616C172.247 119.342 172.75 119.471 172.957 119.815C172.197 119.56 170.647 119.486 170.03 119.105C168.137 117.937 168.295 115.182 167.919 113.246C167.565 111.43 166.812 109.522 166.871 107.557C166.958 104.615 168.483 101.59 169.224 98.8118C169.749 96.8466 171.578 93.6379 171.582 91.998C171.582 91.0436 170.465 90.5678 170.483 89.4709C170.508 87.9533 172.693 85.8832 173.512 84.7205C175.969 81.2255 177.793 77.0517 181.019 74.1725C187.832 68.0913 197.797 65.8384 206.408 64.025C206.761 63.9511 207.113 63.8731 207.464 63.7952C208.846 68.0151 209.739 72.3795 210.127 76.8031C209.568 76.5342 209.15 76.1686 209.093 75.8191C208.675 77.8354 206.122 79.9633 207.162 81.868C208.127 81.6513 209.127 82.0448 209.687 82.8614C208.446 83.1383 207.133 83.1303 205.959 83.6424C205.855 84.532 206.23 85.4102 206.944 85.9504C207.812 84.9759 209.132 84.9369 210.31 84.418Z" fill="#C5C1B0"/>
<path d="M167.95 10.1114C167.842 9.71687 167.783 9.31056 167.774 8.90161C167.804 9.30846 167.863 9.71269 167.95 10.1114Z" fill="#F8BF30"/>
<path d="M191.047 38.6033C189.944 41.1156 188.747 43.5487 187.593 45.862C186.322 48.397 185.21 51.0085 184.263 53.6813C183.826 54.9207 183.611 56.7192 182.5 57.5378C181.472 58.296 176.587 58.2772 175.71 57.0808C174.315 55.1814 177.635 52.5105 175.824 50.9499C177.74 49.4336 178.182 49.2024 178.028 46.5476C177.343 46.0583 176.351 45.5085 175.323 45.4507C172.469 45.2908 172.755 47.8837 170.938 49.2736C171.493 47.7426 172.079 44.8378 171.947 42.8927C172.373 43.0849 173.068 42.9545 173.474 43.1105C173.401 41.6318 175.864 40.1881 176.685 40.6385C175.363 39.0536 175.284 35.7348 173.15 35.3705C172.72 36.2621 171.79 36.8015 170.803 36.7322C171.358 35.5883 172.179 34.5573 172.508 33.326C171.876 32.6918 170.956 32.4397 170.089 32.6633C170.367 34.2548 169.076 35.5036 169.062 37.2013C169.053 38.5805 170.821 41.3563 169.902 42.1211C166.615 44.8593 169.23 33.123 165.637 37.5508C163.239 36.3692 162.166 37.0938 161.579 34.365C161.028 31.8016 162.001 32.3729 162.959 30.0111C160.926 29.9157 159.933 26.5982 160.024 24.1477C170.178 25.5452 179.781 29.6059 187.857 35.9176C188.493 36.4132 189.118 36.9217 189.731 37.4433C190.176 37.8259 190.615 38.2126 191.047 38.6033Z" fill="#C5C1B0"/>
<path d="M154.753 81.9313C154.461 83.0066 152.894 83.348 152.603 84.6035C152.199 86.3349 153.87 87.5205 154.066 89.0919C154.269 90.7183 153.334 91.8703 153.064 93.2925C152.939 93.9512 152.803 94.716 152.701 95.5131C152.684 95.6437 152.58 95.7457 152.449 95.7603C152.318 95.775 152.194 95.6985 152.148 95.575C150.861 92.1015 147.695 89.7841 144.966 94.4996C144.356 95.5548 145.504 96.0441 144.294 96.9649C142.83 98.0725 140.935 96.7189 139.344 97.8628C136.033 100.249 135.783 106.416 134.172 109.728C133.634 110.818 132.131 112.11 131.957 113.266C131.761 114.587 133.103 116.144 133.384 117.369C126.469 121.224 125.513 115.18 120.182 112.072C117.065 110.255 115.199 108.211 112.545 105.647C110.064 103.25 109.499 103.375 110.933 99.3979C108.016 98.6451 108.864 102.174 109.273 103.797C109.791 105.85 110.409 106.81 110.371 108.962C110.347 110.341 109.761 111.232 110.037 112.629C106.82 110.84 106.14 108.368 105.746 105.269C105.527 103.561 106.59 103.474 105.456 101.675C104.943 100.868 103.752 100.672 103.056 100.062C100.307 97.6652 97.5466 94.2644 95.7997 91.0369C93.5221 86.8174 95.9341 83.7648 95.3778 79.6515C95.2111 78.4 94.6535 77.24 93.9158 76.1337C93.9373 75.9079 93.9601 75.6847 93.9856 75.4616C94.9569 66.7178 97.9018 58.3091 102.598 50.8706C104.363 51.2295 106.211 51.3626 107.965 51.8264C107.197 52.2162 106.719 52.6625 105.687 52.7928C107.497 54.0336 113.229 53.3171 114.529 51.247C115.469 49.7536 114.338 44.0098 118.56 46.8488C116.976 45.0287 113.482 42.6521 117.599 41.6063C120.564 40.8536 125.837 45.026 121.616 47.0329C123.02 47.5182 124.541 47.2466 125.951 47.7185C124.157 48.9417 122.429 51.4352 121.574 53.4744C120.151 56.8658 121.46 57.9102 124.262 59.815C123.661 60.8231 122.515 61.4361 121.297 61.6377C123.158 64.431 127.397 62.6136 129.977 62.2991C131.283 62.1391 132.664 62.2641 134.277 62.4174C133.773 61.7251 133.696 60.6457 133.442 59.8244C137.378 60.8043 134.685 62.1795 136.193 64.2267C137.503 66.0051 139.497 65.4539 139.713 63.6715C139.91 62.0585 137.026 59.0878 136.605 57.3887C136.079 55.2528 137.512 53.5523 136.921 51.8774C136.634 51.8922 134.422 52.0603 134.169 51.8075C133.27 50.911 134.615 49.5775 133.969 48.8261C132.515 47.1378 127.168 48.9403 131.349 44.7088C134.109 45.9562 135.256 47.8905 138.617 47.1458C138.161 46.4132 138.18 45.4669 137.954 44.8271C139.598 45.3419 141.128 45.6591 142.658 46.5275C144.539 47.5961 145.835 49.6474 148.108 50.0009C149.9 50.2792 152.767 48.365 152.459 51.0965C152.222 53.1975 149.906 52.0831 150.183 55.32C150.426 58.2423 153.358 62.9067 156.665 62.4443C158.734 67.6302 153.479 69.6707 152.867 73.948C152.513 76.5356 155.429 79.4418 154.753 81.9313Z" fill="#C5C1B0"/>
<path d="M169.217 137.791L168.814 137.913L168.411 138.032C168.196 138.095 167.981 138.155 167.766 138.216C167.592 138.265 167.418 138.313 167.241 138.36C167.065 138.407 166.915 138.448 166.75 138.494L166.693 138.509C166.525 138.553 166.357 138.596 166.188 138.643C166.054 138.679 165.906 138.713 165.763 138.748C165.517 138.807 165.269 138.866 165.022 138.923L164.594 139.018L164.065 139.132H164.05L163.589 139.228L163.441 139.258L162.983 139.346C162.823 139.377 162.665 139.407 162.505 139.435L162.102 139.508L161.72 139.573C161.563 139.6 161.406 139.626 161.248 139.65L160.816 139.717C160.633 139.745 160.452 139.772 160.269 139.798L159.721 139.873C159.539 139.897 159.356 139.922 159.174 139.943C158.991 139.965 158.807 139.987 158.621 140.008L158.123 140.063L157.971 140.077C157.837 140.092 157.702 140.104 157.568 140.118L157.455 140.129L156.958 140.172C156.771 140.188 156.586 140.202 156.399 140.216C156.212 140.229 156.027 140.243 155.84 140.255C155.466 140.279 155.091 140.301 154.715 140.317L154.186 140.34L153.529 140.36L153.019 140.371H152.513H152.006C151.581 140.371 151.16 140.366 150.74 140.357C142.428 140.188 134.249 138.237 126.754 134.636C126.378 133.485 126.486 132.05 126.569 130.937C126.703 129.227 126.686 127.442 127.544 125.888C128.191 124.717 131.092 121.496 132.612 122.026C134.433 122.662 132.546 125.096 135.223 125.665C137.117 126.068 140.826 123.96 140.274 127.856C144.364 127.941 147.229 123.8 147.339 129.853C148.612 130.039 149.939 130.257 151.135 130.724C150.926 131.8 150.523 132.944 150.576 134.085C153.451 134.456 157.225 131.871 159.452 130.308C156.396 130.594 157.472 128.492 157.603 126.586C157.647 125.93 156.768 125.747 156.903 125.124C157.111 124.169 158.796 122.946 159.5 122.436C160.091 123.299 161.359 124.577 161.012 125.645C160.719 125.51 160.367 125.469 160.071 125.298C160.712 127.606 163.028 126.498 164.459 127.56C163.662 129.894 163.205 130.262 166.099 130.921C165.653 131.298 165.371 132.114 165.09 132.518C166.422 133.172 167.952 132.989 168.902 134.316C167.932 135.623 168.83 136.116 169.046 137.158C169.082 137.374 169.139 137.586 169.217 137.791Z" fill="#F8BF30"/>
<path d="M167.231 69.6129C168.037 66.8922 165.812 64.9646 164.812 62.7507C164.107 61.178 164.429 57.4142 166.656 57.1414C166.859 58.4856 166.946 60.2962 168.224 61.0396C168.931 61.4495 169.897 60.9804 170.665 61.3635C171.376 61.7184 171.804 62.6741 172.412 63.1661C173.353 63.9256 175.276 64.2065 176.019 65.0063C177.242 66.325 176.14 66.7955 175.854 68.3763C173.782 68.3494 172.846 66.7632 170.858 67.399C169.397 67.8695 170.131 67.6342 169.136 68.9086C168.56 69.6492 168.643 70.1936 167.666 70.5418C167.582 70.5123 167.509 70.4556 167.461 70.3805C167.534 70.1931 167.597 70.002 167.65 69.8078C167.568 69.5121 167.192 69.699 167.231 69.6129Z" fill="#C5C1B0"/>
<path d="M134.378 31.9091C132.965 33.2157 135.61 34.5828 136.743 34.7185C137.928 34.861 138.526 34.2817 139.611 34.7535C140.494 35.1366 140.813 36.1246 141.849 36.3464C142.777 35.2455 142.373 32.6162 141.338 31.5973C140.731 30.9978 139.418 31.0959 138.651 30.6496C137.883 30.2033 137.456 29.1172 136.501 29.1038C135.115 29.0823 134.515 30.362 135.709 31.1322C135.504 30.9091 135.236 30.7719 135.013 30.5703C134.621 31.4427 134.541 32.2976 134.378 31.9091Z" fill="#C5C1B0"/>
<path d="M127.524 36.3451C128.293 33.4873 133.211 36.911 130.909 38.5335C128.954 39.9113 127.467 36.8559 128.331 35.5386" fill="#C5C1B0"/>
<path d="M148.889 113.969C147.393 112.746 143.089 106.685 146.043 104.947C147.754 105.908 148.676 107.454 150.376 108.224C152.076 108.994 152.818 109.716 153.484 111.922C153.831 113.068 154.625 114.376 152.472 114.148C150.881 113.98 150.877 112.199 149.937 111.365C149.964 112.332 150.086 113.105 149.499 113.883C148.976 113.69 148.348 113.476 148.889 113.969Z" fill="#C5C1B0"/>
<path fill-rule="evenodd" clip-rule="evenodd" d="M302.995 117.237L301.745 116.625C302.064 116.747 302.374 116.889 302.674 117.051C302.784 117.111 302.89 117.171 302.995 117.237Z" stroke="black" stroke-width="0.5"/>
<path d="M177.49 188.075L168.599 191.032C167.647 191.336 166.954 192.159 166.815 193.148C166.699 194.089 167.102 195.256 170.821 197.213L207.371 218.142C209.218 219.216 211.499 219.216 213.345 218.142L264.588 188.704C265.005 188.451 265.266 188.005 265.284 187.518C265.301 187.031 265.073 186.567 264.675 186.285L259.736 182.782L177.49 188.075Z" fill="#C2BEB5"/>
<path d="M264.045 185.976L261.761 187.3L213.02 215.627C211.744 216.369 210.169 216.375 208.887 215.644L168.037 192.351C166.9 191.703 166.75 187.255 167.873 186.585L216.064 160.871L218.648 159.331C219.935 158.563 221.537 158.551 222.836 159.298L264.046 180.869C265.189 181.528 265.183 185.316 264.045 185.976Z" fill="#E3DDD1"/>
<path d="M264.045 183.208L261.761 184.532L213.02 212.86C211.744 213.602 210.169 213.608 208.887 212.876L168.037 189.584C167.507 189.283 167.178 188.722 167.172 188.113C167.166 187.504 167.485 186.937 168.009 186.626L216.064 158.106L218.648 156.566C219.936 155.798 221.537 155.785 222.836 156.533L264.036 180.248C264.566 180.551 264.893 181.115 264.895 181.725C264.897 182.336 264.573 182.901 264.045 183.208Z" fill="#F8F2E4"/>
<path d="M264.045 183.208L261.761 184.532L216.064 158.106L218.648 156.566C219.935 155.798 221.537 155.785 222.836 156.533L264.036 180.248C264.566 180.551 264.893 181.115 264.895 181.725C264.897 182.336 264.573 182.901 264.045 183.208Z" fill="#D9D5CA"/>
<path d="M227.754 200.832C227.616 200.832 227.48 200.796 227.359 200.727C226.111 200.013 224.847 199.283 223.624 198.576L223.312 198.396C222.152 197.724 220.919 197.016 219.705 196.323C219.31 196.098 218.891 195.873 218.488 195.651C217.628 195.211 216.793 194.725 215.986 194.194C214.45 193.144 212.777 192.206 211.161 191.299C210.463 190.908 209.742 190.504 209.039 190.089C208.658 189.866 208.529 189.377 208.752 188.995C208.974 188.614 209.464 188.486 209.845 188.708C210.537 189.112 211.252 189.515 211.944 189.901C213.591 190.824 215.295 191.783 216.889 192.87C217.649 193.367 218.435 193.824 219.243 194.238C219.657 194.46 220.084 194.689 220.5 194.925C221.716 195.62 222.951 196.333 224.112 197.002L224.423 197.182C225.646 197.888 226.909 198.617 228.154 199.333C228.468 199.513 228.623 199.882 228.53 200.232C228.437 200.582 228.119 200.826 227.757 200.825L227.754 200.832Z" fill="#D9D5CA"/>
<path d="M206.022 188.293C205.886 188.293 205.752 188.258 205.634 188.191C203.519 187.011 201.27 185.747 199.091 184.414C198.84 184.268 198.688 183.998 198.693 183.709C198.699 183.419 198.86 183.155 199.116 183.019C199.371 182.882 199.681 182.895 199.924 183.052C202.074 184.369 204.31 185.623 206.412 186.797C206.73 186.974 206.888 187.344 206.796 187.696C206.704 188.048 206.386 188.294 206.022 188.293Z" fill="#D9D5CA"/>
<path d="M220.91 189.752C220.774 189.751 220.641 189.716 220.523 189.649C218.406 188.469 216.159 187.206 213.98 185.872C213.729 185.727 213.577 185.457 213.582 185.167C213.588 184.878 213.749 184.613 214.005 184.477C214.26 184.341 214.57 184.353 214.813 184.51C216.963 185.828 219.199 187.082 221.299 188.255C221.617 188.432 221.775 188.802 221.683 189.154C221.592 189.507 221.273 189.752 220.91 189.752Z" fill="#D9D5CA"/>
<path d="M226.6 186.054C226.464 186.053 226.33 186.018 226.212 185.951C224.097 184.771 221.849 183.508 219.669 182.174C219.419 182.029 219.266 181.759 219.272 181.469C219.277 181.18 219.438 180.915 219.694 180.779C219.949 180.643 220.259 180.655 220.502 180.812C222.652 182.13 224.888 183.385 226.99 184.557C227.308 184.734 227.466 185.104 227.374 185.456C227.282 185.809 226.964 186.054 226.6 186.054Z" fill="#D9D5CA"/>
<path d="M195.959 182.49C195.817 182.491 195.678 182.454 195.556 182.383C194.75 181.917 193.943 181.456 193.159 181.01C191.843 180.261 190.48 179.487 189.141 178.682C188.896 178.535 188.748 178.269 188.753 177.984C188.758 177.699 188.914 177.438 189.164 177.299C189.413 177.16 189.717 177.165 189.962 177.312C191.287 178.108 192.64 178.877 193.949 179.622C194.736 180.07 195.55 180.533 196.355 181.001C196.668 181.182 196.82 181.551 196.726 181.9C196.631 182.249 196.314 182.491 195.952 182.49H195.959Z" fill="#D9D5CA"/>
<path d="M211.948 211.029C211.809 211.029 211.673 210.993 211.553 210.924C210.305 210.21 209.04 209.48 207.817 208.773L207.506 208.593C206.346 207.921 205.112 207.213 203.899 206.52C203.503 206.295 203.085 206.071 202.68 205.855C201.821 205.414 200.987 204.927 200.18 204.397C198.644 203.347 196.971 202.408 195.354 201.501C194.657 201.111 193.935 200.707 193.232 200.291C192.851 200.069 192.723 199.579 192.945 199.198C193.168 198.817 193.657 198.688 194.039 198.911C194.731 199.314 195.447 199.717 196.139 200.103C197.786 201.028 199.49 201.985 201.084 203.072C201.844 203.57 202.63 204.027 203.438 204.441C203.852 204.663 204.279 204.891 204.693 205.128C205.911 205.823 207.145 206.535 208.306 207.205L208.618 207.385C209.841 208.09 211.104 208.819 212.348 209.535C212.663 209.716 212.816 210.086 212.721 210.436C212.627 210.786 212.308 211.029 211.945 211.026L211.948 211.029Z" fill="#D9D5CA"/>
<path d="M190.21 198.495C190.074 198.496 189.941 198.46 189.823 198.393C187.707 197.213 185.46 195.949 183.28 194.616C183.03 194.471 182.878 194.201 182.883 193.911C182.888 193.622 183.05 193.357 183.305 193.221C183.561 193.085 183.87 193.097 184.114 193.254C186.264 194.572 188.5 195.827 190.6 196.999C190.918 197.176 191.076 197.546 190.984 197.898C190.892 198.25 190.574 198.496 190.21 198.495Z" fill="#D9D5CA"/>
<path d="M180.148 192.687C180.007 192.687 179.868 192.65 179.745 192.58C178.939 192.116 178.133 191.653 177.349 191.207C176.032 190.458 174.671 189.684 173.331 188.879C173.087 188.732 172.939 188.466 172.944 188.181C172.948 187.896 173.105 187.635 173.354 187.496C173.604 187.357 173.908 187.362 174.152 187.509C175.477 188.305 176.83 189.075 178.138 189.819C178.925 190.268 179.74 190.73 180.546 191.198C180.859 191.379 181.011 191.748 180.916 192.097C180.822 192.446 180.504 192.688 180.143 192.687H180.148Z" fill="#D9D5CA"/>
<path d="M222.545 204.132C222.403 204.131 222.264 204.094 222.142 204.023C221.433 203.609 220.724 203.196 220.015 202.785C217.678 201.433 215.293 200.072 212.987 198.752L212.366 198.399C211.983 198.18 211.85 197.692 212.068 197.309C212.287 196.926 212.774 196.793 213.157 197.011L213.777 197.365C216.085 198.681 218.473 200.043 220.813 201.398C221.529 201.81 222.241 202.223 222.948 202.638C223.259 202.82 223.41 203.188 223.316 203.537C223.222 203.885 222.905 204.127 222.545 204.126V204.132Z" fill="#D9D5CA"/>
<path d="M209.463 196.627C209.322 196.629 209.183 196.592 209.06 196.521C206.902 195.286 204.056 193.647 201.177 191.937C200.797 191.712 200.673 191.222 200.898 190.842C201.123 190.463 201.613 190.338 201.992 190.563C204.862 192.268 207.7 193.902 209.854 195.134C210.17 195.314 210.325 195.685 210.23 196.036C210.135 196.387 209.815 196.629 209.451 196.626L209.463 196.627Z" fill="#D9D5CA"/>
<path d="M197.949 189.945C197.807 189.945 197.668 189.907 197.546 189.835C195.429 188.585 193.221 187.329 191.086 186.114C188.724 184.77 186.282 183.383 183.933 181.983C183.555 181.758 183.43 181.267 183.656 180.888C183.882 180.509 184.372 180.385 184.75 180.611C187.086 182.002 189.521 183.387 191.872 184.727C194.013 185.937 196.227 187.203 198.355 188.46C198.657 188.645 198.8 189.008 198.707 189.35C198.614 189.692 198.306 189.932 197.951 189.938L197.949 189.945Z" fill="#D9D5CA"/>
<path d="M216.511 207.046C216.369 207.047 216.23 207.009 216.108 206.936C215.399 206.522 214.689 206.11 213.98 205.699C211.643 204.347 209.259 202.987 206.952 201.667L206.332 201.313C206.078 201.175 205.919 200.91 205.915 200.621C205.912 200.332 206.065 200.064 206.315 199.92C206.566 199.775 206.874 199.778 207.123 199.926L207.743 200.279C210.052 201.597 212.438 202.958 214.779 204.312C215.496 204.724 216.207 205.138 216.913 205.554C217.225 205.736 217.375 206.104 217.281 206.452C217.187 206.801 216.871 207.042 216.51 207.042L216.511 207.046Z" fill="#D9D5CA"/>
<path d="M203.433 199.537C203.294 199.537 203.157 199.501 203.036 199.432C200.88 198.196 198.032 196.557 195.153 194.847C194.783 194.618 194.664 194.135 194.887 193.76C195.109 193.386 195.59 193.259 195.968 193.475C198.838 195.179 201.678 196.813 203.831 198.045C204.145 198.226 204.298 198.596 204.203 198.946C204.109 199.296 203.79 199.538 203.427 199.536L203.433 199.537Z" fill="#D9D5CA"/>
<path d="M191.915 192.863C191.773 192.863 191.634 192.824 191.512 192.752C189.396 191.502 187.188 190.246 185.053 189.032C182.692 187.688 180.249 186.299 177.9 184.902C177.521 184.676 177.397 184.186 177.623 183.807C177.848 183.428 178.338 183.303 178.717 183.529C181.052 184.919 183.487 186.305 185.839 187.644C187.981 188.862 190.194 190.12 192.321 191.377C192.631 191.559 192.781 191.926 192.687 192.274C192.593 192.621 192.278 192.863 191.918 192.863H191.915Z" fill="#D9D5CA"/>
<path d="M243.789 190.823C243.647 190.822 243.508 190.783 243.386 190.71C241.783 189.758 240.177 188.837 238.624 187.949C236.889 186.954 235.095 185.932 233.312 184.857C233.06 184.714 232.905 184.446 232.907 184.156C232.909 183.866 233.068 183.6 233.323 183.461C233.577 183.322 233.887 183.332 234.132 183.487C235.903 184.549 237.69 185.572 239.418 186.563C240.976 187.455 242.588 188.379 244.202 189.337C244.504 189.523 244.647 189.886 244.554 190.228C244.461 190.57 244.153 190.809 243.799 190.816L243.789 190.823Z" fill="#D9D5CA"/>
<path d="M230.279 182.979C230.138 182.98 229.998 182.942 229.876 182.87C228.716 182.198 227.557 181.526 226.397 180.854C226.016 180.631 225.888 180.142 226.11 179.761C226.333 179.379 226.823 179.251 227.204 179.474C228.362 180.15 229.521 180.822 230.68 181.49C230.993 181.671 231.145 182.04 231.05 182.389C230.956 182.739 230.638 182.981 230.277 182.979H230.279Z" fill="#D9D5CA"/>
<path d="M205.533 167.615L223.198 177.621L210.428 184.754L192.656 174.854L205.533 167.615Z" fill="#D9D5CA"/>
<path d="M218.806 162.2L221.755 163.902L219.109 168.097L219.152 168.122L224.083 165.246L226.177 166.456L217.937 171.26L215.518 169.868L218.712 164.733L218.669 164.707L212.656 168.216L210.562 167.006L218.806 162.2Z" fill="#121212"/>
<path d="M228.142 167.592L234.55 171.292L233.373 171.977L229.315 169.635L227.136 170.904L230.361 172.766L229.184 173.453L225.959 171.591L223.429 173.07L227.489 175.412L226.311 176.098L219.903 172.401L228.142 167.592Z" fill="#121212"/>
<path d="M235.548 171.865L237.813 173.173L232.528 177.475L232.571 177.5L240.014 174.448L242.577 175.926L237.356 180.26L237.399 180.284L244.777 177.193L246.808 178.365L237.051 182.294L234.124 180.606L238.612 176.749L238.569 176.723L231.946 179.347L228.83 177.546L235.548 171.865Z" fill="#121212"/>
<path d="M241.531 182.607L242.001 182.338L244.224 183.621L243.658 183.95C243.069 184.293 243.327 184.688 244.076 185.119C244.824 185.551 245.506 185.699 246.117 185.341C246.8 184.938 246.766 184.419 245.969 183.098C244.957 181.408 244.987 180.647 245.929 180.097C247.223 179.343 249.194 179.607 251.48 180.925C253.766 182.244 254.144 183.337 252.824 184.106L252.482 184.305L250.261 183.022L250.684 182.776C251.273 182.432 251.069 182.056 250.322 181.624C249.574 181.193 248.923 181.076 248.358 181.405C247.758 181.756 247.813 182.294 248.61 183.614C249.621 185.304 249.582 186.046 248.559 186.642C247.215 187.426 245.225 187.149 242.915 185.818C240.605 184.488 240.212 183.376 241.531 182.607Z" fill="#121212"/>
<path fill-rule="evenodd" clip-rule="evenodd" d="M228.882 196.152C229.739 196.443 230.416 196.609 230.911 196.651L231.205 195.962C230.569 195.859 229.948 195.679 229.356 195.424C228.531 195.085 227.733 194.684 226.968 194.224C225.682 193.463 224.982 192.696 224.868 191.925C224.754 191.153 225.27 190.432 226.415 189.762C226.925 189.473 227.473 189.256 228.043 189.118C228.687 188.957 229.347 188.874 230.009 188.871C230.72 188.868 231.428 188.951 232.119 189.117C233.395 189.433 234.572 190.064 235.542 190.952C235.841 191.218 236.063 191.561 236.184 191.944C236.27 192.278 236.205 192.634 236.007 192.917C235.801 193.234 235.434 193.548 234.903 193.858C234.246 194.245 233.508 194.475 232.747 194.53C232.446 194.552 232.145 194.538 231.848 194.488C231.619 194.453 231.398 194.379 231.195 194.268C231.124 194.228 231.065 194.17 231.025 194.1C230.992 194.034 231.016 193.976 231.102 193.926C231.279 193.84 231.463 193.766 231.651 193.707L235.582 192.272L234.441 191.6L233.572 191.885C233.732 191.696 233.759 191.429 233.639 191.212C233.47 190.939 233.23 190.717 232.945 190.569C232.524 190.32 232.066 190.139 231.588 190.031C231.106 189.92 230.612 189.868 230.117 189.876C229.621 189.885 229.129 189.957 228.651 190.089C228.18 190.216 227.729 190.404 227.307 190.648C227.056 190.791 226.83 190.972 226.635 191.186C226.473 191.354 226.368 191.569 226.334 191.8C226.313 192.039 226.379 192.277 226.518 192.472C226.729 192.755 227 192.987 227.311 193.152C227.643 193.35 228 193.503 228.373 193.607C228.74 193.708 229.124 193.737 229.503 193.694C229.364 193.828 229.329 194.037 229.417 194.209C229.499 194.414 229.745 194.639 230.155 194.881C230.505 195.075 230.885 195.211 231.279 195.284C231.762 195.381 232.254 195.416 232.745 195.39C233.308 195.361 233.866 195.271 234.409 195.121C235.006 194.959 235.578 194.717 236.11 194.401C236.768 194.019 237.205 193.616 237.422 193.191C237.635 192.797 237.68 192.334 237.545 191.906C237.37 191.415 237.074 190.975 236.685 190.628C236.192 190.166 235.647 189.763 235.062 189.426C234.272 188.957 233.423 188.596 232.537 188.351C231.691 188.114 230.818 187.983 229.94 187.961C229.099 187.94 228.26 188.031 227.443 188.23C226.663 188.416 225.914 188.714 225.22 189.117C224.658 189.424 224.166 189.844 223.774 190.351C223.467 190.748 223.315 191.244 223.35 191.745C223.39 192.227 223.618 192.72 224.034 193.223C224.449 193.727 225.076 194.227 225.915 194.722C226.853 195.298 227.847 195.777 228.882 196.152ZM230.148 193.002C229.517 193.062 228.982 192.962 228.543 192.702C228.135 192.46 227.941 192.234 227.97 192.03C227.998 191.825 228.19 191.617 228.549 191.407C229.231 191.003 229.876 190.801 230.482 190.801C231.024 190.781 231.56 190.911 232.033 191.175C232.37 191.371 232.52 191.575 232.505 191.786C232.49 191.998 232.303 192.205 231.952 192.41C231.402 192.738 230.786 192.94 230.148 193.002Z" fill="#272727"/>
<path d="M324.145 56.7576C324.233 56.8524 324.234 56.9983 324.148 57.0944L323.139 58.218V91.0167C323.139 91.4639 322.9 91.877 322.513 92.1001L268.42 123.272L263.449 134.849L262.582 141.539L259.857 139.819L259.647 139.685H259.638C259.342 139.45 259.174 139.09 259.182 138.712V130.761C259.184 130.487 259.094 130.22 258.928 130.001L254.077 134.049L251.793 132.48L251.008 131.942C250.876 131.739 250.807 131.502 250.808 131.26V96.4446C250.807 95.9976 251.046 95.5844 251.433 95.3612L321.261 55.0349C321.677 54.7912 322.198 54.8122 322.594 55.0887L322.615 55.1035L324.145 56.7576Z" fill="#4D4C4A" stroke="#4D4C4A" stroke-width="2"/>
<path d="M110.983 139.676L77.1822 159.378C76.1522 159.978 75.5175 161.079 75.5142 162.272C75.5109 163.464 76.1395 164.569 77.166 165.175L157.167 212.404C158.228 213.03 159.546 213.025 160.602 212.392L175.526 203.235" stroke="#F8BF30" stroke-width="1.34328"/>
<path d="M108.139 130.258L58.152 160.031C57.1264 160.627 56.4909 161.719 56.4799 162.906C56.4689 164.092 57.0839 165.196 58.0983 165.811L154.625 224.511C155.691 225.159 157.029 225.163 158.099 224.521L184.529 208.456" stroke="#F8BF30" stroke-width="1.34328"/>
<path d="M251.797 132.476C251.475 132.406 251.194 132.213 251.012 131.938L251.797 132.476Z" fill="#F8BF30"/>
<path d="M259.855 139.815C259.781 139.778 259.711 139.733 259.646 139.681L259.855 139.815Z" fill="#F8BF30"/>
<path d="M325.587 92.631C325.588 93.0783 325.349 93.4917 324.961 93.7144L270.87 124.887L264.028 140.815C263.49 142.064 261.629 141.681 261.629 140.322V132.374C261.629 131.927 261.391 131.515 261.005 131.292C260.619 131.068 260.143 131.068 259.756 131.29L255.133 133.955C254.747 134.177 254.271 134.177 253.884 133.953C253.498 133.73 253.26 133.318 253.26 132.871V98.0508C253.261 97.604 253.499 97.1912 253.885 96.9674L323.713 56.6411C324.098 56.4185 324.573 56.4178 324.96 56.6393C325.346 56.8608 325.585 57.2712 325.587 57.7165V92.631Z" fill="#121212"/>
<path d="M258.622 72.7837L256.293 77.354C256.17 77.5962 256.199 77.8881 256.367 78.1014L258.485 80.7898C258.63 80.9735 258.857 81.0724 259.09 81.0535C259.323 81.0346 259.531 80.9003 259.644 80.6957L262.032 76.3795C262.164 76.1404 262.145 75.8464 261.983 75.6267L259.806 72.691C259.663 72.4961 259.429 72.389 259.188 72.4079C258.947 72.4268 258.733 72.5689 258.622 72.7837Z" fill="#F8BF30"/>
<path d="M323.756 27.3724L321.243 32.3083C321.111 32.5697 321.142 32.8842 321.322 33.1148L323.607 36.021C323.763 36.2198 324.008 36.3271 324.259 36.3068C324.511 36.2866 324.736 36.1413 324.858 35.9202L327.434 31.2625C327.574 31.0062 327.554 30.692 327.381 30.456L325.032 27.2702C324.878 27.0604 324.626 26.9455 324.366 26.9663C324.106 26.9871 323.875 27.1406 323.756 27.3724Z" fill="#F8BF30"/>
<path d="M337.228 58.4546L334.717 63.3919C334.584 63.6532 334.615 63.9681 334.796 64.1984L337.08 67.1046C337.236 67.3034 337.481 67.4107 337.733 67.3904C337.985 67.3702 338.209 67.2249 338.331 67.0038L340.907 62.3407C341.048 62.0844 341.027 61.7702 340.855 61.5342L338.506 58.3498C338.351 58.1396 338.098 58.0246 337.838 58.046C337.578 58.0673 337.347 58.2219 337.228 58.4546Z" fill="#F8BF30"/>
<path d="M234.989 135.233L231.786 141.521C231.616 141.855 231.656 142.257 231.886 142.551L234.798 146.252C234.998 146.504 235.311 146.639 235.631 146.612C235.952 146.585 236.237 146.399 236.392 146.117L239.673 140.184C239.855 139.855 239.829 139.451 239.606 139.149L236.614 135.093C236.416 134.826 236.093 134.681 235.762 134.71C235.431 134.738 235.139 134.936 234.989 135.233Z" fill="#F8BF30"/>
<path d="M309.307 116.039L306.012 122.51C305.837 122.853 305.877 123.267 306.115 123.569L309.112 127.379C309.317 127.638 309.638 127.778 309.968 127.751C310.298 127.724 310.592 127.534 310.753 127.244L314.129 121.138C314.316 120.8 314.289 120.384 314.061 120.073L310.981 115.898C310.777 115.623 310.446 115.473 310.104 115.502C309.763 115.53 309.462 115.734 309.307 116.039Z" fill="#F8BF30"/>
<path d="M127.618 140.22C127.618 140.22 147.087 149.616 175.524 140.22V112.321C175.524 112.321 150.128 121.287 127.618 112.321V140.22Z" fill="#121212"/>
<path d="M141.924 134.207C141.924 136.439 139.862 138.101 137.681 137.627L133.075 136.626C131.466 136.277 130.318 134.853 130.318 133.206V127.891C130.318 125.659 132.38 123.997 134.561 124.471L139.167 125.472C140.776 125.821 141.924 127.245 141.924 128.892V134.207Z" fill="#D9D5CA" stroke="#121212" stroke-width="5"/>
<path d="M158.322 128.715C162.535 128.325 166.714 127.633 170.828 126.643" stroke="#D9D5CA" stroke-width="1.34328" stroke-linecap="round" stroke-linejoin="round"/>
<path d="M142.705 128.812C146.794 129.013 150.894 129.054 154.988 128.935" stroke="#D9D5CA" stroke-width="1.34328" stroke-linecap="round" stroke-linejoin="round"/>
<path d="M167.278 132.067C168.474 131.825 169.657 131.556 170.828 131.261" stroke="#D9D5CA" stroke-width="1.34328" stroke-linecap="round" stroke-linejoin="round"/>
<path d="M157.815 133.374C159.906 133.221 161.981 132.979 164.031 132.655" stroke="#D9D5CA" stroke-width="1.34328" stroke-linecap="round" stroke-linejoin="round"/>
<path d="M144.705 133.433C147.948 133.675 151.205 133.724 154.454 133.579" stroke="#D9D5CA" stroke-width="1.34328" stroke-linecap="round" stroke-linejoin="round"/>
<path d="M163.685 137.268C166.103 136.896 168.499 136.426 170.828 135.877" stroke="#D9D5CA" stroke-width="1.34328" stroke-linecap="round" stroke-linejoin="round"/>
<path d="M153.714 138.216C155.934 138.134 158.148 137.966 160.339 137.716" stroke="#D9D5CA" stroke-width="1.34328" stroke-linecap="round" stroke-linejoin="round"/>
<path d="M143.066 137.966C143.419 137.976 144.42 138.064 144.788 138.075C146.527 138.127 148.407 138.189 150.207 138.24" stroke="#D9D5CA" stroke-width="1.34328" stroke-linecap="round" stroke-linejoin="round"/>
<path d="M142.677 118.537C143.168 118.596 143.661 118.651 144.155 118.702C144.52 119.858 144.887 121.011 145.254 122.162H145.275C145.291 121.045 145.308 119.928 145.325 118.811C145.676 118.842 146.028 118.87 146.379 118.897L146.298 124.495C145.892 124.464 145.489 124.431 145.089 124.395C144.636 122.989 144.184 121.579 143.733 120.167H143.711L143.651 124.251C143.301 124.213 142.952 124.173 142.604 124.13L142.677 118.537Z" fill="#D9D5CA"/>
<path d="M147.264 118.96C148.339 119.028 149.419 119.073 150.505 119.094L150.493 119.901C149.81 119.885 149.125 119.86 148.44 119.827C148.44 120.32 148.425 120.814 148.418 121.306C148.961 121.332 149.505 121.354 150.05 121.369C150.05 121.638 150.042 121.906 150.039 122.175C149.494 122.159 148.95 122.138 148.406 122.112C148.398 122.685 148.39 123.258 148.381 123.831C149.065 123.865 149.75 123.891 150.435 123.907L150.423 124.713C149.341 124.686 148.261 124.638 147.182 124.569C147.207 122.693 147.235 120.823 147.264 118.96Z" fill="#D9D5CA"/>
<path d="M150.903 119.108C151.284 119.116 151.667 119.12 152.049 119.12C152.205 120.554 152.36 121.988 152.515 123.422H152.538C152.746 121.988 152.954 120.55 153.163 119.109C153.596 119.109 154.028 119.101 154.46 119.085C154.626 120.519 154.793 121.95 154.958 123.379H154.98C155.177 121.937 155.374 120.493 155.571 119.049C155.914 119.035 156.255 119.019 156.595 119L155.748 124.646C155.257 124.668 154.764 124.684 154.27 124.696C154.107 123.441 153.946 122.187 153.785 120.932H153.764L153.167 124.72C152.642 124.72 152.115 124.72 151.588 124.72L150.903 119.108Z" fill="#D9D5CA"/>
<path d="M156.931 123.263C156.931 123.155 156.931 123.049 156.931 122.942C157.303 122.92 157.675 122.896 158.048 122.869C158.048 123.003 158.048 123.126 158.048 123.255C158.048 123.658 158.276 123.783 158.651 123.753C159.026 123.724 159.264 123.557 159.27 123.141C159.277 122.675 159.046 122.403 158.281 121.956C157.303 121.378 156.986 120.936 156.995 120.296C157.009 119.413 157.63 118.87 158.777 118.779C159.925 118.687 160.48 119.133 160.468 120.033V120.265C160.098 120.303 159.729 120.338 159.356 120.371C159.356 120.275 159.356 120.179 159.356 120.082C159.356 119.679 159.151 119.545 158.775 119.58C158.398 119.615 158.183 119.777 158.178 120.162C158.178 120.565 158.414 120.851 159.178 121.291C160.153 121.854 160.454 122.267 160.445 122.966C160.431 123.878 159.807 124.461 158.65 124.553C157.493 124.646 156.917 124.159 156.931 123.263Z" fill="#D9D5CA"/>
<path d="M68.4612 108.729C68.4612 108.729 78.9854 124.633 99.1282 130.288V101.036C99.1282 101.036 81.1085 94.7992 68.4612 76.3835V108.729Z" fill="#121212"/>
<path d="M78.2033 105.534C78.2033 106.675 76.8018 107.219 76.0316 106.379L71.5253 101.459C71.3141 101.229 71.197 100.928 71.197 100.615V94.1597C71.197 93.0194 72.5987 92.4745 73.3688 93.3154L77.8751 98.2356C78.0862 98.4661 78.2033 98.7673 78.2033 99.0799V105.534Z" fill="#D9D5CA" stroke="#121212" stroke-width="2"/>
<path d="M87.498 107.081C89.8836 108.647 92.4117 109.984 95.0486 111.075" stroke="#D9D5CA" stroke-width="1.34328" stroke-linecap="round" stroke-linejoin="round"/>
<path d="M79.8831 101.092C81.6715 102.719 83.5417 104.254 85.4865 105.69" stroke="#D9D5CA" stroke-width="1.34328" stroke-linecap="round" stroke-linejoin="round"/>
<path d="M92.9053 114.699C93.6264 115.038 94.3431 115.344 95.0553 115.617" stroke="#D9D5CA" stroke-width="1.34328" stroke-linecap="round" stroke-linejoin="round"/>
<path d="M87.1985 111.42C88.4097 112.245 89.6619 113.008 90.9502 113.706" stroke="#D9D5CA" stroke-width="1.34328" stroke-linecap="round" stroke-linejoin="round"/>
<path d="M79.8831 105.634C81.5485 107.199 83.3124 108.657 85.164 109.997" stroke="#D9D5CA" stroke-width="1.34328" stroke-linecap="round" stroke-linejoin="round"/>
<path d="M90.7354 118.082C92.1346 118.852 93.5745 119.545 95.0488 120.159" stroke="#D9D5CA" stroke-width="1.34328" stroke-linecap="round" stroke-linejoin="round"/>
<path d="M84.7139 114.203C86.0576 115.194 87.3906 116.096 88.7129 116.907" stroke="#D9D5CA" stroke-width="1.34328" stroke-linecap="round" stroke-linejoin="round"/>
<path d="M79.8831 110.176C80.7283 110.905 81.6877 111.744 82.6001 112.539" stroke="#D9D5CA" stroke-width="1.34328" stroke-linecap="round" stroke-linejoin="round"/>
<path d="M88.4644 121.33C90.5541 122.648 92.7577 123.776 95.0487 124.7" stroke="#D9D5CA" stroke-width="1.34328" stroke-linecap="round" stroke-linejoin="round"/>
<path d="M79.5847 114.444C81.7137 116.433 83.9789 118.271 86.3639 119.944" stroke="#D9D5CA" stroke-width="1.34328" stroke-linecap="round" stroke-linejoin="round"/>
<path d="M71.8623 106.279C73.6401 108.401 75.5791 110.533 77.506 112.441" stroke="#D9D5CA" stroke-width="1.34328" stroke-linecap="round" stroke-linejoin="round"/>
<path d="M78.0611 90.4158C78.3585 90.7097 78.6555 91.001 78.952 91.2895C79.1741 92.6041 79.3954 93.9161 79.6158 95.2253C79.6209 95.2287 79.6254 95.2327 79.6292 95.2374C79.6391 94.1459 79.6489 93.0549 79.6588 91.9643C79.8711 92.165 80.0834 92.3626 80.2957 92.5571C80.2787 94.3798 80.2621 96.2026 80.246 98.0253C80.0014 97.7995 79.7569 97.571 79.5123 97.3398C79.2382 95.7393 78.9654 94.1352 78.694 92.5275L78.6805 92.5154L78.6443 96.505C78.4328 96.2998 78.2223 96.0915 78.0127 95.88L78.0611 90.4158Z" fill="#D9D5CA"/>
<path d="M80.8224 93.0437C81.4728 93.6307 82.125 94.1975 82.7789 94.7441L82.7708 95.5265C82.3588 95.1796 81.9458 94.8252 81.5319 94.4632C81.5319 94.9444 81.5225 95.427 81.5185 95.9082C81.8463 96.1968 82.1747 96.4799 82.5034 96.7577C82.5034 97.0185 82.5034 97.2793 82.5034 97.5401C82.1747 97.2614 81.8463 96.9782 81.5185 96.6905L81.5024 98.3708C81.9162 98.7337 82.3297 99.0886 82.7426 99.4354C82.7426 99.6948 82.7426 99.9556 82.7426 100.216C82.0896 99.6698 81.4374 99.102 80.7861 98.5133C80.7933 96.6887 80.8054 94.8656 80.8224 93.0437Z" fill="#D9D5CA"/>
<path d="M83.0195 94.9443C83.2507 95.137 83.4818 95.3256 83.7129 95.5102C83.8025 96.9987 83.8961 98.4863 83.9937 99.973L84.0072 99.9838C84.1335 98.6709 84.2594 97.3572 84.3848 96.0426C84.6455 96.2469 84.9062 96.4476 85.1668 96.6448C85.2681 98.1323 85.3684 99.6199 85.4678 101.108L85.4813 101.117C85.6004 99.7942 85.7196 98.4697 85.8387 97.1435C86.0443 97.294 86.2512 97.4432 86.4568 97.5897L85.9449 102.735C85.6475 102.519 85.35 102.298 85.0526 102.071C84.9541 100.758 84.8564 99.4438 84.7597 98.1301L84.7476 98.1194C84.6267 99.2673 84.5066 100.414 84.3875 101.559C84.0703 101.31 83.7528 101.056 83.4347 100.798C83.2968 98.8484 83.1584 96.897 83.0195 94.9443Z" fill="#D9D5CA"/>
<path d="M86.6611 101.94C86.6611 101.835 86.6611 101.73 86.6611 101.627C86.8855 101.785 87.1112 101.941 87.333 102.094V102.469C87.333 102.86 87.4673 103.1 87.6984 103.252C87.9296 103.404 88.068 103.355 88.0707 102.948C88.0707 102.492 87.9363 102.113 87.474 101.305C86.8841 100.265 86.692 99.6774 86.6987 99.0524C86.6987 98.1894 87.0817 97.9555 87.7737 98.4179C88.4657 98.8803 88.8017 99.5887 88.7936 100.466C88.7936 100.543 88.7936 100.618 88.7936 100.694C88.5705 100.552 88.3461 100.409 88.1217 100.262C88.1217 100.168 88.1217 100.074 88.1217 99.9812C88.1217 99.5887 87.9968 99.3561 87.771 99.2056C87.5453 99.055 87.4136 99.1142 87.4095 99.4906C87.4095 99.8938 87.5533 100.284 88.0142 101.083C88.6028 102.108 88.7842 102.659 88.7788 103.342C88.7708 104.233 88.3932 104.504 87.6944 104.038C86.9957 103.572 86.6517 102.815 86.6611 101.94Z" fill="#D9D5CA"/>
<path d="M230.011 108.729C230.011 108.729 219.487 124.633 199.344 130.288V101.036C199.344 101.036 217.363 94.7992 230.011 76.3835V108.729Z" fill="#121212"/>
<path d="M209.324 115.902C209.324 116.648 208.907 117.333 208.244 117.677L204.801 119.463C203.47 120.153 201.881 119.187 201.881 117.687V111.125C201.881 110.378 202.297 109.693 202.96 109.349L206.403 107.564C207.734 106.874 209.324 107.84 209.324 109.34V115.902Z" fill="#D9D5CA" stroke="#121212" stroke-width="2"/>
<path d="M219.198 101.054C222.012 98.6669 224.689 96.1232 227.217 93.4348" stroke="#D9D5CA" stroke-width="1.34328" stroke-linecap="round" stroke-linejoin="round"/>
<path d="M211.107 106.876C213.16 105.609 215.147 104.238 217.06 102.768" stroke="#D9D5CA" stroke-width="1.34328" stroke-linecap="round" stroke-linejoin="round"/>
<path d="M224.941 100.086C225.708 99.3173 226.467 98.5291 227.217 97.7217" stroke="#D9D5CA" stroke-width="1.34328" stroke-linecap="round" stroke-linejoin="round"/>
<path d="M218.872 105.604C220.216 104.51 221.545 103.345 222.859 102.109" stroke="#D9D5CA" stroke-width="1.34328" stroke-linecap="round" stroke-linejoin="round"/>
<path d="M211.107 111.162C213.059 110.005 214.933 108.72 216.717 107.318" stroke="#D9D5CA" stroke-width="1.34328" stroke-linecap="round" stroke-linejoin="round"/>
<path d="M222.636 106.549C224.192 105.1 225.727 103.578 227.217 102.008" stroke="#D9D5CA" stroke-width="1.34328" stroke-linecap="round" stroke-linejoin="round"/>
<path d="M216.239 111.966C217.663 110.881 219.079 109.722 220.487 108.49" stroke="#D9D5CA" stroke-width="1.34328" stroke-linecap="round" stroke-linejoin="round"/>
<path d="M211.107 115.449C212.005 114.864 213.024 114.207 213.993 113.582" stroke="#D9D5CA" stroke-width="1.34328" stroke-linecap="round" stroke-linejoin="round"/>
<path d="M220.229 113.04C222.673 110.914 225.005 108.663 227.217 106.296" stroke="#D9D5CA" stroke-width="1.34328" stroke-linecap="round" stroke-linejoin="round"/>
<path d="M210.791 119.925C213.304 118.417 215.71 116.737 217.992 114.898" stroke="#D9D5CA" stroke-width="1.34328" stroke-linecap="round" stroke-linejoin="round"/>
<path d="M202.586 123.862C204.647 123.115 206.649 122.216 208.578 121.174" stroke="#D9D5CA" stroke-width="1.34328" stroke-linecap="round" stroke-linejoin="round"/>
<path d="M209.165 98.8427C209.48 98.6752 209.793 98.5027 210.106 98.3252C210.341 99.233 210.576 100.137 210.811 101.038L210.825 101.03L210.857 97.8964C211.081 97.762 211.307 97.6276 211.529 97.4932L211.476 102.736C211.216 102.892 210.956 103.043 210.697 103.194C210.407 102.094 210.117 100.992 209.828 99.8859L209.813 99.8939C209.8 101.167 209.788 102.441 209.775 103.714C209.55 103.838 209.326 103.959 209.103 104.078L209.165 98.8427Z" fill="#D9D5CA"/>
<path d="M212.105 97.1557C212.796 96.7283 213.488 96.2802 214.183 95.8115C214.183 96.0615 214.183 96.3116 214.176 96.5602C213.737 96.8578 213.298 97.1463 212.859 97.4259C212.859 97.8883 212.85 98.3494 212.844 98.8105C213.194 98.5891 213.543 98.3615 213.891 98.1276C213.891 98.3763 213.891 98.6263 213.891 98.8763C213.542 99.1093 213.193 99.3369 212.844 99.5592L212.828 101.172C213.266 100.893 213.705 100.605 214.145 100.308L214.137 101.055C213.444 101.524 212.751 101.972 212.06 102.399L212.105 97.1557Z" fill="#D9D5CA"/>
<path d="M214.439 95.6326C214.685 95.4646 214.93 95.2952 215.176 95.1218L215.474 98.9098L215.489 98.899C215.622 97.4706 215.757 96.0413 215.892 94.611C216.169 94.4107 216.447 94.2078 216.724 93.9981C216.829 95.2527 216.936 96.5073 217.043 97.7618L217.057 97.7511L217.436 93.4617C217.656 93.2937 217.874 93.123 218.093 92.9509C217.914 94.8328 217.735 96.7089 217.555 98.5791C217.24 98.8229 216.924 99.0626 216.607 99.2983L216.296 96.0198L216.283 96.0292L215.9 99.8171C215.563 100.062 215.226 100.302 214.888 100.536C214.736 98.9017 214.586 97.2672 214.439 95.6326Z" fill="#D9D5CA"/>
<path d="M218.305 96.7524V96.4527C218.544 96.2632 218.782 96.0709 219.022 95.8774V96.2363C219.022 96.6113 219.168 96.6234 219.409 96.4245C219.671 96.2218 219.82 95.9062 219.812 95.5749C219.812 95.1394 219.669 94.9915 219.179 94.9243C218.551 94.8343 218.348 94.5668 218.354 93.9686C218.362 93.1433 218.757 92.3555 219.496 91.7493C220.235 91.1431 220.588 91.3044 220.58 92.1445C220.58 92.2171 220.58 92.2897 220.58 92.3623C220.344 92.5648 220.106 92.766 219.868 92.9658C219.868 92.8758 219.868 92.7857 219.868 92.697C219.868 92.3219 219.734 92.2937 219.496 92.494C219.247 92.6892 219.105 92.9908 219.113 93.3072C219.113 93.689 219.265 93.8449 219.754 93.9C220.379 93.9793 220.574 94.2253 220.567 94.8786C220.541 95.7736 220.119 96.6108 219.415 97.1638C218.665 97.774 218.297 97.5859 218.305 96.7524Z" fill="#D9D5CA"/>
<path d="M208.157 191.322C208.157 198.014 212.343 204.039 219.942 208.288C226.464 211.934 235.015 213.934 244.01 213.934C253.005 213.934 261.558 211.927 268.08 208.288C275.681 204.039 279.866 198.014 279.866 191.322C279.866 189.941 280.316 182.485 279.966 181.171C279.916 181.364 279.857 181.563 279.799 181.771C279.842 182.253 279.866 182.74 279.866 183.228C279.867 184.595 279.689 185.955 279.337 187.275C277.993 192.331 274.112 196.819 268.08 200.193C261.558 203.84 253.007 205.847 244.01 205.847C235.012 205.847 226.464 203.84 219.942 200.193C213.91 196.823 210.029 192.331 208.687 187.275C208.188 185.399 208.04 183.447 208.25 181.517C208.218 181.4 208.185 181.282 208.157 181.171C207.805 182.485 208.157 189.941 208.157 191.322Z" fill="#4D4C4A" stroke="#4D4C4A"/>
<path d="M264.588 172.7L271.155 176.33C272.326 176.978 273.75 176.967 274.911 176.3L309.691 156.335C310.952 155.618 311.724 154.272 311.706 152.821V147.124C311.717 148.568 310.946 149.905 309.691 150.619L274.911 170.584C273.75 171.252 272.326 171.263 271.155 170.614L267.451 168.563L264.565 170.231C264.122 170.487 263.852 170.961 263.856 171.472C263.861 171.984 264.141 172.453 264.588 172.7Z" fill="#4D4C4A"/>
<path opacity="0.32" d="M259.969 166.459L275.16 178.841L274.016 191.222L265.965 197.771L241.152 202.198C241.152 202.198 226.177 200.047 226.034 199.994C225.892 199.942 216.005 193.764 216.005 193.764L212.242 187.13L212.231 181.171L213.966 175.929C213.966 175.929 217.61 171.287 219.341 170.251C221.072 169.215 226.038 167.778 226.038 167.778L233.502 163.949C233.502 163.949 242.018 164.788 242.587 164.881C243.155 164.974 256.313 165.019 259.969 166.459Z" fill="url(#paint0_linear_0_8181)"/>
<path fill-rule="evenodd" clip-rule="evenodd" d="M208.687 187.275C208.334 185.955 208.156 184.595 208.157 183.228C208.159 182.655 208.191 182.082 208.255 181.513C208.907 175.506 212.999 170.138 219.946 166.259C226.469 162.619 235.02 160.602 244.014 160.602C253.008 160.602 261.555 162.619 268.08 166.263C275.124 170.199 279.237 175.661 279.799 181.771C279.842 182.253 279.866 182.74 279.866 183.228C279.867 184.594 279.689 185.955 279.337 187.275C277.995 192.331 274.112 196.823 268.08 200.193C261.558 203.84 253.005 205.847 244.01 205.847C235.015 205.847 226.464 203.84 219.942 200.193C213.91 196.819 210.03 192.331 208.687 187.275ZM214.774 179.448C214.271 180.645 214.011 181.93 214.007 183.228C214.007 192.49 227.439 199.994 244.012 199.992C255.406 199.992 265.314 196.446 270.394 191.222C270.895 190.026 271.154 188.744 271.158 187.447C271.158 178.186 257.723 170.678 241.152 170.678C229.765 170.678 219.857 174.225 214.774 179.448Z" fill="#272727"/>
<path d="M208.157 183.228L207.657 183.227L207.657 183.227L208.157 183.228ZM208.687 187.275L209.17 187.147L209.17 187.146L208.687 187.275ZM208.255 181.513L208.752 181.569L208.752 181.567L208.255 181.513ZM219.946 166.259L219.702 165.822L219.702 165.822L219.946 166.259ZM268.08 166.263L268.324 165.826L268.324 165.826L268.08 166.263ZM279.799 181.771L280.297 181.727L280.297 181.725L279.799 181.771ZM279.866 183.228H279.366V183.228L279.866 183.228ZM279.337 187.275L278.854 187.146L278.854 187.147L279.337 187.275ZM268.08 200.193L267.836 199.757L267.836 199.757L268.08 200.193ZM219.942 200.193L219.698 200.63L219.698 200.63L219.942 200.193ZM214.007 183.228L213.507 183.226V183.228H214.007ZM214.774 179.448L214.416 179.099L214.35 179.167L214.313 179.255L214.774 179.448ZM244.012 199.992V199.492H244.012L244.012 199.992ZM270.394 191.222L270.753 191.571L270.819 191.503L270.855 191.415L270.394 191.222ZM271.158 187.447L271.658 187.449V187.447H271.158ZM207.657 183.227C207.656 184.638 207.839 186.042 208.204 187.405L209.17 187.146C208.828 185.868 208.656 184.551 208.657 183.229L207.657 183.227ZM207.758 181.457C207.692 182.045 207.659 182.635 207.657 183.227L208.657 183.229C208.659 182.674 208.69 182.12 208.752 181.569L207.758 181.457ZM219.702 165.822C212.661 169.754 208.433 175.243 207.758 181.459L208.752 181.567C209.382 175.768 213.336 170.522 220.19 166.695L219.702 165.822ZM244.014 160.102C234.952 160.102 226.313 162.133 219.702 165.822L220.19 166.695C226.624 163.104 235.088 161.102 244.014 161.102V160.102ZM268.324 165.826C261.711 162.133 253.076 160.102 244.014 160.102V161.102C252.939 161.102 261.399 163.104 267.837 166.699L268.324 165.826ZM280.297 181.725C279.716 175.402 275.463 169.815 268.324 165.826L267.836 166.699C274.786 170.582 278.759 175.92 279.301 181.817L280.297 181.725ZM280.366 183.228C280.366 182.724 280.341 182.222 280.297 181.727L279.301 181.815C279.343 182.285 279.366 182.757 279.366 183.228H280.366ZM279.82 187.404C280.184 186.042 280.367 184.638 280.366 183.228L279.366 183.228C279.367 184.551 279.195 185.868 278.854 187.146L279.82 187.404ZM268.324 200.63C274.437 197.215 278.433 192.626 279.82 187.404L278.854 187.147C277.556 192.036 273.788 196.432 267.836 199.757L268.324 200.63ZM244.01 206.347C253.073 206.347 261.713 204.326 268.324 200.63L267.836 199.757C261.402 203.354 252.937 205.347 244.01 205.347V206.347ZM219.698 200.63C226.309 204.326 234.947 206.347 244.01 206.347V205.347C235.083 205.347 226.62 203.354 220.186 199.757L219.698 200.63ZM208.203 187.404C209.592 192.626 213.585 197.21 219.698 200.63L220.186 199.757C214.235 196.428 210.469 192.036 209.17 187.147L208.203 187.404ZM214.507 183.23C214.51 181.997 214.758 180.778 215.235 179.642L214.313 179.255C213.785 180.512 213.511 181.862 213.507 183.226L214.507 183.23ZM244.012 199.492C235.795 199.493 228.38 197.632 223.038 194.647C217.68 191.654 214.507 187.596 214.507 183.228H213.507C213.507 188.121 217.049 192.447 222.55 195.52C228.068 198.603 235.657 200.493 244.013 200.492L244.012 199.492ZM270.036 190.873C265.083 195.966 255.328 199.492 244.012 199.492V200.492C255.484 200.492 265.544 196.925 270.753 191.571L270.036 190.873ZM270.658 187.446C270.654 188.677 270.408 189.894 269.933 191.029L270.855 191.415C271.382 190.159 271.654 188.811 271.658 187.449L270.658 187.446ZM241.152 171.178C249.368 171.178 256.782 173.041 262.125 176.026C267.484 179.021 270.658 183.079 270.658 187.447H271.658C271.658 182.554 268.114 178.228 262.613 175.153C257.095 172.07 249.506 170.178 241.152 170.178V171.178ZM215.132 179.797C220.088 174.704 229.843 171.178 241.152 171.178V170.178C229.686 170.178 219.626 173.745 214.416 179.099L215.132 179.797Z" fill="#272727"/>
<path d="M214.774 179.448C219.857 174.224 229.765 170.678 241.152 170.678C257.723 170.678 271.158 178.186 271.158 187.447C271.154 188.744 270.895 190.026 270.394 191.222C272.706 188.847 274.016 186.122 274.016 183.228C274.016 173.966 260.578 166.459 244.01 166.459C229.77 166.459 217.842 172.007 214.774 179.448Z" fill="#4D4C4A"/>
<path d="M264.588 166.979L267.451 168.565L271.158 170.617C272.328 171.265 273.753 171.254 274.913 170.587L309.694 150.622C310.949 149.908 311.72 148.571 311.709 147.127C311.71 146.939 311.696 146.751 311.667 146.565C311.504 145.336 310.776 144.254 309.699 143.641L308.687 143.056C306.526 141.804 303.861 141.804 301.7 143.056L264.56 164.505C264.115 164.76 263.843 165.237 263.849 165.75C263.855 166.264 264.137 166.734 264.588 166.979Z" fill="#272727" stroke="#272727"/>
<ellipse cx="241.333" cy="196.651" rx="3.09331" ry="1.2649" fill="url(#paint1_linear_0_8181)"/>
<path d="M260 108.648L261.815 107.617L263.229 111.816L263.254 111.801V106.803L264.543 106.07V114.421L263.058 115.266L261.321 110.156L261.294 110.171V116.267L260.005 117L260 108.648Z" fill="#F8BF30"/>
<path d="M266.276 105.084L270.222 102.842V104.035L267.727 105.454V107.66L269.713 106.531V107.724L267.727 108.855V111.42L270.225 110V111.193L266.279 113.435L266.276 105.084Z" fill="#F8BF30"/>
<path d="M271.367 102.192L272.762 101.399L273.407 107.452L273.432 107.438L274.117 100.631L275.687 99.7339L276.38 105.766L276.407 105.752L277.05 98.9666L278.307 98.2571L277.372 107.138L275.571 108.163L274.913 102.904L274.886 102.92L274.228 108.925L272.308 110.017L271.367 102.192Z" fill="#F8BF30"/>
<path d="M282.458 95.893L284.524 94.7188L285.445 100.177L285.471 100.161L286.392 93.6615L288.457 92.4888V100.84L287.089 101.619V95.2895L287.062 95.3051L286.01 102.226L284.799 102.914L283.746 97.1889L283.719 97.203V103.526L282.462 104.244L282.458 95.893Z" fill="#F8BF30"/>
<path d="M290.194 91.4986L294.14 89.2561V90.4491L291.642 91.8697V94.0701L293.628 92.9426V94.1356L291.642 95.2631V97.8283L294.14 96.4093V97.6022L290.194 99.8431V91.4986Z" fill="#F8BF30"/>
<path d="M295.628 88.4122L297.443 87.3814L298.856 91.5794L298.882 91.5654V86.5659L300.171 85.8345V94.1853L298.685 95.0289L296.937 89.9202L296.911 89.9342V96.0301L295.621 96.763L295.628 88.4122Z" fill="#F8BF30"/>
<path d="M303.035 85.3978L301.521 86.2571V85.0641L305.994 82.53V83.723L304.482 84.5823V91.7307L303.035 92.5526V85.3978Z" fill="#F8BF30"/>
<path d="M307.35 81.7505L308.798 80.9287V89.2826L307.35 90.1045V81.7505Z" fill="#F8BF30"/>
<path fill-rule="evenodd" clip-rule="evenodd" d="M310.429 81.9858V86.3756C310.429 87.712 311.207 88.0333 312.628 87.2271C314.049 86.4208 314.827 85.2169 314.827 83.8805V79.4891C314.827 78.1542 314.051 77.8299 312.628 78.6377C311.205 79.4455 310.429 80.6493 310.429 81.9858ZM313.375 80.2283V84.785C313.391 85.31 313.099 85.7965 312.626 86.0325C312.165 86.2945 311.876 86.2321 311.876 85.6364V81.0782C311.861 80.5529 312.153 80.0665 312.626 79.8306C313.086 79.5702 313.375 79.6326 313.375 80.2283Z" fill="#F8BF30"/>
<path d="M316.454 76.5824L318.271 75.5516L319.684 79.7512L319.711 79.7356V74.7329L321 74V82.3508L319.513 83.196L317.776 78.0857L317.749 78.1013V84.1972L316.46 84.9301L316.454 76.5824Z" fill="#F8BF30"/>
<path d="M1.00402e-07 121.898V162.494C-0.000178036 162.938 0.236697 163.348 0.621268 163.57C1.00584 163.792 1.47958 163.791 1.86378 163.569L59.3278 130.382C60.0475 129.965 60.491 129.197 60.4915 128.365V87.7677C60.4917 87.3236 60.2548 86.9132 59.8702 86.6913C59.4857 86.4694 59.0119 86.4698 58.6277 86.6923L1.16503 119.881C0.443987 120.297 -0.000224333 121.066 1.00402e-07 121.898Z" fill="#F8BF30"/>
<path d="M8.5004e-08 121.898V126.603L60.4915 91.6659V87.7677C60.4917 87.3236 60.2548 86.9132 59.8702 86.6913C59.4857 86.4694 59.0119 86.4698 58.6277 86.6923L1.16503 119.881C0.443987 120.297 -0.000224348 121.066 8.5004e-08 121.898Z" fill="#272727"/>
<path d="M16.6516 134.166C16.8271 134.165 16.9994 134.119 17.1515 134.031C18.3394 133.352 19.5263 132.672 20.7124 131.991C25.1656 129.437 29.4938 126.927 33.1407 124.813C33.4528 124.632 33.6446 124.298 33.6439 123.937C33.6432 123.576 33.45 123.243 33.1373 123.063C32.8245 122.883 32.4396 122.884 32.1276 123.065C28.4833 125.178 24.1564 127.683 19.7073 130.238C18.5221 130.918 17.336 131.597 16.1491 132.276C15.7579 132.506 15.5683 132.969 15.6854 133.408C15.8026 133.846 16.1977 134.153 16.6516 134.158V134.166Z" fill="white"/>
<path d="M37.6759 122.023C37.8533 122.024 38.0277 121.978 38.1811 121.889L42.3347 119.48C46.7247 116.934 51.9089 113.933 57.0742 110.974C57.5206 110.681 57.6613 110.09 57.3953 109.627C57.1292 109.164 56.5485 108.988 56.0705 109.227C50.9011 112.184 45.7142 115.191 41.3215 117.738L37.168 120.142C36.7738 120.371 36.5826 120.837 36.7015 121.277C36.8204 121.718 37.2198 122.024 37.6759 122.023Z" fill="white"/>
<path d="M19.7585 139.967C19.9368 139.969 20.1122 139.922 20.2665 139.833L25.3136 136.884C25.796 136.603 25.9593 135.984 25.6784 135.501C25.3975 135.019 24.7788 134.855 24.2964 135.136L19.2493 138.085C18.8549 138.315 18.6637 138.781 18.783 139.222C18.9022 139.662 19.3022 139.968 19.7585 139.967Z" fill="white"/>
<path d="M29.4172 134.331C29.595 134.332 29.7698 134.285 29.9238 134.197C30.9092 133.626 31.8947 133.055 32.8801 132.485C36.7769 130.231 40.1941 128.282 43.3277 126.527C43.6424 126.35 43.8391 126.019 43.8436 125.658C43.8482 125.297 43.6599 124.961 43.3498 124.777C43.0396 124.593 42.6547 124.588 42.3401 124.764C39.1984 126.525 35.7732 128.478 31.8696 130.738C30.8842 131.307 29.8987 131.878 28.9133 132.45C28.5192 132.68 28.328 133.146 28.4468 133.586C28.5657 134.026 28.9652 134.332 29.4213 134.332L29.4172 134.331Z" fill="white"/>
<path d="M47.961 123.684C48.1384 123.684 48.3127 123.638 48.4663 123.549C49.3397 123.042 50.2225 122.522 51.0758 122.02C53.0068 120.881 55.0049 119.703 57.0488 118.593C57.3797 118.428 57.5944 118.096 57.6085 117.727C57.6227 117.357 57.434 117.01 57.1166 116.82C56.7992 116.631 56.4037 116.63 56.0853 116.817C54.0092 117.945 51.9963 119.132 50.0505 120.28C49.1999 120.782 48.3211 121.299 47.4544 121.802C47.0627 122.033 46.8732 122.497 46.9914 122.936C47.1096 123.375 47.5064 123.681 47.961 123.684Z" fill="white"/>
<path d="M29.4172 141.246C29.595 141.246 29.7698 141.2 29.9238 141.111C30.9092 140.54 31.8947 139.97 32.8801 139.4C36.7769 137.146 40.1941 135.197 43.3277 133.44C43.6422 133.263 43.8386 132.932 43.843 132.572C43.8475 132.211 43.6592 131.876 43.3492 131.691C43.0392 131.507 42.6545 131.502 42.3401 131.679C39.1984 133.44 35.7732 135.393 31.8696 137.651C30.8842 138.221 29.8987 138.792 28.9133 139.365C28.5192 139.595 28.328 140.06 28.4468 140.501C28.5657 140.941 28.9652 141.247 29.4213 141.247L29.4172 141.246Z" fill="white"/>
<path d="M47.9609 130.591C48.1383 130.592 48.3127 130.546 48.4662 130.457C49.3396 129.95 50.2225 129.43 51.0757 128.927C53.0067 127.789 55.0049 126.611 57.0487 125.5C57.5385 125.233 57.7199 124.62 57.4538 124.13C57.1878 123.64 56.575 123.459 56.0852 123.725C54.0091 124.853 51.9962 126.04 50.0505 127.186C49.1999 127.688 48.3211 128.207 47.4543 128.709C47.0604 128.939 46.8692 129.404 46.9877 129.844C47.1062 130.285 47.5051 130.591 47.9609 130.591Z" fill="white"/>
<path fill-rule="evenodd" clip-rule="evenodd" d="M5.58049 165.976L5.24859 163.201C5.20424 162.831 5.46359 162.318 5.82909 162.045L8.55286 160.061C8.64376 159.428 8.78256 158.804 8.96808 158.192L6.80734 157.636C6.51843 157.567 6.46871 157.144 6.69446 156.695L8.38758 153.334C8.61333 152.891 9.02989 152.588 9.3188 152.662L11.4795 153.219C11.8931 152.648 12.3419 152.105 12.8233 151.591L12.4927 148.819C12.4484 148.449 12.7064 147.94 13.0705 147.671L15.7984 145.684C16.1612 145.42 16.4917 145.504 16.5361 145.874L16.868 148.646C17.3451 148.443 17.8444 148.297 18.3555 148.211L20.0473 144.851C20.273 144.409 20.6896 144.105 20.9772 144.179L23.1406 144.737C23.4295 144.812 23.4792 145.235 23.2548 145.684L21.563 149.045C21.8727 149.336 22.1296 149.679 22.3222 150.058L25.046 148.076C25.4088 147.811 25.7394 147.896 25.7837 148.265L26.1156 151.041C26.16 151.411 25.9006 151.921 25.5378 152.19L22.8141 154.173C22.7243 154.806 22.5859 155.43 22.4002 156.041L24.5596 156.599C24.8485 156.668 24.8996 157.093 24.6738 157.54L22.9793 160.901C22.7536 161.344 22.337 161.648 22.0495 161.573L19.8887 161.016C19.4751 161.586 19.0263 162.13 18.545 162.644L18.8769 165.416C18.9212 165.786 18.6619 166.296 18.2991 166.565L15.5713 168.552C15.2071 168.817 14.8765 168.731 14.8322 168.361L14.5016 165.589C14.0231 165.792 13.5225 165.937 13.0101 166.024L11.3183 169.384C11.0925 169.828 10.676 170.13 10.3871 170.056L8.22365 169.498C7.93608 169.43 7.88502 169.005 8.11077 168.557L9.80255 165.197C9.49205 164.906 9.23507 164.563 9.04333 164.183L6.31956 166.167C5.9554 166.432 5.62484 166.346 5.58049 165.976ZM16.0738 160.394C17.8516 159.1 19.1241 156.572 18.9064 154.763C18.6901 152.952 17.0655 152.536 15.2877 153.83C13.5099 155.125 12.2388 157.653 12.4551 159.462C12.6715 161.272 14.296 161.688 16.0738 160.394Z" fill="#272727"/>
<path d="M5.24859 163.201L5.74505 163.141L5.74503 163.141L5.24859 163.201ZM5.58049 165.976L5.08403 166.036L5.08405 166.036L5.58049 165.976ZM5.82909 162.045L5.53468 161.641L5.52996 161.644L5.82909 162.045ZM8.55286 160.061L8.84725 160.465L9.01777 160.341L9.04778 160.132L8.55286 160.061ZM8.96808 158.192L9.44654 158.337L9.59803 157.838L9.09279 157.708L8.96808 158.192ZM6.80734 157.636L6.93206 157.151L6.92278 157.149L6.80734 157.636ZM6.69446 156.695L6.24793 156.47L6.24775 156.47L6.69446 156.695ZM8.38758 153.334L7.94197 153.107L7.94106 153.109L8.38758 153.334ZM9.3188 152.662L9.44351 152.178L9.44276 152.178L9.3188 152.662ZM11.4795 153.219L11.3548 153.703L11.6844 153.788L11.8843 153.512L11.4795 153.219ZM12.8233 151.591L13.1882 151.933L13.3473 151.763L13.3198 151.532L12.8233 151.591ZM12.4927 148.819L12.9892 148.76L12.9892 148.759L12.4927 148.819ZM13.0705 147.671L12.7762 147.267L12.7736 147.269L13.0705 147.671ZM15.7984 145.684L16.0927 146.088L16.0931 146.088L15.7984 145.684ZM16.5361 145.874L17.0325 145.814L17.0325 145.814L16.5361 145.874ZM16.868 148.646L16.3715 148.705L16.4506 149.366L17.0632 149.106L16.868 148.646ZM18.3555 148.211L18.4385 148.704L18.6882 148.662L18.8021 148.436L18.3555 148.211ZM20.0473 144.851L19.6019 144.624L19.6007 144.626L20.0473 144.851ZM20.9772 144.179L21.102 143.695L21.1017 143.695L20.9772 144.179ZM23.1406 144.737L23.2667 144.253L23.2654 144.252L23.1406 144.737ZM23.2548 145.684L23.7014 145.909L23.7021 145.908L23.2548 145.684ZM21.563 149.045L21.1164 148.82L20.9487 149.153L21.2204 149.409L21.563 149.045ZM22.3222 150.058L21.8765 150.285L22.1422 150.808L22.6165 150.463L22.3222 150.058ZM25.046 148.076L25.3403 148.48L25.3408 148.48L25.046 148.076ZM25.7837 148.265L26.2802 148.206L26.2802 148.206L25.7837 148.265ZM26.1156 151.041L25.6192 151.1L25.6192 151.101L26.1156 151.041ZM25.5378 152.19L25.8321 152.595L25.8355 152.592L25.5378 152.19ZM22.8141 154.173L22.5198 153.769L22.3488 153.893L22.319 154.103L22.8141 154.173ZM22.4002 156.041L21.9218 155.896L21.7702 156.395L22.2751 156.526L22.4002 156.041ZM24.5596 156.599L24.4345 157.083L24.4441 157.086L24.5596 156.599ZM24.6738 157.54L24.2274 157.315L24.2274 157.315L24.6738 157.54ZM22.9793 160.901L23.425 161.128L23.4258 161.126L22.9793 160.901ZM22.0495 161.573L22.1761 161.089L22.1742 161.089L22.0495 161.573ZM19.8887 161.016L20.0134 160.532L19.6839 160.447L19.484 160.723L19.8887 161.016ZM18.545 162.644L18.18 162.302L18.0208 162.472L18.0485 162.704L18.545 162.644ZM18.8769 165.416L18.3804 165.475L18.3804 165.476L18.8769 165.416ZM18.2991 166.565L18.5934 166.969L18.5967 166.967L18.2991 166.565ZM15.5713 168.552L15.8653 168.956L15.8656 168.956L15.5713 168.552ZM14.8322 168.361L14.3357 168.42L14.3358 168.421L14.8322 168.361ZM14.5016 165.589L14.9981 165.53L14.9194 164.87L14.3069 165.129L14.5016 165.589ZM13.0101 166.024L12.9272 165.53L12.6774 165.572L12.5635 165.799L13.0101 166.024ZM11.3183 169.384L11.7639 169.611L11.7649 169.609L11.3183 169.384ZM10.3871 170.056L10.2622 170.54L10.2631 170.541L10.3871 170.056ZM8.22365 169.498L8.34851 169.014L8.3396 169.012L8.22365 169.498ZM8.11077 168.557L8.55721 168.783L8.55737 168.782L8.11077 168.557ZM9.80255 165.197L10.2491 165.422L10.4174 165.088L10.1443 164.832L9.80255 165.197ZM9.04333 164.183L9.48967 163.958L9.2245 163.433L8.74894 163.779L9.04333 164.183ZM6.31956 166.167L6.61362 166.572L6.61394 166.572L6.31956 166.167ZM18.9064 154.763L18.41 154.822L18.41 154.823L18.9064 154.763ZM16.0738 160.394L15.7795 159.99V159.99L16.0738 160.394ZM12.4551 159.462L12.9516 159.403L12.4551 159.462ZM4.75212 163.26L5.08403 166.036L6.07696 165.917L5.74505 163.141L4.75212 163.26ZM5.52996 161.644C5.27695 161.833 5.07348 162.093 4.93848 162.362C4.80653 162.624 4.71442 162.946 4.75215 163.26L5.74503 163.141C5.73841 163.086 5.7538 162.966 5.83181 162.811C5.90677 162.662 6.01572 162.529 6.12821 162.445L5.52996 161.644ZM8.25848 159.656L5.5347 161.641L6.12348 162.449L8.84725 160.465L8.25848 159.656ZM8.48962 158.047C8.29675 158.683 8.15244 159.332 8.05795 159.99L9.04778 160.132C9.13507 159.524 9.26837 158.925 9.44654 158.337L8.48962 158.047ZM6.68263 158.12L8.84338 158.676L9.09279 157.708L6.93204 157.151L6.68263 158.12ZM6.24775 156.47C6.10423 156.756 6.02639 157.073 6.06142 157.367C6.0973 157.668 6.27655 158.024 6.6919 158.122L6.92278 157.149C6.96819 157.16 7.01118 157.189 7.03778 157.225C7.05975 157.255 7.05692 157.27 7.05439 157.249C7.04877 157.202 7.05894 157.083 7.14117 156.919L6.24775 156.47ZM7.94106 153.109L6.24793 156.47L7.14099 156.92L8.83411 153.559L7.94106 153.109ZM9.44276 152.178C9.08925 152.087 8.75732 152.239 8.53653 152.399C8.29902 152.571 8.0881 152.82 7.94197 153.107L8.8332 153.561C8.91281 153.405 9.02305 153.281 9.12248 153.209C9.23864 153.125 9.25944 153.163 9.19484 153.147L9.44276 152.178ZM11.6043 152.734L9.44351 152.178L9.19409 153.146L11.3548 153.703L11.6043 152.734ZM12.4584 151.249C11.9627 151.778 11.5006 152.338 11.0748 152.925L11.8843 153.512C12.2856 152.959 12.7211 152.431 13.1882 151.933L12.4584 151.249ZM11.9963 148.878L12.3268 151.65L13.3198 151.532L12.9892 148.76L11.9963 148.878ZM12.7736 147.269C12.5203 147.456 12.3168 147.715 12.182 147.982C12.0501 148.244 11.9586 148.564 11.9963 148.879L12.9892 148.759C12.9825 148.704 12.9979 148.585 13.0749 148.432C13.149 148.285 13.2567 148.155 13.3675 148.073L12.7736 147.269ZM15.504 145.28L12.7762 147.267L13.3649 148.075L16.0927 146.088L15.504 145.28ZM17.0325 145.814C16.9922 145.478 16.7919 145.155 16.411 145.057C16.0761 144.971 15.7488 145.101 15.5036 145.28L16.0931 146.088C16.1457 146.05 16.1817 146.036 16.1972 146.031C16.2128 146.027 16.1978 146.035 16.1623 146.025C16.1219 146.015 16.0826 145.989 16.0567 145.956C16.0338 145.926 16.0369 145.91 16.0396 145.933L17.0325 145.814ZM17.3644 148.586L17.0325 145.814L16.0396 145.933L16.3715 148.705L17.3644 148.586ZM18.2725 147.718C17.7228 147.811 17.1859 147.968 16.6727 148.185L17.0632 149.106C17.5044 148.919 17.966 148.784 18.4385 148.704L18.2725 147.718ZM19.6007 144.626L17.9089 147.987L18.8021 148.436L20.4939 145.076L19.6007 144.626ZM21.1017 143.695C20.7475 143.603 20.4152 143.757 20.1956 143.916C19.9587 144.088 19.748 144.337 19.6019 144.624L20.4926 145.078C20.5723 144.922 20.6827 144.798 20.7825 144.726C20.8995 144.641 20.9193 144.68 20.8527 144.663L21.1017 143.695ZM23.2654 144.252L21.102 143.695L20.8523 144.663L23.0157 145.221L23.2654 144.252ZM23.7021 145.908C23.8448 145.622 23.9218 145.305 23.8867 145.011C23.8506 144.71 23.6739 144.359 23.2667 144.253L23.0145 145.221C22.9717 145.209 22.9321 145.181 22.9079 145.148C22.8879 145.121 22.8911 145.108 22.8937 145.13C22.8995 145.178 22.8892 145.297 22.8076 145.461L23.7021 145.908ZM22.0096 149.27L23.7014 145.909L22.8082 145.459L21.1164 148.82L22.0096 149.27ZM22.768 149.832C22.5492 149.401 22.2574 149.012 21.9057 148.681L21.2204 149.409C21.488 149.661 21.71 149.957 21.8765 150.285L22.768 149.832ZM24.7518 147.671L22.028 149.654L22.6165 150.463L25.3403 148.48L24.7518 147.671ZM26.2802 148.206C26.2399 147.87 26.0396 147.546 25.6586 147.448C25.3238 147.362 24.9965 147.493 24.7513 147.672L25.3408 148.48C25.3934 148.441 25.4294 148.427 25.4449 148.423C25.4604 148.418 25.4455 148.426 25.41 148.417C25.3696 148.406 25.3303 148.381 25.3044 148.347C25.2815 148.317 25.2845 148.302 25.2873 148.325L26.2802 148.206ZM26.6121 150.982L26.2802 148.206L25.2873 148.325L25.6192 151.1L26.6121 150.982ZM25.8355 152.592C26.0879 152.405 26.2911 152.146 26.4259 151.879C26.5577 151.617 26.6498 151.296 26.6121 150.981L25.6192 151.101C25.6258 151.156 25.6104 151.275 25.533 151.428C25.4585 151.576 25.3505 151.707 25.2402 151.789L25.8355 152.592ZM23.1083 154.577L25.8321 152.595L25.2436 151.786L22.5198 153.769L23.1083 154.577ZM22.8786 156.187C23.0718 155.551 23.2157 154.901 23.3091 154.243L22.319 154.103C22.2329 154.71 22.1 155.309 21.9218 155.896L22.8786 156.187ZM24.6846 156.115L22.5252 155.557L22.2751 156.526L24.4345 157.083L24.6846 156.115ZM25.1202 157.765C25.2643 157.48 25.3417 157.162 25.3061 156.868C25.2697 156.567 25.0902 156.211 24.675 156.113L24.4441 157.086C24.3985 157.075 24.3558 157.046 24.3295 157.01C24.3078 156.981 24.3107 156.966 24.3133 156.988C24.319 157.035 24.309 157.153 24.2274 157.315L25.1202 157.765ZM23.4258 161.126L25.1203 157.765L24.2274 157.315L22.5329 160.676L23.4258 161.126ZM21.9228 162.057C22.2778 162.149 22.6111 161.996 22.831 161.836C23.0682 161.664 23.279 161.414 23.425 161.128L22.5337 160.674C22.454 160.831 22.3435 160.955 22.2442 161.027C22.1275 161.111 22.1086 161.072 22.1761 161.089L21.9228 162.057ZM19.764 161.501L21.9248 162.057L22.1742 161.089L20.0134 160.532L19.764 161.501ZM18.91 162.986C19.4055 162.457 19.8676 161.897 20.2934 161.31L19.484 160.723C19.0826 161.276 18.6471 161.804 18.18 162.302L18.91 162.986ZM19.3733 165.357L19.0414 162.585L18.0485 162.704L18.3804 165.475L19.3733 165.357ZM18.5967 166.967C18.8492 166.78 19.0523 166.521 19.1871 166.254C19.3189 165.992 19.4111 165.671 19.3733 165.356L18.3804 165.476C18.387 165.531 18.3717 165.65 18.2942 165.803C18.2197 165.951 18.1118 166.082 18.0014 166.164L18.5967 166.967ZM15.8656 168.956L18.5934 166.969L18.0047 166.161L15.2769 168.148L15.8656 168.956ZM14.3358 168.421C14.376 168.756 14.576 169.08 14.9565 169.179C15.2914 169.265 15.6192 169.135 15.8653 168.956L15.2772 168.148C15.2243 168.186 15.1881 168.2 15.1726 168.205C15.157 168.209 15.1718 168.201 15.2071 168.21C15.2472 168.221 15.2862 168.246 15.3118 168.28C15.3345 168.309 15.3314 168.325 15.3286 168.302L14.3358 168.421ZM14.0052 165.649L14.3357 168.42L15.3287 168.302L14.9981 165.53L14.0052 165.649ZM13.0929 166.517C13.6438 166.424 14.1819 166.267 14.6964 166.05L14.3069 165.129C13.8642 165.316 13.4012 165.451 12.9272 165.53L13.0929 166.517ZM11.7649 169.609L13.4567 166.248L12.5635 165.799L10.8717 169.159L11.7649 169.609ZM10.2631 170.541C10.6166 170.631 10.9486 170.479 11.1693 170.319C11.4069 170.148 11.6178 169.898 11.7639 169.611L10.8727 169.157C10.7931 169.314 10.6828 169.437 10.5834 169.509C10.4672 169.593 10.4464 169.555 10.511 169.572L10.2631 170.541ZM8.0988 169.982L10.2622 170.54L10.5119 169.572L8.34849 169.014L8.0988 169.982ZM7.66433 168.332C7.52022 168.618 7.44301 168.936 7.47828 169.23C7.51425 169.529 7.69244 169.886 8.1077 169.985L8.3396 169.012C8.38608 169.023 8.42899 169.053 8.45514 169.088C8.4767 169.117 8.47374 169.132 8.47115 169.11C8.46544 169.063 8.47557 168.944 8.55721 168.783L7.66433 168.332ZM9.35595 164.972L7.66417 168.333L8.55737 168.782L10.2491 165.422L9.35595 164.972ZM8.597 164.409C8.81514 164.841 9.10753 165.231 9.46081 165.562L10.1443 164.832C9.87657 164.581 9.65499 164.285 9.48967 163.958L8.597 164.409ZM6.61394 166.572L9.33772 164.587L8.74894 163.779L6.02517 165.763L6.61394 166.572ZM5.08405 166.036C5.12433 166.372 5.3243 166.695 5.70479 166.794C6.03968 166.881 6.36754 166.751 6.61362 166.572L6.02549 165.763C5.9726 165.801 5.93644 165.816 5.92086 165.82C5.90528 165.824 5.92008 165.817 5.9554 165.826C5.99553 165.836 6.03453 165.862 6.0601 165.895C6.08276 165.925 6.07969 165.94 6.07693 165.917L5.08405 166.036ZM18.41 154.823C18.5033 155.598 18.2779 156.581 17.7918 157.547C17.3086 158.507 16.5944 159.396 15.7795 159.99L16.3681 160.798C17.331 160.097 18.1419 159.076 18.6851 157.996C19.2253 156.923 19.5273 155.738 19.4029 154.703L18.41 154.823ZM15.582 154.234C16.4066 153.634 17.1033 153.499 17.558 153.616C17.9668 153.722 18.32 154.069 18.41 154.822L19.4029 154.704C19.2766 153.646 18.7093 152.88 17.8073 152.648C16.9511 152.428 15.9466 152.732 14.9934 153.426L15.582 154.234ZM12.9516 159.403C12.8589 158.628 13.0844 157.644 13.5703 156.678C14.0534 155.717 14.7673 154.828 15.582 154.234L14.9934 153.426C14.0304 154.127 13.2198 155.149 12.6769 156.229C12.1369 157.302 11.835 158.488 11.9586 159.522L12.9516 159.403ZM15.7795 159.99C14.9549 160.59 14.2582 160.725 13.8034 160.608C13.3945 160.503 13.0415 160.156 12.9516 159.403L11.9586 159.522C12.085 160.579 12.6525 161.344 13.5544 161.576C14.4105 161.797 15.4149 161.492 16.3681 160.798L15.7795 159.99Z" fill="#272727"/>
<path d="M7.77352 127.325L6.99146 127.779V127.119L9.30539 125.775V126.435L8.52198 126.888V130.847L7.77352 131.281V127.325Z" fill="#272727"/>
<path fill-rule="evenodd" clip-rule="evenodd" d="M11.1156 124.728L10.0056 125.371L10.0002 129.985L10.7487 129.551V127.576L11.0081 127.426C11.3426 127.228 11.477 127.293 11.477 127.722V128.566C11.477 128.937 11.5032 128.997 11.5439 129.09L11.5456 129.094L12.3128 128.646C12.2411 128.485 12.2128 128.308 12.2309 128.133V127.326C12.2309 126.806 12.1086 126.533 11.7337 126.638V126.625C12.059 126.314 12.2373 125.881 12.2241 125.431V125.146C12.2241 124.434 11.8909 124.278 11.1156 124.728ZM11.4757 126.01C11.4857 126.326 11.3102 126.619 11.0269 126.759L10.7541 126.916V125.596L11.0941 125.399C11.3601 125.25 11.4757 125.324 11.4757 125.653V126.01Z" fill="#272727"/>
<path fill-rule="evenodd" clip-rule="evenodd" d="M14.6805 122.659L13.666 123.248L12.8933 128.315L13.588 127.911L13.7224 126.929L14.573 126.435V126.422L14.7074 127.261L15.4558 126.826L14.6805 122.659ZM14.1497 123.771L14.483 125.863L13.8097 126.251L14.1363 123.779L14.1497 123.771Z" fill="#272727"/>
<path d="M16.0955 125.384V122.904C16.0955 122.191 16.4771 121.548 17.1973 121.13C17.9176 120.711 18.3005 120.912 18.3005 121.626V122.114L17.5924 122.517V121.979C17.5924 121.675 17.4432 121.636 17.2175 121.767C16.9812 121.895 16.8368 122.145 16.8439 122.413V124.993C16.8439 125.297 16.9931 125.328 17.2175 125.197C17.4483 125.077 17.5928 124.838 17.5924 124.577V123.872L18.3005 123.46V124.114C18.3005 124.826 17.9189 125.47 17.1973 125.888C16.4757 126.306 16.0955 126.102 16.0955 125.384Z" fill="#272727"/>
<path d="M19.0894 120.103L19.8378 119.669V121.62L20.7905 119.121L21.539 118.687L20.6468 120.9L21.5524 123.298L20.7704 123.752L20.1375 122.06L19.8378 122.821V124.293L19.0894 124.727V120.103Z" fill="#272727"/>
<path d="M22.2458 118.27L22.9943 117.838V122.456L22.2458 122.891V118.27Z" fill="#272727"/>
<path d="M23.8931 117.319L24.8337 116.781L25.562 119.123H25.5754V116.358L26.2473 115.97V120.589L25.4787 121.035L24.5797 118.168L24.5663 118.176V121.548L23.8944 121.935L23.8931 117.319Z" fill="#272727"/>
<path d="M27.0833 118.988V116.561C27.0833 115.821 27.4649 115.179 28.1999 114.751C28.9349 114.324 29.3152 114.527 29.3152 115.266V115.661L28.6071 116.073V115.63C28.6071 115.3 28.4579 115.262 28.2201 115.4C27.9699 115.533 27.8186 115.798 27.8317 116.081V118.608C27.8317 118.937 27.9822 118.969 28.2201 118.831C28.4684 118.701 28.6192 118.439 28.6071 118.159V117.254L28.2335 117.472V116.812L29.3085 116.184V117.695C29.3085 118.434 28.9269 119.078 28.1932 119.504C27.4595 119.93 27.0833 119.727 27.0833 118.988Z" fill="#272727"/>
<path d="M31.5674 112.864L32.6424 112.244L33.1181 115.274L33.1315 115.266L33.6085 111.684L34.6835 111.064V115.683L33.9754 116.094V112.599L33.9619 112.607L33.4177 116.421L32.7768 116.781L32.2393 113.599L32.2258 113.607V117.102L31.5728 117.481L31.5674 112.864Z" fill="#272727"/>
<path d="M35.5676 110.544L37.6088 109.36V110.02L36.3161 110.77V111.99L37.3441 111.395V112.053L36.3161 112.65V114.068L37.6088 113.318V113.978L35.5676 115.168V110.544Z" fill="#272727"/>
<path d="M38.3774 108.914L39.3181 108.376L40.0464 110.719L40.0598 110.711V107.946L40.7317 107.559V112.177L39.9631 112.624L39.0654 109.773L39.052 109.781V113.152L38.3801 113.538L38.3774 108.914Z" fill="#272727"/>
<path d="M42.2086 107.351L41.4265 107.806V107.146L43.7391 105.802V106.462L42.957 106.915V110.873L42.2086 111.307V107.351Z" fill="#272727"/>
<path d="M44.4404 105.397L45.1889 104.963V109.582L44.4404 110.016V105.397Z" fill="#272727"/>
<path fill-rule="evenodd" clip-rule="evenodd" d="M46.0327 105.569V107.998C46.0327 108.736 46.4345 108.925 47.1682 108.499C47.9019 108.073 48.305 107.419 48.305 106.679V104.252C48.305 103.512 47.9005 103.323 47.1682 103.749C46.4358 104.175 46.0327 104.83 46.0327 105.569ZM47.5565 104.639V107.159H47.5579C47.5707 107.442 47.4189 107.707 47.1682 107.839C46.9303 107.978 46.7812 107.939 46.7812 107.609V105.089C46.7678 104.807 46.9185 104.542 47.1682 104.409C47.406 104.27 47.5565 104.309 47.5565 104.639Z" fill="#272727"/>
<path d="M49.1489 102.667L50.0895 102.121L50.8179 104.464L50.8313 104.456V101.691L51.5032 101.305V105.924L50.7345 106.37L49.8369 103.519L49.8235 103.527V106.898L49.1516 107.286L49.1489 102.667Z" fill="#272727"/>
<path d="M52.261 104.382V104.113L52.9678 103.71V104.026C52.9678 104.357 53.1183 104.387 53.3561 104.25C53.6083 104.117 53.7595 103.848 53.7431 103.563C53.7431 103.18 53.594 103.026 53.1035 102.891C52.4787 102.721 52.2744 102.463 52.2744 101.934C52.2744 101.208 52.6614 100.562 53.3897 100.14C54.118 99.7177 54.4782 99.9301 54.4782 100.669V100.86L53.7714 101.27V101.034C53.7714 100.703 53.637 100.657 53.3965 100.794C53.1547 100.924 53.0105 101.183 53.0269 101.457C53.0269 101.793 53.1828 101.946 53.6733 102.078C54.2995 102.25 54.4956 102.504 54.4956 103.078C54.4956 103.831 54.1019 104.482 53.3669 104.908C52.6319 105.334 52.261 105.121 52.261 104.382Z" fill="#272727"/>
<path d="M93.9171 87.7461L93.979 87.7595C93.979 87.863 93.9669 87.9746 93.9521 88.0916C93.9386 87.9706 93.9265 87.855 93.9171 87.7461Z" fill="#363636"/>
<defs>
<linearGradient id="paint0_linear_0_8181" x1="275.162" y1="163.949" x2="212.231" y2="163.949" gradientUnits="userSpaceOnUse">
<stop stop-color="white"/>
<stop offset="1" stop-color="#F8BF30" stop-opacity="0.8"/>
</linearGradient>
<linearGradient id="paint1_linear_0_8181" x1="244.426" y1="195.387" x2="238.241" y2="195.387" gradientUnits="userSpaceOnUse">
<stop stop-color="white"/>
<stop offset="1" stop-color="white"/>
</linearGradient>
</defs>
</svg>
