<svg width="20" height="20" viewBox="0 0 20 20" fill="none" xmlns="http://www.w3.org/2000/svg">
<path fill-rule="evenodd" clip-rule="evenodd" d="M4.07899 10.312C3.97399 10.118 3.97399 9.88201 4.07899 9.68901C5.33999 7.35501 7.66999 5.33301 9.99999 5.33301C12.33 5.33301 14.66 7.35501 15.921 9.68801C16.026 9.88201 16.026 10.118 15.921 10.311C14.66 12.645 12.33 14.667 9.99999 14.667C7.66999 14.667 5.33999 12.645 4.07899 10.312V10.312Z" stroke="#272727" stroke-width="1.5" stroke-linecap="round" stroke-linejoin="round"/>
<path d="M11.2374 8.76256C11.9208 9.44598 11.9208 10.554 11.2374 11.2374C10.554 11.9209 9.44591 11.9209 8.7625 11.2374C8.07908 10.554 8.07908 9.44597 8.7625 8.76256C9.44592 8.07915 10.554 8.07915 11.2374 8.76256" stroke="#272727" stroke-width="1.5" stroke-linecap="round" stroke-linejoin="round"/>
<path d="M5.5 1H3.25C2.007 1 1 2.007 1 3.25V5.5" stroke="#272727" stroke-width="1.5" stroke-linecap="round" stroke-linejoin="round"/>
<path d="M1 14.5V16.75C1 17.993 2.007 19 3.25 19H5.5" stroke="#272727" stroke-width="1.5" stroke-linecap="round" stroke-linejoin="round"/>
<path d="M14.5 19H16.75C17.993 19 19 17.993 19 16.75V14.5" stroke="#272727" stroke-width="1.5" stroke-linecap="round" stroke-linejoin="round"/>
<path d="M19 5.5V3.25C19 2.007 17.993 1 16.75 1H14.5" stroke="#272727" stroke-width="1.5" stroke-linecap="round" stroke-linejoin="round"/>
</svg>
