<svg width="340" height="209" viewBox="0 0 340 209" fill="none" xmlns="http://www.w3.org/2000/svg">
<path d="M74.59 57.1586V103.182C74.5898 104.516 73.8813 105.748 72.7306 106.417L5.60464 145.477C4.44993 146.148 3.02571 146.15 1.86925 145.482C0.712787 144.814 8.47735e-05 143.577 0 142.238V95.9649C0.000528433 94.6271 0.713164 93.3914 1.86914 92.7237L68.9951 53.9174C70.1494 53.2491 71.5716 53.2492 72.7258 53.9178C73.8799 54.5865 74.5906 55.8219 74.59 57.1586Z" fill="#F8BF30" stroke="white" stroke-width="1.3956"/>
<path d="M85.6374 119.228L72.7249 126.733L72.6287 126.686L66.3936 123.503L67.4606 120.795L72.6426 118.042L85.3082 111.309L85.6374 119.228Z" fill="#F8BF30"/>
<path d="M72.6426 118.042V126.651C72.6393 126.663 72.6351 126.674 72.6301 126.686L66.3936 123.503L67.4606 120.795L72.6426 118.042Z" fill="#E6A917"/>
<path d="M85.4729 65.1771V110.29C85.4727 111.597 84.7788 112.806 83.6512 113.462L17.8504 151.75C16.7185 152.408 15.3223 152.41 14.1885 151.755C13.0547 151.1 12.3559 149.888 12.356 148.576V103.215C12.3564 101.904 13.0546 100.693 14.1874 100.039L79.9883 61.9989C81.1201 61.3442 82.5141 61.3448 83.6454 62.0004C84.7766 62.6559 85.4733 63.8669 85.4729 65.1771Z" fill="#272727"/>
<path d="M76.5049 95.8542V106.289C76.5045 107.594 75.8103 108.801 74.6828 109.455L61.5895 117.064L29.0541 135.985C28.3189 136.411 27.4129 136.411 26.6773 135.987C25.9416 135.562 25.488 134.777 25.4873 133.926V123.331C25.4866 122.022 26.1843 120.812 27.3172 120.157L57.9886 102.435L72.9443 93.7936C73.6794 93.3712 74.5834 93.3726 75.3172 93.7973C76.051 94.2219 76.5035 95.0056 76.5049 95.8542Z" fill="#F8BF30"/>
<path opacity="0.70174" d="M61.7601 116.378C61.7105 116.611 61.6546 116.844 61.5895 117.067L29.0541 135.985C28.3189 136.411 27.4129 136.411 26.6773 135.987C25.9416 135.562 25.488 134.777 25.4873 133.926V123.331C25.4866 122.022 26.1843 120.812 27.3172 120.157L57.9886 102.435C58.2988 104.609 56.748 109.005 57.0333 109.724C58.3654 113.01 62.6952 111.92 61.7601 116.378Z" fill="#FFD770"/>
<path fill-rule="evenodd" clip-rule="evenodd" d="M36.3039 120.407L34.9997 121.157L34.0088 127.251L34.902 126.737L35.0773 125.557L36.1628 124.926V124.911L36.3381 125.906L37.3011 125.352L36.3039 120.407ZM35.6201 121.758L36.0496 124.243L35.1827 124.738L35.603 121.769L35.6201 121.758Z" fill="#121212"/>
<path d="M38.202 119.31L39.4101 118.614L40.3405 121.38L40.3591 121.369V118.066L41.2167 117.572V123.091L40.2273 123.661L39.072 120.296L39.0549 120.307V124.335L38.1958 124.828L38.202 119.31Z" fill="#121212"/>
<path fill-rule="evenodd" clip-rule="evenodd" d="M44.4254 115.729L43.1227 116.479L42.124 122.572L43.0173 122.058L43.1925 120.878L44.2858 120.247V120.232L44.4611 121.227L45.4241 120.673L44.4254 115.729ZM43.743 117.08L44.1726 119.564L43.3057 120.07L43.726 117.089L43.743 117.08Z" fill="#121212"/>
<path d="M46.3252 114.636L47.2882 114.081V118.811L48.8731 117.897V118.685L46.3252 120.151V114.636Z" fill="#121212"/>
<path d="M49.8888 115.755L48.7241 113.255L49.7476 112.665L50.4052 114.314L50.4222 114.305L51.0782 111.899L52.0087 111.361L50.844 115.201V117.55L49.8826 118.105L49.8888 115.755Z" fill="#121212"/>
<path d="M52.6973 115.723L54.4838 110.737L52.7779 111.715V110.926L55.5088 109.354V110.131L53.7301 115.101L55.5166 114.074V114.862L52.6973 116.485L52.6973 115.723Z" fill="#121212"/>
<path d="M56.4966 108.781L57.4596 108.229V113.747L56.4966 114.302V108.781Z" fill="#121212"/>
<path d="M58.6151 107.562L59.8231 106.868L60.7536 109.632L60.7707 109.623V106.319L61.6283 105.826V111.345L60.6389 111.913L59.4835 108.55L59.4665 108.559V112.597L58.6089 113.091L58.6151 107.562Z" fill="#121212"/>
<path d="M62.7202 109.412V106.51C62.7202 105.626 63.2103 104.84 64.1562 104.297C65.1022 103.753 65.5907 103.976 65.5907 104.858V105.331L64.6804 105.854V105.326C64.6804 104.932 64.4881 104.893 64.1826 105.07C63.8691 105.226 63.6743 105.55 63.6833 105.901V108.921C63.6833 109.316 63.8755 109.347 64.1826 109.17C64.4946 109.016 64.6889 108.695 64.6804 108.347V107.26L64.1997 107.538V106.749L65.5954 105.948V107.754C65.5954 108.637 65.1053 109.423 64.1609 109.968C63.2165 110.513 62.7202 110.288 62.7202 109.412Z" fill="#121212"/>
<ellipse cx="67.2657" cy="108.179" rx="0.74198" ry="0.5" transform="rotate(-58.34 67.2657 108.179)" fill="white"/>
<ellipse cx="68.0267" cy="106.592" rx="0.739345" ry="0.5" transform="rotate(-58.5432 68.0267 106.592)" fill="white"/>
<ellipse cx="71.1065" cy="105.982" rx="0.74198" ry="0.5" transform="rotate(-58.34 71.1065 105.982)" fill="white"/>
<path d="M191.873 151.833L190.65 149.687C191.14 151.322 188.205 152.6 195.084 156.23L237.339 180.488C239.475 181.732 242.112 181.732 244.247 180.488L292.568 152.555C293.053 152.262 293.357 151.744 293.378 151.177C293.398 150.61 293.131 150.071 292.669 149.744L286.965 145.707L191.873 151.833Z" fill="#B0ADA4"/>
<path d="M291.453 150.704L288.776 152.262L243.275 178.747C241.776 179.621 239.927 179.628 238.421 178.767L190.467 151.349C189.134 150.585 189.054 145.359 190.374 144.57L235.122 121.157L238.156 119.338C239.668 118.436 241.548 118.422 243.073 119.302L291.457 144.69C292.795 145.468 292.788 149.928 291.453 150.704Z" fill="#D1CAC0"/>
<path d="M291.453 147.448L288.776 149.006L243.275 175.491C241.776 176.364 239.926 176.372 238.42 175.511L190.467 148.093C189.848 147.738 189.463 147.08 189.456 146.364C189.449 145.649 189.821 144.983 190.434 144.616L235.122 117.898L238.155 116.079C239.667 115.176 241.547 115.162 243.072 116.043L291.446 143.955C292.071 144.312 292.458 144.977 292.46 145.699C292.461 146.421 292.077 147.088 291.453 147.448Z" fill="#F8F2E4"/>
<path d="M291.453 147.448L288.776 149.006L235.122 117.902L238.155 116.083C239.667 115.18 241.547 115.166 243.072 116.047L291.446 143.959C292.069 144.316 292.455 144.981 292.456 145.701C292.457 146.421 292.075 147.088 291.453 147.448Z" fill="#D9D5CA"/>
<path d="M280.21 149.395C280.042 149.395 279.877 149.35 279.733 149.263C277.85 148.144 275.967 147.06 274.141 146.012C272.104 144.843 269.998 143.634 267.903 142.375C267.477 142.101 267.345 141.536 267.606 141.101C267.866 140.665 268.424 140.516 268.867 140.764C270.945 142.013 273.043 143.217 275.072 144.383C276.902 145.433 278.794 146.52 280.69 147.649C281.052 147.866 281.225 148.298 281.113 148.706C281.001 149.113 280.631 149.396 280.21 149.396V149.395Z" fill="#D9D5CA"/>
<path d="M264.349 140.164C264.183 140.164 264.021 140.12 263.879 140.036C262.517 139.245 261.156 138.452 259.796 137.658C259.365 137.39 259.225 136.826 259.48 136.387C259.735 135.947 260.293 135.791 260.739 136.034C262.099 136.829 263.46 137.621 264.82 138.412C265.187 138.626 265.364 139.06 265.254 139.47C265.144 139.88 264.772 140.165 264.349 140.165V140.164Z" fill="#D9D5CA"/>
<path d="M274.088 153.28C273.922 153.28 273.758 153.235 273.615 153.151C272.522 152.51 271.429 151.87 270.334 151.232C269.903 150.963 269.763 150.4 270.019 149.96C270.274 149.52 270.832 149.364 271.277 149.607L274.562 151.53C274.926 151.745 275.102 152.177 274.991 152.586C274.88 152.995 274.51 153.279 274.088 153.28Z" fill="#D9D5CA"/>
<path d="M266.761 149.004C266.596 149.004 266.434 148.961 266.291 148.879C265.367 148.34 264.443 147.803 263.518 147.267L262.496 146.674C259.603 144.995 256.611 143.258 253.672 141.54C253.381 141.372 253.201 141.06 253.202 140.723C253.202 140.385 253.383 140.074 253.676 139.908C253.968 139.741 254.327 139.744 254.617 139.916C257.553 141.632 260.544 143.368 263.437 145.047L264.456 145.64L267.231 147.252C267.597 147.465 267.775 147.898 267.665 148.309C267.555 148.719 267.184 149.004 266.761 149.004Z" fill="#D9D5CA"/>
<path d="M267.966 156.977C267.849 156.976 267.735 156.949 267.631 156.897C267.363 156.757 267.131 156.63 266.907 156.501C266.682 156.372 266.488 156.26 266.257 156.144C266.207 156.118 266.16 156.087 266.117 156.051C265.452 155.491 264.651 155.15 263.803 154.792C263.775 154.78 263.747 154.767 263.721 154.751C262.563 154.074 261.435 153.391 260.344 152.732C258.566 151.657 256.885 150.634 255.149 149.684C254.806 149.475 254.687 149.032 254.881 148.678C255.075 148.325 255.512 148.187 255.872 148.367C257.634 149.346 259.326 150.361 261.118 151.444C262.192 152.093 263.303 152.765 264.437 153.428C265.308 153.803 266.205 154.194 267.009 154.846C267.246 154.968 267.454 155.087 267.656 155.203C267.858 155.319 268.074 155.443 268.307 155.56C268.619 155.715 268.784 156.066 268.703 156.406C268.623 156.745 268.32 156.985 267.971 156.984L267.966 156.977Z" fill="#D9D5CA"/>
<path d="M251.626 147.646C251.468 147.646 251.313 147.606 251.175 147.53C249.672 146.701 248.218 145.851 246.851 145.02C246.421 144.745 246.289 144.175 246.555 143.738C246.821 143.301 247.387 143.158 247.828 143.416C249.165 144.238 250.594 145.068 252.072 145.882C252.448 146.089 252.636 146.525 252.529 146.941C252.422 147.357 252.047 147.647 251.619 147.646H251.626Z" fill="#D9D5CA"/>
<path d="M261.843 161.049C261.678 161.049 261.516 161.005 261.373 160.922L258.808 159.425C256.476 158.062 254.145 156.699 251.814 155.334L249.861 154.196C249.57 154.028 249.39 153.716 249.391 153.379C249.391 153.041 249.572 152.73 249.865 152.563C250.157 152.397 250.516 152.4 250.806 152.572L252.759 153.712C255.09 155.076 257.421 156.439 259.751 157.801L262.315 159.296C262.681 159.51 262.859 159.943 262.749 160.354C262.639 160.764 262.267 161.049 261.843 161.049Z" fill="#D9D5CA"/>
<path d="M246.357 151.997C246.192 151.997 246.029 151.952 245.886 151.868L242.806 150.07C242.516 149.901 242.339 149.59 242.34 149.255C242.341 148.919 242.521 148.609 242.811 148.442C243.102 148.275 243.459 148.276 243.749 148.445L246.832 150.245C247.198 150.459 247.376 150.892 247.266 151.303C247.155 151.713 246.784 151.998 246.36 151.998L246.357 151.997Z" fill="#D9D5CA"/>
<path d="M239.224 147.838C239.06 147.838 238.898 147.794 238.756 147.712C235.302 145.704 232.2 143.914 229.287 142.239C228.985 142.079 228.794 141.766 228.789 141.423C228.784 141.08 228.965 140.761 229.263 140.592C229.56 140.422 229.926 140.428 230.217 140.608C233.138 142.287 236.239 144.076 239.696 146.085C240.062 146.299 240.24 146.732 240.13 147.143C240.019 147.553 239.648 147.838 239.224 147.838Z" fill="#D9D5CA"/>
<path d="M225.966 140.161C225.825 140.16 225.686 140.128 225.56 140.067C225.133 139.861 224.77 139.647 224.419 139.43C224.041 139.191 223.648 138.978 223.241 138.794C223.131 138.747 223.031 138.679 222.947 138.594L222.679 138.325C221.189 137.587 219.748 136.756 218.362 135.837C218.167 135.722 217.944 135.613 217.709 135.497C217.202 135.269 216.722 134.984 216.278 134.648C216.004 134.442 215.863 134.103 215.911 133.763C215.958 133.423 216.187 133.137 216.507 133.015C216.828 132.894 217.188 132.957 217.448 133.18C217.786 133.429 218.149 133.639 218.532 133.808C218.8 133.94 219.076 134.076 219.344 134.236L219.382 134.26C220.752 135.167 222.18 135.984 223.654 136.708C223.745 136.753 223.827 136.812 223.898 136.883L224.149 137.136C224.573 137.339 224.986 137.565 225.384 137.815C225.713 138.012 226.024 138.199 226.373 138.374C226.768 138.564 226.979 139.003 226.882 139.431C226.784 139.86 226.404 140.163 225.966 140.162V140.161Z" fill="#D9D5CA"/>
<path d="M254.971 164.307C254.808 164.307 254.647 164.264 254.505 164.182C253.372 163.53 252.241 162.877 251.111 162.224C247.323 160.033 243.555 157.834 239.375 155.393C238.932 155.13 238.783 154.557 239.043 154.111C239.302 153.665 239.872 153.512 240.319 153.769C244.504 156.209 248.27 158.406 252.047 160.596C253.177 161.249 254.307 161.901 255.438 162.554C255.807 162.766 255.987 163.2 255.878 163.612C255.768 164.024 255.396 164.31 254.971 164.31V164.307Z" fill="#D9D5CA"/>
<path d="M235.869 153.198C235.704 153.198 235.542 153.154 235.399 153.071L232.111 151.155C228.641 149.132 224.943 147.02 220.475 144.504C220.024 144.25 219.863 143.677 220.117 143.224C220.37 142.772 220.942 142.611 221.393 142.865C225.869 145.383 229.574 147.502 233.053 149.529L236.342 151.447C236.71 151.66 236.888 152.094 236.777 152.505C236.666 152.916 236.294 153.201 235.869 153.198Z" fill="#D9D5CA"/>
<path d="M216.78 142.223C216.711 142.222 216.642 142.214 216.574 142.199C216.082 142.079 215.637 141.816 215.293 141.444C214.716 141.119 214.149 140.804 213.592 140.494C212.23 139.737 210.941 139.022 209.633 138.235C209.197 137.964 209.06 137.392 209.323 136.952C209.587 136.511 210.155 136.365 210.598 136.623C211.88 137.394 213.152 138.102 214.504 138.849C215.102 139.182 215.709 139.519 216.327 139.867C216.401 139.91 216.47 139.962 216.531 140.022C216.754 140.246 216.851 140.334 216.991 140.365C217.458 140.469 217.772 140.91 217.719 141.387C217.666 141.864 217.263 142.224 216.784 142.223H216.78Z" fill="#D9D5CA"/>
<path d="M248.849 168.192C248.686 168.191 248.526 168.148 248.384 168.067C246.92 167.228 245.434 166.369 243.999 165.538L243.632 165.325C242.271 164.538 240.823 163.701 239.397 162.886C238.934 162.62 238.443 162.357 237.968 162.101C236.961 161.582 235.983 161.01 235.038 160.386C233.235 159.149 231.272 158.046 229.372 156.978C228.553 156.518 227.707 156.042 226.882 155.56C226.593 155.391 226.415 155.08 226.417 154.745C226.418 154.409 226.597 154.1 226.887 153.933C227.178 153.766 227.535 153.767 227.824 153.936C228.637 154.41 229.477 154.883 230.289 155.334C232.223 156.421 234.224 157.546 236.096 158.832C236.988 159.418 237.911 159.956 238.86 160.443C239.346 160.703 239.848 160.973 240.333 161.252C241.762 162.069 243.212 162.908 244.575 163.696L244.942 163.908C246.376 164.738 247.86 165.597 249.322 166.435C249.69 166.646 249.871 167.08 249.762 167.492C249.652 167.904 249.281 168.19 248.856 168.19L248.849 168.192Z" fill="#D9D5CA"/>
<path d="M223.327 153.437C223.167 153.438 223.011 153.397 222.872 153.319C220.388 151.928 217.749 150.441 215.19 148.872C214.89 148.704 214.705 148.384 214.709 148.039C214.712 147.694 214.904 147.379 215.209 147.218C215.513 147.057 215.881 147.077 216.167 147.268C218.696 148.82 221.315 150.297 223.783 151.676C224.156 151.885 224.341 152.32 224.234 152.734C224.126 153.149 223.752 153.438 223.325 153.437H223.327Z" fill="#D9D5CA"/>
<path d="M211.512 146.608C211.347 146.608 211.185 146.564 211.043 146.481C210.103 145.935 209.15 145.391 208.23 144.867C206.684 143.985 205.086 143.073 203.511 142.126C203.075 141.855 202.937 141.284 203.201 140.843C203.465 140.403 204.033 140.256 204.476 140.515C206.031 141.451 207.62 142.356 209.156 143.233C210.081 143.76 211.036 144.306 211.983 144.855C212.35 145.069 212.528 145.503 212.417 145.913C212.307 146.323 211.936 146.608 211.512 146.608Z" fill="#D9D5CA"/>
<path d="M242.727 172.076C242.56 172.076 242.397 172.032 242.254 171.948C241.422 171.46 240.59 170.974 239.755 170.49C237.012 168.898 234.212 167.298 231.505 165.749L230.777 165.33C230.473 165.17 230.281 164.857 230.275 164.513C230.269 164.17 230.45 163.85 230.748 163.68C231.046 163.51 231.412 163.516 231.704 163.697L232.432 164.117C235.143 165.667 237.946 167.268 240.694 168.863C241.531 169.349 242.368 169.836 243.205 170.325C243.57 170.539 243.747 170.972 243.636 171.382C243.526 171.792 243.155 172.076 242.732 172.076H242.727Z" fill="#D9D5CA"/>
<path d="M227.368 163.238C227.204 163.239 227.044 163.196 226.903 163.114C224.369 161.659 221.028 159.731 217.647 157.718C217.359 157.547 217.184 157.234 217.188 156.898C217.192 156.563 217.374 156.254 217.666 156.09C217.958 155.925 218.315 155.93 218.603 156.101C221.973 158.109 225.299 160.032 227.835 161.483C228.204 161.695 228.384 162.129 228.274 162.541C228.165 162.952 227.793 163.239 227.368 163.238Z" fill="#D9D5CA"/>
<path d="M213.848 155.378C213.681 155.377 213.517 155.332 213.373 155.246C210.888 153.775 208.297 152.298 205.79 150.868C203.017 149.287 200.149 147.65 197.392 146.005C196.955 145.736 196.814 145.165 197.076 144.724C197.338 144.282 197.906 144.133 198.35 144.39C201.092 146.026 203.952 147.657 206.719 149.234C209.23 150.666 211.831 152.149 214.33 153.628C214.692 153.845 214.866 154.277 214.754 154.685C214.643 155.093 214.273 155.377 213.851 155.378H213.848Z" fill="#D9D5CA"/>
<path d="M235.293 122.079L256.034 133.857L241.04 142.253L220.174 130.599L235.293 122.079Z" fill="#D9D5CA"/>
<path d="M227.483 131.916L234.73 130.537V133.294H241.852L239.478 138.807L227.483 131.916Z" fill="#F8F2E4"/>
<ellipse cx="238.291" cy="130.286" rx="1.9361" ry="1.1275" fill="#F8F2E4"/>
<path d="M125.895 137.62L125.082 136.194C125.407 137.28 123.456 138.13 128.03 140.543L156.12 156.668C157.539 157.496 159.292 157.496 160.712 156.668L192.834 138.099C193.155 137.903 193.355 137.559 193.369 137.183C193.382 136.807 193.206 136.449 192.9 136.231L189.109 133.547L125.895 137.62Z" fill="#B0ADA4"/>
<path d="M192.087 136.869L190.308 137.904L160.059 155.512C159.063 156.092 157.834 156.097 156.834 155.525L124.955 137.299C124.068 136.791 124.017 133.317 124.894 132.791L154.64 117.232L156.657 116.027C157.662 115.426 158.912 115.416 159.926 116.002L192.09 132.88C192.98 133.389 192.975 136.353 192.087 136.869Z" fill="#D1CAC0"/>
<path d="M192.087 134.704L190.308 135.739L160.059 153.347C159.063 153.927 157.834 153.932 156.834 153.359L124.955 135.138C124.543 134.902 124.286 134.464 124.282 133.988C124.277 133.513 124.525 133.07 124.933 132.827L154.644 115.061L156.661 113.855C157.666 113.255 158.916 113.245 159.93 113.83L192.087 132.386C192.5 132.625 192.755 133.067 192.755 133.545C192.755 134.023 192.5 134.465 192.087 134.704Z" fill="#F8F2E4"/>
<path d="M192.087 134.704L190.308 135.739L154.64 115.062L156.657 113.856C157.662 113.256 158.912 113.246 159.926 113.831L192.082 132.387C192.496 132.625 192.751 133.066 192.752 133.544C192.752 134.022 192.499 134.464 192.087 134.704Z" fill="#D9D5CA"/>
<path d="M184.62 135.999C184.509 135.999 184.399 135.969 184.304 135.911C183.048 135.167 181.793 134.446 180.586 133.751C179.232 132.973 177.831 132.169 176.439 131.333C176.151 131.152 176.06 130.773 176.234 130.481C176.409 130.188 176.785 130.09 177.079 130.26C178.462 131.091 179.857 131.892 181.206 132.666C182.422 133.365 183.68 134.087 184.94 134.837C185.181 134.981 185.296 135.269 185.222 135.54C185.147 135.811 184.901 135.999 184.62 135.999Z" fill="#D9D5CA"/>
<path d="M174.069 129.862C173.96 129.862 173.852 129.833 173.757 129.778C172.852 129.251 171.947 128.724 171.042 128.195C170.757 128.016 170.664 127.641 170.834 127.35C171.004 127.058 171.374 126.954 171.67 127.115L174.382 128.703C174.627 128.843 174.747 129.132 174.673 129.406C174.6 129.68 174.352 129.869 174.069 129.868V129.862Z" fill="#D9D5CA"/>
<path d="M180.543 138.581C180.433 138.581 180.324 138.552 180.229 138.496C179.504 138.069 178.777 137.644 178.049 137.22C177.845 137.114 177.717 136.904 177.714 136.674C177.711 136.443 177.835 136.23 178.036 136.119C178.236 136.007 178.482 136.016 178.675 136.14C179.403 136.566 180.131 136.991 180.858 137.418C181.1 137.561 181.217 137.848 181.143 138.12C181.069 138.392 180.824 138.581 180.543 138.581Z" fill="#D9D5CA"/>
<path d="M175.672 135.739C175.562 135.739 175.455 135.71 175.361 135.655C174.746 135.298 174.131 134.941 173.516 134.584L172.839 134.19C170.915 133.071 168.933 131.919 166.972 130.777C166.772 130.669 166.647 130.459 166.646 130.231C166.644 130.003 166.767 129.793 166.965 129.682C167.164 129.57 167.407 129.576 167.599 129.697C169.552 130.839 171.54 131.993 173.458 133.109L174.136 133.502L175.981 134.574C176.224 134.716 176.342 135.004 176.269 135.277C176.195 135.549 175.949 135.739 175.667 135.739H175.672Z" fill="#D9D5CA"/>
<path d="M176.474 141.039C176.396 141.039 176.32 141.02 176.251 140.986C176.072 140.897 175.919 140.808 175.769 140.723C175.62 140.638 175.49 140.564 175.337 140.487C175.303 140.468 175.271 140.447 175.241 140.422C174.798 140.053 174.264 139.825 173.706 139.583C173.688 139.575 173.669 139.566 173.652 139.556C172.882 139.106 172.133 138.653 171.408 138.215C170.225 137.5 169.107 136.824 167.954 136.188C167.713 136.055 167.625 135.751 167.758 135.509C167.891 135.267 168.194 135.179 168.435 135.312C169.605 135.958 170.731 136.638 171.922 137.357C172.636 137.79 173.374 138.236 174.128 138.676C174.708 138.925 175.303 139.186 175.838 139.619C175.995 139.7 176.133 139.779 176.269 139.856C176.404 139.933 176.548 140.017 176.701 140.094C176.909 140.197 177.018 140.43 176.965 140.656C176.912 140.882 176.71 141.042 176.478 141.041L176.474 141.039Z" fill="#D9D5CA"/>
<path d="M165.612 134.837C165.507 134.837 165.404 134.81 165.312 134.758C164.313 134.207 163.346 133.639 162.44 133.091C162.156 132.906 162.07 132.529 162.247 132.239C162.424 131.95 162.798 131.855 163.091 132.025C163.98 132.57 164.93 133.122 165.912 133.664C166.162 133.801 166.288 134.091 166.218 134.368C166.147 134.645 165.897 134.838 165.612 134.837Z" fill="#D9D5CA"/>
<path d="M172.404 143.746C172.294 143.746 172.186 143.717 172.091 143.661L170.387 142.666C168.835 141.761 167.285 140.855 165.736 139.948L164.442 139.19C164.249 139.078 164.132 138.871 164.133 138.648C164.134 138.425 164.254 138.219 164.447 138.109C164.64 137.998 164.877 137.999 165.069 138.111L166.364 138.868L171.013 141.586L172.717 142.581C172.961 142.723 173.078 143.011 173.005 143.284C172.932 143.557 172.685 143.746 172.404 143.746Z" fill="#D9D5CA"/>
<path d="M162.109 137.728C161.999 137.728 161.891 137.699 161.796 137.643C161.114 137.244 160.431 136.845 159.748 136.448C159.462 136.269 159.37 135.895 159.54 135.603C159.709 135.311 160.079 135.207 160.376 135.368L162.423 136.563C162.666 136.705 162.784 136.993 162.711 137.266C162.637 137.538 162.391 137.728 162.109 137.728Z" fill="#D9D5CA"/>
<path d="M157.367 134.964C157.258 134.964 157.15 134.935 157.056 134.88C154.76 133.545 152.701 132.355 150.761 131.243C150.462 131.071 150.358 130.689 150.529 130.39C150.7 130.09 151.081 129.986 151.38 130.157C153.322 131.276 155.382 132.463 157.681 133.794C157.924 133.937 158.042 134.225 157.968 134.497C157.895 134.77 157.648 134.959 157.367 134.96V134.964Z" fill="#D9D5CA"/>
<path d="M148.554 129.859C148.46 129.859 148.368 129.838 148.283 129.798C148.004 129.658 147.759 129.518 147.525 129.378C147.274 129.22 147.012 129.08 146.742 128.959C146.669 128.925 146.602 128.878 146.547 128.819L146.37 128.641C145.38 128.151 144.421 127.6 143.499 126.99C143.369 126.913 143.22 126.841 143.065 126.764C142.728 126.614 142.409 126.426 142.114 126.204C141.844 125.989 141.8 125.595 142.014 125.325C142.229 125.055 142.621 125.01 142.891 125.225C143.116 125.39 143.357 125.531 143.612 125.645C143.791 125.731 143.973 125.821 144.152 125.924L144.177 125.94C145.088 126.542 146.037 127.086 147.017 127.567C147.077 127.597 147.131 127.637 147.179 127.684L147.346 127.852C147.628 127.986 147.902 128.137 148.166 128.303C148.385 128.434 148.585 128.559 148.823 128.67C149.084 128.798 149.223 129.088 149.159 129.371C149.094 129.655 148.844 129.856 148.554 129.858V129.859Z" fill="#D9D5CA"/>
<path d="M167.835 145.909C167.727 145.909 167.62 145.88 167.526 145.826L165.269 144.524C162.758 143.066 160.247 141.606 157.467 139.983C157.267 139.874 157.143 139.665 157.141 139.437C157.14 139.209 157.262 138.999 157.461 138.887C157.659 138.776 157.902 138.782 158.095 138.903C160.872 140.524 163.376 141.981 165.892 143.441C166.643 143.876 167.394 144.309 168.147 144.742C168.391 144.884 168.51 145.172 168.437 145.445C168.364 145.718 168.117 145.908 167.835 145.909Z" fill="#D9D5CA"/>
<path d="M155.138 138.527C155.028 138.527 154.92 138.498 154.825 138.443L152.639 137.169C150.331 135.824 147.873 134.42 144.903 132.748C144.613 132.574 144.514 132.2 144.68 131.905C144.845 131.609 145.216 131.5 145.514 131.658C148.49 133.337 150.954 134.736 153.264 136.087L155.452 137.363C155.696 137.505 155.814 137.793 155.74 138.066C155.667 138.339 155.42 138.528 155.138 138.527Z" fill="#D9D5CA"/>
<path d="M142.447 131.23C142.4 131.231 142.353 131.226 142.308 131.215C141.981 131.135 141.684 130.96 141.455 130.713C141.073 130.497 140.696 130.287 140.324 130.082C139.419 129.578 138.564 129.103 137.693 128.579C137.411 128.396 137.324 128.022 137.497 127.732C137.67 127.443 138.041 127.344 138.335 127.508C139.187 128.021 140.032 128.487 140.928 128.988C141.326 129.209 141.729 129.433 142.14 129.665C142.191 129.693 142.238 129.727 142.28 129.768C142.427 129.917 142.493 129.976 142.585 129.997C142.898 130.064 143.109 130.358 143.073 130.677C143.037 130.995 142.765 131.235 142.446 131.23H142.447Z" fill="#D9D5CA"/>
<path d="M163.765 148.494C163.657 148.494 163.551 148.466 163.457 148.412C162.481 147.852 161.496 147.283 160.54 146.733L160.298 146.593C159.392 146.07 158.43 145.513 157.483 144.972C157.174 144.794 156.848 144.619 156.533 144.45C155.862 144.105 155.21 143.725 154.58 143.31C153.38 142.487 152.069 141.754 150.814 141.044C150.27 140.739 149.706 140.423 149.158 140.102C148.955 139.996 148.826 139.786 148.823 139.555C148.821 139.325 148.944 139.112 149.145 139.001C149.346 138.889 149.591 138.898 149.784 139.022C150.324 139.337 150.882 139.65 151.422 139.954C152.708 140.677 154.039 141.426 155.283 142.277C155.876 142.667 156.489 143.024 157.12 143.349C157.444 143.522 157.777 143.701 158.097 143.886C159.045 144.429 160.01 144.987 160.916 145.512L161.16 145.652C162.114 146.204 163.099 146.771 164.071 147.33C164.317 147.47 164.438 147.759 164.365 148.033C164.292 148.308 164.044 148.498 163.761 148.497L163.765 148.494Z" fill="#D9D5CA"/>
<path d="M146.799 138.686C146.693 138.687 146.589 138.659 146.496 138.607C144.845 137.683 143.092 136.694 141.39 135.651C141.112 135.464 141.031 135.091 141.205 134.806C141.38 134.52 141.748 134.422 142.04 134.585C143.722 135.616 145.463 136.598 147.103 137.523C147.351 137.662 147.473 137.951 147.402 138.226C147.33 138.501 147.083 138.693 146.799 138.693V138.686Z" fill="#D9D5CA"/>
<path d="M159.695 151.076C159.585 151.076 159.476 151.046 159.381 150.991C158.829 150.666 158.275 150.343 157.72 150.021C155.897 148.964 154.036 147.899 152.235 146.87L151.751 146.59C151.464 146.413 151.369 146.04 151.536 145.747C151.703 145.454 152.071 145.346 152.369 145.504L152.853 145.784C154.654 146.814 156.517 147.882 158.345 148.939C158.903 149.261 159.458 149.585 160.01 149.911C160.252 150.054 160.369 150.342 160.295 150.613C160.221 150.885 159.976 151.074 159.695 151.075V151.076Z" fill="#D9D5CA"/>
<path d="M149.486 145.201C149.377 145.201 149.27 145.172 149.176 145.118C147.493 144.152 145.271 142.869 143.023 141.532C142.821 141.423 142.695 141.212 142.695 140.982C142.694 140.752 142.82 140.541 143.021 140.431C143.222 140.322 143.468 140.332 143.659 140.457C145.9 141.79 148.115 143.069 149.797 144.034C150.043 144.174 150.164 144.463 150.091 144.738C150.019 145.012 149.77 145.202 149.487 145.201H149.486Z" fill="#D9D5CA"/>
<path d="M154.754 117.84L168.541 125.67L158.575 131.251L144.704 123.504L154.754 117.84Z" fill="#D9D5CA"/>
<path d="M149.562 124.379L154.38 123.462V125.295H159.115L157.537 128.96L149.562 124.379Z" fill="#F8F2E4"/>
<ellipse cx="156.747" cy="123.296" rx="1.28748" ry="0.749799" fill="#F8F2E4"/>
<path d="M144.803 181.643L143.991 180.216C144.315 181.303 142.363 182.151 146.936 184.567L175.015 200.711C176.434 201.539 178.187 201.539 179.607 200.711L211.742 182.164C212.062 181.968 212.263 181.624 212.277 181.248C212.29 180.872 212.115 180.514 211.809 180.296L208.019 177.609L144.803 181.643Z" fill="#B0ADA4"/>
<path d="M211.003 180.937L209.223 181.971L178.962 199.557C177.966 200.137 176.737 200.141 175.737 199.568L143.871 181.321C142.984 180.814 142.934 177.339 143.811 176.814L173.568 161.27L175.585 160.065C176.591 159.466 177.841 159.458 178.855 160.043L211.007 176.942C211.897 177.456 211.89 180.421 211.003 180.937Z" fill="#D1CAC0"/>
<path d="M211.004 178.77L209.225 179.805L178.964 197.388C177.968 197.968 176.739 197.971 175.739 197.397L143.873 179.152C143.461 178.916 143.205 178.478 143.2 178.002C143.196 177.526 143.444 177.084 143.852 176.841L173.563 159.1L175.58 157.896C176.586 157.296 177.836 157.287 178.85 157.873L210.995 176.449C211.41 176.686 211.668 177.127 211.67 177.607C211.672 178.086 211.418 178.53 211.004 178.77Z" fill="#F8F2E4"/>
<path d="M211.004 178.77L209.224 179.805L173.57 159.102L175.587 157.897C176.592 157.297 177.843 157.289 178.856 157.875L211.002 176.451C211.416 176.689 211.672 177.131 211.672 177.609C211.673 178.088 211.418 178.531 211.004 178.77Z" fill="#D9D5CA"/>
<path d="M203.529 180.061C203.418 180.061 203.308 180.031 203.213 179.973C201.957 179.227 200.702 178.507 199.497 177.81C198.144 177.031 196.743 176.225 195.351 175.389C195.069 175.206 194.982 174.831 195.155 174.542C195.328 174.253 195.699 174.153 195.993 174.317C197.374 175.148 198.768 175.95 200.116 176.726C201.332 177.426 202.589 178.149 203.849 178.899C204.09 179.043 204.205 179.33 204.131 179.602C204.056 179.873 203.81 180.061 203.529 180.061Z" fill="#D9D5CA"/>
<path d="M192.989 173.917C192.879 173.917 192.772 173.887 192.677 173.832C191.772 173.306 190.868 172.778 189.964 172.248C189.678 172.069 189.586 171.695 189.755 171.403C189.925 171.111 190.295 171.007 190.591 171.168L193.303 172.752C193.546 172.894 193.664 173.182 193.59 173.455C193.517 173.727 193.271 173.917 192.989 173.917Z" fill="#D9D5CA"/>
<path d="M199.457 182.641C199.347 182.64 199.239 182.611 199.143 182.555C198.418 182.128 197.691 181.702 196.963 181.278C196.677 181.099 196.585 180.725 196.755 180.433C196.925 180.141 197.295 180.037 197.591 180.198L199.774 181.477C200.016 181.62 200.133 181.908 200.059 182.18C199.985 182.452 199.738 182.64 199.457 182.641Z" fill="#D9D5CA"/>
<path d="M194.588 179.795C194.479 179.795 194.371 179.766 194.277 179.711L192.431 178.642L191.754 178.248C189.831 177.129 187.848 175.975 185.895 174.832C185.695 174.723 185.57 174.514 185.569 174.286C185.567 174.058 185.69 173.847 185.888 173.736C186.087 173.625 186.33 173.631 186.523 173.752C188.476 174.895 190.46 176.05 192.381 177.168L193.059 177.561L194.903 178.634C195.146 178.776 195.264 179.065 195.191 179.337C195.117 179.61 194.871 179.799 194.589 179.799L194.588 179.795Z" fill="#D9D5CA"/>
<path d="M195.385 185.096C195.308 185.096 195.232 185.077 195.164 185.042C194.985 184.953 194.832 184.865 194.682 184.779C194.533 184.694 194.403 184.619 194.25 184.542C194.216 184.525 194.183 184.504 194.154 184.479C193.712 184.108 193.177 183.88 192.619 183.639C192.6 183.631 192.582 183.622 192.564 183.611C191.795 183.161 191.046 182.708 190.321 182.269C189.138 181.554 188.022 180.878 186.868 180.24C186.627 180.107 186.539 179.803 186.672 179.561C186.805 179.319 187.108 179.231 187.35 179.364C188.52 180.012 189.646 180.692 190.837 181.412C191.551 181.845 192.289 182.291 193.042 182.733C193.621 182.983 194.218 183.244 194.752 183.677C194.908 183.757 195.048 183.837 195.182 183.915C195.316 183.993 195.461 184.074 195.614 184.151C195.82 184.256 195.927 184.489 195.873 184.714C195.82 184.938 195.62 185.097 195.39 185.098L195.385 185.096Z" fill="#D9D5CA"/>
<path d="M184.53 178.886C184.425 178.886 184.321 178.859 184.23 178.808C183.23 178.257 182.264 177.689 181.359 177.137C181.066 176.957 180.974 176.573 181.153 176.279C181.333 175.985 181.716 175.893 182.009 176.073C182.899 176.618 183.847 177.171 184.831 177.714C185.079 177.852 185.203 178.141 185.132 178.417C185.062 178.693 184.814 178.886 184.53 178.886Z" fill="#D9D5CA"/>
<path d="M191.315 187.8C191.206 187.799 191.098 187.77 191.003 187.714L189.3 186.72L184.652 183.997L183.358 183.239C183.072 183.06 182.98 182.686 183.149 182.394C183.319 182.102 183.689 181.998 183.985 182.159L185.28 182.919L189.921 185.637L191.624 186.633C191.868 186.775 191.986 187.063 191.912 187.336C191.839 187.609 191.591 187.798 191.309 187.797L191.315 187.8Z" fill="#D9D5CA"/>
<path d="M181.024 181.775C180.914 181.775 180.805 181.746 180.71 181.689L178.664 180.493C178.464 180.385 178.339 180.175 178.338 179.947C178.337 179.719 178.459 179.509 178.657 179.398C178.856 179.287 179.099 179.293 179.292 179.413L181.339 180.611C181.581 180.754 181.698 181.041 181.624 181.313C181.551 181.585 181.305 181.774 181.024 181.775Z" fill="#D9D5CA"/>
<path d="M176.284 179.008C176.175 179.008 176.068 178.979 175.973 178.924C173.677 177.588 171.62 176.396 169.679 175.287C169.391 175.11 169.296 174.735 169.464 174.442C169.632 174.148 170.003 174.042 170.3 174.203C172.24 175.322 174.301 176.509 176.598 177.84C176.841 177.982 176.959 178.27 176.886 178.543C176.812 178.815 176.566 179.005 176.284 179.005V179.008Z" fill="#D9D5CA"/>
<path d="M167.473 173.897C167.379 173.897 167.287 173.876 167.203 173.836C166.924 173.696 166.679 173.556 166.446 173.416C166.194 173.259 165.933 173.118 165.662 172.997C165.589 172.966 165.523 172.921 165.468 172.864L165.29 172.686C164.3 172.195 163.342 171.643 162.42 171.033C162.291 170.956 162.141 170.884 161.987 170.807C161.65 170.657 161.331 170.469 161.035 170.248C160.766 170.032 160.722 169.638 160.937 169.367C161.152 169.097 161.545 169.053 161.815 169.269C162.039 169.435 162.28 169.576 162.535 169.688C162.712 169.776 162.896 169.866 163.075 169.968L163.1 169.983C164.01 170.587 164.958 171.131 165.938 171.613C165.998 171.643 166.053 171.682 166.1 171.729L166.267 171.897C166.549 172.032 166.823 172.183 167.088 172.349C167.307 172.48 167.506 172.605 167.745 172.717C168.007 172.845 168.146 173.138 168.079 173.423C168.012 173.707 167.757 173.907 167.466 173.904L167.473 173.897Z" fill="#D9D5CA"/>
<path d="M186.744 189.962C186.636 189.962 186.529 189.934 186.435 189.88L184.179 188.576C181.668 187.117 179.157 185.654 176.382 184.03C176.101 183.849 176.013 183.479 176.18 183.19C176.348 182.901 176.712 182.795 177.008 182.95C179.785 184.574 182.288 186.037 184.803 187.493C185.553 187.929 186.304 188.363 187.055 188.796C187.299 188.937 187.418 189.225 187.346 189.499C187.273 189.772 187.026 189.962 186.744 189.962Z" fill="#D9D5CA"/>
<path d="M174.052 182.571C173.943 182.57 173.835 182.541 173.74 182.485L171.554 181.21C169.249 179.864 166.791 178.458 163.822 176.784C163.532 176.61 163.433 176.236 163.599 175.94C163.764 175.645 164.135 175.536 164.433 175.694C167.407 177.372 169.873 178.781 172.181 180.13L174.366 181.405C174.609 181.548 174.727 181.836 174.654 182.108C174.58 182.381 174.334 182.57 174.052 182.571Z" fill="#D9D5CA"/>
<path d="M161.367 175.264C161.32 175.265 161.273 175.26 161.228 175.249C160.901 175.169 160.605 174.994 160.377 174.747C159.993 174.53 159.617 174.327 159.246 174.114C158.34 173.611 157.487 173.135 156.616 172.611C156.426 172.496 156.311 172.287 156.315 172.064C156.319 171.841 156.441 171.637 156.635 171.529C156.83 171.421 157.067 171.426 157.258 171.54C158.11 172.054 158.955 172.52 159.85 173.022C160.247 173.243 160.65 173.467 161.062 173.699C161.113 173.727 161.16 173.761 161.201 173.802C161.349 173.951 161.415 174.009 161.507 174.03C161.814 174.103 162.018 174.395 161.983 174.709C161.947 175.024 161.683 175.262 161.367 175.264Z" fill="#D9D5CA"/>
<path d="M182.667 192.542C182.559 192.542 182.453 192.513 182.359 192.459C181.382 191.9 180.406 191.329 179.445 190.781L179.201 190.641C178.295 190.116 177.333 189.559 176.387 189.017C176.079 188.84 175.753 188.664 175.437 188.495C174.766 188.15 174.115 187.769 173.484 187.353C172.285 186.531 170.974 185.795 169.718 185.086C169.174 184.779 168.612 184.462 168.064 184.141C167.864 184.033 167.739 183.824 167.738 183.596C167.736 183.368 167.859 183.157 168.057 183.046C168.256 182.935 168.499 182.941 168.692 183.062C169.231 183.378 169.789 183.691 170.329 183.996C171.614 184.719 172.943 185.468 174.188 186.321C174.781 186.711 175.394 187.069 176.025 187.394C176.347 187.567 176.68 187.746 177.001 187.931C177.95 188.475 178.913 189.033 179.82 189.558L180.063 189.698C181.017 190.257 182.002 190.817 182.974 191.376C183.22 191.517 183.341 191.806 183.268 192.08C183.195 192.355 182.946 192.545 182.663 192.543L182.667 192.542Z" fill="#D9D5CA"/>
<path d="M165.714 182.723C165.608 182.723 165.504 182.696 165.411 182.643C163.76 181.719 162.006 180.728 160.306 179.685C160.022 179.5 159.937 179.123 160.113 178.833C160.29 178.544 160.665 178.449 160.957 178.619C162.638 179.651 164.379 180.635 166.018 181.557C166.266 181.695 166.39 181.984 166.318 182.26C166.247 182.535 165.998 182.727 165.714 182.726V182.723Z" fill="#D9D5CA"/>
<path d="M157.862 178.174C157.752 178.174 157.645 178.144 157.551 178.089C156.926 177.725 156.295 177.364 155.68 177.014C154.654 176.428 153.588 175.821 152.546 175.196C152.251 175.018 152.156 174.634 152.333 174.339C152.51 174.043 152.893 173.948 153.188 174.126C154.221 174.748 155.28 175.351 156.297 175.934C156.912 176.285 157.552 176.648 158.176 177.014C158.419 177.157 158.537 177.445 158.463 177.717C158.39 177.99 158.143 178.179 157.862 178.179V178.174Z" fill="#D9D5CA"/>
<path d="M178.601 195.121C178.491 195.122 178.382 195.092 178.287 195.036C177.735 194.711 177.181 194.388 176.627 194.067C174.804 193.008 172.943 191.942 171.144 190.911L170.66 190.631C170.361 190.46 170.258 190.078 170.428 189.779C170.599 189.48 170.979 189.376 171.278 189.547L171.762 189.827C173.563 190.858 175.426 191.925 177.252 192.985L178.918 193.964C179.16 194.108 179.276 194.396 179.202 194.668C179.128 194.94 178.882 195.128 178.601 195.128V195.121Z" fill="#D9D5CA"/>
<path d="M168.396 189.241C168.287 189.241 168.18 189.212 168.086 189.158C166.403 188.189 164.181 186.906 161.935 185.566C161.744 185.452 161.628 185.244 161.631 185.021C161.634 184.798 161.755 184.593 161.95 184.484C162.144 184.375 162.381 184.379 162.572 184.493C164.804 185.827 167.026 187.107 168.71 188.074C168.956 188.214 169.077 188.503 169.004 188.777C168.931 189.051 168.683 189.242 168.4 189.241H168.396Z" fill="#D9D5CA"/>
<path d="M159.412 184.009C159.301 184.009 159.192 183.979 159.097 183.922C157.445 182.943 155.722 181.963 154.057 181.007C152.214 179.955 150.309 178.866 148.477 177.771C148.286 177.657 148.17 177.449 148.173 177.226C148.176 177.003 148.298 176.798 148.492 176.69C148.686 176.581 148.924 176.584 149.115 176.698C150.938 177.788 152.838 178.872 154.675 179.916C156.349 180.87 158.071 181.856 159.731 182.841C159.972 182.985 160.088 183.272 160.013 183.543C159.939 183.814 159.694 184.003 159.413 184.003L159.412 184.009Z" fill="#D9D5CA"/>
<path d="M173.681 161.883L187.464 169.722L177.493 175.296L163.627 167.54L173.681 161.883Z" fill="#D9D5CA"/>
<path d="M168.485 168.418L173.305 167.505L173.303 169.337L178.038 169.34L176.457 173.005L168.485 168.418Z" fill="#F8F2E4"/>
<ellipse cx="251.602" cy="126.645" rx="3.78571" ry="1.55136" fill="url(#paint0_linear_0_5258)"/>
<ellipse cx="175.672" cy="167.34" rx="1.28748" ry="0.749799" fill="#F8F2E4"/>
<path d="M240.079 137.503V138.829C240.069 138.608 240.065 138.387 240.065 138.166C240.065 137.945 240.069 137.724 240.079 137.503Z" fill="#D9D5CA"/>
<path d="M307.078 139.035V139.789L307.026 139.708C307.049 139.484 307.067 139.26 307.078 139.035Z" fill="#D9D5CA"/>
<path d="M307.103 138.166C307.103 138.456 307.095 138.747 307.078 139.035V137.318C307.095 137.6 307.103 137.883 307.103 138.166Z" fill="#D9D5CA"/>
<path d="M240.136 139.696L240.076 139.789V138.829C240.091 139.119 240.111 139.408 240.136 139.696Z" fill="#D9D5CA"/>
<path d="M306.749 128.774V136.396C306.738 136.622 306.72 136.845 306.698 137.071C306.619 137.865 306.479 138.651 306.279 139.424C305.024 144.292 301.397 148.616 295.758 151.862C289.658 155.372 281.669 157.304 273.253 157.304C264.836 157.304 256.851 155.372 250.754 151.862C245.115 148.616 241.487 144.292 240.231 139.424C240.031 138.647 239.891 137.856 239.813 137.058C239.785 136.77 239.766 136.482 239.754 136.191V128.777L242.265 133.217L240.919 135.315C242.571 139.232 245.925 142.701 250.75 145.404C256.847 148.823 264.839 150.703 273.248 150.703C281.658 150.703 289.654 148.823 295.753 145.404C300.573 142.704 303.923 139.235 305.579 135.325L304.227 133.213L306.749 128.774Z" fill="#4D4C4A"/>
<path d="M305.16 131.804C304.669 126.464 301.084 121.689 294.943 118.249C289.253 115.062 281.8 113.305 273.955 113.305C266.11 113.305 258.659 115.062 252.972 118.249C246.914 121.641 243.347 126.33 242.778 131.582C242.624 133.006 242.691 134.446 242.978 135.85C243.029 136.106 243.091 136.363 243.159 136.616C243.261 137.003 243.381 137.387 243.519 137.769C244.076 139.294 244.869 140.723 245.868 142.002L250.065 139.054C248.609 137.236 247.797 135.206 247.797 133.078C247.797 132.446 247.869 131.815 248.01 131.198C248.122 130.711 248.274 130.234 248.465 129.773C251.14 123.271 261.535 118.419 273.955 118.419C287.268 118.419 298.257 123.99 299.9 131.198C300.198 132.488 300.185 133.831 299.861 135.115C301.553 135.374 303.253 135.566 304.956 135.717C305.127 134.85 305.214 133.969 305.215 133.085C305.219 132.65 305.196 132.228 305.16 131.804Z" fill="#4D4C4A"/>
<path opacity="0.32" d="M289.072 113.379L303.777 125.394L302.668 137.409L294.876 143.764L270.859 148.06C270.859 148.06 256.363 145.976 256.226 145.923C256.09 145.87 246.518 139.875 246.518 139.875L242.876 133.441L242.866 127.659L244.54 122.571C244.54 122.571 248.068 118.067 249.74 117.062C251.413 116.058 256.222 114.661 256.222 114.661L263.445 110.947C263.445 110.947 271.69 111.761 272.233 111.85C272.775 111.94 285.533 111.983 289.072 113.379Z" fill="url(#paint1_linear_0_5258)"/>
<path fill-rule="evenodd" clip-rule="evenodd" d="M295.757 114.1C302.341 117.787 306.185 122.908 306.711 128.634C306.752 129.087 306.774 129.542 306.774 129.999C306.774 130.996 306.673 131.99 306.473 132.966C306.418 133.243 306.351 133.515 306.279 133.794C306.168 134.209 306.04 134.621 305.894 135.028C304.371 139.263 300.899 143.019 295.757 145.9C289.657 149.319 281.662 151.199 273.252 151.199C264.842 151.199 256.851 149.319 250.754 145.9C245.61 143.019 242.139 139.263 240.617 135.03C240.47 134.623 240.341 134.214 240.231 133.794C240.159 133.522 240.093 133.25 240.037 132.971C239.836 131.993 239.735 130.997 239.736 129.999C239.736 129.463 239.765 128.928 239.822 128.395C240.432 122.764 244.258 117.737 250.754 114.1C256.851 110.682 264.835 108.799 273.252 108.799C281.669 108.799 289.656 110.682 295.757 114.1ZM273.259 145.712C283.912 145.712 293.172 142.389 297.923 137.493H297.918C300.08 135.263 301.305 132.712 301.312 129.999C301.312 129.321 301.235 128.645 301.083 127.984C299.317 120.256 287.534 114.283 273.259 114.283C259.942 114.283 248.797 119.481 245.928 126.453C245.723 126.948 245.561 127.459 245.441 127.981C245.289 128.642 245.212 129.318 245.212 129.997C245.212 138.675 257.776 145.712 273.259 145.712Z" fill="#272727"/>
<path d="M138.945 134.141C138.835 134.142 138.728 134.113 138.634 134.058C138.009 133.694 137.378 133.333 136.763 132.983C135.735 132.397 134.671 131.791 133.626 131.165C133.427 131.054 133.304 130.843 133.306 130.614C133.307 130.386 133.432 130.177 133.633 130.068C133.833 129.96 134.077 129.969 134.268 130.093C135.301 130.716 136.36 131.319 137.38 131.9C137.993 132.252 138.635 132.614 139.259 132.979C139.502 133.121 139.62 133.409 139.546 133.682C139.473 133.955 139.226 134.144 138.945 134.144V134.141Z" fill="#D9D5CA"/>
<path d="M140.498 139.976C140.387 139.976 140.278 139.946 140.182 139.89C138.53 138.91 136.808 137.931 135.141 136.978C133.298 135.926 131.391 134.84 129.561 133.746C129.275 133.565 129.185 133.188 129.358 132.897C129.531 132.606 129.904 132.506 130.199 132.671C132.022 133.76 133.922 134.844 135.76 135.889C137.434 136.841 139.158 137.826 140.819 138.81C141.062 138.953 141.178 139.241 141.104 139.513C141.029 139.786 140.783 139.974 140.501 139.973L140.498 139.976Z" fill="#D9D5CA"/>
<path d="M339.999 168.884V173.746C339.999 173.934 339.982 174.121 339.947 174.306C339.793 175.133 339.282 175.85 338.552 176.264L337.584 176.824C335.563 177.988 333.078 177.988 331.056 176.824L291.477 154.042V149.714H297.265L300.068 148.099L321.386 160.37L339.999 168.884Z" fill="#4D4C4A"/>
<path d="M290.743 147.727L331.055 171.008C333.076 172.171 335.562 172.171 337.583 171.008L338.551 170.448C339.447 169.931 340 168.973 340 167.936C340 166.899 339.447 165.941 338.551 165.425L299.409 142.78L290.743 147.727Z" fill="#272727"/>
<ellipse cx="151.958" cy="126.053" rx="2.18997" ry="0.89808" fill="url(#paint2_linear_0_5258)"/>
<path d="M281.117 88.9552C281.084 89.0094 281.062 89.0698 281.052 89.1327C281.033 89.2604 281.066 89.3906 281.144 89.4935C281.182 89.5439 281.23 89.5863 281.285 89.618L317.177 110.375C317.253 110.419 317.342 110.438 317.43 110.431C317.609 110.415 317.76 110.288 317.807 110.114C317.83 110.029 317.827 109.938 317.797 109.855L299.838 59.8687C299.81 59.7911 299.761 59.7227 299.697 59.6714C299.562 59.5644 299.377 59.5445 299.224 59.621C299.149 59.6579 299.087 59.7149 299.044 59.7855L281.117 88.9552Z" fill="#272727"/>
<path d="M299.557 77.5815V86.6561L297.158 85.2684V76.1938L299.557 77.5815Z" fill="#F8BF30"/>
<path d="M297.158 87.5261L299.557 88.9138V92.0795L297.158 90.6932V87.5261Z" fill="#F8BF30"/>
<path d="M85.4729 65.1771V65.5758L12.356 107.871V103.215C12.3564 101.904 13.0546 100.693 14.1874 100.039L79.9883 61.9989C81.1201 61.3442 82.5141 61.3448 83.6454 62.0004C84.7766 62.6559 85.4733 63.8669 85.4729 65.1771Z" fill="#121212"/>
<ellipse cx="17.0785" cy="102.014" rx="1.45939" ry="1.15998" transform="rotate(-60 17.0785 102.014)" fill="#F8BF30"/>
<ellipse cx="20.6283" cy="99.7561" rx="1.45939" ry="1.15998" transform="rotate(-60 20.6283 99.7561)" fill="#F8BF30"/>
<ellipse cx="24.0053" cy="97.7876" rx="1.45939" ry="1.15998" transform="rotate(-60 24.0053 97.7876)" fill="#F8BF30"/>
<ellipse opacity="0.297483" cx="48.4998" cy="97" rx="5.9142" ry="3.88828" transform="rotate(-58.34 48.4998 97)" stroke="white" stroke-width="1.11678"/>
<ellipse cx="48.4998" cy="97" rx="5.9142" ry="3.88828" transform="rotate(-58.34 48.4998 97)" stroke="white" stroke-width="1.53558" stroke-dasharray="11.45"/>
<path opacity="0.64" d="M181.276 123.745C181.276 124.131 181.257 124.516 181.218 124.899C180.309 133.712 169.074 140.67 155.349 140.67C141.046 140.67 129.448 133.116 129.42 123.779V123.745C129.42 114.395 141.028 106.819 155.349 106.819C169.671 106.819 181.276 114.398 181.276 123.745Z" fill="#B0ADA4"/>
<path d="M339.76 208.147V208.986L339.679 209C339.733 208.719 339.76 208.433 339.76 208.147Z" fill="#D9D5CA"/>
<path d="M217.896 39.773L226.135 35.0615V37.8855L221.01 40.815V46.3193L225.032 44.0208V46.843L221.01 49.1433V57.7516L217.896 59.5336V39.773Z" fill="#272727"/>
<path fill-rule="evenodd" clip-rule="evenodd" d="M230.555 32.5358L234.775 30.1228L237.998 48.0377L234.885 49.8198L234.319 46.2193V46.2757L230.781 48.3069L230.215 52.4892L227.326 54.1421L230.555 32.5358ZM232.508 34.8598L231.151 45.4065L233.953 43.8009L232.566 34.827L232.508 34.8598Z" fill="#272727"/>
<path d="M246.253 52.8592V42.2451C246.253 39.1975 247.838 36.4826 250.84 34.7678C253.842 33.0531 255.427 33.9514 255.427 36.999V39.0884L252.482 40.7722V38.4865C252.482 37.1881 251.86 37.0081 250.924 37.5409C249.928 38.082 249.325 39.1386 249.368 40.2685V51.3062C249.368 52.6046 249.99 52.761 250.924 52.2154C251.918 51.6872 252.523 50.6395 252.482 49.5169V46.502L255.427 44.8182V47.6131C255.427 50.6625 253.84 53.3756 250.84 55.0922C247.84 56.8087 246.253 55.9068 246.253 52.8592Z" fill="#272727"/>
<path d="M261.147 31.9783L257.892 33.8404V31.0182L267.516 25.5139V28.3361L264.261 30.1981V47.1348L261.147 48.915V31.9783Z" fill="#272727"/>
<path d="M245.117 12.3688L248.23 10.5885V18.915L252.194 8.32281L255.309 6.54077L251.599 15.9165L255.365 26.2687L252.11 28.1307L249.476 20.828L248.23 24.0538V30.3473L245.117 32.1294V12.3688Z" fill="#888888"/>
<path d="M258.254 4.85696L266.748 0V2.82398L261.368 5.89891V11.1214L265.643 8.67743V11.4996L261.368 13.9435V20.0134L266.748 16.9366V19.7588L258.254 24.6176V4.85696Z" fill="#888888"/>
<path opacity="0.298306" d="M189.76 42.3557L204.728 47.8001L213.118 43.3447" stroke="black" stroke-width="1.67472" stroke-linecap="round" stroke-linejoin="round"/>
<path opacity="0.298306" d="M190.583 71.3895L205.551 54.7275L213.94 50.2734" stroke="black" stroke-width="1.67472" stroke-linecap="round" stroke-linejoin="round"/>
<path d="M180.064 111.358C180.064 111.725 180.045 112.091 180.007 112.456C179.145 120.827 168.467 127.444 155.425 127.444C149.76 127.444 144.545 126.196 140.38 124.098C134.555 121.16 130.8 116.563 130.784 111.392V111.358C130.784 104.969 136.488 99.4509 144.754 96.8546C151.4 94.8417 158.478 94.7476 165.175 96.5832C169.976 97.9331 173.987 100.252 176.633 103.158C178.813 105.56 180.064 108.366 180.064 111.358Z" fill="#F8BF30"/>
<ellipse cx="155.424" cy="111.358" rx="14.1497" ry="9.2368" fill="#FFD770"/>
<path d="M141.437 129.332L122.237 140.425L85.2261 117.99" stroke="#E6A917" stroke-width="1.67472" stroke-linecap="round" stroke-linejoin="round"/>
<path d="M79.5518 122.032L87.776 126.981L93.5327 123.847" stroke="#E6A917" stroke-width="1.67472" stroke-linecap="round" stroke-linejoin="round"/>
<path d="M180.064 120.63C180.063 120.991 180.044 121.351 180.007 121.71C179.152 130.086 168.472 136.71 155.425 136.71C149.76 136.71 144.545 135.462 140.379 133.364C134.56 130.426 130.806 125.839 130.784 120.672L130.762 120.658V111.392H130.784C130.799 116.568 134.55 121.163 140.379 124.098C144.542 126.196 149.76 127.444 155.425 127.444C168.467 127.444 179.138 120.827 180.007 112.456V119.532C180.045 119.897 180.064 120.263 180.064 120.63Z" fill="#E6A917"/>
<path d="M55.7784 106.152L55.5552 106.292C55.5887 105.907 55.717 105.967 55.7784 106.152Z" fill="#FFD770"/>
<path d="M129.228 125.004L128.085 125.088H128.01L126.696 125.185L119.112 125.744C118.643 125.476 118.19 125.18 117.756 124.858C117.341 124.548 116.948 124.209 116.582 123.843C115.517 122.776 114.736 121.459 114.311 120.01C113.85 118.505 113.683 116.793 113.683 114.846V92.7518L120.977 88.4265L121.743 87.9719L124.951 86.0708L125.692 101.208L126.842 124.754L128 124.874L128.254 124.901L129.228 125.004Z" fill="#D1CAC0"/>
<path opacity="0.6" d="M176.632 103.164L140.379 124.053V133.368C134.56 130.431 130.806 125.844 130.784 120.676L130.762 120.662V111.392H130.784V111.358C130.784 104.97 136.488 99.451 144.754 96.8546L165.175 96.5833C169.976 97.9332 173.982 100.253 176.632 103.164Z" fill="#D4990D"/>
<path d="M128.01 125.091L126.696 125.188L119.112 125.747C118.642 125.479 118.19 125.183 117.756 124.86C120.163 123.904 121.744 121.57 121.742 118.974V87.9719L124.951 86.0708L125.691 101.208L126.842 124.754L128 124.874L128.01 125.091Z" fill="#B5AFA7"/>
<path d="M184.165 12.3525V90.0322C184.165 92.8842 182.639 95.5167 180.167 96.9273L131.132 124.931C129.851 125.662 128.28 125.655 127.006 124.912C125.732 124.17 124.949 122.804 124.948 121.327V47.2461C124.948 41.3619 128.08 35.9252 133.164 32.9874L176.523 7.92504C179.923 5.95961 184.165 8.42024 184.165 12.3525Z" fill="#F8F2E4"/>
<path d="M131.895 62.0464V88.5453L152.256 76.8325V50.2258L131.895 62.0464Z" fill="#D9D5CA"/>
<ellipse cx="115.639" cy="71.4059" rx="4.50085" ry="2.9553" transform="rotate(-58.34 115.639 71.4059)" fill="#121212"/>
<ellipse cx="197.386" cy="24.3908" rx="4.50085" ry="2.9553" transform="rotate(-58.34 197.386 24.3908)" fill="#121212"/>
<path d="M115.102 70.5187L197.515 22.6856L198.633 24.6227L116.22 72.4559L115.102 70.5187Z" fill="#121212"/>
<path d="M156.164 55.8759C155.568 55.8764 155.046 55.4747 154.892 54.8969C154.739 54.3192 154.991 53.71 155.509 53.4125C157.123 52.4822 158.856 51.4764 160.809 50.3349C162.989 49.0685 165.164 47.7992 167.335 46.5272C171.336 44.1827 175.474 41.757 179.565 39.4041C179.973 39.1694 180.474 39.1707 180.88 39.4074C181.287 39.6442 181.537 40.0804 181.535 40.5517C181.534 41.0231 181.282 41.458 180.875 41.6927C176.793 44.0414 172.66 46.4642 168.662 48.806C166.486 50.0817 164.309 51.3552 162.132 52.6263C160.179 53.7678 158.438 54.775 156.819 55.7038C156.619 55.8177 156.394 55.8771 156.164 55.8759Z" fill="#D9D5CA"/>
<path d="M156.965 65.303C156.409 65.3034 155.914 64.9539 155.726 64.4297C155.538 63.9054 155.699 63.3195 156.128 62.9655C157.213 62.0702 158.336 61.5442 159.421 61.0364C159.7 60.9049 159.979 60.772 160.271 60.6321C160.923 60.3108 161.711 60.5804 162.032 61.2344C162.352 61.8883 162.083 62.6791 161.431 63.0004C161.13 63.1487 160.831 63.2886 160.534 63.4201C159.558 63.8789 158.627 64.3126 157.802 64.9952C157.567 65.1929 157.271 65.3018 156.965 65.303Z" fill="#D9D5CA"/>
<path d="M164.915 60.7062C164.325 60.7057 163.807 60.3111 163.648 59.7408C163.489 59.1705 163.729 58.5639 164.233 58.2567C165.362 57.5731 166.492 56.8909 167.623 56.2102C172.195 53.4656 175.992 51.2651 179.591 49.2829C180.003 49.0558 180.504 49.0662 180.906 49.3104C181.308 49.5545 181.55 49.9953 181.54 50.4666C181.531 50.9379 181.271 51.3681 180.859 51.5953C177.295 53.5621 173.518 55.7471 168.975 58.4749C167.847 59.152 166.72 59.8319 165.596 60.5145C165.391 60.64 165.156 60.7063 164.915 60.7062Z" fill="#D9D5CA"/>
<path d="M158.081 74.4221C157.503 74.4223 156.993 74.0447 156.822 73.491C156.652 72.9373 156.861 72.3369 157.339 72.0105C157.908 71.6385 158.5 71.3031 159.112 71.0061C159.481 70.8172 159.829 70.6396 160.154 70.4465C160.667 70.1458 161.179 69.8394 161.688 69.5345C162.065 69.3092 162.443 69.0826 162.821 68.8588C163.455 68.4839 164.108 68.1594 164.739 67.8306C165.792 67.2963 166.785 66.7913 167.646 66.1226C168.22 65.6745 169.048 65.7785 169.495 66.3548C169.942 66.9312 169.838 67.7616 169.264 68.2097C168.205 69.0323 167.051 69.6198 165.934 70.1863C165.313 70.5025 164.726 70.8018 164.163 71.1348C163.791 71.3558 163.419 71.5782 163.047 71.802C162.528 72.1126 162.009 72.4231 161.487 72.7281C161.099 72.9547 160.701 73.159 160.316 73.3562C159.803 73.6051 159.306 73.8854 158.827 74.1955C158.607 74.3457 158.347 74.4248 158.081 74.4221Z" fill="#D9D5CA"/>
<path d="M172.769 65.9841C172.189 65.9853 171.677 65.6056 171.508 65.0493C171.339 64.493 171.553 63.8914 172.035 63.5683C173.104 62.8506 174.195 62.2365 175.243 61.6434C176.267 61.0657 177.234 60.5243 178.173 59.899C178.673 59.5484 179.222 59.274 179.802 59.0848C180.248 58.9349 180.74 59.035 181.092 59.3474C181.445 59.6598 181.604 60.1371 181.511 60.5994C181.417 61.0617 181.085 61.4389 180.639 61.5888C180.281 61.7044 179.943 61.8748 179.637 62.0938C178.62 62.7737 177.563 63.3696 176.541 63.9445C175.518 64.5195 174.485 65.1014 173.503 65.7631C173.286 65.9085 173.03 65.9855 172.769 65.9841Z" fill="#D9D5CA"/>
<path d="M132.291 99.3908C131.706 99.3916 131.192 99.0056 131.027 98.4433C130.862 97.8809 131.087 97.2771 131.579 96.9609C132.575 96.3189 133.617 95.7579 134.626 95.2151C135.353 94.8234 136.104 94.4178 136.81 93.9967C138.534 92.9685 140.349 91.8984 142.203 90.8017C142.608 90.563 143.11 90.5594 143.519 90.7922C143.927 91.025 144.181 91.4588 144.185 91.9302C144.188 92.4016 143.94 92.839 143.535 93.0776C141.685 94.166 139.875 95.2389 138.155 96.2657C137.4 96.7161 136.621 97.1344 135.87 97.5401C134.863 98.0828 133.917 98.5948 133.002 99.181C132.79 99.3177 132.543 99.3906 132.291 99.3908Z" fill="#D9D5CA"/>
<path d="M147.244 90.6954C146.648 90.6969 146.126 90.2969 145.971 89.7202C145.816 89.1435 146.066 88.5342 146.582 88.2348C148.091 87.3535 149.601 86.4745 151.113 85.5979C154.182 83.8185 157.307 82.0168 160.328 80.2738C162.68 78.9178 165.03 77.5609 167.379 76.203C167.786 75.9674 168.288 75.9675 168.695 76.2033C169.102 76.4391 169.353 76.8747 169.353 77.3462C169.353 77.8176 169.102 78.2532 168.695 78.4888C166.345 79.8485 163.993 81.2064 161.641 82.5623C158.621 84.3039 155.503 86.1043 152.434 87.8781C150.924 88.7538 149.415 89.6318 147.908 90.5122C147.707 90.6316 147.478 90.6949 147.244 90.6954Z" fill="#D9D5CA"/>
<path d="M172.106 76.3065C171.511 76.3067 170.99 75.9064 170.835 75.33C170.68 74.7537 170.929 74.1446 171.444 73.8445C174.405 72.1238 177.057 70.5711 179.552 69.0967C179.957 68.8575 180.459 68.8533 180.868 69.0856C181.277 69.3179 181.532 69.7515 181.536 70.2229C181.54 70.6944 181.292 71.1321 180.887 71.3712C178.388 72.8485 175.726 74.404 172.765 76.1274C172.565 76.2441 172.338 76.3059 172.106 76.3065Z" fill="#D9D5CA"/>
<path d="M131.784 109.583C131.188 109.585 130.665 109.184 130.51 108.607C130.355 108.029 130.606 107.42 131.123 107.121L155.246 93.1098C155.875 92.7448 156.68 92.9602 157.044 93.591C157.408 94.2218 157.193 95.0291 156.564 95.3942L132.443 109.405C132.242 109.522 132.015 109.583 131.784 109.583Z" fill="#D9D5CA"/>
<path d="M159.787 93.3198C159.19 93.3218 158.667 92.9212 158.512 92.3437C158.357 91.7663 158.609 91.1564 159.125 90.8578L179.562 78.9897C180.191 78.6246 180.996 78.8401 181.36 79.4709C181.724 80.1017 181.509 80.909 180.88 81.2741L160.452 93.1422C160.25 93.2596 160.02 93.3209 159.787 93.3198Z" fill="#D9D5CA"/>
<path d="M118.4 125.325C118.4 125.325 123.8 127.18 124.956 118.998L131.865 122.527L130.713 125.167C128.077 127.311 122.778 127.05 118.4 125.325Z" fill="#F8F2E4"/>
<path d="M136.551 41.2549L139.461 39.5762L141.718 44.7521L141.759 44.7283V38.2417L143.827 37.0457V47.8786L141.443 49.2565L138.653 42.9615L138.611 42.9853V50.8918L136.544 52.0878L136.551 41.2549Z" fill="#9E9E9E"/>
<path d="M146.609 35.4355L152.935 31.7747V33.3232L148.929 35.6412V38.5033L152.112 36.6609V38.2081L148.929 40.0504V43.3784L152.935 41.0604V42.6104L146.609 46.2698V35.4355Z" fill="#9E9E9E"/>
<path d="M154.769 30.7198L157.001 29.4259L158.034 37.1533L158.076 37.1295L159.173 28.1767L161.707 26.6994L162.804 34.3933L162.845 34.3695L163.879 25.446L165.882 24.2864L164.385 35.9852L161.497 37.6569L160.442 30.9632L160.4 30.987L159.346 38.9019L156.267 40.6798L154.769 30.7198Z" fill="#9E9E9E"/>
<path d="M167.715 31.4866V30.8669L169.908 29.5981V30.3409C169.908 31.1145 170.373 31.1256 171.11 30.6976C171.848 30.2695 172.311 29.7184 172.311 28.9196C172.311 28.0215 171.848 27.718 170.329 27.6215C168.39 27.49 167.757 26.9738 167.757 25.7358C167.757 24.0347 168.96 22.3477 171.215 21.0425C173.471 19.7374 174.589 20.0815 174.589 21.8147V22.2623L172.397 23.5325V22.973C172.397 22.1994 171.978 22.149 171.236 22.5771C170.494 23.0052 170.077 23.5437 170.077 24.2851C170.077 25.0741 170.562 25.3651 172.08 25.4616C174.02 25.5931 174.631 26.1065 174.631 27.4522C174.631 29.2162 173.408 30.9144 171.131 32.2322C168.855 33.5499 167.715 33.2198 167.715 31.4866Z" fill="#9E9E9E"/>
<path d="M136.136 81.6167L147.814 75.1832V65.1211L142.222 74.3579L139.755 71.5545L136.136 81.6167Z" fill="white"/>
<ellipse cx="142.542" cy="66.075" rx="2.91856" ry="1.91669" transform="rotate(-58.34 142.542 66.075)" fill="white"/>
<path opacity="0.420014" d="M184.165 12.3525V31.699L124.951 66.0778V47.2461C124.95 41.3619 128.083 35.9252 133.167 32.9874L176.525 7.92504C179.923 5.95961 184.165 8.42024 184.165 12.3525Z" fill="url(#paint3_linear_0_5258)"/>
<defs>
<linearGradient id="paint0_linear_0_5258" x1="255.389" y1="125.094" x2="247.818" y2="125.094" gradientUnits="userSpaceOnUse">
<stop stop-color="white"/>
<stop offset="1" stop-color="white"/>
</linearGradient>
<linearGradient id="paint1_linear_0_5258" x1="303.777" y1="110.944" x2="242.866" y2="110.944" gradientUnits="userSpaceOnUse">
<stop stop-color="white"/>
<stop offset="1" stop-color="#F8BF30" stop-opacity="0.8"/>
</linearGradient>
<linearGradient id="paint2_linear_0_5258" x1="149.768" y1="126.951" x2="154.148" y2="126.951" gradientUnits="userSpaceOnUse">
<stop stop-color="white"/>
<stop offset="1" stop-color="white"/>
</linearGradient>
<linearGradient id="paint3_linear_0_5258" x1="129.757" y1="18.6935" x2="127.808" y2="69.5031" gradientUnits="userSpaceOnUse">
<stop stop-color="#F8BF30" stop-opacity="0.01"/>
<stop offset="1" stop-color="#F8BF30"/>
</linearGradient>
</defs>
</svg>
