<svg width="29" height="29" viewBox="0 0 29 29" fill="none" xmlns="http://www.w3.org/2000/svg">
<path opacity="0.554233" fill-rule="evenodd" clip-rule="evenodd" d="M14.5 25.375V29H25.3895C27.3687 29 29 27.3814 29 25.3858V3.61412C29 1.62219 27.3832 0 25.3895 0H12.673C10.6938 0 9.0625 1.61856 9.0625 3.61412V7.24999H10.875V3.625H27.1875V25.375H14.5ZM1.81794 9.06249C0.793875 9.06249 0 9.87086 0 10.8677V27.1947C0.000712917 27.4326 0.0483122 27.6681 0.140082 27.8876C0.231849 28.1072 0.365986 28.3065 0.53482 28.4741C0.703658 28.6418 0.903882 28.7745 1.12405 28.8648C1.34421 28.955 1.58 29.0009 1.81794 29H10.8696C11.8936 29 12.6875 28.1916 12.6875 27.1947V10.8677C12.6868 10.6298 12.6392 10.3943 12.5474 10.1748C12.4557 9.9553 12.3215 9.75598 12.1527 9.58833C11.9839 9.42067 11.7836 9.28794 11.5634 9.1977C11.3433 9.1075 11.1075 9.06152 10.8696 9.06249H1.81794ZM10.875 12.6875H1.8125V25.375H10.875V12.6875Z" fill="#272727"/>
</svg>
