<svg width="297" height="148" viewBox="0 0 297 148" fill="none" xmlns="http://www.w3.org/2000/svg">
<path d="M0.0814537 93.3086C0.0814537 93.3086 -1.36684 102.87 13.4636 113.229C14.1752 113.7 15.0984 113.7 15.8099 113.229L34.6376 102.174C35.3091 101.76 35.7021 101.013 35.6629 100.224C35.6237 99.4358 35.1585 98.7313 34.4494 98.3868L34.0728 98.024L0.0814537 93.3086Z" fill="#E0DCD1"/>
<path opacity="0.8" d="M28.1348 87.9549C28.1348 87.9549 44.1674 74.0698 59.4758 80.1781C73.1332 85.6044 74.5815 92.7718 75.5373 98.1546C76.4932 103.537 92.6416 84.8935 80.9539 75.2741C69.2662 65.6547 40.7639 60.3444 40.7639 60.3444C40.7639 60.3444 15.5926 78.437 28.1348 87.9549Z" fill="#E0DCD1"/>
<path d="M209.07 75.2741L206.173 76.8846C205.685 77.1784 205.386 77.707 205.386 78.2774C205.386 78.8478 205.685 79.3765 206.173 79.6703L225.841 91.7707C226.355 92.0905 227.006 92.0905 227.521 91.7707C231.648 89.2607 246.204 79.6703 267.161 92.0173C267.161 92.0173 275.083 87.0553 265.408 81.8611C255.734 76.6669 209.07 75.2741 209.07 75.2741Z" fill="#E0DCD1"/>
<path d="M159.205 131.757L158.437 132.309C157.692 132.859 157.273 133.748 157.323 134.675C157.373 135.601 157.884 136.44 158.684 136.908L176.425 147.151C178.883 148.436 181.849 148.251 184.13 146.672C205.42 133.614 211.995 128.928 232.271 130.002C248.492 130.872 278.298 134.354 295.026 112.809C298.183 108.746 297.43 100.824 293.65 98.1546L293.23 102.101C293.23 102.101 208.679 99.5475 179.901 122.544L159.205 131.757Z" fill="#E0DCD1"/>
<path d="M74.1035 109.849C69.1359 114.114 64.8055 118.743 108.298 141.768C110.441 142.9 113.005 143.713 115.09 142.465L133.281 131.496C134.186 130.941 134.716 129.934 134.662 128.872C134.607 127.81 133.977 126.863 133.02 126.403L131.876 125.867L74.1035 109.849Z" fill="#E0DCD1"/>
<path d="M179.481 143.582L159.205 131.757L160.43 120.484C160.515 119.705 161.422 119.322 162.04 119.804L169.633 125.736L175.773 122.196L175.415 111.659C175.388 110.873 176.238 110.365 176.918 110.761L194.676 121.117C195.269 121.464 195.644 122.09 195.667 122.777L196.05 134.021L179.481 143.582Z" fill="#121212"/>
<path d="M295.026 99.9247C295.026 106.135 290.608 111.798 281.774 116.915C275.305 120.658 267.296 122.955 257.747 123.806C247.628 124.687 237.452 124.687 227.333 123.806C222.945 123.368 218.516 123.632 214.211 124.59C210.255 125.833 206.466 127.558 202.929 129.726L182.653 118.119V105.757L194.427 112.635C196.691 111.74 199.04 111.079 201.437 110.661C206.313 109.858 214.124 109.858 224.87 110.661C231.966 110.94 239.072 110.77 246.146 110.153C251.58 109.758 256.866 108.195 261.643 105.569C266.596 102.667 269 99.6635 268.884 96.4281C268.768 93.1926 265.987 90.0151 260.759 86.9392C256.164 84.268 251.034 82.6525 245.74 82.2093C240.266 81.716 232.517 84.3421 227.97 86.9683L209.055 75.3611V63.3332L220.381 70.1669C227.583 67.6949 235.202 66.6694 242.8 67.1491C254.626 68.1383 266.074 71.7992 276.285 77.8567C283.256 81.9192 288.277 86.0155 291.347 90.1457L294.49 86.7361L294.968 99.0832V99.8376C294.995 99.8606 295.015 99.8908 295.026 99.9247Z" fill="#121212"/>
<path d="M182.682 105.699C190.039 101.521 196.156 99.0348 201.032 98.2417C205.912 97.4582 213.733 97.4292 224.465 98.2417C231.56 98.513 238.666 98.3434 245.74 97.7339C251.178 97.3341 256.468 95.7707 261.251 93.149C266.205 90.2473 268.618 87.1955 268.493 83.9939C268.367 80.7923 265.654 77.6293 260.354 74.5051C255.76 71.8445 250.636 70.2343 245.349 69.7897C239.86 69.2819 232.112 71.9225 227.579 74.5341L208.447 63.3768L208.65 62.9705C218.864 57.0151 230.594 54.1855 242.395 54.831C254.22 55.8117 265.672 59.4572 275.894 65.4951C287.335 72.1692 293.534 78.94 294.49 85.8075C295.446 92.6751 291.072 98.9139 281.368 104.524C273.95 108.532 265.753 110.883 257.341 111.416C247.22 112.273 237.043 112.244 226.927 111.329C222.544 110.898 218.121 111.163 213.82 112.112C209.863 113.365 206.07 115.089 202.523 117.248L182.682 105.699Z" fill="#F9C035"/>
<path d="M161.749 121.146C160.422 120.373 160.426 118.454 161.756 117.686L174.348 110.415C174.97 110.056 175.736 110.058 176.356 110.42L192.654 119.936C193.98 120.71 193.975 122.628 192.645 123.396L180.066 130.655C179.444 131.014 178.679 131.012 178.059 130.651L161.749 121.146Z" fill="#F9C035"/>
<path d="M131.876 125.896L111.788 137.822L95.2341 128.246L96.09 121.336L96.8389 115.29L129.574 112.809L131.876 125.896Z" fill="#121212"/>
<path d="M107.747 100.534V112.315L88.065 123.922C80.8236 119.676 76.4787 116.131 75.0304 113.287C73.5821 110.444 73.4807 105.888 74.7262 99.62C75.1126 95.458 74.7446 91.2603 73.64 87.2294C72.5828 83.7038 69.9035 80.7004 65.631 78.2194C60.8793 75.4486 55.4574 74.043 49.9605 74.1569C44.2298 74.3085 38.6401 75.9699 33.7541 78.9738C29.2644 81.6435 26.6141 84.5791 25.803 87.7808C25.6258 88.7759 25.7999 89.8019 26.2955 90.6825L34.1307 86.2428V98.024L15.2016 109.355L14.5064 109.225C6.88837 104.974 1.09522 99.0687 0.139344 93.2651V90.2473L0.0379639 79.6558L3.54282 82.5575C6.48768 78.2145 11.3732 74.0311 18.1995 70.0073C28.7094 63.5352 40.6455 59.7486 52.9585 58.9806C64.203 58.2461 75.4136 60.8557 85.1829 66.4817C91.6568 70.225 93.7133 74.1134 95.3209 79.6703C96.9285 85.2272 95.3209 91.2774 97.4354 98.1256C96.914 101.434 97.3968 103.982 98.8837 105.772L107.747 100.534Z" fill="#121212"/>
<path d="M88.065 112.214C80.8236 107.958 76.4787 104.413 75.0304 101.579C73.5821 98.7446 73.4807 94.1889 74.7263 87.9113C75.1126 83.7493 74.7446 79.5516 73.6401 75.5207C72.578 71.9999 69.9083 68.9966 65.631 66.5107C60.8849 63.7204 55.4628 62.2947 49.9605 62.3902C44.2331 62.5466 38.6481 64.2131 33.7686 67.2216C29.2789 69.8816 26.6286 72.8124 25.8175 76.014C25.0065 79.206 29.6121 83.7038 34.1452 86.3299L15.2016 97.5598L14.5064 97.4437C5.26631 92.293 -1.32341 84.7049 0.226262 77.8422C1.77593 70.9794 7.77185 64.4359 18.2575 58.2261C28.7657 51.7525 40.7034 47.9704 53.0164 47.2139C64.2595 46.475 75.47 49.0795 85.2409 54.7005C91.7099 58.4437 95.7313 63.0963 97.3051 68.658C98.87 74.4479 98.9199 80.544 97.4499 86.3589C96.9286 89.6524 97.4499 92.1624 98.8982 93.9906C101.511 96.627 104.522 98.8352 107.82 100.534L88.065 112.214Z" fill="#F9C035"/>
<path d="M112.796 125.442C112.173 125.812 111.4 125.816 110.773 125.454L98.188 118.174C96.8654 117.408 96.8545 115.503 98.1685 114.723L114.314 105.137C114.936 104.767 115.71 104.763 116.336 105.125L128.922 112.406C130.245 113.171 130.255 115.076 128.941 115.857L112.796 125.442Z" fill="#F9C035"/>
<path d="M120.507 37.4784L120.217 39.0308C119.754 41.5844 120.68 43.1659 123.258 43.4996L141.521 45.7049C143.795 45.9951 145.939 45.3857 146.475 43.1514C147.792 37.696 151.935 28.6424 164.897 30.5141C183.305 33.0822 180.669 44.7473 180.669 44.7473C180.669 44.7473 204.276 11.2173 173.659 11.2173C143.042 11.2173 120.507 37.4784 120.507 37.4784Z" fill="#E0DCD1"/>
<path d="M134.164 109.834L133.237 111.575C132.919 112.142 132.902 112.83 133.193 113.411C133.483 113.993 134.042 114.392 134.685 114.477L158.626 117.277C159.697 117.408 160.436 116.595 160.798 115.565C163.405 108.166 163.115 84.11 172.124 80.1346C185.245 74.331 208.331 63.3623 203.204 46.2418C199.902 35.3746 160.581 67.4828 160.581 67.4828L147.546 93.3377L134.164 109.834Z" fill="#E0DCD1"/>
<path d="M138.726 87.5921C140.165 80.8213 142.183 76.0866 144.78 73.3879C147.377 70.6893 152.572 67.5795 160.364 64.0587C165.238 61.5489 169.852 58.5599 174.137 55.1357C177.469 52.5471 179.782 48.8629 180.669 44.7328C181.735 40.7187 180.687 36.437 177.888 33.3724C175.107 30.4125 170.671 28.5409 164.578 27.7574C159.879 27.032 155.071 27.5676 150.646 29.3099C146.561 31.0074 143.592 36.5643 142.738 40.7719L120.695 37.9572L120.507 37.4929C121.955 28.9907 127.618 20.3143 136.264 16.5565C144.91 12.7987 155.309 11.6961 167.489 13.2485C180.669 14.9509 190.435 18.8199 196.788 24.8556C203.141 30.8913 205.41 38.436 203.595 47.4895C202.182 53.8735 198.528 59.537 193.298 63.4493C187.114 68.341 180.292 72.3633 173.022 75.4047C168.952 77.3198 166.258 79.293 164.911 81.3243C163.273 84.1859 162.168 87.3227 161.653 90.581L138.726 87.5921Z" fill="#121212"/>
<path d="M157.51 112.809L134.164 109.82L137.278 94.3533L160.624 97.3421L157.51 112.809Z" fill="#121212"/>
<path d="M160.624 97.3421L148.995 108.137L134.164 109.82L134.666 96.5296L160.624 84.7919V97.3421Z" fill="#121212"/>
<path d="M138.726 75.0419V87.5921L161.609 90.5229V77.9727L138.726 75.0419Z" fill="#121212"/>
<path d="M138.726 75.0419C140.165 68.2711 142.183 63.5364 144.78 60.8377C147.377 58.1391 152.572 55.0293 160.364 51.5085C165.235 48.998 169.848 46.0142 174.137 42.6C177.466 40.0088 179.779 36.3258 180.669 32.1971C181.745 28.174 180.697 23.8787 177.888 20.8076C175.107 17.8285 170.671 15.9568 164.578 15.1927C159.879 14.4602 155.069 14.9961 150.646 16.7452C146.561 18.4427 143.592 23.9996 142.738 28.2072L120.695 25.3925L120.507 24.9282C121.955 16.426 127.618 7.73512 136.264 3.97732C144.91 0.219509 155.309 -0.868659 167.489 0.683794C180.669 2.36683 190.435 6.23587 196.788 12.2909C203.141 18.346 205.41 25.8858 203.595 34.9103C202.168 41.2537 198.533 46.8807 193.341 50.783C187.157 55.6698 180.335 59.6872 173.065 62.7239C168.995 64.6536 166.302 66.6268 164.955 68.658C163.314 71.5185 162.209 74.6558 161.696 77.9147L138.726 75.0419Z" fill="#F9C035"/>
<path d="M136.295 97.5423C135.143 97.3949 134.359 96.3017 134.588 95.1638L136.91 83.6286C137.117 82.6 138.084 81.9063 139.125 82.0395L158.494 84.5191C159.645 84.6665 160.429 85.7598 160.2 86.8977L157.878 98.4329C157.671 99.4615 156.704 100.155 155.663 100.022L136.295 97.5423Z" fill="#F9C035"/>
<path d="M120.507 37.4784V24.9282L142.738 28.2072V40.7574L120.507 37.4784Z" fill="#121212"/>
</svg>
