<svg width="485" height="246" viewBox="0 0 485 246" fill="none" xmlns="http://www.w3.org/2000/svg">
<ellipse cx="209.028" cy="166.9" rx="32.8816" ry="22.257" fill="#B0ADA4"/>
<path d="M63.7202 182.914C63.5907 182.914 63.4638 182.877 63.3541 182.808L53.7373 176.71C53.54 176.584 53.4205 176.366 53.4204 176.132V153.483C53.4204 153.105 53.7262 152.799 54.1034 152.799C54.4806 152.799 54.7864 153.105 54.7864 153.483V175.757L63.7378 181.433L114.453 152.239C114.578 152.168 114.721 152.137 114.864 152.151L176.611 158.512C176.987 158.55 177.26 158.886 177.221 159.261C177.183 159.637 176.848 159.91 176.472 159.872L114.945 153.532L64.0617 182.824C63.9576 182.883 63.8399 182.914 63.7202 182.914Z" fill="url(#paint0_linear_0_9307)"/>
<path d="M69.0664 172.04C68.9305 172.039 68.7978 171.999 68.6844 171.924L64.25 168.93C64.0612 168.803 63.9478 168.591 63.9473 168.363V145.326C63.9658 144.962 64.2665 144.676 64.6312 144.676C64.9959 144.676 65.2966 144.962 65.3151 145.326V168.002L69.1051 170.549L113.945 145.117C114.068 145.047 114.21 145.017 114.351 145.032L176.099 151.391C176.474 151.429 176.747 151.765 176.709 152.14C176.671 152.516 176.335 152.789 175.96 152.75L114.429 146.411L69.4114 171.945C69.3071 172.007 69.1878 172.04 69.0664 172.04Z" fill="url(#paint1_linear_0_9307)"/>
<path d="M97.019 71.664V126.05C97.019 127.627 96.1799 129.084 94.8168 129.875L15.2895 176.034C13.9229 176.826 12.2374 176.83 10.8679 176.042C9.49829 175.255 8.65265 173.796 8.64941 172.216V117.523C8.64943 115.942 9.49303 114.482 10.8622 113.692L90.3895 67.8321C91.7574 67.0425 93.4426 67.043 94.8101 67.8334C96.1777 68.6238 97.0197 70.0841 97.019 71.664Z" fill="#272727" stroke="white" stroke-width="0.550212"/>
<path d="M97.019 71.6641V72.1466L8.64941 123.136V117.524C8.65016 115.942 9.49438 114.481 10.8639 113.692L90.3913 67.8322C91.7589 67.0422 93.4441 67.0426 94.8115 67.8332C96.1788 68.6237 97.0204 70.0842 97.019 71.6641Z" fill="#121212"/>
<ellipse cx="14.3589" cy="116.074" rx="1.76082" ry="1.3996" transform="rotate(-60 14.3589 116.074)" fill="#F8BF30"/>
<ellipse cx="18.6482" cy="113.352" rx="1.76082" ry="1.3996" transform="rotate(-60 18.6482 113.352)" fill="#F8BF30"/>
<ellipse cx="22.728" cy="110.978" rx="1.76082" ry="1.3996" transform="rotate(-60 22.728 110.978)" fill="#F8BF30"/>
<path d="M31.0464 160.213C31.1608 156.45 31.3615 152.662 32.2786 149.012C33.1958 145.361 34.8593 141.82 37.5597 139.196C41.1297 135.723 46.4371 133.846 48.6252 129.371C49.4949 127.591 49.8258 125.464 51.2658 124.101C53.0983 122.363 56.0944 122.484 58.0695 120.912C59.8299 119.519 60.3738 117.15 61.3103 115.116C62.7649 111.991 65.2744 109.48 68.3975 108.023C71.1401 106.755 74.7031 106.5 76.9281 108.551C78.729 110.207 79.155 112.906 78.9314 115.342C78.7079 117.777 77.9527 120.151 77.8242 122.593C77.6659 125.872 78.6399 129.105 80.5826 131.75" fill="url(#paint2_linear_0_9307)"/>
<path d="M31.0464 160.213C31.1608 156.45 31.3615 152.662 32.2786 149.012C33.1958 145.361 34.8593 141.82 37.5597 139.196C41.1297 135.723 46.4371 133.846 48.6252 129.371C49.4949 127.591 49.8258 125.464 51.2658 124.101C53.0983 122.363 56.0944 122.484 58.0695 120.912C59.8299 119.519 60.3738 117.15 61.3103 115.116C62.7649 111.991 65.2744 109.48 68.3975 108.023C71.1401 106.755 74.7031 106.5 76.9281 108.551C78.729 110.207 79.155 112.906 78.9314 115.342C78.7079 117.777 77.9527 120.151 77.8242 122.593C77.6659 125.872 78.6399 129.105 80.5826 131.75" stroke="white" stroke-width="1.23247"/>
<path d="M312.711 146.576L273.96 168.793L326.03 199.025" stroke="#D9D5CA" stroke-width="1.23247"/>
<path d="M333.874 159.47L294.377 135.966L239.232 167.481" stroke="#D9D5CA" stroke-width="1.23247"/>
<path d="M352.083 147.992L303.582 119.797L241.431 155.89" stroke="#D9D5CA" stroke-width="1.23247"/>
<path d="M331.3 135.574L358.353 120.051L412.187 151.426" stroke="#D9D5CA" stroke-width="1.23247"/>
<path d="M373.705 222.181L374.668 220.492C374.283 221.777 376.604 222.781 371.174 225.641L337.861 244.746C336.177 245.725 334.098 245.725 332.414 244.746L294.291 222.797C293.909 222.566 293.669 222.159 293.652 221.713C293.636 221.267 293.845 220.843 294.21 220.585L298.707 217.406L373.705 222.181Z" fill="#B0ADA4"/>
<path d="M295.167 221.348L297.28 222.58L333.178 243.393C334.361 244.078 335.818 244.083 337.005 243.406L374.811 221.813C375.867 221.21 375.921 217.1 374.881 216.479L339.579 198.083L337.185 196.659C335.994 195.95 334.513 195.939 333.312 196.63L295.167 216.63C294.107 217.225 294.114 220.733 295.167 221.348Z" fill="#D1CAC0"/>
<path d="M295.165 218.78L297.278 220.013L333.177 240.824C334.359 241.51 335.817 241.515 337.004 240.836L374.809 219.234C375.297 218.954 375.6 218.436 375.605 217.874C375.61 217.311 375.316 216.788 374.834 216.499L339.577 195.505L337.183 194.08C335.992 193.372 334.511 193.362 333.31 194.054L295.169 216.04C294.681 216.323 294.38 216.844 294.379 217.409C294.379 217.973 294.678 218.496 295.165 218.78Z" fill="#F8F2E4"/>
<path d="M295.165 218.78L297.278 220.013L339.577 195.514L337.183 194.089C335.992 193.381 334.511 193.371 333.31 194.063L295.169 216.04C294.681 216.323 294.38 216.844 294.379 217.409C294.379 217.973 294.678 218.495 295.165 218.78Z" fill="#D9D5CA"/>
<path d="M304.034 220.308C304.167 220.308 304.297 220.272 304.411 220.205C305.895 219.324 307.381 218.468 308.812 217.644C310.417 216.721 312.078 215.769 313.729 214.779C313.963 214.647 314.108 214.398 314.106 214.129C314.104 213.859 313.956 213.613 313.719 213.484C313.483 213.356 313.195 213.366 312.968 213.511C311.329 214.494 309.676 215.448 308.076 216.36C306.633 217.188 305.142 218.044 303.647 218.933C303.361 219.104 303.224 219.445 303.312 219.766C303.401 220.087 303.694 220.31 304.027 220.308H304.034Z" fill="#D9D5CA"/>
<path d="M316.538 213.037C316.668 213.037 316.795 213.002 316.907 212.937C317.981 212.314 319.054 211.688 320.127 211.062C320.366 210.934 320.516 210.686 320.519 210.415C320.521 210.144 320.375 209.893 320.138 209.762C319.901 209.631 319.611 209.639 319.383 209.785L316.166 211.662C315.878 211.83 315.737 212.171 315.824 212.494C315.911 212.816 316.204 213.041 316.538 213.041V213.037Z" fill="#D9D5CA"/>
<path d="M308.864 223.36C308.995 223.361 309.123 223.326 309.236 223.26L311.824 221.747C312.063 221.62 312.213 221.372 312.215 221.101C312.217 220.83 312.071 220.579 311.834 220.448C311.597 220.316 311.308 220.325 311.079 220.471L308.49 221.983C308.202 222.152 308.063 222.493 308.151 222.815C308.239 223.137 308.531 223.36 308.864 223.36Z" fill="#D9D5CA"/>
<path d="M314.64 219.993C314.77 219.994 314.898 219.959 315.01 219.893L317.198 218.625L318.003 218.158C320.291 216.836 322.641 215.468 324.958 214.108C325.197 213.981 325.347 213.733 325.349 213.462C325.352 213.191 325.205 212.94 324.968 212.809C324.732 212.677 324.442 212.686 324.213 212.831C321.898 214.182 319.541 215.55 317.26 216.882L316.457 217.347L314.269 218.616C313.98 218.784 313.84 219.125 313.927 219.448C314.014 219.771 314.306 219.995 314.64 219.995V219.993Z" fill="#D9D5CA"/>
<path d="M313.695 226.266C313.786 226.265 313.876 226.244 313.957 226.202C314.17 226.097 314.352 225.993 314.529 225.891C314.707 225.789 314.859 225.702 315.042 225.611C315.083 225.59 315.121 225.564 315.156 225.535C315.684 225.098 316.313 224.831 316.98 224.54L317.045 224.507C317.959 223.978 318.848 223.436 319.707 222.922C321.115 222.075 322.435 221.273 323.803 220.52C323.993 220.42 324.114 220.225 324.119 220.011C324.125 219.797 324.014 219.596 323.83 219.487C323.645 219.377 323.416 219.376 323.231 219.484C321.844 220.25 320.509 221.055 319.096 221.907C318.249 222.42 317.374 222.948 316.48 223.471C315.793 223.765 315.086 224.073 314.452 224.588C314.265 224.683 314.1 224.776 313.941 224.868C313.783 224.959 313.61 225.058 313.429 225.149C313.185 225.273 313.057 225.548 313.12 225.814C313.183 226.081 313.421 226.269 313.695 226.269V226.266Z" fill="#D9D5CA"/>
<path d="M326.576 218.917C326.699 218.916 326.82 218.885 326.928 218.826C328.112 218.172 329.258 217.507 330.334 216.848C330.674 216.631 330.778 216.182 330.567 215.838C330.356 215.494 329.909 215.383 329.561 215.587C328.505 216.235 327.38 216.889 326.217 217.524C325.922 217.687 325.773 218.028 325.856 218.354C325.939 218.681 326.232 218.91 326.569 218.912L326.576 218.917Z" fill="#D9D5CA"/>
<path d="M318.526 229.466C318.656 229.466 318.783 229.431 318.895 229.365L320.918 228.187L326.431 224.966L327.968 224.068C328.313 223.859 328.426 223.411 328.223 223.063C328.019 222.714 327.573 222.594 327.222 222.791L325.687 223.689L320.173 226.91L318.153 228.088C317.862 228.256 317.721 228.597 317.809 228.921C317.897 229.244 318.191 229.468 318.526 229.466Z" fill="#D9D5CA"/>
<path d="M330.733 222.337C330.864 222.337 330.992 222.302 331.105 222.235L333.532 220.826C333.76 220.693 333.9 220.449 333.899 220.185C333.898 219.921 333.757 219.678 333.528 219.547C333.299 219.416 333.017 219.417 332.789 219.549L330.36 220.958C330.071 221.127 329.931 221.468 330.018 221.791C330.106 222.114 330.399 222.338 330.733 222.337Z" fill="#D9D5CA"/>
<path d="M336.356 219.058C336.486 219.059 336.614 219.024 336.726 218.958C339.449 217.373 341.891 215.964 344.191 214.649C344.42 214.518 344.562 214.274 344.563 214.01C344.564 213.746 344.424 213.502 344.196 213.369C343.968 213.237 343.686 213.236 343.457 213.367C341.153 214.686 338.704 216.098 335.985 217.679C335.696 217.847 335.556 218.188 335.643 218.511C335.73 218.834 336.022 219.058 336.356 219.058Z" fill="#D9D5CA"/>
<path d="M346.809 213.015C346.92 213.015 347.03 212.99 347.13 212.941C347.466 212.779 347.753 212.608 348.029 212.44C348.327 212.251 348.637 212.084 348.959 211.939C349.045 211.902 349.123 211.848 349.189 211.782L349.4 211.571C350.575 210.99 351.712 210.336 352.805 209.614C352.958 209.524 353.132 209.438 353.319 209.346C353.719 209.167 354.098 208.943 354.447 208.679C354.766 208.424 354.818 207.958 354.563 207.639C354.307 207.32 353.842 207.269 353.523 207.524C353.257 207.719 352.97 207.885 352.668 208.019C352.458 208.123 352.24 208.228 352.029 208.355L351.999 208.374C350.919 209.091 349.794 209.738 348.631 210.311C348.56 210.347 348.496 210.393 348.439 210.449L348.24 210.648C347.906 210.805 347.581 210.982 347.267 211.176C347.008 211.333 346.762 211.481 346.487 211.613C346.173 211.761 346.004 212.108 346.081 212.447C346.159 212.786 346.462 213.025 346.809 213.022V213.015Z" fill="#D9D5CA"/>
<path d="M323.947 232.026C324.076 232.026 324.202 231.992 324.313 231.928L326.989 230.385C329.982 228.659 332.946 226.926 336.242 225.005C336.594 224.799 336.714 224.347 336.508 223.993C336.303 223.64 335.85 223.521 335.497 223.727C332.203 225.648 329.234 227.379 326.25 229.105L323.578 230.646C323.287 230.813 323.146 231.154 323.232 231.478C323.319 231.802 323.612 232.027 323.947 232.026Z" fill="#D9D5CA"/>
<path d="M339.005 223.284C339.135 223.284 339.263 223.249 339.375 223.184L341.968 221.673C344.704 220.088 347.619 218.417 351.141 216.436C351.494 216.234 351.618 215.785 351.419 215.431C351.219 215.077 350.771 214.95 350.416 215.147C346.895 217.132 343.968 218.799 341.225 220.396L338.632 221.906C338.343 222.074 338.203 222.415 338.29 222.738C338.378 223.061 338.671 223.285 339.005 223.284Z" fill="#D9D5CA"/>
<path d="M354.055 214.633C354.11 214.632 354.165 214.626 354.218 214.613C354.606 214.518 354.957 214.311 355.227 214.018C355.681 213.763 356.128 213.515 356.569 213.27C357.642 212.675 358.656 212.113 359.69 211.491C360.04 211.281 360.153 210.826 359.942 210.476C359.732 210.126 359.277 210.013 358.927 210.223C357.917 210.831 356.914 211.389 355.852 211.984C355.38 212.247 354.902 212.513 354.414 212.787C354.355 212.82 354.301 212.861 354.254 212.909C354.078 213.085 354 213.154 353.891 213.178C353.522 213.26 353.275 213.607 353.317 213.983C353.359 214.358 353.677 214.642 354.055 214.64V214.633Z" fill="#D9D5CA"/>
<path d="M328.778 235.083C328.906 235.083 329.031 235.05 329.142 234.986C330.299 234.324 331.469 233.648 332.601 232.993L332.89 232.827C333.964 232.206 335.105 231.547 336.235 230.904C336.601 230.695 336.988 230.489 337.361 230.288C338.157 229.879 338.931 229.428 339.678 228.936C341.099 227.962 342.648 227.094 344.144 226.252C344.79 225.889 345.457 225.516 346.109 225.135C346.348 225.008 346.498 224.76 346.5 224.489C346.502 224.218 346.356 223.967 346.119 223.836C345.882 223.705 345.593 223.713 345.364 223.859C344.723 224.232 344.061 224.604 343.428 224.963C341.903 225.821 340.326 226.706 338.851 227.715C338.146 228.176 337.419 228.6 336.671 228.985C336.288 229.189 335.891 229.402 335.509 229.621C334.383 230.265 333.239 230.926 332.165 231.547L331.876 231.713C330.744 232.366 329.575 233.042 328.422 233.703C328.132 233.87 327.99 234.211 328.077 234.535C328.164 234.859 328.457 235.084 328.792 235.083H328.778Z" fill="#D9D5CA"/>
<path d="M348.897 223.461C349.02 223.46 349.142 223.427 349.249 223.366C351.208 222.272 353.298 221.101 355.304 219.865C355.541 219.732 355.686 219.481 355.683 219.21C355.68 218.939 355.528 218.691 355.289 218.565C355.049 218.438 354.759 218.453 354.533 218.604C352.539 219.824 350.474 220.988 348.529 222.075C348.236 222.238 348.089 222.578 348.172 222.903C348.254 223.229 348.546 223.457 348.881 223.461H348.897Z" fill="#D9D5CA"/>
<path d="M358.211 218.074C358.341 218.074 358.469 218.04 358.582 217.975C359.322 217.544 360.073 217.116 360.8 216.702C362.018 216.008 363.279 215.293 364.52 214.545C364.87 214.334 364.983 213.88 364.773 213.53C364.562 213.179 364.108 213.066 363.758 213.277C362.525 214.013 361.279 214.728 360.061 215.418C359.332 215.832 358.579 216.262 357.832 216.695C357.544 216.863 357.403 217.204 357.49 217.527C357.577 217.849 357.87 218.074 358.204 218.074H358.211Z" fill="#D9D5CA"/>
<path d="M333.608 238.131C333.739 238.131 333.867 238.096 333.98 238.029L335.949 236.883C338.111 235.629 340.319 234.368 342.454 233.148L343.028 232.82C343.268 232.695 343.421 232.449 343.426 232.177C343.431 231.906 343.287 231.654 343.051 231.52C342.816 231.387 342.525 231.393 342.295 231.537L341.722 231.864C339.585 233.084 337.375 234.347 335.208 235.603C334.55 235.985 333.89 236.369 333.233 236.754C332.946 236.924 332.807 237.264 332.895 237.586C332.982 237.908 333.275 238.131 333.608 238.131Z" fill="#D9D5CA"/>
<path d="M345.716 231.17C345.844 231.17 345.97 231.137 346.082 231.073C348.08 229.927 350.713 228.407 353.379 226.822C353.611 226.69 353.755 226.443 353.753 226.175C353.751 225.907 353.605 225.661 353.371 225.532C353.137 225.402 352.851 225.41 352.623 225.551C349.967 227.136 347.342 228.647 345.346 229.79C345.056 229.957 344.914 230.298 345.001 230.622C345.087 230.946 345.381 231.171 345.716 231.17Z" fill="#D9D5CA"/>
<path d="M356.373 224.98C356.505 224.98 356.634 224.944 356.748 224.876C358.707 223.718 360.751 222.554 362.733 221.428C364.919 220.182 367.18 218.894 369.354 217.598C369.591 217.468 369.737 217.219 369.737 216.948C369.736 216.678 369.588 216.43 369.35 216.3C369.113 216.171 368.824 216.182 368.597 216.329C366.435 217.618 364.182 218.901 362.002 220.143C360.02 221.272 357.971 222.432 356.003 223.603C355.715 223.773 355.577 224.114 355.665 224.436C355.753 224.758 356.046 224.981 356.38 224.98H356.373Z" fill="#D9D5CA"/>
<path d="M339.444 198.795L323.092 208.072L334.921 214.67L351.372 205.49L339.444 198.795Z" fill="#D9D5CA"/>
<path d="M345.608 206.529L339.892 205.449V207.617L334.277 207.621L336.152 211.958L345.608 206.529Z" fill="#F8F2E4"/>
<ellipse cx="337.083" cy="205.254" rx="1.52798" ry="0.887534" fill="#F8F2E4"/>
<path d="M483.071 160.631L484.035 158.942C483.65 160.227 485.972 161.231 480.541 164.091L447.228 183.196C445.545 184.176 443.465 184.176 441.782 183.196L403.658 161.245C403.276 161.015 403.036 160.608 403.019 160.162C403.003 159.717 403.213 159.293 403.577 159.035L408.073 155.855L483.071 160.631Z" fill="#B0ADA4"/>
<path d="M404.535 159.794L406.647 161.027L442.546 181.831C443.728 182.517 445.186 182.522 446.373 181.843L484.178 160.25C485.234 159.65 485.289 155.538 484.248 154.916L448.946 136.521L446.552 135.096C445.361 134.389 443.88 134.378 442.68 135.07L404.535 155.068C403.473 155.675 403.482 159.185 404.535 159.794Z" fill="#D1CAC0"/>
<path d="M404.533 157.232L406.645 158.456L442.544 179.26C443.726 179.946 445.184 179.951 446.371 179.272L484.176 157.679C484.657 157.397 484.953 156.882 484.957 156.324C484.961 155.767 484.672 155.248 484.195 154.959L448.939 133.964L446.545 132.54C445.354 131.83 443.873 131.82 442.672 132.511L404.536 154.495C404.05 154.779 403.75 155.3 403.75 155.863C403.749 156.426 404.047 156.947 404.533 157.232Z" fill="#F8F2E4"/>
<path d="M404.533 157.232L406.645 158.456L448.944 133.959L446.55 132.534C445.359 131.825 443.879 131.814 442.678 132.506L404.541 154.49C404.052 154.772 403.749 155.293 403.748 155.859C403.746 156.424 404.045 156.947 404.533 157.232Z" fill="#D9D5CA"/>
<path d="M413.399 158.759C413.532 158.759 413.662 158.723 413.776 158.655C415.26 157.774 416.748 156.919 418.177 156.094C419.784 155.173 421.444 154.221 423.095 153.229C423.432 153.014 423.537 152.569 423.331 152.226C423.125 151.882 422.684 151.765 422.335 151.961C420.696 152.944 419.041 153.898 417.443 154.812C415.999 155.64 414.508 156.494 413.014 157.383C412.728 157.554 412.591 157.894 412.679 158.215C412.767 158.537 413.059 158.759 413.392 158.759H413.399Z" fill="#D9D5CA"/>
<path d="M425.905 151.488C426.035 151.488 426.162 151.453 426.274 151.387C427.348 150.764 428.421 150.139 429.494 149.512C429.733 149.384 429.883 149.136 429.886 148.865C429.888 148.594 429.742 148.344 429.505 148.212C429.268 148.081 428.978 148.089 428.75 148.235C427.677 148.862 426.604 149.486 425.532 150.109C425.243 150.277 425.102 150.618 425.19 150.941C425.277 151.264 425.57 151.488 425.905 151.488Z" fill="#D9D5CA"/>
<path d="M418.232 161.811C418.362 161.811 418.49 161.776 418.603 161.71C419.464 161.205 420.326 160.701 421.189 160.198C421.417 160.065 421.557 159.82 421.556 159.557C421.555 159.293 421.413 159.049 421.185 158.918C420.956 158.787 420.674 158.788 420.446 158.921L417.857 160.434C417.569 160.603 417.431 160.943 417.518 161.265C417.606 161.587 417.898 161.811 418.232 161.811Z" fill="#D9D5CA"/>
<path d="M424.007 158.444C424.137 158.444 424.265 158.41 424.377 158.345L426.565 157.075L427.368 156.609C429.656 155.286 432.008 153.918 434.325 152.558C434.564 152.431 434.714 152.183 434.716 151.912C434.719 151.641 434.573 151.39 434.336 151.259C434.099 151.127 433.809 151.136 433.58 151.282C431.265 152.632 428.908 154.001 426.627 155.323L425.822 155.79L423.639 157.072C423.351 157.24 423.211 157.581 423.298 157.903C423.384 158.226 423.677 158.45 424.011 158.451L424.007 158.444Z" fill="#D9D5CA"/>
<path d="M423.06 164.716C423.152 164.716 423.243 164.694 423.324 164.653C423.537 164.547 423.719 164.443 423.897 164.341C424.074 164.239 424.226 164.153 424.409 164.061C424.449 164.04 424.488 164.015 424.523 163.987C425.051 163.549 425.678 163.283 426.347 162.99L426.412 162.957C427.324 162.429 428.215 161.888 429.074 161.372C430.482 160.525 431.801 159.726 433.168 158.97C433.439 158.805 433.531 158.457 433.379 158.179C433.226 157.902 432.882 157.794 432.598 157.935C431.211 158.701 429.876 159.505 428.463 160.359C427.616 160.87 426.741 161.398 425.847 161.921C425.161 162.216 424.453 162.524 423.819 163.038C423.633 163.133 423.467 163.228 423.309 163.318C423.15 163.408 422.978 163.508 422.796 163.6C422.552 163.723 422.424 163.998 422.487 164.264C422.55 164.53 422.787 164.719 423.06 164.72V164.716Z" fill="#D9D5CA"/>
<path d="M435.942 157.368C436.066 157.367 436.187 157.335 436.294 157.276C437.479 156.623 438.625 155.957 439.699 155.298C439.924 155.161 440.058 154.913 440.051 154.65C440.044 154.386 439.897 154.146 439.666 154.02C439.434 153.894 439.153 153.902 438.928 154.039C437.872 154.686 436.747 155.339 435.583 155.976C435.288 156.139 435.14 156.48 435.223 156.806C435.306 157.133 435.599 157.362 435.935 157.364L435.942 157.368Z" fill="#D9D5CA"/>
<path d="M427.892 167.916C428.022 167.916 428.15 167.881 428.262 167.815L430.285 166.637L435.798 163.416L437.333 162.518C437.572 162.391 437.723 162.143 437.725 161.872C437.727 161.601 437.581 161.35 437.344 161.219C437.107 161.087 436.817 161.096 436.589 161.242L435.052 162.14L429.54 165.361L427.519 166.539C427.229 166.706 427.088 167.048 427.176 167.371C427.263 167.694 427.558 167.918 427.892 167.916Z" fill="#D9D5CA"/>
<path d="M440.101 160.787C440.231 160.787 440.359 160.752 440.472 160.687C441.281 160.217 442.09 159.748 442.9 159.278C443.139 159.151 443.289 158.903 443.291 158.632C443.293 158.361 443.147 158.11 442.91 157.979C442.673 157.847 442.383 157.856 442.155 158.002L439.727 159.41C439.438 159.579 439.298 159.92 439.386 160.243C439.473 160.566 439.766 160.79 440.101 160.789V160.787Z" fill="#D9D5CA"/>
<path d="M445.723 157.512C445.853 157.512 445.98 157.478 446.093 157.413C448.816 155.828 451.257 154.42 453.558 153.102C453.797 152.976 453.948 152.729 453.952 152.459C453.956 152.188 453.812 151.937 453.577 151.804C453.341 151.671 453.052 151.677 452.822 151.82C450.52 153.139 448.069 154.552 445.351 156.133C445.063 156.301 444.922 156.642 445.009 156.965C445.096 157.287 445.389 157.512 445.723 157.512Z" fill="#D9D5CA"/>
<path d="M456.176 151.465C456.287 151.465 456.396 151.44 456.496 151.392C456.833 151.23 457.118 151.058 457.396 150.891C457.693 150.702 458.003 150.534 458.324 150.389C458.41 150.352 458.489 150.299 458.556 150.232L458.767 150.021C459.941 149.44 461.077 148.787 462.17 148.066C462.325 147.974 462.499 147.89 462.684 147.797C463.085 147.618 463.464 147.394 463.814 147.129C464.092 146.865 464.121 146.432 463.882 146.132C463.643 145.833 463.215 145.765 462.895 145.977C462.629 146.174 462.342 146.34 462.04 146.472C461.83 146.576 461.612 146.682 461.401 146.81L461.371 146.828C460.291 147.545 459.166 148.192 458.003 148.765C457.931 148.8 457.866 148.847 457.81 148.904L457.612 149.101C457.278 149.258 456.953 149.435 456.639 149.63C456.378 149.785 456.134 149.933 455.859 150.065C455.545 150.213 455.376 150.56 455.453 150.899C455.531 151.238 455.834 151.477 456.181 151.473L456.176 151.465Z" fill="#D9D5CA"/>
<path d="M433.321 170.476C433.45 170.476 433.577 170.442 433.689 170.378C434.582 169.866 435.474 169.352 436.365 168.835C439.358 167.109 442.322 165.377 445.617 163.455C445.97 163.25 446.09 162.797 445.884 162.444C445.678 162.091 445.226 161.971 444.873 162.177C441.579 164.1 438.609 165.829 435.626 167.555C434.735 168.069 433.844 168.583 432.952 169.096C432.661 169.263 432.52 169.604 432.606 169.928C432.693 170.252 432.986 170.477 433.321 170.476Z" fill="#D9D5CA"/>
<path d="M448.372 161.728C448.502 161.727 448.63 161.693 448.742 161.627L451.335 160.118C454.071 158.533 456.986 156.86 460.508 154.879C460.861 154.678 460.985 154.229 460.786 153.875C460.586 153.52 460.138 153.393 459.783 153.59C456.262 155.575 453.335 157.243 450.59 158.84L447.997 160.349C447.708 160.517 447.568 160.859 447.656 161.182C447.744 161.505 448.038 161.729 448.372 161.728Z" fill="#D9D5CA"/>
<path d="M463.423 153.083C463.478 153.083 463.532 153.076 463.585 153.064C463.973 152.969 464.325 152.762 464.596 152.468C465.05 152.214 465.497 151.965 465.937 151.722C467.011 151.125 468.025 150.563 469.057 149.941C469.283 149.806 469.419 149.559 469.414 149.296C469.41 149.032 469.265 148.79 469.034 148.662C468.804 148.535 468.522 148.539 468.296 148.675C467.286 149.283 466.282 149.839 465.221 150.436C464.749 150.699 464.27 150.965 463.783 151.239C463.724 151.273 463.67 151.313 463.622 151.361C463.446 151.537 463.369 151.606 463.26 151.63C462.891 151.712 462.643 152.059 462.685 152.435C462.727 152.81 463.046 153.094 463.423 153.092V153.083Z" fill="#D9D5CA"/>
<path d="M438.143 173.528C438.271 173.528 438.397 173.495 438.509 173.431C439.664 172.769 440.834 172.093 441.968 171.438L442.257 171.272C443.329 170.651 444.471 169.992 445.601 169.349C445.968 169.142 446.355 168.934 446.728 168.733C447.524 168.324 448.297 167.872 449.045 167.381C450.465 166.408 452.014 165.539 453.511 164.697C454.157 164.345 454.824 163.961 455.473 163.58C455.701 163.448 455.841 163.203 455.84 162.939C455.839 162.675 455.698 162.432 455.469 162.301C455.24 162.17 454.959 162.171 454.731 162.304C454.09 162.677 453.428 163.049 452.794 163.408C451.268 164.265 449.693 165.151 448.217 166.16C447.515 166.622 446.788 167.046 446.04 167.43C445.656 167.634 445.26 167.847 444.876 168.066C443.751 168.71 442.607 169.37 441.532 169.992L441.243 170.158C440.111 170.813 438.942 171.489 437.789 172.148C437.499 172.315 437.357 172.656 437.443 172.979C437.53 173.302 437.822 173.528 438.157 173.528H438.143Z" fill="#D9D5CA"/>
<path d="M458.264 161.909C458.387 161.908 458.508 161.876 458.616 161.816C460.573 160.721 462.654 159.549 464.671 158.313C464.908 158.181 465.053 157.93 465.05 157.659C465.047 157.387 464.895 157.14 464.655 157.013C464.416 156.887 464.126 156.902 463.9 157.052C461.906 158.275 459.841 159.437 457.896 160.525C457.603 160.69 457.458 161.031 457.543 161.356C457.628 161.681 457.921 161.908 458.257 161.909H458.264Z" fill="#D9D5CA"/>
<path d="M467.578 156.526C467.708 156.525 467.835 156.49 467.948 156.425C468.689 155.994 469.44 155.566 470.166 155.152C471.386 154.458 472.646 153.743 473.885 152.995C474.12 152.863 474.265 152.614 474.263 152.345C474.261 152.076 474.112 151.829 473.876 151.7C473.639 151.572 473.352 151.582 473.125 151.727C471.893 152.465 470.646 153.178 469.428 153.868C468.699 154.284 467.946 154.714 467.2 155.147C466.911 155.315 466.771 155.656 466.858 155.979C466.944 156.301 467.237 156.526 467.571 156.526H467.578Z" fill="#D9D5CA"/>
<path d="M442.974 176.582C443.105 176.581 443.234 176.546 443.347 176.479C444.002 176.096 444.658 175.713 445.317 175.333C447.478 174.079 449.686 172.818 451.83 171.598L452.404 171.27C452.74 171.06 452.851 170.621 452.654 170.276C452.458 169.932 452.024 169.804 451.671 169.987L451.098 170.314C448.96 171.535 446.751 172.797 444.584 174.053C443.925 174.434 443.266 174.818 442.609 175.204C442.322 175.373 442.183 175.714 442.27 176.035C442.358 176.357 442.649 176.581 442.982 176.582H442.974Z" fill="#D9D5CA"/>
<path d="M455.083 169.622C455.211 169.621 455.337 169.587 455.449 169.523C457.447 168.377 460.08 166.859 462.746 165.272C462.972 165.138 463.11 164.892 463.106 164.628C463.103 164.364 462.959 164.122 462.729 163.993C462.499 163.864 462.217 163.868 461.99 164.003C459.334 165.588 456.709 167.097 454.713 168.24C454.424 168.408 454.283 168.749 454.369 169.072C454.456 169.396 454.748 169.621 455.083 169.622Z" fill="#D9D5CA"/>
<path d="M465.74 163.431C465.872 163.431 466.002 163.395 466.115 163.327C468.074 162.168 470.116 161.004 472.1 159.879C474.287 158.634 476.547 157.345 478.721 156.049C478.958 155.918 479.105 155.669 479.104 155.399C479.103 155.128 478.955 154.88 478.718 154.751C478.48 154.622 478.191 154.632 477.964 154.779C475.802 156.068 473.549 157.352 471.37 158.593C469.387 159.722 467.338 160.882 465.37 162.053C465.083 162.223 464.944 162.564 465.032 162.886C465.12 163.208 465.413 163.431 465.747 163.431H465.74Z" fill="#D9D5CA"/>
<path d="M448.811 137.245L432.459 146.523L444.289 153.12L460.739 143.942L448.811 137.245Z" fill="#D9D5CA"/>
<path d="M454.975 144.981L449.258 143.9L449.26 146.067L443.644 146.073L445.519 150.408L454.975 144.981Z" fill="#F8F2E4"/>
<ellipse cx="446.45" cy="143.704" rx="1.52798" ry="0.887534" fill="#F8F2E4"/>
<path d="M410.027 175.53L411.176 173.517C410.717 175.051 413.477 176.247 407.009 179.656L367.294 202.433C365.287 203.6 362.808 203.6 360.8 202.433L315.35 176.266C314.896 175.989 314.611 175.503 314.592 174.972C314.572 174.44 314.821 173.934 315.253 173.625L320.613 169.835L410.027 175.53Z" fill="#B0ADA4"/>
<path d="M316.396 174.534L318.913 175.992L361.712 200.806C363.122 201.623 364.86 201.628 366.275 200.82L411.34 175.076C412.595 174.359 412.666 169.458 411.425 168.719L369.342 146.788L366.488 145.088C365.066 144.243 363.299 144.231 361.865 145.057L316.389 168.898C315.13 169.622 315.139 173.801 316.396 174.534Z" fill="#D1CAC0"/>
<path d="M316.394 171.478L318.911 172.936L361.71 197.75C363.12 198.567 364.858 198.573 366.273 197.765L411.338 172.021C411.921 171.688 412.284 171.071 412.29 170.4C412.296 169.728 411.945 169.104 411.368 168.761L369.335 143.731L366.481 142.033C365.059 141.186 363.291 141.174 361.857 142L316.392 168.21C315.808 168.547 315.448 169.17 315.449 169.845C315.449 170.519 315.809 171.142 316.394 171.478Z" fill="#F8F2E4"/>
<path d="M316.394 171.478L318.911 172.936L369.34 143.731L366.486 142.033C365.064 141.186 363.296 141.174 361.862 142L316.397 168.21C315.813 168.546 315.452 169.169 315.451 169.843C315.45 170.518 315.81 171.141 316.394 171.478Z" fill="#D9D5CA"/>
<path d="M326.964 173.299C327.123 173.298 327.278 173.255 327.413 173.174C329.182 172.117 330.955 171.105 332.668 170.122C334.583 169.023 336.564 167.888 338.532 166.706C338.949 166.456 339.085 165.914 338.834 165.496C338.584 165.078 338.043 164.943 337.625 165.193C335.671 166.366 333.7 167.498 331.791 168.592C330.073 169.58 328.294 170.599 326.51 171.66C326.167 171.861 326.002 172.268 326.108 172.652C326.213 173.036 326.563 173.301 326.961 173.299H326.964Z" fill="#D9D5CA"/>
<path d="M341.873 164.63C342.028 164.63 342.181 164.588 342.315 164.51C343.595 163.767 344.874 163.022 346.152 162.275C346.424 162.117 346.591 161.825 346.59 161.509C346.588 161.194 346.419 160.904 346.145 160.748C345.872 160.592 345.535 160.593 345.263 160.752C343.988 161.499 342.71 162.244 341.429 162.987C341.084 163.186 340.916 163.594 341.02 163.979C341.124 164.364 341.474 164.631 341.873 164.63Z" fill="#D9D5CA"/>
<path d="M332.725 176.937C332.88 176.937 333.033 176.896 333.168 176.818C334.194 176.215 335.222 175.614 336.252 175.014C336.65 174.761 336.778 174.239 336.542 173.831C336.306 173.422 335.79 173.272 335.372 173.491L332.277 175.296C331.933 175.497 331.767 175.904 331.871 176.288C331.976 176.673 332.326 176.939 332.725 176.937Z" fill="#D9D5CA"/>
<path d="M339.611 172.92C339.766 172.92 339.917 172.879 340.051 172.801L342.66 171.288L343.618 170.732C346.337 169.155 349.15 167.523 351.912 165.912C352.333 165.666 352.475 165.126 352.229 164.705C351.984 164.285 351.444 164.143 351.023 164.389C348.263 166 345.454 167.63 342.734 169.207L341.776 169.763L339.167 171.276C338.82 171.475 338.65 171.883 338.755 172.269C338.859 172.656 339.211 172.923 339.611 172.92Z" fill="#D9D5CA"/>
<path d="M338.483 180.401C338.592 180.401 338.7 180.375 338.798 180.326C339.05 180.201 339.268 180.075 339.477 179.954C339.687 179.832 339.872 179.729 340.088 179.619C340.138 179.596 340.184 179.567 340.225 179.531C340.85 179.003 341.604 178.686 342.399 178.343C342.427 178.333 342.453 178.32 342.477 178.304C343.565 177.668 344.626 177.029 345.646 176.409C347.318 175.4 348.897 174.446 350.529 173.548C350.861 173.355 350.978 172.933 350.793 172.597C350.607 172.261 350.187 172.136 349.847 172.315C348.193 173.229 346.601 174.189 344.919 175.205C343.91 175.816 342.866 176.437 341.801 177.068C340.981 177.42 340.137 177.788 339.382 178.399C339.16 178.514 338.963 178.626 338.773 178.734C338.583 178.841 338.381 178.959 338.162 179.068C337.867 179.213 337.712 179.543 337.788 179.863C337.863 180.183 338.15 180.408 338.479 180.405L338.483 180.401Z" fill="#D9D5CA"/>
<path d="M353.84 171.64C353.988 171.64 354.133 171.602 354.263 171.531C355.671 170.753 357.042 169.958 358.324 169.175C358.739 168.92 358.869 168.378 358.615 167.962C358.361 167.547 357.818 167.417 357.403 167.671C356.146 168.442 354.803 169.221 353.414 169.987C353.06 170.18 352.882 170.589 352.983 170.979C353.084 171.37 353.437 171.642 353.84 171.64Z" fill="#D9D5CA"/>
<path d="M344.248 184.217C344.403 184.217 344.556 184.176 344.69 184.097L347.1 182.689C349.291 181.41 351.482 180.13 353.673 178.848L355.503 177.777C355.796 177.63 355.982 177.334 355.989 177.007C355.995 176.68 355.819 176.376 355.533 176.219C355.246 176.061 354.896 176.075 354.623 176.256L352.793 177.326L346.219 181.165L343.811 182.574C343.465 182.774 343.297 183.182 343.402 183.567C343.506 183.953 343.857 184.22 344.257 184.217H344.248Z" fill="#D9D5CA"/>
<path d="M358.797 175.717C358.952 175.717 359.105 175.675 359.239 175.597L362.135 173.908C362.533 173.655 362.66 173.133 362.424 172.725C362.188 172.316 361.672 172.166 361.254 172.385C360.287 172.947 359.322 173.51 358.359 174.074C358.013 174.274 357.845 174.681 357.949 175.067C358.054 175.452 358.405 175.719 358.804 175.717H358.797Z" fill="#D9D5CA"/>
<path d="M365.501 171.813C365.656 171.813 365.808 171.771 365.942 171.693C369.188 169.809 372.104 168.129 374.841 166.556C375.114 166.399 375.283 166.108 375.283 165.793C375.284 165.477 375.116 165.185 374.843 165.027C374.57 164.869 374.234 164.869 373.961 165.026C371.215 166.6 368.301 168.282 365.052 170.168C364.704 170.367 364.535 170.775 364.639 171.162C364.743 171.548 365.095 171.816 365.495 171.813H365.501Z" fill="#D9D5CA"/>
<path d="M377.962 164.603C378.094 164.603 378.225 164.573 378.344 164.515C378.711 164.335 379.069 164.135 379.416 163.918C379.771 163.694 380.141 163.494 380.523 163.32C380.626 163.276 380.72 163.212 380.8 163.133L381.051 162.881C382.448 162.189 383.801 161.411 385.1 160.55C385.276 160.441 385.493 160.338 385.713 160.231C386.19 160.016 386.642 159.749 387.06 159.433C387.305 159.236 387.427 158.923 387.379 158.612C387.332 158.301 387.122 158.039 386.828 157.924C386.535 157.81 386.203 157.861 385.958 158.058C385.64 158.291 385.298 158.489 384.938 158.648C384.688 158.769 384.428 158.898 384.176 159.049L384.141 159.07C382.853 159.922 381.512 160.69 380.125 161.369C380.041 161.411 379.963 161.467 379.897 161.534L379.659 161.772C379.26 161.961 378.873 162.173 378.499 162.408C378.189 162.594 377.897 162.77 377.569 162.936C377.196 163.113 376.995 163.525 377.088 163.928C377.18 164.331 377.54 164.616 377.953 164.612L377.962 164.603Z" fill="#D9D5CA"/>
<path d="M350.705 187.267C350.859 187.268 351.01 187.227 351.143 187.151C352.206 186.538 353.27 185.925 354.333 185.311C357.894 183.254 361.434 181.188 365.363 178.897C365.761 178.644 365.889 178.122 365.653 177.714C365.417 177.305 364.901 177.155 364.483 177.374C360.556 179.663 357.016 181.729 353.46 183.786L350.272 185.623C349.925 185.821 349.755 186.228 349.859 186.614C349.962 187.001 350.312 187.269 350.712 187.267H350.705Z" fill="#D9D5CA"/>
<path d="M368.658 176.839C368.814 176.839 368.966 176.797 369.1 176.719L372.19 174.918C375.453 173.019 378.928 171.043 383.127 168.675C383.551 168.436 383.702 167.898 383.463 167.474C383.224 167.049 382.687 166.899 382.262 167.138C378.057 169.504 374.575 171.492 371.304 173.394L368.213 175.196C367.867 175.396 367.699 175.803 367.804 176.189C367.908 176.574 368.259 176.841 368.658 176.839Z" fill="#D9D5CA"/>
<path d="M386.6 166.532C386.666 166.531 386.731 166.524 386.795 166.51C387.256 166.397 387.674 166.153 387.998 165.806C388.54 165.5 389.071 165.206 389.598 164.913C390.878 164.209 392.087 163.533 393.317 162.8C393.587 162.638 393.75 162.344 393.744 162.029C393.739 161.714 393.566 161.426 393.29 161.273C393.015 161.121 392.679 161.127 392.409 161.289C391.205 162.013 390.008 162.677 388.742 163.379C388.181 163.691 387.61 164.008 387.029 164.336C386.959 164.375 386.894 164.423 386.838 164.48C386.628 164.691 386.537 164.772 386.405 164.802C385.962 164.897 385.663 165.312 385.713 165.762C385.764 166.212 386.147 166.55 386.6 166.544V166.532Z" fill="#D9D5CA"/>
<path d="M356.465 190.907C356.618 190.907 356.768 190.867 356.901 190.791C358.278 190.002 359.674 189.195 361.022 188.415L361.374 188.216C362.654 187.477 364.015 186.691 365.354 185.927C365.791 185.677 366.252 185.43 366.698 185.191C367.646 184.704 368.567 184.166 369.458 183.58C371.153 182.419 373 181.384 374.783 180.38C375.554 179.948 376.348 179.499 377.124 179.049C377.411 178.899 377.592 178.604 377.596 178.28C377.601 177.957 377.427 177.657 377.145 177.5C376.863 177.342 376.517 177.352 376.244 177.525C375.48 177.971 374.691 178.406 373.927 178.843C372.109 179.864 370.231 180.921 368.47 182.125C367.631 182.675 366.764 183.18 365.872 183.638C365.416 183.883 364.944 184.136 364.487 184.397C363.145 185.165 361.781 185.952 360.499 186.686L360.156 186.885C358.808 187.665 357.413 188.47 356.039 189.257C355.69 189.455 355.519 189.863 355.622 190.251C355.726 190.638 356.078 190.906 356.479 190.904L356.465 190.907Z" fill="#D9D5CA"/>
<path d="M380.451 177.055C380.601 177.055 380.749 177.016 380.88 176.943C383.215 175.638 385.695 174.241 388.098 172.767C388.513 172.513 388.643 171.97 388.389 171.555C388.135 171.14 387.592 171.009 387.177 171.263C384.801 172.72 382.338 174.107 380.018 175.404C379.665 175.598 379.489 176.007 379.591 176.397C379.693 176.787 380.046 177.058 380.449 177.055H380.451Z" fill="#D9D5CA"/>
<path d="M391.557 170.631C391.712 170.631 391.864 170.591 391.997 170.513C392.878 169.999 393.775 169.49 394.638 168.997C396.092 168.168 397.594 167.312 399.072 166.423C399.489 166.172 399.624 165.631 399.374 165.214C399.124 164.796 398.583 164.661 398.166 164.912C396.703 165.792 395.21 166.641 393.765 167.465C392.895 167.96 392.004 168.472 391.107 168.988C390.761 169.188 390.593 169.596 390.697 169.981C390.802 170.367 391.153 170.634 391.552 170.631H391.557Z" fill="#D9D5CA"/>
<path d="M362.223 194.547C362.379 194.547 362.532 194.505 362.666 194.426C363.448 193.968 364.231 193.512 365.015 193.057C367.593 191.564 370.225 190.064 372.771 188.605L373.454 188.215C373.727 188.057 373.896 187.766 373.896 187.451C373.896 187.135 373.729 186.844 373.456 186.686C373.183 186.527 372.847 186.527 372.574 186.684L371.889 187.075C369.341 188.53 366.708 190.035 364.126 191.532C363.338 191.988 362.553 192.445 361.77 192.904C361.424 193.104 361.256 193.511 361.361 193.897C361.465 194.283 361.816 194.549 362.216 194.547H362.223Z" fill="#D9D5CA"/>
<path d="M376.658 186.249C376.811 186.249 376.963 186.208 377.096 186.131C379.476 184.767 382.618 182.962 385.796 181.065C386.066 180.904 386.23 180.611 386.226 180.296C386.222 179.981 386.05 179.693 385.775 179.539C385.5 179.385 385.165 179.389 384.894 179.551C381.726 181.433 378.594 183.24 376.219 184.603C375.871 184.8 375.7 185.208 375.803 185.595C375.906 185.983 376.257 186.251 376.658 186.249Z" fill="#D9D5CA"/>
<path d="M389.363 178.867C389.522 178.868 389.677 178.825 389.812 178.744C392.147 177.363 394.583 175.976 396.938 174.634C399.545 173.149 402.24 171.614 404.832 170.068C405.102 169.907 405.266 169.613 405.262 169.299C405.258 168.984 405.086 168.695 404.811 168.541C404.537 168.388 404.201 168.392 403.93 168.553C401.353 170.091 398.665 171.621 396.067 173.102C393.704 174.447 391.261 175.838 388.915 177.228C388.572 177.429 388.407 177.836 388.512 178.219C388.617 178.603 388.966 178.869 389.363 178.867Z" fill="#D9D5CA"/>
<path d="M369.181 147.65L349.687 158.711L363.789 166.576L383.401 155.633L369.181 147.65Z" fill="#D9D5CA"/>
<path d="M376.531 156.871L369.716 155.584V158.169L363.02 158.172L365.256 163.343L376.531 156.871Z" fill="#F8F2E4"/>
<ellipse cx="366.367" cy="155.349" rx="1.8202" ry="1.05835" fill="#F8F2E4"/>
<ellipse cx="324.694" cy="153.706" rx="3.16159" ry="2.42663" fill="#D9D5CA" stroke="#D9D5CA" stroke-width="1.23247"/>
<ellipse cx="312.19" cy="191.103" rx="3.16159" ry="2.42663" fill="#D9D5CA" stroke="#D9D5CA" stroke-width="1.23247"/>
<ellipse cx="342.968" cy="142.387" rx="3.16159" ry="2.42663" fill="#D9D5CA" stroke="#D9D5CA" stroke-width="1.23247"/>
<ellipse cx="379.655" cy="132.374" rx="3.16159" ry="2.42663" fill="#D9D5CA" stroke="#D9D5CA" stroke-width="1.23247"/>
<path d="M35.3838 150.13V158.34L39.6914 155.853V147.649L35.3838 150.13Z" fill="#F8BF30"/>
<path d="M44.8843 137.983V152.051L49.1919 149.563V135.5L44.8843 137.983Z" fill="#F8BF30"/>
<path d="M55.6296 129.68V145.699L59.9372 143.213V127.197L55.6296 129.68Z" fill="#F8BF30"/>
<path d="M241.808 149.216L241.912 162.458C241.912 162.684 241.912 162.908 241.899 163.129C241.401 175.757 226.875 185.885 209.028 185.885C190.869 185.885 176.147 175.396 176.147 162.464C176.146 161.812 176.184 161.16 176.259 160.513V151.34L180.201 151.19L236.004 149.064L241.808 149.216Z" fill="#404040"/>
<path d="M241.912 151.334C241.912 166.054 227.188 177.989 209.028 177.989C200.517 177.989 192.763 175.367 186.922 171.066C180.303 166.192 176.147 159.157 176.147 151.343C176.147 136.623 190.869 124.691 209.028 124.691C213.132 124.68 217.212 125.308 221.124 126.55C233.3 130.449 241.912 140.076 241.912 151.334Z" fill="#272727"/>
<path opacity="0.57" d="M241.911 151.334C241.911 166.054 227.188 177.989 209.028 177.989C200.517 177.989 192.762 175.366 186.922 171.066C192.544 170.832 198.61 169.583 204.05 168.213C210.035 166.706 215.941 164.123 220.157 159.618C224.373 155.113 226.602 148.411 224.628 142.565C223.683 139.766 221.873 137.34 220.775 134.598C219.728 131.99 219.455 128.755 221.127 126.542C233.3 130.449 241.911 140.076 241.911 151.334Z" fill="#171717"/>
<path d="M274.161 65.476C274.161 91.1335 259.304 113.317 237.722 123.888C235.081 125.297 225.199 131.367 225.086 143.85H225.132C225.017 144.466 224.85 145.07 224.632 145.657C222.725 150.808 217.006 154.622 210.132 154.948C209.815 154.964 209.495 154.973 209.173 154.973C201.872 154.973 195.706 151.046 193.711 145.657C193.494 145.07 193.327 144.466 193.211 143.85H193.259C193.146 131.206 183.008 125.15 180.526 123.833L180.459 123.8C180.229 123.68 180.074 123.602 180.005 123.573L179.968 123.555C158.756 112.855 144.205 90.8588 144.205 65.476C144.205 35.0375 165.118 9.48567 193.356 2.41709C198.533 1.12524 203.849 0.47467 209.185 0.480013C245.07 0.47473 274.161 29.5767 274.161 65.476Z" fill="url(#paint3_linear_0_9307)"/>
<path d="M224.613 146.858C224.613 154.124 218.015 160.012 209.394 160.012C200.774 160.012 193.787 154.124 193.787 146.858C193.787 139.592 200.774 133.703 209.394 133.703C218.015 133.703 224.613 139.585 224.613 146.858Z" fill="#DE9028"/>
<path d="M225.315 149.418C225.315 156.638 218.089 162.501 209.176 162.501C200.263 162.501 193.035 156.644 193.035 149.418C193.035 148.134 193.265 146.86 193.715 145.657C195.709 151.046 201.876 154.973 209.176 154.973C216.476 154.973 222.641 151.046 224.635 145.657C225.085 146.86 225.315 148.134 225.315 149.418Z" fill="#404040"/>
<path d="M214.779 145.477V80.3036C214.779 78.4954 215.497 76.7612 216.776 75.4828C218.054 74.2043 219.788 73.4864 221.595 73.4868V73.4868C223.404 73.485 225.139 74.2023 226.418 75.4809C227.698 76.7595 228.417 78.4944 228.417 80.3036V86.1342C228.417 89.899 225.366 92.9509 221.602 92.9509H197.899C194.136 92.9509 191.084 89.8993 191.083 86.1342V80.3036C191.084 76.5385 194.136 73.4868 197.899 73.4868V73.4868C201.663 73.4868 204.714 76.5388 204.714 80.3036V145.477" stroke="#FFE773" stroke-width="2.81708" stroke-linecap="round" stroke-linejoin="round"/>
<ellipse opacity="0.457257" cx="234.6" cy="23.5447" rx="7.82751" ry="11.6694" transform="rotate(-82.77 234.6 23.5447)" fill="#FAE9AD"/>
<path opacity="0.73" d="M211.234 150.677C210.975 152.126 210.608 153.554 210.135 154.948C209.819 154.964 209.498 154.973 209.176 154.973C201.876 154.973 195.709 151.046 193.715 145.657C193.497 145.07 193.33 144.466 193.215 143.85H193.263C193.15 131.206 183.012 125.15 180.53 123.833L180.463 123.8C180.232 123.68 180.077 123.602 180.009 123.572L179.972 123.555C158.756 112.855 144.205 90.8587 144.205 65.4759C144.205 35.0374 165.118 9.48557 193.356 2.41699C181.561 15.045 172.195 30.0855 168.47 46.8782C164.099 66.5713 168.447 88.8001 182.605 103.166C189.604 110.27 198.681 115.291 204.694 123.241C210.526 130.963 212.959 141.161 211.234 150.677Z" fill="url(#paint4_linear_0_9307)"/>
<g style="mix-blend-mode:color-dodge" filter="url(#filter0_f_0_9307)">
<circle cx="211" cy="77.48" r="27" fill="url(#paint5_radial_0_9307)"/>
</g>
<path d="M67.7866 116.921V138.8L72.0942 136.313V114.44L67.7866 116.921Z" fill="#F8BF30"/>
<ellipse cx="30.9905" cy="160.202" rx="2.03727" ry="1.62143" transform="rotate(-60 30.9905 160.202)" fill="white"/>
<ellipse cx="80.8254" cy="131.544" rx="2.03727" ry="1.62143" transform="rotate(-60 80.8254 131.544)" fill="white"/>
<ellipse cx="35.02" cy="142.817" rx="2.03727" ry="1.62143" transform="rotate(-60 35.02 142.817)" fill="white"/>
<ellipse cx="44.3799" cy="134.633" rx="2.03727" ry="1.62143" transform="rotate(-60 44.3799 134.633)" fill="white"/>
<ellipse cx="55.3611" cy="122.108" rx="2.03727" ry="1.62143" transform="rotate(-60 55.3611 122.108)" fill="white"/>
<ellipse cx="69.1535" cy="107.672" rx="2.03727" ry="1.62143" transform="rotate(-60 69.1535 107.672)" fill="white"/>
<path d="M27.647 131.603L22.542 134.029C22.8818 136.826 22.2199 140.12 20.4895 143.119C19.2931 145.213 17.6336 147.005 15.6379 148.358V154.539C19.354 153.004 22.8307 150 25.2213 145.854C27.9357 141.144 28.6804 135.954 27.647 131.603Z" fill="black"/>
<path d="M10.0419 150.234C10.4475 150.234 10.8525 150.201 11.253 150.137V155.644C10.3867 155.726 9.51421 155.719 8.64941 155.622V150.093C9.10747 150.188 9.57409 150.235 10.0419 150.234Z" fill="black"/>
<path d="M26.0065 127.537L21.1638 130.106C20.6428 129.32 19.9476 128.665 19.1323 128.192C18.1674 127.643 17.0736 127.361 15.9637 127.376C13.4992 127.376 11.1509 128.433 8.93286 130.451V123.738C13.2897 121.349 17.8966 121.157 21.8626 123.448C23.5672 124.438 24.9929 125.845 26.0065 127.537Z" fill="black"/>
<path d="M29.7349 132.439L24.6299 134.864C24.9697 137.662 24.3078 140.957 22.5756 143.956C21.3795 146.049 19.7206 147.841 17.7258 149.195V155.374C21.4419 153.84 24.9186 150.834 27.3092 146.689C30.0254 141.98 30.7665 136.789 29.7349 132.439Z" fill="white"/>
<path d="M8.96094 150.255C6.5475 148.86 5.8152 146.173 5.59515 144.695C5.14979 141.725 5.88561 138.307 7.61075 135.317C10.0664 131.062 14.2631 128.204 18.0531 128.204C19.1629 128.189 20.2566 128.469 21.2218 129.017C22.0371 129.494 22.7317 130.152 23.2515 130.94L28.0889 128.368C27.0768 126.678 25.6537 125.273 23.9521 124.282C17.2064 120.387 7.77095 124.106 2.87717 132.583C-2.0166 141.061 -0.515019 151.095 6.22184 154.99C8.3782 156.217 10.8645 156.738 13.3319 156.48V150.973C12.9312 151.036 12.5263 151.068 12.1208 151.068C11.0141 151.082 9.92365 150.801 8.96094 150.255Z" fill="#F8BF30"/>
<path d="M37.3746 115.759L32.6516 118.337V113.612L37.3746 111.036V115.759Z" fill="white"/>
<path d="M37.3746 125.094L32.6516 127.67V122.946L37.3746 120.369V125.094Z" fill="white"/>
<path d="M40.5592 110.228L39.0225 113.767L42.0978 112.015L40.5592 110.228Z" fill="white"/>
<path d="M40.8268 122.963L42.6488 118.811L39.0066 120.804L40.8268 122.963Z" fill="white"/>
<path d="M61.8877 50.1131V75.9502C61.8878 76.7867 62.3334 77.5597 63.0571 77.9787C63.7808 78.3976 64.6728 78.3991 65.3978 77.9824L98.6139 58.874C99.7223 58.2367 100.406 57.0554 100.406 55.7764V30.1137C100.406 29.2789 99.9626 28.5069 99.2411 28.0874C98.5196 27.6679 97.6294 27.6643 96.9046 28.078L63.6921 47.0103C62.5772 47.6453 61.8884 48.8297 61.8877 50.1131H61.8877Z" fill="#F8BF30"/>
<ellipse cx="96.8917" cy="32.2307" rx="1.41218" ry="1.1232" transform="rotate(-60 96.8917 32.2307)" fill="#272727"/>
<path fill-rule="evenodd" clip-rule="evenodd" d="M65.3977 55.8663L65.7885 55.6392L65.6037 57.3262L66.2955 56.9247L66.4715 55.2377L67.0348 54.9084L66.8694 56.5971L67.5594 56.1939L67.7354 54.5069L68.1421 54.2709L68.2055 53.614L67.7988 53.85L67.9502 52.3056L68.3569 52.0697L68.4202 51.4128L68.0136 51.6488L68.1491 50.2893L67.4573 50.6926L67.3218 52.052L66.7585 52.3796L66.894 51.0201L66.2022 51.4234L66.0666 52.7811L65.6688 53.0118L65.6054 53.6704L66.0033 53.4397L65.8519 54.9823L65.4628 55.2077L65.3977 55.8663ZM67.2584 52.7089L67.107 54.2515L66.5437 54.5791L66.6951 53.0364L67.2584 52.7089Z" fill="white"/>
<path d="M70.0962 50.4742L69.1826 51.0025V50.3827C69.922 49.9512 70.1843 49.6413 70.3832 48.9845L70.9711 48.6428V54.2128L70.091 54.7217L70.0962 50.4742Z" fill="white"/>
<path fill-rule="evenodd" clip-rule="evenodd" d="M65.3977 63.5425L65.7885 63.3154L65.6125 64.9989L66.3043 64.5956L66.4803 62.9086L67.0436 62.5811L66.8782 64.2681L67.5594 63.8719L67.7354 62.1831L68.1421 61.9471L68.2055 61.2903L67.7988 61.5262L67.9502 59.9836L68.3569 59.7476L68.4202 59.0908L68.0136 59.325L68.1491 57.9673L67.4573 58.3688L67.3218 59.7283L66.7585 60.0558L66.894 58.6963L66.2022 59.0996L66.0666 60.4591L65.6688 60.6898L65.6054 61.3466L66.0033 61.1159L65.8519 62.6585L65.4628 62.8857L65.3977 63.5425ZM67.2584 60.3851L67.107 61.9277L66.5437 62.257L66.6951 60.7127L67.2584 60.3851Z" fill="white"/>
<path d="M68.8569 62.5176C68.8569 61.7234 69.0787 61.1088 69.7371 60.0522C70.4043 58.9569 70.5944 58.4233 70.5944 57.9074C70.5944 57.3914 70.4184 57.3791 70.142 57.534C69.8472 57.6946 69.6711 58.0106 69.6896 58.3459V58.9428L68.8622 59.4236V58.883C68.8622 57.9919 69.3076 57.2241 70.1666 56.724C71.0257 56.2239 71.4693 56.4757 71.4693 57.3668C71.4693 58.0271 71.2 58.7755 70.3884 60.1033C69.8603 60.9644 69.7283 61.3219 69.7283 61.7111V61.8308L71.3901 60.8641V61.66L68.8622 63.1287L68.8569 62.5176Z" fill="white"/>
<path d="M83.107 45.4536L72.948 51.3617V49.9054L83.107 43.999V45.4536Z" fill="white"/>
<path d="M89.041 42.0039L84.9517 44.3813V42.9249L89.041 40.5476V42.0039Z" fill="white"/>
<path d="M79.7201 54.7146L72.948 58.6522V57.1976L79.7201 53.2583V54.7146Z" fill="white"/>
<path d="M89.0411 49.2944L81.5261 53.6634V52.2088L89.0411 47.8398V49.2944Z" fill="white"/>
<path d="M79.4541 66.7826L82.7724 65.004L89.041 55.4419L92.9877 57.9671L96.8921 50.7524L94.866 49.7944L92.2078 54.7217L88.4988 52.3743L79.4541 66.7826Z" fill="#272727"/>
<path d="M93.6356 50.2683L96.8324 52.1173C96.9824 52.2041 97.1662 52.2091 97.3208 52.1306C97.4753 52.052 97.5797 51.9006 97.5981 51.7282L98.1262 46.7604C98.1474 46.5531 98.041 46.3536 97.857 46.2558C97.6731 46.1579 97.4482 46.1813 97.2883 46.3149L93.5634 49.4354C93.436 49.5424 93.3686 49.7048 93.383 49.8706C93.3974 50.0364 93.4916 50.1848 93.6356 50.2683Z" fill="#272727"/>
<path d="M97.0189 80.6311V97.1068L84.3937 104.367C83.9935 104.596 83.5017 104.595 83.1027 104.364C82.7038 104.133 82.4579 103.707 82.4573 103.246V90.0823C82.4569 89.3729 82.8373 88.718 83.4536 88.3671L97.0189 80.6311Z" fill="#071C24"/>
<path d="M85.1013 91.3043V104.468C85.1024 104.929 85.3482 105.355 85.7469 105.586C86.1456 105.817 86.6371 105.819 87.0377 105.591L105.409 95.0253C106.022 94.6728 106.4 94.0193 106.4 93.3118V80.2454C106.4 79.7835 106.155 79.3563 105.756 79.1244C105.357 78.8924 104.864 78.8907 104.463 79.1201L86.0994 89.5874C85.483 89.9392 85.1021 90.5943 85.1013 91.3043H85.1013Z" fill="#227C9D"/>
<ellipse cx="104.602" cy="81.7808" rx="1.12164" ry="0.892577" transform="rotate(-60 104.602 81.7808)" fill="white"/>
<path d="M87.1186 93.6025C86.8038 93.6029 86.5296 93.3881 86.4544 93.0824C86.3792 92.7766 86.5227 92.4591 86.8017 92.3134L98.7721 86.0602C98.9885 85.9472 99.2486 85.9584 99.4545 86.0893C99.6605 86.2203 99.7809 86.4512 99.7705 86.6951C99.7601 86.939 99.6204 87.1588 99.4041 87.2717L87.4337 93.525C87.3364 93.5757 87.2283 93.6023 87.1186 93.6025Z" fill="white"/>
<path d="M93.257 94.2487C92.9354 94.2495 92.6568 94.0257 92.5881 93.7113C92.5194 93.397 92.6792 93.0773 92.9719 92.9438C94.19 92.3873 95.4117 91.7217 96.5929 91.0771C97.3129 90.6844 98.0575 90.2777 98.7793 89.9096C98.9969 89.7951 99.2594 89.8065 99.4663 89.9394C99.6733 90.0724 99.7928 90.3064 99.7792 90.5521C99.7656 90.7977 99.621 91.0171 99.4007 91.1264C98.6965 91.4875 97.9924 91.8713 97.2478 92.2764C96.0454 92.9332 94.8026 93.6112 93.5405 94.187C93.4514 94.2275 93.3548 94.2485 93.257 94.2487Z" fill="white"/>
<path d="M87.1186 97.4554C86.8038 97.4558 86.5296 97.241 86.4544 96.9353C86.3792 96.6295 86.5227 96.312 86.8017 96.1663L89.5884 94.71C89.8047 94.5968 90.065 94.6076 90.2712 94.7384C90.4774 94.8692 90.5982 95.1001 90.5881 95.3442C90.578 95.5882 90.4384 95.8083 90.2221 95.9216L87.4355 97.3744C87.3379 97.4266 87.2292 97.4544 87.1186 97.4554Z" fill="white"/>
<path d="M100.087 94.6133C99.7724 94.6137 99.4981 94.3989 99.4229 94.0932C99.3477 93.7874 99.4912 93.4699 99.7702 93.3242L102.782 91.7499C103.117 91.5749 103.53 91.7042 103.705 92.0387C103.88 92.3733 103.75 92.7864 103.416 92.9615L100.402 94.5358C100.305 94.5868 100.197 94.6134 100.087 94.6133Z" fill="white"/>
<path d="M93.7499 97.9768C93.4358 97.9773 93.1619 97.7635 93.086 97.4586C93.0101 97.1537 93.1518 96.8364 93.4295 96.6895C94.4311 96.1612 95.4644 95.5995 96.5981 94.9867C96.8126 94.87 97.073 94.8766 97.2812 95.004C97.4895 95.1315 97.614 95.3604 97.6078 95.6045C97.6016 95.8487 97.4657 96.0709 97.2512 96.1877C96.1228 96.8022 95.086 97.3605 94.0826 97.8958C93.9805 97.9509 93.8659 97.9788 93.7499 97.9768Z" fill="white"/>
<path d="M87.1188 101.384C86.8001 101.385 86.5229 101.166 86.4508 100.855C86.3788 100.545 86.5311 100.226 86.8178 100.086C87.9514 99.5281 89.1062 98.9435 90.3508 98.3007C90.5678 98.1887 90.828 98.201 91.0334 98.333C91.2388 98.465 91.3583 98.6966 91.3467 98.9406C91.3352 99.1845 91.1944 99.4038 90.9775 99.5158C89.7276 100.162 88.564 100.748 87.4216 101.314C87.3273 101.36 87.2237 101.384 87.1188 101.384Z" fill="white"/>
<defs>
<filter id="filter0_f_0_9307" x="176.661" y="43.1406" width="68.6787" height="68.6787" filterUnits="userSpaceOnUse" color-interpolation-filters="sRGB">
<feFlood flood-opacity="0" result="BackgroundImageFix"/>
<feBlend mode="normal" in="SourceGraphic" in2="BackgroundImageFix" result="shape"/>
<feGaussianBlur stdDeviation="3.66968" result="effect1_foregroundBlur_0_9307"/>
</filter>
<linearGradient id="paint0_linear_0_9307" x1="-12.2948" y1="171.85" x2="40.3998" y2="254.63" gradientUnits="userSpaceOnUse">
<stop stop-color="#252525"/>
<stop offset="1" stop-color="#F9C035"/>
</linearGradient>
<linearGradient id="paint1_linear_0_9307" x1="4.0916" y1="162.2" x2="50.4801" y2="236.826" gradientUnits="userSpaceOnUse">
<stop stop-color="#252525"/>
<stop offset="1" stop-color="#F9C035"/>
</linearGradient>
<linearGradient id="paint2_linear_0_9307" x1="80.5338" y1="155.808" x2="65.9202" y2="127.259" gradientUnits="userSpaceOnUse">
<stop stop-color="#F8BF30"/>
<stop offset="1" stop-color="#FFA12E" stop-opacity="0.01"/>
</linearGradient>
<linearGradient id="paint3_linear_0_9307" x1="163.844" y1="152.846" x2="290.223" y2="152.846" gradientUnits="userSpaceOnUse">
<stop stop-color="#FDF8EA"/>
<stop offset="1" stop-color="#FAC11A"/>
</linearGradient>
<linearGradient id="paint4_linear_0_9307" x1="151.355" y1="120.301" x2="232.191" y2="140.133" gradientUnits="userSpaceOnUse">
<stop stop-color="#FBEBBC"/>
<stop offset="1" stop-color="#FFE773" stop-opacity="0.540865"/>
</linearGradient>
<radialGradient id="paint5_radial_0_9307" cx="0" cy="0" r="1" gradientUnits="userSpaceOnUse" gradientTransform="translate(210.754 78.7412) scale(22.7768)">
<stop stop-color="white" stop-opacity="0.224077"/>
<stop offset="0.273356" stop-color="#FFF8EA" stop-opacity="0.66"/>
<stop offset="0.49" stop-color="#675016" stop-opacity="0.266445"/>
<stop offset="0.52359" stop-color="white" stop-opacity="0.76"/>
<stop offset="0.694895" stop-color="#FFD79D" stop-opacity="0.49209"/>
<stop offset="0.75" stop-color="#FFB449" stop-opacity="0.26"/>
<stop offset="1" stop-color="#FFA12E" stop-opacity="0.01"/>
</radialGradient>
</defs>
</svg>
