<svg width="342" height="254" viewBox="0 0 342 254" fill="none" xmlns="http://www.w3.org/2000/svg">
<path d="M51.3089 99.7633L2.47226 127.964C0.942805 128.848 0.000534603 130.481 0 132.248V170.707C0.00230108 171.669 0.517436 172.556 1.35123 173.035C2.18503 173.513 3.21073 173.51 4.0417 173.027L53.9986 144.179C54.8308 143.699 55.3435 142.811 55.3434 141.85V102.093C55.3432 101.132 54.8305 100.244 53.9983 99.7632C53.1662 99.2827 52.141 99.2827 51.3089 99.7633Z" fill="#D9D5CA"/>
<path d="M124.283 2.58128L85.141 24.9821C83.6108 25.8655 82.6683 27.4985 82.6687 29.2657V67.7182C82.6689 68.6793 83.1816 69.5673 84.0137 70.0478C84.8459 70.5283 85.8711 70.5282 86.7032 70.0477L126.969 46.9988C127.802 46.5183 128.315 45.6295 128.314 44.6679V4.91081C128.314 3.9502 127.802 3.06248 126.971 2.58199C126.139 2.1015 125.115 2.10123 124.283 2.58128Z" fill="#D9D5CA"/>
<path d="M57.5925 103.673L8.75584 131.874C7.22572 132.757 6.28321 134.39 6.28357 136.157V174.61C6.28203 175.573 6.79533 176.463 7.62942 176.945C8.46352 177.426 9.49115 177.424 10.3238 176.941L60.2821 148.093C61.1139 147.613 61.6265 146.725 61.6269 145.764V106.002C61.6268 105.041 61.1141 104.153 60.2819 103.673C59.4498 103.192 58.4246 103.192 57.5925 103.673Z" fill="#272727" stroke="#121212" stroke-width="2"/>
<path d="M129.272 6.04459L90.1319 28.4454C88.6056 29.3314 87.6668 30.9638 87.6683 32.729V71.1815C87.6676 72.143 88.1802 73.0317 89.0126 73.5124C89.8451 73.993 90.8708 73.9925 91.7028 73.511L131.969 50.4622C132.801 49.9819 133.314 49.0937 133.314 48.1326V8.37412C133.315 7.41074 132.802 6.52018 131.967 6.03922C131.133 5.55826 130.105 5.56031 129.272 6.04459Z" fill="#272727" stroke="#121212" stroke-width="2"/>
<path d="M288.671 205.429C288.475 205.743 288.202 206.003 287.878 206.184L246.67 229.736C245.992 230.119 245.213 230.282 244.438 230.204L213.032 227.015C211.152 226.819 209.708 225.26 209.656 223.37L209.179 204.773C209.169 204.401 209.215 204.03 209.315 203.672L209.656 216.981C209.705 218.872 211.151 220.432 213.032 220.623L244.438 223.82C245.213 223.9 245.993 223.736 246.67 223.352L282.821 202.889C283.478 202.522 283.903 201.845 283.947 201.093L288.229 203.692L288.671 205.429Z" fill="#D9D5CA"/>
<path d="M113.231 253.045C113.231 253.045 107.654 256.089 100.446 251.306L70.0842 233.976C68.8841 233.289 68.1353 232.02 68.1145 230.637C68.0937 229.254 68.8039 227.963 69.9828 227.241L85.4728 217.782L105.373 249.123C107.021 251.721 110.067 253.079 113.101 252.567L113.231 253.045Z" fill="#D9D5CA"/>
<path d="M219.5 116.927C219.322 123.745 217.946 130.48 215.435 136.821C206.872 158.436 185.785 173.724 161.126 173.724C160.701 173.724 160.279 173.719 159.86 173.71C140.202 173.271 122.081 162.98 111.629 146.321C110.793 144.99 110.011 143.623 109.283 142.221C121.784 149.663 136.553 153.576 151.176 154.322C167.024 155.133 183.478 152.349 196.778 143.691C206.727 137.221 214.42 127.697 219.5 116.927Z" fill="#0C86B3"/>
<path d="M195.568 166.606C195.568 166.683 195.568 166.76 195.568 166.838C195.522 169.416 194.681 171.879 193.19 174.143C188.205 181.717 175.926 187.072 161.57 187.072C161.322 187.072 161.077 187.072 160.832 187.072C157.345 187.034 153.87 186.661 150.455 185.957C145.44 184.914 140.948 183.174 137.315 180.95C135.672 179.958 134.141 178.792 132.747 177.471C129.462 174.323 127.564 170.599 127.564 166.599C127.564 163.475 128.723 160.511 130.807 157.865C135.001 152.524 142.922 148.443 152.544 146.86C155.526 146.373 158.542 146.131 161.562 146.135C169.439 146.135 176.689 147.747 182.452 150.453C185.965 152.102 188.924 154.154 191.138 156.498C193.96 159.483 195.568 162.932 195.568 166.606Z" fill="#EBE7D8"/>
<path d="M219.523 115.309C219.523 115.529 219.523 115.744 219.523 115.968C219.523 116.287 219.517 116.606 219.504 116.924C219.325 123.744 217.948 130.479 215.435 136.821C206.872 158.436 185.785 173.724 161.126 173.724C160.701 173.724 160.279 173.719 159.86 173.709C140.202 173.271 122.081 162.98 111.629 146.32C110.793 144.99 110.011 143.623 109.283 142.221C100.903 126.036 100.539 106.87 108.299 90.3784C115.501 75.1343 129.104 63.507 145.638 58.9682C163.211 54.1345 182.033 57.7845 196.527 68.8371C211.022 79.8897 219.527 97.0776 219.523 115.309Z" fill="#F6F1E3" stroke="#CCCCCC" stroke-opacity="0.243799" stroke-width="2"/>
<path d="M196.832 80.8009C194.796 83.4856 191.035 84.0002 187.681 84.3017C185.642 84.4844 183.561 84.6656 181.572 84.1886C179.584 83.7117 177.66 82.4491 176.935 80.5414C176.21 78.6337 176.79 76.4709 176.477 74.453C175.809 70.039 171.167 67.3123 166.776 66.5324C162.385 65.7525 157.792 66.2497 153.486 65.1088C150.84 64.4072 146.675 62.0473 145.633 58.9755C163.413 54.1089 182.446 57.9059 197 69.2228C197.371 70.3266 197.673 71.4522 197.906 72.5932C198.48 75.3779 198.555 78.5323 196.832 80.8009Z" fill="#F9C035"/>
<path d="M142.977 68.6983C142.397 68.5533 141.771 68.4373 141.186 68.591C140.6 68.7447 140.064 69.2317 140.038 69.8362C140.002 70.6755 140.879 71.2423 141.67 71.5236C142.461 71.8048 143.381 72.0628 143.751 72.8181C144.21 73.7574 143.529 74.8345 142.862 75.6405C139.109 80.1763 147.24 80.9519 149.031 77.538C151.527 72.7978 147.062 69.7362 142.977 68.6983Z" fill="#CDC8B8"/>
<path d="M175.073 100.137C176.167 100.436 177.755 100.308 177.903 99.1849C178.048 98.0252 176.519 97.5425 175.547 96.896C173.396 95.4667 173.663 92.3254 173.248 89.7769C172.603 85.8398 169.637 82.439 165.919 80.9981C162.2 79.5572 157.86 80.0138 154.369 81.9432C153.018 82.6898 151.741 83.6944 151.066 85.0816C150.391 86.4689 150.457 88.2969 151.536 89.4C152.976 90.8728 155.399 90.5148 157.38 89.948C162.177 88.5796 163.365 89.4392 165.829 93.2343C167.976 96.5423 171.247 99.0965 175.073 100.137Z" fill="#CDC8B8"/>
<path d="M132.157 98.5312C129.853 94.7013 131.288 89.3392 133.123 85.6209C133.412 85.0164 133.76 84.4119 134.282 83.9945C135.412 83.0971 137.157 83.3378 138.28 84.2423C139.403 85.1469 140 86.5617 140.319 87.9693C141.129 91.5542 140.499 95.6392 142.638 98.6268C144.855 101.722 149.346 102.541 151.478 105.695C153.776 109.081 152.418 113.787 150.072 117.147C148.385 119.561 146.116 121.713 143.288 122.532C140.461 123.351 137.037 122.532 135.412 120.081C133.881 117.762 133.828 114.138 131.237 113.123C129.233 112.347 126.71 113.732 124.928 112.533C123.115 111.314 123.638 108.389 125.096 106.762C128.39 103.089 134.357 100.263 130.771 94.2432" fill="#CDC8B8"/>
<path d="M119.944 138.503C120.745 139.994 120.448 141.924 119.461 143.301C118.475 144.678 116.904 145.551 115.259 145.986C114.073 146.295 112.844 146.408 111.621 146.321C101.073 129.453 99.8176 108.38 108.288 90.3786C109.738 89.9147 111.332 89.848 113.25 90.4931C117.318 91.8659 119.916 96.8714 118.231 100.827C116.838 104.099 112.998 106.55 113.427 110.077C113.992 114.716 121.5 116.203 121.642 120.878C121.718 123.357 119.589 125.256 117.775 126.946C115.96 128.637 114.152 131.065 115.041 133.381C115.907 135.612 118.814 136.398 119.944 138.503Z" fill="#F9C035"/>
<path d="M125.993 132.367C125.525 130.736 126.649 128.917 128.236 128.308C129.823 127.699 131.675 128.174 133.018 129.201C134.362 130.227 135.272 131.742 135.908 133.313C136.672 135.198 137.095 137.274 136.777 139.286C136.46 141.298 135.328 143.234 133.541 144.214C130 146.171 125.281 143.15 127.846 139.339C128.468 138.416 129.642 138.003 129.459 136.721C129.223 135.034 126.503 134.148 125.993 132.367Z" fill="#227C9D"/>
<path d="M150.657 128.012C153.909 124.499 159.706 123.457 163.735 126.042C167.763 128.626 169.128 134.787 166.198 138.577C164.72 140.49 162.297 141.911 161.93 144.298C161.522 146.961 163.929 149.279 164.149 151.964C164.429 155.357 161.29 157.936 158.483 159.863C156.855 160.979 155.173 162.12 153.241 162.526C151.31 162.932 149.047 162.42 147.942 160.786C147.248 159.761 147.081 158.426 146.288 157.477C144.736 155.614 141.632 156.071 139.741 154.553C138.477 153.538 137.993 151.758 138.261 150.159C138.529 148.56 139.457 147.137 140.58 145.971C142.007 144.495 143.707 143.518 145.59 142.75C147.821 141.838 148.09 141.922 147.875 139.486C147.503 135.248 147.55 131.36 150.657 128.012Z" fill="#CDC8B8"/>
<path d="M169.036 105.308C170.144 106.513 170.34 108.267 170.846 109.822C171.614 112.141 173.155 114.126 175.211 115.445C176.561 116.306 178.239 117.006 178.767 118.518C179.362 120.219 178.168 121.997 176.923 123.302C175.422 124.871 173.277 126.365 171.234 125.622C168.846 124.76 168.217 121.418 165.926 120.323C164.724 119.743 163.317 119.923 161.99 119.93C160.662 119.938 159.155 119.664 158.418 118.555C156.489 115.655 161.649 111.753 162.33 109.06C163.056 106.236 165.555 101.523 169.036 105.308Z" fill="#CDC8B8"/>
<path d="M181.49 103.943C180.719 104.627 179.812 105.247 179.451 106.218C178.649 108.354 181.025 110.383 183.243 110.909C185.462 111.436 187.986 111.354 189.715 112.842C191.579 114.446 191.76 117.208 191.985 119.655C192.209 122.102 192.9 124.93 195.151 125.919C197.325 126.873 199.984 125.452 201.056 123.338C202.129 121.225 201.937 118.687 201.337 116.395C200.737 114.103 199.759 111.913 199.309 109.582C198.784 106.897 198.971 104.088 198.203 101.464C197.104 97.7121 192.061 92.379 187.624 93.2661C185.595 93.672 185.56 95.2231 185.143 97.0076C184.511 99.6763 183.595 102.078 181.49 103.943Z" fill="#227C9D"/>
<path d="M219.523 115.309C219.523 115.529 219.523 115.744 219.523 115.968C217.526 116.373 215.252 115.625 213.8 114.123C211.851 112.107 211.229 109.087 211.547 106.295C211.692 105.051 211.996 103.779 211.666 102.574C211.067 100.391 208.656 99.2545 207.463 97.3308C205.462 94.1098 207.382 90.1582 209.913 87.9084C210.523 87.3445 211.199 86.8577 211.926 86.4587C216.925 95.2505 219.543 105.195 219.523 115.309Z" fill="#F9C035"/>
<path d="M215.435 136.821C206.872 158.436 185.785 173.724 161.126 173.724C160.701 173.724 160.279 173.719 159.86 173.709C159.063 172.26 158.786 170.612 159.358 169.05C160.749 165.242 165.71 164.441 168.892 161.928C171.526 159.804 172.892 156.481 172.515 153.118C172.321 151.538 171.743 150.026 171.537 148.449C171.331 146.871 171.579 145.096 172.754 144.021C174.603 142.331 177.681 143.268 179.522 144.964C181.362 146.66 182.603 148.972 184.604 150.481C188.282 153.253 193.818 152.481 197.394 149.576C200.971 146.671 202.837 142.109 203.626 137.568C203.868 136.173 204.046 134.696 204.894 133.564C206.576 131.308 210.24 131.524 212.455 133.258C213.586 134.15 214.593 135.385 215.435 136.821Z" fill="#CDC8B8"/>
<path d="M185.944 123.28C185.06 123.135 184.35 123.963 183.869 124.721C182.842 126.364 182.027 128.129 181.217 129.889C180.706 131.001 180.181 132.223 180.48 133.41C180.575 133.761 180.76 134.081 181.017 134.338C182.083 135.399 182.728 136.811 182.832 138.311C182.832 138.337 182.832 138.365 182.832 138.393C182.923 139.638 183.411 140.911 184.408 141.666C187.962 144.369 197.43 139.191 195.11 134.525C194.135 132.565 191.182 131.543 189.718 129.95C188.515 128.635 187.624 123.543 185.944 123.28Z" fill="#CDC8B8"/>
<path d="M142.977 167.924C143.004 168.871 142.629 169.781 142.036 170.533C133.513 167.583 125.79 162.696 119.474 156.256C120.163 154.972 121.18 153.893 122.422 153.132C124.274 151.981 126.901 151.935 128.508 153.422C129.408 154.257 129.89 155.434 130.492 156.507C131.793 158.806 133.724 160.685 136.057 161.923C137.487 162.676 139.047 163.181 140.405 164.058C141.762 164.935 142.933 166.309 142.977 167.924Z" fill="#F9C035"/>
<path d="M180.097 214.426L115.644 251.648C112.095 253.7 107.56 252.586 105.365 249.123L85.4656 217.782L79.1632 207.854C78.0434 206.091 77.6929 203.947 78.1929 201.92C78.6929 199.892 80.0001 198.157 81.8108 197.118L146.6 159.906C150.163 157.86 154.706 158.994 156.889 162.477L182.756 203.733C183.86 205.494 184.2 207.628 183.698 209.645C183.197 211.661 181.897 213.388 180.097 214.426Z" fill="#F8F2E4"/>
<path d="M133.207 179.807L142.741 193.627C142.892 193.846 143.127 193.994 143.39 194.036L155.19 195.938C155.689 196.017 156.166 195.703 156.29 195.213L158.954 184.993C159.017 184.748 158.982 184.488 158.857 184.268L150.389 169.474C150.259 169.246 150.042 169.081 149.789 169.014C149.535 168.948 149.265 168.987 149.04 169.121L133.508 178.415C133.277 178.554 133.113 178.782 133.056 179.045C132.999 179.309 133.053 179.585 133.207 179.807Z" fill="#F8BF30"/>
<path d="M101.354 201.312C100.648 201.312 100.03 200.838 99.8465 200.156C99.6632 199.474 99.9606 198.753 100.572 198.399L126.785 183.26C127.53 182.855 128.461 183.119 128.883 183.854C129.306 184.588 129.065 185.526 128.34 185.966L115.908 193.147L102.132 201.103C101.896 201.24 101.627 201.312 101.354 201.312Z" fill="#D9D5CA"/>
<path d="M88.8001 208.563C88.0967 208.568 87.4767 208.102 87.2861 207.424C87.0955 206.747 87.3814 206.026 87.9842 205.663C89.758 204.58 91.5202 203.583 93.223 202.619C94.2098 202.06 95.23 201.483 96.2343 200.898C96.9774 200.487 97.9133 200.745 98.3401 201.48C98.7669 202.214 98.5279 203.156 97.8023 203.598C96.7879 204.191 95.7546 204.773 94.7591 205.337C93.0766 206.288 91.339 207.272 89.6102 208.329C89.3669 208.48 89.0865 208.561 88.8001 208.563Z" fill="#D9D5CA"/>
<path d="M125.373 198.963C124.634 198.963 123.997 198.444 123.846 197.721C123.695 196.997 124.072 196.267 124.749 195.971C125.925 195.458 127.107 194.707 128.358 193.91C129.508 193.151 130.697 192.454 131.921 191.821C132.422 191.564 133.022 191.597 133.492 191.907C133.962 192.217 134.229 192.755 134.19 193.317C134.152 193.879 133.814 194.376 133.307 194.619C132.182 195.202 131.089 195.845 130.033 196.544C128.729 197.37 127.394 198.224 125.996 198.833C125.799 198.919 125.587 198.963 125.373 198.963Z" fill="#D9D5CA"/>
<path d="M93.8504 217.169C93.1505 217.166 92.5383 216.697 92.3528 216.022C92.1672 215.347 92.4536 214.63 93.0534 214.27C94.7678 213.255 96.5662 212.249 98.3037 211.276C99.9731 210.341 101.699 209.376 103.402 208.377C103.837 208.051 104.271 207.783 104.686 207.525C105.1 207.267 105.463 207.039 105.825 206.766L105.896 206.717C106.3 206.457 106.739 206.255 107.2 206.118C107.394 206.066 107.58 205.989 107.755 205.889C109.507 204.678 111.191 203.715 112.818 202.774C113.76 202.232 114.736 201.671 115.717 201.068C115.731 201.058 115.745 201.05 115.76 201.042C116.35 200.704 116.937 200.401 117.499 200.108C118.384 199.671 119.245 199.187 120.079 198.659C120.545 198.319 121.16 198.263 121.679 198.515C122.198 198.766 122.536 199.283 122.558 199.859C122.581 200.435 122.284 200.977 121.786 201.268C120.863 201.854 119.91 202.391 118.931 202.877C118.375 203.167 117.85 203.435 117.324 203.735C116.31 204.359 115.324 204.927 114.368 205.475C112.718 206.423 111.161 207.319 109.512 208.461L109.488 208.476C109.084 208.736 108.645 208.937 108.184 209.074C107.997 209.126 107.816 209.199 107.645 209.292C107.193 209.628 106.755 209.902 106.332 210.161C105.934 210.411 105.557 210.647 105.193 210.918C105.147 210.954 105.099 210.986 105.048 211.015C103.293 212.049 101.528 213.036 99.8195 213.991C98.0182 215.006 96.3169 215.951 94.6359 216.947C94.3986 217.09 94.1274 217.166 93.8504 217.169Z" fill="#D9D5CA"/>
<path d="M116.023 216.131C115.31 216.133 114.687 215.651 114.509 214.961C114.331 214.271 114.643 213.547 115.268 213.204C117.544 211.947 119.76 210.654 122.097 209.29C124.893 207.658 127.782 205.968 130.782 204.351C132.872 203.212 134.924 201.994 137.235 200.523C137.706 200.21 138.309 200.176 138.812 200.434C139.315 200.692 139.639 201.201 139.659 201.766C139.68 202.331 139.393 202.863 138.911 203.157C136.54 204.667 134.428 205.911 132.269 207.097C129.31 208.691 126.443 210.366 123.673 211.986C121.416 213.304 119.085 214.667 116.775 215.942C116.544 216.068 116.285 216.133 116.023 216.131Z" fill="#D9D5CA"/>
<path d="M99.3051 225.784C98.5921 225.785 97.969 225.302 97.7913 224.612C97.6136 223.921 97.9265 223.198 98.5515 222.854C100.27 221.91 102.003 220.861 103.679 219.848C106.022 218.429 108.445 216.963 110.977 215.681C111.742 215.318 112.657 215.632 113.039 216.388C113.421 217.144 113.13 218.067 112.384 218.468C109.958 219.694 107.587 221.131 105.294 222.518C103.59 223.549 101.83 224.614 100.056 225.591C99.8256 225.717 99.5675 225.784 99.3051 225.784Z" fill="#D9D5CA"/>
<path d="M147.807 210.659C147.1 210.659 146.482 210.184 146.299 209.501C146.117 208.818 146.415 208.098 147.027 207.745C148.691 206.788 150.399 205.819 152.053 204.881C156.995 202.077 162.104 199.178 166.952 196.097C167.677 195.666 168.614 195.89 169.066 196.602C169.519 197.314 169.324 198.257 168.626 198.731C163.711 201.855 158.567 204.773 153.592 207.596C151.943 208.532 150.237 209.499 148.582 210.45C148.347 210.587 148.079 210.659 147.807 210.659Z" fill="#D9D5CA"/>
<path d="M117.312 228.128C116.604 228.129 115.984 227.653 115.802 226.969C115.62 226.284 115.921 225.563 116.536 225.211C118.948 223.833 121.396 222.421 123.763 221.055C128.027 218.591 132.436 216.05 136.805 213.6C138.677 212.552 140.521 211.492 142.564 210.317C143.307 209.918 144.233 210.183 144.654 210.914C145.074 211.645 144.838 212.579 144.12 213.022C142.068 214.203 140.216 215.267 138.324 216.324C133.967 218.764 129.568 221.303 125.312 223.759C122.942 225.126 120.492 226.541 118.075 227.922C117.842 228.055 117.58 228.126 117.312 228.128Z" fill="#D9D5CA"/>
<path d="M104.693 235.417C103.998 235.417 103.387 234.958 103.193 234.291C102.999 233.623 103.27 232.908 103.857 232.536C105.391 231.565 106.993 230.673 108.542 229.811C109.795 229.114 110.979 228.454 112.129 227.758C112.865 227.312 113.825 227.547 114.271 228.284C114.718 229.021 114.483 229.98 113.746 230.427C112.549 231.152 111.282 231.858 110.059 232.539C108.548 233.38 106.986 234.25 105.525 235.174C105.276 235.333 104.988 235.417 104.693 235.417Z" fill="#D9D5CA"/>
<path d="M170.167 209.431C169.456 209.433 168.834 208.954 168.654 208.265C168.474 207.577 168.782 206.854 169.404 206.508C169.598 206.4 169.801 206.292 170.005 206.187C170.4 205.995 170.778 205.773 171.137 205.521C171.228 205.453 171.325 205.366 171.427 205.273C171.812 204.93 172.341 204.46 173.193 204.259C173.737 204.132 174.307 204.305 174.688 204.713C175.07 205.12 175.205 205.7 175.043 206.235C174.88 206.769 174.446 207.176 173.902 207.303C173.751 207.381 173.615 207.484 173.499 207.609C173.364 207.727 173.209 207.864 173.031 208.001C172.532 208.364 172.002 208.682 171.448 208.954C171.27 209.047 171.093 209.139 170.924 209.234C170.693 209.363 170.432 209.431 170.167 209.431Z" fill="#D9D5CA"/>
<path d="M139.919 226.767C139.202 226.768 138.577 226.28 138.403 225.584C138.229 224.888 138.551 224.164 139.184 223.827C145.561 220.435 152.138 216.611 159.294 212.137C159.797 211.836 160.32 211.572 160.859 211.344C161.259 211.178 161.646 210.984 162.019 210.765L162.577 210.415C163.301 209.959 164.056 209.486 164.829 209.042C165.575 208.613 166.529 208.87 166.958 209.617C167.388 210.364 167.13 211.318 166.384 211.747C165.659 212.162 164.971 212.597 164.237 213.052L163.672 213.406C163.177 213.703 162.661 213.964 162.129 214.187C161.723 214.353 161.329 214.547 160.949 214.767C153.733 219.28 147.092 223.138 140.652 226.565C140.428 226.692 140.176 226.761 139.919 226.767Z" fill="#D9D5CA"/>
<path d="M110.381 243.826C109.681 243.824 109.067 243.355 108.881 242.68C108.694 242.005 108.981 241.288 109.581 240.927C115.362 237.481 121.364 234.051 127.169 230.734C129.645 229.32 132.205 227.856 134.705 226.418C135.449 226.019 136.374 226.284 136.795 227.015C137.216 227.746 136.979 228.68 136.262 229.122C133.76 230.563 131.189 232.022 128.719 233.445C122.922 236.755 116.936 240.177 111.184 243.608C110.941 243.752 110.663 243.828 110.381 243.826Z" fill="#D9D5CA"/>
<path d="M150.22 184.69L147.833 186.076L143.384 179.338L145.72 177.91L150.22 184.69Z" fill="#272727"/>
<path d="M152.227 187.716L149.836 189.11L148.814 187.563L151.214 186.192L152.227 187.716Z" fill="#272727"/>
<path d="M283.945 194.897V194.946C283.902 195.698 283.477 196.376 282.819 196.743L246.67 217.212C245.992 217.595 245.213 217.759 244.438 217.681L232.728 216.488L229.948 216.198L227.216 215.935L220.975 215.299L213.032 214.492C211.152 214.296 209.708 212.737 209.656 210.847L209.315 197.538L209.179 192.255C209.143 190.883 209.858 189.601 211.044 188.91L220.975 183.122L227.216 179.483L229.948 177.889L232.728 176.27L240.881 171.516C242.03 170.846 243.447 170.834 244.608 171.483L282.809 192.866C283.542 193.273 283.982 194.06 283.945 194.897Z" fill="#F8BF30"/>
<path d="M213.806 210.379L213.345 192.379L242.778 175.223L277.778 194.814L244.732 213.526L213.806 210.379Z" fill="#F8CD61"/>
<g opacity="0.21">
<path d="M227.217 179.476V215.928L220.975 215.292V183.115L227.217 179.476Z" fill="white"/>
<path d="M232.728 176.265V216.488L229.948 216.205V177.884L232.728 176.265Z" fill="white"/>
</g>
<path d="M283.947 201.193C283.951 201.995 283.519 202.736 282.819 203.128L246.67 223.596C245.992 223.979 245.213 224.143 244.438 224.065L213.032 220.876C211.152 220.68 209.708 219.121 209.656 217.231L209.179 198.64C209.169 198.268 209.215 197.897 209.315 197.538L209.656 210.847C209.708 212.737 211.152 214.296 213.032 214.491L244.438 217.681C245.213 217.759 245.992 217.595 246.67 217.212L282.821 196.742C283.479 196.376 283.903 195.698 283.947 194.946V201.1C283.947 201.132 283.947 201.161 283.947 201.193Z" fill="#CF9321"/>
<path d="M240.476 200.31L239.788 200.71L235.017 203.483L230.597 200.93L229.897 200.526L235.427 197.309L240.476 200.31Z" fill="#272727"/>
<path d="M257.287 190.544L256.571 190.96L242.944 198.878L238.517 196.321L237.819 195.916L252.028 187.65L257.287 190.544Z" fill="#272727"/>
<path d="M239.788 200.71L235.017 203.483L230.597 200.93L235.427 198.118L239.788 200.71Z" fill="#3D3D3D"/>
<path d="M256.571 190.96L242.944 198.878L238.517 196.32L252.028 188.461L256.571 190.96Z" fill="#3D3D3D"/>
<path d="M290.691 48.6196L339.528 76.8203C341.057 77.7034 342 79.3358 342 81.1025V119.555C342 120.516 341.487 121.405 340.654 121.885C339.822 122.366 338.797 122.366 337.964 121.886L288.007 93.0386C287.175 92.5574 286.663 91.669 286.662 90.7076V50.9491C286.664 49.9898 287.176 49.1037 288.006 48.6236C288.836 48.1435 289.859 48.142 290.691 48.6196Z" fill="#D9D5CA"/>
<path d="M283.835 52.3131L332.672 80.5138C334.202 81.3974 335.144 83.0303 335.144 84.7974V123.25C335.144 124.211 334.632 125.1 333.8 125.581C332.967 126.061 331.942 126.062 331.11 125.581L281.153 96.7335C280.32 96.2528 279.808 95.3641 279.808 94.4026V54.6441C279.809 53.6849 280.321 52.7989 281.15 52.3185C281.98 51.8382 283.003 51.8361 283.835 52.3131Z" fill="#272727" stroke="#121212" stroke-width="2"/>
<path d="M307.465 85.8297L283.509 72.1671V70.3435L307.465 84.0076V85.8297Z" fill="white"/>
<path d="M292.887 82.11L283.509 76.7609V74.9387L292.887 80.2878V82.11Z" fill="white"/>
<path d="M297.746 89.4768L283.509 81.3575V79.5339L297.746 87.6547V89.4768Z" fill="white"/>
<path d="M307.465 95.0202L300.345 90.9613V89.1377L307.465 93.1981V95.0202Z" fill="white"/>
<path d="M307.465 99.6156L283.509 85.953V84.1294L307.465 97.7934V99.6156Z" fill="white"/>
<path d="M292.158 95.4813L283.509 90.5482V88.7246L292.158 93.6576V95.4813Z" fill="white"/>
<path d="M306.861 103.867L294.708 96.9352V95.113L306.861 102.045V103.867Z" fill="white"/>
<path d="M283.545 59.7004L285.518 60.8253L287.046 65.9483L287.075 65.9657V61.714L288.475 62.5127V69.6158L286.861 68.6938L284.977 62.433L284.948 62.417V67.6023L283.548 66.8035L283.545 59.7004Z" fill="white"/>
<path d="M289.649 63.1809L293.936 65.6264V66.6411L291.226 65.0915V66.976L293.384 68.2067V69.2214L291.226 67.9835V70.1579L293.94 71.7061V72.7208L289.653 70.2768L289.649 63.1809Z" fill="white"/>
<path d="M294.465 65.928L295.979 66.7977L296.68 72.6556L296.708 72.6716L297.451 67.6371L299.166 68.6141L299.909 74.4981L299.938 74.514L300.638 69.4549L301.996 70.229L300.982 76.7522L299.024 75.636L298.309 70.4392L298.28 70.4232L297.566 74.804L295.479 73.6138L294.465 65.928Z" fill="white"/>
<path d="M302.529 75.942V75.5361L304.016 76.3841V76.8712C304.016 77.3785 304.331 77.7409 304.831 78.0309C305.33 78.3208 305.645 78.3121 305.645 77.7844C305.645 77.1959 305.33 76.6407 304.302 75.4158C302.987 73.8429 302.563 73.021 302.563 72.2092C302.563 71.093 303.377 70.9046 304.906 71.7743C306.435 72.6441 307.193 73.7284 307.193 74.8635V75.1534L305.696 74.3083V73.943C305.696 73.4356 305.406 73.0732 304.91 72.7949C304.415 72.5165 304.125 72.5383 304.125 73.0254C304.125 73.5429 304.454 74.1068 305.481 75.3317C306.797 76.9045 307.211 77.709 307.211 78.5919C307.211 79.7516 306.383 79.9241 304.839 79.0441C303.296 78.1642 302.529 77.0785 302.529 75.942Z" fill="white"/>
<path d="M31.1149 123.72L33.0959 122.58L34.5668 126.219L34.5958 126.203L34.661 121.683L36.0681 120.875L35.9594 128.427L34.3378 129.359L32.522 124.934L32.4931 124.95L32.4134 130.459L31.0062 131.266L31.1149 123.72Z" fill="white"/>
<path d="M37.2448 120.202L41.5502 117.729L41.5358 118.811L38.8084 120.377L38.7795 122.373L40.9532 121.129L40.9373 122.208L38.7635 123.452L38.7302 125.771L41.4575 124.204L41.443 125.284L37.1361 127.748L37.2448 120.202Z" fill="white"/>
<path d="M42.0821 117.424L43.6037 116.554L44.2239 121.955L44.2515 121.938L45.0819 115.705L46.8049 114.716L47.4672 120.091L47.4961 120.075L48.283 113.867L49.6467 113.084L48.5193 121.22L46.5527 122.35L45.9079 117.67L45.8789 117.686L45.0891 123.195L42.9922 124.398L42.0821 117.424Z" fill="white"/>
<path d="M50.0945 118.537L50.1018 118.103L51.5944 117.246V117.763C51.5857 118.303 51.8987 118.316 52.4016 118.027C52.9044 117.739 53.2233 117.363 53.2305 116.802C53.2392 116.177 52.9291 115.959 51.906 115.873C50.6017 115.757 50.1757 115.389 50.1887 114.526C50.2047 113.339 51.0336 112.179 52.5697 111.298C54.1058 110.417 54.8565 110.669 54.8391 111.878V112.191L53.345 113.048V112.659C53.3537 112.12 53.0696 112.079 52.5668 112.369C52.0639 112.659 51.7741 113.027 51.7669 113.545C51.7669 114.096 52.0828 114.306 53.1073 114.392C54.4116 114.507 54.8231 114.873 54.8101 115.811C54.7912 117.041 53.9493 118.21 52.3987 119.1C50.8481 119.99 50.0771 119.745 50.0945 118.537Z" fill="white"/>
<path fill-rule="evenodd" clip-rule="evenodd" d="M313.741 93.3387C313.741 96.986 316.708 101.645 320.354 103.724C323.997 105.804 326.966 104.527 326.966 100.881C326.966 97.2353 324 92.582 320.354 90.496C316.708 88.4101 313.741 89.6915 313.741 93.3387ZM314.834 93.9621C314.834 90.9179 317.311 89.8495 320.354 91.5891C323.397 93.3257 325.872 97.2135 325.872 100.258C325.872 103.302 323.397 104.366 320.354 102.631C317.311 100.896 314.834 97.0063 314.834 93.9621Z" fill="#F8BF30"/>
<path d="M320.354 103.724L320.478 103.507L320.478 103.507L320.354 103.724ZM320.354 91.5891L320.23 91.8061L320.23 91.8062L320.354 91.5891ZM320.354 102.631L320.23 102.848L320.354 102.631ZM320.478 103.507C318.696 102.491 317.071 100.838 315.891 98.9852C314.71 97.1305 313.991 95.1003 313.991 93.3387H313.491C313.491 95.2244 314.256 97.3474 315.469 99.2537C316.685 101.162 318.366 102.878 320.23 103.941L320.478 103.507ZM326.716 100.881C326.716 102.635 326.008 103.755 324.928 104.22C323.83 104.692 322.263 104.526 320.478 103.507L320.23 103.941C322.088 105.002 323.828 105.237 325.125 104.679C326.44 104.114 327.216 102.773 327.216 100.881H326.716ZM320.23 90.713C322.012 91.7325 323.637 93.386 324.817 95.2379C325.998 97.0919 326.716 99.1203 326.716 100.881H327.216C327.216 98.9961 326.452 96.8749 325.238 94.9693C324.023 93.0617 322.342 91.3456 320.478 90.279L320.23 90.713ZM313.991 93.3387C313.991 91.5842 314.699 90.4622 315.779 89.9971C316.877 89.5246 318.443 89.6911 320.23 90.713L320.478 90.279C318.618 89.215 316.879 88.9792 315.582 89.5378C314.267 90.1037 313.491 91.446 313.491 93.3387H313.991ZM320.478 91.372C318.92 90.4812 317.453 90.2788 316.354 90.752C315.237 91.2325 314.584 92.3708 314.584 93.9621H315.084C315.084 92.5091 315.669 91.5911 316.552 91.2113C317.451 90.8241 318.745 90.9573 320.23 91.8061L320.478 91.372ZM326.122 100.258C326.122 98.6736 325.481 96.8942 324.465 95.2988C323.448 93.7014 322.041 92.2639 320.478 91.3719L320.23 91.8062C321.71 92.6509 323.062 94.0256 324.043 95.5673C325.026 97.111 325.622 98.7977 325.622 100.258H326.122ZM320.23 102.848C321.788 103.736 323.254 103.939 324.353 103.466C325.469 102.986 326.122 101.849 326.122 100.258H325.622C325.622 101.711 325.038 102.628 324.156 103.007C323.256 103.394 321.963 103.26 320.478 102.414L320.23 102.848ZM314.584 93.9621C314.584 95.5462 315.226 97.326 316.242 98.9216C317.259 100.519 318.667 101.957 320.23 102.848L320.478 102.414C318.998 101.57 317.645 100.195 316.664 98.653C315.681 97.1091 315.084 95.4221 315.084 93.9621H314.584Z" fill="#F9C035"/>
<ellipse cx="320.361" cy="87.8064" rx="1.14062" ry="2.00314" transform="rotate(-37.04 320.361 87.8064)" fill="#F8BF30"/>
<path d="M320.893 88.6114V91.3758C320.715 91.2579 320.535 91.1468 320.351 91.0424C320.167 90.938 319.987 90.8438 319.808 90.7525V87.9924L320.893 88.6114Z" fill="#F8BF30"/>
<ellipse cx="320.36" cy="106.755" rx="1.14062" ry="2.00314" transform="rotate(-37.04 320.36 106.755)" fill="#F8BF30"/>
<path d="M320.893 103.463V106.523L319.808 105.904V102.844C319.987 102.963 320.167 103.073 320.351 103.177C320.535 103.282 320.715 103.377 320.893 103.463Z" fill="#F8BF30"/>
<ellipse cx="313.663" cy="86.7612" rx="1.14062" ry="2.00314" transform="rotate(-37.04 313.663 86.7612)" fill="#F8BF30"/>
<path d="M316.383 90.254C316.115 90.3327 315.861 90.4514 315.628 90.6063L314.267 88.471L313.637 87.4794L314.404 87.1489L315.034 88.1405L316.383 90.254Z" fill="#F8BF30"/>
<ellipse cx="327.5" cy="108.997" rx="1.14062" ry="2.00314" transform="rotate(-36.8699 327.5 108.997)" fill="#F8BF30"/>
<path d="M327.065 107.036L326.295 107.359L324.155 103.999C324.429 103.936 324.692 103.832 324.935 103.69L326.43 106.039L327.065 107.036Z" fill="#F8BF30"/>
<ellipse cx="310.889" cy="91.8787" rx="1.14062" ry="2.00314" transform="rotate(-37.04 310.889 91.8787)" fill="#F8BF30"/>
<path d="M314.325 94.3636L311.397 92.6922V91.6079L314.295 93.2634C314.285 93.388 314.282 93.517 314.282 93.6504C314.284 93.8888 314.298 94.1268 314.325 94.3636Z" fill="#F8BF30"/>
<ellipse cx="329.831" cy="102.683" rx="1.14062" ry="2.00314" transform="rotate(-37.04 329.831 102.683)" fill="#F8BF30"/>
<path d="M329.304 101.822V102.906L326.377 101.236C326.403 101.015 326.416 100.792 326.416 100.569C326.416 100.436 326.416 100.301 326.403 100.166L329.304 101.822Z" fill="#F8BF30"/>
<ellipse cx="313.664" cy="100.16" rx="1.14062" ry="2.00314" transform="rotate(-37.04 313.664 100.16)" fill="#F8BF30"/>
<path d="M316.543 99.6605L314.404 100.581L313.637 99.3764L314.267 99.1053L315.764 98.4631C316.003 98.8757 316.262 99.2754 316.543 99.6605Z" fill="#F8BF30"/>
<ellipse cx="327.057" cy="94.4014" rx="1.14062" ry="2.00314" transform="rotate(-37.04 327.057 94.4014)" fill="#F8BF30"/>
<path d="M327.065 95.1391L326.433 95.4102L325.072 95.99C324.842 95.574 324.591 95.17 324.32 94.7796L325.667 94.1998L326.298 93.9272L327.065 95.1391Z" fill="#F8BF30"/>
<ellipse cx="323.596" cy="97.5515" rx="0.560888" ry="0.984175" transform="rotate(-37.04 323.596 97.5515)" fill="#F8BF30"/>
<ellipse cx="319.955" cy="93.3186" rx="0.560888" ry="0.984175" transform="rotate(-37.04 319.955 93.3186)" fill="#F8BF30"/>
<ellipse cx="316.962" cy="94.1965" rx="0.560888" ry="0.984175" transform="rotate(-37.04 316.962 94.1965)" fill="#F8BF30"/>
<ellipse cx="320.492" cy="97.0088" rx="0.560888" ry="0.984175" transform="rotate(-37.04 320.492 97.0088)" fill="#F8BF30"/>
<ellipse cx="317.606" cy="97.7917" rx="0.560888" ry="0.984175" transform="rotate(-37.04 317.606 97.7917)" fill="#F8BF30"/>
<ellipse cx="323.547" cy="100.907" rx="0.560888" ry="0.984175" transform="rotate(-37.04 323.547 100.907)" fill="#F8BF30"/>
<ellipse cx="320.629" cy="100.472" rx="0.560888" ry="0.984175" transform="rotate(-37.04 320.629 100.472)" fill="#F8BF30"/>
<path d="M33.9683 137.189L57.9229 123.525V121.703L33.9683 135.366V137.189Z" fill="white"/>
<path d="M48.5468 133.47L57.9229 128.121V126.297L48.5468 131.646V133.47Z" fill="white"/>
<path d="M43.6863 140.837L57.9229 132.716V130.894L43.6863 139.013V140.837Z" fill="white"/>
<path d="M33.9683 146.38L41.0865 142.32V140.498L33.9683 144.556V146.38Z" fill="white"/>
<path d="M33.9683 150.975L57.9229 137.311V135.489L33.9683 149.152V150.975Z" fill="white"/>
<path d="M49.2743 146.839L57.9229 141.906V140.084L49.2743 145.017V146.839Z" fill="white"/>
<path d="M34.5726 155.225L46.7238 148.295V146.471L34.5726 153.403V155.225Z" fill="white"/>
<path d="M98.6819 28.7629L100.661 27.6308L102.132 31.2678L102.161 31.2519L102.227 26.732L103.632 25.9246L103.525 33.4756L101.902 34.4077L100.082 29.9777L100.054 29.9936L99.9746 35.5021L98.5674 36.3096L98.6819 28.7629Z" fill="white"/>
<path d="M104.812 25.2445L109.117 22.7715L109.101 23.85L106.374 25.417L106.346 27.4117L108.52 26.1679L108.506 27.2464L106.332 28.4917L106.299 30.811L109.026 29.2455L109.01 30.324L104.705 32.7956L104.812 25.2445Z" fill="white"/>
<path d="M109.646 22.4671L111.168 21.5973L111.787 26.9986L111.816 26.9812L112.646 20.7479L114.368 19.7592L115.031 25.1344L115.06 25.1184L115.847 18.9097L117.211 18.127L116.083 26.2636L114.117 27.3929L113.472 22.7135L113.443 22.7295L112.652 28.238L110.556 29.4412L109.646 22.4671Z" fill="white"/>
<path d="M117.662 23.5804V23.1455L119.154 22.2888L119.145 22.8063C119.145 23.3455 119.451 23.3586 119.954 23.0701C120.457 22.7816 120.774 22.4062 120.783 21.8452C120.792 21.2204 120.482 21.0015 119.459 20.916C118.154 20.8 117.728 20.4318 117.74 19.5693C117.757 18.3821 118.586 17.2224 120.122 16.341C121.658 15.4596 122.409 15.7119 122.392 16.9208V17.234L120.898 18.0907V17.7022C120.906 17.1629 120.622 17.1223 120.119 17.4123C119.616 17.7022 119.327 18.0704 119.319 18.5879C119.311 19.1387 119.635 19.3489 120.66 19.4345C121.964 19.5504 122.376 19.9157 122.361 20.8536C122.344 22.0844 121.502 23.2527 119.951 24.1428C118.401 25.0329 117.644 24.7879 117.662 23.5804Z" fill="white"/>
<path d="M91.0767 47.8599L129.603 25.8969V24.0747L91.0767 46.0378V47.8599Z" fill="white"/>
<path d="M107.593 42.8689L129.603 30.4921V28.6699L107.593 41.0453V42.8689Z" fill="white"/>
<path d="M91.1738 52.1741L103.863 45.0304V43.2083L91.1738 50.3519V52.1741Z" fill="white"/>
<path d="M115.366 43.2083L129.603 35.0875V33.2654L115.366 41.3847V43.2083Z" fill="white"/>
<path d="M99.7398 52.174L112.766 44.6911V42.8689L99.7398 50.3518V52.174Z" fill="white"/>
<path d="M91.0043 57.165L96.4633 54.1324V52.3088L91.0043 55.3429V57.165Z" fill="white"/>
<path d="M91.1738 61.6603L129.603 39.6828V37.8606L91.1738 59.8367V61.6603Z" fill="white"/>
<path d="M120.955 49.211L129.603 44.278V42.4558L120.955 47.3888V49.211Z" fill="white"/>
<path d="M106.251 57.5984L118.403 50.6664V48.8428L106.251 55.7748V57.5984Z" fill="white"/>
<path d="M91.0767 66.0367L103.229 59.1061V57.2825L91.0767 64.2145V66.0367Z" fill="white"/>
<path fill-rule="evenodd" clip-rule="evenodd" d="M15.5842 163.635C17.9348 166.763 24.1966 162.539 27.0659 157.232C28.7933 154.043 29.3396 150.709 28.789 148.337C28.5329 147.191 27.9813 146.133 27.1891 145.267C26.8201 144.867 26.3955 144.522 25.9283 144.243C25.6921 144.098 24.7574 143.974 24.6951 143.691C25.0096 145.099 24.6023 147.06 23.6053 148.926C23.5865 145.657 21.7634 143.513 18.9579 143.462C19.8419 144.569 19.4912 146.825 18.668 148.97C17.8449 151.116 16.5899 153.248 15.5929 155.394C15.5857 155.391 13.054 160.27 15.5842 163.635Z" stroke="#F8BF30" stroke-width="1.6125" stroke-linecap="round" stroke-linejoin="round"/>
<path fill-rule="evenodd" clip-rule="evenodd" d="M18.7565 163.575C19.7897 164.952 22.5446 163.094 23.8068 160.759C24.5676 159.354 24.8082 157.89 24.5647 156.845C24.452 156.34 24.2092 155.875 23.8604 155.494C23.6982 155.318 23.5112 155.166 23.3054 155.044C23.2011 154.982 22.7909 154.925 22.7634 154.801C22.9011 155.42 22.7214 156.282 22.2837 157.103C22.275 155.665 21.4737 154.722 20.239 154.699C20.6288 155.188 20.4737 156.179 20.11 157.122C19.7463 158.064 19.1956 159.006 18.7565 159.947C18.7565 159.948 17.6435 162.094 18.7565 163.575Z" fill="#F9C035" stroke="#F8BF30" stroke-width="1.425" stroke-linecap="round" stroke-linejoin="round"/>
<path d="M202.908 0.138753L190.419 20.4058C190.379 20.4726 190.366 20.5531 190.386 20.629C190.405 20.7049 190.454 20.7698 190.522 20.8088L215.5 35.2179C215.606 35.2791 215.738 35.2676 215.832 35.189C215.925 35.1105 215.959 34.9817 215.917 34.8671L203.429 0.192388C203.391 0.0872202 203.296 0.0129821 203.185 0.0015328C203.074 -0.00991654 202.966 0.0434586 202.908 0.138753Z" fill="#272727"/>
<path d="M204.153 10.4454V19.0213L201.879 17.7095V9.13354L204.153 10.4454Z" fill="#F8BF30"/>
<path d="M201.879 19.8433L204.153 21.1552V24.1486L201.879 22.8367V19.8433Z" fill="#F8BF30"/>
<path d="M255.359 50.8405L242.404 71.8599C242.363 71.9265 242.35 72.0069 242.369 72.0828C242.388 72.1587 242.437 72.2236 242.505 72.2629L268.416 87.2098C268.521 87.2705 268.653 87.259 268.747 87.1809C268.84 87.1029 268.875 86.9749 268.833 86.8605L255.878 50.8912C255.839 50.7872 255.745 50.7143 255.634 50.7035C255.524 50.6927 255.417 50.7459 255.359 50.8405Z" fill="#272727"/>
<path d="M256.637 61.5341V70.4187L254.281 69.0605V60.1758L256.637 61.5341Z" fill="#F8BF30"/>
<path d="M254.281 71.2712L256.637 72.631V75.7302L254.281 74.372V71.2712Z" fill="#F8BF30"/>
<path d="M179.841 64.8631L197.535 34.5247L198.973 35.364L181.279 65.7024L179.841 64.8631Z" fill="#272727"/>
<ellipse cx="180.778" cy="65.264" rx="2.47806" ry="2.47884" fill="#272727"/>
<ellipse cx="198.272" cy="34.9613" rx="2.47806" ry="2.47884" fill="#272727"/>
<path d="M67.5134 61.9735L80.0022 82.239C80.0433 82.3057 80.0557 82.3861 80.0366 82.462C80.0175 82.5379 79.9685 82.6028 79.9008 82.642L54.9217 97.0512C54.8163 97.1119 54.6843 97.1003 54.591 97.0223C54.4978 96.9442 54.4632 96.8163 54.5043 96.7018L66.9931 62.0271C67.0307 61.9219 67.1253 61.8477 67.2364 61.8362C67.3474 61.8248 67.4552 61.8782 67.5134 61.9735Z" fill="#272727"/>
<path d="M66.2686 72.2787V80.8546L68.5423 79.5442V70.9668L66.2686 72.2787Z" fill="#F8BF30"/>
<path d="M68.5423 81.678L66.2686 82.9899V85.9819L68.5423 84.67V81.678Z" fill="#F8BF30"/>
<path d="M73.792 95.4055L73.9046 93.7451L110.447 96.2243L110.334 97.8846L73.792 95.4055Z" fill="#272727"/>
<ellipse cx="110.388" cy="97.0496" rx="2.47806" ry="2.47884" fill="#272727"/>
<ellipse cx="73.8448" cy="94.5723" rx="2.47806" ry="2.47884" fill="#272727"/>
<path d="M77.6952 131.885L90.184 152.152C90.2251 152.219 90.2375 152.299 90.2184 152.375C90.1992 152.451 90.1503 152.516 90.0826 152.555L65.1049 166.964C64.9995 167.025 64.8675 167.014 64.7743 166.936C64.681 166.857 64.6464 166.73 64.6875 166.615L77.1764 131.94C77.214 131.836 77.308 131.762 77.4185 131.75C77.529 131.738 77.6365 131.791 77.6952 131.885Z" fill="#272727"/>
<path d="M76.4518 142.191V150.766L78.7255 149.455V140.879L76.4518 142.191Z" fill="#F8BF30"/>
<path d="M78.7255 151.59L76.4518 152.9V155.894L78.7255 154.582V151.59Z" fill="#F8BF30"/>
<path d="M83.8958 163.665L125.24 157.233L125.496 158.877L84.1515 165.309L83.8958 163.665Z" fill="#272727"/>
<ellipse cx="125.373" cy="157.842" rx="2.47806" ry="2.47884" fill="#272727"/>
<ellipse cx="84.028" cy="164.483" rx="2.47806" ry="2.47884" fill="#272727"/>
<path d="M215.315 105.065L247.103 87.148L247.92 88.5991L216.132 106.516L215.315 105.065Z" fill="#272727"/>
<ellipse cx="215.925" cy="105.739" rx="2.47806" ry="2.47884" fill="#272727"/>
<ellipse cx="247.508" cy="87.3953" rx="2.47806" ry="2.47884" fill="#272727"/>
<path d="M92.6389 130.16C92.6625 130.167 92.6858 130.175 92.7085 130.185C92.6389 130.234 92.623 130.218 92.6389 130.16Z" fill="#0C86B3"/>
<path d="M93.1679 129.091L93.1099 129.028C93.191 128.969 93.1997 129.002 93.1679 129.091Z" fill="#0C86B3"/>
<ellipse cx="130.386" cy="74.9403" rx="5.35216" ry="2.79898" transform="rotate(-30 130.386 74.9403)" fill="#227C9D"/>
</svg>
