<svg width="25" height="26" viewBox="0 0 25 26" fill="none" xmlns="http://www.w3.org/2000/svg">
<path d="M16.4217 15.7638C16.4217 15.7638 14.7631 17.4211 12.0005 17.4211C9.23655 17.4211 7.57922 15.7638 7.57922 15.7638" stroke="#8D8D8D" stroke-width="1.5" stroke-linecap="round" stroke-linejoin="round"/>
<path d="M0 25L6.00656 22.8008C10.256 25.4345 15.7055 25.101 19.6012 21.9671C23.4969 18.8333 24.9913 13.5823 23.3289 8.86694C21.6678 4.15032 17.21 0.997475 12.2102 1" stroke="#8D8D8D" stroke-width="1.5" stroke-linecap="round" stroke-linejoin="round"/>
<path d="M12.2102 1.00001C7.93169 0.993697 3.98669 3.30906 1.90618 7.04801C-0.174323 10.787 -0.061897 15.3608 2.19925 18.9924L0 25" stroke="#8D8D8D" stroke-width="1.5" stroke-linecap="round" stroke-linejoin="round"/>
<path d="M16.2044 9.21053C16.0301 9.21053 15.8886 9.35201 15.8899 9.52632C15.8899 9.70064 16.0314 9.84211 16.2057 9.84211C16.38 9.84211 16.5215 9.70064 16.5215 9.52632C16.5215 9.35201 16.38 9.21053 16.2044 9.21053" stroke="#8D8D8D" stroke-width="1.5" stroke-linecap="round" stroke-linejoin="round"/>
<path d="M7.75486 9.21053C7.58053 9.21053 7.43905 9.35201 7.44032 9.52632C7.44032 9.70064 7.5818 9.84211 7.75612 9.84211C7.93044 9.84211 8.07192 9.70064 8.07192 9.52632C8.07192 9.35201 7.93044 9.21053 7.75486 9.21053" stroke="#8D8D8D" stroke-width="1.5" stroke-linecap="round" stroke-linejoin="round"/>
</svg>
