<svg width="24" height="26" viewBox="0 0 24 26" fill="none" xmlns="http://www.w3.org/2000/svg">
<path d="M15.5532 15.5334C15.5532 15.5334 14.0328 17.0526 11.5004 17.0526C8.96685 17.0526 7.44763 15.5334 7.44763 15.5334" stroke="#8D8D8D" stroke-width="2.0625" stroke-linecap="round" stroke-linejoin="round"/>
<path d="M0.5 24L6.00601 21.9841C9.90133 24.3983 14.8967 24.0926 18.4678 21.2199C22.0389 18.3471 23.4087 13.5338 21.8849 9.21137C20.3622 4.88779 16.2758 1.99769 11.6927 2" stroke="#8D8D8D" stroke-width="2.0625" stroke-linecap="round" stroke-linejoin="round"/>
<path d="M11.6927 2.00001C7.77072 1.99422 4.15446 4.11664 2.24733 7.54401C0.340204 10.9714 0.443261 15.1641 2.51598 18.4931L0.5 24" stroke="#8D8D8D" stroke-width="2.0625" stroke-linecap="round" stroke-linejoin="round"/>
<path d="M15.3541 9.52635C15.1943 9.52635 15.0646 9.65604 15.0657 9.81582C15.0657 9.97561 15.1954 10.1053 15.3552 10.1053C15.515 10.1053 15.6447 9.97561 15.6447 9.81582C15.6447 9.65604 15.515 9.52635 15.3541 9.52635" stroke="#8D8D8D" stroke-width="2.0625" stroke-linecap="round" stroke-linejoin="round"/>
<path d="M7.60858 9.52635C7.44878 9.52635 7.31909 9.65604 7.32025 9.81582C7.32025 9.97561 7.44994 10.1053 7.60974 10.1053C7.76953 10.1053 7.89922 9.97561 7.89922 9.81582C7.89922 9.65604 7.76953 9.52635 7.60858 9.52635" stroke="#8D8D8D" stroke-width="2.0625" stroke-linecap="round" stroke-linejoin="round"/>
</svg>
