<?xml version="1.0" encoding="utf-8"?>
<!-- Generator: Adobe Illustrator 23.0.2, SVG Export Plug-In . SVG Version: 6.00 Build 0)  -->
<svg version="1.1" id="Layer_1" xmlns="http://www.w3.org/2000/svg" xmlns:xlink="http://www.w3.org/1999/xlink" x="0px" y="0px"
	 viewBox="0 0 15.9 26" style="enable-background:new 0 0 15.9 26;" xml:space="preserve">
<style type="text/css">
	.st0{fill-rule:evenodd;clip-rule:evenodd;fill:#F4F4F4;}
	.st1{fill-rule:evenodd;clip-rule:evenodd;fill:none;stroke:#E0E0E0;}
</style>
<path id="Rectangle-Copy-6_11_" class="st0" d="M0,25.5l8.8,0l5.9,0c-3.3-3.2-5.2-7.6-5.2-12.2l0,0L9.3,4.9c0-1.2-0.5-2.3-1.3-3.1
	C7.2,1,6.1,0.5,4.8,0.5l0,0H0"/>
<path id="Rectangle-Copy-6_8_" class="st1" d="M0,25.5l8.8,0l5.9,0c-3.3-3.2-5.2-7.6-5.2-12.2l0,0L9.3,4.9c0-1.2-0.5-2.3-1.3-3.1
	C7.2,1,6.1,0.5,4.8,0.5l0,0H0"/>
</svg>
