<?xml version="1.0" encoding="utf-8"?>
<!-- Generator: Adobe Illustrator 23.0.2, SVG Export Plug-In . SVG Version: 6.00 Build 0)  -->
<svg version="1.1" id="Layer_1" xmlns="http://www.w3.org/2000/svg" xmlns:xlink="http://www.w3.org/1999/xlink" x="0px" y="0px"
	 viewBox="0 0 7.4 25.8" style="enable-background:new 0 0 7.4 25.8;" xml:space="preserve">
<style type="text/css">
	.st0{fill-rule:evenodd;clip-rule:evenodd;fill:#F4F4F4;}
	.st1{fill-rule:evenodd;clip-rule:evenodd;fill:none;stroke:#E0E0E0;}
</style>
<path id="Rectangle-Copy-6_7_" class="st0" d="M7.4,0.5H5C3.8,0.5,2.6,1,1.8,1.8C1,2.6,0.5,3.8,0.5,5l0,0v15.8
	c0,1.2,0.5,2.4,1.3,3.2c0.8,0.8,1.9,1.3,3.2,1.3l0,0l2.4,0"/>
<path id="Rectangle-Copy-6_1_" class="st1" d="M7.4,0.5H5"/>
<path id="Rectangle-Copy-6" class="st1" d="M5,0.5C3.8,0.5,2.6,1,1.8,1.8C1,2.6,0.5,3.8,0.5,5l0,0v15.8c0,1.2,0.5,2.4,1.3,3.2
	c0.8,0.8,1.9,1.3,3.2,1.3l0,0l2.4,0"/>
</svg>
